<svg xmlns="http://www.w3.org/2000/svg" width="48" height="48.577" viewBox="0 0 48 48.577">
  <g id="Desert" transform="translate(0 -0.5)">
    <rect id="touch" width="48" height="48" transform="translate(0 0.5)" fill="none"/>
    <circle id="楕円形_38" data-name="楕円形 38" cx="8.581" cy="8.581" r="8.581" transform="translate(14.919 2.497)" fill="#e2648b" stroke="#000" stroke-miterlimit="10" stroke-width="1"/>
    <circle id="楕円形_39" data-name="楕円形 39" cx="8.581" cy="8.581" r="8.581" transform="translate(23.048 11.53)" fill="#ffd051" stroke="#000" stroke-miterlimit="10" stroke-width="1"/>
    <circle id="楕円形_40" data-name="楕円形 40" cx="9.033" cy="9.033" r="9.033" transform="translate(7.693 11.53)" fill="#f37725" stroke="#000" stroke-miterlimit="10" stroke-width="1"/>
    <g id="グループ_231" data-name="グループ 231" transform="translate(4.983 23.272)">
      <rect id="長方形_75" data-name="長方形 75" width="37.034" height="3.613" rx="1.807" transform="translate(0 0)" fill="#f8f7f5" stroke="#000" stroke-miterlimit="10" stroke-width="1"/>
      <path id="パス_33" data-name="パス 33" d="M52.86,53H21a17.893,17.893,0,0,0,5.623,9.42,16.9,16.9,0,0,0,10.709,4C44.239,66.282,50.76,60.956,53.665,53Z" transform="translate(-18.667 -49.277)" fill="#f8f7f5" stroke="#000" stroke-miterlimit="10" stroke-width="1"/>
      <rect id="長方形_76" data-name="長方形 76" width="6.323" height="2.71" transform="translate(15.356 17.162)" fill="#f8f7f5" stroke="#000" stroke-miterlimit="10" stroke-width="1"/>
      <path id="パス_34" data-name="パス 34" d="M50.964,86.25A3.684,3.684,0,0,0,51,85.812C51,83.152,47.867,81,44,81s-7,2.152-7,4.812a2.766,2.766,0,0,0,.035.437H50.97Z" transform="translate(-25.334 -60.945)" fill="#f8f7f5" stroke="#000" stroke-miterlimit="10" stroke-width="1"/>
    </g>
  </g>
</svg>
