<svg xmlns="http://www.w3.org/2000/svg" width="1703.611" height="1427.903" viewBox="0 0 1703.611 1427.903">
  <g id="Group_355" data-name="Group 355" transform="translate(-83 -6822.5)">
    <g id="Group_354" data-name="Group 354" transform="translate(299 634.5)">
      <g id="Rectangle_23" data-name="Rectangle 23" transform="translate(1176 7082.5)" fill="#87a8e9" stroke="#707070" stroke-width="1">
        <rect width="87.611" height="87.611" stroke="none"/>
        <rect x="0.5" y="0.5" width="86.611" height="86.611" fill="none"/>
      </g>
      <g id="Ellipse_1" data-name="Ellipse 1" transform="translate(-216 6506.5)" fill="#8ce695" stroke="#707070" stroke-width="1">
        <circle cx="53.233" cy="53.233" r="53.233" stroke="none"/>
        <circle cx="53.233" cy="53.233" r="52.733" fill="none"/>
      </g>
      <text id="Entry_Point" data-name="Entry Point" transform="translate(-205 6548.5)" font-size="22" font-family="Helvetica"><tspan x="16.469" y="21">Entry </tspan></text>
      <g id="Group_49" data-name="Group 49" transform="translate(120.722 6310.066)">
        <line id="Line_1" data-name="Line 1" x2="78.303" transform="translate(0 7.965)" fill="none" stroke="#000" stroke-width="2"/>
        <g id="Polygon_1" data-name="Polygon 1" transform="translate(78.901 0) rotate(90)">
          <path d="M 15.06209754943848 13.25713920593262 L 0.8672208189964294 13.25713920593262 L 7.964659214019775 0.9979277849197388 L 15.06209754943848 13.25713920593262 Z" stroke="none"/>
          <path d="M 7.964659214019775 1.99587345123291 L 1.734452247619629 12.75713920593262 L 14.19486618041992 12.75713920593262 L 7.964659214019775 1.99587345123291 M 7.964659214019775 0 L 15.92931938171387 13.75713920593262 L -9.5367431640625e-07 13.75713920593262 L 7.964659214019775 0 Z" stroke="none" fill="#000"/>
        </g>
      </g>
      <g id="Group_53" data-name="Group 53" transform="translate(56.247 6621.74) rotate(90)">
        <line id="Line_1-2" data-name="Line 1" x2="61.098" transform="translate(0 7.965)" fill="none" stroke="#000" stroke-width="2"/>
        <g id="Polygon_1-2" data-name="Polygon 1" transform="translate(61.696 0) rotate(90)">
          <path d="M 15.06209754943848 13.25713920593262 L 0.8672208189964294 13.25713920593262 L 7.964659214019775 0.9979277849197388 L 15.06209754943848 13.25713920593262 Z" stroke="none"/>
          <path d="M 7.964659214019775 1.99587345123291 L 1.734452247619629 12.75713920593262 L 14.19486618041992 12.75713920593262 L 7.964659214019775 1.99587345123291 M 7.964659214019775 0 L 15.92931938171387 13.75713920593262 L -9.5367431640625e-07 13.75713920593262 L 7.964659214019775 0 Z" stroke="none" fill="#000"/>
        </g>
      </g>
      <g id="Group_51" data-name="Group 51" transform="translate(39.291 6504.82) rotate(-90)">
        <line id="Line_1-3" data-name="Line 1" x2="112.657" transform="translate(0 7.965)" fill="none" stroke="#000" stroke-width="2"/>
        <g id="Polygon_1-3" data-name="Polygon 1" transform="translate(113.255 0) rotate(90)">
          <path d="M 15.06209754943848 13.25713920593262 L 0.8672208189964294 13.25713920593262 L 7.964659214019775 0.9979277849197388 L 15.06209754943848 13.25713920593262 Z" stroke="none"/>
          <path d="M 7.964659214019775 1.99587345123291 L 1.734452247619629 12.75713920593262 L 14.19486618041992 12.75713920593262 L 7.964659214019775 1.99587345123291 M 7.964659214019775 0 L 15.92931938171387 13.75713920593262 L -9.5367431640625e-07 13.75713920593262 L 7.964659214019775 0 Z" stroke="none" fill="#000"/>
        </g>
      </g>
      <g id="Group_54" data-name="Group 54" transform="translate(137.864 7106.08)">
        <line id="Line_1-4" data-name="Line 1" x2="360.663" transform="translate(0 7.965)" fill="none" stroke="#000" stroke-width="2"/>
        <g id="Polygon_1-4" data-name="Polygon 1" transform="translate(361.261 0) rotate(90)">
          <path d="M 15.06209754943848 13.25713920593262 L 0.8672208189964294 13.25713920593262 L 7.964659214019775 0.9979277849197388 L 15.06209754943848 13.25713920593262 Z" stroke="none"/>
          <path d="M 7.964659214019775 1.99587345123291 L 1.734452247619629 12.75713920593262 L 14.19486618041992 12.75713920593262 L 7.964659214019775 1.99587345123291 M 7.964659214019775 0 L 15.92931938171387 13.75713920593262 L -9.5367431640625e-07 13.75713920593262 L 7.964659214019775 0 Z" stroke="none" fill="#000"/>
        </g>
      </g>
      <g id="Group_37" data-name="Group 37" transform="translate(-90.524 6553.75)">
        <line id="Line_1-5" data-name="Line 1" x2="78.303" transform="translate(0 7.965)" fill="none" stroke="#000" stroke-width="2"/>
        <g id="Polygon_1-5" data-name="Polygon 1" transform="translate(78.901 0) rotate(90)">
          <path d="M 15.06209754943848 13.25713920593262 L 0.8672208189964294 13.25713920593262 L 7.964659214019775 0.9979277849197388 L 15.06209754943848 13.25713920593262 Z" stroke="none"/>
          <path d="M 7.964659214019775 1.99587345123291 L 1.734452247619629 12.75713920593262 L 14.19486618041992 12.75713920593262 L 7.964659214019775 1.99587345123291 M 7.964659214019775 0 L 15.92931938171387 13.75713920593262 L -9.5367431640625e-07 13.75713920593262 L 7.964659214019775 0 Z" stroke="none" fill="#000"/>
        </g>
      </g>
      <g id="Group_50" data-name="Group 50" transform="translate(314.548 6364.54) rotate(51)">
        <line id="Line_1-6" data-name="Line 1" x2="188.921" transform="translate(0 7.965)" fill="none" stroke="#000" stroke-width="2"/>
        <g id="Polygon_1-6" data-name="Polygon 1" transform="translate(189.52 0) rotate(90)">
          <path d="M 15.06209754943848 13.25713920593262 L 0.8672208189964294 13.25713920593262 L 7.964659214019775 0.9979277849197388 L 15.06209754943848 13.25713920593262 Z" stroke="none"/>
          <path d="M 7.964659214019775 1.99587345123291 L 1.734452247619629 12.75713920593262 L 14.19486618041992 12.75713920593262 L 7.964659214019775 1.99587345123291 M 7.964659214019775 0 L 15.92931938171387 13.75713920593262 L -9.5367431640625e-07 13.75713920593262 L 7.964659214019775 0 Z" stroke="none" fill="#000"/>
        </g>
      </g>
      <g id="Group_19" data-name="Group 19" transform="translate(737.542 6558.822)">
        <line id="Line_1-7" data-name="Line 1" x2="78.303" transform="translate(0 7.965)" fill="none" stroke="#000" stroke-width="2"/>
        <g id="Polygon_1-7" data-name="Polygon 1" transform="translate(78.901 0) rotate(90)">
          <path d="M 15.06209754943848 13.25713920593262 L 0.8672208189964294 13.25713920593262 L 7.964659214019775 0.9979277849197388 L 15.06209754943848 13.25713920593262 Z" stroke="none"/>
          <path d="M 7.964659214019775 1.99587345123291 L 1.734452247619629 12.75713920593262 L 14.19486618041992 12.75713920593262 L 7.964659214019775 1.99587345123291 M 7.964659214019775 0 L 15.92931938171387 13.75713920593262 L -9.5367431640625e-07 13.75713920593262 L 7.964659214019775 0 Z" stroke="none" fill="#000"/>
        </g>
      </g>
      <g id="Group_20" data-name="Group 20" transform="translate(980.826 6558.822)">
        <line id="Line_1-8" data-name="Line 1" x2="78.303" transform="translate(0 7.965)" fill="none" stroke="#000" stroke-width="2"/>
        <g id="Polygon_1-8" data-name="Polygon 1" transform="translate(78.901 0) rotate(90)">
          <path d="M 15.06209754943848 13.25713920593262 L 0.8672208189964294 13.25713920593262 L 7.964659214019775 0.9979277849197388 L 15.06209754943848 13.25713920593262 Z" stroke="none"/>
          <path d="M 7.964659214019775 1.99587345123291 L 1.734452247619629 12.75713920593262 L 14.19486618041992 12.75713920593262 L 7.964659214019775 1.99587345123291 M 7.964659214019775 0 L 15.92931938171387 13.75713920593262 L -9.5367431640625e-07 13.75713920593262 L 7.964659214019775 0 Z" stroke="none" fill="#000"/>
        </g>
      </g>
      <g id="Group_21" data-name="Group 21" transform="translate(895.809 6499.103) rotate(-90)">
        <line id="Line_1-9" data-name="Line 1" x2="78.303" transform="translate(0 7.965)" fill="none" stroke="#000" stroke-width="2"/>
        <g id="Polygon_1-9" data-name="Polygon 1" transform="translate(78.901 0) rotate(90)">
          <path d="M 15.06209754943848 13.25713920593262 L 0.8672208189964294 13.25713920593262 L 7.964659214019775 0.9979277849197388 L 15.06209754943848 13.25713920593262 Z" stroke="none"/>
          <path d="M 7.964659214019775 1.99587345123291 L 1.734452247619629 12.75713920593262 L 14.19486618041992 12.75713920593262 L 7.964659214019775 1.99587345123291 M 7.964659214019775 0 L 15.92931938171387 13.75713920593262 L -9.5367431640625e-07 13.75713920593262 L 7.964659214019775 0 Z" stroke="none" fill="#000"/>
        </g>
      </g>
      <g id="Rectangle_10" data-name="Rectangle 10" transform="translate(465.718 6499.944) rotate(45)" fill="#ffff6b" stroke="#707070" stroke-width="1">
        <rect width="83.267" height="83.267" stroke="none"/>
        <rect x="0.5" y="0.5" width="82.267" height="82.267" fill="none"/>
      </g>
      <g id="Rectangle_13" data-name="Rectangle 13" transform="translate(903.774 6507.908) rotate(45)" fill="#ffff6b" stroke="#707070" stroke-width="1">
        <rect width="83.267" height="83.267" stroke="none"/>
        <rect x="0.5" y="0.5" width="82.267" height="82.267" fill="none"/>
      </g>
      <text id="Searches_by..._" data-name="Searches 
by...?" transform="translate(468.816 6555.101)" font-size="16" font-family="Helvetica"><tspan x="-36.02" y="0">Searches </tspan><tspan x="-18.977" y="19">by...?</tspan></text>
      <g id="Group_48" data-name="Group 48" transform="translate(-11.623 6262.157)">
        <g id="Rectangle_27" data-name="Rectangle 27" transform="translate(58.501 0) rotate(45)" fill="#ffff6b" stroke="#707070" stroke-width="1">
          <rect width="83.267" height="83.267" stroke="none"/>
          <rect x="0.5" y="0.5" width="82.267" height="82.267" fill="none"/>
        </g>
        <text id="Serach_Recipe_from_Landing_Page_" data-name="Serach Recipe from Landing Page?" transform="translate(27.623 20.347)" font-size="14" font-family="Helvetica"><tspan x="8.955" y="13">Serach </tspan><tspan x="9.345" y="29">Recipe </tspan><tspan x="17.135" y="45">from </tspan><tspan x="6.221" y="61">Landing </tspan><tspan x="10.893" y="77">Page?</tspan></text>
      </g>
      <text id="Wants_to_Filter_recipes_" data-name="Wants 
to Filter 
recipes?" transform="translate(903.774 6552.72)" font-size="16" font-family="Helvetica"><tspan x="-24.602" y="0">Wants </tspan><tspan x="-28.895" y="19">to Filter </tspan><tspan x="-30.238" y="38">recipes?</tspan></text>
      <g id="Rectangle_12" data-name="Rectangle 12" transform="translate(624 6514.5)" fill="#87a8e9" stroke="#707070" stroke-width="1">
        <rect width="87.611" height="87.611" stroke="none"/>
        <rect x="0.5" y="0.5" width="86.611" height="86.611" fill="none"/>
      </g>
      <g id="Rectangle_20" data-name="Rectangle 20" transform="translate(4 6515.5)" fill="#87a8e9" stroke="#707070" stroke-width="1">
        <rect width="87.612" height="87.612" stroke="none"/>
        <rect x="0.5" y="0.5" width="86.612" height="86.612" fill="none"/>
      </g>
      <g id="Rectangle_14" data-name="Rectangle 14" transform="translate(215 6273.5)" fill="#87a8e9" stroke="#707070" stroke-width="1">
        <rect width="87.611" height="87.611" stroke="none"/>
        <rect x="0.5" y="0.5" width="86.611" height="86.611" fill="none"/>
      </g>
      <g id="Rectangle_28" data-name="Rectangle 28" transform="translate(860 6309.5)" fill="#87a8e9" stroke="#707070" stroke-width="1">
        <rect width="87.611" height="87.611" stroke="none"/>
        <rect x="0.5" y="0.5" width="86.611" height="86.611" fill="none"/>
      </g>
      <g id="Rectangle_22" data-name="Rectangle 22" transform="translate(1096 6519.5)" fill="#87a8e9" stroke="#707070" stroke-width="1">
        <rect width="87.611" height="87.611" stroke="none"/>
        <rect x="0.5" y="0.5" width="86.611" height="86.611" fill="none"/>
      </g>
      <text id="Search_Results" data-name="Search 
Results" transform="translate(667 6554.5)" font-size="18" font-family="Helvetica"><tspan x="-31.017" y="0">Search </tspan><tspan x="-30.01" y="21">Results</tspan></text>
      <text id="Landing_Page" data-name="Landing 
Page" transform="translate(47 6555.5)" font-size="18" font-family="Helvetica"><tspan x="-34.532" y="0">Landing </tspan><tspan x="-21.019" y="21">Page</tspan></text>
      <text id="Recipe_Overview_Page" data-name="Recipe Overview Page" transform="translate(217 6285.5)" font-size="18" font-family="Helvetica"><tspan x="-28.015" y="17">Recipe </tspan><tspan x="-37.507" y="38">Overview </tspan><tspan x="-21.019" y="59">Page</tspan></text>
      <text id="Sets_Filters" data-name="Sets Filters" transform="translate(863 6332.5)" font-size="18" font-family="Helvetica"><tspan x="-18.009" y="17">Sets </tspan><tspan x="-24.5" y="38">Filters</tspan></text>
      <g id="Group_17" data-name="Group 17" transform="translate(680.801 6429.022) rotate(90)">
        <path id="Path_2" data-name="Path 2" d="M0,0V47.5H207.118V0" transform="translate(47.501 7.965) rotate(90)" fill="none" stroke="#000" stroke-width="2"/>
        <g id="Polygon_3" data-name="Polygon 3" transform="translate(61.258 0) rotate(90)">
          <path d="M 15.06209564208984 13.25713920593262 L 0.8672189116477966 13.25713920593262 L 7.964657306671143 0.9979277849197388 L 15.06209564208984 13.25713920593262 Z" stroke="none"/>
          <path d="M 7.964657306671143 1.99587345123291 L 1.734450340270996 12.75713920593262 L 14.19486427307129 12.75713920593262 L 7.964657306671143 1.99587345123291 M 7.964657306671143 0 L 15.92931747436523 13.75713920593262 L -2.86102294921875e-06 13.75713920593262 L 7.964657306671143 0 Z" stroke="none" fill="#000"/>
        </g>
      </g>
      <g id="Group_18" data-name="Group 18" transform="translate(476.524 6691.569) rotate(-90)">
        <path id="Path_2-2" data-name="Path 2" d="M0,47.5V0H196.312V47.5" transform="translate(0 196.312) rotate(-90)" fill="none" stroke="#000" stroke-width="2"/>
        <g id="Polygon_3-2" data-name="Polygon 3" transform="translate(61.258 188.347) rotate(90)">
          <path d="M 15.06209564208984 13.25713920593262 L 0.8672189116477966 13.25713920593262 L 7.964657306671143 0.9979277849197388 L 15.06209564208984 13.25713920593262 Z" stroke="none"/>
          <path d="M 7.964657306671143 1.99587345123291 L 1.734450340270996 12.75713920593262 L 14.19486427307129 12.75713920593262 L 7.964657306671143 1.99587345123291 M 7.964657306671143 0 L 15.92931747436523 13.75713920593262 L -2.86102294921875e-06 13.75713920593262 L 7.964657306671143 0 Z" stroke="none" fill="#000"/>
        </g>
      </g>
      <g id="Group_55" data-name="Group 55" transform="translate(63.487 7417.819) rotate(-90)">
        <path id="Path_2-3" data-name="Path 2" d="M0,22.162V0H731.127V232.215" transform="translate(0 731.127) rotate(-90)" fill="none" stroke="#000" stroke-width="2"/>
        <g id="Polygon_3-3" data-name="Polygon 3" transform="translate(32.639 723.162) rotate(90)">
          <path d="M 15.06209564208984 13.25713920593262 L 0.8672189116477966 13.25713920593262 L 7.964657306671143 0.9979277849197388 L 15.06209564208984 13.25713920593262 Z" stroke="none"/>
          <path d="M 7.964657306671143 1.99587345123291 L 1.734450340270996 12.75713920593262 L 14.19486427307129 12.75713920593262 L 7.964657306671143 1.99587345123291 M 7.964657306671143 0 L 15.92931747436523 13.75713920593262 L -2.86102294921875e-06 13.75713920593262 L 7.964657306671143 0 Z" stroke="none" fill="#000"/>
        </g>
      </g>
      <text id="Keyword" transform="translate(567.177 6401.564)" font-size="14" font-family="Helvetica"><tspan x="-27.234" y="0">Keyword</tspan></text>
      <text id="Category" transform="translate(568.177 6723.771)" font-size="14" font-family="Helvetica"><tspan x="-28.403" y="0">Category</tspan></text>
      <text id="Yes" transform="translate(925.171 6479.763)" font-size="14" font-family="Helvetica"><tspan x="-11.419" y="0">Yes</tspan></text>
      <text id="Yes-2" data-name="Yes" transform="translate(442.817 6201)" font-size="14" font-family="Helvetica"><tspan x="-11.419" y="0">Yes</tspan></text>
      <text id="No" transform="translate(1014.403 6547.101)" font-size="14" font-family="Helvetica"><tspan x="-8.948" y="0">No</tspan></text>
      <text id="No-2" data-name="No" transform="translate(147.773 6304.107)" font-size="14" font-family="Helvetica"><tspan x="-8.948" y="0">No</tspan></text>
      <g id="Group_22" data-name="Group 22" transform="translate(967.603 6352.945)">
        <path id="Path_1" data-name="Path 1" d="M0,172.592V0H123.578" transform="translate(172.592 0) rotate(90)" fill="none" stroke="#000" stroke-width="2"/>
        <g id="Polygon_2" data-name="Polygon 2" transform="translate(180.919 137.335) rotate(180)">
          <path d="M 15.06209754943848 13.25713920593262 L 0.8672208189964294 13.25713920593262 L 7.964659214019775 0.9979277849197388 L 15.06209754943848 13.25713920593262 Z" stroke="none"/>
          <path d="M 7.964659214019775 1.99587345123291 L 1.734452247619629 12.75713920593262 L 14.19486618041992 12.75713920593262 L 7.964659214019775 1.99587345123291 M 7.964659214019775 0 L 15.92931938171387 13.75713920593262 L -9.5367431640625e-07 13.75713920593262 L 7.964659214019775 0 Z" stroke="none" fill="#000"/>
        </g>
      </g>
      <text id="Overview_of_recipes_that_fits_preferences" data-name="Overview of 
recipes that 
fits 
preferences" transform="translate(1140 6544.5)" font-size="14" font-family="Helvetica"><tspan x="-38.9" y="0">Overview of </tspan><tspan x="-38.131" y="16">recipes that </tspan><tspan x="-10.89" y="32">fits </tspan><tspan x="-36.965" y="48">preferences</tspan></text>
      <text id="Recipe_is_added_to_the_meal_planner" data-name="Recipe is 
added to 
the meal 
planner" transform="translate(1220 7102.5)" font-size="16" font-family="Helvetica"><tspan x="-35.125" y="0">Recipe is </tspan><tspan x="-33.363" y="19">added to </tspan><tspan x="-32.906" y="38">the meal </tspan><tspan x="-26.688" y="57">planner</tspan></text>
      <g id="Group_2" data-name="Group 2" transform="translate(639.432 7322.079)">
        <line id="Line_1-10" data-name="Line 1" x2="78.303" transform="translate(0 7.965)" fill="none" stroke="#000" stroke-width="2"/>
        <g id="Polygon_1-10" data-name="Polygon 1" transform="translate(78.901 0) rotate(90)">
          <path d="M 15.06209754943848 13.25713920593262 L 0.8672208189964294 13.25713920593262 L 7.964659214019775 0.9979277849197388 L 15.06209754943848 13.25713920593262 Z" stroke="none"/>
          <path d="M 7.964659214019775 1.99587345123291 L 1.734452247619629 12.75713920593262 L 14.19486618041992 12.75713920593262 L 7.964659214019775 1.99587345123291 M 7.964659214019775 0 L 15.92931938171387 13.75713920593262 L -9.5367431640625e-07 13.75713920593262 L 7.964659214019775 0 Z" stroke="none" fill="#000"/>
        </g>
      </g>
      <g id="Group_56" data-name="Group 56" transform="translate(625.707 6891.625)">
        <line id="Line_1-11" data-name="Line 1" x2="102.06" transform="translate(0 7.965)" fill="none" stroke="#000" stroke-width="2"/>
        <g id="Polygon_1-11" data-name="Polygon 1" transform="translate(102.658 0) rotate(90)">
          <path d="M 15.06209754943848 13.25713920593262 L 0.8672208189964294 13.25713920593262 L 7.964659214019775 0.9979277849197388 L 15.06209754943848 13.25713920593262 Z" stroke="none"/>
          <path d="M 7.964659214019775 1.99587345123291 L 1.734452247619629 12.75713920593262 L 14.19486618041992 12.75713920593262 L 7.964659214019775 1.99587345123291 M 7.964659214019775 0 L 15.92931938171387 13.75713920593262 L -9.5367431640625e-07 13.75713920593262 L 7.964659214019775 0 Z" stroke="none" fill="#000"/>
        </g>
      </g>
      <g id="Group_57" data-name="Group 57" transform="translate(792.357 6952.409) rotate(90)">
        <line id="Line_1-12" data-name="Line 1" x2="321.834" transform="translate(0 7.965)" fill="none" stroke="#000" stroke-width="2"/>
        <g id="Polygon_1-12" data-name="Polygon 1" transform="translate(322.433 0) rotate(90)">
          <path d="M 15.06209754943848 13.25713920593262 L 0.8672208189964294 13.25713920593262 L 7.964659214019775 0.9979277849197388 L 15.06209754943848 13.25713920593262 Z" stroke="none"/>
          <path d="M 7.964659214019775 1.99587345123291 L 1.734452247619629 12.75713920593262 L 14.19486618041992 12.75713920593262 L 7.964659214019775 1.99587345123291 M 7.964659214019775 0 L 15.92931938171387 13.75713920593262 L -9.5367431640625e-07 13.75713920593262 L 7.964659214019775 0 Z" stroke="none" fill="#000"/>
        </g>
      </g>
      <g id="Group_7" data-name="Group 7" transform="translate(854.478 7321.717)">
        <line id="Line_1-13" data-name="Line 1" x2="68.83" transform="translate(0 7.965)" fill="none" stroke="#000" stroke-width="2"/>
        <g id="Polygon_1-13" data-name="Polygon 1" transform="translate(69.296 0) rotate(90)">
          <path d="M 15.06209754943848 13.25713920593262 L 0.8672208189964294 13.25713920593262 L 7.964659214019775 0.9979277849197388 L 15.06209754943848 13.25713920593262 Z" stroke="none"/>
          <path d="M 7.964659214019775 1.99587345123291 L 1.734452247619629 12.75713920593262 L 14.19486618041992 12.75713920593262 L 7.964659214019775 1.99587345123291 M 7.964659214019775 0 L 15.92931938171387 13.75713920593262 L -9.5367431640625e-07 13.75713920593262 L 7.964659214019775 0 Z" stroke="none" fill="#000"/>
        </g>
      </g>
      <g id="Group_10" data-name="Group 10" transform="translate(1065.903 7115.431)">
        <line id="Line_1-14" data-name="Line 1" x2="71.594" transform="translate(0 7.965)" fill="none" stroke="#000" stroke-width="2"/>
        <g id="Polygon_1-14" data-name="Polygon 1" transform="translate(72.192 0) rotate(90)">
          <path d="M 15.06209754943848 13.25713920593262 L 0.8672208189964294 13.25713920593262 L 7.964659214019775 0.9979277849197388 L 15.06209754943848 13.25713920593262 Z" stroke="none"/>
          <path d="M 7.964659214019775 1.99587345123291 L 1.734452247619629 12.75713920593262 L 14.19486618041992 12.75713920593262 L 7.964659214019775 1.99587345123291 M 7.964659214019775 0 L 15.92931938171387 13.75713920593262 L -9.5367431640625e-07 13.75713920593262 L 7.964659214019775 0 Z" stroke="none" fill="#000"/>
        </g>
      </g>
      <g id="Group_42" data-name="Group 42" transform="translate(1219.628 6815.069) rotate(180)">
        <path id="Path_3" data-name="Path 3" d="M0,0V28.391H762.511V166.026" transform="translate(0 0)" fill="none" stroke="#000" stroke-width="2"/>
        <g id="Polygon_1-15" data-name="Polygon 1" transform="translate(769.751 179.496) rotate(180)">
          <path d="M 15.06209754943848 13.25713920593262 L 0.8672208189964294 13.25713920593262 L 7.964659214019775 0.9979277849197388 L 15.06209754943848 13.25713920593262 Z" stroke="none"/>
          <path d="M 7.964659214019775 1.99587345123291 L 1.734452247619629 12.75713920593262 L 14.19486618041992 12.75713920593262 L 7.964659214019775 1.99587345123291 M 7.964659214019775 0 L 15.92931938171387 13.75713920593262 L -9.5367431640625e-07 13.75713920593262 L 7.964659214019775 0 Z" stroke="none" fill="#000"/>
        </g>
      </g>
      <g id="Group_11" data-name="Group 11" transform="translate(1054.893 6892.35)">
        <line id="Line_1-15" data-name="Line 1" x2="82.604" transform="translate(0 7.965)" fill="none" stroke="#000" stroke-width="2"/>
        <g id="Polygon_1-16" data-name="Polygon 1" transform="translate(83.202 0) rotate(90)">
          <path d="M 15.06209754943848 13.25713920593262 L 0.8672208189964294 13.25713920593262 L 7.964659214019775 0.9979277849197388 L 15.06209754943848 13.25713920593262 Z" stroke="none"/>
          <path d="M 7.964659214019775 1.99587345123291 L 1.734452247619629 12.75713920593262 L 14.19486618041992 12.75713920593262 L 7.964659214019775 1.99587345123291 M 7.964659214019775 0 L 15.92931938171387 13.75713920593262 L -9.5367431640625e-07 13.75713920593262 L 7.964659214019775 0 Z" stroke="none" fill="#000"/>
        </g>
      </g>
      <g id="Group_32" data-name="Group 32" transform="translate(63.487 6803.779) rotate(90)">
        <line id="Line_1-16" data-name="Line 1" x2="241.553" transform="translate(0 7.965)" fill="none" stroke="#000" stroke-width="2"/>
        <g id="Polygon_1-17" data-name="Polygon 1" transform="translate(242.151 0) rotate(90)">
          <path d="M 15.06209754943848 13.25713920593262 L 0.8672208189964294 13.25713920593262 L 7.964659214019775 0.9979277849197388 L 15.06209754943848 13.25713920593262 Z" stroke="none"/>
          <path d="M 7.964659214019775 1.99587345123291 L 1.734452247619629 12.75713920593262 L 14.19486618041992 12.75713920593262 L 7.964659214019775 1.99587345123291 M 7.964659214019775 0 L 15.92931938171387 13.75713920593262 L -9.5367431640625e-07 13.75713920593262 L 7.964659214019775 0 Z" stroke="none" fill="#000"/>
        </g>
      </g>
      <g id="Group_8" data-name="Group 8" transform="translate(974.82 7271.905) rotate(-90)">
        <line id="Line_1-17" data-name="Line 1" x2="71.594" transform="translate(0 7.965)" fill="none" stroke="#000" stroke-width="2"/>
        <g id="Polygon_1-18" data-name="Polygon 1" transform="translate(72.192 0) rotate(90)">
          <path d="M 15.06209754943848 13.25713920593262 L 0.8672208189964294 13.25713920593262 L 7.964659214019775 0.9979277849197388 L 15.06209754943848 13.25713920593262 Z" stroke="none"/>
          <path d="M 7.964659214019775 1.99587345123291 L 1.734452247619629 12.75713920593262 L 14.19486618041992 12.75713920593262 L 7.964659214019775 1.99587345123291 M 7.964659214019775 0 L 15.92931938171387 13.75713920593262 L -9.5367431640625e-07 13.75713920593262 L 7.964659214019775 0 Z" stroke="none" fill="#000"/>
        </g>
      </g>
      <g id="Group_45" data-name="Group 45" transform="translate(1229.52 7195.369) rotate(90)">
        <line id="Line_1-18" data-name="Line 1" x2="71.594" transform="translate(0 7.965)" fill="none" stroke="#000" stroke-width="2"/>
        <g id="Polygon_1-19" data-name="Polygon 1" transform="translate(72.192 0) rotate(90)">
          <path d="M 15.06209754943848 13.25713920593262 L 0.8672208189964294 13.25713920593262 L 7.964659214019775 0.9979277849197388 L 15.06209754943848 13.25713920593262 Z" stroke="none"/>
          <path d="M 7.964659214019775 1.99587345123291 L 1.734452247619629 12.75713920593262 L 14.19486618041992 12.75713920593262 L 7.964659214019775 1.99587345123291 M 7.964659214019775 0 L 15.92931938171387 13.75713920593262 L -9.5367431640625e-07 13.75713920593262 L 7.964659214019775 0 Z" stroke="none" fill="#000"/>
        </g>
      </g>
      <g id="Group_44" data-name="Group 44" transform="translate(1300.437 7112.393)">
        <line id="Line_1-19" data-name="Line 1" x2="71.594" transform="translate(0 7.965)" fill="none" stroke="#000" stroke-width="2"/>
        <g id="Polygon_1-20" data-name="Polygon 1" transform="translate(72.192 0) rotate(90)">
          <path d="M 15.06209754943848 13.25713920593262 L 0.8672208189964294 13.25713920593262 L 7.964659214019775 0.9979277849197388 L 15.06209754943848 13.25713920593262 Z" stroke="none"/>
          <path d="M 7.964659214019775 1.99587345123291 L 1.734452247619629 12.75713920593262 L 14.19486618041992 12.75713920593262 L 7.964659214019775 1.99587345123291 M 7.964659214019775 0 L 15.92931938171387 13.75713920593262 L -9.5367431640625e-07 13.75713920593262 L 7.964659214019775 0 Z" stroke="none" fill="#000"/>
        </g>
      </g>
      <g id="Group_9" data-name="Group 9" transform="translate(974.82 7049.027) rotate(-90)">
        <line id="Line_1-20" data-name="Line 1" x2="71.594" transform="translate(0 7.965)" fill="none" stroke="#000" stroke-width="2"/>
        <g id="Polygon_1-21" data-name="Polygon 1" transform="translate(72.192 0) rotate(90)">
          <path d="M 15.06209754943848 13.25713920593262 L 0.8672208189964294 13.25713920593262 L 7.964659214019775 0.9979277849197388 L 15.06209754943848 13.25713920593262 Z" stroke="none"/>
          <path d="M 7.964659214019775 1.99587345123291 L 1.734452247619629 12.75713920593262 L 14.19486618041992 12.75713920593262 L 7.964659214019775 1.99587345123291 M 7.964659214019775 0 L 15.92931938171387 13.75713920593262 L -9.5367431640625e-07 13.75713920593262 L 7.964659214019775 0 Z" stroke="none" fill="#000"/>
        </g>
      </g>
      <g id="Group_4" data-name="Group 4" transform="translate(575.139 7187.511) rotate(90)">
        <line id="Line_1-21" data-name="Line 1" x2="71.594" transform="translate(0 7.965)" fill="none" stroke="#000" stroke-width="2"/>
        <g id="Polygon_1-22" data-name="Polygon 1" transform="translate(72.192 0) rotate(90)">
          <path d="M 15.06209754943848 13.25713920593262 L 0.8672208189964294 13.25713920593262 L 7.964659214019775 0.9979277849197388 L 15.06209754943848 13.25713920593262 Z" stroke="none"/>
          <path d="M 7.964659214019775 1.99587345123291 L 1.734452247619629 12.75713920593262 L 14.19486618041992 12.75713920593262 L 7.964659214019775 1.99587345123291 M 7.964659214019775 0 L 15.92931938171387 13.75713920593262 L -9.5367431640625e-07 13.75713920593262 L 7.964659214019775 0 Z" stroke="none" fill="#000"/>
        </g>
      </g>
      <g id="Group_3" data-name="Group 3" transform="translate(558.864 7042.485) rotate(-90)">
        <line id="Line_1-22" data-name="Line 1" x2="71.594" transform="translate(0 7.965)" fill="none" stroke="#000" stroke-width="2"/>
        <g id="Polygon_1-23" data-name="Polygon 1" transform="translate(72.192 0) rotate(90)">
          <path d="M 15.06209754943848 13.25713920593262 L 0.8672208189964294 13.25713920593262 L 7.964659214019775 0.9979277849197388 L 15.06209754943848 13.25713920593262 Z" stroke="none"/>
          <path d="M 7.964659214019775 1.99587345123291 L 1.734452247619629 12.75713920593262 L 14.19486618041992 12.75713920593262 L 7.964659214019775 1.99587345123291 M 7.964659214019775 0 L 15.92931938171387 13.75713920593262 L -9.5367431640625e-07 13.75713920593262 L 7.964659214019775 0 Z" stroke="none" fill="#000"/>
        </g>
      </g>
      <g id="Rectangle_2" data-name="Rectangle 2" transform="translate(566.829 7055.395) rotate(45)" fill="#ffff6b" stroke="#707070" stroke-width="1">
        <rect width="83.267" height="83.267" stroke="none"/>
        <rect x="0.5" y="0.5" width="82.267" height="82.267" fill="none"/>
      </g>
      <g id="Rectangle_29" data-name="Rectangle 29" transform="translate(55.879 7055.5) rotate(45)" fill="#ffff6b" stroke="#707070" stroke-width="1">
        <rect width="83.267" height="83.267" stroke="none"/>
        <rect x="0.5" y="0.5" width="82.267" height="82.267" fill="none"/>
      </g>
      <g id="Rectangle_7" data-name="Rectangle 7" transform="translate(982.879 7063.5) rotate(45)" fill="#ffff6b" stroke="#707070" stroke-width="1">
        <rect width="83.267" height="83.267" stroke="none"/>
        <rect x="0.5" y="0.5" width="82.267" height="82.267" fill="none"/>
      </g>
      <g id="Rectangle_8" data-name="Rectangle 8" transform="translate(982.785 6844.745) rotate(45)" fill="#ffff6b" stroke="#707070" stroke-width="1">
        <rect width="83.267" height="83.267" stroke="none"/>
        <rect x="0.5" y="0.5" width="82.267" height="82.267" fill="none"/>
      </g>
      <g id="Rectangle_9" data-name="Rectangle 9" transform="translate(1218.961 6826) rotate(45)" fill="#ffff6b" stroke="#707070" stroke-width="1">
        <rect width="83.267" height="83.267" stroke="none"/>
        <rect x="0.5" y="0.5" width="82.267" height="82.267" fill="none"/>
      </g>
      <text id="Already_a_user_" data-name="Already 
a user?" transform="translate(566.812 7110.535)" font-size="18" font-family="Helvetica"><tspan x="-33.016" y="0">Already </tspan><tspan x="-30.019" y="21">a user?</tspan></text>
      <text id="Already_logged_in_" data-name="Already  
logged 
in?" transform="translate(60 7104.5)" font-size="18" font-family="Helvetica"><tspan x="-35.517" y="0" xml:space="preserve">Already  </tspan><tspan x="-29.527" y="21">logged </tspan><tspan x="-12.01" y="42">in?</tspan></text>
      <text id="User_finds_a_recipe_he_likes_" data-name="User 
finds a 
recipe he 
likes?" transform="translate(983 7103.5)" font-size="14" font-family="Helvetica"><tspan x="-16.724" y="0">User </tspan><tspan x="-22.569" y="16">finds a </tspan><tspan x="-30.741" y="32">recipe he </tspan><tspan x="-17.896" y="48">likes?</tspan></text>
      <text id="User_creates_new_suggestions_" data-name="User 
creates 
new 
suggestions
?" transform="translate(984.041 6874.727)" font-size="14" font-family="Helvetica"><tspan x="-16.724" y="0">User </tspan><tspan x="-24.9" y="16">creates </tspan><tspan x="-14.786" y="32">new </tspan><tspan x="-37.358" y="48">suggestions</tspan><tspan x="-3.893" y="64">?</tspan></text>
      <text id="User_searches_for_a_recipe_manually_" data-name="User 
searches 
for a recipe 
manually?" transform="translate(1222.345 6865.879)" font-size="14" font-family="Helvetica"><tspan x="-16.724" y="0">User </tspan><tspan x="-30.348" y="16">searches </tspan><tspan x="-36.962" y="32">for a recipe </tspan><tspan x="-31.907" y="48">manually?</tspan></text>
      <text id="Yes-3" data-name="Yes" transform="translate(596.086 7218.039)" font-size="14" font-family="Helvetica"><tspan x="-11.419" y="0">Yes</tspan></text>
      <text id="Yes-4" data-name="Yes" transform="translate(33.158 7296.238)" font-size="14" font-family="Helvetica"><tspan x="-11.419" y="0">Yes</tspan></text>
      <text id="Yes-5" data-name="Yes" transform="translate(1092.067 7099.294)" font-size="14" font-family="Helvetica"><tspan x="-11.419" y="0">Yes</tspan></text>
      <text id="Yes-6" data-name="Yes" transform="translate(840.491 6769.025)" font-size="14" font-family="Helvetica"><tspan x="-11.419" y="0">Yes</tspan></text>
      <text id="Yes-7" data-name="Yes" transform="translate(871.229 7019.647)" font-size="14" font-family="Helvetica"><tspan x="-11.419" y="0">Yes</tspan></text>
      <text id="No-3" data-name="No" transform="translate(598.43 7016.751)" font-size="14" font-family="Helvetica"><tspan x="-8.948" y="0">No</tspan></text>
      <text id="No-4" data-name="No" transform="translate(294.498 7100.875)" font-size="14" font-family="Helvetica"><tspan x="-8.948" y="0">No</tspan></text>
      <text id="No-5" data-name="No" transform="translate(1014.041 7023.268)" font-size="14" font-family="Helvetica"><tspan x="-8.948" y="0">No</tspan></text>
      <text id="No-6" data-name="No" transform="translate(1083.55 6876.283)" font-size="14" font-family="Helvetica"><tspan x="-8.948" y="0">No</tspan></text>
      <g id="Rectangle_3" data-name="Rectangle 3" transform="translate(523 6856.5)" fill="#87a8e9" stroke="#707070" stroke-width="1">
        <rect width="87.611" height="87.611" stroke="none"/>
        <rect x="0.5" y="0.5" width="86.611" height="86.611" fill="none"/>
      </g>
      <g id="Rectangle_30" data-name="Rectangle 30" transform="translate(740 6855.5)" fill="#87a8e9" stroke="#707070" stroke-width="1">
        <rect width="87.611" height="87.611" stroke="none"/>
        <rect x="0.5" y="0.5" width="86.611" height="86.611" fill="none"/>
      </g>
      <g id="Rectangle_5" data-name="Rectangle 5" transform="translate(747 7290.5)" fill="#87a8e9" stroke="#707070" stroke-width="1">
        <rect width="87.611" height="87.611" stroke="none"/>
        <rect x="0.5" y="0.5" width="86.611" height="86.611" fill="none"/>
      </g>
      <g id="Rectangle_6" data-name="Rectangle 6" transform="translate(939 7286.5)" fill="#87a8e9" stroke="#707070" stroke-width="1">
        <rect width="87.611" height="87.611" stroke="none"/>
        <rect x="0.5" y="0.5" width="86.611" height="86.611" fill="none"/>
      </g>
      <g id="Rectangle_4" data-name="Rectangle 4" transform="translate(523 7286.5)" fill="#87a8e9" stroke="#707070" stroke-width="1">
        <rect width="87.611" height="87.611" stroke="none"/>
        <rect x="0.5" y="0.5" width="86.611" height="86.611" fill="none"/>
      </g>
      <g id="Rectangle_18" data-name="Rectangle 18" transform="translate(11 6706.5)" fill="#87a8e9" stroke="#707070" stroke-width="1">
        <rect width="87.612" height="87.612" stroke="none"/>
        <rect x="0.5" y="0.5" width="86.612" height="86.612" fill="none"/>
      </g>
      <text id="Sign_Up" data-name="Sign Up" transform="translate(567 6906.5)" font-size="18" font-family="Helvetica"><tspan x="-32.019" y="0">Sign Up</tspan></text>
      <text id="Sets_Account_Preferences" data-name="Sets 
Account 
Preferences" transform="translate(784 6886.5)" font-size="16" font-family="Helvetica"><tspan x="-18.23" y="0">Sets </tspan><tspan x="-31.129" y="19">Account </tspan><tspan x="-43.133" y="38">Preferences</tspan></text>
      <text id="Select_a_day_and_daytime" data-name="Select a 
day and 
daytime" transform="translate(791 7319.5)" font-size="18" font-family="Helvetica"><tspan x="-35.02" y="0">Select a </tspan><tspan x="-34.528" y="21">day and </tspan><tspan x="-31.513" y="42">daytime</tspan></text>
      <text id="Get_Recipe_suggestions" data-name="Get Recipe 
suggestions" transform="translate(983 7326.5)" font-size="16" font-family="Helvetica"><tspan x="-42.242" y="0">Get Recipe </tspan><tspan x="-42.695" y="19">suggestions</tspan></text>
      <text id="Login" transform="translate(567 7336.5)" font-size="18" font-family="Helvetica"><tspan x="-22.021" y="0">Login</tspan></text>
      <text id="Meal_Planner" data-name="Meal 
Planner" transform="translate(55 6746.5)" font-size="18" font-family="Helvetica"><tspan x="-22.008" y="0">Meal </tspan><tspan x="-31.021" y="21">Planner</tspan></text>
      <g id="Group_12" data-name="Group 12" transform="translate(853.213 6903.623)">
        <path id="Path_2-4" data-name="Path 2" d="M0,47.5V0H218.615V47.5" transform="translate(0 218.615) rotate(-90)" fill="none" stroke="#000" stroke-width="2"/>
        <g id="Polygon_3-4" data-name="Polygon 3" transform="translate(61.258 210.651) rotate(90)">
          <path d="M 15.06209754943848 13.25713920593262 L 0.8672208189964294 13.25713920593262 L 7.964659214019775 0.9979277849197388 L 15.06209754943848 13.25713920593262 Z" stroke="none"/>
          <path d="M 7.964659214019775 1.99587345123291 L 1.734452247619629 12.75713920593262 L 14.19486618041992 12.75713920593262 L 7.964659214019775 1.99587345123291 M 7.964659214019775 0 L 15.92931938171387 13.75713920593262 L -9.5367431640625e-07 13.75713920593262 L 7.964659214019775 0 Z" stroke="none" fill="#000"/>
        </g>
      </g>
      <g id="Group_43" data-name="Group 43" transform="translate(1324.62 7091.003) rotate(-180)">
        <path id="Path_2-5" data-name="Path 2" d="M0,0,50.5,46.7V294.654H512.235l-.3-126.874" transform="translate(294.654 13.138) rotate(90)" fill="none" stroke="#000" stroke-width="2"/>
        <g id="Polygon_3-5" data-name="Polygon 3" transform="translate(296.421 0) rotate(45)">
          <path d="M 15.06209564208984 13.25713920593262 L 0.8672189116477966 13.25713920593262 L 7.964657306671143 0.9979277849197388 L 15.06209564208984 13.25713920593262 Z" stroke="none"/>
          <path d="M 7.964657306671143 1.99587345123291 L 1.734450340270996 12.75713920593262 L 14.19486427307129 12.75713920593262 L 7.964657306671143 1.99587345123291 M 7.964657306671143 0 L 15.92931747436523 13.75713920593262 L -2.86102294921875e-06 13.75713920593262 L 7.964657306671143 0 Z" stroke="none" fill="#000"/>
        </g>
      </g>
      <g id="Group_52" data-name="Group 52" transform="translate(866.19 6221.359) rotate(90)">
        <path id="Path_2-6" data-name="Path 2" d="M0,0,60.834,52.4V300.353H803.682V268.77" transform="translate(300.353 15.252) rotate(90)" fill="none" stroke="#000" stroke-width="2"/>
        <g id="Polygon_3-6" data-name="Polygon 3" transform="translate(303.661 0) rotate(45)">
          <path d="M 15.06209564208984 13.25713920593262 L 0.8672189116477966 13.25713920593262 L 7.964657306671143 0.9979277849197388 L 15.06209564208984 13.25713920593262 Z" stroke="none"/>
          <path d="M 7.964657306671143 1.99587345123291 L 1.734450340270996 12.75713920593262 L 14.19486427307129 12.75713920593262 L 7.964657306671143 1.99587345123291 M 7.964657306671143 0 L 15.92931747436523 13.75713920593262 L -2.86102294921875e-06 13.75713920593262 L 7.964657306671143 0 Z" stroke="none" fill="#000"/>
        </g>
      </g>
      <g id="Rectangle_24" data-name="Rectangle 24" transform="translate(1400 7078.5)" fill="#87a8e9" stroke="#707070" stroke-width="1">
        <rect width="87.611" height="87.611" stroke="none"/>
        <rect x="0.5" y="0.5" width="86.611" height="86.611" fill="none"/>
      </g>
      <text id="Nutritional_information_for_every_day_are_shown" data-name="Nutritional 
information 
for every day 
are shown" transform="translate(1444 7103.5)" font-size="14" font-family="Helvetica"><tspan x="-33.458" y="0">Nutritional </tspan><tspan x="-36.572" y="16">information </tspan><tspan x="-42.407" y="32">for every day </tspan><tspan x="-32.296" y="48">are shown</tspan></text>
      <g id="Group_29" data-name="Group 29" transform="translate(1144.804 7567.149) rotate(180)">
        <line id="Line_1-23" data-name="Line 1" x2="78.303" transform="translate(0 7.965)" fill="none" stroke="#000" stroke-width="2"/>
        <g id="Polygon_1-24" data-name="Polygon 1" transform="translate(78.901 0) rotate(90)">
          <path d="M 15.06209754943848 13.25713920593262 L 0.8672208189964294 13.25713920593262 L 7.964659214019775 0.9979277849197388 L 15.06209754943848 13.25713920593262 Z" stroke="none"/>
          <path d="M 7.964659214019775 1.99587345123291 L 1.734452247619629 12.75713920593262 L 14.19486618041992 12.75713920593262 L 7.964659214019775 1.99587345123291 M 7.964659214019775 0 L 15.92931938171387 13.75713920593262 L -9.5367431640625e-07 13.75713920593262 L 7.964659214019775 0 Z" stroke="none" fill="#000"/>
        </g>
      </g>
      <g id="Group_30" data-name="Group 30" transform="translate(700.051 7567.294) rotate(180)">
        <line id="Line_1-24" data-name="Line 1" x2="78.303" transform="translate(0 7.965)" fill="none" stroke="#000" stroke-width="2"/>
        <g id="Polygon_1-25" data-name="Polygon 1" transform="translate(78.901 0) rotate(90)">
          <path d="M 15.06209754943848 13.25713920593262 L 0.8672208189964294 13.25713920593262 L 7.964659214019775 0.9979277849197388 L 15.06209754943848 13.25713920593262 Z" stroke="none"/>
          <path d="M 7.964659214019775 1.99587345123291 L 1.734452247619629 12.75713920593262 L 14.19486618041992 12.75713920593262 L 7.964659214019775 1.99587345123291 M 7.964659214019775 0 L 15.92931938171387 13.75713920593262 L -9.5367431640625e-07 13.75713920593262 L 7.964659214019775 0 Z" stroke="none" fill="#000"/>
        </g>
      </g>
      <g id="Group_47" data-name="Group 47" transform="translate(923.293 7567.511) rotate(180)">
        <line id="Line_1-25" data-name="Line 1" x2="78.303" transform="translate(0 7.965)" fill="none" stroke="#000" stroke-width="2"/>
        <g id="Polygon_1-26" data-name="Polygon 1" transform="translate(78.901 0) rotate(90)">
          <path d="M 15.06209754943848 13.25713920593262 L 0.8672208189964294 13.25713920593262 L 7.964659214019775 0.9979277849197388 L 15.06209754943848 13.25713920593262 Z" stroke="none"/>
          <path d="M 7.964659214019775 1.99587345123291 L 1.734452247619629 12.75713920593262 L 14.19486618041992 12.75713920593262 L 7.964659214019775 1.99587345123291 M 7.964659214019775 0 L 15.92931938171387 13.75713920593262 L -9.5367431640625e-07 13.75713920593262 L 7.964659214019775 0 Z" stroke="none" fill="#000"/>
        </g>
      </g>
      <g id="Group_28" data-name="Group 28" transform="translate(1226.624 7392.384) rotate(90)">
        <line id="Line_1-26" data-name="Line 1" x2="78.303" transform="translate(0 7.965)" fill="none" stroke="#000" stroke-width="2"/>
        <g id="Polygon_1-27" data-name="Polygon 1" transform="translate(78.901 0) rotate(90)">
          <path d="M 15.06209754943848 13.25713920593262 L 0.8672208189964294 13.25713920593262 L 7.964659214019775 0.9979277849197388 L 15.06209754943848 13.25713920593262 Z" stroke="none"/>
          <path d="M 7.964659214019775 1.99587345123291 L 1.734452247619629 12.75713920593262 L 14.19486618041992 12.75713920593262 L 7.964659214019775 1.99587345123291 M 7.964659214019775 0 L 15.92931938171387 13.75713920593262 L -9.5367431640625e-07 13.75713920593262 L 7.964659214019775 0 Z" stroke="none" fill="#000"/>
        </g>
      </g>
      <g id="Rectangle_16" data-name="Rectangle 16" transform="translate(1220.352 7498.146) rotate(45)" fill="#ffff6b" stroke="#707070" stroke-width="1">
        <rect width="83.267" height="83.267" stroke="none"/>
        <rect x="0.5" y="0.5" width="82.267" height="82.267" fill="none"/>
      </g>
      <text id="Wants_to_add_ingredients_to_shopping_list_" data-name="Wants to 
add 
ingredients 
to shopping 
list?" transform="translate(1222.345 7537.135)" font-size="12" font-family="Helvetica"><tspan x="-25.122" y="0">Wants to </tspan><tspan x="-11.678" y="14">add </tspan><tspan x="-31.02" y="28">ingredients </tspan><tspan x="-32.692" y="42">to shopping </tspan><tspan x="-10.67" y="56">list?</tspan></text>
      <text id="Yes-8" data-name="Yes" transform="translate(1106.282 7539.135)" font-size="14" font-family="Helvetica"><tspan x="-11.419" y="0">Yes</tspan></text>
      <g id="Rectangle_15" data-name="Rectangle 15" transform="translate(1175 7285.5)" fill="#87a8e9" stroke="#707070" stroke-width="1">
        <rect width="87.611" height="87.611" stroke="none"/>
        <rect x="0.5" y="0.5" width="86.611" height="86.611" fill="none"/>
      </g>
      <g id="Rectangle_17" data-name="Rectangle 17" transform="translate(724 7510.5)" fill="#87a8e9" stroke="#707070" stroke-width="1">
        <rect width="87.611" height="87.611" stroke="none"/>
        <rect x="0.5" y="0.5" width="86.611" height="86.611" fill="none"/>
      </g>
      <text id="Needed_Ingredients_are_shown" data-name="Needed 
Ingredients 
are shown" transform="translate(1219 7316.5)" font-size="16" font-family="Helvetica"><tspan x="-30.246" y="0">Needed </tspan><tspan x="-41.805" y="19">Ingredients </tspan><tspan x="-36.91" y="38">are shown</tspan></text>
      <text id="Add_Ingredients_to_shopping_list" data-name="Add 
Ingredients 
to shopping 
list" transform="translate(768 7535.5)" font-size="14" font-family="Helvetica"><tspan x="-14.4" y="0">Add </tspan><tspan x="-36.579" y="16">Ingredients </tspan><tspan x="-38.141" y="32">to shopping </tspan><tspan x="-8.555" y="48">list</tspan></text>
      <g id="Rectangle_25" data-name="Rectangle 25" transform="translate(510 7511.5)" fill="#87a8e9" stroke="#707070" stroke-width="1">
        <rect width="87.611" height="87.611" stroke="none"/>
        <rect x="0.5" y="0.5" width="86.611" height="86.611" fill="none"/>
      </g>
      <text id="Shopping_List_created" data-name="Shopping 
List 
created" transform="translate(554 7540.5)" font-size="18" font-family="Helvetica"><tspan x="-40.535" y="0">Shopping </tspan><tspan x="-16.506" y="21">List </tspan><tspan x="-30.019" y="42">created</tspan></text>
      <g id="Rectangle_26" data-name="Rectangle 26" transform="translate(947 7507.5)" fill="#87a8e9" stroke="#707070" stroke-width="1">
        <rect width="87.611" height="87.611" stroke="none"/>
        <rect x="0.5" y="0.5" width="86.611" height="86.611" fill="none"/>
      </g>
      <text id="Select_ingredients" data-name="Select 
ingredients" transform="translate(991 7547.5)" font-size="16" font-family="Helvetica"><tspan x="-24.457" y="0">Select </tspan><tspan x="-39.137" y="19">ingredients</tspan></text>
    </g>
  </g>
</svg>
