<svg xmlns="http://www.w3.org/2000/svg" xmlns:xlink="http://www.w3.org/1999/xlink" width="48" height="48" viewBox="0 0 48 48">
  <defs>
    <clipPath id="clip-path">
      <rect id="touch" width="48" height="48" transform="translate(0 0.5)" fill="#f8f7f5"/>
    </clipPath>
  </defs>
  <g id="マスクグループ_1" data-name="マスクグループ 1" transform="translate(0 -0.5)" clip-path="url(#clip-path)">
    <g id="All_Recipes" data-name="All Recipes" transform="translate(0.615 5.494)">
      <rect id="長方形_86" data-name="長方形 86" width="46.769" height="7.692" rx="3.711" transform="translate(0 20)" fill="#a86b42" stroke="#000" stroke-miterlimit="10" stroke-width="1"/>
      <path id="パス_76" data-name="パス 76" d="M52.308,27.385a1.946,1.946,0,0,0-.535-1.3,1.809,1.809,0,0,0-1.286-.542h-38.2a1.835,1.835,0,0,0-1.822,1.846c0,1.022,1.348,1.612,1.822,1.846,4.092,2.018,10.886-1.175,17.588,1.231,2.511.9,3.668,2.111,5.865,1.692,2.56-.486,3.262-2.074,5.323-2.148,1.945-.068,2.578,1.04,4.154,1.5a4.919,4.919,0,0,0,1.643.191A6.5,6.5,0,0,0,51.1,29.846h0a3.957,3.957,0,0,0,1.163-2.037,2.251,2.251,0,0,0,.049-.425Z" transform="translate(-8 -8)" fill="#ffd051" stroke="#000" stroke-miterlimit="10" stroke-width="1"/>
      <g id="グループ_269" data-name="グループ 269" transform="translate(2.462 31.385)">
        <path id="パス_77" data-name="パス 77" d="M15.526,47.385a4.452,4.452,0,0,1-4.449-4.449V40.246a.253.253,0,0,1,.252-.252H51.446a.253.253,0,0,1,.252.252v2.615a4.52,4.52,0,0,1-4.517,4.517H15.526Z" transform="translate(-10.462 -39.385)" fill="#e89b67"/>
        <path id="パス_78" data-name="パス 78" d="M51.077,40.615v2.252a3.907,3.907,0,0,1-3.9,3.9H15.526a3.838,3.838,0,0,1-3.834-3.834v-2.32H51.077m.363-1.231H11.329a.867.867,0,0,0-.868.868v2.689a5.065,5.065,0,0,0,5.065,5.065H47.175a5.133,5.133,0,0,0,5.132-5.132V40.258a.867.867,0,0,0-.868-.868h0Z" transform="translate(-10.462 -39.385)"/>
      </g>
      <path id="パス_79" data-name="パス 79" d="M9.852,35.692A6.059,6.059,0,0,0,11,39.618a5.386,5.386,0,0,0,4.191,1.9c2.258.111,2.418-1.04,4.745-1.292,3.114-.338,3.8,1.618,7.114,1.292,2.234-.222,1.963-1.108,4.154-1.292,3.292-.277,4.086,1.729,7.114,1.292C40.48,41.2,40.6,40.1,42.468,40.222c2.117.129,2.382,1.569,4.474,1.766a5.483,5.483,0,0,0,5.015-2.412,6.4,6.4,0,0,0,.948-3.883Z" transform="translate(-8 -8)" fill="#a3e8ad" stroke="#000" stroke-miterlimit="10" stroke-width="1"/>
      <g id="グループ_270" data-name="グループ 270" transform="translate(2.462)">
        <path id="パス_80" data-name="パス 80" d="M11.114,25.231c.72-9.366,9.489-16.615,20.271-16.615s19.551,7.249,20.271,16.615Z" transform="translate(-10.462 -8)" fill="#e89b67"/>
        <path id="パス_81" data-name="パス 81" d="M31.385,9.231a21.131,21.131,0,0,1,13.772,4.911,16.437,16.437,0,0,1,5.822,10.474H11.791a16.409,16.409,0,0,1,5.822-10.474A21.131,21.131,0,0,1,31.385,9.231m0-1.231C20.055,8,10.831,15.938,10.462,25.846H52.308C51.938,15.938,42.714,8,31.385,8Z" transform="translate(-10.462 -8)"/>
      </g>
      <g id="グループ_271" data-name="グループ 271" transform="translate(17.846 12.308)">
        <ellipse id="楕円形_56" data-name="楕円形 56" cx="0.154" cy="0.462" rx="0.154" ry="0.462" transform="translate(0.154 0.154)"/>
        <path id="パス_82" data-name="パス 82" d="M26.154,20.308c-.172,0-.308.277-.308.615s.135.615.308.615.308-.277.308-.615-.135-.615-.308-.615Z" transform="translate(-25.846 -20.308)"/>
      </g>
      <g id="グループ_272" data-name="グループ 272" transform="translate(8 12.923)">
        <circle id="楕円形_57" data-name="楕円形 57" cx="0.394" cy="0.394" r="0.394" transform="translate(0.222 0.222)"/>
        <path id="パス_83" data-name="パス 83" d="M16.615,21.36a.178.178,0,1,1-.178.178.179.179,0,0,1,.178-.178m0-.437a.615.615,0,1,0,.615.615.617.617,0,0,0-.615-.615Z" transform="translate(-16 -20.923)"/>
      </g>
      <g id="グループ_273" data-name="グループ 273" transform="translate(12.308 8)">
        <circle id="楕円形_58" data-name="楕円形 58" cx="0.394" cy="0.394" r="0.394" transform="translate(0.222 0.222)"/>
        <path id="パス_84" data-name="パス 84" d="M20.923,16.437a.178.178,0,1,1-.178.178.179.179,0,0,1,.178-.178m0-.437a.615.615,0,1,0,.615.615A.617.617,0,0,0,20.923,16Z" transform="translate(-20.308 -16)"/>
      </g>
      <g id="グループ_274" data-name="グループ 274" transform="translate(22.154 8)">
        <circle id="楕円形_59" data-name="楕円形 59" cx="0.394" cy="0.394" r="0.394" transform="translate(0.222 0.222)"/>
        <path id="パス_85" data-name="パス 85" d="M30.769,16.437a.178.178,0,1,1-.178.178.179.179,0,0,1,.178-.178m0-.437a.615.615,0,1,0,.615.615A.617.617,0,0,0,30.769,16Z" transform="translate(-30.154 -16)"/>
      </g>
      <g id="グループ_275" data-name="グループ 275" transform="translate(17.231 3.692)">
        <circle id="楕円形_60" data-name="楕円形 60" cx="0.394" cy="0.394" r="0.394" transform="translate(0.222 0.222)"/>
        <path id="パス_86" data-name="パス 86" d="M25.846,12.129a.178.178,0,1,1-.178.178.179.179,0,0,1,.178-.178m0-.437a.615.615,0,1,0,.615.615.617.617,0,0,0-.615-.615Z" transform="translate(-25.231 -11.692)"/>
      </g>
      <g id="グループ_276" data-name="グループ 276" transform="translate(27.077 3.692)">
        <circle id="楕円形_61" data-name="楕円形 61" cx="0.394" cy="0.394" r="0.394" transform="translate(0.222 0.222)"/>
        <path id="パス_87" data-name="パス 87" d="M35.692,12.129a.178.178,0,1,1-.178.178.179.179,0,0,1,.178-.178m0-.437a.615.615,0,1,0,.615.615.617.617,0,0,0-.615-.615Z" transform="translate(-35.077 -11.692)"/>
      </g>
      <g id="グループ_277" data-name="グループ 277" transform="translate(27.692 12.308)">
        <circle id="楕円形_62" data-name="楕円形 62" cx="0.394" cy="0.394" r="0.394" transform="translate(0.222 0.222)"/>
        <path id="パス_88" data-name="パス 88" d="M36.308,20.745a.178.178,0,1,1-.178.178.179.179,0,0,1,.178-.178m0-.437a.615.615,0,1,0,.615.615.617.617,0,0,0-.615-.615Z" transform="translate(-35.692 -20.308)"/>
      </g>
      <g id="グループ_278" data-name="グループ 278" transform="translate(32.615 8)">
        <circle id="楕円形_63" data-name="楕円形 63" cx="0.394" cy="0.394" r="0.394" transform="translate(0.222 0.222)"/>
        <path id="パス_89" data-name="パス 89" d="M41.231,16.437a.178.178,0,1,1-.178.178.179.179,0,0,1,.178-.178m0-.437a.615.615,0,1,0,.615.615A.617.617,0,0,0,41.231,16Z" transform="translate(-40.615 -16)"/>
      </g>
      <g id="グループ_279" data-name="グループ 279" transform="translate(37.538 12.923)">
        <circle id="楕円形_64" data-name="楕円形 64" cx="0.394" cy="0.394" r="0.394" transform="translate(0.222 0.222)"/>
        <path id="パス_90" data-name="パス 90" d="M46.154,21.36a.178.178,0,1,1-.178.178.179.179,0,0,1,.178-.178m0-.437a.615.615,0,1,0,.615.615.617.617,0,0,0-.615-.615Z" transform="translate(-45.538 -20.923)"/>
      </g>
    </g>
  </g>
</svg>
