<svg id="icon_house" xmlns="http://www.w3.org/2000/svg" width="25.153" height="25.309" viewBox="0 0 25.153 25.309">
  <g id="合体_4" data-name="合体 4" transform="translate(0)" fill="none">
    <path d="M10.046,25.309l-3.325,0a3,3,0,0,1-3-3V15.313H2A2,2,0,0,1,.543,11.947L11.115.635a2,2,0,0,1,2.923,0L24.611,11.947a2,2,0,0,1-1.462,3.366H21.431v6.994a3,3,0,0,1-3,3H15.107v-6.5a1,1,0,0,0-1-1h-3.06a1,1,0,0,0-1,1v6.5Z" stroke="none"/>
    <path d="M 8.046700477600098 23.30781745910645 L 8.046700477600098 18.81089973449707 C 8.046700477600098 17.1567497253418 9.392450332641602 15.81099987030029 11.04660034179688 15.81099987030029 L 14.10659980773926 15.81099987030029 C 15.76074981689453 15.81099987030029 17.10650062561035 17.1567497253418 17.10650062561035 18.81089973449707 L 17.10650062561035 23.30710029602051 L 18.43110084533691 23.30710029602051 C 18.98233985900879 23.30710029602051 19.43079948425293 22.85823059082031 19.43079948425293 22.30649948120117 L 19.43079948425293 13.31260013580322 L 23.14890098571777 13.31260013580322 C 23.14907646179199 13.31259727478027 23.14910125732422 13.31229209899902 23.1493091583252 13.31223011016846 L 12.57618999481201 2.000130414962769 L 2.003987550735474 13.31210994720459 C 2.004064321517944 13.31228828430176 2.003887891769409 13.31260108947754 2.004300117492676 13.31260013580322 L 5.721499919891357 13.31260013580322 L 5.721499919891357 22.30649948120117 C 5.721499919891357 22.85823059082031 6.169960021972656 23.30710029602051 6.722280025482178 23.30710029602051 L 8.046700477600098 23.30781745910645 M 10.0467004776001 25.30890083312988 L 6.721199989318848 25.30710029602051 C 5.06790018081665 25.30710029602051 3.721500158309937 23.96160125732422 3.721500158309937 22.30649948120117 L 3.721500158309937 15.31260013580322 L 2.004300117492676 15.31260013580322 C 0.2547000646591187 15.31260013580322 -0.6515999436378479 13.22460079193115 0.5427000522613525 11.94659996032715 L 11.11499977111816 0.6345003247261047 C 11.90610122680664 -0.2114996612071991 13.24709892272949 -0.2114996612071991 14.03820037841797 0.6345003247261047 L 24.61050033569336 11.94659996032715 C 25.80480003356934 13.22460079193115 24.89850044250488 15.31260013580322 23.14890098571777 15.31260013580322 L 21.43079948425293 15.31260013580322 L 21.43079948425293 22.30649948120117 C 21.43079948425293 23.96160125732422 20.08530044555664 25.30710029602051 18.43110084533691 25.30710029602051 L 15.10649967193604 25.30710029602051 L 15.10649967193604 18.81089973449707 C 15.10649967193604 18.26009941101074 14.65830039978027 17.81100082397461 14.10659980773926 17.81100082397461 L 11.04660034179688 17.81100082397461 C 10.49580001831055 17.81100082397461 10.0467004776001 18.26009941101074 10.0467004776001 18.81089973449707 L 10.0467004776001 25.30890083312988 Z" stroke="none" fill="#292522"/>
  </g>
</svg>
