<svg xmlns="http://www.w3.org/2000/svg" width="48" height="48" viewBox="0 0 48 48">
  <g id="グループ_245" data-name="グループ 245" transform="translate(0 -0.5)">
    <rect id="touch" width="48" height="48" transform="translate(0 0.5)" fill="none"/>
    <g id="Quick" transform="translate(1 4.497)">
      <ellipse id="楕円形_46" data-name="楕円形 46" cx="18.509" cy="18.806" rx="18.509" ry="18.806" transform="translate(4.758 5.131)" fill="#fff" stroke="#000" stroke-miterlimit="10" stroke-width="1"/>
      <path id="パス_62" data-name="パス 62" d="M75.408,29.016A8.956,8.956,0,0,0,75.2,16.7a8.621,8.621,0,0,0-12.117-.2Z" transform="translate(-31.788 -14.112)" fill="#73cad8" stroke="#000" stroke-miterlimit="10" stroke-width="1"/>
      <path id="パス_63" data-name="パス 63" d="M25.761,16.5a8.616,8.616,0,0,0-12.117.214,8.962,8.962,0,0,0-.2,12.311L25.761,16.5Z" transform="translate(-11.095 -14.111)" fill="#73cad8" stroke="#000" stroke-miterlimit="10" stroke-width="1"/>
      <rect id="長方形_82" data-name="長方形 82" width="6.621" height="2.446" rx="1.223" transform="translate(19.807 0.544)" fill="#73cad8" stroke="#000" stroke-miterlimit="10" stroke-width="1"/>
      <ellipse id="楕円形_47" data-name="楕円形 47" cx="1.505" cy="1.529" rx="1.505" ry="1.529" transform="translate(21.763 22.408)" fill="#73cad8" stroke="#000" stroke-miterlimit="10" stroke-width="1"/>
      <line id="線_31" data-name="線 31" y2="7.051" transform="translate(23.123 5.571)" fill="none" stroke="#000" stroke-linecap="round" stroke-miterlimit="10" stroke-width="1"/>
      <line id="線_32" data-name="線 32" y2="7.051" transform="translate(23.123 35.544)" fill="none" stroke="#000" stroke-linecap="round" stroke-miterlimit="10" stroke-width="1"/>
      <line id="線_33" data-name="線 33" x1="6.94" transform="translate(34.404 24.083)" fill="none" stroke="#000" stroke-linecap="round" stroke-miterlimit="10" stroke-width="1"/>
      <line id="線_34" data-name="線 34" x1="6.94" transform="translate(5.192 24.083)" fill="none" stroke="#000" stroke-linecap="round" stroke-miterlimit="10" stroke-width="1"/>
      <line id="線_35" data-name="線 35" y1="10.299" x2="3.467" transform="translate(24.093 11.601)" fill="none" stroke="#000" stroke-linecap="round" stroke-miterlimit="10" stroke-width="1"/>
      <line id="線_36" data-name="線 36" x2="7.584" y2="2.789" transform="translate(24.923 24.53)" fill="none" stroke="#000" stroke-linecap="round" stroke-miterlimit="10" stroke-width="1"/>
    </g>
  </g>
</svg>
