<svg id="icon_cookinig-level" xmlns="http://www.w3.org/2000/svg" width="23.999" height="22.368" viewBox="0 0 23.999 22.368">
  <path id="合体_5" data-name="合体 5" d="M3.2,22.368a1,1,0,0,1-1-1V10.146C.732,9.5,0,7.874,0,5.965,0,3.495,1.225,0,3.7,0S7.249,3.495,7.249,5.965c0,1.9-.641,3.525-2.062,4.172v11.23a1,1,0,0,1-1,1Z" transform="translate(0 0)" fill="#f37725"/>
  <path id="合体_6" data-name="合体 6" d="M3.2,22.368a1,1,0,0,1-1-1V10.146C.732,9.5,0,7.874,0,5.965,0,3.495,1.225,0,3.7,0S7.249,3.495,7.249,5.965c0,1.9-.641,3.525-2.062,4.172v11.23a1,1,0,0,1-1,1Z" transform="translate(8.375)" fill="#f37725" opacity="0.5"/>
  <path id="合体_7" data-name="合体 7" d="M3.2,22.368a1,1,0,0,1-1-1V10.146C.732,9.5,0,7.874,0,5.965,0,3.495,1.225,0,3.7,0S7.249,3.495,7.249,5.965c0,1.9-.641,3.525-2.062,4.172v11.23a1,1,0,0,1-1,1Z" transform="translate(16.751)" fill="#f37725" opacity="0.5"/>
</svg>
