<svg id="グループ_311" data-name="グループ 311" xmlns="http://www.w3.org/2000/svg" width="29" height="29" viewBox="0 0 29 29">
  <g id="パス_140" data-name="パス 140" fill="none">
    <path d="M14.5,0A14.5,14.5,0,1,1,0,14.5,14.5,14.5,0,0,1,14.5,0Z" stroke="none"/>
    <path d="M 14.5 2 C 11.16113090515137 2 8.022100448608398 3.300230026245117 5.661159515380859 5.661159515380859 C 3.300230026245117 8.022100448608398 2 11.16113090515137 2 14.5 C 2 17.83887100219727 3.300230026245117 20.9778995513916 5.661159515380859 23.33884048461914 C 8.022100448608398 25.69976997375488 11.16113090515137 27 14.5 27 C 17.83887100219727 27 20.9778995513916 25.69976997375488 23.33884048461914 23.33884048461914 C 25.69976997375488 20.9778995513916 27 17.83887100219727 27 14.5 C 27 11.16113090515137 25.69976997375488 8.022100448608398 23.33884048461914 5.661159515380859 C 20.9778995513916 3.300230026245117 17.83887100219727 2 14.5 2 M 14.5 0 C 22.50812911987305 0 29 6.491870880126953 29 14.5 C 29 22.50812911987305 22.50812911987305 29 14.5 29 C 6.491870880126953 29 0 22.50812911987305 0 14.5 C 0 6.491870880126953 6.491870880126953 0 14.5 0 Z" stroke="none" fill="#292522"/>
  </g>
  <line id="線_41" data-name="線 41" y2="9" transform="translate(14 6)" fill="none" stroke="#292522" stroke-linecap="round" stroke-width="2"/>
  <line id="線_42" data-name="線 42" x1="8" transform="translate(14 15)" fill="none" stroke="#292522" stroke-linecap="round" stroke-width="2"/>
</svg>
