<svg xmlns="http://www.w3.org/2000/svg" width="231" height="123" viewBox="0 0 231 123">
  <g id="グループ_485" data-name="グループ 485" transform="translate(-401 -464)">
    <g id="長方形_125" data-name="長方形 125" transform="translate(401 464)" fill="#fff" stroke="#292522" stroke-width="1">
      <rect width="231" height="123" rx="61.5" stroke="none"/>
      <rect x="0.5" y="0.5" width="230" height="122" rx="61" fill="none"/>
    </g>
    <g id="前面オブジェクトで型抜き_14" data-name="前面オブジェクトで型抜き 14" transform="translate(401 464)" fill="#ffd051">
      <path d="M 61.50049209594727 122.5 C 53.26515197753906 122.5 45.27649307250977 120.8872756958008 37.75641632080078 117.7066116333008 C 30.492431640625 114.6342926025391 23.96876907348633 110.235954284668 18.36661529541016 104.6337509155273 C 12.76430797576904 99.0316162109375 8.365845680236816 92.50798797607422 5.293399810791016 85.24404907226562 C 2.112738370895386 77.723876953125 0.5 69.73521423339844 0.5 61.5 C 0.5 53.26498413085938 2.112738370895386 45.27644729614258 5.293399810791016 37.75630950927734 C 8.365815162658691 30.49246215820312 12.7642765045166 23.96881484985352 18.36661529541016 18.36658477783203 C 23.96878433227539 12.76429271697998 30.49246215820312 8.365877151489258 37.75641632080078 5.29352331161499 C 45.27649307250977 2.11276912689209 53.26515197753906 0.5 61.50049209594727 0.5 L 61.5 122.5 L 61.50049209594727 122.5 Z" stroke="none"/>
      <path d="M 61 121.9979934692383 L 61 1.002004265785217 C 53.00883102416992 1.066057205200195 45.25679016113281 2.663983345031738 37.95119857788086 5.754016876220703 C 30.74681663513184 8.801183700561523 24.27658271789551 13.16359996795654 18.72016716003418 18.72014999389648 C 13.16361713409424 24.27656745910645 8.801133155822754 30.74679946899414 5.753900051116943 37.95108413696289 C 2.599433422088623 45.40924835205078 1 53.33224868774414 1 61.5 C 1 69.66793060302734 2.599433422088623 77.591064453125 5.753883361816406 85.04926300048828 C 8.801150321960449 92.25361633300781 13.16363334655762 98.72383117675781 18.72018241882324 104.2802200317383 C 24.27655029296875 109.8366317749023 30.74679946899414 114.1989974975586 37.95119857788086 117.2461166381836 C 45.25680541992188 120.336067199707 53.00886154174805 121.9339447021484 61 121.9979934692383 M 61.50048446655273 123 C 53.19788360595703 123 45.14368438720703 121.3739852905273 37.56164932250977 118.1671142578125 C 30.23816680908203 115.0696334838867 23.6610164642334 110.6353149414062 18.0130672454834 104.9873199462891 C 12.36498355865479 99.33940124511719 7.930550098419189 92.76233673095703 4.832883358001709 85.43883514404297 C 1.625983357429504 77.85659790039062 0 69.80239868164062 0 61.5 C 0 53.19778442382812 1.625983357429504 45.14371490478516 4.832883358001709 37.5615348815918 C 7.930550098419189 30.23805046081543 12.36498355865479 23.6609992980957 18.0130672454834 18.01303291320801 C 23.6610164642334 12.36495018005371 30.23816680908203 7.930550098419189 37.56164932250977 4.833016872406006 C 45.14368438720703 1.626049995422363 53.19788360595703 0 61.50048446655273 0 C 61.6663818359375 0 61.83446502685547 0.0007666666642762721 62 0.002083333441987634 L 62 122.997932434082 L 61.81433486938477 122.999397277832 C 61.70983505249023 122.9997024536133 61.60473251342773 123 61.50048446655273 123 Z" stroke="none" fill="#292522"/>
    </g>
    <g id="グループ_362" data-name="グループ 362" transform="translate(461 464)">
      <g id="前面オブジェクトで型抜き_15" data-name="前面オブジェクトで型抜き 15" transform="translate(62 123) rotate(180)" fill="#fff">
        <path d="M 61.50049209594727 122.5 C 53.26515197753906 122.5 45.27649307250977 120.8872756958008 37.75641632080078 117.7066116333008 C 30.492431640625 114.6342926025391 23.96876907348633 110.235954284668 18.36661529541016 104.6337509155273 C 12.76430797576904 99.0316162109375 8.365845680236816 92.50798797607422 5.293399810791016 85.24404907226562 C 2.112738370895386 77.723876953125 0.5 69.73521423339844 0.5 61.5 C 0.5 53.26498413085938 2.112738370895386 45.27644729614258 5.293399810791016 37.75630950927734 C 8.365815162658691 30.49246215820312 12.7642765045166 23.96881484985352 18.36661529541016 18.36658477783203 C 23.96878433227539 12.76429271697998 30.49246215820312 8.365877151489258 37.75641632080078 5.29352331161499 C 45.27649307250977 2.11276912689209 53.26515197753906 0.5 61.50049209594727 0.5 L 61.5 122.5 L 61.50049209594727 122.5 Z" stroke="none"/>
        <path d="M 61 121.9979934692383 L 61 1.002004265785217 C 53.00883102416992 1.066057205200195 45.25679016113281 2.663983345031738 37.95119857788086 5.754016876220703 C 30.74681663513184 8.801183700561523 24.27658271789551 13.16359996795654 18.72016716003418 18.72014999389648 C 13.16361713409424 24.27656745910645 8.801133155822754 30.74679946899414 5.753900051116943 37.95108413696289 C 2.599433422088623 45.40924835205078 1 53.33224868774414 1 61.5 C 1 69.66793060302734 2.599433422088623 77.591064453125 5.753883361816406 85.04926300048828 C 8.801150321960449 92.25361633300781 13.16363334655762 98.72383117675781 18.72018241882324 104.2802200317383 C 24.27655029296875 109.8366317749023 30.74679946899414 114.1989974975586 37.95119857788086 117.2461166381836 C 45.25680541992188 120.336067199707 53.00886154174805 121.9339447021484 61 121.9979934692383 M 61.50048446655273 123 C 53.19788360595703 123 45.14368438720703 121.3739852905273 37.56164932250977 118.1671142578125 C 30.23816680908203 115.0696334838867 23.6610164642334 110.6353149414062 18.0130672454834 104.9873199462891 C 12.36498355865479 99.33940124511719 7.930550098419189 92.76233673095703 4.832883358001709 85.43883514404297 C 1.625983357429504 77.85659790039062 0 69.80239868164062 0 61.5 C 0 53.19778442382812 1.625983357429504 45.14371490478516 4.832883358001709 37.5615348815918 C 7.930550098419189 30.23805046081543 12.36498355865479 23.6609992980957 18.0130672454834 18.01303291320801 C 23.6610164642334 12.36495018005371 30.23816680908203 7.930550098419189 37.56164932250977 4.833016872406006 C 45.14368438720703 1.626049995422363 53.19788360595703 0 61.50048446655273 0 C 61.6663818359375 0 61.83446502685547 0.0007666666642762721 62 0.002083333441987634 L 62 122.997932434082 L 61.81433486938477 122.999397277832 C 61.70983505249023 122.9997024536133 61.60473251342773 123 61.50048446655273 123 Z" stroke="none" fill="#292522"/>
      </g>
      <g id="前面オブジェクトで型抜き_13" data-name="前面オブジェクトで型抜き 13" fill="#ffd051" opacity="0.5">
        <path d="M 0.5 122.4941253662109 L 0.5 0.5058650970458984 C 8.639881134033203 0.6324295997619629 16.52959632873535 2.288033485412598 23.95859909057617 5.429369449615479 C 31.28606224060059 8.527876853942871 37.86293792724609 12.93558502197266 43.50652313232422 18.53003120422363 C 49.15156936645508 24.12619972229004 53.58201599121094 30.63146209716797 56.67478561401367 37.86513900756836 C 59.87656784057617 45.35370635986328 61.5 53.30562973022461 61.5 61.5 C 61.5 69.69458770751953 59.87656784057617 77.64662933349609 56.67478561401367 85.13524627685547 C 53.58201599121094 92.36894226074219 49.15156936645508 98.87418365478516 43.50650787353516 104.4703063964844 C 37.86302947998047 110.0647048950195 31.28616905212402 114.4723358154297 23.95859909057617 117.5707550048828 C 16.52968978881836 120.712028503418 8.640274047851562 122.3675842285156 0.5 122.4941253662109 Z" stroke="none"/>
        <path d="M 1 121.9842834472656 C 8.895904541015625 121.7990798950195 16.54911231994629 120.1609497070312 23.76384925842285 117.110237121582 C 31.03249931335449 114.036735534668 37.55644989013672 109.6645660400391 43.15449905395508 104.1152191162109 C 48.75356674194336 98.56468200683594 53.14776611328125 92.11277008056641 56.21503448486328 84.93868255615234 C 59.39009857177734 77.51253509521484 61 69.62663269042969 61 61.5 C 61 53.37358474731445 59.39009857177734 45.48780059814453 56.21503448486328 38.06169891357422 C 53.14776611328125 30.88764953613281 48.75356674194336 24.43571662902832 43.15449905395508 18.88513374328613 C 37.55640029907227 13.33573341369629 31.03243255615234 8.963500022888184 23.76384925842285 5.889900207519531 C 16.54904556274414 2.839121580123901 8.895532608032227 1.200950622558594 1 1.015704274177551 L 1 121.9842834472656 M 0 123 L 0 0 C 8.385250091552734 0.06531666964292526 16.51123428344727 1.737416625022888 24.15331649780273 4.968850135803223 C 31.5398006439209 8.092316627502441 38.16955184936523 12.53548336029053 43.85851669311523 18.17494964599609 C 49.54943466186523 23.81658363342285 54.01623153686523 30.37518310546875 57.13451766967773 37.6685676574707 C 60.36303329467773 45.21966552734375 62 53.23771667480469 62 61.5 C 62 69.76249694824219 60.36303329467773 77.78067016601562 57.13451766967773 85.33181762695312 C 54.01623153686523 92.62521362304688 49.54943466186523 99.18381500244141 43.85851669311523 104.8254013061523 C 38.16955184936523 110.4648818969727 31.5396671295166 114.9079971313477 24.15331649780273 118.0312805175781 C 16.51098251342773 121.2628021240234 8.385016441345215 122.9345169067383 0.001099999994039536 122.9999847412109 L 0 123 Z" stroke="none" fill="#292522"/>
      </g>
    </g>
    <text id="_50_" data-name="50%" transform="translate(492 532)" fill="#292522" font-size="20" font-family="Helvetica"><tspan x="-20.015" y="0">50%</tspan></text>
    <text id="_FFD051" data-name="#FFD051" transform="translate(578 533)" fill="#292522" font-size="20" font-family="Helvetica"><tspan x="-41.685" y="0">#FFD051</tspan></text>
  </g>
</svg>
