<svg xmlns="http://www.w3.org/2000/svg" width="48" height="48" viewBox="0 0 48 48">
  <g id="グループ_244" data-name="グループ 244" transform="translate(0 -0.5)">
    <rect id="touch" width="48" height="48" transform="translate(0 0.5)" fill="none"/>
    <g id="Dinner" transform="translate(1 1)">
      <circle id="楕円形_41" data-name="楕円形 41" cx="23" cy="23" r="23" transform="translate(0 0.5)" fill="#f8f7f5" stroke="#000" stroke-miterlimit="10" stroke-width="1"/>
      <g id="グループ_232" data-name="グループ 232" transform="translate(10.013 15.665)">
        <path id="パス_35" data-name="パス 35" d="M27.995,40.128c-.451.357-5.485,4.569-4.466,10.612A10.829,10.829,0,0,0,28.553,58c3.1,1.729,6.18,1.112,8.937.558A22.065,22.065,0,0,0,48.1,52.973c1.215-1.141,6.66-6.268,6.7-13.4.01-1.562.029-4.765-2.233-6.7a6.282,6.282,0,0,0-3.477-1.41,7.1,7.1,0,0,0-5.46,1.969A10.957,10.957,0,0,1,41.962,35.1a7.8,7.8,0,0,1-2.233,1.117c-3.967,1.3-6.9,1.048-10.054,2.791A11.694,11.694,0,0,0,28,40.123Z" transform="translate(-23.393 -31.431)" fill="#a86b42" stroke="#000" stroke-miterlimit="10" stroke-width="1"/>
        <circle id="楕円形_42" data-name="楕円形 42" cx="3.35" cy="3.35" r="3.35" transform="translate(6.282 15.96)" fill="#f8f7f5" stroke="#000" stroke-miterlimit="10" stroke-width="1"/>
        <line id="線_7" data-name="線 7" x2="5.583" y2="5.583" transform="translate(23.035 7.022)" fill="none" stroke="#000" stroke-linecap="round" stroke-miterlimit="10" stroke-width="1"/>
        <line id="線_8" data-name="線 8" x2="5.583" y2="5.583" transform="translate(20.802 10.372)" fill="none" stroke="#000" stroke-linecap="round" stroke-miterlimit="10" stroke-width="1"/>
        <line id="線_9" data-name="線 9" x2="5.588" y2="5.588" transform="translate(18.006 13.163)" fill="none" stroke="#000" stroke-linecap="round" stroke-miterlimit="10" stroke-width="1"/>
      </g>
      <g id="グループ_236" data-name="グループ 236" transform="translate(6.39 7.214)">
        <path id="パス_36" data-name="パス 36" d="M18.847,28.071q-.375,1.7-.754,3.408l2.424.534.788-3.58a2.634,2.634,0,0,1,1.357-1.327c.553-.206.852-.029,1.42-.235a3.223,3.223,0,0,0,1.5-1.445c.769-1.126,1.234-1.8,1.19-2.7-.049-.984-.705-1.7-2.023-3.144a6.248,6.248,0,0,0-1.185-1.126,4.055,4.055,0,0,0-4.31-.088c-.823.637-.436,1.19-1.528,2.36-.867.926-1.391.852-1.641,1.552a2.775,2.775,0,0,0,.612,2.439c.666.842,1.479.744,1.954,1.582a2.517,2.517,0,0,1,.186,1.768Z" transform="translate(-15.994 -16.016)" fill="#27ad70" stroke="#000" stroke-linecap="round" stroke-miterlimit="10" stroke-width="1"/>
        <g id="グループ_235" data-name="グループ 235" transform="translate(12.814 1.173)">
          <circle id="楕円形_43" data-name="楕円形 43" cx="5.348" cy="5.348" r="5.348" fill="#e84d4d" stroke="#000" stroke-miterlimit="10" stroke-width="1"/>
          <g id="グループ_233" data-name="グループ 233" transform="translate(3.384 2.37)">
            <line id="線_10" data-name="線 10" y2="1.376" transform="translate(1.964)" fill="none" stroke="#000" stroke-linecap="round" stroke-miterlimit="10" stroke-width="1"/>
            <line id="線_11" data-name="線 11" x2="0.867" y2="1.072" transform="translate(0 0.916)" fill="none" stroke="#000" stroke-linecap="round" stroke-miterlimit="10" stroke-width="1"/>
            <line id="線_12" data-name="線 12" y1="1.072" x2="0.872" transform="translate(3.056 0.916)" fill="none" stroke="#000" stroke-linecap="round" stroke-miterlimit="10" stroke-width="1"/>
          </g>
          <g id="グループ_234" data-name="グループ 234" transform="translate(3.482 6.19)">
            <line id="線_13" data-name="線 13" y1="1.381" transform="translate(1.959 0.607)" fill="none" stroke="#000" stroke-linecap="round" stroke-miterlimit="10" stroke-width="1"/>
            <line id="線_14" data-name="線 14" y1="1.068" x2="0.867" fill="none" stroke="#000" stroke-linecap="round" stroke-miterlimit="10" stroke-width="1"/>
            <line id="線_15" data-name="線 15" x2="0.867" y2="1.068" transform="translate(3.056)" fill="none" stroke="#000" stroke-linecap="round" stroke-miterlimit="10" stroke-width="1"/>
          </g>
        </g>
        <path id="パス_37" data-name="パス 37" d="M35.012,24.491,36.775,27.5l2.14-1.254L37.064,23.08a2.649,2.649,0,0,1,.093-1.9c.269-.529.6-.6.886-1.136a3.232,3.232,0,0,0,.122-2.086c-.2-1.347-.318-2.16-.96-2.791-.705-.691-1.675-.774-3.619-.93a6.094,6.094,0,0,0-1.636-.02,4.05,4.05,0,0,0-3.222,2.86c-.176,1.028.49,1.166.48,2.767-.01,1.268-.441,1.572-.147,2.253a2.773,2.773,0,0,0,2.106,1.376c1.058.167,1.592-.455,2.512-.167a2.525,2.525,0,0,1,1.337,1.175Z" transform="translate(-22.477 -14.174)" fill="#27ad70" stroke="#000" stroke-linecap="round" stroke-miterlimit="10" stroke-width="1"/>
      </g>
    </g>
  </g>
</svg>
