<svg xmlns="http://www.w3.org/2000/svg" width="44" height="24" viewBox="0 0 44 24">
  <g id="前面オブジェクトで型抜き_5" data-name="前面オブジェクトで型抜き 5" fill="none">
    <path d="M22,24a21.8,21.8,0,0,1-8.564-1.875A33.777,33.777,0,0,1,6.444,18,41.179,41.179,0,0,1,0,12l.009-.013A42.4,42.4,0,0,1,6.444,6a33.845,33.845,0,0,1,6.993-4.125A21.814,21.814,0,0,1,22,0a21.81,21.81,0,0,1,8.563,1.875A33.841,33.841,0,0,1,37.556,6,41.277,41.277,0,0,1,44,12l-.009.013A42.388,42.388,0,0,1,37.556,18a33.774,33.774,0,0,1-6.993,4.125A21.792,21.792,0,0,1,22,24ZM22,5.143A6.858,6.858,0,1,0,28.769,12,6.821,6.821,0,0,0,22,5.143Z" stroke="none"/>
    <path d="M 22.00079154968262 21.99951553344727 C 24.50154113769531 21.99951553344727 27.11796188354492 21.42287635803223 29.77783012390137 20.2854061126709 C 31.95751190185547 19.35394668579102 34.16960144042969 18.04733657836914 36.35277938842773 16.40179634094238 C 38.53042221069336 14.76072406768799 40.24735641479492 13.10077667236328 41.30384063720703 11.99784374237061 C 40.25844573974609 10.90513134002686 38.54853820800781 9.251676559448242 36.35279083251953 7.597235679626465 C 34.17208099365234 5.953866004943848 31.95968055725098 4.647115707397461 29.77793121337891 3.713675975799561 C 27.11659049987793 2.576555967330933 24.49998092651367 1.999995827674866 22.00079154968262 1.999995827674866 C 19.50126075744629 1.999995827674866 16.88433074951172 2.576565742492676 14.22360134124756 3.713315963745117 C 12.04094123840332 4.64706563949585 9.828361511230469 5.953825950622559 7.647211074829102 7.597375869750977 C 5.475495338439941 9.233564376831055 3.75649356842041 10.89530754089355 2.697646617889404 12.00009822845459 C 3.745498895645142 13.09475326538086 5.46076488494873 14.75428485870361 7.647511005401611 16.40186500549316 C 9.830591201782227 18.04725646972656 12.04285144805908 19.35385513305664 14.22328090667725 20.28558540344238 C 16.8829517364502 21.42286491394043 19.49968147277832 21.99951553344727 22.00079154968262 21.99951553344727 M 22.00079154968262 3.142575740814209 C 26.83579063415527 3.142575740814209 30.76935195922852 7.115565776824951 30.76935195922852 11.99902629852295 C 30.76935195922852 16.88356590270996 26.83579063415527 20.85742568969727 22.00079154968262 20.85742568969727 C 17.16497039794922 20.85742568969727 13.23074150085449 16.88356590270996 13.23074150085449 11.99902629852295 C 13.23074150085449 7.115565776824951 17.16497039794922 3.142575740814209 22.00079154968262 3.142575740814209 M 22.00079154968262 23.99951553344727 C 19.2288818359375 23.99951553344727 16.3476619720459 23.3691463470459 13.43695068359375 22.12451553344727 C 11.10815143585205 21.12939643859863 8.755250930786133 19.7412166595459 6.44373083114624 17.99902534484863 C 2.483371019363403 15.01513576507568 0.02438103593885899 12.02880573272705 1.0351562877986e-06 11.99902629852295 L 0.008941034786403179 11.98583602905273 C 0.2769510447978973 11.66796588897705 2.734010934829712 8.794925689697266 6.44373083114624 5.999995708465576 C 8.755770683288574 4.257815837860107 11.10858058929443 2.870605945587158 13.43695068359375 1.874515891075134 C 16.34793090820312 0.6308558583259583 19.22925186157227 -4.140625151194399e-06 22.00079154968262 -4.140625151194399e-06 C 24.77203178405762 -4.140625151194399e-06 27.65304183959961 0.6308558583259583 30.56375122070312 1.874515891075134 C 32.89191055297852 2.870605945587158 35.24463272094727 4.257815837860107 37.55646133422852 5.999995708465576 C 41.51404190063477 8.981935501098633 43.97571182250977 11.96972560882568 44.0001220703125 11.99902629852295 L 43.9912109375 12.01220607757568 C 43.72327041625977 12.33056545257568 41.26651000976562 15.20312595367432 37.55646133422852 17.99902534484863 C 35.24505996704102 19.7412166595459 32.89239120483398 21.12939643859863 30.56375122070312 22.12451553344727 C 27.65329170227051 23.3691463470459 24.77234077453613 23.99951553344727 22.00079154968262 23.99951553344727 Z M 22.00079154968262 5.142575740814209 C 18.26782035827637 5.142575740814209 15.23074150085449 8.218265533447266 15.23074150085449 11.99902629852295 C 15.23074150085449 15.78076553344727 18.26782035827637 18.85742568969727 22.00079154968262 18.85742568969727 C 25.73297119140625 18.85742568969727 28.76935195922852 15.78076553344727 28.76935195922852 11.99902629852295 C 28.76935195922852 8.218265533447266 25.73297119140625 5.142575740814209 22.00079154968262 5.142575740814209 Z" stroke="none" fill="#292522"/>
  </g>
</svg>
