<svg xmlns="http://www.w3.org/2000/svg" width="48" height="48" viewBox="0 0 48 48">
  <g id="グループ_243" data-name="グループ 243" transform="translate(0 -0.5)">
    <rect id="touch" width="48" height="48" transform="translate(0 0.5)" fill="none"/>
    <g id="Holiday" transform="translate(1.09 7.054)">
      <g id="グループ_281" data-name="グループ 281" transform="translate(10.027)">
        <path id="パス_114" data-name="パス 114" d="M58,26.656a3.577,3.577,0,0,0,1.79-1.575c.74-1.563-.74-2.924,0-3.682.716-.728,3.031-.412,3.58.525.448.758-.483,1.545,0,2.1.573.656,2.106-.179,2.984.525a1.819,1.819,0,0,1,0,2.626c-.8.567-1.921-.376-3.58,0a4.372,4.372,0,0,0-2.387,1.575L58,26.65Z" transform="translate(-41.772 -20.998)" fill="#f8f7f5" stroke="#000" stroke-linecap="round" stroke-miterlimit="10" stroke-width="1"/>
        <path id="パス_115" data-name="パス 115" d="M46.435,40.534c-1.909,3.318-4.01,6.964-7.757,7.161a7.7,7.7,0,0,1-7.757-5.967A7.657,7.657,0,0,1,34.5,33.97c6.641-4.123,12.507-5.615,14.321-3.58C50.923,32.747,47.128,39.328,46.435,40.534Z" transform="translate(-30.804 -24.421)" fill="#a86b42" stroke="#000" stroke-miterlimit="10" stroke-width="1"/>
      </g>
      <path id="パス_116" data-name="パス 116" d="M35.754,34c-1.17-.024-11.385-.078-17.251,7.757a18,18,0,0,0-3.789,11.893,16.228,16.228,0,0,0,1.349,5.412q16.1.3,32.211.6a16.569,16.569,0,0,0,3.765-4.064c2.655-4.07,1.832-8.634,1.313-10.556C51.687,38.879,44.556,34.123,35.76,34Z" transform="translate(-14.273 -26.24)" fill="#a86b42" stroke="#000" stroke-miterlimit="10" stroke-width="1"/>
      <path id="パス_117" data-name="パス 117" d="M14,76H52.19v.185A4,4,0,0,1,48.2,80.177H17.992A4,4,0,0,1,14,76.185V76Z" transform="translate(-14 -43.18)" fill="#f8f7f5" stroke="#000" stroke-linecap="round" stroke-miterlimit="10" stroke-width="1"/>
      <g id="グループ_282" data-name="グループ 282" transform="translate(20.768 1.935)">
        <path id="パス_118" data-name="パス 118" d="M76,30.661a3.766,3.766,0,0,0,1.79-1.79c.74-1.778-.74-3.324,0-4.177.716-.823,3.031-.465,3.58.6.448.859-.483,1.754,0,2.387.573.746,2.106-.2,2.984.6a2.268,2.268,0,0,1,0,2.984c-.8.644-1.921-.43-3.58,0a4.4,4.4,0,0,0-2.387,1.79Z" transform="translate(-59.772 -24.241)" fill="#f8f7f5" stroke="#000" stroke-linecap="round" stroke-miterlimit="10" stroke-width="1"/>
        <path id="パス_119" data-name="パス 119" d="M64.435,45.534c-1.909,3.318-4.01,6.964-7.757,7.161a7.7,7.7,0,0,1-7.757-5.967A7.657,7.657,0,0,1,52.5,38.97c6.641-4.123,12.507-5.615,14.321-3.58C68.923,37.747,65.128,44.328,64.435,45.534Z" transform="translate(-48.804 -28.373)" fill="#a86b42" stroke="#000" stroke-miterlimit="10" stroke-width="1"/>
      </g>
    </g>
  </g>
</svg>
