<svg id="グループ_312" data-name="グループ 312" xmlns="http://www.w3.org/2000/svg" width="44.002" height="28.217" viewBox="0 0 44.002 28.217">
  <g id="前面オブジェクトで型抜き_4" data-name="前面オブジェクトで型抜き 4" transform="translate(0 2.452)" fill="none">
    <path d="M22,23.312a22.335,22.335,0,0,1-8.563-1.821,34.01,34.01,0,0,1-6.994-4.007A40.371,40.371,0,0,1,0,11.655l.009-.012A42,42,0,0,1,6.444,5.828a34.04,34.04,0,0,1,6.994-4.007c.2-.082.4-.163.6-.24l4.454,4.383a6.6,6.6,0,0,0-3.257,5.691,6.789,6.789,0,0,0,12.554,3.457l5.282,5.2c-.838.442-1.68.839-2.5,1.181A22.335,22.335,0,0,1,22,23.312Zm14.05-4.778h0l-7.286-7.169A6.755,6.755,0,0,0,22.3,5L17.7.474A20.418,20.418,0,0,1,22,0a22.351,22.351,0,0,1,8.563,1.821,34.055,34.055,0,0,1,6.993,4.007A41.28,41.28,0,0,1,44,11.648l.007.008-.009.013a42.03,42.03,0,0,1-6.435,5.815c-.5.364-1,.717-1.506,1.05Z" stroke="none"/>
    <path d="M 22.00139617919922 21.31213760375977 C 24.45296287536621 21.31213760375977 27.01391792297363 20.77602958679199 29.61613655090332 19.71839904785156 L 27.92036056518555 18.04985809326172 C 26.32756233215332 19.49682426452637 24.23822593688965 20.31705665588379 22.00139617919922 20.31705665588379 C 17.16571617126465 20.31705665588379 13.23160552978516 16.43135643005371 13.23160552978516 11.65518665313721 C 13.23160552978516 9.45578670501709 14.05349159240723 7.402823448181152 15.50468730926514 5.833561897277832 L 13.57832717895508 3.938129425048828 C 11.59999942779541 4.81992769241333 9.600383758544922 5.99675178527832 7.625015735626221 7.442546844482422 C 5.492660999298096 9.002779960632324 3.798158645629883 10.58577823638916 2.73626184463501 11.65739727020264 C 3.783897161483765 12.71614170074463 5.470521926879883 14.29241371154785 7.625545501708984 15.86997699737549 C 9.807255744934082 17.46742630004883 12.02079582214355 18.7370662689209 14.20524597167969 19.64384651184082 C 16.86970520019531 20.75084686279297 19.49271583557129 21.31213760375977 22.00139617919922 21.31213760375977 M 36.27214431762695 15.94597434997559 C 36.30702972412109 15.92062377929688 36.34184265136719 15.89523410797119 36.37663650512695 15.86976718902588 C 38.50906372070312 14.3089771270752 40.20343780517578 12.72591876983643 41.26538848876953 11.65417003631592 C 40.21165466308594 10.58924007415771 38.52716827392578 9.016271591186523 36.37665557861328 7.442377090454102 C 34.1931037902832 5.844196796417236 31.97968482971191 4.574456691741943 29.79802513122559 3.668486833572388 C 27.16581153869629 2.575682640075684 24.57612419128418 2.0146164894104 22.09885025024414 2.000279664993286 L 23.19253349304199 3.076399803161621 C 27.04343605041504 3.602117538452148 30.13845062255859 6.649362087249756 30.68446350097656 10.4480094909668 L 36.27214431762695 15.94597434997559 M 22.00139617919922 23.31213760375977 C 19.22800636291504 23.31213760375977 16.34682464599609 22.6993465423584 13.43790531158447 21.49078750610352 C 11.10714530944824 20.52326774597168 8.754055976867676 19.17507743835449 6.444005489349365 17.48365783691406 C 2.459365606307983 14.56674671173096 0.02413558214902878 11.6839771270752 5.581664936471498e-06 11.65518665313721 L 0.009035581722855568 11.64285659790039 C 0.2780255675315857 11.33282661437988 2.743765592575073 8.535926818847656 6.444005489349365 5.828476905822754 C 8.756165504455566 4.136187076568604 11.10925579071045 2.787997007369995 13.43790531158447 1.821346879005432 C 13.63631534576416 1.738966941833496 13.83721542358398 1.658336877822876 14.03499603271484 1.581656932830811 L 18.48901557922363 5.96416711807251 C 16.44925498962402 7.186737060546875 15.23160552978516 9.313647270202637 15.23160552978516 11.65518665313721 C 15.23160552978516 15.32854652404785 18.26851463317871 18.31705665588379 22.00139617919922 18.31705665588379 C 24.38071632385254 18.31705665588379 26.54316520690918 17.11882781982422 27.78594589233398 15.11179733276367 L 33.06832504272461 20.30934715270996 C 32.23068618774414 20.75180625915527 31.38848495483398 21.14877700805664 30.56489562988281 21.49078750610352 C 27.65596580505371 22.6993465423584 24.7747859954834 23.31213760375977 22.00139617919922 23.31213760375977 Z M 36.0509147644043 18.53410720825195 L 28.76388549804688 11.36407661437988 C 28.61371612548828 7.94486665725708 25.77380561828613 5.150716781616211 22.29826545715332 5.002296924591064 L 17.69591522216797 0.4738568961620331 C 19.15187644958496 0.1588868945837021 20.60028648376465 -3.105468749708962e-06 22.00139617919922 -3.105468749708962e-06 C 24.77267646789551 -3.105468749708962e-06 27.65385627746582 0.6127868890762329 30.56489562988281 1.821346879005432 C 32.89339447021484 2.788296937942505 35.24617385864258 4.136487007141113 37.55789566040039 5.828476905822754 C 41.30624389648438 8.57177734375 43.73109436035156 11.34079647064209 43.99525451660156 11.64750671386719 L 44.00191497802734 11.65519714355469 L 43.99287414550781 11.66839694976807 C 43.72385406494141 11.97845649719238 41.25811386108398 14.77534675598145 37.55789566040039 17.48365783691406 C 37.06056594848633 17.8476676940918 36.55377578735352 18.20093727111816 36.05160522460938 18.53365707397461 L 36.0509147644043 18.53410720825195 Z" stroke="none" fill="#292522"/>
  </g>
  <path id="パス_150" data-name="パス 150" d="M.992.129,35.441,0a.975.975,0,0,1,.98.98l-.005,1.39a.992.992,0,0,1-.987.987L.98,3.485A.975.975,0,0,1,0,2.505l.005-1.39A.992.992,0,0,1,.992.129Z" transform="translate(10.356 0) rotate(45)" fill="#292522"/>
</svg>
