<svg xmlns="http://www.w3.org/2000/svg" xmlns:xlink="http://www.w3.org/1999/xlink" width="684.681" height="151.017" viewBox="0 0 684.681 151.017">
  <defs>
    <clipPath id="clip-path">
      <rect id="Rectangle_81" data-name="Rectangle 81" width="150.89" height="151.017" transform="translate(0)" fill="#f37725"/>
    </clipPath>
  </defs>
  <g id="Group_332" data-name="Group 332" transform="translate(-814 -401.032)">
    <text id="MealCompass" transform="translate(997.681 501.032)" fill="#f37725" font-size="75" font-family="ReklameScript-Bold, Reklame Script" font-weight="700"><tspan x="0" y="0">Meal</tspan><tspan y="0" fill="#292522" font-family="CoconPro-Bold, CoconPro">Compass</tspan></text>
    <g id="Group_247" data-name="Group 247" transform="translate(814 401.032)" clip-path="url(#clip-path)">
      <ellipse id="Ellipse_45" data-name="Ellipse 45" cx="46.401" cy="46.44" rx="46.401" ry="46.44" transform="translate(29.323 29.347)" fill="none" stroke="#f37725" stroke-miterlimit="10" stroke-width="2"/>
      <path id="Path_48" data-name="Path 48" d="M69.628,0,82.944,30.459H56.312Z" transform="translate(6.503 0)" fill="#f37725"/>
      <path id="Path_49" data-name="Path 49" d="M138.362,69.11,108.484,82.437V55.783Z" transform="translate(12.528 6.442)" fill="#f37725"/>
      <path id="Path_50" data-name="Path 50" d="M0,70.107,30.434,56.78V83.434Z" transform="translate(0 6.557)" fill="#f37725"/>
      <path id="Path_51" data-name="Path 51" d="M68.974,138.479l-13.315-29.9H82.29Z" transform="translate(6.428 12.539)" fill="#f37725"/>
      <path id="Path_52" data-name="Path 52" d="M112.752,51.939C102.182,63.3,87.815,67.1,80.662,60.432s-4.382-21.281,6.189-32.639,24.938-15.161,32.09-8.492,4.382,21.28-6.189,32.638" transform="translate(8.856 1.849)" fill="#f37725"/>
      <path id="Path_53" data-name="Path 53" d="M112.752,51.939C102.182,63.3,87.815,67.1,80.662,60.432s-4.382-21.281,6.189-32.639,24.938-15.161,32.09-8.492S123.323,40.581,112.752,51.939Z" transform="translate(8.856 1.849)" fill="none"/>
      <path id="Path_54" data-name="Path 54" d="M26.146,120.317h0a5.564,5.564,0,0,1-.279-7.861L84.2,49.773a5.564,5.564,0,1,1,8.146,7.582L34.014,120.038a5.564,5.564,0,0,1-7.867.279" transform="translate(2.815 5.543)" fill="#f37725"/>
      <path id="Path_55" data-name="Path 55" d="M26.046,116.227h0a5.249,5.249,0,0,1-.263-7.416L80.819,49.672A5.25,5.25,0,1,1,88.5,56.825L33.469,115.964A5.249,5.249,0,0,1,26.046,116.227Z" transform="translate(4.946 7.808)" fill="none"/>
      <path id="Path_56" data-name="Path 56" d="M29.472,53.154l3.809-4.431L7.828,26.8l-.953,1.108,22.6,25.246" transform="translate(0.794 3.095)" fill="#f37725"/>
      <rect id="Rectangle_79" data-name="Rectangle 79" width="2.922" height="33.593" transform="matrix(0.652, -0.758, 0.758, 0.652, 10.519, 27.69)" fill="#f37725"/>
      <rect id="Rectangle_80" data-name="Rectangle 80" width="2.922" height="33.593" transform="matrix(0.652, -0.758, 0.758, 0.652, 14.328, 23.26)" fill="#f37725"/>
      <path id="Path_57" data-name="Path 57" d="M41.721,38.909l3.809-4.431L17.22,15.879l-.953,1.108Z" transform="translate(1.879 1.834)" fill="#f37725"/>
      <path id="Path_58" data-name="Path 58" d="M49.726,37.225,32.716,57.283l-5.469-4.71a1.547,1.547,0,0,1-.163-2.181l15.048-17.5a1.665,1.665,0,0,1,2.349-.176Z" transform="translate(3.084 3.731)" fill="#f37725"/>
      <path id="Path_59" data-name="Path 59" d="M123.032,117.614a7.567,7.567,0,0,1-10.685.437q-34.945-30.1-69.893-60.2c3.673-2.441,6.442-2.706,8.316-2.477.837.1,1.562.312,2.137-.087,1.519-1.054.321-5.185-.929-8.511l69.893,60.2a7.581,7.581,0,0,1,1.161,10.639" transform="translate(4.903 5.402)" fill="#f37725"/>
      <path id="Path_60" data-name="Path 60" d="M58.761,62.333,32.094,57,49.4,36.838Z" transform="translate(3.301 3.95)" fill="#f37725"/>
      <path id="Path_61" data-name="Path 61" d="M58.766,63.845" transform="translate(6.786 7.373)" fill="#e35c1a"/>
    </g>
  </g>
</svg>
