<svg xmlns="http://www.w3.org/2000/svg" width="20" height="30" viewBox="0 0 20 30">
  <g id="前面オブジェクトで型抜き_6" data-name="前面オブジェクトで型抜き 6" fill="#292522">
    <path d="M 10 28.5 C 7.374660015106201 28.5 5.20980978012085 27.56081008911133 3.7394700050354 25.78395080566406 C 2.274450063705444 24.012939453125 1.5 21.48052978515625 1.5 18.46068954467773 C 1.5 16.33480072021484 2.464309930801392 14.05379009246826 4.534729957580566 11.28223037719727 C 6.279369831085205 8.945320129394531 7.647449970245361 6.304659843444824 8.491339683532715 3.645359992980957 C 8.556197166442871 3.44098162651062 8.615800857543945 3.243465185165405 8.670560836791992 3.053372621536255 C 9.80022144317627 4.247783184051514 11.2722806930542 5.871115684509277 12.72257041931152 7.664979934692383 C 14.44359970092773 9.793210029602051 15.80926990509033 11.75205993652344 16.78175926208496 13.48725986480713 C 18.2019100189209 16.02091026306152 18.5 17.59028053283691 18.5 18.46068954467773 C 18.5 21.48048973083496 17.72553062438965 24.01288986206055 16.26030921936035 25.78413963317871 C 14.7901496887207 27.56081008911133 12.62532043457031 28.5 10 28.5 Z M 9.545100212097168 12.5305700302124 L 8.393819808959961 14.30918979644775 C 8.384719848632812 14.32324981689453 7.473010063171387 15.73519992828369 6.551080226898193 17.455810546875 C 4.82017993927002 20.68623924255371 4.619999885559082 22.05913925170898 4.619999885559082 22.81078910827637 C 4.619999885559082 25.85979080200195 7.033460140228271 28.34033012390137 10 28.34033012390137 C 12.96654987335205 28.34033012390137 15.38000965118408 25.85979080200195 15.38000965118408 22.81078910827637 C 15.38000965118408 22.03266906738281 15.13817977905273 20.62085914611816 13.04718017578125 17.35816955566406 C 11.95545959472656 15.654709815979 10.85122013092041 14.22165012359619 10.84018993377686 14.20736980438232 L 9.545100212097168 12.5305700302124 Z" stroke="none"/>
    <path d="M 16.69371795654297 21.40543937683105 C 16.89641952514648 20.50726699829102 17 19.52069091796875 17 18.46068954467773 C 17 17.8944206237793 16.80166053771973 16.59058952331543 15.47325038909912 14.22062015533447 C 14.54201984405518 12.5590295791626 13.22416973114014 10.67078018188477 11.55611038208008 8.608030319213867 C 10.77970027923584 7.647690296173096 9.997035980224609 6.737303733825684 9.26610279083252 5.917967319488525 C 8.516497611999512 7.783877849578857 7.39900016784668 9.95297908782959 5.736440181732178 12.17994022369385 C 3.869519948959351 14.67908000946045 3 16.67482948303223 3 18.46068954467773 C 3 19.5047607421875 3.100499153137207 20.47766304016113 3.297187089920044 21.36491775512695 C 3.533102750778198 20.35297203063965 4.065227031707764 18.91921234130859 5.228919982910156 16.74737930297852 C 6.179769992828369 14.97276973724365 7.125160217285156 13.50870037078857 7.134600162506104 13.49411964416504 L 9.437150001525879 9.936869621276855 L 12.02733039855957 13.29047966003418 C 12.07400035858154 13.3508996963501 13.18317031860352 14.79041957855225 14.31007957458496 16.54879951477051 C 15.77917957305908 18.84110450744629 16.42225074768066 20.34507179260254 16.69371795654297 21.40543937683105 M 10 30 C 6.912990093231201 30 4.348509788513184 28.87280082702637 2.583830118179321 26.7402400970459 C 0.8934299945831299 24.69677925109863 0 21.83423042297363 0 18.46068954467773 C 0 15.99487018585205 1.059110045433044 13.42846965789795 3.333009958267212 10.38451957702637 C 7.353059768676758 4.999760150909424 7.774199962615967 0.04980999976396561 7.778049945831299 -1.77635683940025e-15 C 7.781370162963867 0.0007300000288523734 7.789919853210449 0.009519999846816063 7.8053297996521 0.02441000007092953 C 8.341429710388184 0.5493199825286865 11.15433025360107 3.339359998703003 13.88903999328613 6.721920013427734 C 15.663330078125 8.916020393371582 17.07678031921387 10.94556045532227 18.09026908874512 12.75391006469727 C 19.35745048522949 15.01465034484863 20 16.93481063842773 20 18.46068954467773 C 20 21.83423042297363 19.10651016235352 24.69677925109863 17.41610908508301 26.7402400970459 C 15.65145969390869 28.87280082702637 13.08703994750977 30 10 30 Z M 9.653050422668457 15.12427043914795 C 9.617650032043457 15.17895984649658 6.119999885559082 20.61400985717773 6.119999885559082 22.81078910827637 C 6.119999885559082 25.0327205657959 7.860469818115234 26.84033012390137 10 26.84033012390137 C 12.13943004608154 26.84033012390137 13.88000965118408 25.0327205657959 13.88000965118408 22.81078910827637 C 13.88000965118408 20.6162109375 9.700380325317383 15.18554973602295 9.653050422668457 15.12427043914795 Z" stroke="none" fill="#292522"/>
  </g>
</svg>
