<svg xmlns="http://www.w3.org/2000/svg" width="48" height="48" viewBox="0 0 48 48">
  <g id="グループ_245" data-name="グループ 245" transform="translate(0 -0.5)">
    <rect id="touch" width="48" height="48" transform="translate(0 0.5)" fill="none"/>
    <g id="Appetizers" transform="translate(3.275 6.143)">
      <path id="パス_94" data-name="パス 94" d="M15,53.47V37.351Q23.92,26.41,32.846,15.475A20.264,20.264,0,0,1,47.814,17.2a19.768,19.768,0,0,1,8.06,8.635q.285,8.057.576,16.119Q35.725,47.716,15,53.47Z" transform="translate(-15 -14.762)" fill="#ffd051" stroke="#000" stroke-miterlimit="10" stroke-width="1"/>
      <line id="線_37" data-name="線 37" y1="11.514" x2="39.722" transform="translate(0.576 11.075)" fill="none" stroke="#000" stroke-linecap="round" stroke-miterlimit="10" stroke-width="1"/>
      <path id="パス_95" data-name="パス 95" d="M53.6,22.91a3.747,3.747,0,0,1-1.727,1.727c-.167.069-1.526.627-2.3,0-.938-.76-.748-3.04.576-4.03,1.393-1.042,3.69-.4,4.03.576C54.341,21.666,54.019,22.2,53.6,22.91Z" transform="translate(-29.42 -17.016)" fill="#c9a13d"/>
      <path id="パス_96" data-name="パス 96" d="M39.6,37.91a3.747,3.747,0,0,1-1.727,1.727c-.167.069-1.526.627-2.3,0-.938-.76-.748-3.04.576-4.03,1.393-1.042,3.69-.4,4.03.576C40.341,36.666,40.019,37.2,39.6,37.91Z" transform="translate(-23.48 -23.381)" fill="#c9a13d"/>
      <path id="パス_97" data-name="パス 97" d="M69.35,42.468A3.249,3.249,0,0,1,72.418,44.5a3.341,3.341,0,0,1,0,2.3c-.518,1.549-2.257,3.345-4.03,2.878-1.756-.461-2.568-2.89-2.015-4.663a3.492,3.492,0,0,1,2.971-2.55Z" transform="translate(-36.726 -26.517)" fill="#c9a13d"/>
      <path id="パス_98" data-name="パス 98" d="M32.652,61.591c.017.869-2.585,2.556-4.652,1.5-1.681-.858-1.986-3.143-1.5-4.652.063-.2.783-2.308,2.5-2.452a2.366,2.366,0,0,1,2.153.956c.639,1.059-.484,2.142.225,3.35.5.846,1.267.829,1.272,1.3Z" transform="translate(-19.792 -32.25)" fill="#c9a13d"/>
      <path id="パス_99" data-name="パス 99" d="M67.81,27.086a2.5,2.5,0,0,1-.432,2.032c-.99,1.18-3.23,1.007-3.638.225-.2-.38.144-.984.829-2.188.76-1.336,1.14-2,1.664-2.015.737-.023,1.41,1.059,1.583,1.946Z" transform="translate(-35.658 -19.166)" fill="#c9a13d"/>
      <path id="パス_100" data-name="パス 100" d="M54.839,57.835c.132,1.318-1.808,2.965-3.759,2.878a3.351,3.351,0,0,1-3.161-2.285,2.983,2.983,0,0,1,1.739-3.471c.616-.173,1.146.052,2.124.484C53.238,56.085,54.729,56.747,54.839,57.835Z" transform="translate(-28.933 -31.793)" fill="#c9a13d"/>
    </g>
  </g>
</svg>
