<svg xmlns="http://www.w3.org/2000/svg" width="48" height="48" viewBox="0 0 48 48">
  <g id="グループ_267" data-name="グループ 267" transform="translate(0 -0.5)">
    <rect id="touch" width="48" height="48" transform="translate(0 0.5)" fill="none"/>
    <g id="Lunch" transform="translate(1.291 3.64)">
      <path id="パス_66" data-name="パス 66" d="M47.2,23.456l13.1,22.7A9.572,9.572,0,0,1,52.015,60.51h-26.2a9.574,9.574,0,0,1-8.292-14.358l13.1-22.7A9.57,9.57,0,0,1,47.2,23.456Z" transform="translate(-16.227 -18.67)" fill="#f8f7f5" stroke="#000" stroke-linecap="round" stroke-miterlimit="10" stroke-width="1"/>
      <path id="パス_67" data-name="パス 67" d="M43.2,53.5h7.064A4.645,4.645,0,0,1,54.9,58.142v14.4H38.49V58.2a4.7,4.7,0,0,1,4.7-4.7Z" transform="translate(-23.874 -30.634)" fill="#292522" stroke="#000" stroke-linecap="round" stroke-miterlimit="10" stroke-width="1"/>
      <g id="グループ_259" data-name="グループ 259" transform="translate(22.829 4.812)">
        <ellipse id="楕円形_48" data-name="楕円形 48" cx="0.164" cy="0.492" rx="0.164" ry="0.492" transform="translate(0.164 0.164)"/>
        <path id="パス_68" data-name="パス 68" d="M51.328,26c-.184,0-.328.3-.328.657s.144.657.328.657.328-.3.328-.657S51.512,26,51.328,26Z" transform="translate(-51 -26)"/>
      </g>
      <g id="グループ_260" data-name="グループ 260" transform="translate(28.081 10.064)">
        <ellipse id="楕円形_49" data-name="楕円形 49" cx="0.164" cy="0.492" rx="0.164" ry="0.492" transform="translate(0.164 0.164)"/>
        <path id="パス_69" data-name="パス 69" d="M59.328,34c-.184,0-.328.3-.328.657s.144.657.328.657.328-.3.328-.657S59.512,34,59.328,34Z" transform="translate(-59 -34)"/>
      </g>
      <g id="グループ_261" data-name="グループ 261" transform="translate(22.829 12.034)">
        <ellipse id="楕円形_50" data-name="楕円形 50" cx="0.164" cy="0.492" rx="0.164" ry="0.492" transform="translate(0.164 0.164)"/>
        <path id="パス_70" data-name="パス 70" d="M51.328,37c-.184,0-.328.3-.328.657s.144.657.328.657.328-.3.328-.657S51.512,37,51.328,37Z" transform="translate(-51 -37)"/>
      </g>
      <g id="グループ_262" data-name="グループ 262" transform="translate(18.234 16.63)">
        <ellipse id="楕円形_51" data-name="楕円形 51" cx="0.164" cy="0.492" rx="0.164" ry="0.492" transform="translate(0.164 0.164)"/>
        <path id="パス_71" data-name="パス 71" d="M44.328,44c-.184,0-.328.3-.328.657s.144.657.328.657.328-.3.328-.657S44.512,44,44.328,44Z" transform="translate(-44 -44)"/>
      </g>
      <g id="グループ_263" data-name="グループ 263" transform="translate(10.355 18.599)">
        <ellipse id="楕円形_52" data-name="楕円形 52" cx="0.164" cy="0.492" rx="0.164" ry="0.492" transform="translate(0.164 0.164)"/>
        <path id="パス_72" data-name="パス 72" d="M32.328,47c-.184,0-.328.3-.328.657s.144.657.328.657.328-.3.328-.657S32.512,47,32.328,47Z" transform="translate(-32 -47)"/>
      </g>
      <g id="グループ_264" data-name="グループ 264" transform="translate(33.99 18.599)">
        <ellipse id="楕円形_53" data-name="楕円形 53" cx="0.164" cy="0.492" rx="0.164" ry="0.492" transform="translate(0.164 0.164)"/>
        <path id="パス_73" data-name="パス 73" d="M68.328,47c-.184,0-.328.3-.328.657s.144.657.328.657.328-.3.328-.657S68.512,47,68.328,47Z" transform="translate(-68 -47)"/>
      </g>
      <g id="グループ_265" data-name="グループ 265" transform="translate(26.768 16.63)">
        <ellipse id="楕円形_54" data-name="楕円形 54" cx="0.164" cy="0.492" rx="0.164" ry="0.492" transform="translate(0.164 0.164)"/>
        <path id="パス_74" data-name="パス 74" d="M57.328,44c-.184,0-.328.3-.328.657s.144.657.328.657.328-.3.328-.657S57.512,44,57.328,44Z" transform="translate(-57 -44)"/>
      </g>
      <g id="グループ_266" data-name="グループ 266" transform="translate(16.921 10.064)">
        <ellipse id="楕円形_55" data-name="楕円形 55" cx="0.164" cy="0.492" rx="0.164" ry="0.492" transform="translate(0.164 0.164)"/>
        <path id="パス_75" data-name="パス 75" d="M42.328,34c-.184,0-.328.3-.328.657s.144.657.328.657.328-.3.328-.657S42.512,34,42.328,34Z" transform="translate(-42 -34)"/>
      </g>
    </g>
  </g>
</svg>
