<svg xmlns="http://www.w3.org/2000/svg" width="47" height="47" viewBox="0 0 47 47">
  <g id="Breakfast" transform="translate(0.5)">
    <circle id="楕円形_36" data-name="楕円形 36" cx="23" cy="23" r="23" transform="translate(0 0.5)" fill="#f8f7f5" stroke="#000" stroke-miterlimit="10" stroke-width="1"/>
    <g id="グループ_228" data-name="グループ 228" transform="translate(15.514 6.18)">
      <path id="パス_27" data-name="パス 27" d="M53.45,15.427c-.883-2.463-6.516-2.964-6.516-2.964s-.926-.11-2.287-.143v-.01a28.523,28.523,0,0,0-2.964.153s-5.633.5-6.516,2.964a2.7,2.7,0,0,0,.019,1.9c.291.644.8.835,1.165,1.656a3.2,3.2,0,0,1,.243.835V30.535H52.018V19.814a3.2,3.2,0,0,1,.243-.835c.368-.821.874-1.012,1.165-1.656a2.7,2.7,0,0,0,.019-1.9Z" transform="translate(-35 -12.31)" fill="#dbab71" stroke="#000" stroke-linejoin="round" stroke-width="1"/>
      <path id="パス_28" data-name="パス 28" d="M41.167,25.749c-.468-1.084-1.289-1.088-1.427-2.143a2.59,2.59,0,0,1,.821-2.172,2.86,2.86,0,0,1,2.034-.687,4.475,4.475,0,0,1,.649-1.862,2.559,2.559,0,0,1,1.2-1.2c.783-.277,1.122.377,2.4.6,1.752.306,2.582-.673,3.594,0,.115.076.726.482.735,1.031,0,.329-.205.482-.138.764.076.31.4.4.85.664a3.326,3.326,0,0,1,1.427,1.427,2.284,2.284,0,0,1,0,1.427,5.885,5.885,0,0,1-.716,1.427,8.039,8.039,0,0,0-.716,1.427c-.076.745.468.921.716,2.143a2.067,2.067,0,0,1,0,1.427c-.425.778-1.814.9-2.855.716-1.122-.2-1.2-.745-2.143-.716a17.107,17.107,0,0,0-2.143.716,3.13,3.13,0,0,1-2.143.716,2.571,2.571,0,0,1-2.143-1.427c-.769-1.485.721-2.6,0-4.287Z" transform="translate(-37.467 -15.085)" fill="#dd4b57"/>
    </g>
    <g id="グループ_229" data-name="グループ 229" transform="translate(2.715 17.965)">
      <path id="パス_29" data-name="パス 29" d="M14.28,41.6c.473-3.108,3.213-4.941,5.3-4.544,2.263.43,4.229,3.566,3.026,6.812a5.056,5.056,0,0,1,4.544,3.785,4.73,4.73,0,0,1-2.272,5.3,4.712,4.712,0,0,1-3.785,0,5.943,5.943,0,0,1-2.272,3.026c-.353.239-2.511,1.695-4.544.759A4.766,4.766,0,0,1,12,51.434a5.414,5.414,0,0,1-3.026-2.272,4.674,4.674,0,0,1-.759-3.026c.291-2.32,2.492-3.5,3.026-3.785a6.631,6.631,0,0,1,3.026-.759Z" transform="translate(-8.187 -36.998)" fill="#f8f7f5" stroke="#000" stroke-miterlimit="10" stroke-width="1"/>
      <circle id="楕円形_37" data-name="楕円形 37" cx="3.785" cy="3.785" r="3.785" transform="translate(6.092 6.87)" fill="#ffd051" stroke="#000" stroke-miterlimit="10" stroke-width="1"/>
    </g>
    <g id="グループ_230" data-name="グループ 230" transform="translate(20.669 23.188)">
      <path id="パス_30" data-name="パス 30" d="M59.565,66.175,62.152,68.8l3.5-1.752c.582-.974,1.17-1.948,1.752-2.917.974-.582,1.948-1.17,2.917-1.752q1.167-1.754,2.334-3.5L70.324,55.96,67.99,57.13c-.391.778-.778,1.556-1.17,2.334q-1.167.294-2.334.582l-1.752,3.5c-.582.2-1.17.391-1.752.582L59.56,66.175Z" transform="translate(-52.992 -52.132)" fill="#f299bd" stroke="#000" stroke-miterlimit="10" stroke-width="1"/>
      <path id="パス_31" data-name="パス 31" d="M45.8,61.825l2.587,2.625L51.9,62.7c.582-.974,1.17-1.948,1.752-2.917.974-.582,1.948-1.17,2.917-1.752q1.167-1.754,2.334-3.5L56.564,51.61,54.23,52.78c-.391.778-.778,1.556-1.17,2.334q-1.167.294-2.334.582l-1.752,3.5c-.582.2-1.17.391-1.752.582L45.8,61.825Z" transform="translate(-45.8 -49.858)" fill="#f299bd" stroke="#000" stroke-miterlimit="10" stroke-width="1"/>
      <path id="パス_32" data-name="パス 32" d="M58.035,58.155l2.587,2.625,3.5-1.752c.582-.974,1.17-1.948,1.752-2.917.974-.582,1.948-1.17,2.917-1.752q1.167-1.754,2.334-3.5L68.794,47.94,66.46,49.11c-.391.778-.778,1.556-1.17,2.334q-1.167.294-2.334.582L61.2,55.53c-.582.2-1.17.391-1.752.582L58.03,58.155Z" transform="translate(-52.192 -47.94)" fill="#f299bd" stroke="#000" stroke-miterlimit="10" stroke-width="1"/>
    </g>
  </g>
</svg>
