<svg width="24" height="24" viewBox="0 0 24 24" fill="none" xmlns="http://www.w3.org/2000/svg">
<g clip-path="url(#clip0_238_723)">
<mask id="mask0_238_723" style="mask-type:luminance" maskUnits="userSpaceOnUse" x="0" y="0" width="24" height="24">
<path d="M24 0H0V24H24V0Z" fill="white"/>
</mask>
<g mask="url(#mask0_238_723)">
<path d="M18.375 0H5.625C2.51839 0 0 2.51839 0 5.625V18.375C0 21.4816 2.51839 24 5.625 24H18.375C21.4816 24 24 21.4816 24 18.375V5.625C24 2.51839 21.4816 0 18.375 0Z" fill="#330000"/>
<path d="M11.6001 14.2812H7.88013L7.12012 16.6313C7.10016 16.7213 7.02018 16.7813 6.93018 16.7712H5.05012C4.94016 16.7712 4.91016 16.7112 4.94016 16.5912L8.16018 7.32121C8.19018 7.22127 8.22018 7.11121 8.26016 6.99121C8.30013 6.78121 8.32016 6.56127 8.32016 6.34124C8.31018 6.29127 8.35016 6.24121 8.40018 6.23127H10.9902C11.0702 6.23127 11.1102 6.26127 11.1201 6.31124L14.7702 16.6113C14.8002 16.7213 14.7702 16.7712 14.6702 16.7712H12.5802C12.5102 16.7813 12.4401 16.7313 12.4202 16.6613L11.6001 14.2812ZM8.46018 12.2513H11.0001C10.9401 12.0413 10.8602 11.7912 10.7702 11.5313C10.6802 11.2613 10.5902 10.9713 10.5002 10.6713C10.4001 10.3613 10.3101 10.0613 10.2102 9.7512C10.1102 9.4413 10.0202 9.1512 9.94016 8.86125C9.86013 8.58128 9.79016 8.32125 9.72018 8.08125H9.70016C9.61016 8.5113 9.50013 8.94128 9.36018 9.37125C9.21018 9.85125 9.06018 10.3512 8.90013 10.8513C8.77098 11.3233 8.62421 11.7902 8.46018 12.2513ZM17.0001 7.9812C16.6701 7.99125 16.3502 7.8612 16.1102 7.63125C15.8802 7.38121 15.7602 7.05121 15.7701 6.71127C15.7602 6.37124 15.8901 6.05127 16.1301 5.82121C16.3701 5.59124 16.6902 5.47124 17.0202 5.47124C17.4102 5.47124 17.7102 5.59124 17.9301 5.82121C18.1518 6.06365 18.2702 6.38294 18.2601 6.71127C18.2702 7.05121 18.1502 7.38121 17.9102 7.63125C17.6802 7.87125 17.3402 8.0013 17.0001 7.9812ZM15.8802 16.6613V8.9613C15.8802 8.86125 15.9201 8.8212 16.0101 8.8212H17.9901C18.0801 8.8212 18.1202 8.8713 18.1202 8.9613V16.6613C18.1202 16.7712 18.0801 16.8213 17.9901 16.8213H16.0302C15.9302 16.8213 15.8802 16.7613 15.8802 16.6613Z" fill="#FF9A00"/>
</g>
</g>
<defs>
<clipPath id="clip0_238_723">
<rect width="24" height="24" fill="white"/>
</clipPath>
</defs>
</svg>
