<svg width="24" height="24" viewBox="0 0 24 24" fill="none" xmlns="http://www.w3.org/2000/svg">
<g clip-path="url(#clip0_238_730)">
<mask id="mask0_238_730" style="mask-type:luminance" maskUnits="userSpaceOnUse" x="0" y="0" width="24" height="24">
<path d="M24 0H0V24H24V0Z" fill="white"/>
</mask>
<g mask="url(#mask0_238_730)">
<path d="M18.375 0H5.625C2.51839 0 0 2.51839 0 5.625V18.375C0 21.4816 2.51839 24 5.625 24H18.375C21.4816 24 24 21.4816 24 18.375V5.625C24 2.51839 21.4816 0 18.375 0Z" fill="#001E36"/>
<path d="M5.3999 16.6912V6.40123C5.3999 6.3312 5.4299 6.29126 5.49993 6.29126C5.6699 6.29126 5.82993 6.29126 6.0599 6.28123C6.2999 6.2712 6.54994 6.2712 6.81994 6.26126C7.08994 6.25123 7.3799 6.25123 7.68995 6.2412C7.99985 6.23126 8.29985 6.23126 8.59985 6.23126C9.4199 6.23126 10.0999 6.3312 10.66 6.5412C11.1619 6.71169 11.6197 6.99181 11.9999 7.36123C12.3221 7.6845 12.5711 8.0733 12.73 8.50125C12.88 8.92125 12.9599 9.35123 12.9599 9.80123C12.9599 10.6613 12.76 11.3712 12.3599 11.9312C11.9599 12.4913 11.3999 12.9113 10.75 13.1512C10.0699 13.4012 9.31985 13.4912 8.49995 13.4912C8.25995 13.4912 8.0999 13.4912 7.99985 13.4813C7.89995 13.4712 7.75985 13.4712 7.56995 13.4712V16.6812C7.57985 16.7513 7.5299 16.8113 7.45987 16.8212H5.5199C5.43994 16.8212 5.3999 16.7812 5.3999 16.6912ZM7.57985 8.2212V11.5812C7.71995 11.5912 7.84985 11.6012 7.96985 11.6012H8.49995C8.88995 11.6012 9.27995 11.5412 9.64985 11.4212C9.96995 11.3312 10.2499 11.1412 10.4699 10.8912C10.6799 10.6412 10.78 10.3012 10.78 9.86123C10.7893 9.54878 10.7095 9.24 10.5499 8.9712C10.3799 8.71125 10.1399 8.51122 9.84995 8.4012C9.4799 8.2512 9.07985 8.1912 8.6699 8.20125C8.40995 8.20125 8.17985 8.20125 7.98995 8.21123C7.78985 8.20125 7.6499 8.21123 7.57985 8.2212ZM19.1999 10.9712C18.8999 10.8112 18.58 10.7012 18.2399 10.6313C17.8699 10.5512 17.5 10.5012 17.1199 10.5012C16.9199 10.4912 16.7099 10.5212 16.5199 10.5712C16.39 10.6013 16.2799 10.6712 16.21 10.7712C16.1599 10.8512 16.1299 10.9512 16.1299 11.0412C16.1299 11.1312 16.1699 11.2212 16.2299 11.3012C16.3199 11.4113 16.4399 11.5012 16.57 11.5712C16.8018 11.6914 17.0386 11.8015 17.2799 11.9012C17.8199 12.0812 18.34 12.3312 18.82 12.6312C19.15 12.8412 19.42 13.1212 19.6099 13.4612C19.7699 13.7812 19.8499 14.1312 19.84 14.4912C19.8499 14.9612 19.7099 15.4312 19.45 15.8212C19.171 16.2204 18.7818 16.5297 18.3299 16.7112C17.8399 16.9212 17.2399 17.0313 16.5199 17.0313C16.06 17.0313 15.61 16.9913 15.16 16.9012C14.8072 16.8404 14.4643 16.7327 14.14 16.5812C14.0699 16.5412 14.02 16.4712 14.0299 16.3912V14.6512C14.0299 14.6213 14.0399 14.5812 14.0699 14.5613C14.0999 14.5413 14.1299 14.5512 14.1599 14.5712C14.5499 14.8013 14.9599 14.9612 15.4 15.0612C15.7799 15.1613 16.18 15.2112 16.5799 15.2112C16.96 15.2112 17.23 15.1612 17.41 15.0712C17.5699 15.0012 17.68 14.8313 17.68 14.6512C17.68 14.5112 17.5999 14.3813 17.44 14.2512C17.2799 14.1212 16.9499 13.9712 16.4599 13.7812C15.9572 13.6041 15.4798 13.3621 15.04 13.0613C14.7266 12.8379 14.467 12.5475 14.2799 12.2112C14.1199 11.8913 14.0399 11.5412 14.05 11.1912C14.05 10.7612 14.17 10.3512 14.3899 9.98123C14.6399 9.58125 15.01 9.26123 15.4399 9.0612C15.91 8.8212 16.4999 8.71125 17.2099 8.71125C17.62 8.71125 18.04 8.74125 18.4499 8.80125C18.7499 8.84122 19.0399 8.92125 19.3099 9.0312C19.3499 9.04125 19.39 9.08123 19.4099 9.1212C19.42 9.16125 19.4299 9.20123 19.4299 9.2412V10.8713C19.4299 10.9112 19.4099 10.9512 19.3799 10.9712C19.2899 10.9912 19.24 10.9912 19.1999 10.9712Z" fill="#31A8FF"/>
</g>
</g>
<defs>
<clipPath id="clip0_238_730">
<rect width="24" height="24" fill="white"/>
</clipPath>
</defs>
</svg>
