<svg width="51" height="51" viewBox="0 0 51 51" fill="none" xmlns="http://www.w3.org/2000/svg">
<path d="M18.2115 24.2825L18.1947 24.3007C18.191 24.3043 18.1888 24.2307 18.1991 24.163C18.2401 23.9023 18.746 22.6365 18.8727 22.4137C18.9877 22.2141 19.2425 21.9213 19.4775 21.6956C19.6569 21.5266 19.9454 21.3118 20.1863 21.1814C20.4301 21.0525 20.6886 20.995 20.9485 21.0132C21.5826 21.0663 22.2372 21.086 23.0082 21.0751C23.5559 21.0612 24.6198 21.0299 24.9083 20.9578C25.3915 20.8253 26.4869 20.5063 26.7813 20.4735C27.1276 20.4378 27.6174 20.483 27.9777 20.5667C28.6887 20.7437 29.4699 21.0139 29.921 21.2644C30.3281 21.4924 31.2345 22.1857 31.578 22.5273C31.9323 22.8827 32.5364 23.7093 32.8066 24.2388C32.9172 24.4631 33.5937 25.8002 33.9393 26.2525C34.0338 26.3748 35.0047 27.535 35.187 27.8351C35.4733 28.3099 35.8819 29.3827 35.9727 29.9121C36.01 30.1357 36.051 30.7031 36.0466 30.9762C36.04 31.2988 35.9785 31.7933 35.9075 32.0985C35.794 32.5719 35.2617 33.7553 35.0127 34.1122C34.6854 34.5761 34.0733 35.1537 33.5234 35.5571C33.0328 35.9147 31.999 36.4151 31.6424 36.5469C31.4798 36.6059 30.2746 36.8076 29.7211 36.9001C29.2181 36.9919 28.2171 37.1819 27.9089 37.3203C27.5069 37.5046 26.9394 37.943 26.4437 38.4033C26.2402 38.5876 25.7518 38.9561 25.5409 39.0726C25.3183 39.1942 24.7611 39.3945 24.4982 39.444C24.2083 39.4957 23.736 39.5088 23.4241 39.4753C23.0646 39.4353 21.9538 39.1775 21.5394 39.0391C21.3132 38.9626 20.8702 38.7587 20.6666 38.6407C20.4587 38.5198 20.0721 38.2227 19.8853 38.0501C19.7052 37.8804 19.3765 37.4893 19.2322 37.281C18.984 36.9198 18.5249 35.8608 18.3938 35.3794C18.3111 35.0706 18.0036 33.7379 17.8813 33.1909C17.7495 32.5806 17.6968 31.4984 17.7224 31.1138C17.7283 31.033 18.2188 28.1715 18.3763 26.7929C18.4378 26.1731 18.5476 25.0472 18.5967 24.541C18.6604 23.9132 18.8515 22.9985 19.0008 22.7713C19.1173 22.6016 19.7235 22.1566 19.8517 22.0925C19.8788 22.0794 19.9234 22.0641 19.9857 22.0473" stroke="#66D9E8" stroke-width="16.8" stroke-linecap="round" stroke-linejoin="round"/>
<path d="M28.7912 22.3024C28.7194 22.1618 28.6718 22.0802 28.6484 22.0569C28.5898 22.0016 28.2728 22.2201 28.0685 22.3963C27.7536 22.6753 25.7335 24.6649 24.8753 25.4996C23.539 26.7493 23.0133 27.1797 22.9503 27.1637C23.0814 26.8921 24.9888 24.335 25.4904 23.6235C25.7152 23.2958 26.0732 22.6549 26.0974 22.4742C26.1091 22.3723 26.0102 22.2368 25.918 22.2179C25.7613 22.1909 25.2216 22.3264 24.9346 22.4495C24.5246 22.6294 23.5478 23.2047 23.1034 23.5142C22.3023 24.0823 20.8694 25.2782 20.6607 25.5178C20.9602 25.3175 21.6177 24.7086 22.1347 24.1865C22.5506 23.7546 23.1517 23.0139 23.4651 22.5165C23.5764 22.3388 23.7272 21.9856 23.7258 21.7802C23.7214 21.6731 23.6027 21.5005 23.5061 21.4626C23.3296 21.3993 22.9035 21.4641 22.7336 21.5202C22.3287 21.6578 21.505 22.1698 21.1506 22.448C20.7801 22.7415 20.012 23.4953 19.6884 23.8864C19.364 24.279 18.8083 25.1026 18.6479 25.4282C18.5146 25.7035 18.3799 26.1252 18.3675 26.3007C18.366 26.3415 18.3821 26.5468 18.4033 26.5935C18.4663 26.7216 18.6186 26.8258 18.768 26.8433C18.8705 26.8527 19.2205 26.7457 19.4079 26.6459C19.7828 26.4434 20.5575 25.78 20.9002 25.3976C21.1799 25.0823 21.7568 24.2564 21.9648 23.8041C22.1764 23.3336 22.2269 22.7481 22.1984 22.6228C22.1574 22.4597 22.0387 22.2565 21.9326 22.1931C21.8235 22.1319 21.5936 22.1378 21.431 22.1924C21.3065 22.2376 20.9558 22.4997 20.7896 22.676C20.5143 22.9724 20.0384 23.7502 19.8568 24.1566C19.6818 24.5528 19.3874 25.4923 19.331 25.922C19.2974 26.1871 19.3091 26.6379 19.353 26.817C19.3625 26.8527 19.4423 27.0632 19.476 27.1069C19.5756 27.23 19.7601 27.313 19.9117 27.3014C19.9673 27.2955 20.3591 27.1339 20.5494 26.9765C20.917 26.667 21.565 25.8812 21.8938 25.3233C22.0234 25.1012 22.2694 24.6096 22.3097 24.4872C22.3573 24.3343 22.4202 24.0284 22.4027 23.976C22.3953 23.9549 22.369 23.9286 22.3228 23.8973C22.1515 23.9614 21.9692 24.1544 21.8469 24.3285C21.4911 24.8441 21.0766 25.6299 20.7808 26.2548C20.6051 26.6459 20.127 27.8396 19.9278 28.3851C19.4592 29.7746 19.2139 30.9115 19.1004 31.6289C19.0587 31.9012 19.0528 32.2843 19.0997 32.5917C19.1238 32.733 19.2095 32.9398 19.2893 33.0163C19.3735 33.0949 19.5639 33.0621 19.7184 32.9726C19.8326 32.9005 20.0486 32.6193 20.2229 32.3295C20.4975 31.8677 20.8775 30.7782 21.0166 30.2065C21.155 29.6151 21.3014 28.7055 21.3285 28.1076C21.3424 27.734 21.3336 27.3953 21.2882 27.2089C21.2194 26.9445 21.1513 26.8564 21.0276 26.7486C20.876 26.769 20.7925 26.7945 20.7347 26.8535C20.5275 27.0661 20.072 27.9699 19.8919 28.5183C19.7338 29.0012 19.4504 30.173 19.3896 30.4927C19.2791 31.1023 19.1348 32.4868 19.1231 32.7067C19.0997 33.151 19.2146 34.2012 19.3362 34.5012C19.3552 34.5464 19.4724 34.7627 19.5141 34.8064C19.6276 34.9171 19.8341 35.0016 19.9593 34.9688C20.1533 34.9142 20.4835 34.5566 20.5223 34.4947C20.6915 34.2121 20.9939 33.175 21.0576 32.6412C21.1198 32.1095 21.1198 31.0841 21.0027 30.5124C20.9683 30.3544 20.8994 30.1708 20.8372 30.0842C20.7772 30.0048 20.6227 29.9625 20.5494 30.0033C20.4184 30.0834 20.2346 30.3806 20.1423 30.6063C19.9241 31.1489 19.7147 32.1933 19.6466 32.7956C19.5888 33.352 19.5902 34.4277 19.6598 34.8763C19.6898 35.0664 19.7945 35.5383 19.8568 35.7357C19.9241 35.9433 20.1152 36.3249 20.2858 36.6155C20.496 36.9621 20.7581 37.3256 20.9119 37.4501C21.0276 37.5411 21.3571 37.6831 21.5072 37.7247C21.71 37.7786 22.2496 37.8485 22.4876 37.8426C22.7424 37.8346 23.1502 37.745 23.3304 37.6722C24.3554 37.2331 26.3771 36.4021 27.3736 36.0103C28.8995 35.3708 29.9795 34.8333 31.3744 34.0606C31.7405 33.8501 32.0304 33.6564 32.174 33.4955C32.4002 33.2347 32.9376 32.2465 33.2217 31.6995C33.3755 31.3944 33.4773 31.0979 33.5007 30.878C33.5717 30.1599 33.5241 29.4119 33.4216 28.7761C33.336 28.2518 33.046 27.1258 32.8439 26.6262C32.6323 26.1186 32.2223 25.2148 31.9418 24.8419C31.6702 24.4865 30.834 23.7509 30.4935 23.3868C30.2373 23.1137 29.9407 22.8275 29.6757 22.6061C29.4223 22.397 29.1455 22.2601 28.8666 22.1968C28.5151 22.1218 28.2193 22.0883 28.0187 22.1137C27.7631 22.1487 27.4058 22.266 27.1774 22.3839C26.7827 22.5944 25.9107 23.3467 25.5167 23.7874C25.2114 24.1311 24.5451 25.0335 24.2295 25.552C23.9322 26.0421 23.449 27.0625 23.2952 27.514C23.2081 27.774 23.088 28.2722 23.0807 28.4972C23.0792 28.5708 23.0946 28.8468 23.1048 28.8817C23.1407 28.9866 23.2718 29.1141 23.3677 29.1214C23.4651 29.125 23.6218 29.0726 23.7433 29.0019C24.0325 28.8279 24.3254 28.5977 24.5429 28.3843C24.89 28.0398 25.6244 27.128 25.9268 26.6961C26.2145 26.2759 26.6707 25.5622 27.0097 24.9592C27.2945 24.4253 27.7031 23.5172 27.8276 23.1261C27.9938 22.5973 28.045 22.0577 28.0114 21.9557C27.9616 21.8246 27.8422 21.7066 27.7273 21.7168C27.5274 21.7394 27.0771 22.0424 26.9489 22.1494C26.6194 22.4276 26.0527 23.0277 25.6024 23.5594C25.0759 24.2061 23.9366 25.8098 23.2008 26.943C22.4898 28.1156 21.5247 29.8955 21.1557 30.7141C20.8592 31.4075 20.5582 32.2632 20.4726 32.7126C20.4308 32.9434 20.4301 33.3586 20.4916 33.5632C20.5245 33.6637 20.6563 33.8057 20.7757 33.8727C20.8643 33.9201 21.2487 33.8713 21.4361 33.7853C21.8205 33.6062 22.3097 33.2136 22.8376 32.7045C23.2498 32.2967 23.807 31.6391 24.2354 31.0805C24.5466 30.6559 25.1396 29.7834 25.4142 29.3479C25.6507 28.9611 26.287 27.7361 26.3851 27.4929C26.4327 27.3735 26.5836 26.7879 26.5257 26.6168C26.4876 26.5141 26.2995 26.4755 26.1435 26.5119C25.877 26.584 25.0635 27.2671 24.7032 27.6611C24.4023 27.9918 23.7499 28.8337 23.4592 29.2546C23.1693 29.6865 22.6187 30.602 22.3697 31.0695C22.1288 31.5356 21.7202 32.4409 21.557 32.8619C21.3666 33.3768 21.1374 34.2434 21.1235 34.5784C21.1154 34.8479 21.2084 35.2558 21.286 35.338C21.3856 35.4378 21.5526 35.5296 21.6448 35.5332C21.8103 35.534 22.2079 35.4014 22.3265 35.3293C22.6062 35.156 23.4651 34.3468 23.8253 33.8917C24.1424 33.4882 24.6549 32.7177 25.0247 32.1052C25.3798 31.4796 25.7056 30.8336 26.0373 30.1133C26.2585 29.6282 26.5491 28.6451 26.4979 28.4164C26.4583 28.2576 26.3222 28.1462 26.1684 28.1454C25.9312 28.1513 25.1213 28.7099 24.7552 29.0463C24.4484 29.3289 23.7902 30.0536 23.49 30.4265C23.189 30.8095 22.6047 31.6391 22.3324 32.0709C22.0256 32.5756 21.5621 33.427 21.3959 33.7657C21.1586 34.2675 20.8218 35.1319 20.7449 35.4881C20.6842 35.7772 20.6703 36.1923 20.7113 36.3649C20.7222 36.4065 20.7969 36.598 20.8313 36.6446C20.9236 36.7633 21.1213 36.9148 21.2568 36.9556C21.4749 37.0182 21.852 36.9789 22.0073 36.9272C22.2247 36.8514 22.459 36.716 22.6509 36.5521C23.099 36.1639 23.5727 35.5951 24.0223 34.9724C24.5854 34.1422 25.6778 32.3462 26.1918 31.449C26.6912 30.5357 27.6189 28.7004 28.0231 27.7726C28.2142 27.3159 28.5957 26.2461 28.6945 25.8717C28.7611 25.6125 28.8131 25.2891 28.8256 25.0131C28.8329 24.7851 28.7692 24.6555 28.7113 24.6052C28.5861 24.6111 28.3826 24.882 28.2164 25.1908C28.0311 25.5374 27.5464 26.7945 27.3846 27.2591C27.2176 27.7616 26.8991 28.7995 26.752 29.3275C26.5623 30.0543 26.4122 30.7513 26.287 31.508C26.1955 32.1183 26.1999 32.8568 26.2951 33.1677C26.328 33.2661 26.443 33.4438 26.5264 33.5086C26.689 33.6295 27.0383 33.529 27.263 33.4052C27.4768 33.2784 28.1483 32.4635 28.406 31.993C28.6411 31.5604 29.0064 30.7032 29.2283 30.1213C29.341 29.814 29.7503 28.4856 29.8558 28.0828C30.0425 27.3065 30.2424 26.2992 30.2687 25.9351C30.2812 25.7523 30.2541 25.2126 30.1889 25.1376C30.1736 25.1209 30.1406 25.1048 30.0908 25.0903C29.992 25.1383 29.9458 25.1755 29.8719 25.2811C29.5761 25.7057 29.1302 26.7843 28.9178 27.3298C28.7099 27.8847 28.3028 28.9961 28.1043 29.551C27.6987 30.8132 27.4278 31.9872 27.378 32.6077C27.3626 32.8269 27.4029 33.2253 27.5091 33.4241C27.5662 33.5246 27.7492 33.6375 27.8503 33.6389C27.9579 33.636 28.1124 33.5749 28.2186 33.5006C28.4683 33.3178 28.6938 33.0862 28.8409 32.8772C29.0738 32.54 29.497 31.6332 29.6603 31.1584C29.8389 30.634 30.0608 29.8023 30.2182 29.1082C30.4826 27.8192 30.6349 26.2563 30.6268 25.796C30.6187 25.485 30.5565 25.1769 30.4818 25.0116C30.3661 25.0968 30.3171 25.1602 30.2936 25.2782C30.2153 25.6904 30.1384 26.7755 30.1069 27.2882C30.0901 27.6284 30.1201 29.0267 30.1399 29.6166C30.2138 31.0877 30.3947 32.076 30.4642 32.2639C30.4796 32.2108 31.02 28.27 31.1013 27.817C31.1554 27.5235 31.1994 27.3982 31.2689 27.2351L31.2162 31.0397L32.1805 27.0144C32.0736 27.471 31.8174 28.5642 31.6673 29.1993C31.4374 30.1526 31.3048 30.6195 31.2602 30.7753" stroke="#66D9E8" stroke-width="16.8" stroke-linecap="round" stroke-linejoin="round"/>
<path d="M17.3585 24.3786L17.3672 24.3757C17.3636 24.3764 17.3921 24.2133 17.4148 24.0873C17.4214 24.0479 17.7509 22.3102 17.8974 21.8769C17.9508 21.724 18.158 21.394 18.4026 21.1981C18.5117 21.1115 19.8267 20.2819 20.2463 20.1319C20.6358 19.9972 20.9638 19.9061 21.2282 19.8683C21.5533 19.8231 22.0233 19.7903 22.3009 19.8224C22.3697 19.8311 23.044 19.9498 23.1187 19.9753C23.3501 20.0613 23.8663 20.2463 24.0413 20.3613C24.209 20.4735 24.2947 20.5383 24.4448 20.6621" stroke="#66D9E8" stroke-width="16.8" stroke-linecap="round" stroke-linejoin="round"/>
<path d="M26.0469 20.9232C26.0849 20.8554 26.112 20.8088 26.1267 20.7841C26.1552 20.7382 26.5462 20.1614 26.6619 20.0689C26.9131 19.8744 27.7083 19.5591 28.2054 19.476C28.4441 19.4382 28.8124 19.4163 29.0328 19.4374C29.3045 19.4658 29.6501 19.5795 29.9818 19.7513C30.4504 19.9975 31.1599 20.5248 31.463 20.8445C31.6146 21.0062 31.9324 21.4235 32.0393 21.6289C32.1235 21.7956 32.5701 23.1233 32.6433 23.5355C32.7539 24.1662 32.8732 25.1902 32.863 25.4131C32.8513 25.6235 32.74 26.0685 32.636 26.4232C32.5913 26.5761 32.5562 26.6759 32.4764 26.8813" stroke="#66D9E8" stroke-width="16.8" stroke-linecap="round" stroke-linejoin="round"/>
<path d="M17.7553 25.3232C17.77 25.3057 17.7744 25.294 17.7692 25.286C17.748 25.2598 17.7172 25.2525 17.6784 25.2642C17.513 25.3188 16.7273 26.302 16.4352 26.7754C16.1672 27.2116 15.8106 28.0222 15.6268 28.6056C15.5353 28.9013 15.4452 29.2945 15.435 29.5196C15.413 30.0789 15.484 30.9215 15.6268 31.4641C15.7549 31.9462 16.1921 33.1435 16.422 33.5528C16.523 33.7313 17.3233 34.9956 17.5115 35.1864C17.8139 35.4886 19.3157 36.6313 19.3237 36.7129C19.104 36.5461 18.5205 35.7661 18.0907 35.1027C17.7341 34.5331 17.3175 33.7451 17.1476 33.2368C17.0033 32.8005 16.8027 31.7146 16.7756 31.207C16.7544 30.7788 16.843 29.8801 16.9543 29.3863C17.0656 28.8998 17.3892 28.1977 17.685 27.7855C17.8578 27.5466 18.1295 27.2342 18.3294 27.0456C18.6559 26.7411 19.1882 26.46 19.7513 26.1993C19.7103 26.176 19.5749 26.2044 19.5119 26.2605C19.506 26.2656 19.4782 26.4302 19.4226 26.5125C19.3164 26.6712 18.8566 26.9553 18.7328 27.0463C18.5476 27.1854 18.2708 27.5801 18.2195 27.7229C18.2049 27.7637 18.1793 27.8547 18.1427 27.996" stroke="#66D9E8" stroke-width="16.8" stroke-linecap="round" stroke-linejoin="round"/>
<path d="M18.27 25.5367C18.2627 25.5615 18.2525 25.5782 18.2393 25.5884C18.1844 25.6234 18.139 25.6278 18.1009 25.6016C18.0013 25.5295 17.8607 25.0721 17.841 24.9213C17.8336 24.8339 17.8893 24.63 17.9596 24.5382C18.0343 24.4421 18.1822 24.3715 18.2173 24.386C18.27 24.4552 18.2202 24.7422 18.1038 24.9337C17.9786 25.1325 17.8402 25.2039 17.7597 25.2199C17.6909 25.1864 17.6447 25.1311 17.6103 25.0211C17.5532 24.8288 17.551 24.4268 17.6184 24.3234L17.7018 24.3125C17.7677 24.3613 17.827 24.4407 17.8424 24.5244C17.8571 24.6118 17.8205 24.7975 17.7707 24.8856C17.7194 24.9701 17.5781 25.0852 17.4954 25.1092C17.4163 25.1304 17.2779 25.0947 17.2266 25.0422C17.1768 24.9861 17.1454 24.839 17.1673 24.7618C17.193 24.6861 17.3079 24.5659 17.3877 24.5317C17.4683 24.4997 17.6198 24.5018 17.6762 24.5361C17.7304 24.5732 17.7736 24.6999 17.7582 24.78C17.7253 24.9286 17.5041 25.252 17.3409 25.3976C17.234 25.496 17.2017 25.5353 17.2105 25.5957C17.2632 25.9322 17.2764 26.1937 17.2757 26.4019C17.4529 26.0662 17.7809 24.6795 17.8117 24.5506C17.8615 24.3511 17.9186 24.1559 17.9625 24.0619C18.0533 23.877 18.4289 23.6811 18.8148 23.5478C19.2182 23.4189 19.2658 23.4079 19.3193 23.405C19.0432 23.4742 18.3725 23.7546 18.2774 23.8107C18.087 23.925 17.838 24.311 17.7692 24.4392C17.6067 24.7524 17.4866 25.1799 17.4946 25.4858C17.499 25.6074 17.5664 26.1361 17.6001 26.4726C17.5254 26.1004 17.0677 25.4071 17.0641 25.386C17.0516 25.2949 17.3189 24.3642 17.3453 24.3234C17.4141 24.22 17.6235 24.0175 17.7245 23.9593C17.7853 23.925 18.229 23.8995 18.456 23.8049C18.5351 23.7714 18.6295 23.732 18.6259 23.7335C18.4399 23.7247 18.3257 23.7342 18.2246 23.7772C18.0387 23.858 17.6725 24.1668 17.5378 24.3576C17.4016 24.555 17.2017 25.0328 17.1432 25.2753C17.0319 25.745 16.9931 26.895 17.0531 27.4558C17.0882 27.7748 17.1483 28.0501 17.1607 28.104" stroke="#66D9E8" stroke-width="16.8" stroke-linecap="round" stroke-linejoin="round"/>
<path d="M24.0083 21.0023C23.9329 20.9127 23.8977 20.8224 23.8904 20.6687C23.8809 20.4138 23.9548 20.0795 24.028 19.8946C24.0734 19.7839 24.143 19.6608 24.258 19.4882C24.3546 19.3491 24.4571 19.2573 24.5604 19.2376C24.6402 19.2245 25.4866 19.1976 25.6016 19.1976C25.9084 19.199 26.4458 19.2806 26.5278 19.336C26.5988 19.384 26.7284 19.5122 26.806 19.5239C26.91 19.5384 27.0257 19.6061 27.0967 19.6863C26.9818 19.6207 26.6706 19.3746 26.3184 19.0774C26.0043 18.8174 25.6023 18.5916 25.3987 18.596C25.2018 18.6047 24.8152 18.7723 24.6328 18.9026C24.523 18.9827 24.1049 19.3695 23.9739 19.5282C23.8333 19.703 23.7557 19.9972 23.7169 20.29C23.6707 20.6512 23.6502 20.9535 23.651 21.1975C23.67 20.861 23.7 20.5478 23.7637 20.3425C23.8128 20.1851 23.9892 19.7817 24.0756 19.6477C24.2008 19.4576 24.4608 19.1852 24.6372 19.073C24.8181 18.9609 25.1425 18.8531 25.428 18.7956C25.6411 18.7548 26.0768 18.7599 26.4055 18.8007C26.7065 18.8407 27.1904 19.0002 27.4636 19.1247C27.6949 19.2318 28.1489 19.4918 28.3407 19.6389C28.5414 19.7948 28.8064 20.0562 28.9412 20.2296C29.062 20.3861 29.5174 21.0249 29.5935 21.0984" stroke="#66D9E8" stroke-width="16.8" stroke-linecap="round" stroke-linejoin="round"/>
<path d="M14.6969 30.5422L14.6339 30.5283C14.5812 30.3965 14.5431 30.0258 14.5607 29.8044C14.5768 29.6151 14.694 28.9793 14.7438 28.7899C14.8075 28.5547 14.959 28.24 15.1179 28.0347C15.2072 27.9232 15.3163 27.8409 15.3896 27.8351C15.4591 27.8329 15.5448 27.905 15.596 28.0026C15.6956 28.2109 15.7008 28.7127 15.6488 28.9523C15.5895 29.2087 15.394 29.6908 15.2446 29.8627C15.1831 29.9311 14.9371 30.1234 14.8734 30.1503C14.7796 30.1868 14.5819 30.1744 14.4933 30.1249C14.3315 30.0287 14.1309 29.6194 14.0789 29.4228C14.035 29.2451 13.9947 28.8467 14.0006 28.6355C14.0072 28.4214 14.0745 27.9997 14.1324 27.806C14.1909 27.6137 14.3535 27.2816 14.4516 27.1527C14.568 27.0056 14.9129 26.7653 15.1311 26.7602C15.2431 26.7609 15.4496 26.833 15.5397 26.9014C15.6305 26.9743 15.7403 27.1287 15.7981 27.2598C15.8633 27.4142 15.9094 27.6042 15.9102 27.7331C15.9087 27.9327 15.7381 28.3194 15.6327 28.3617C15.5719 28.3821 15.435 28.342 15.3757 28.2801C15.2651 28.1599 15.1304 27.8045 15.0945 27.6589C15.0022 27.2714 15.0022 26.3159 15.1113 25.8491C15.1684 25.6146 15.3325 25.198 15.4364 25.0254C15.5236 24.8826 15.8208 24.5593 16.0354 24.4777C16.1518 24.4362 16.392 24.4617 16.4923 24.5214C16.6695 24.6343 16.8357 25.0348 16.8613 25.2227C16.9001 25.5381 16.7603 26.2431 16.6233 26.4841C16.5413 26.6247 16.3963 26.7995 16.3026 26.8585C16.2111 26.9116 16.0295 26.9255 15.9438 26.8832C15.7872 26.8002 15.5953 26.3829 15.5492 26.1753C15.5096 25.986 15.484 25.5556 15.4994 25.3189C15.5155 25.0749 15.6041 24.5979 15.6759 24.3619C15.7476 24.131 15.9299 23.729 16.0383 23.5622C16.162 23.3772 16.5106 23.0437 16.6929 23.0182C16.7881 23.0087 16.9506 23.0896 17.0055 23.1748C17.0956 23.3248 17.1168 23.8521 17.1029 23.9803C17.0788 24.1893 16.936 24.6401 16.8342 24.8265C16.7002 25.0661 16.4593 25.3305 16.2902 25.34C16.2023 25.3414 16.0368 25.2453 15.9717 25.1521C15.8604 24.9831 15.7513 24.5665 15.733 24.4056C15.7117 24.2097 15.7242 23.78 15.7579 23.5615C15.793 23.3401 15.9182 22.9199 16.0046 22.7312C16.091 22.5455 16.2814 22.2637 16.4139 22.1275C16.4827 22.0612 16.6658 21.9403 16.7668 21.9025C16.8752 21.8653 17.0854 21.8923 17.1725 21.9498C17.2611 22.0146 17.3629 22.1799 17.4075 22.3249C17.4888 22.6089 17.4764 23.0196 17.4441 23.1842C17.3775 23.5025 17.1688 23.8448 17.0531 23.8849C16.9946 23.9016 16.8598 23.839 16.8049 23.7669C16.7097 23.6358 16.5618 23.0939 16.5369 22.9221C16.4827 22.5361 16.5567 21.5106 16.6753 21.1348C16.75 20.904 17.0019 20.3985 17.1044 20.2725C17.1351 20.2376 17.3475 20.0832 17.4112 20.0533C17.5093 20.0104 17.7194 20.0227 17.8095 20.0723C17.901 20.1283 18.0189 20.2856 18.0768 20.4255C18.1859 20.703 18.2159 21.1399 18.1983 21.3147C18.161 21.6505 17.9852 22.1042 17.8827 22.2142C17.8307 22.2651 17.7151 22.2921 17.6631 22.2637C17.565 22.2018 17.4141 21.7197 17.4002 21.5114C17.3856 21.2601 17.4207 20.7947 17.4734 20.5609C17.5298 20.3191 17.7714 19.8312 17.8417 19.7445C17.9333 19.6353 18.139 19.4831 18.254 19.4459C18.3609 19.4139 18.5673 19.4277 18.6596 19.4714C18.7533 19.5188 18.8727 19.6462 18.94 19.7642C19.0162 19.9062 19.074 20.0861 19.085 20.2252C19.0989 20.459 18.9898 20.8697 18.8741 21.0103C18.8156 21.0766 18.7321 21.1181 18.6764 21.105C18.5659 21.0715 18.4202 20.7051 18.3887 20.384C18.3733 20.2121 18.4326 19.6804 18.5007 19.4314C18.5805 19.1502 18.7746 18.7803 18.962 18.5465C19.0967 18.3812 19.3501 18.1984 19.5668 18.1539C19.6759 18.1335 19.8912 18.1831 19.9805 18.245C20.0713 18.3127 20.1745 18.4686 20.2258 18.6091C20.2829 18.7781 20.3166 18.99 20.3085 19.1539C20.2917 19.4277 20.1306 19.9171 19.9929 20.1021C19.9241 20.191 19.8311 20.2602 19.7718 20.2645C19.7169 20.2653 19.6173 20.1859 19.5829 20.1138C19.5185 19.9674 19.4826 19.5239 19.517 19.2631C19.5478 19.0476 19.7001 18.5516 19.7843 18.411C19.8516 18.3032 20.0735 18.0214 20.1474 17.9639C20.2419 17.8925 20.466 17.8226 20.5685 17.8313C20.6695 17.8444 20.8584 17.9551 20.9316 18.0432C21.0532 18.1984 21.2055 18.6433 21.2282 18.9048C21.2436 19.1262 21.1923 19.5879 21.1169 19.7846C21.0803 19.8785 21.0415 19.9237 20.9887 19.9499C20.9126 19.9222 20.8094 19.5952 20.7903 19.3454C20.772 19.0774 20.805 18.529 20.846 18.3382C20.887 18.1525 21.0664 17.674 21.1484 17.5436C21.174 17.5058 21.3614 17.3251 21.4244 17.2829C21.5203 17.2203 21.7546 17.1693 21.8637 17.1839C21.9721 17.2021 22.1683 17.312 22.254 17.4016C22.3433 17.4985 22.4422 17.6842 22.4934 17.8466C22.5886 18.1634 22.5747 18.6718 22.5081 18.9529C22.4744 19.092 22.4019 19.2085 22.2591 19.3753C22.1918 19.3797 22.1281 19.3527 22.0915 19.2842C22.0256 19.1597 21.9582 18.7577 21.9648 18.5144C21.9728 18.3083 22.0695 17.8342 22.1325 17.682C22.1932 17.5385 22.3433 17.2895 22.4268 17.2057C22.5066 17.1278 22.7219 17.0149 22.8134 17.0011C22.902 16.9916 23.1121 17.0477 23.1883 17.1008C23.263 17.1569 23.4153 17.3586 23.4636 17.4657C23.5595 17.6856 23.6152 18.1525 23.6027 18.4154C23.5895 18.6397 23.4819 19.0993 23.3816 19.2791C23.3318 19.3673 23.2842 19.4051 23.2227 19.4204C23.1414 19.3738 23.0514 19.0315 23.0609 18.7846C23.0719 18.5283 23.178 18.0163 23.2278 17.8757C23.2828 17.7257 23.4167 17.4562 23.49 17.3601C23.5632 17.2683 23.7623 17.1154 23.8495 17.0841C23.9359 17.0571 24.146 17.0724 24.228 17.1103C24.4023 17.1984 24.6754 17.6201 24.7428 17.8918C24.8006 18.1394 24.7765 18.7082 24.7113 18.8283C24.693 18.8618 24.6432 18.9332 24.5619 19.0417C24.4272 19.0075 24.3584 18.9616 24.3254 18.8611C24.2646 18.6696 24.2485 18.1911 24.31 17.9296C24.3466 17.7825 24.4367 17.5648 24.5085 17.4548C24.5831 17.3441 24.7311 17.2093 24.8336 17.1584C24.9368 17.111 25.1147 17.0892 25.2238 17.1103C25.3315 17.1343 25.4984 17.2268 25.5914 17.3128C25.7554 17.4715 25.9736 17.9464 26.0183 18.2209C26.0542 18.4562 26.0337 18.8822 25.9297 19.1619L25.8323 19.1546C25.7803 18.9492 25.7605 18.8152 25.7708 18.6812C25.7928 18.4219 25.9421 17.918 26.0761 17.709C26.1545 17.591 26.3046 17.4395 26.4078 17.3739C26.5118 17.312 26.6904 17.2632 26.7988 17.2669C26.9064 17.2742 27.0705 17.3397 27.1605 17.4118C27.3201 17.5465 27.5237 17.9995 27.5544 18.2712C27.6079 18.7992 27.4007 19.1779 27.3531 19.2558L27.1898 19.2791C27.0888 19.0949 27.0419 18.9733 27.0331 18.8414C27.0185 18.5902 27.1027 18.0775 27.2118 17.8466C27.2762 17.7162 27.4087 17.5393 27.5061 17.4548C27.605 17.3739 27.7851 17.2873 27.9022 17.2647C28.0187 17.245 28.2083 17.2625 28.3203 17.3018C28.5202 17.3783 28.8219 17.7002 28.9083 17.9172C28.9874 18.1255 28.9962 18.5188 28.9456 18.6958C28.9178 18.7883 28.8563 18.8465 28.7355 18.9121C28.6169 18.7999 28.5576 18.7162 28.5349 18.6077C28.4946 18.4001 28.5268 17.942 28.6132 17.7184C28.6637 17.5924 28.7765 17.414 28.8614 17.3266C28.9486 17.2399 29.1133 17.1409 29.2239 17.1067C29.3344 17.0761 29.5182 17.0739 29.6281 17.1023C29.7364 17.1321 29.8982 17.2254 29.9854 17.3069C30.1399 17.4584 30.3324 17.91 30.3603 18.1707C30.3844 18.4212 30.3097 18.8815 30.2299 19.0862C30.1867 19.1925 30.1135 19.2733 29.9759 19.3818C29.8733 19.352 29.8082 19.2464 29.8031 19.0738C29.8001 18.9463 29.9341 18.5683 30.0374 18.4409C30.0601 18.4147 30.2329 18.2646 30.2878 18.2552C30.4306 18.2362 30.6202 18.2872 30.6912 18.3659C30.8223 18.5217 30.9695 18.9048 31.0083 19.1721C31.0419 19.4226 31.0317 19.9047 31.0002 20.1458C30.9585 20.4459 30.8962 20.593 30.8655 20.5893C30.864 20.424 31.0434 19.8924 31.0624 19.8589C31.1474 19.7103 31.2704 19.6236 31.3875 19.612C31.4886 19.7307 31.5428 19.8064 31.5545 19.872C31.6987 20.7146 31.4307 21.6315 31.4095 21.676C31.4117 21.4043 31.4674 21.046 31.6292 20.8501C31.7236 20.7423 31.9799 20.6294 32.0992 20.652C32.212 20.676 32.3914 20.8064 32.4456 20.8872C32.5488 21.0533 32.6535 21.4036 32.6674 21.617C32.6784 21.8231 32.6228 22.1828 32.562 22.3591C32.4859 22.563 32.3255 22.6752 32.234 22.6868C32.163 22.6315 32.1132 22.5382 32.1198 22.4268C32.1271 22.3227 32.2135 22.1035 32.2786 22.0314C32.3519 21.9563 32.5159 21.9272 32.5766 21.9891C32.6857 22.1071 32.7348 22.5936 32.7253 22.7014C32.7055 22.8988 32.5203 23.6045 32.469 23.7414C32.387 23.954 32.2135 24.1536 32.1388 24.2381" stroke="#66D9E8" stroke-width="16.8" stroke-linecap="round" stroke-linejoin="round"/>
<path d="M14.7233 30.7109L14.8968 30.448L14.169 31.7582C14.2796 31.4523 14.4018 31.1719 14.5336 30.9644C14.6881 30.7262 14.8712 30.5631 15.044 30.4764C15.1941 30.5441 15.2644 30.6053 15.282 30.708C15.3413 31.0838 15.1341 31.7269 15.044 31.8835C14.9949 31.9665 14.9312 32.0014 14.8192 32.0226C14.746 31.8791 14.7138 31.7815 14.7138 31.673C14.7152 31.4661 14.8126 31.059 14.9122 30.8959C14.9708 30.8034 15.0857 30.6949 15.1641 30.6577C15.2439 30.6235 15.3757 30.6221 15.4518 30.6563C15.5895 30.7233 15.7813 31.0634 15.8106 31.2892C15.8355 31.5091 15.752 31.8988 15.6634 32.0539C15.6151 32.1362 15.5258 32.1675 15.3523 32.1813C15.2109 32.0532 15.0769 31.8237 15.0293 31.5514C14.9832 31.2651 15.0447 30.8151 15.1319 30.6628C15.1773 30.5893 15.3098 30.4953 15.3845 30.4844C15.4679 30.4764 15.6034 30.5267 15.7059 30.6017C15.826 30.6927 15.9549 30.8362 16.0295 30.9673C16.1599 31.2032 16.2792 31.7866 16.2448 32.0619C16.2236 32.209 16.1511 32.4275 16.0867 32.5404C16.0208 32.6496 15.8824 32.7924 15.7835 32.8535C15.6839 32.9111 15.5089 32.9584 15.3991 32.9562C15.29 32.9511 15.1245 32.8943 15.0352 32.831C14.9488 32.7654 14.8353 32.6176 14.7914 32.5134C14.7489 32.4042 14.7306 32.2134 14.7518 32.0968C14.7753 31.9832 14.8705 31.7997 14.9481 31.7196C15.0367 31.6329 15.1985 31.563 15.3544 31.539C15.4892 31.5222 15.6766 31.5506 15.7945 31.6089C15.9029 31.665 16.1028 31.8492 16.1723 31.957C16.2939 32.1529 16.3722 32.5193 16.3759 32.6474C16.3788 32.7975 16.3327 33.08 16.28 33.249C16.2163 33.4405 15.9505 33.8608 15.7542 33.997C15.6649 34.056 15.4972 34.1084 15.4255 34.0989C15.3552 34.0865 15.2417 33.9926 15.208 33.9198C15.1421 33.7625 15.2234 33.3211 15.3632 33.0939C15.4599 32.9424 15.5975 32.7887 15.7059 32.7144C15.8106 32.6474 16.0025 32.5884 16.1108 32.5884C16.2206 32.5921 16.3825 32.6562 16.4652 32.7283C16.5443 32.8004 16.6453 32.9657 16.6849 33.0844C16.7522 33.3036 16.709 33.8105 16.616 34.0377C16.5677 34.1499 16.4696 34.3116 16.392 34.4077C16.3166 34.4988 16.2045 34.5534 16.0017 34.6146C15.8604 34.517 15.7996 34.4456 15.8004 34.3546C15.8055 34.1841 15.9644 33.8302 16.1137 33.6838C16.1987 33.603 16.3554 33.5083 16.4579 33.477C16.5611 33.4478 16.7259 33.45 16.8181 33.4821C16.9097 33.517 17.0407 33.6233 17.1052 33.7137C17.2194 33.8841 17.3094 34.3691 17.2772 34.6371C17.2435 34.8964 17.0671 35.3356 16.9367 35.5147C16.8665 35.6094 16.7727 35.6655 16.6102 35.7245C16.5194 35.6167 16.4872 35.5388 16.5091 35.4412C16.5516 35.2598 16.7537 34.9081 16.9053 34.7762C16.9917 34.7034 17.1432 34.6277 17.2377 34.6095C17.3336 34.5942 17.4822 34.6211 17.565 34.6684C17.7129 34.7595 17.9172 35.1338 17.9611 35.3851C18.0006 35.6283 17.9582 36.1097 17.8967 36.3457C17.8645 36.4651 17.8095 36.5751 17.7092 36.739L17.625 36.7179C17.6345 36.4549 17.7597 36.0952 17.8491 35.932C17.9589 35.7368 18.2459 35.4841 18.3982 35.4565C18.4817 35.4448 18.6098 35.4739 18.6809 35.522C18.809 35.6138 18.9796 35.9699 19.0074 36.2022C19.0309 36.4207 18.9818 36.8395 18.9269 37.0383C18.8654 37.2481 18.7614 37.4039 18.7307 37.4134C18.7482 37.3507 18.8112 37.2466 18.8903 37.1774C18.9994 37.0827 19.159 37.058 19.3259 37.0995C19.438 37.1315 19.6203 37.3893 19.8495 37.8147C19.9688 38.039 20.0999 38.3529 20.239 38.5539C20.2785 38.6092 20.3181 38.6646 20.3576 38.7207" stroke="#66D9E8" stroke-width="16.8" stroke-linecap="round" stroke-linejoin="round"/>
<path d="M30.588 17.6013C30.5836 17.6035 30.6341 17.5554 30.6919 17.5212C30.7007 17.5161 30.957 17.4068 30.9907 17.4039C31.1291 17.3959 31.2543 17.5263 31.5289 17.7979C31.7258 17.9967 32.0927 18.4315 32.204 18.5939C32.4632 18.9792 32.8571 19.9398 33.0313 20.4904C33.1309 20.8152 33.5124 22.2587 33.672 22.8726C33.8727 23.6825 33.9627 24.3074 33.9744 24.8281C33.9766 25.0539 33.9774 25.7414 33.9788 25.8149C33.9832 26.0524 34.0264 26.3692 34.126 26.6357C34.1604 26.7282 34.4108 27.3065 34.517 27.5461C34.5529 27.6277 34.6239 27.7923 34.6583 27.8753" stroke="#66D9E8" stroke-width="16.8" stroke-linecap="round" stroke-linejoin="round"/>
<path d="M33.4136 23.6888C33.5029 23.6335 33.5622 23.6022 33.5922 23.5934C33.6633 23.5752 34.2637 23.742 34.4079 23.8352C34.5705 23.9445 34.9907 24.4302 35.1335 24.6662C35.329 24.9925 35.6585 25.8919 35.8101 26.4986C36.0254 27.3762 35.898 29.1561 35.8921 30.4983C35.895 30.7146 35.9009 30.9309 35.906 31.0264" stroke="#66D9E8" stroke-width="16.8" stroke-linecap="round" stroke-linejoin="round"/>
<path d="M29.7075 20.3463C29.7286 20.3376 29.7397 20.3285 29.7409 20.319C29.7409 20.3112 29.6771 20.1455 29.6689 20.1312C29.6331 20.0762 29.5377 20.0009 29.4417 19.9529C29.3217 19.8957 29.1771 19.8551 29.0331 19.8382C28.2591 19.7659 28.0232 19.7542 27.3282 19.749C27.1128 19.7495 26.6872 19.7971 26.5683 19.801C26.3523 19.8066 25.2183 19.7949 24.7124 19.839C24.0825 19.8979 23.3964 19.9347 23.2787 19.9356C22.8607 19.9347 22.1652 20.0234 21.6939 20.126C21.2355 20.2286 19.9088 20.7527 19.5962 20.8791C19.427 20.9496 18.663 21.5321 18.5149 21.6382C18.1981 21.8585 17.8147 22.2363 17.6227 22.473C17.4698 22.6626 17.1666 23.2201 17.0682 23.4819C16.9582 23.7965 16.7439 24.4276 16.6397 24.7439C16.5167 25.1464 16.4114 25.6268 16.3827 25.9281C16.3616 26.2405 16.3159 27.0075 16.3171 27.1399C16.3212 27.3922 16.4283 27.9064 16.5606 28.0912C16.5788 28.1163 16.7334 28.3262 16.7568 28.4448C16.7966 28.6512 16.8112 29.3069 16.9178 29.6125C16.974 29.7709 17.1004 30.0695 17.1841 30.2387C17.2971 30.459 17.416 30.6352 17.5536 30.7594C17.7725 30.9546 18.5488 31.493 18.8433 31.7388C19.0658 31.9279 19.5435 32.3733 19.9036 32.5767C20.1383 32.7074 20.8965 32.9368 21.2846 33.051C21.5797 33.1324 23.0656 33.467 23.589 33.6236C23.7699 33.6751 24.0702 33.7119 24.2599 33.7076C24.3764 33.7041 24.9302 33.6595 25.1492 33.6483C25.1831 33.6461 25.2341 33.6444 25.3008 33.6418" stroke="#66D9E8" stroke-width="16.8" stroke-linecap="round" stroke-linejoin="round"/>
<path d="M19.4463 42.635C19.4367 42.5614 19.4339 42.4714 19.4339 42.1768C19.4312 39.9541 19.449 35.4391 19.4723 33.1482C19.497 32.4282 19.7547 30.6064 19.8809 29.7391C20.0975 28.3741 20.4224 26.8427 20.6431 25.9059C20.8145 25.2268 21.4164 23.15 21.7385 22.3577C22.1224 21.4209 22.9134 19.9086 23.4399 19.3795C23.6949 19.13 24.438 18.7291 24.8808 18.7605C25.1454 18.7836 25.4347 18.8818 25.5676 18.9882C25.8089 19.1927 26.2997 19.8609 26.4272 20.1405C26.6219 20.5686 27.3143 22.8432 27.5418 23.8645C27.8393 25.295 28.7565 30.7495 29.0883 32.3518C29.1925 32.8059 29.4132 33.7632 29.5654 34.1845C29.6435 34.3986 30.1576 35.3355 30.4551 35.51C30.5717 35.5741 31.0885 35.6109 31.2147 35.5714C31.5533 35.4555 32.1497 34.7818 32.2895 34.5527C32.8502 33.6282 34.5667 29.0355 35.2686 27.1414C36.1529 24.74 37.7542 20.4186 38.4698 18.5C39.6996 15.3064 40.8964 12.5941 41.8013 10.715C42.3373 9.65273 43.3244 7.71773 43.7741 6.84636C44.0291 6.35545 44.7639 5.10909 44.8284 5" stroke="#343A40" stroke-width="3" stroke-linecap="round" stroke-linejoin="round"/>
</svg>
