<svg width="25" height="26" viewBox="0 0 25 26" fill="none" xmlns="http://www.w3.org/2000/svg">
<path d="M6.94 18.04L10.84 14.38C11.56 13.7 12.1267 13.1267 12.54 12.66C12.9667 12.1933 13.2733 11.7667 13.46 11.38C13.6467 10.98 13.74 10.56 13.74 10.12C13.74 9.54667 13.58 9.08 13.26 8.72C12.94 8.34667 12.4133 8.16 11.68 8.16C11.24 8.16 10.86 8.26667 10.54 8.48C10.22 8.68 9.97333 8.97333 9.8 9.36C9.62667 9.74667 9.53333 10.2067 9.52 10.74H6.92C6.94667 9.62 7.18 8.7 7.62 7.98C8.06 7.26 8.64 6.72667 9.36 6.38C10.08 6.03333 10.88 5.86 11.76 5.86C12.7867 5.86 13.6533 6.04667 14.36 6.42C15.0667 6.78 15.5933 7.27333 15.94 7.9C16.3 8.52667 16.48 9.24667 16.48 10.06C16.48 10.66 16.3733 11.24 16.16 11.8C15.96 12.3467 15.6067 12.9267 15.1 13.54C14.6067 14.14 13.9267 14.84 13.06 15.64L10.74 17.74H16.8V20H6.94V18.04Z" fill="#343A40"/>
<circle cx="12.5" cy="13.5" r="11.5" stroke="#343A40" stroke-width="2"/>
</svg>
