<svg width="32" height="32" viewBox="0 0 32 32" fill="none" xmlns="http://www.w3.org/2000/svg">
<g clip-path="url(#clip0_300_6)">
<path d="M24 15.2615C24.2462 15.6308 24.4923 16 24.6154 16.6154H20.6769C20.6769 16.4923 20.6769 16.2462 20.8 16C20.9231 15.7538 20.9231 15.6308 21.1692 15.3846C21.2923 15.1385 21.5385 15.0154 21.7846 14.8923C22.0308 14.7692 22.4 14.6462 22.7692 14.6462C23.2615 14.7692 23.7538 14.8923 24 15.2615ZM12.6769 14.4C12.9231 14.1538 13.1692 13.7846 13.1692 13.2923C13.1692 13.0462 13.1692 12.8 13.0462 12.5538C12.9231 12.4308 12.8 12.1846 12.6769 12.1846C12.5538 12.0615 12.3077 12.0615 12.0615 11.9385H8.86154V14.7692H11.5692C11.9385 14.7692 12.3077 14.6462 12.6769 14.4ZM11.6923 16.4923H8.86154V19.8154H11.6923C11.9385 19.8154 12.1846 19.8154 12.4308 19.6923C12.6769 19.6923 12.9231 19.5692 13.0462 19.4462C13.1692 19.3231 13.4154 19.2 13.5385 18.9538C13.6615 18.7077 13.6615 18.4615 13.6615 18.2154C13.6615 17.6 13.5385 17.1077 13.1692 16.8615C12.8 16.6154 12.3077 16.4923 11.6923 16.4923ZM32 6.03077V25.9692C32 29.2923 29.2923 32 25.9692 32H6.03077C2.70769 32 0 29.2923 0 25.9692V6.03077C0 2.70769 2.70769 0 6.03077 0H25.9692C29.2923 0 32 2.70769 32 6.03077ZM20.1846 11.8154H25.1077V10.5846H20.1846V11.8154ZM16.2462 18.4615C16.2462 17.7231 16.1231 17.1077 15.7538 16.4923C15.3846 16 14.8923 15.6308 14.1538 15.3846C14.6462 15.1385 15.1385 14.7692 15.3846 14.4C15.6308 14.0308 15.7538 13.5385 15.7538 12.9231C15.7538 12.3077 15.6308 11.9385 15.5077 11.4462C15.2615 11.0769 15.0154 10.7077 14.7692 10.5846C14.4 10.3385 14.0308 10.2154 13.5385 10.0923C12.9231 9.84615 12.4308 9.84615 11.8154 9.84615H6.15385V21.9077H12.0615C12.5538 21.9077 13.1692 21.7846 13.6615 21.6615C14.1538 21.5385 14.6462 21.2923 15.0154 21.0462C15.3846 20.8 15.7538 20.4308 16 19.9385C16.1231 19.5692 16.2462 19.0769 16.2462 18.4615ZM20.6769 18.0923H26.9538C26.9538 17.3538 26.9538 16.7385 26.8308 16.1231C26.7077 15.5077 26.4615 14.8923 26.0923 14.5231C25.7231 14.0308 25.2308 13.6615 24.7385 13.4154C24.1231 13.1692 23.5077 12.9231 22.7692 12.9231C22.1538 12.9231 21.5385 13.0462 20.9231 13.2923C20.4308 13.5385 19.9385 13.9077 19.4462 14.2769C19.0769 14.6462 18.7077 15.1385 18.5846 15.7538C18.3385 16.3692 18.2154 16.9846 18.2154 17.6C18.2154 18.2154 18.3385 18.9538 18.5846 19.4462C18.8308 20.0615 19.0769 20.5538 19.4462 20.9231C19.8154 21.2923 20.3077 21.6615 20.8 21.9077C21.4154 22.1538 22.0308 22.2769 22.6462 22.2769C23.6308 22.2769 24.4923 22.0308 25.2308 21.5385C25.9692 21.0462 26.4615 20.3077 26.8308 19.3231H24.7385C24.6154 19.5692 24.4923 19.8154 24.1231 20.0615C23.7538 20.3077 23.3846 20.4308 22.8923 20.4308C22.2769 20.4308 21.6615 20.3077 21.2923 19.9385C20.9231 19.4462 20.6769 18.8308 20.6769 18.0923Z" fill="#E3FAFC"/>
</g>
<defs>
<clipPath id="clip0_300_6">
<rect width="32" height="32" fill="white"/>
</clipPath>
</defs>
</svg>
