<svg width="32" height="32" viewBox="0 0 32 32" fill="none" xmlns="http://www.w3.org/2000/svg">
<g clip-path="url(#clip0_29_543)">
<path d="M26.6875 0H5.3125C2.37849 0 0 2.37849 0 5.3125V25.8875C0 28.8215 2.37849 31.2 5.3125 31.2H26.6875C29.6215 31.2 32 28.8215 32 25.8875V5.3125C32 2.37849 29.6215 0 26.6875 0Z" fill="#470137"/>
<path d="M16.8223 8.20498L12.8294 14.7954L17.1012 21.7935C17.1287 21.8425 17.1364 21.9 17.1227 21.9545C17.1161 21.9777 17.1019 21.9835 17.08 21.9844L17.0557 21.984L17.0263 21.9832C17.0103 21.9832 16.9924 21.984 16.9725 21.9872H13.8925L13.832 21.9862C13.666 21.9819 13.5464 21.9581 13.4735 21.8364C13.1885 21.2812 12.9023 20.7266 12.6147 20.1727C12.3576 19.6787 12.0934 19.1884 11.8223 18.7019L11.7025 18.4876C11.3782 17.9113 11.0598 17.3317 10.7472 16.7489H10.7257C10.4371 17.3256 10.1401 17.898 9.83488 18.4661C9.527 19.0386 9.22287 19.6076 8.9225 20.1727C8.62195 20.7383 8.31426 21.3001 7.9995 21.8579C7.94887 21.9716 7.86475 21.9954 7.74762 21.9992L7.69887 22H4.758L4.74525 22.0004L4.70325 22.0041C4.67987 22.0055 4.66587 22.0005 4.66137 21.9652C4.65331 21.9129 4.66479 21.8594 4.69362 21.815L8.83663 15.01L4.80088 8.18373C4.758 8.12673 4.75087 8.08023 4.77937 8.04423C4.79522 8.02589 4.81511 8.01149 4.83747 8.00216C4.85984 7.99283 4.88407 7.98883 4.90825 7.99048H7.935C8.00101 7.98687 8.067 7.99788 8.12825 8.02273C8.1795 8.05186 8.22362 8.09223 8.257 8.14086C8.51463 8.71336 8.80088 9.28586 9.11575 9.85811C9.42818 10.4267 9.74662 10.9921 10.071 11.554C10.3904 12.1072 10.6876 12.6729 10.9619 13.2499H10.9834C11.2645 12.6731 11.5543 12.1006 11.8527 11.5326C12.1459 10.9745 12.4465 10.4126 12.7542 9.84736C13.0581 9.28936 13.3551 8.72765 13.6451 8.16236C13.6616 8.10936 13.6911 8.06136 13.731 8.02273C13.784 7.99589 13.8436 7.9847 13.9028 7.99048H16.7149C16.7407 7.98404 16.768 7.98616 16.7925 7.99653C16.8171 8.00691 16.8376 8.02497 16.851 8.04801C16.8644 8.07104 16.8699 8.0978 16.8668 8.12426C16.8637 8.15072 16.852 8.17545 16.8336 8.19473L16.8224 8.20523M23.1311 22.2644L22.9831 22.266C21.995 22.281 21.016 22.0757 20.1173 21.665C19.28 21.2775 18.5801 20.6449 18.1101 19.851C17.6362 19.064 17.393 18.0832 17.3808 16.9091L17.3803 16.8135C17.3722 15.8282 17.624 14.8583 18.1103 14.0014C18.5969 13.1532 19.3063 12.4544 20.1618 11.9806L20.2354 11.9406C21.1654 11.4254 22.2889 11.1677 23.6056 11.1677L23.6631 11.1684L23.7289 11.1705L23.8026 11.1737L23.8846 11.1785L24.0224 11.1882L24.1784 11.2007L24.2925 11.2107V6.98148C24.2925 6.88148 24.3355 6.83123 24.4212 6.83123H27.1261C27.1436 6.82872 27.1615 6.83032 27.1782 6.8359C27.195 6.84149 27.2102 6.8509 27.2227 6.86339C27.2352 6.87589 27.2446 6.89112 27.2502 6.90789C27.2558 6.92465 27.2574 6.94249 27.2549 6.95998V19.6469C27.2549 19.8599 27.2631 20.0894 27.2796 20.3349L27.3196 20.8917L27.3409 21.2139C27.3435 21.2585 27.3326 21.3028 27.3096 21.3412C27.2866 21.3795 27.2526 21.41 27.212 21.4286C26.5142 21.7196 25.7874 21.9354 25.0439 22.0725C24.4127 22.189 23.7729 22.2531 23.1311 22.2641M24.2925 19.6039V13.7435C24.1765 13.7121 24.058 13.6905 23.9384 13.6791C23.7921 13.6644 23.6452 13.6572 23.4982 13.6576C22.9773 13.6525 22.4626 13.7701 21.9956 14.0011C21.5408 14.2272 21.1525 14.5674 20.8686 14.9886C20.5852 15.4031 20.4386 15.9444 20.429 16.6124L20.4285 16.6845C20.4181 17.1524 20.4945 17.6182 20.6539 18.0582C20.7836 18.4129 20.9888 18.7352 21.2551 19.0029C21.51 19.2491 21.8186 19.4328 22.1566 19.5395C22.5137 19.6551 22.8868 19.7131 23.2621 19.7114C23.4624 19.7114 23.6484 19.7041 23.8202 19.6897C23.9573 19.6794 24.0932 19.6568 24.2262 19.6222L24.2925 19.6039Z" fill="#FF61F6"/>
</g>
<defs>
<clipPath id="clip0_29_543">
<rect width="32" height="31.25" fill="white"/>
</clipPath>
</defs>
</svg>
