<svg width="24" height="24" viewBox="0 0 24 24" fill="none" xmlns="http://www.w3.org/2000/svg">
<g clip-path="url(#clip0_238_708)">
<mask id="mask0_238_708" style="mask-type:luminance" maskUnits="userSpaceOnUse" x="0" y="0" width="24" height="24">
<path d="M24 0H0V24H24V0Z" fill="white"/>
</mask>
<g mask="url(#mask0_238_708)">
<path d="M18.375 0H5.625C2.51839 0 0 2.51839 0 5.625V18.375C0 21.4816 2.51839 24 5.625 24H18.375C21.4816 24 24 21.4816 24 18.375V5.625C24 2.51839 21.4816 0 18.375 0Z" fill="#242938"/>
<mask id="mask1_238_708" style="mask-type:luminance" maskUnits="userSpaceOnUse" x="5" y="2" width="14" height="20">
<path d="M5.71875 2.625H18.2213V21.375H5.71875V2.625Z" fill="white"/>
</mask>
<g mask="url(#mask1_238_708)">
<path d="M8.84529 21.375C10.5703 21.375 11.9702 19.9751 11.9702 18.2501V15.125H8.84529C7.12028 15.125 5.72021 16.5251 5.72021 18.2501C5.72021 19.9751 7.12028 21.375 8.84529 21.375Z" fill="#0ACF83"/>
<path d="M5.72021 12C5.72021 10.275 7.12028 8.87505 8.84529 8.87505H11.9702V15.1249H8.84529C7.12028 15.1249 5.72021 13.725 5.72021 12Z" fill="#A259FF"/>
<path d="M5.72021 5.74997C5.72021 4.02497 7.12028 2.625 8.84529 2.625H11.9702V8.87505H8.84529C7.12028 8.87505 5.72021 7.47497 5.72021 5.74997Z" fill="#F24E1E"/>
<path d="M11.9702 2.625H15.0952C16.8202 2.625 18.2203 4.02497 18.2203 5.74997C18.2203 7.47497 16.8202 8.87505 15.0952 8.87505H11.9702V2.625Z" fill="#FF7262"/>
<path d="M18.2203 12C18.2203 13.725 16.8202 15.1249 15.0952 15.1249C13.3702 15.1249 11.9702 13.725 11.9702 12C11.9702 10.275 13.3702 8.87505 15.0952 8.87505C16.8202 8.87505 18.2203 10.275 18.2203 12Z" fill="#1ABCFE"/>
</g>
</g>
</g>
<defs>
<clipPath id="clip0_238_708">
<rect width="24" height="24" fill="white"/>
</clipPath>
</defs>
</svg>
