<svg width="54" height="78" viewBox="0 0 54 78" fill="none" xmlns="http://www.w3.org/2000/svg">
<path d="M52.9896 3.47163C52.8513 1.82056 51.4007 0.594247 49.7496 0.732582C48.0985 0.870918 46.8722 2.32152 47.0105 3.97259L52.9896 3.47163ZM39.5 35.7221L42.0044 37.3738L39.5 35.7221ZM0.115738 66.3968C-0.340092 67.9897 0.5817 69.6505 2.17462 70.1063L28.1327 77.5345C29.7256 77.9904 31.3865 77.0686 31.8423 75.4756C32.2981 73.8827 31.3763 72.2219 29.7834 71.7661L6.70955 65.1632L13.3124 42.0894C13.7682 40.4965 12.8464 38.8356 11.2535 38.3798C9.66058 37.924 7.99974 38.8458 7.54391 40.4387L0.115738 66.3968ZM50.0001 3.72211C47.0105 3.97259 47.0104 3.9713 47.0103 3.97007C47.0103 3.96973 47.0102 3.96855 47.0101 3.96787C47.01 3.96652 47.0099 3.96537 47.0099 3.96444C47.0097 3.96258 47.0096 3.96158 47.0096 3.96142C47.0096 3.9611 47.0098 3.96418 47.0103 3.97061C47.0112 3.98347 47.0129 4.00973 47.015 4.04907C47.0193 4.12774 47.0252 4.25868 47.0294 4.43928C47.0378 4.80053 47.0392 5.36008 47.007 6.09721C46.9424 7.57171 46.743 9.75444 46.1947 12.4807C45.0992 17.9278 42.6086 25.5598 36.9956 34.0704L42.0044 37.3738C48.0868 28.1514 50.8462 19.7834 52.0769 13.6637C52.6917 10.6066 52.9244 8.11432 53.0012 6.3596C53.0396 5.48211 53.0391 4.78852 53.0278 4.30027C53.0221 4.05612 53.0138 3.86323 53.0062 3.72426C53.0025 3.65477 52.9989 3.59875 52.996 3.55654C52.9945 3.53543 52.9932 3.51778 52.9921 3.50361C52.9916 3.49653 52.9911 3.49032 52.9907 3.48499C52.9905 3.48232 52.9903 3.47987 52.9901 3.47765C52.99 3.47654 52.9899 3.47503 52.9898 3.47447C52.9897 3.47302 52.9896 3.47163 50.0001 3.72211ZM36.9956 34.0704C31.4388 42.4958 22.6498 50.1208 15.0822 55.7086C11.3256 58.4824 7.92583 60.714 5.46835 62.25C4.24049 63.0175 3.25025 63.6098 2.57123 64.008C2.23178 64.207 1.9703 64.3574 1.796 64.4567C1.70886 64.5064 1.64352 64.5433 1.60115 64.5671C1.57997 64.579 1.56453 64.5877 1.55498 64.593C1.5502 64.5957 1.54689 64.5975 1.54508 64.5985C1.54417 64.599 1.54364 64.5993 1.54348 64.5994C1.5434 64.5994 1.54356 64.5994 1.54352 64.5994C1.54377 64.5992 1.54412 64.599 2.99997 67.2221C4.45582 69.8452 4.45636 69.8449 4.45699 69.8445C4.45733 69.8443 4.45806 69.8439 4.45873 69.8436C4.46008 69.8428 4.46181 69.8419 4.46391 69.8407C4.46811 69.8383 4.47382 69.8352 4.48101 69.8311C4.49539 69.8231 4.51571 69.8117 4.54181 69.7971C4.59402 69.7677 4.6694 69.7251 4.76678 69.6696C4.96154 69.5586 5.24439 69.3959 5.60604 69.1839C6.32921 68.7599 7.3682 68.1382 8.64852 67.3379C11.2074 65.7385 14.7397 63.42 18.6462 60.5354C26.4048 54.8065 35.8658 46.6814 42.0044 37.3738L36.9956 34.0704Z" fill="#1864AB"/>
</svg>
