<svg width="45" height="91" viewBox="0 0 45 91" fill="none" xmlns="http://www.w3.org/2000/svg">
<path d="M25.7884 3.56284C25.7726 1.90606 24.4168 0.57575 22.76 0.591505C21.1032 0.607261 19.7729 1.96312 19.7887 3.6199L25.7884 3.56284ZM22.8946 38.4174L25.8946 38.4188L22.8946 38.4174ZM20.5523 89.2403C21.7151 90.4206 23.6146 90.4347 24.7948 89.2719L44.028 70.3223C45.2082 69.1595 45.2223 67.2601 44.0595 66.0798C42.8967 64.8996 40.9972 64.8855 39.817 66.0483L22.7208 82.8923L5.8768 65.7961C4.71396 64.6159 2.81452 64.6018 1.63428 65.7646C0.454033 66.9275 0.439921 68.8269 1.60276 70.0071L20.5523 89.2403ZM22.7885 3.59137C19.7887 3.6199 19.7887 3.61992 19.7887 3.61998C19.7887 3.62007 19.7887 3.62018 19.7887 3.62035C19.7887 3.62069 19.7887 3.62122 19.7887 3.62193C19.7887 3.62336 19.7887 3.62553 19.7887 3.62846C19.7888 3.6343 19.7889 3.64314 19.789 3.65496C19.7892 3.67861 19.7895 3.71419 19.79 3.76164C19.7908 3.85653 19.792 3.99892 19.7936 4.1883C19.7968 4.56706 19.8013 5.1338 19.8067 5.88455C19.8175 7.38604 19.8317 9.62359 19.8456 12.5655C19.8735 18.4493 19.9 27.1506 19.8946 38.4159L25.8946 38.4188C25.9 27.1426 25.8734 18.4309 25.8456 12.5371C25.8316 9.59022 25.8173 7.3478 25.8065 5.84153C25.8011 5.08839 25.7966 4.51929 25.7934 4.13819C25.7918 3.94764 25.7906 3.80409 25.7897 3.70803C25.7893 3.66 25.789 3.62385 25.7887 3.59963C25.7886 3.58752 25.7885 3.5784 25.7885 3.57226C25.7884 3.56919 25.7884 3.56687 25.7884 3.5653C25.7884 3.56452 25.7884 3.56392 25.7884 3.56351C25.7884 3.56331 25.7884 3.56314 25.7884 3.56304C25.7884 3.56292 25.7884 3.56284 22.7885 3.59137ZM19.8946 38.4159C19.8892 49.6797 19.8379 61.8536 19.7879 71.2131C19.7629 75.8926 19.7383 79.8677 19.7199 82.673C19.7107 84.0756 19.7031 85.1856 19.6977 85.945C19.6951 86.3247 19.693 86.6166 19.6916 86.8137C19.6908 86.9122 19.6903 86.9869 19.6899 87.0371C19.6898 87.0621 19.6896 87.081 19.6895 87.0936C19.6895 87.0999 19.6894 87.1047 19.6894 87.1078C19.6894 87.1094 19.6894 87.1106 19.6894 87.1114C19.6894 87.1118 19.6894 87.1121 19.6894 87.1123C19.6894 87.1125 19.6894 87.1125 22.6893 87.1348C25.6892 87.1571 25.6892 87.157 25.6892 87.1568C25.6892 87.1566 25.6892 87.1563 25.6892 87.1559C25.6892 87.1551 25.6892 87.1539 25.6893 87.1523C25.6893 87.1491 25.6893 87.1443 25.6894 87.1379C25.6895 87.1252 25.6896 87.1062 25.6898 87.0811C25.6901 87.0307 25.6907 86.9558 25.6914 86.8571C25.6928 86.6596 25.6949 86.3672 25.6976 85.9871C25.7029 85.2269 25.7106 84.1159 25.7198 82.7123C25.7382 79.9051 25.7628 75.9274 25.7878 71.2452C25.8378 61.8813 25.8892 49.6965 25.8946 38.4188L19.8946 38.4159Z" fill="#1864AB"/>
</svg>
