<svg width="30" height="20" viewBox="0 0 30 20" fill="none" xmlns="http://www.w3.org/2000/svg">
<path d="M30 0H0V20H30V0Z" fill="#084B8E"/>
<path d="M13 6H0V8H13V6Z" fill="#FEFDFB"/>
<path d="M30 6H17V8H30V6Z" fill="#FEFDFB"/>
<path d="M30 14H18.9472H17V12H30V14Z" fill="#FEFDFB"/>
<path d="M13 12H0V14H13V12Z" fill="#FEFDFB"/>
<path d="M13 0H12V8H13V0Z" fill="#FEFDFB"/>
<path d="M18 0H17V8H18V0Z" fill="#FEFDFB"/>
<path d="M18 12H17V20H18V12Z" fill="#FEFDFB"/>
<path d="M13 12H12V20H13V12Z" fill="#FEFDFB"/>
<path d="M17 6.21453L28.2983 0H30L17.4155 7H17V6.21453Z" fill="#FEFDFB"/>
<path d="M21.5 6L30 2V0L18.5 6H21.5Z" fill="#B72722"/>
<path d="M24.5581 6L30 3V1.5L21.5 6H24.5581Z" fill="#FEFDFB"/>
<path d="M23.5708 14L30 17.2254V18C27.3329 16.6667 24.6671 15.3333 22 14H23.5708Z" fill="#FEFDFB"/>
<path d="M11.5 14L0 20V18L7.80654 14H11.5Z" fill="#B72722"/>
<path d="M1.42186 20L12 14.4983V14H11.3093L0 19.8696V20H1.42186Z" fill="#FEFDFB"/>
<path d="M0 16.4549L4.90386 14H8C5.33333 15.3338 2.66667 16.6662 0 18V16.4549Z" fill="#FEFDFB"/>
<path d="M0 2L8 6H12C7.99952 4.00043 4.00048 1.99957 0 0V2Z" fill="#B72722"/>
<path d="M12 4.49217L3.33193 0H0L11.6168 6H12V4.49217Z" fill="#FEFDFB"/>
<path d="M0 2.71667L6.68105 6H8L0 2V2.71667Z" fill="#FEFDFB"/>
<path d="M30 18L22.2372 14H18.5L30 20V18Z" fill="#B72722"/>
<path d="M30 19.8696V20H26.9209L18 15.3735V14H18.5647L30 19.8696Z" fill="#FEFDFB"/>
<path d="M30 8H0V12H30V8Z" fill="#B72722"/>
<path d="M17 0H13V20H17V0Z" fill="#B72722"/>
</svg>
