<svg width="36" height="29" viewBox="0 0 36 29" fill="none" xmlns="http://www.w3.org/2000/svg">
<path d="M35.8333 8.256V22.8438C35.8334 24.3311 35.2644 25.7621 34.2429 26.8432C33.2215 27.9243 31.825 28.5735 30.3401 28.6577L30.0104 28.6667H5.82292C4.33559 28.6668 2.9046 28.0977 1.8235 27.0763C0.742407 26.0548 0.0931643 24.6584 0.00895854 23.1734L0 22.8438V8.256L17.2932 17.3147C17.4856 17.4154 17.6995 17.4681 17.9167 17.4681C18.1338 17.4681 18.3478 17.4154 18.5402 17.3147L35.8333 8.256ZM5.82292 4.22924e-08H30.0104C31.4538 -0.000173818 32.8457 0.5357 33.9163 1.50369C34.9869 2.47167 35.6599 3.80278 35.8047 5.23883L17.9167 14.6093L0.0286667 5.23883C0.167563 3.85981 0.793798 2.57555 1.7948 1.61691C2.79581 0.658274 4.10593 0.0881267 5.48967 0.00895858L5.82292 4.22924e-08Z" fill="#E3FAFC"/>
</svg>
