<svg width="350" height="122" viewBox="0 0 350 122" fill="none" xmlns="http://www.w3.org/2000/svg">
<path d="M18.2253 89.351L23.3308 86.4793C29.515 60.8651 31.6728 35.9832 31.6728 35.9832H48.6459C48.6459 35.9832 41.8066 63.467 34.5627 82.9523C47.5092 79.3482 58.9338 78.5001 58.9338 78.5001L56.8531 94.2464C51.0926 93.0322 45.4285 92.666 40.246 92.666C36.1424 92.666 32.482 92.9551 29.5343 93.1671C28.0316 95.2486 26.0087 97.0411 23.4849 98.0625C23.4849 98.0625 19.0345 95.3257 18.2446 89.351H18.2253Z" fill="#3BACE2"/>
<path d="M86.4644 77.4016C84.2296 81.7959 78.5462 94.2271 70.2813 94.2271C63.1722 94.2271 61.2264 88.4066 61.2264 82.5668C61.2264 72.8531 64.463 62.5033 64.463 62.5033H76.7545C76.7545 62.5033 72.8629 72.8723 72.8629 80.6395C72.8629 82.5861 73.5179 84.5134 75.0977 84.5134C77.6793 84.5134 80.6269 79.3289 82.5728 75.455L86.4644 77.4016ZM81.7251 47.9712C81.7251 51.6332 78.8545 56.1046 73.7491 56.1046C69.3565 56.1046 66.4859 52.5005 66.4859 48.6265C66.4859 44.2322 69.9345 40.4354 74.4619 40.4354C78.4884 40.4354 81.7251 43.3842 81.7251 47.9905V47.9712Z" fill="#3BACE2"/>
<path d="M96.3863 62.5226C96.3863 62.5226 95.8083 63.891 94.3056 70.8679H94.5946C97.9083 65.3943 102.359 61.2313 108.042 61.2313C112.223 61.2313 115.594 63.467 115.594 68.6322C115.594 74.3178 111.491 79.5024 111.491 82.509C111.491 83.9545 112.435 84.5134 113.359 84.5134C116.095 84.5134 119.178 79.3289 121.123 75.455L125.015 77.4016C118.465 90.9892 113.359 94.2272 108.254 94.2272C103.438 94.2272 99.989 91.3554 99.989 86.3829C99.989 81.4104 102.802 76.6692 102.802 73.4313C102.802 71.9858 102.147 71.4268 101.299 71.4268C97.6964 71.4268 92.7451 80.5624 91.5121 92.9358H80.3572C81.7251 75.243 85.1737 62.5033 85.1737 62.5033H96.3863V62.5226Z" fill="#3BACE2"/>
<path d="M123.05 95.5377C124.919 97.0411 126.865 98.0625 129.6 98.0625C135.573 98.0625 139.676 93.1671 141.545 87.1346C138.809 91.9529 135.072 93.7453 130.39 93.7453C123.917 93.7453 119.524 89.8714 119.524 81.1599C119.524 72.4483 126.422 61.2313 136.131 61.2313C141.237 61.2313 143.818 63.679 144.762 66.5507C145.34 64.103 145.841 62.5226 145.841 62.5226H155.551C152.18 88.5608 150.311 109.646 131.18 109.646C123.705 109.646 118.388 105.329 116.866 102.958L123.05 95.557V95.5377ZM141.68 75.4742L137.441 74.684C137.942 73.3927 138.366 71.9472 138.366 70.733C138.366 69.3646 137.788 68.5744 136.709 68.5744C134.186 68.5744 131.604 73.6818 131.604 79.2132C131.604 82.4512 132.895 84.5327 134.975 84.5327C137.923 84.5327 140.216 81.0828 141.661 75.4742H141.68Z" fill="#3BACE2"/>
<path d="M200.479 58.5523C200.479 60.576 200.19 62.4455 199.689 64.2379C207.607 68.69 213.792 75.455 213.792 82.5861C213.792 88.4837 209.688 94.2464 200.633 94.2464C193.505 94.2464 189.42 90.8736 186.685 87.0575L190.711 81.025C192.869 83.3185 194.815 84.2629 196.761 84.2629C198.051 84.2629 199.207 83.5497 199.207 81.3911C199.207 78.1532 195.759 74.7033 194.025 73.1229C192.445 74.4913 190.653 75.4935 188.708 76.2066C187.552 85.7084 180.231 94.2657 170.155 94.2657C162.603 94.2657 156.784 89.5245 156.784 80.5238C156.784 71.5232 162.892 61.2505 175.337 61.2505C182.177 61.2505 185.972 65.4136 185.972 70.3861C185.972 70.5403 185.895 70.5981 185.895 70.7523C190.133 68.8057 192.58 65.4328 192.58 61.6938C192.58 61.0385 192.503 60.3254 192.368 59.6894L200.498 58.6101L200.479 58.5523ZM179.19 76.8234C179.19 76.3994 179.19 75.9561 179.113 75.5321L176.878 74.6648C177.09 74.2407 177.379 72.5832 177.379 71.7159C177.379 69.6344 176.089 68.5551 174.509 68.5551C171.696 68.5551 168.748 73.0843 168.748 78.6158C168.748 83.7232 170.829 85.8047 173.276 85.8047C177.013 85.8047 179.171 81.0635 179.171 76.8041L179.19 76.8234Z" fill="#3BACE2"/>
<path d="M241.245 37.4095C240.378 38.4888 232.826 57.3381 229.243 70.8679H229.532C232.845 65.3943 237.296 61.2313 242.979 61.2313C247.14 61.2313 250.531 63.467 250.531 68.6322C250.531 74.3179 246.428 79.5024 246.428 82.509C246.428 83.9545 247.372 84.5134 248.296 84.5134C251.032 84.5134 254.115 79.3289 256.06 75.455L259.952 77.4016C253.402 90.9893 248.296 94.2272 243.191 94.2272C238.375 94.2272 234.926 91.3555 234.926 86.3829C234.926 81.4104 237.739 76.6692 237.739 73.4313C237.739 71.9858 237.084 71.4269 236.236 71.4269C232.633 71.4269 227.682 80.5624 226.449 92.9359H215.294C216.373 79.1169 221.633 54.2351 227.008 37.4095H241.245Z" fill="#3BACE2"/>
<path d="M266.965 81.7959C267.678 84.3785 269.546 85.9011 272.436 85.9011C278.255 85.9011 282.801 79.3482 284.728 75.4742L288.619 77.4208C286.385 81.8151 279.777 94.2464 267.909 94.2464C260.646 94.2464 254.538 89.563 254.538 80.5046C254.538 72.6603 259.933 61.2313 272.224 61.2313C277.041 61.2313 281.356 63.467 281.356 68.5744C281.356 75.1851 275.037 80.1576 266.984 81.8151L266.965 81.7959ZM266.599 77.1125C269.835 76.1681 273.727 73.7975 273.727 70.0584C273.727 68.9791 273.149 68.1118 272.07 68.1118C270.201 68.1118 266.965 70.9257 266.599 77.1125Z" fill="#3BACE2"/>
<path d="M309.099 77.4016C306.864 81.7959 301.181 94.2272 292.916 94.2272C285.787 94.2272 283.861 88.4066 283.861 82.5668C283.861 67.3795 294.207 37.3902 294.207 37.3902H308.444C308.444 37.3902 295.497 66.7434 295.497 80.6202C295.497 82.5668 296.152 84.4942 297.732 84.4942C300.314 84.4942 303.261 79.3096 305.207 75.4357L309.08 77.3823L309.099 77.4016Z" fill="#3BACE2"/>
<path d="M328.654 68.5551H320.678C326.072 72.2941 329.598 78.77 329.598 86.6142C329.598 98.3324 323.49 105.174 315.437 105.174C307.384 105.174 303.936 97.8313 303.936 89.351C303.936 82.9523 304.88 75.8212 306.305 68.9984C305.226 68.7864 303.724 68.6322 302.934 68.5744L304.437 63.1779L307.673 62.8117C311.122 48.8578 315.591 37.4287 315.591 37.4287H329.829C329.829 37.4287 324.434 48.6458 320.273 61.3084L331.062 60.017L328.692 68.5744L328.654 68.5551ZM316.574 74.4528C315.861 78.1147 315.418 81.5646 315.418 84.5905C315.418 89.3317 315.707 92.9359 317.788 92.9359C319.734 92.9359 321.236 90.5652 321.236 86.9033C321.236 81.1406 319.233 77.1896 316.555 74.4528H316.574Z" fill="#3BACE2"/>
<path d="M125.612 55.1795C121.605 56.8177 111.51 48.3953 113.61 42.2085C114.978 38.1612 121.393 35.5207 125.131 37.4095C130.891 40.3005 129.658 53.5413 125.612 55.1988V55.1795Z" fill="#3BACE2"/>
<path d="M143.645 44.5984C139.349 44.0202 134.783 31.7046 139.657 27.3681C142.836 24.5349 149.733 25.4215 152.045 28.91C155.609 34.2872 147.961 45.1573 143.645 44.5791V44.5984Z" fill="#3BACE2"/>
<path d="M157.69 56.2202C154.357 53.4641 156.938 40.5896 163.373 39.4717C167.573 38.7393 172.967 43.1337 173.083 47.3352C173.276 53.7918 161.042 58.9956 157.69 56.2202Z" fill="#3BACE2"/>
</svg>
