<svg width="1280" height="1057" viewBox="0 0 1280 1057" fill="none" xmlns="http://www.w3.org/2000/svg">
<mask id="mask0_231_470" style="mask-type:alpha" maskUnits="userSpaceOnUse" x="0" y="0" width="1280" height="1057">
<rect width="1280" height="1057" fill="#D9D9D9"/>
</mask>
<g mask="url(#mask0_231_470)">
<path fill-rule="evenodd" clip-rule="evenodd" d="M53.6865 8L7 8V9L55.0709 9L53.6865 8ZM86.6529 31.8129L86.6529 72L7 72V73H86.6529V136H7V137H86.6529L86.6529 200H7V201H86.6529V264H7V265H86.6529V328H7V329H86.6529L86.6529 392H7V393H86.6529V456H7V457H86.6529L86.6529 520H7V521H86.6529V584H7V585H86.6529L86.6528 648H7V649H86.6528V712H7V713H86.6528V776H7V777H86.6528L86.6528 840H7V841H86.6528V904H7V905H86.6528L86.6528 968H7V969H86.6528V1025H87.6528V969H166.184V1025H167.184V969H245.716V1025H246.716V969H325.248V1025H326.248V969H404.779V1025H405.779V969H484.311V1025H485.311V969H563.842V1025H564.842V969L643.374 969V1025H644.374V969H722.905V1025H723.905V969H802.437V1025H803.437V969H881.968V1025H882.968V969H961.5V1025H962.5V969H1041.03V1025H1042.03V969H1120.56V1025H1121.56V969H1200.09V1025H1201.09V969H1279.63V1025H1280.63V969H1359.16V1025H1360.16V969H1384.09L1382.7 968H1360.16V951.715L1359.16 950.992V968H1280.63V905H1295.49L1294.1 904H1280.63V894.266L1279.63 893.544V904H1201.09V841H1206.89L1205.5 840H1201.09V836.817L1200.09 836.095V840L1121.56 840V779.369L1120.56 778.646V840H1042.03V777H1118.28L1116.9 776H1042.03V721.92L1041.03 721.198V776H962.5V713H1029.68L1028.3 712H962.5V664.471L961.5 663.749V712H882.968V649H941.082L939.697 648H882.968V607.022L881.968 606.3V648H803.437V585H852.481L851.096 584H803.437V549.574L802.437 548.851V584H723.905V521H763.88L762.495 520H723.905V492.125L722.905 491.403V520H644.374L644.374 457H675.279L673.894 456H644.374V434.676L643.374 433.954V456H564.842V393H586.677L585.293 392H564.842V377.228L563.842 376.505V392H485.311V329H498.076L496.692 328H485.311V319.779L484.311 319.057V328H405.779V265H409.475L408.091 264H405.779V262.33L404.779 261.608V264H326.248V204.881L325.248 204.159V264H246.716V201H320.874L319.49 200H246.716V147.433L245.716 146.71V200H167.184V137H232.273L230.889 136H167.184L167.184 89.984L166.184 89.2617L166.184 136L87.6529 136V73L143.672 73L142.288 72H87.6529L87.6529 32.5352L86.6529 31.8129ZM1438.69 1008.44V1025H1439.69V1009.16L1438.69 1008.44ZM1836.35 1017.35V1025H1837.35V1016.43L1836.35 1017.35ZM1888.78 969H1915.88V1025H1916.88V969H1995.41V1025H1996.41V969H2074.94V1025H2075.94V969H2154.47V1025H2155.47V969H2234V1025H2235V969H2313.54V1025H2314.54V969H2392.95V968H2314.54V905H2392.95V904H2314.54V841H2392.95V840H2314.54V777H2392.95V776H2314.54V713H2392.95V712H2314.54V649H2392.95V648H2314.54V585H2392.95V584H2314.54V576.438L2313.54 577.36V584H2306.33L2305.25 585H2313.54V648H2236.92L2235.84 649H2313.54V712H2235V649.77L2234 650.692V712H2167.51L2166.43 713H2234V776H2155.47V723.101L2154.47 724.023V776H2098.1L2097.02 777H2154.47V840H2075.94V796.433L2074.94 797.355V840H2028.69L2027.61 841H2074.94V904H1996.41V869.765L1995.41 870.687V904H1959.28L1958.2 905H1995.41V968L1916.88 968V943.096L1915.88 944.018V968H1889.87L1888.78 969ZM2374.66 521H2392.95V520H2375.75L2374.66 521ZM2235 713H2313.54V776H2235V713ZM2235 777H2313.54V840H2235V777ZM2235 841H2313.54V904H2235V841ZM2235 905H2313.54V968H2235V905ZM2234 905V968H2155.47V905H2234ZM2154.47 905V968H2075.94V905H2154.47ZM2074.94 905V968H1996.41V905H2074.94ZM1279.63 905V968H1201.09V905H1279.63ZM1200.09 905V968L1121.56 968V905L1200.09 905ZM1120.56 905V968H1042.03V905H1120.56ZM1041.03 905V968H962.5V905H1041.03ZM961.5 905V968H882.968V905H961.5ZM881.968 905V968H803.437V905H881.968ZM802.437 905V968H723.905V905H802.437ZM722.905 905V968H644.374V905H722.905ZM643.374 905V968H564.842V905H643.374ZM563.842 905V968H485.311V905H563.842ZM484.311 905V968H405.779V905H484.311ZM404.779 905V968L326.248 968V905L404.779 905ZM325.248 905V968H246.716V905H325.248ZM245.716 905V968H167.184V905H245.716ZM166.184 905V968H87.6528L87.6528 905H166.184ZM166.184 904H87.6528V841H166.184L166.184 904ZM166.184 840H87.6528L87.6528 777H166.184V840ZM166.184 776H87.6528V713H166.184V776ZM166.184 712H87.6528V649H166.184V712ZM166.184 648H87.6528L87.6529 585H166.184L166.184 648ZM166.184 584H87.6529V521H166.184V584ZM166.184 520H87.6529L87.6529 457H166.184V520ZM166.184 456H87.6529V393H166.184V456ZM166.184 392H87.6529L87.6529 329H166.184L166.184 392ZM166.184 328H87.6529V265H166.184V328ZM166.184 264H87.6529V201H166.184V264ZM166.184 200L87.6529 200L87.6529 137L166.184 137V200ZM2155.47 777H2234V840H2155.47V777ZM2155.47 841H2234V904H2155.47V841ZM2154.47 841V904H2075.94V841H2154.47ZM1200.09 841V904L1121.56 904V841L1200.09 841ZM1120.56 841V904H1042.03V841H1120.56ZM1041.03 841V904H962.5V841H1041.03ZM961.5 841V904H882.968V841H961.5ZM881.968 841V904H803.437V841H881.968ZM802.437 841V904H723.905V841H802.437ZM722.905 841V904H644.374V841H722.905ZM643.374 841V904H564.842V841H643.374ZM563.842 841V904H485.311V841H563.842ZM484.311 841V904H405.779V841H484.311ZM404.779 841V904L326.248 904L326.248 841L404.779 841ZM325.248 841L325.248 904H246.716L246.716 841H325.248ZM245.716 841L245.716 904H167.184L167.184 841H245.716ZM245.716 840H167.184V777H245.716V840ZM245.716 776H167.184V713H245.716V776ZM245.716 712H167.184V649H245.716V712ZM245.716 648H167.184L167.184 585H245.716V648ZM245.716 584H167.184V521H245.716V584ZM245.716 520H167.184V457H245.716L245.716 520ZM245.716 456L167.184 456V393L245.716 393V456ZM245.716 392L167.184 392L167.184 329L245.716 329V392ZM245.716 328L167.184 328V265L245.716 265V328ZM245.716 264L167.184 264V201L245.716 201V264ZM1041.03 777V840H962.5V777H1041.03ZM961.5 777V840H882.968V777H961.5ZM881.968 777V840H803.437V777H881.968ZM802.437 777V840H723.905V777H802.437ZM722.905 777V840H644.374V777H722.905ZM643.374 777V840H564.842V777H643.374ZM563.842 777V840H485.311V777H563.842ZM484.311 777V840H405.779V777H484.311ZM404.779 777V840L326.248 840V777L404.779 777ZM325.248 777V840H246.716V777H325.248ZM325.248 776H246.716V713H325.248V776ZM325.248 712H246.716V649H325.248V712ZM325.248 648H246.716V585H325.248V648ZM325.248 584H246.716V521H325.248V584ZM325.248 520H246.716L246.716 457H325.248L325.248 520ZM325.248 456H246.716V393H325.248V456ZM325.248 392H246.716V329H325.248V392ZM325.248 328H246.716V265H325.248V328ZM961.5 713V776H882.968V713H961.5ZM881.968 713V776H803.437V713H881.968ZM802.437 713V776H723.905V713H802.437ZM722.905 713V776H644.374V713H722.905ZM643.374 713V776H564.842V713H643.374ZM563.842 713V776H485.311L485.311 713H563.842ZM484.311 713L484.311 776H405.779L405.779 713H484.311ZM404.779 713L404.779 776L326.248 776V713L404.779 713ZM404.779 712L326.248 712V649L404.779 649V712ZM404.779 648L326.248 648V585L404.779 585V648ZM404.779 584L326.248 584V521L404.779 521V584ZM404.779 520L326.248 520L326.248 457H404.779V520ZM404.779 456H326.248V393H404.779V456ZM404.779 392H326.248V329H404.779V392ZM404.779 328H326.248V265H404.779V328ZM881.968 649V712H803.437V649H881.968ZM802.437 649V712H723.905V649H802.437ZM722.905 649V712H644.374V649H722.905ZM643.374 649V712H564.842V649H643.374ZM563.842 649V712H485.311V649H563.842ZM484.311 649V712H405.779V649H484.311ZM484.311 648H405.779V585H484.311V648ZM484.311 584H405.779V521H484.311V584ZM484.311 520H405.779V457H484.311V520ZM484.311 456H405.779V393H484.311V456ZM484.311 392H405.779V329H484.311V392ZM802.437 585V648H723.905V585H802.437ZM722.905 585V648H644.374V585H722.905ZM643.374 585V648H564.842V585H643.374ZM563.842 585V648H485.311V585H563.842ZM563.842 584H485.311V521H563.842V584ZM563.842 520H485.311V457H563.842L563.842 520ZM563.842 456H485.311V393H563.842V456ZM722.905 521V584H644.374V521H722.905ZM643.374 521V584H564.842V521H643.374ZM643.374 520H564.842L564.842 457L643.374 457L643.374 520Z" fill="#C5F6FA" fill-opacity="0.7"/>
</g>
</svg>
