<svg width="138" height="133" viewBox="0 0 138 133" fill="none" xmlns="http://www.w3.org/2000/svg">
<circle cx="85.8764" cy="55.5089" r="52.1234" fill="#FFC9C9" fill-opacity="0.5"/>
<line x1="28.2461" y1="99.826" x2="74.6555" y2="117.284" stroke="#495057" stroke-opacity="0.5" stroke-width="2"/>
<line x1="39.4937" y1="109.801" x2="58.7843" y2="117.058" stroke="#495057" stroke-opacity="0.5" stroke-width="2"/>
<line x1="22.8706" y1="92.0589" x2="83.5383" y2="114.881" stroke="#495057" stroke-opacity="0.5" stroke-width="2"/>
<line x1="18.6123" y1="84.7127" x2="91.0222" y2="111.952" stroke="#495057" stroke-opacity="0.5" stroke-width="2"/>
<line x1="17.1509" y1="78.4185" x2="97.1092" y2="108.497" stroke="#495057" stroke-opacity="0.5" stroke-width="2"/>
<line x1="15.9688" y1="72.2293" x2="102.078" y2="104.622" stroke="#495057" stroke-opacity="0.5" stroke-width="2"/>
<line x1="15.3453" y1="66.2503" x2="105.927" y2="100.325" stroke="#495057" stroke-opacity="0.5" stroke-width="2"/>
<line x1="15.5606" y1="60.5872" x2="109.498" y2="95.9244" stroke="#495057" stroke-opacity="0.5" stroke-width="2"/>
<line x1="16.6153" y1="55.2393" x2="112.23" y2="91.2075" stroke="#495057" stroke-opacity="0.5" stroke-width="2"/>
<line x1="17.3902" y1="49.7862" x2="114.962" y2="86.4906" stroke="#495057" stroke-opacity="0.5" stroke-width="2"/>
<line x1="19.2837" y1="44.7537" x2="116.855" y2="81.4581" stroke="#495057" stroke-opacity="0.5" stroke-width="2"/>
<line x1="22.0147" y1="40.0372" x2="117.909" y2="76.1105" stroke="#495057" stroke-opacity="0.5" stroke-width="2"/>
<line x1="25.0269" y1="35.4254" x2="118.684" y2="70.6574" stroke="#495057" stroke-opacity="0.5" stroke-width="2"/>
<line x1="28.5972" y1="31.024" x2="118.9" y2="64.994" stroke="#495057" stroke-opacity="0.5" stroke-width="2"/>
<line x1="33.0064" y1="26.9381" x2="118.556" y2="59.1201" stroke="#495057" stroke-opacity="0.5" stroke-width="2"/>
<line x1="37.9751" y1="23.0626" x2="117.095" y2="52.8257" stroke="#495057" stroke-opacity="0.5" stroke-width="2"/>
<line x1="43.7823" y1="19.5028" x2="114.794" y2="46.216" stroke="#495057" stroke-opacity="0.5" stroke-width="2"/>
<line x1="50.9869" y1="16.4686" x2="111.095" y2="39.0802" stroke="#495057" stroke-opacity="0.5" stroke-width="2"/>
<line x1="61.2671" y1="14.5916" x2="105.16" y2="31.1033" stroke="#495057" stroke-opacity="0.5" stroke-width="2"/>
<line x1="78.1783" y1="14.7537" x2="95.7915" y2="21.3794" stroke="#495057" stroke-opacity="0.5" stroke-width="2"/>
</svg>
