<svg width="355" height="304" viewBox="0 0 355 304" fill="none" xmlns="http://www.w3.org/2000/svg">
<ellipse cx="7.15625" cy="60.6604" rx="7.15625" ry="7.13208" fill="#C5F6FA"/>
<ellipse cx="7.15625" cy="86.9246" rx="7.15625" ry="7.13208" fill="#C5F6FA"/>
<ellipse cx="33.4688" cy="86.9246" rx="7.15625" ry="7.13208" fill="#C5F6FA"/>
<ellipse cx="33.4688" cy="113.189" rx="7.15625" ry="7.13208" fill="#C5F6FA"/>
<ellipse cx="33.5312" cy="139.132" rx="7.15625" ry="7.13208" fill="#C5F6FA"/>
<ellipse cx="33.5312" cy="166.132" rx="7.15625" ry="7.13208" fill="#C5F6FA"/>
<ellipse cx="33.5312" cy="192.132" rx="7.15625" ry="7.13208" fill="#C5F6FA"/>
<ellipse cx="59.7812" cy="113.189" rx="7.15625" ry="7.13208" fill="#C5F6FA"/>
<ellipse cx="59.7812" cy="139.453" rx="7.15625" ry="7.13208" fill="#C5F6FA"/>
<ellipse cx="59.5312" cy="166.132" rx="7.15625" ry="7.13208" fill="#C5F6FA"/>
<ellipse cx="60.5312" cy="192.132" rx="7.15625" ry="7.13208" fill="#C5F6FA"/>
<ellipse cx="60.5312" cy="218.132" rx="7.15625" ry="7.13208" fill="#C5F6FA"/>
<ellipse cx="60.5312" cy="244.132" rx="7.15625" ry="7.13208" fill="#C5F6FA"/>
<ellipse cx="59.7812" cy="86.9246" rx="7.15625" ry="7.13208" fill="#C5F6FA"/>
<ellipse cx="86.0938" cy="86.9246" rx="7.15625" ry="7.13208" fill="#C5F6FA"/>
<ellipse cx="86.5312" cy="110.132" rx="7.15625" ry="7.13208" fill="#C5F6FA"/>
<ellipse cx="86.5312" cy="139.132" rx="7.15625" ry="7.13208" fill="#C5F6FA"/>
<ellipse cx="86.5312" cy="166.132" rx="7.15625" ry="7.13208" fill="#C5F6FA"/>
<ellipse cx="112.406" cy="86.9246" rx="7.15625" ry="7.13208" fill="#C5F6FA"/>
<ellipse cx="112.406" cy="113.189" rx="7.15625" ry="7.13208" fill="#C5F6FA"/>
<ellipse cx="112.531" cy="139.132" rx="7.15625" ry="7.13208" fill="#C5F6FA"/>
<ellipse cx="112.531" cy="166.132" rx="7.15625" ry="7.13208" fill="#C5F6FA"/>
<ellipse cx="112.531" cy="192.132" rx="7.15625" ry="7.13208" fill="#C5F6FA"/>
<ellipse cx="7.15625" cy="113.189" rx="7.15625" ry="7.13208" fill="#C5F6FA"/>
<ellipse cx="7.15625" cy="139.453" rx="7.15625" ry="7.13208" fill="#C5F6FA"/>
<ellipse cx="7.15625" cy="165.717" rx="7.15625" ry="7.13208" fill="#C5F6FA"/>
<ellipse cx="7.15625" cy="191.981" rx="7.15625" ry="7.13208" fill="#C5F6FA"/>
<ellipse cx="7.53125" cy="218.132" rx="7.15625" ry="7.13208" fill="#C5F6FA"/>
<ellipse cx="33.5312" cy="218.132" rx="7.15625" ry="7.13208" fill="#C5F6FA"/>
<ellipse cx="7.53125" cy="244.132" rx="7.15625" ry="7.13208" fill="#C5F6FA"/>
<ellipse cx="7.53125" cy="270.132" rx="7.15625" ry="7.13208" fill="#C5F6FA"/>
<ellipse cx="7.53125" cy="296.132" rx="7.15625" ry="7.13208" fill="#C5F6FA"/>
<ellipse cx="33.4688" cy="60.6604" rx="7.15625" ry="7.13208" fill="#C5F6FA"/>
<ellipse cx="59.7812" cy="60.6604" rx="7.15625" ry="7.13208" fill="#C5F6FA"/>
<ellipse cx="86.0938" cy="60.6604" rx="7.15625" ry="7.13208" fill="#C5F6FA"/>
<ellipse cx="112.406" cy="60.6604" rx="7.15625" ry="7.13208" fill="#C5F6FA"/>
<ellipse cx="138.719" cy="60.6604" rx="7.15625" ry="7.13208" fill="#C5F6FA"/>
<ellipse cx="139.531" cy="87.1321" rx="7.15625" ry="7.13208" fill="#C5F6FA"/>
<ellipse cx="139.531" cy="113.132" rx="7.15625" ry="7.13208" fill="#C5F6FA"/>
<ellipse cx="139.531" cy="139.132" rx="7.15625" ry="7.13208" fill="#C5F6FA"/>
<ellipse cx="7.15625" cy="34.3962" rx="7.15625" ry="7.13208" fill="#C5F6FA"/>
<ellipse cx="33.4688" cy="34.3962" rx="7.15625" ry="7.13208" fill="#C5F6FA"/>
<ellipse cx="59.7812" cy="34.3962" rx="7.15625" ry="7.13208" fill="#C5F6FA"/>
<ellipse cx="86.0938" cy="34.3962" rx="7.15625" ry="7.13208" fill="#C5F6FA"/>
<ellipse cx="112.406" cy="34.3962" rx="7.15625" ry="7.13208" fill="#C5F6FA"/>
<ellipse cx="138.719" cy="34.3962" rx="7.15625" ry="7.13208" fill="#C5F6FA"/>
<ellipse cx="165.031" cy="34.3962" rx="7.15625" ry="7.13208" fill="#C5F6FA"/>
<ellipse cx="165.031" cy="60.6604" rx="7.15625" ry="7.13208" fill="#C5F6FA"/>
<ellipse cx="165.031" cy="86.9246" rx="7.15625" ry="7.13208" fill="#C5F6FA"/>
<ellipse cx="165.531" cy="110.132" rx="7.15625" ry="7.13208" fill="#C5F6FA"/>
<ellipse cx="165.531" cy="139.132" rx="7.15625" ry="7.13208" fill="#C5F6FA"/>
<ellipse cx="165.531" cy="166.132" rx="7.15625" ry="7.13208" fill="#C5F6FA"/>
<ellipse cx="7.15625" cy="8.13208" rx="7.15625" ry="7.13208" fill="#C5F6FA"/>
<ellipse cx="33.4688" cy="8.13208" rx="7.15625" ry="7.13208" fill="#C5F6FA"/>
<ellipse cx="59.7812" cy="8.13208" rx="7.15625" ry="7.13208" fill="#C5F6FA"/>
<ellipse cx="86.0938" cy="8.13208" rx="7.15625" ry="7.13208" fill="#C5F6FA"/>
<ellipse cx="112.406" cy="8.13208" rx="7.15625" ry="7.13208" fill="#C5F6FA"/>
<ellipse cx="138.719" cy="8.13208" rx="7.15625" ry="7.13208" fill="#C5F6FA"/>
<ellipse cx="165.031" cy="8.13208" rx="7.15625" ry="7.13208" fill="#C5F6FA"/>
<ellipse cx="191.344" cy="8.13208" rx="7.15625" ry="7.13208" fill="#C5F6FA"/>
<ellipse cx="217.531" cy="8.13208" rx="7.15625" ry="7.13208" fill="#C5F6FA"/>
<ellipse cx="243.531" cy="8.13208" rx="7.15625" ry="7.13208" fill="#C5F6FA"/>
<ellipse cx="269.531" cy="8.13208" rx="7.15625" ry="7.13208" fill="#C5F6FA"/>
<ellipse cx="295.531" cy="8.13208" rx="7.15625" ry="7.13208" fill="#C5F6FA"/>
<ellipse cx="321.531" cy="8.13208" rx="7.15625" ry="7.13208" fill="#C5F6FA"/>
<ellipse cx="347.531" cy="7.13208" rx="7.15625" ry="7.13208" fill="#C5F6FA"/>
<ellipse cx="191.344" cy="34.3962" rx="7.15625" ry="7.13208" fill="#C5F6FA"/>
<ellipse cx="217.531" cy="34.3962" rx="7.15625" ry="7.13208" fill="#C5F6FA"/>
<ellipse cx="243.531" cy="34.3962" rx="7.15625" ry="7.13208" fill="#C5F6FA"/>
<ellipse cx="269.531" cy="34.3962" rx="7.15625" ry="7.13208" fill="#C5F6FA"/>
<ellipse cx="295.531" cy="34.3962" rx="7.15625" ry="7.13208" fill="#C5F6FA"/>
<ellipse cx="321.531" cy="34.3962" rx="7.15625" ry="7.13208" fill="#C5F6FA"/>
<ellipse cx="347.531" cy="33.3962" rx="7.15625" ry="7.13208" fill="#C5F6FA"/>
<ellipse cx="191.531" cy="61.1321" rx="7.15625" ry="7.13208" fill="#C5F6FA"/>
<ellipse cx="217.719" cy="61.1321" rx="7.15625" ry="7.13208" fill="#C5F6FA"/>
<ellipse cx="243.719" cy="61.1321" rx="7.15625" ry="7.13208" fill="#C5F6FA"/>
<ellipse cx="269.719" cy="61.1321" rx="7.15625" ry="7.13208" fill="#C5F6FA"/>
<ellipse cx="295.719" cy="61.1321" rx="7.15625" ry="7.13208" fill="#C5F6FA"/>
<ellipse cx="321.719" cy="61.1321" rx="7.15625" ry="7.13208" fill="#C5F6FA"/>
<ellipse cx="321.531" cy="87.1321" rx="7.15625" ry="7.13208" fill="#C5F6FA"/>
<ellipse cx="191.531" cy="87.1321" rx="7.15625" ry="7.13208" fill="#C5F6FA"/>
<ellipse cx="217.719" cy="87.1321" rx="7.15625" ry="7.13208" fill="#C5F6FA"/>
<ellipse cx="243.719" cy="87.1321" rx="7.15625" ry="7.13208" fill="#C5F6FA"/>
<ellipse cx="269.719" cy="87.1321" rx="7.15625" ry="7.13208" fill="#C5F6FA"/>
<ellipse cx="269.531" cy="110.132" rx="7.15625" ry="7.13208" fill="#C5F6FA"/>
<ellipse cx="191.531" cy="110.132" rx="7.15625" ry="7.13208" fill="#C5F6FA"/>
<ellipse cx="217.719" cy="110.132" rx="7.15625" ry="7.13208" fill="#C5F6FA"/>
<ellipse cx="217.531" cy="132.132" rx="7.15625" ry="7.13208" fill="#C5F6FA"/>
</svg>
