<svg width="744" height="1030" viewBox="0 0 744 1030" fill="none" xmlns="http://www.w3.org/2000/svg">
<mask id="mask0_116_721" style="mask-type:alpha" maskUnits="userSpaceOnUse" x="0" y="0" width="744" height="1030">
<rect width="744" height="1030" fill="#D9D9D9"/>
</mask>
<g mask="url(#mask0_116_721)">
<path fill-rule="evenodd" clip-rule="evenodd" d="M56.9034 63L0 63V64L57.6375 64L56.9034 63ZM79.6529 93.9887L79.6529 127L0 127V128H79.6529V191H0V192H79.6529L79.6529 255H0V256H79.6529V319H0V320H79.6529V383H0V384H79.6529L79.6529 447H0V448H79.6529V511H0V512H79.6529L79.6529 575H0V576H79.6529V639H0V640H79.6529L79.6528 703H0V704H79.6528V767H0V768H79.6528V831H0V832H79.6528L79.6528 895H0V896H79.6528V959H0V960H79.6528L79.6528 1023H0V1024H79.6528V1080H80.6528V1024H159.184V1080H160.184V1024H238.716V1080H239.716V1024H318.248V1080H319.248V1024H397.779V1080H398.779V1024H477.311V1080H478.311V1024H556.842V1080H557.842V1024L636.374 1024V1080H637.374V1024H715.905V1080H716.905V1024H762.394L761.66 1023H716.905V962.037L715.905 960.675V1023H637.374V960H715.41L714.676 959H637.374V896H668.426L667.692 895H637.374V853.701L636.374 852.339V895H557.842V832H621.442L620.708 831H557.842V768H574.459L573.725 767H557.842V745.365L556.842 744.003V767H478.311V704H527.475L526.741 703H478.311V640H480.491L479.757 639H478.311V637.03L477.311 635.668V639H398.779V576H433.508L432.773 575H398.779V528.694L397.779 527.332V575L319.248 575L319.248 512H386.524L385.79 511H319.248V448H339.54L338.806 447H319.248V420.358L318.248 418.996V447H239.716V384H292.556L291.822 383H239.716V320H245.573L244.838 319H239.716V312.022L238.716 310.66V319L160.184 319V256H198.589L197.855 255H160.184V203.687L159.184 202.325V255L80.6529 255L80.6529 192L151.605 192L150.871 191L80.6529 191V128H104.621L103.887 127H80.6529L80.6529 95.3509L79.6529 93.9887ZM795.437 1069.01V1080H796.437V1070.37L795.437 1069.01ZM2366.74 128H2385.95V127H2366.01L2366.74 128ZM2319.76 64.0002L2385.95 64.0002V63.0002L2319.02 63.0002L2319.76 64.0002ZM2307.54 47.3554V0H2306.54V45.9932L2307.54 47.3554ZM636.374 960V1023H557.842V960H636.374ZM556.842 960V1023H478.311V960H556.842ZM477.311 960V1023H398.779V960H477.311ZM397.779 960V1023L319.248 1023V960L397.779 960ZM318.248 960V1023H239.716V960H318.248ZM238.716 960V1023H160.184V960H238.716ZM159.184 960V1023H80.6528L80.6528 960H159.184ZM159.184 959H80.6528V896H159.184L159.184 959ZM159.184 895H80.6528L80.6528 832H159.184V895ZM159.184 831H80.6528V768H159.184V831ZM159.184 767H80.6528V704H159.184V767ZM159.184 703H80.6528L80.6529 640H159.184L159.184 703ZM159.184 639H80.6529V576H159.184V639ZM159.184 575H80.6529L80.6529 512H159.184V575ZM159.184 511H80.6529V448H159.184V511ZM159.184 447H80.6529L80.6529 384H159.184L159.184 447ZM159.184 383H80.6529V320H159.184V383ZM159.184 319H80.6529V256H159.184V319ZM636.374 896V959H557.842V896H636.374ZM556.842 896V959H478.311V896H556.842ZM477.311 896V959H398.779V896H477.311ZM397.779 896V959L319.248 959L319.248 896L397.779 896ZM318.248 896L318.248 959H239.716L239.716 896H318.248ZM238.716 896L238.716 959H160.184L160.184 896H238.716ZM238.716 895H160.184V832H238.716V895ZM238.716 831H160.184V768H238.716V831ZM238.716 767H160.184V704H238.716V767ZM238.716 703H160.184L160.184 640H238.716V703ZM238.716 639H160.184V576H238.716V639ZM238.716 575H160.184V512H238.716L238.716 575ZM238.716 511L160.184 511V448L238.716 448V511ZM238.716 447L160.184 447L160.184 384L238.716 384V447ZM238.716 383L160.184 383V320L238.716 320V383ZM556.842 832V895H478.311V832H556.842ZM477.311 832V895H398.779V832H477.311ZM397.779 832V895L319.248 895V832L397.779 832ZM318.248 832V895H239.716V832H318.248ZM318.248 831H239.716V768H318.248V831ZM318.248 767H239.716V704H318.248V767ZM318.248 703H239.716V640H318.248V703ZM318.248 639H239.716V576H318.248V639ZM318.248 575H239.716L239.716 512H318.248L318.248 575ZM318.248 511H239.716V448H318.248V511ZM556.842 768V831H478.311L478.311 768H556.842ZM477.311 768L477.311 831H398.779L398.779 768H477.311ZM397.779 768L397.779 831L319.248 831V768L397.779 768ZM397.779 767L319.248 767V704L397.779 704V767ZM397.779 703L319.248 703V640L397.779 640V703ZM397.779 639L319.248 639V576L397.779 576V639ZM477.311 704V767H398.779V704H477.311ZM477.311 703H398.779V640H477.311V703Z" fill="#C5F6FA" fill-opacity="0.7"/>
<ellipse cx="7.15625" cy="8.13208" rx="7.15625" ry="7.13208" fill="#C5F6FA"/>
<ellipse cx="7.15625" cy="34.3962" rx="7.15625" ry="7.13208" fill="#C5F6FA"/>
<ellipse cx="33.4688" cy="34.3962" rx="7.15625" ry="7.13208" fill="#C5F6FA"/>
<ellipse cx="33.4688" cy="60.6604" rx="7.15625" ry="7.13208" fill="#C5F6FA"/>
<ellipse cx="59.7812" cy="60.6604" rx="7.15625" ry="7.13208" fill="#C5F6FA"/>
<ellipse cx="59.7812" cy="86.9246" rx="7.15625" ry="7.13208" fill="#C5F6FA"/>
<ellipse cx="86.0938" cy="86.9246" rx="7.15625" ry="7.13208" fill="#C5F6FA"/>
<ellipse cx="86.0938" cy="113.189" rx="7.15625" ry="7.13208" fill="#C5F6FA"/>
<ellipse cx="86.1562" cy="139.132" rx="7.15625" ry="7.13208" fill="#C5F6FA"/>
<ellipse cx="86.1562" cy="166.132" rx="7.15625" ry="7.13208" fill="#C5F6FA"/>
<ellipse cx="86.1562" cy="192.132" rx="7.15625" ry="7.13208" fill="#C5F6FA"/>
<ellipse cx="112.406" cy="113.189" rx="7.15625" ry="7.13208" fill="#C5F6FA"/>
<ellipse cx="112.406" cy="139.453" rx="7.15625" ry="7.13208" fill="#C5F6FA"/>
<ellipse cx="112.156" cy="166.132" rx="7.15625" ry="7.13208" fill="#C5F6FA"/>
<ellipse cx="113.156" cy="192.132" rx="7.15625" ry="7.13208" fill="#C5F6FA"/>
<ellipse cx="113.156" cy="218.132" rx="7.15625" ry="7.13208" fill="#C5F6FA"/>
<ellipse cx="113.156" cy="244.132" rx="7.15625" ry="7.13208" fill="#C5F6FA"/>
<ellipse cx="112.406" cy="86.9246" rx="7.15625" ry="7.13208" fill="#C5F6FA"/>
<ellipse cx="138.719" cy="86.9246" rx="7.15625" ry="7.13208" fill="#C5F6FA"/>
<ellipse cx="139.156" cy="110.132" rx="7.15625" ry="7.13208" fill="#C5F6FA"/>
<ellipse cx="139.156" cy="139.132" rx="7.15625" ry="7.13208" fill="#C5F6FA"/>
<ellipse cx="139.156" cy="166.132" rx="7.15625" ry="7.13208" fill="#C5F6FA"/>
<ellipse cx="165.031" cy="86.9246" rx="7.15625" ry="7.13208" fill="#C5F6FA"/>
<ellipse cx="165.031" cy="113.189" rx="7.15625" ry="7.13208" fill="#C5F6FA"/>
<ellipse cx="165.156" cy="139.132" rx="7.15625" ry="7.13208" fill="#C5F6FA"/>
<ellipse cx="165.156" cy="166.132" rx="7.15625" ry="7.13208" fill="#C5F6FA"/>
<ellipse cx="165.156" cy="192.132" rx="7.15625" ry="7.13208" fill="#C5F6FA"/>
<ellipse cx="59.7812" cy="113.189" rx="7.15625" ry="7.13208" fill="#C5F6FA"/>
<ellipse cx="59.7812" cy="139.453" rx="7.15625" ry="7.13208" fill="#C5F6FA"/>
<ellipse cx="59.7812" cy="165.717" rx="7.15625" ry="7.13208" fill="#C5F6FA"/>
<ellipse cx="59.7812" cy="191.981" rx="7.15625" ry="7.13208" fill="#C5F6FA"/>
<ellipse cx="60.1562" cy="218.132" rx="7.15625" ry="7.13208" fill="#C5F6FA"/>
<ellipse cx="86.1562" cy="218.132" rx="7.15625" ry="7.13208" fill="#C5F6FA"/>
<ellipse cx="60.1562" cy="244.132" rx="7.15625" ry="7.13208" fill="#C5F6FA"/>
<ellipse cx="60.1562" cy="270.132" rx="7.15625" ry="7.13208" fill="#C5F6FA"/>
<ellipse cx="60.1562" cy="296.132" rx="7.15625" ry="7.13208" fill="#C5F6FA"/>
<ellipse cx="86.0938" cy="60.6604" rx="7.15625" ry="7.13208" fill="#C5F6FA"/>
<ellipse cx="112.406" cy="60.6604" rx="7.15625" ry="7.13208" fill="#C5F6FA"/>
<ellipse cx="138.719" cy="60.6604" rx="7.15625" ry="7.13208" fill="#C5F6FA"/>
<ellipse cx="165.031" cy="60.6604" rx="7.15625" ry="7.13208" fill="#C5F6FA"/>
<ellipse cx="191.344" cy="60.6604" rx="7.15625" ry="7.13208" fill="#C5F6FA"/>
<ellipse cx="192.156" cy="87.1321" rx="7.15625" ry="7.13208" fill="#C5F6FA"/>
<ellipse cx="192.156" cy="113.132" rx="7.15625" ry="7.13208" fill="#C5F6FA"/>
<ellipse cx="192.156" cy="139.132" rx="7.15625" ry="7.13208" fill="#C5F6FA"/>
<ellipse cx="33.4688" cy="86.9246" rx="7.15625" ry="7.13208" fill="#C5F6FA"/>
<ellipse cx="33.4688" cy="113.189" rx="7.15625" ry="7.13208" fill="#C5F6FA"/>
<ellipse cx="33.4688" cy="139.453" rx="7.15625" ry="7.13208" fill="#C5F6FA"/>
<ellipse cx="33.4688" cy="165.717" rx="7.15625" ry="7.13208" fill="#C5F6FA"/>
<ellipse cx="34.1562" cy="192.132" rx="7.15625" ry="7.13208" fill="#C5F6FA"/>
<ellipse cx="34.1562" cy="218.132" rx="7.15625" ry="7.13208" fill="#C5F6FA"/>
<ellipse cx="34.1562" cy="244.132" rx="7.15625" ry="7.13208" fill="#C5F6FA"/>
<ellipse cx="33.1562" cy="270.132" rx="7.15625" ry="7.13208" fill="#C5F6FA"/>
<ellipse cx="59.7812" cy="34.3962" rx="7.15625" ry="7.13208" fill="#C5F6FA"/>
<ellipse cx="86.0938" cy="34.3962" rx="7.15625" ry="7.13208" fill="#C5F6FA"/>
<ellipse cx="112.406" cy="34.3962" rx="7.15625" ry="7.13208" fill="#C5F6FA"/>
<ellipse cx="138.719" cy="34.3962" rx="7.15625" ry="7.13208" fill="#C5F6FA"/>
<ellipse cx="165.031" cy="34.3962" rx="7.15625" ry="7.13208" fill="#C5F6FA"/>
<ellipse cx="191.344" cy="34.3962" rx="7.15625" ry="7.13208" fill="#C5F6FA"/>
<ellipse cx="217.656" cy="34.3962" rx="7.15625" ry="7.13208" fill="#C5F6FA"/>
<ellipse cx="217.656" cy="60.6604" rx="7.15625" ry="7.13208" fill="#C5F6FA"/>
<ellipse cx="217.656" cy="86.9246" rx="7.15625" ry="7.13208" fill="#C5F6FA"/>
<ellipse cx="218.156" cy="110.132" rx="7.15625" ry="7.13208" fill="#C5F6FA"/>
<ellipse cx="218.156" cy="139.132" rx="7.15625" ry="7.13208" fill="#C5F6FA"/>
<ellipse cx="218.156" cy="166.132" rx="7.15625" ry="7.13208" fill="#C5F6FA"/>
<ellipse cx="33.4688" cy="8.13208" rx="7.15625" ry="7.13208" fill="#C5F6FA"/>
<ellipse cx="59.7812" cy="8.13208" rx="7.15625" ry="7.13208" fill="#C5F6FA"/>
<ellipse cx="86.0938" cy="8.13208" rx="7.15625" ry="7.13208" fill="#C5F6FA"/>
<ellipse cx="112.406" cy="8.13208" rx="7.15625" ry="7.13208" fill="#C5F6FA"/>
<ellipse cx="138.719" cy="8.13208" rx="7.15625" ry="7.13208" fill="#C5F6FA"/>
<ellipse cx="165.031" cy="8.13208" rx="7.15625" ry="7.13208" fill="#C5F6FA"/>
<ellipse cx="191.344" cy="8.13208" rx="7.15625" ry="7.13208" fill="#C5F6FA"/>
<ellipse cx="217.656" cy="8.13208" rx="7.15625" ry="7.13208" fill="#C5F6FA"/>
<ellipse cx="243.969" cy="8.13208" rx="7.15625" ry="7.13208" fill="#C5F6FA"/>
<ellipse cx="270.156" cy="8.13208" rx="7.15625" ry="7.13208" fill="#C5F6FA"/>
<ellipse cx="296.156" cy="8.13208" rx="7.15625" ry="7.13208" fill="#C5F6FA"/>
<ellipse cx="322.156" cy="8.13208" rx="7.15625" ry="7.13208" fill="#C5F6FA"/>
<ellipse cx="348.156" cy="8.13208" rx="7.15625" ry="7.13208" fill="#C5F6FA"/>
<ellipse cx="374.156" cy="8.13208" rx="7.15625" ry="7.13208" fill="#C5F6FA"/>
<ellipse cx="400.156" cy="7.13208" rx="7.15625" ry="7.13208" fill="#C5F6FA"/>
<ellipse cx="243.969" cy="34.3962" rx="7.15625" ry="7.13208" fill="#C5F6FA"/>
<ellipse cx="270.156" cy="34.3962" rx="7.15625" ry="7.13208" fill="#C5F6FA"/>
<ellipse cx="296.156" cy="34.3962" rx="7.15625" ry="7.13208" fill="#C5F6FA"/>
<ellipse cx="322.156" cy="34.3962" rx="7.15625" ry="7.13208" fill="#C5F6FA"/>
<ellipse cx="348.156" cy="34.3962" rx="7.15625" ry="7.13208" fill="#C5F6FA"/>
<ellipse cx="374.156" cy="34.3962" rx="7.15625" ry="7.13208" fill="#C5F6FA"/>
<ellipse cx="400.156" cy="33.3962" rx="7.15625" ry="7.13208" fill="#C5F6FA"/>
<ellipse cx="244.156" cy="61.1321" rx="7.15625" ry="7.13208" fill="#C5F6FA"/>
<ellipse cx="270.344" cy="61.1321" rx="7.15625" ry="7.13208" fill="#C5F6FA"/>
<ellipse cx="296.344" cy="61.1321" rx="7.15625" ry="7.13208" fill="#C5F6FA"/>
<ellipse cx="322.344" cy="61.1321" rx="7.15625" ry="7.13208" fill="#C5F6FA"/>
<ellipse cx="348.344" cy="61.1321" rx="7.15625" ry="7.13208" fill="#C5F6FA"/>
<ellipse cx="374.344" cy="61.1321" rx="7.15625" ry="7.13208" fill="#C5F6FA"/>
<ellipse cx="374.156" cy="87.1321" rx="7.15625" ry="7.13208" fill="#C5F6FA"/>
<ellipse cx="244.156" cy="87.1321" rx="7.15625" ry="7.13208" fill="#C5F6FA"/>
<ellipse cx="270.344" cy="87.1321" rx="7.15625" ry="7.13208" fill="#C5F6FA"/>
<ellipse cx="296.344" cy="87.1321" rx="7.15625" ry="7.13208" fill="#C5F6FA"/>
<ellipse cx="322.344" cy="87.1321" rx="7.15625" ry="7.13208" fill="#C5F6FA"/>
<ellipse cx="322.156" cy="110.132" rx="7.15625" ry="7.13208" fill="#C5F6FA"/>
<ellipse cx="244.156" cy="110.132" rx="7.15625" ry="7.13208" fill="#C5F6FA"/>
<ellipse cx="270.344" cy="110.132" rx="7.15625" ry="7.13208" fill="#C5F6FA"/>
<ellipse cx="270.156" cy="132.132" rx="7.15625" ry="7.13208" fill="#C5F6FA"/>
<ellipse cx="7.15625" cy="60.6604" rx="7.15625" ry="7.13208" fill="#C5F6FA"/>
<ellipse cx="7.15625" cy="86.9246" rx="7.15625" ry="7.13208" fill="#C5F6FA"/>
<ellipse cx="7.15625" cy="113.189" rx="7.15625" ry="7.13208" fill="#C5F6FA"/>
<ellipse cx="7.15625" cy="139.453" rx="7.15625" ry="7.13208" fill="#C5F6FA"/>
<ellipse cx="7.15625" cy="165.717" rx="7.15625" ry="7.13208" fill="#C5F6FA"/>
<ellipse cx="7.15625" cy="191.981" rx="7.15625" ry="7.13208" fill="#C5F6FA"/>
<ellipse cx="7.15625" cy="218.245" rx="7.15625" ry="7.13208" fill="#C5F6FA"/>
<ellipse cx="7.15625" cy="244.132" rx="7.15625" ry="7.13208" fill="#C5F6FA"/>
<ellipse cx="7.15625" cy="270.132" rx="7.15625" ry="7.13208" fill="#C5F6FA"/>
<ellipse cx="7.15625" cy="296.132" rx="7.15625" ry="7.13208" fill="#C5F6FA"/>
<ellipse cx="7.15625" cy="322.132" rx="7.15625" ry="7.13208" fill="#C5F6FA"/>
<circle cx="160.034" cy="875.63" r="64.9655" fill="#FFC9C9" fill-opacity="0.5"/>
<line x1="88.2938" y1="930.628" x2="146.137" y2="952.387" stroke="#495057" stroke-opacity="0.5" stroke-width="3"/>
<line x1="102.312" y1="943.061" x2="126.355" y2="952.105" stroke="#495057" stroke-opacity="0.5" stroke-width="3"/>
<line x1="81.5936" y1="920.947" x2="157.208" y2="949.392" stroke="#495057" stroke-opacity="0.5" stroke-width="3"/>
<line x1="76.2864" y1="911.791" x2="166.536" y2="945.741" stroke="#495057" stroke-opacity="0.5" stroke-width="3"/>
<line x1="74.4647" y1="903.946" x2="174.123" y2="941.436" stroke="#495057" stroke-opacity="0.5" stroke-width="3"/>
<line x1="72.9915" y1="896.232" x2="180.316" y2="936.605" stroke="#495057" stroke-opacity="0.5" stroke-width="3"/>
<line x1="72.2147" y1="888.78" x2="185.114" y2="931.251" stroke="#495057" stroke-opacity="0.5" stroke-width="3"/>
<line x1="72.4832" y1="881.722" x2="189.564" y2="925.765" stroke="#495057" stroke-opacity="0.5" stroke-width="3"/>
<line x1="73.7972" y1="875.056" x2="192.969" y2="919.886" stroke="#495057" stroke-opacity="0.5" stroke-width="3"/>
<line x1="74.763" y1="868.26" x2="196.374" y2="914.007" stroke="#495057" stroke-opacity="0.5" stroke-width="3"/>
<line x1="77.1229" y1="861.987" x2="198.734" y2="907.735" stroke="#495057" stroke-opacity="0.5" stroke-width="3"/>
<line x1="80.5276" y1="856.109" x2="200.048" y2="901.07" stroke="#495057" stroke-opacity="0.5" stroke-width="3"/>
<line x1="84.2811" y1="850.361" x2="201.014" y2="894.273" stroke="#495057" stroke-opacity="0.5" stroke-width="3"/>
<line x1="88.7313" y1="844.875" x2="201.282" y2="887.214" stroke="#495057" stroke-opacity="0.5" stroke-width="3"/>
<line x1="94.2264" y1="839.782" x2="200.854" y2="879.893" stroke="#495057" stroke-opacity="0.5" stroke-width="3"/>
<line x1="100.419" y1="834.952" x2="199.032" y2="872.048" stroke="#495057" stroke-opacity="0.5" stroke-width="3"/>
<line x1="107.657" y1="830.515" x2="196.165" y2="863.81" stroke="#495057" stroke-opacity="0.5" stroke-width="3"/>
<line x1="116.637" y1="826.733" x2="191.555" y2="854.916" stroke="#495057" stroke-opacity="0.5" stroke-width="3"/>
<line x1="129.45" y1="824.394" x2="184.158" y2="844.974" stroke="#495057" stroke-opacity="0.5" stroke-width="3"/>
<line x1="149.528" y1="824.596" x2="171.481" y2="832.854" stroke="#495057" stroke-opacity="0.5" stroke-width="3"/>
<path d="M529.425 896.591L520.291 851.591L566.945 854.842L562.267 804.884L607.983 809.179L599.552 763.396L646.207 766.647" stroke="#15AABF" stroke-opacity="0.5" stroke-width="6"/>
<path d="M537.084 930.501L527.662 861.763L575.091 866.403L570.738 816.069L615.852 820.071L606.475 774.882L652.127 778.174L668.056 808.46L624.192 804.286L632.32 849.646L587.421 847.205L591.075 894.771L543.009 892.446L549.047 936.501L537.084 930.501Z" fill="#99E9F2" fill-opacity="0.5"/>
<path d="M545.666 926.833L536.532 881.833L583.187 885.084L578.508 835.127L624.224 839.422L615.794 793.639L662.448 796.89" stroke="#15AABF" stroke-opacity="0.5" stroke-width="6"/>
</g>
</svg>
