<svg width="278" height="199" viewBox="0 0 278 199" fill="none" xmlns="http://www.w3.org/2000/svg">
<ellipse cx="7.15625" cy="7.13208" rx="7.15625" ry="7.13208" fill="#C5F6FA"/>
<ellipse cx="7.15625" cy="33.3962" rx="7.15625" ry="7.13208" fill="#C5F6FA"/>
<ellipse cx="33.4688" cy="33.3962" rx="7.15625" ry="7.13208" fill="#C5F6FA"/>
<ellipse cx="33.4688" cy="59.6604" rx="7.15625" ry="7.13208" fill="#C5F6FA"/>
<ellipse cx="59.7812" cy="59.6604" rx="7.15625" ry="7.13208" fill="#C5F6FA"/>
<ellipse cx="59.7812" cy="85.9246" rx="7.15625" ry="7.13208" fill="#C5F6FA"/>
<ellipse cx="86.0938" cy="85.9246" rx="7.15625" ry="7.13208" fill="#C5F6FA"/>
<ellipse cx="86.1562" cy="112.132" rx="7.15625" ry="7.13208" fill="#C5F6FA"/>
<ellipse cx="86.1562" cy="138.132" rx="7.15625" ry="7.13208" fill="#C5F6FA"/>
<ellipse cx="138.719" cy="85.9246" rx="7.15625" ry="7.13208" fill="#C5F6FA"/>
<ellipse cx="139.156" cy="112.132" rx="7.15625" ry="7.13208" fill="#C5F6FA"/>
<ellipse cx="59.7812" cy="112.189" rx="7.15625" ry="7.13208" fill="#C5F6FA"/>
<ellipse cx="59.7812" cy="138.453" rx="7.15625" ry="7.13208" fill="#C5F6FA"/>
<ellipse cx="59.7812" cy="164.717" rx="7.15625" ry="7.13208" fill="#C5F6FA"/>
<ellipse cx="86.0938" cy="59.6604" rx="7.15625" ry="7.13208" fill="#C5F6FA"/>
<ellipse cx="112.406" cy="59.6604" rx="7.15625" ry="7.13208" fill="#C5F6FA"/>
<ellipse cx="112.156" cy="86.1321" rx="7.15625" ry="7.13208" fill="#C5F6FA"/>
<ellipse cx="138.719" cy="59.6604" rx="7.15625" ry="7.13208" fill="#C5F6FA"/>
<ellipse cx="165.031" cy="59.6604" rx="7.15625" ry="7.13208" fill="#C5F6FA"/>
<ellipse cx="191.344" cy="59.6604" rx="7.15625" ry="7.13208" fill="#C5F6FA"/>
<ellipse cx="192.156" cy="86.1321" rx="7.15625" ry="7.13208" fill="#C5F6FA"/>
<ellipse cx="33.4688" cy="85.9246" rx="7.15625" ry="7.13208" fill="#C5F6FA"/>
<ellipse cx="33.4688" cy="112.189" rx="7.15625" ry="7.13208" fill="#C5F6FA"/>
<ellipse cx="33.4688" cy="138.453" rx="7.15625" ry="7.13208" fill="#C5F6FA"/>
<ellipse cx="59.7812" cy="33.3962" rx="7.15625" ry="7.13208" fill="#C5F6FA"/>
<ellipse cx="86.0938" cy="33.3962" rx="7.15625" ry="7.13208" fill="#C5F6FA"/>
<ellipse cx="112.406" cy="33.3962" rx="7.15625" ry="7.13208" fill="#C5F6FA"/>
<ellipse cx="138.719" cy="33.3962" rx="7.15625" ry="7.13208" fill="#C5F6FA"/>
<ellipse cx="165.031" cy="33.3962" rx="7.15625" ry="7.13208" fill="#C5F6FA"/>
<ellipse cx="191.344" cy="33.3962" rx="7.15625" ry="7.13208" fill="#C5F6FA"/>
<ellipse cx="217.656" cy="33.3962" rx="7.15625" ry="7.13208" fill="#C5F6FA"/>
<ellipse cx="33.4688" cy="7.13208" rx="7.15625" ry="7.13208" fill="#C5F6FA"/>
<ellipse cx="59.7812" cy="7.13208" rx="7.15625" ry="7.13208" fill="#C5F6FA"/>
<ellipse cx="86.0938" cy="7.13208" rx="7.15625" ry="7.13208" fill="#C5F6FA"/>
<ellipse cx="112.406" cy="7.13208" rx="7.15625" ry="7.13208" fill="#C5F6FA"/>
<ellipse cx="138.719" cy="7.13208" rx="7.15625" ry="7.13208" fill="#C5F6FA"/>
<ellipse cx="165.031" cy="7.13208" rx="7.15625" ry="7.13208" fill="#C5F6FA"/>
<ellipse cx="191.344" cy="7.13208" rx="7.15625" ry="7.13208" fill="#C5F6FA"/>
<ellipse cx="217.656" cy="7.13208" rx="7.15625" ry="7.13208" fill="#C5F6FA"/>
<ellipse cx="243.969" cy="7.13208" rx="7.15625" ry="7.13208" fill="#C5F6FA"/>
<ellipse cx="270.156" cy="7.13208" rx="7.15625" ry="7.13208" fill="#C5F6FA"/>
<ellipse cx="243.969" cy="33.3962" rx="7.15625" ry="7.13208" fill="#C5F6FA"/>
<ellipse cx="244.156" cy="60.1321" rx="7.15625" ry="7.13208" fill="#C5F6FA"/>
<ellipse cx="7.15625" cy="59.6604" rx="7.15625" ry="7.13208" fill="#C5F6FA"/>
<ellipse cx="7.15625" cy="85.9246" rx="7.15625" ry="7.13208" fill="#C5F6FA"/>
<ellipse cx="7.15625" cy="112.189" rx="7.15625" ry="7.13208" fill="#C5F6FA"/>
<ellipse cx="7.15625" cy="138.453" rx="7.15625" ry="7.13208" fill="#C5F6FA"/>
<ellipse cx="7.15625" cy="164.717" rx="7.15625" ry="7.13208" fill="#C5F6FA"/>
<ellipse cx="7.15625" cy="190.981" rx="7.15625" ry="7.13208" fill="#C5F6FA"/>
</svg>
