<svg width="181" height="196" viewBox="0 0 181 196" fill="none" xmlns="http://www.w3.org/2000/svg">
<path d="M27.4253 154.591L18.2911 109.591L64.9454 112.842L60.2667 62.8843L105.983 67.179L97.5524 21.3963L144.207 24.6474" stroke="#15AABF" stroke-opacity="0.5" stroke-width="6"/>
<path d="M35.0836 188.501L25.662 119.763L73.0909 124.403L68.7384 74.0686L113.852 78.0714L104.475 32.8821L150.127 36.1744L166.056 66.4596L122.192 62.2855L130.32 107.646L85.4205 105.205L89.0752 152.771L41.0088 150.446L47.0471 194.501L35.0836 188.501Z" fill="#99E9F2" fill-opacity="0.5"/>
<path d="M43.6665 184.833L34.5323 139.833L81.1866 143.084L76.5079 93.1269L122.224 97.4216L113.794 51.6389L160.448 54.8899" stroke="#15AABF" stroke-opacity="0.5" stroke-width="6"/>
</svg>
