<svg width="430" height="783" viewBox="0 0 430 783" fill="none" xmlns="http://www.w3.org/2000/svg">
<mask id="mask0_204_158" style="mask-type:alpha" maskUnits="userSpaceOnUse" x="0" y="0" width="430" height="783">
<rect width="430" height="783" fill="#D9D9D9"/>
</mask>
<g mask="url(#mask0_204_158)">
<path fill-rule="evenodd" clip-rule="evenodd" d="M54.6054 45.7288L0 45.7288V46.7288L55.1328 46.7288L54.6054 45.7288ZM57.8523 51.8862V92.3217L0 92.3216V93.3216L57.8523 93.3217L57.8523 138.914H0V139.914H57.8523L57.8523 185.507H0V186.507H57.8523V232.1H0V233.1H57.8523L57.8523 278.693H0V279.693H57.8523L57.8523 325.286H0V326.286H57.8523V371.879H0V372.879H57.8523L57.8523 418.471H0V419.471H57.8523L57.8523 465.064H0V466.064H57.8523V511.657H0V512.657H57.8523L57.8523 558.25H0V559.25H57.8523V604.843H0V605.843H57.8523L57.8523 651.436H0V652.436H57.8523L57.8523 698.028H0V699.028H57.8523V744.621H0V745.621H57.8523L57.8523 786.254H58.8523L58.8523 745.621H115.752V786.254H116.752V745.621H173.652V786.254H174.652V745.621H231.552V786.254H232.552V745.621H289.452V786.254H290.452V745.621H347.352V786.254H348.352V745.621H405.252V786.254H406.252V745.621H423.673L423.145 744.621H406.252V712.586L405.252 710.689V744.621H348.352V699.028H399.103L398.576 698.028H348.352V652.436H374.534L374.007 651.436H348.352V605.843H349.965L349.437 604.843H348.352V602.785L347.352 600.889V604.843H290.452V559.25H325.395L324.868 558.25H290.452V512.657H300.826L300.299 511.657H290.452V492.985L289.452 491.088V511.657H232.552V466.064H276.257L275.729 465.064H232.552V419.471H251.687L251.16 418.471H232.552L232.552 383.184L231.552 381.288L231.552 418.471L174.652 418.471L174.652 372.879L227.118 372.879L226.591 371.879L174.652 371.879V326.286H202.549L202.021 325.286H174.652V279.693H177.979L177.452 278.693H174.652V273.384L173.652 271.487V278.693H116.752L116.752 233.1L153.41 233.1L152.883 232.1L116.752 232.1V186.507H128.841L128.313 185.507H116.752V163.583L115.752 161.687V185.507L58.8523 185.507L58.8523 139.914L104.271 139.914L103.744 138.914L58.8523 138.914L58.8523 93.3217H79.7021L79.1748 92.3217H58.8523V53.7826L57.8523 51.8862ZM1719.56 186.507H1737V185.507H1719.03L1719.56 186.507ZM1694.99 139.915H1737V138.915H1694.47L1694.99 139.915ZM1680.05 111.582V93.3218L1737 93.3218V92.3218L1680.05 92.3218V46.7289L1737 46.7289V45.7289L1680.05 45.7289V0H1679.05V45.7289L1645.33 45.7289L1645.85 46.7289L1679.05 46.7289V92.3218H1669.9L1670.42 93.3218H1679.05V109.685L1680.05 111.582ZM1622.15 1.78125V0H1621.21L1622.15 1.78125ZM347.352 699.028V744.621H290.452V699.028H347.352ZM289.452 699.028V744.621H232.552V699.028H289.452ZM231.552 699.028V744.621H174.652V699.028H231.552ZM173.652 699.028V744.621H116.752L116.752 699.028H173.652ZM115.752 699.028L115.752 744.621H58.8523V699.028H115.752ZM115.752 698.028H58.8523L58.8523 652.436H115.752V698.028ZM115.752 651.436H58.8523L58.8523 605.843H115.752V651.436ZM115.752 604.843H58.8523V559.25H115.752V604.843ZM115.752 558.25H58.8523L58.8523 512.657H115.752L115.752 558.25ZM115.752 511.657H58.8523V466.064H115.752V511.657ZM115.752 465.064H58.8523L58.8523 419.471H115.752V465.064ZM115.752 418.471H58.8523L58.8523 372.879H115.752L115.752 418.471ZM115.752 371.879H58.8523V326.286H115.752V371.879ZM115.752 325.286H58.8523L58.8523 279.693H115.752V325.286ZM115.752 278.693H58.8523L58.8523 233.1H115.752L115.752 278.693ZM115.752 232.1H58.8523V186.507L115.752 186.507V232.1ZM347.352 652.436V698.028H290.452V652.436H347.352ZM289.452 652.436V698.028H232.552L232.552 652.436H289.452ZM231.552 652.436L231.552 698.028H174.652L174.652 652.436H231.552ZM173.652 652.436L173.652 698.028H116.752V652.436H173.652ZM173.652 651.436H116.752V605.843H173.652V651.436ZM173.652 604.843H116.752V559.25H173.652V604.843ZM173.652 558.25H116.752L116.752 512.657H173.652V558.25ZM173.652 511.657H116.752V466.064H173.652V511.657ZM173.652 465.064H116.752V419.471H173.652V465.064ZM173.652 418.471H116.752L116.752 372.879H173.652L173.652 418.471ZM173.652 371.879H116.752V326.286H173.652V371.879ZM173.652 325.286H116.752V279.693H173.652V325.286ZM347.352 605.843V651.436H290.452V605.843H347.352ZM289.452 605.843V651.436H232.552V605.843H289.452ZM231.552 605.843V651.436H174.652V605.843H231.552ZM231.552 604.843H174.652V559.25H231.552V604.843ZM231.552 558.25H174.652V512.657H231.552V558.25ZM231.552 511.657H174.652V466.064L231.552 466.064V511.657ZM231.552 465.064L174.652 465.064V419.471L231.552 419.471V465.064ZM289.452 559.25V604.843H232.552V559.25H289.452ZM289.452 558.25H232.552V512.657H289.452V558.25Z" fill="#C5F6FA" fill-opacity="0.7"/>
</g>
</svg>
