<svg width="381" height="408" viewBox="0 0 381 408" fill="none" xmlns="http://www.w3.org/2000/svg">
<ellipse cx="7.40625" cy="112.189" rx="7.15625" ry="7.13208" fill="#C5F6FA"/>
<ellipse cx="7.40625" cy="138.453" rx="7.15625" ry="7.13208" fill="#C5F6FA"/>
<ellipse cx="7.40625" cy="164.717" rx="7.15625" ry="7.13208" fill="#C5F6FA"/>
<ellipse cx="7.40625" cy="190.981" rx="7.15625" ry="7.13208" fill="#C5F6FA"/>
<ellipse cx="7.40625" cy="217.245" rx="7.15625" ry="7.13208" fill="#C5F6FA"/>
<ellipse cx="7.15625" cy="243.132" rx="7.15625" ry="7.13208" fill="#C5F6FA"/>
<ellipse cx="7.15625" cy="270.132" rx="7.15625" ry="7.13208" fill="#C5F6FA"/>
<ellipse cx="7.15625" cy="296.132" rx="7.15625" ry="7.13208" fill="#C5F6FA"/>
<ellipse cx="7.15625" cy="322.132" rx="7.15625" ry="7.13208" fill="#C5F6FA"/>
<ellipse cx="7.15625" cy="348.132" rx="7.15625" ry="7.13208" fill="#C5F6FA"/>
<ellipse cx="7.15625" cy="374.132" rx="7.15625" ry="7.13208" fill="#C5F6FA"/>
<ellipse cx="7.15625" cy="400.132" rx="7.15625" ry="7.13208" fill="#C5F6FA"/>
<ellipse cx="33.7188" cy="112.189" rx="7.15625" ry="7.13208" fill="#C5F6FA"/>
<ellipse cx="33.7188" cy="138.453" rx="7.15625" ry="7.13208" fill="#C5F6FA"/>
<ellipse cx="33.7188" cy="164.717" rx="7.15625" ry="7.13208" fill="#C5F6FA"/>
<ellipse cx="34.1562" cy="191.132" rx="7.15625" ry="7.13208" fill="#C5F6FA"/>
<ellipse cx="34.1562" cy="217.132" rx="7.15625" ry="7.13208" fill="#C5F6FA"/>
<ellipse cx="34.1562" cy="243.132" rx="7.15625" ry="7.13208" fill="#C5F6FA"/>
<ellipse cx="34.1562" cy="270.132" rx="7.15625" ry="7.13208" fill="#C5F6FA"/>
<ellipse cx="34.1562" cy="296.132" rx="7.15625" ry="7.13208" fill="#C5F6FA"/>
<ellipse cx="34.1562" cy="322.132" rx="7.15625" ry="7.13208" fill="#C5F6FA"/>
<ellipse cx="34.1562" cy="348.132" rx="7.15625" ry="7.13208" fill="#C5F6FA"/>
<ellipse cx="7.40625" cy="85.9246" rx="7.15625" ry="7.13208" fill="#C5F6FA"/>
<ellipse cx="33.7188" cy="85.9246" rx="7.15625" ry="7.13208" fill="#C5F6FA"/>
<ellipse cx="60.0312" cy="85.9246" rx="7.15625" ry="7.13208" fill="#C5F6FA"/>
<ellipse cx="60.0312" cy="112.189" rx="7.15625" ry="7.13208" fill="#C5F6FA"/>
<ellipse cx="60.0312" cy="138.453" rx="7.15625" ry="7.13208" fill="#C5F6FA"/>
<ellipse cx="60.0312" cy="164.717" rx="7.15625" ry="7.13208" fill="#C5F6FA"/>
<ellipse cx="60.0312" cy="190.981" rx="7.15625" ry="7.13208" fill="#C5F6FA"/>
<ellipse cx="60.1562" cy="217.132" rx="7.15625" ry="7.13208" fill="#C5F6FA"/>
<ellipse cx="60.1562" cy="243.132" rx="7.15625" ry="7.13208" fill="#C5F6FA"/>
<ellipse cx="60.1562" cy="270.132" rx="7.15625" ry="7.13208" fill="#C5F6FA"/>
<ellipse cx="60.1562" cy="296.132" rx="7.15625" ry="7.13208" fill="#C5F6FA"/>
<ellipse cx="60.1562" cy="322.132" rx="7.15625" ry="7.13208" fill="#C5F6FA"/>
<ellipse cx="60.1562" cy="348.132" rx="7.15625" ry="7.13208" fill="#C5F6FA"/>
<ellipse cx="60.1562" cy="374.132" rx="7.15625" ry="7.13208" fill="#C5F6FA"/>
<ellipse cx="7.40625" cy="59.6604" rx="7.15625" ry="7.13208" fill="#C5F6FA"/>
<ellipse cx="33.7188" cy="59.6604" rx="7.15625" ry="7.13208" fill="#C5F6FA"/>
<ellipse cx="60.0312" cy="59.6604" rx="7.15625" ry="7.13208" fill="#C5F6FA"/>
<ellipse cx="86.3438" cy="59.6604" rx="7.15625" ry="7.13208" fill="#C5F6FA"/>
<ellipse cx="86.3438" cy="85.9246" rx="7.15625" ry="7.13208" fill="#C5F6FA"/>
<ellipse cx="86.3438" cy="112.189" rx="7.15625" ry="7.13208" fill="#C5F6FA"/>
<ellipse cx="86.3438" cy="138.453" rx="7.15625" ry="7.13208" fill="#C5F6FA"/>
<ellipse cx="86.1562" cy="165.132" rx="7.15625" ry="7.13208" fill="#C5F6FA"/>
<ellipse cx="86.1562" cy="191.132" rx="7.15625" ry="7.13208" fill="#C5F6FA"/>
<ellipse cx="86.1562" cy="217.132" rx="7.15625" ry="7.13208" fill="#C5F6FA"/>
<ellipse cx="86.1562" cy="243.132" rx="7.15625" ry="7.13208" fill="#C5F6FA"/>
<ellipse cx="86.1562" cy="270.132" rx="7.15625" ry="7.13208" fill="#C5F6FA"/>
<ellipse cx="86.1562" cy="296.132" rx="7.15625" ry="7.13208" fill="#C5F6FA"/>
<ellipse cx="86.1562" cy="322.132" rx="7.15625" ry="7.13208" fill="#C5F6FA"/>
<ellipse cx="7.40625" cy="33.3962" rx="7.15625" ry="7.13208" fill="#C5F6FA"/>
<ellipse cx="33.7188" cy="33.3962" rx="7.15625" ry="7.13208" fill="#C5F6FA"/>
<ellipse cx="60.0312" cy="33.3962" rx="7.15625" ry="7.13208" fill="#C5F6FA"/>
<ellipse cx="86.3438" cy="33.3962" rx="7.15625" ry="7.13208" fill="#C5F6FA"/>
<ellipse cx="112.656" cy="33.3962" rx="7.15625" ry="7.13208" fill="#C5F6FA"/>
<ellipse cx="112.656" cy="59.6604" rx="7.15625" ry="7.13208" fill="#C5F6FA"/>
<ellipse cx="112.656" cy="85.9246" rx="7.15625" ry="7.13208" fill="#C5F6FA"/>
<ellipse cx="112.656" cy="112.189" rx="7.15625" ry="7.13208" fill="#C5F6FA"/>
<ellipse cx="112.656" cy="138.453" rx="7.15625" ry="7.13208" fill="#C5F6FA"/>
<ellipse cx="112.656" cy="164.717" rx="7.15625" ry="7.13208" fill="#C5F6FA"/>
<ellipse cx="113.156" cy="191.132" rx="7.15625" ry="7.13208" fill="#C5F6FA"/>
<ellipse cx="113.156" cy="217.132" rx="7.15625" ry="7.13208" fill="#C5F6FA"/>
<ellipse cx="113.156" cy="243.132" rx="7.15625" ry="7.13208" fill="#C5F6FA"/>
<ellipse cx="113.156" cy="270.132" rx="7.15625" ry="7.13208" fill="#C5F6FA"/>
<ellipse cx="113.156" cy="296.132" rx="7.15625" ry="7.13208" fill="#C5F6FA"/>
<ellipse cx="113.156" cy="322.132" rx="7.15625" ry="7.13208" fill="#C5F6FA"/>
<ellipse cx="113.156" cy="348.132" rx="7.15625" ry="7.13208" fill="#C5F6FA"/>
<ellipse cx="7.40625" cy="7.13208" rx="7.15625" ry="7.13208" fill="#C5F6FA"/>
<ellipse cx="33.7188" cy="7.13208" rx="7.15625" ry="7.13208" fill="#C5F6FA"/>
<ellipse cx="60.0312" cy="7.13208" rx="7.15625" ry="7.13208" fill="#C5F6FA"/>
<ellipse cx="86.3438" cy="7.13208" rx="7.15625" ry="7.13208" fill="#C5F6FA"/>
<ellipse cx="112.656" cy="7.13208" rx="7.15625" ry="7.13208" fill="#C5F6FA"/>
<ellipse cx="138.969" cy="7.13208" rx="7.15625" ry="7.13208" fill="#C5F6FA"/>
<ellipse cx="165.156" cy="7.13208" rx="7.15625" ry="7.13208" fill="#C5F6FA"/>
<ellipse cx="191.156" cy="7.13208" rx="7.15625" ry="7.13208" fill="#C5F6FA"/>
<ellipse cx="217.156" cy="7.13208" rx="7.15625" ry="7.13208" fill="#C5F6FA"/>
<ellipse cx="243.156" cy="7.13208" rx="7.15625" ry="7.13208" fill="#C5F6FA"/>
<ellipse cx="295.156" cy="7.13208" rx="7.15625" ry="7.13208" fill="#C5F6FA"/>
<ellipse cx="269.156" cy="7.13208" rx="7.15625" ry="7.13208" fill="#C5F6FA"/>
<ellipse cx="321.156" cy="8.13208" rx="7.15625" ry="7.13208" fill="#C5F6FA"/>
<ellipse cx="347.156" cy="8.13208" rx="7.15625" ry="7.13208" fill="#C5F6FA"/>
<ellipse cx="373.156" cy="7.13208" rx="7.15625" ry="7.13208" fill="#C5F6FA"/>
<ellipse cx="138.969" cy="33.3962" rx="7.15625" ry="7.13208" fill="#C5F6FA"/>
<ellipse cx="165.156" cy="33.3962" rx="7.15625" ry="7.13208" fill="#C5F6FA"/>
<ellipse cx="191.156" cy="33.3962" rx="7.15625" ry="7.13208" fill="#C5F6FA"/>
<ellipse cx="217.156" cy="33.3962" rx="7.15625" ry="7.13208" fill="#C5F6FA"/>
<ellipse cx="243.156" cy="33.3962" rx="7.15625" ry="7.13208" fill="#C5F6FA"/>
<ellipse cx="295.156" cy="33.3962" rx="7.15625" ry="7.13208" fill="#C5F6FA"/>
<ellipse cx="269.156" cy="33.3962" rx="7.15625" ry="7.13208" fill="#C5F6FA"/>
<ellipse cx="321.156" cy="34.3962" rx="7.15625" ry="7.13208" fill="#C5F6FA"/>
<ellipse cx="347.156" cy="34.3962" rx="7.15625" ry="7.13208" fill="#C5F6FA"/>
<ellipse cx="373.156" cy="33.3962" rx="7.15625" ry="7.13208" fill="#C5F6FA"/>
<ellipse cx="138.969" cy="59.6604" rx="7.15625" ry="7.13208" fill="#C5F6FA"/>
<ellipse cx="165.156" cy="59.6604" rx="7.15625" ry="7.13208" fill="#C5F6FA"/>
<ellipse cx="191.156" cy="59.6604" rx="7.15625" ry="7.13208" fill="#C5F6FA"/>
<ellipse cx="217.156" cy="59.6604" rx="7.15625" ry="7.13208" fill="#C5F6FA"/>
<ellipse cx="243.156" cy="59.6604" rx="7.15625" ry="7.13208" fill="#C5F6FA"/>
<ellipse cx="295.156" cy="59.6604" rx="7.15625" ry="7.13208" fill="#C5F6FA"/>
<ellipse cx="269.156" cy="59.6604" rx="7.15625" ry="7.13208" fill="#C5F6FA"/>
<ellipse cx="321.156" cy="60.6604" rx="7.15625" ry="7.13208" fill="#C5F6FA"/>
<ellipse cx="347.156" cy="60.6604" rx="7.15625" ry="7.13208" fill="#C5F6FA"/>
<ellipse cx="373.156" cy="59.6604" rx="7.15625" ry="7.13208" fill="#C5F6FA"/>
<ellipse cx="138.969" cy="85.9246" rx="7.15625" ry="7.13208" fill="#C5F6FA"/>
<ellipse cx="165.156" cy="85.9246" rx="7.15625" ry="7.13208" fill="#C5F6FA"/>
<ellipse cx="191.156" cy="85.9246" rx="7.15625" ry="7.13208" fill="#C5F6FA"/>
<ellipse cx="217.156" cy="85.9246" rx="7.15625" ry="7.13208" fill="#C5F6FA"/>
<ellipse cx="243.156" cy="85.9246" rx="7.15625" ry="7.13208" fill="#C5F6FA"/>
<ellipse cx="295.156" cy="85.9246" rx="7.15625" ry="7.13208" fill="#C5F6FA"/>
<ellipse cx="269.156" cy="85.9246" rx="7.15625" ry="7.13208" fill="#C5F6FA"/>
<ellipse cx="321.156" cy="86.9246" rx="7.15625" ry="7.13208" fill="#C5F6FA"/>
<ellipse cx="347.156" cy="86.9246" rx="7.15625" ry="7.13208" fill="#C5F6FA"/>
<ellipse cx="373.156" cy="85.9246" rx="7.15625" ry="7.13208" fill="#C5F6FA"/>
<ellipse cx="138.969" cy="112.189" rx="7.15625" ry="7.13208" fill="#C5F6FA"/>
<ellipse cx="165.156" cy="112.189" rx="7.15625" ry="7.13208" fill="#C5F6FA"/>
<ellipse cx="191.156" cy="112.189" rx="7.15625" ry="7.13208" fill="#C5F6FA"/>
<ellipse cx="217.156" cy="112.189" rx="7.15625" ry="7.13208" fill="#C5F6FA"/>
<ellipse cx="243.156" cy="112.189" rx="7.15625" ry="7.13208" fill="#C5F6FA"/>
<ellipse cx="295.156" cy="112.189" rx="7.15625" ry="7.13208" fill="#C5F6FA"/>
<ellipse cx="269.156" cy="112.189" rx="7.15625" ry="7.13208" fill="#C5F6FA"/>
<ellipse cx="321.156" cy="113.189" rx="7.15625" ry="7.13208" fill="#C5F6FA"/>
<ellipse cx="347.156" cy="113.189" rx="7.15625" ry="7.13208" fill="#C5F6FA"/>
<ellipse cx="373.156" cy="112.189" rx="7.15625" ry="7.13208" fill="#C5F6FA"/>
<ellipse cx="139.156" cy="139.132" rx="7.15625" ry="7.13208" fill="#C5F6FA"/>
<ellipse cx="165.344" cy="139.132" rx="7.15625" ry="7.13208" fill="#C5F6FA"/>
<ellipse cx="191.344" cy="139.132" rx="7.15625" ry="7.13208" fill="#C5F6FA"/>
<ellipse cx="217.344" cy="139.132" rx="7.15625" ry="7.13208" fill="#C5F6FA"/>
<ellipse cx="243.344" cy="139.132" rx="7.15625" ry="7.13208" fill="#C5F6FA"/>
<ellipse cx="295.344" cy="139.132" rx="7.15625" ry="7.13208" fill="#C5F6FA"/>
<ellipse cx="269.344" cy="139.132" rx="7.15625" ry="7.13208" fill="#C5F6FA"/>
<ellipse cx="321.344" cy="140.132" rx="7.15625" ry="7.13208" fill="#C5F6FA"/>
<ellipse cx="347.344" cy="140.132" rx="7.15625" ry="7.13208" fill="#C5F6FA"/>
<ellipse cx="139.156" cy="165.132" rx="7.15625" ry="7.13208" fill="#C5F6FA"/>
<ellipse cx="165.344" cy="165.132" rx="7.15625" ry="7.13208" fill="#C5F6FA"/>
<ellipse cx="191.344" cy="165.132" rx="7.15625" ry="7.13208" fill="#C5F6FA"/>
<ellipse cx="217.344" cy="165.132" rx="7.15625" ry="7.13208" fill="#C5F6FA"/>
<ellipse cx="243.344" cy="165.132" rx="7.15625" ry="7.13208" fill="#C5F6FA"/>
<ellipse cx="295.344" cy="165.132" rx="7.15625" ry="7.13208" fill="#C5F6FA"/>
<ellipse cx="269.344" cy="165.132" rx="7.15625" ry="7.13208" fill="#C5F6FA"/>
<ellipse cx="321.344" cy="166.132" rx="7.15625" ry="7.13208" fill="#C5F6FA"/>
<ellipse cx="347.344" cy="166.132" rx="7.15625" ry="7.13208" fill="#C5F6FA"/>
<ellipse cx="139.156" cy="191.132" rx="7.15625" ry="7.13208" fill="#C5F6FA"/>
<ellipse cx="165.344" cy="191.132" rx="7.15625" ry="7.13208" fill="#C5F6FA"/>
<ellipse cx="191.344" cy="191.132" rx="7.15625" ry="7.13208" fill="#C5F6FA"/>
<ellipse cx="217.344" cy="191.132" rx="7.15625" ry="7.13208" fill="#C5F6FA"/>
<ellipse cx="243.344" cy="191.132" rx="7.15625" ry="7.13208" fill="#C5F6FA"/>
<ellipse cx="295.344" cy="191.132" rx="7.15625" ry="7.13208" fill="#C5F6FA"/>
<ellipse cx="269.344" cy="191.132" rx="7.15625" ry="7.13208" fill="#C5F6FA"/>
<ellipse cx="139.156" cy="217.132" rx="7.15625" ry="7.13208" fill="#C5F6FA"/>
<ellipse cx="165.344" cy="217.132" rx="7.15625" ry="7.13208" fill="#C5F6FA"/>
<ellipse cx="191.344" cy="217.132" rx="7.15625" ry="7.13208" fill="#C5F6FA"/>
<ellipse cx="217.344" cy="217.132" rx="7.15625" ry="7.13208" fill="#C5F6FA"/>
<ellipse cx="243.344" cy="217.132" rx="7.15625" ry="7.13208" fill="#C5F6FA"/>
<ellipse cx="295.344" cy="217.132" rx="7.15625" ry="7.13208" fill="#C5F6FA"/>
<ellipse cx="269.344" cy="217.132" rx="7.15625" ry="7.13208" fill="#C5F6FA"/>
<ellipse cx="139.156" cy="243.132" rx="7.15625" ry="7.13208" fill="#C5F6FA"/>
<ellipse cx="165.344" cy="243.132" rx="7.15625" ry="7.13208" fill="#C5F6FA"/>
<ellipse cx="191.344" cy="243.132" rx="7.15625" ry="7.13208" fill="#C5F6FA"/>
<ellipse cx="217.344" cy="243.132" rx="7.15625" ry="7.13208" fill="#C5F6FA"/>
<ellipse cx="243.344" cy="243.132" rx="7.15625" ry="7.13208" fill="#C5F6FA"/>
<ellipse cx="295.344" cy="243.132" rx="7.15625" ry="7.13208" fill="#C5F6FA"/>
<ellipse cx="139.156" cy="270.132" rx="7.15625" ry="7.13208" fill="#C5F6FA"/>
<ellipse cx="165.344" cy="270.132" rx="7.15625" ry="7.13208" fill="#C5F6FA"/>
<ellipse cx="191.344" cy="270.132" rx="7.15625" ry="7.13208" fill="#C5F6FA"/>
<ellipse cx="217.344" cy="270.132" rx="7.15625" ry="7.13208" fill="#C5F6FA"/>
<ellipse cx="139.156" cy="296.132" rx="7.15625" ry="7.13208" fill="#C5F6FA"/>
<ellipse cx="165.344" cy="296.132" rx="7.15625" ry="7.13208" fill="#C5F6FA"/>
<ellipse cx="165.156" cy="322.132" rx="7.15625" ry="7.13208" fill="#C5F6FA"/>
<ellipse cx="243.156" cy="270.132" rx="7.15625" ry="7.13208" fill="#C5F6FA"/>
</svg>
