<svg width="486" height="487" viewBox="0 0 486 487" fill="none" xmlns="http://www.w3.org/2000/svg">
<ellipse cx="7.15625" cy="8.04882" rx="7.15625" ry="7.13208" fill="#C5F6FA"/>
<ellipse cx="7.15625" cy="34.313" rx="7.15625" ry="7.13208" fill="#C5F6FA"/>
<ellipse cx="33.4688" cy="34.313" rx="7.15625" ry="7.13208" fill="#C5F6FA"/>
<ellipse cx="33.4688" cy="60.5771" rx="7.15625" ry="7.13208" fill="#C5F6FA"/>
<ellipse cx="59.7812" cy="60.5771" rx="7.15625" ry="7.13208" fill="#C5F6FA"/>
<ellipse cx="59.7812" cy="86.8413" rx="7.15625" ry="7.13208" fill="#C5F6FA"/>
<ellipse cx="86.0938" cy="86.8413" rx="7.15625" ry="7.13208" fill="#C5F6FA"/>
<ellipse cx="86.0938" cy="113.105" rx="7.15625" ry="7.13208" fill="#C5F6FA"/>
<ellipse cx="112.406" cy="113.105" rx="7.15625" ry="7.13208" fill="#C5F6FA"/>
<ellipse cx="112.406" cy="139.37" rx="7.15625" ry="7.13208" fill="#C5F6FA"/>
<ellipse cx="112.406" cy="165.634" rx="7.15625" ry="7.13208" fill="#C5F6FA"/>
<ellipse cx="112.406" cy="191.898" rx="7.15625" ry="7.13208" fill="#C5F6FA"/>
<ellipse cx="112.406" cy="218.162" rx="7.15625" ry="7.13208" fill="#C5F6FA"/>
<ellipse cx="112.156" cy="244.049" rx="7.15625" ry="7.13208" fill="#C5F6FA"/>
<ellipse cx="112.156" cy="271.049" rx="7.15625" ry="7.13208" fill="#C5F6FA"/>
<ellipse cx="112.156" cy="297.049" rx="7.15625" ry="7.13208" fill="#C5F6FA"/>
<ellipse cx="112.156" cy="323.049" rx="7.15625" ry="7.13208" fill="#C5F6FA"/>
<ellipse cx="112.156" cy="349.049" rx="7.15625" ry="7.13208" fill="#C5F6FA"/>
<ellipse cx="112.156" cy="375.049" rx="7.15625" ry="7.13208" fill="#C5F6FA"/>
<ellipse cx="112.156" cy="401.049" rx="7.15625" ry="7.13208" fill="#C5F6FA"/>
<ellipse cx="138.719" cy="113.105" rx="7.15625" ry="7.13208" fill="#C5F6FA"/>
<ellipse cx="138.719" cy="139.37" rx="7.15625" ry="7.13208" fill="#C5F6FA"/>
<ellipse cx="138.719" cy="165.634" rx="7.15625" ry="7.13208" fill="#C5F6FA"/>
<ellipse cx="139.156" cy="192.049" rx="7.15625" ry="7.13208" fill="#C5F6FA"/>
<ellipse cx="139.156" cy="218.049" rx="7.15625" ry="7.13208" fill="#C5F6FA"/>
<ellipse cx="139.156" cy="244.049" rx="7.15625" ry="7.13208" fill="#C5F6FA"/>
<ellipse cx="139.156" cy="271.049" rx="7.15625" ry="7.13208" fill="#C5F6FA"/>
<ellipse cx="139.156" cy="297.049" rx="7.15625" ry="7.13208" fill="#C5F6FA"/>
<ellipse cx="139.156" cy="323.049" rx="7.15625" ry="7.13208" fill="#C5F6FA"/>
<ellipse cx="139.156" cy="349.049" rx="7.15625" ry="7.13208" fill="#C5F6FA"/>
<ellipse cx="86.0938" cy="139.37" rx="7.15625" ry="7.13208" fill="#C5F6FA"/>
<ellipse cx="86.0938" cy="165.634" rx="7.15625" ry="7.13208" fill="#C5F6FA"/>
<ellipse cx="86.0938" cy="191.898" rx="7.15625" ry="7.13208" fill="#C5F6FA"/>
<ellipse cx="86.1562" cy="218.049" rx="7.15625" ry="7.13208" fill="#C5F6FA"/>
<ellipse cx="86.1562" cy="244.049" rx="7.15625" ry="7.13208" fill="#C5F6FA"/>
<ellipse cx="86.1562" cy="271.049" rx="7.15625" ry="7.13208" fill="#C5F6FA"/>
<ellipse cx="86.1562" cy="297.049" rx="7.15625" ry="7.13208" fill="#C5F6FA"/>
<ellipse cx="86.1562" cy="323.049" rx="7.15625" ry="7.13208" fill="#C5F6FA"/>
<ellipse cx="86.1562" cy="349.049" rx="7.15625" ry="7.13208" fill="#C5F6FA"/>
<ellipse cx="87.1562" cy="375.049" rx="7.15625" ry="7.13208" fill="#C5F6FA"/>
<ellipse cx="112.406" cy="86.8413" rx="7.15625" ry="7.13208" fill="#C5F6FA"/>
<ellipse cx="138.719" cy="86.8413" rx="7.15625" ry="7.13208" fill="#C5F6FA"/>
<ellipse cx="165.031" cy="86.8413" rx="7.15625" ry="7.13208" fill="#C5F6FA"/>
<ellipse cx="165.031" cy="113.105" rx="7.15625" ry="7.13208" fill="#C5F6FA"/>
<ellipse cx="165.031" cy="139.37" rx="7.15625" ry="7.13208" fill="#C5F6FA"/>
<ellipse cx="165.031" cy="165.634" rx="7.15625" ry="7.13208" fill="#C5F6FA"/>
<ellipse cx="165.031" cy="191.898" rx="7.15625" ry="7.13208" fill="#C5F6FA"/>
<ellipse cx="165.156" cy="218.049" rx="7.15625" ry="7.13208" fill="#C5F6FA"/>
<ellipse cx="165.156" cy="244.049" rx="7.15625" ry="7.13208" fill="#C5F6FA"/>
<ellipse cx="165.156" cy="271.049" rx="7.15625" ry="7.13208" fill="#C5F6FA"/>
<ellipse cx="165.156" cy="297.049" rx="7.15625" ry="7.13208" fill="#C5F6FA"/>
<ellipse cx="165.156" cy="323.049" rx="7.15625" ry="7.13208" fill="#C5F6FA"/>
<ellipse cx="165.156" cy="349.049" rx="7.15625" ry="7.13208" fill="#C5F6FA"/>
<ellipse cx="165.156" cy="375.049" rx="7.15625" ry="7.13208" fill="#C5F6FA"/>
<ellipse cx="59.7812" cy="113.105" rx="7.15625" ry="7.13208" fill="#C5F6FA"/>
<ellipse cx="59.7812" cy="139.37" rx="7.15625" ry="7.13208" fill="#C5F6FA"/>
<ellipse cx="59.7812" cy="165.634" rx="7.15625" ry="7.13208" fill="#C5F6FA"/>
<ellipse cx="59.7812" cy="191.898" rx="7.15625" ry="7.13208" fill="#C5F6FA"/>
<ellipse cx="59.7812" cy="218.162" rx="7.15625" ry="7.13208" fill="#C5F6FA"/>
<ellipse cx="59.7812" cy="244.426" rx="7.15625" ry="7.13208" fill="#C5F6FA"/>
<ellipse cx="60.1562" cy="271.049" rx="7.15625" ry="7.13208" fill="#C5F6FA"/>
<ellipse cx="60.1562" cy="297.049" rx="7.15625" ry="7.13208" fill="#C5F6FA"/>
<ellipse cx="60.1562" cy="323.049" rx="7.15625" ry="7.13208" fill="#C5F6FA"/>
<ellipse cx="60.1562" cy="349.049" rx="7.15625" ry="7.13208" fill="#C5F6FA"/>
<ellipse cx="60.1562" cy="375.049" rx="7.15625" ry="7.13208" fill="#C5F6FA"/>
<ellipse cx="60.1562" cy="401.049" rx="7.15625" ry="7.13208" fill="#C5F6FA"/>
<ellipse cx="60.1562" cy="427.049" rx="7.15625" ry="7.13208" fill="#C5F6FA"/>
<ellipse cx="60.1562" cy="453.049" rx="7.15625" ry="7.13208" fill="#C5F6FA"/>
<ellipse cx="86.0938" cy="60.5771" rx="7.15625" ry="7.13208" fill="#C5F6FA"/>
<ellipse cx="112.406" cy="60.5771" rx="7.15625" ry="7.13208" fill="#C5F6FA"/>
<ellipse cx="138.719" cy="60.5771" rx="7.15625" ry="7.13208" fill="#C5F6FA"/>
<ellipse cx="165.031" cy="60.5771" rx="7.15625" ry="7.13208" fill="#C5F6FA"/>
<ellipse cx="191.344" cy="60.5771" rx="7.15625" ry="7.13208" fill="#C5F6FA"/>
<ellipse cx="191.344" cy="86.8413" rx="7.15625" ry="7.13208" fill="#C5F6FA"/>
<ellipse cx="191.344" cy="113.105" rx="7.15625" ry="7.13208" fill="#C5F6FA"/>
<ellipse cx="191.344" cy="139.37" rx="7.15625" ry="7.13208" fill="#C5F6FA"/>
<ellipse cx="191.156" cy="166.049" rx="7.15625" ry="7.13208" fill="#C5F6FA"/>
<ellipse cx="191.156" cy="192.049" rx="7.15625" ry="7.13208" fill="#C5F6FA"/>
<ellipse cx="191.156" cy="218.049" rx="7.15625" ry="7.13208" fill="#C5F6FA"/>
<ellipse cx="191.156" cy="244.049" rx="7.15625" ry="7.13208" fill="#C5F6FA"/>
<ellipse cx="191.156" cy="271.049" rx="7.15625" ry="7.13208" fill="#C5F6FA"/>
<ellipse cx="191.156" cy="297.049" rx="7.15625" ry="7.13208" fill="#C5F6FA"/>
<ellipse cx="191.156" cy="323.049" rx="7.15625" ry="7.13208" fill="#C5F6FA"/>
<ellipse cx="33.4688" cy="86.8413" rx="7.15625" ry="7.13208" fill="#C5F6FA"/>
<ellipse cx="33.4688" cy="113.105" rx="7.15625" ry="7.13208" fill="#C5F6FA"/>
<ellipse cx="33.4688" cy="139.37" rx="7.15625" ry="7.13208" fill="#C5F6FA"/>
<ellipse cx="33.4688" cy="165.634" rx="7.15625" ry="7.13208" fill="#C5F6FA"/>
<ellipse cx="33.4688" cy="191.898" rx="7.15625" ry="7.13208" fill="#C5F6FA"/>
<ellipse cx="33.4688" cy="218.162" rx="7.15625" ry="7.13208" fill="#C5F6FA"/>
<ellipse cx="33.1562" cy="245.049" rx="7.15625" ry="7.13208" fill="#C5F6FA"/>
<ellipse cx="33.1562" cy="271.049" rx="7.15625" ry="7.13208" fill="#C5F6FA"/>
<ellipse cx="33.1562" cy="297.049" rx="7.15625" ry="7.13208" fill="#C5F6FA"/>
<ellipse cx="33.1562" cy="323.049" rx="7.15625" ry="7.13208" fill="#C5F6FA"/>
<ellipse cx="33.1562" cy="349.049" rx="7.15625" ry="7.13208" fill="#C5F6FA"/>
<ellipse cx="33.1562" cy="375.049" rx="7.15625" ry="7.13208" fill="#C5F6FA"/>
<ellipse cx="33.1562" cy="401.049" rx="7.15625" ry="7.13208" fill="#C5F6FA"/>
<ellipse cx="33.1562" cy="427.049" rx="7.15625" ry="7.13208" fill="#C5F6FA"/>
<ellipse cx="59.7812" cy="34.313" rx="7.15625" ry="7.13208" fill="#C5F6FA"/>
<ellipse cx="86.0938" cy="34.313" rx="7.15625" ry="7.13208" fill="#C5F6FA"/>
<ellipse cx="112.406" cy="34.313" rx="7.15625" ry="7.13208" fill="#C5F6FA"/>
<ellipse cx="138.719" cy="34.313" rx="7.15625" ry="7.13208" fill="#C5F6FA"/>
<ellipse cx="165.031" cy="34.313" rx="7.15625" ry="7.13208" fill="#C5F6FA"/>
<ellipse cx="191.344" cy="34.313" rx="7.15625" ry="7.13208" fill="#C5F6FA"/>
<ellipse cx="217.656" cy="34.313" rx="7.15625" ry="7.13208" fill="#C5F6FA"/>
<ellipse cx="217.656" cy="60.5771" rx="7.15625" ry="7.13208" fill="#C5F6FA"/>
<ellipse cx="217.656" cy="86.8413" rx="7.15625" ry="7.13208" fill="#C5F6FA"/>
<ellipse cx="217.656" cy="113.105" rx="7.15625" ry="7.13208" fill="#C5F6FA"/>
<ellipse cx="217.656" cy="139.37" rx="7.15625" ry="7.13208" fill="#C5F6FA"/>
<ellipse cx="217.656" cy="165.634" rx="7.15625" ry="7.13208" fill="#C5F6FA"/>
<ellipse cx="218.156" cy="192.049" rx="7.15625" ry="7.13208" fill="#C5F6FA"/>
<ellipse cx="218.156" cy="218.049" rx="7.15625" ry="7.13208" fill="#C5F6FA"/>
<ellipse cx="218.156" cy="244.049" rx="7.15625" ry="7.13208" fill="#C5F6FA"/>
<ellipse cx="218.156" cy="271.049" rx="7.15625" ry="7.13208" fill="#C5F6FA"/>
<ellipse cx="218.156" cy="297.049" rx="7.15625" ry="7.13208" fill="#C5F6FA"/>
<ellipse cx="218.156" cy="323.049" rx="7.15625" ry="7.13208" fill="#C5F6FA"/>
<ellipse cx="218.156" cy="349.049" rx="7.15625" ry="7.13208" fill="#C5F6FA"/>
<ellipse cx="33.4688" cy="8.04882" rx="7.15625" ry="7.13208" fill="#C5F6FA"/>
<ellipse cx="59.7812" cy="8.04882" rx="7.15625" ry="7.13208" fill="#C5F6FA"/>
<ellipse cx="86.0938" cy="8.04882" rx="7.15625" ry="7.13208" fill="#C5F6FA"/>
<ellipse cx="112.406" cy="8.04882" rx="7.15625" ry="7.13208" fill="#C5F6FA"/>
<ellipse cx="138.719" cy="8.04882" rx="7.15625" ry="7.13208" fill="#C5F6FA"/>
<ellipse cx="165.031" cy="8.04882" rx="7.15625" ry="7.13208" fill="#C5F6FA"/>
<ellipse cx="191.344" cy="8.04882" rx="7.15625" ry="7.13208" fill="#C5F6FA"/>
<ellipse cx="217.656" cy="8.04882" rx="7.15625" ry="7.13208" fill="#C5F6FA"/>
<ellipse cx="243.969" cy="8.04882" rx="7.15625" ry="7.13208" fill="#C5F6FA"/>
<ellipse cx="270.156" cy="8.04882" rx="7.15625" ry="7.13208" fill="#C5F6FA"/>
<ellipse cx="296.156" cy="8.04882" rx="7.15625" ry="7.13208" fill="#C5F6FA"/>
<ellipse cx="322.156" cy="8.04882" rx="7.15625" ry="7.13208" fill="#C5F6FA"/>
<ellipse cx="348.156" cy="8.04882" rx="7.15625" ry="7.13208" fill="#C5F6FA"/>
<ellipse cx="374.156" cy="8.04882" rx="7.15625" ry="7.13208" fill="#C5F6FA"/>
<ellipse cx="400.156" cy="8.04882" rx="7.15625" ry="7.13208" fill="#C5F6FA"/>
<ellipse cx="426.156" cy="9.04882" rx="7.15625" ry="7.13208" fill="#C5F6FA"/>
<ellipse cx="452.156" cy="9.04882" rx="7.15625" ry="7.13208" fill="#C5F6FA"/>
<ellipse cx="478.156" cy="8.04882" rx="7.15625" ry="7.13208" fill="#C5F6FA"/>
<ellipse cx="243.969" cy="34.313" rx="7.15625" ry="7.13208" fill="#C5F6FA"/>
<ellipse cx="270.156" cy="34.313" rx="7.15625" ry="7.13208" fill="#C5F6FA"/>
<ellipse cx="296.156" cy="34.313" rx="7.15625" ry="7.13208" fill="#C5F6FA"/>
<ellipse cx="322.156" cy="34.313" rx="7.15625" ry="7.13208" fill="#C5F6FA"/>
<ellipse cx="348.156" cy="34.313" rx="7.15625" ry="7.13208" fill="#C5F6FA"/>
<ellipse cx="374.156" cy="34.313" rx="7.15625" ry="7.13208" fill="#C5F6FA"/>
<ellipse cx="400.156" cy="34.313" rx="7.15625" ry="7.13208" fill="#C5F6FA"/>
<ellipse cx="426.156" cy="35.313" rx="7.15625" ry="7.13208" fill="#C5F6FA"/>
<ellipse cx="452.156" cy="35.313" rx="7.15625" ry="7.13208" fill="#C5F6FA"/>
<ellipse cx="478.156" cy="34.313" rx="7.15625" ry="7.13208" fill="#C5F6FA"/>
<ellipse cx="243.969" cy="60.5771" rx="7.15625" ry="7.13208" fill="#C5F6FA"/>
<ellipse cx="270.156" cy="60.5771" rx="7.15625" ry="7.13208" fill="#C5F6FA"/>
<ellipse cx="296.156" cy="60.5771" rx="7.15625" ry="7.13208" fill="#C5F6FA"/>
<ellipse cx="322.156" cy="60.5771" rx="7.15625" ry="7.13208" fill="#C5F6FA"/>
<ellipse cx="348.156" cy="60.5771" rx="7.15625" ry="7.13208" fill="#C5F6FA"/>
<ellipse cx="374.156" cy="60.5771" rx="7.15625" ry="7.13208" fill="#C5F6FA"/>
<ellipse cx="400.156" cy="60.5771" rx="7.15625" ry="7.13208" fill="#C5F6FA"/>
<ellipse cx="426.156" cy="61.5771" rx="7.15625" ry="7.13208" fill="#C5F6FA"/>
<ellipse cx="452.156" cy="61.5771" rx="7.15625" ry="7.13208" fill="#C5F6FA"/>
<ellipse cx="478.156" cy="60.5771" rx="7.15625" ry="7.13208" fill="#C5F6FA"/>
<ellipse cx="243.969" cy="86.8413" rx="7.15625" ry="7.13208" fill="#C5F6FA"/>
<ellipse cx="270.156" cy="86.8413" rx="7.15625" ry="7.13208" fill="#C5F6FA"/>
<ellipse cx="296.156" cy="86.8413" rx="7.15625" ry="7.13208" fill="#C5F6FA"/>
<ellipse cx="322.156" cy="86.8413" rx="7.15625" ry="7.13208" fill="#C5F6FA"/>
<ellipse cx="348.156" cy="86.8413" rx="7.15625" ry="7.13208" fill="#C5F6FA"/>
<ellipse cx="374.156" cy="86.8413" rx="7.15625" ry="7.13208" fill="#C5F6FA"/>
<ellipse cx="400.156" cy="86.8413" rx="7.15625" ry="7.13208" fill="#C5F6FA"/>
<ellipse cx="426.156" cy="87.8413" rx="7.15625" ry="7.13208" fill="#C5F6FA"/>
<ellipse cx="452.156" cy="87.8413" rx="7.15625" ry="7.13208" fill="#C5F6FA"/>
<ellipse cx="478.156" cy="86.8413" rx="7.15625" ry="7.13208" fill="#C5F6FA"/>
<ellipse cx="243.969" cy="113.105" rx="7.15625" ry="7.13208" fill="#C5F6FA"/>
<ellipse cx="270.156" cy="113.105" rx="7.15625" ry="7.13208" fill="#C5F6FA"/>
<ellipse cx="296.156" cy="113.105" rx="7.15625" ry="7.13208" fill="#C5F6FA"/>
<ellipse cx="322.156" cy="113.105" rx="7.15625" ry="7.13208" fill="#C5F6FA"/>
<ellipse cx="348.156" cy="113.105" rx="7.15625" ry="7.13208" fill="#C5F6FA"/>
<ellipse cx="374.156" cy="113.105" rx="7.15625" ry="7.13208" fill="#C5F6FA"/>
<ellipse cx="400.156" cy="113.105" rx="7.15625" ry="7.13208" fill="#C5F6FA"/>
<ellipse cx="426.156" cy="114.105" rx="7.15625" ry="7.13208" fill="#C5F6FA"/>
<ellipse cx="452.156" cy="114.105" rx="7.15625" ry="7.13208" fill="#C5F6FA"/>
<ellipse cx="478.156" cy="113.105" rx="7.15625" ry="7.13208" fill="#C5F6FA"/>
<ellipse cx="244.156" cy="140.049" rx="7.15625" ry="7.13208" fill="#C5F6FA"/>
<ellipse cx="270.344" cy="140.049" rx="7.15625" ry="7.13208" fill="#C5F6FA"/>
<ellipse cx="296.344" cy="140.049" rx="7.15625" ry="7.13208" fill="#C5F6FA"/>
<ellipse cx="322.344" cy="140.049" rx="7.15625" ry="7.13208" fill="#C5F6FA"/>
<ellipse cx="348.344" cy="140.049" rx="7.15625" ry="7.13208" fill="#C5F6FA"/>
<ellipse cx="374.344" cy="140.049" rx="7.15625" ry="7.13208" fill="#C5F6FA"/>
<ellipse cx="400.344" cy="140.049" rx="7.15625" ry="7.13208" fill="#C5F6FA"/>
<ellipse cx="426.344" cy="141.049" rx="7.15625" ry="7.13208" fill="#C5F6FA"/>
<ellipse cx="452.344" cy="141.049" rx="7.15625" ry="7.13208" fill="#C5F6FA"/>
<ellipse cx="244.156" cy="166.049" rx="7.15625" ry="7.13208" fill="#C5F6FA"/>
<ellipse cx="270.344" cy="166.049" rx="7.15625" ry="7.13208" fill="#C5F6FA"/>
<ellipse cx="296.344" cy="166.049" rx="7.15625" ry="7.13208" fill="#C5F6FA"/>
<ellipse cx="322.344" cy="166.049" rx="7.15625" ry="7.13208" fill="#C5F6FA"/>
<ellipse cx="348.344" cy="166.049" rx="7.15625" ry="7.13208" fill="#C5F6FA"/>
<ellipse cx="374.344" cy="166.049" rx="7.15625" ry="7.13208" fill="#C5F6FA"/>
<ellipse cx="400.344" cy="166.049" rx="7.15625" ry="7.13208" fill="#C5F6FA"/>
<ellipse cx="426.344" cy="167.049" rx="7.15625" ry="7.13208" fill="#C5F6FA"/>
<ellipse cx="452.344" cy="167.049" rx="7.15625" ry="7.13208" fill="#C5F6FA"/>
<ellipse cx="244.156" cy="192.049" rx="7.15625" ry="7.13208" fill="#C5F6FA"/>
<ellipse cx="270.344" cy="192.049" rx="7.15625" ry="7.13208" fill="#C5F6FA"/>
<ellipse cx="296.344" cy="192.049" rx="7.15625" ry="7.13208" fill="#C5F6FA"/>
<ellipse cx="322.344" cy="192.049" rx="7.15625" ry="7.13208" fill="#C5F6FA"/>
<ellipse cx="348.344" cy="192.049" rx="7.15625" ry="7.13208" fill="#C5F6FA"/>
<ellipse cx="374.344" cy="192.049" rx="7.15625" ry="7.13208" fill="#C5F6FA"/>
<ellipse cx="400.344" cy="192.049" rx="7.15625" ry="7.13208" fill="#C5F6FA"/>
<ellipse cx="244.156" cy="218.049" rx="7.15625" ry="7.13208" fill="#C5F6FA"/>
<ellipse cx="270.344" cy="218.049" rx="7.15625" ry="7.13208" fill="#C5F6FA"/>
<ellipse cx="296.344" cy="218.049" rx="7.15625" ry="7.13208" fill="#C5F6FA"/>
<ellipse cx="322.344" cy="218.049" rx="7.15625" ry="7.13208" fill="#C5F6FA"/>
<ellipse cx="348.344" cy="218.049" rx="7.15625" ry="7.13208" fill="#C5F6FA"/>
<ellipse cx="374.344" cy="218.049" rx="7.15625" ry="7.13208" fill="#C5F6FA"/>
<ellipse cx="400.344" cy="218.049" rx="7.15625" ry="7.13208" fill="#C5F6FA"/>
<ellipse cx="244.156" cy="244.049" rx="7.15625" ry="7.13208" fill="#C5F6FA"/>
<ellipse cx="270.344" cy="244.049" rx="7.15625" ry="7.13208" fill="#C5F6FA"/>
<ellipse cx="296.344" cy="244.049" rx="7.15625" ry="7.13208" fill="#C5F6FA"/>
<ellipse cx="322.344" cy="244.049" rx="7.15625" ry="7.13208" fill="#C5F6FA"/>
<ellipse cx="348.344" cy="244.049" rx="7.15625" ry="7.13208" fill="#C5F6FA"/>
<ellipse cx="374.344" cy="244.049" rx="7.15625" ry="7.13208" fill="#C5F6FA"/>
<ellipse cx="244.156" cy="271.049" rx="7.15625" ry="7.13208" fill="#C5F6FA"/>
<ellipse cx="270.344" cy="271.049" rx="7.15625" ry="7.13208" fill="#C5F6FA"/>
<ellipse cx="296.344" cy="271.049" rx="7.15625" ry="7.13208" fill="#C5F6FA"/>
<ellipse cx="322.344" cy="271.049" rx="7.15625" ry="7.13208" fill="#C5F6FA"/>
<ellipse cx="244.156" cy="297.049" rx="7.15625" ry="7.13208" fill="#C5F6FA"/>
<ellipse cx="270.344" cy="297.049" rx="7.15625" ry="7.13208" fill="#C5F6FA"/>
<ellipse cx="270.156" cy="323.049" rx="7.15625" ry="7.13208" fill="#C5F6FA"/>
<ellipse cx="348.156" cy="271.049" rx="7.15625" ry="7.13208" fill="#C5F6FA"/>
<ellipse cx="7.15625" cy="60.5771" rx="7.15625" ry="7.13208" fill="#C5F6FA"/>
<ellipse cx="7.15625" cy="86.8413" rx="7.15625" ry="7.13208" fill="#C5F6FA"/>
<ellipse cx="7.15625" cy="113.105" rx="7.15625" ry="7.13208" fill="#C5F6FA"/>
<ellipse cx="7.15625" cy="139.37" rx="7.15625" ry="7.13208" fill="#C5F6FA"/>
<ellipse cx="7.15625" cy="165.634" rx="7.15625" ry="7.13208" fill="#C5F6FA"/>
<ellipse cx="7.15625" cy="191.898" rx="7.15625" ry="7.13208" fill="#C5F6FA"/>
<ellipse cx="7.15625" cy="218.162" rx="7.15625" ry="7.13208" fill="#C5F6FA"/>
<ellipse cx="7.15625" cy="244.426" rx="7.15625" ry="7.13208" fill="#C5F6FA"/>
<ellipse cx="7.15625" cy="270.69" rx="7.15625" ry="7.13208" fill="#C5F6FA"/>
<ellipse cx="7.15625" cy="297.049" rx="7.15625" ry="7.13208" fill="#C5F6FA"/>
<ellipse cx="7.15625" cy="323.049" rx="7.15625" ry="7.13208" fill="#C5F6FA"/>
<ellipse cx="7.15625" cy="349.049" rx="7.15625" ry="7.13208" fill="#C5F6FA"/>
<ellipse cx="7.15625" cy="375.049" rx="7.15625" ry="7.13208" fill="#C5F6FA"/>
<ellipse cx="7.15625" cy="401.049" rx="7.15625" ry="7.13208" fill="#C5F6FA"/>
<ellipse cx="7.15625" cy="427.049" rx="7.15625" ry="7.13208" fill="#C5F6FA"/>
<ellipse cx="7.15625" cy="453.049" rx="7.15625" ry="7.13208" fill="#C5F6FA"/>
<ellipse cx="7.15625" cy="479.049" rx="7.15625" ry="7.13208" fill="#C5F6FA"/>
</svg>
