<svg width="172" height="166" viewBox="0 0 172 166" fill="none" xmlns="http://www.w3.org/2000/svg">
<circle cx="107.034" cy="69.6298" r="64.9655" fill="#FFC9C9" fill-opacity="0.5"/>
<line x1="35.2938" y1="124.628" x2="93.1374" y2="146.387" stroke="#495057" stroke-opacity="0.5" stroke-width="3"/>
<line x1="49.3118" y1="137.061" x2="73.3553" y2="146.105" stroke="#495057" stroke-opacity="0.5" stroke-width="3"/>
<line x1="28.5936" y1="114.947" x2="104.208" y2="143.392" stroke="#495057" stroke-opacity="0.5" stroke-width="3"/>
<line x1="23.2864" y1="105.791" x2="113.536" y2="139.741" stroke="#495057" stroke-opacity="0.5" stroke-width="3"/>
<line x1="21.4647" y1="97.9463" x2="121.123" y2="135.436" stroke="#495057" stroke-opacity="0.5" stroke-width="3"/>
<line x1="19.9915" y1="90.232" x2="127.316" y2="130.605" stroke="#495057" stroke-opacity="0.5" stroke-width="3"/>
<line x1="19.2147" y1="82.7803" x2="132.114" y2="125.251" stroke="#495057" stroke-opacity="0.5" stroke-width="3"/>
<line x1="19.4832" y1="75.7215" x2="136.564" y2="119.765" stroke="#495057" stroke-opacity="0.5" stroke-width="3"/>
<line x1="20.7972" y1="69.0561" x2="139.969" y2="113.886" stroke="#495057" stroke-opacity="0.5" stroke-width="3"/>
<line x1="21.763" y1="62.2595" x2="143.374" y2="108.007" stroke="#495057" stroke-opacity="0.5" stroke-width="3"/>
<line x1="24.1234" y1="55.9873" x2="145.734" y2="101.735" stroke="#495057" stroke-opacity="0.5" stroke-width="3"/>
<line x1="27.5276" y1="50.1085" x2="147.048" y2="95.0695" stroke="#495057" stroke-opacity="0.5" stroke-width="3"/>
<line x1="31.2811" y1="44.3606" x2="148.014" y2="88.273" stroke="#495057" stroke-opacity="0.5" stroke-width="3"/>
<line x1="35.7313" y1="38.8749" x2="148.282" y2="81.2143" stroke="#495057" stroke-opacity="0.5" stroke-width="3"/>
<line x1="41.2264" y1="33.7823" x2="147.854" y2="73.8933" stroke="#495057" stroke-opacity="0.5" stroke-width="3"/>
<line x1="47.4192" y1="28.952" x2="146.032" y2="66.0481" stroke="#495057" stroke-opacity="0.5" stroke-width="3"/>
<line x1="54.6575" y1="24.515" x2="143.165" y2="57.8098" stroke="#495057" stroke-opacity="0.5" stroke-width="3"/>
<line x1="63.637" y1="20.7333" x2="138.555" y2="48.9158" stroke="#495057" stroke-opacity="0.5" stroke-width="3"/>
<line x1="76.4505" y1="18.3937" x2="131.158" y2="38.9735" stroke="#495057" stroke-opacity="0.5" stroke-width="3"/>
<line x1="97.5281" y1="18.5958" x2="119.481" y2="26.854" stroke="#495057" stroke-opacity="0.5" stroke-width="3"/>
</svg>
