<svg width="1919" height="1093" viewBox="0 0 1919 1093" fill="none" xmlns="http://www.w3.org/2000/svg">
<mask id="mask0_116_1234" style="mask-type:alpha" maskUnits="userSpaceOnUse" x="0" y="0" width="1920" height="1093">
<rect width="1920" height="1093" fill="#D9D9D9"/>
</mask>
<g mask="url(#mask0_116_1234)">
<path fill-rule="evenodd" clip-rule="evenodd" d="M79.6529 0V17.2955L0 17.2955V18.2955L79.6529 18.2955L79.6529 81.2955L0 81.2955V82.2955H79.6529V145.296H0V146.296H79.6529L79.6529 209.296H0V210.296H79.6529V273.296H0V274.296H79.6529V337.296H0V338.296H79.6529L79.6529 401.296H0V402.296H79.6529V465.296H0V466.296H79.6529L79.6529 529.296H0V530.296H79.6529V593.296H0V594.296H79.6529L79.6528 657.296H0V658.296H79.6528V721.296H0V722.296H79.6528V785.296H0V786.296H79.6528L79.6528 849.296H0V850.296H79.6528V913.296H0V914.296H79.6528L79.6528 977.296H0V978.296H79.6528V1034.3H80.6528V978.296H159.184V1034.3H160.184V978.296H238.716V1034.3H239.716V978.296H318.248V1034.3H319.248V978.296H397.779V1034.3H398.779V978.296H477.311V1034.3H478.311V978.296H556.842V1034.3H557.842V978.296L636.374 978.296V1034.3H637.374V978.296H715.905V1034.3H716.905V978.296H795.437V1034.3H796.437V978.296H874.968V1034.3H875.968V978.296H954.5V1034.3H955.5V978.296H1034.03V1034.3H1035.03V978.296H1113.56V1034.3H1114.56V978.296H1193.09V1034.3H1194.09V978.296H1272.63V1034.3H1273.63V978.296H1352.16V1034.3H1353.16V978.296H1431.69V1034.3H1432.69V978.296H1511.22V1034.3H1512.22V978.296H1590.75V1034.3H1591.75V978.296H1670.28V1034.3H1671.28V978.296H1749.82V1034.3H1750.82V978.296L1829.35 978.296V1034.3H1830.35V978.296H1880.6L1878.76 977.296H1830.35V950.996L1829.35 950.453V977.296H1750.82V914.296H1762.79L1760.94 913.296H1750.82V907.794L1749.82 907.25V913.296H1671.28V864.591L1670.28 864.048V913.296H1591.75V850.296H1644.97L1643.13 849.296H1591.75V821.389L1590.75 820.846V849.296H1512.22V786.296H1527.15L1525.31 785.296H1512.22V778.186L1511.22 777.643V785.296H1432.69V734.984L1431.69 734.441V785.296H1353.16V722.296H1409.33L1407.49 721.296H1353.16V691.782L1352.16 691.238V721.296H1273.63V658.296H1291.51L1289.67 657.296H1273.63V648.579L1272.63 648.036V657.296H1194.09V605.377L1193.09 604.834V657.296L1114.56 657.296V594.296L1173.7 594.296L1171.85 593.296L1114.56 593.296V562.174L1113.56 561.631V593.296H1035.03V530.296H1055.88L1054.04 529.296H1035.03V518.972L1034.03 518.429V529.296H955.5L955.5 475.77L954.5 475.226L954.5 529.296H875.968L875.968 466.296H938.059L936.218 465.296H875.968V432.567L874.968 432.024V465.296H796.437V402.296H820.241L818.4 401.296H796.437V389.365L795.437 388.822V401.296H716.905V346.162L715.905 345.619V401.296L637.374 401.296V338.296L702.423 338.296L700.582 337.296L637.374 337.296V302.96L636.374 302.417V337.296H557.842V274.296H584.605L582.764 273.296H557.842V259.758L556.842 259.214V273.296H478.311L478.311 216.555L477.311 216.012L477.311 273.296H398.779L398.779 210.296H466.787L464.946 209.296H398.779V173.353L397.779 172.81V209.296L319.248 209.296V146.296H348.969L347.128 145.296H319.248V130.15L318.248 129.607V145.296H239.716L239.716 86.948L238.716 86.4048L238.716 145.296H160.184L160.184 82.2955H231.151L229.31 81.2955L160.184 81.2955V43.7456L159.184 43.2024V81.2955H80.6529L80.6529 18.2955H113.333L111.492 17.2955L80.6529 17.2955V0.543211L79.6529 0ZM1909.88 994.198L1908.88 993.655V1034.3H1909.88V994.198ZM1749.82 914.296V977.296H1671.28V914.296H1749.82ZM1670.28 914.296V977.296H1591.75V914.296H1670.28ZM1590.75 914.296V977.296H1512.22V914.296H1590.75ZM1511.22 914.296V977.296H1432.69V914.296H1511.22ZM1431.69 914.296V977.296H1353.16V914.296H1431.69ZM1352.16 914.296V977.296H1273.63V914.296H1352.16ZM1272.63 914.296V977.296H1194.09V914.296H1272.63ZM1193.09 914.296V977.296L1114.56 977.296V914.296L1193.09 914.296ZM1113.56 914.296V977.296H1035.03V914.296H1113.56ZM1034.03 914.296V977.296H955.5V914.296H1034.03ZM954.5 914.296V977.296H875.968V914.296H954.5ZM874.968 914.296V977.296H796.437V914.296H874.968ZM795.437 914.296V977.296H716.905V914.296H795.437ZM715.905 914.296V977.296H637.374V914.296H715.905ZM636.374 914.296V977.296H557.842V914.296H636.374ZM556.842 914.296V977.296H478.311V914.296H556.842ZM477.311 914.296V977.296H398.779V914.296H477.311ZM397.779 914.296V977.296H319.248V914.296H397.779ZM318.248 914.296V977.296H239.716V914.296H318.248ZM238.716 914.296V977.296H160.184V914.296H238.716ZM159.184 914.296V977.296H80.6528L80.6528 914.296H159.184ZM159.184 913.296H80.6528V850.296H159.184L159.184 913.296ZM159.184 849.296H80.6528L80.6528 786.296H159.184V849.296ZM159.184 785.296H80.6528V722.296H159.184V785.296ZM159.184 721.296H80.6528V658.296H159.184V721.296ZM159.184 657.296H80.6528L80.6529 594.296H159.184L159.184 657.296ZM159.184 593.296H80.6529V530.296H159.184V593.296ZM159.184 529.296H80.6529L80.6529 466.296H159.184V529.296ZM159.184 465.296H80.6529V402.296H159.184V465.296ZM159.184 401.296H80.6529L80.6529 338.296H159.184L159.184 401.296ZM159.184 337.296H80.6529V274.296H159.184V337.296ZM159.184 273.296H80.6529V210.296H159.184V273.296ZM159.184 209.296L80.6529 209.296L80.6529 146.296L159.184 146.296V209.296ZM159.184 145.296L80.6529 145.296V82.2955L159.184 82.2955L159.184 145.296ZM1590.75 850.296V913.296H1512.22V850.296H1590.75ZM1511.22 850.296V913.296H1432.69V850.296H1511.22ZM1431.69 850.296V913.296H1353.16V850.296H1431.69ZM1352.16 850.296V913.296H1273.63V850.296H1352.16ZM1272.63 850.296V913.296H1194.09V850.296H1272.63ZM1193.09 850.296V913.296L1114.56 913.296V850.296L1193.09 850.296ZM1113.56 850.296V913.296H1035.03V850.296H1113.56ZM1034.03 850.296V913.296H955.5V850.296H1034.03ZM954.5 850.296V913.296H875.968V850.296H954.5ZM874.968 850.296V913.296H796.437V850.296H874.968ZM795.437 850.296V913.296H716.905V850.296H795.437ZM715.905 850.296V913.296H637.374V850.296H715.905ZM636.374 850.296V913.296H557.842V850.296H636.374ZM556.842 850.296V913.296H478.311V850.296H556.842ZM477.311 850.296V913.296H398.779V850.296H477.311ZM397.779 850.296V913.296H319.248L319.248 850.296H397.779ZM318.248 850.296L318.248 913.296H239.716L239.716 850.296H318.248ZM238.716 850.296L238.716 913.296H160.184L160.184 850.296H238.716ZM238.716 849.296H160.184V786.296H238.716V849.296ZM238.716 785.296H160.184V722.296H238.716V785.296ZM238.716 721.296H160.184V658.296H238.716V721.296ZM238.716 657.296H160.184L160.184 594.296H238.716V657.296ZM238.716 593.296H160.184V530.296H238.716V593.296ZM238.716 529.296H160.184V466.296H238.716L238.716 529.296ZM238.716 465.296L160.184 465.296V402.296L238.716 402.296V465.296ZM238.716 401.296L160.184 401.296L160.184 338.296L238.716 338.296V401.296ZM238.716 337.296L160.184 337.296V274.296L238.716 274.296V337.296ZM238.716 273.296L160.184 273.296V210.296L238.716 210.296V273.296ZM238.716 209.296H160.184V146.296H238.716V209.296ZM239.716 209.296V146.296H318.248V209.296H239.716ZM1511.22 786.296V849.296H1432.69V786.296H1511.22ZM1431.69 786.296V849.296H1353.16V786.296H1431.69ZM1352.16 786.296V849.296H1273.63V786.296H1352.16ZM1272.63 786.296V849.296H1194.09V786.296H1272.63ZM1193.09 786.296V849.296L1114.56 849.296V786.296L1193.09 786.296ZM1113.56 786.296V849.296H1035.03V786.296H1113.56ZM1034.03 786.296V849.296H955.5V786.296H1034.03ZM954.5 786.296V849.296H875.968V786.296H954.5ZM874.968 786.296V849.296H796.437V786.296H874.968ZM795.437 786.296V849.296H716.905V786.296H795.437ZM715.905 786.296V849.296H637.374V786.296H715.905ZM636.374 786.296V849.296H557.842V786.296H636.374ZM556.842 786.296V849.296H478.311V786.296H556.842ZM477.311 786.296V849.296H398.779V786.296H477.311ZM397.779 786.296V849.296H319.248V786.296H397.779ZM318.248 786.296V849.296H239.716V786.296H318.248ZM318.248 785.296H239.716V722.296H318.248V785.296ZM318.248 721.296H239.716V658.296H318.248V721.296ZM318.248 657.296H239.716V594.296H318.248V657.296ZM318.248 593.296H239.716V530.296H318.248V593.296ZM318.248 529.296H239.716L239.716 466.296H318.248L318.248 529.296ZM318.248 465.296H239.716V402.296H318.248V465.296ZM318.248 401.296H239.716V338.296H318.248V401.296ZM318.248 337.296H239.716V274.296H318.248V337.296ZM318.248 273.296H239.716V210.296H318.248V273.296ZM319.248 273.296V210.296H397.779L397.779 273.296H319.248ZM1352.16 722.296V785.296H1273.63V722.296H1352.16ZM1272.63 722.296V785.296H1194.09V722.296H1272.63ZM1193.09 722.296V785.296L1114.56 785.296V722.296L1193.09 722.296ZM1113.56 722.296V785.296H1035.03V722.296H1113.56ZM1034.03 722.296V785.296H955.5V722.296H1034.03ZM954.5 722.296V785.296H875.968V722.296H954.5ZM874.968 722.296V785.296H796.437V722.296H874.968ZM795.437 722.296V785.296H716.905V722.296H795.437ZM715.905 722.296V785.296H637.374V722.296H715.905ZM636.374 722.296V785.296H557.842V722.296H636.374ZM556.842 722.296V785.296H478.311L478.311 722.296H556.842ZM477.311 722.296L477.311 785.296H398.779L398.779 722.296H477.311ZM397.779 722.296L397.779 785.296H319.248V722.296H397.779ZM397.779 721.296H319.248V658.296H397.779V721.296ZM397.779 657.296H319.248V594.296H397.779V657.296ZM397.779 593.296H319.248V530.296H397.779V593.296ZM397.779 529.296H319.248L319.248 466.296H397.779V529.296ZM397.779 465.296H319.248V402.296H397.779V465.296ZM397.779 401.296H319.248V338.296H397.779V401.296ZM397.779 337.296H319.248V274.296H397.779V337.296ZM398.779 337.296V274.296H477.311V337.296H398.779ZM478.311 337.296V274.296H556.842V337.296H478.311ZM1272.63 658.296V721.296H1194.09V658.296H1272.63ZM1193.09 658.296V721.296L1114.56 721.296V658.296L1193.09 658.296ZM1113.56 658.296V721.296H1035.03V658.296H1113.56ZM1034.03 658.296V721.296H955.5V658.296H1034.03ZM954.5 658.296V721.296H875.968V658.296H954.5ZM874.968 658.296V721.296H796.437V658.296H874.968ZM795.437 658.296V721.296H716.905V658.296H795.437ZM715.905 658.296V721.296H637.374V658.296H715.905ZM636.374 658.296V721.296H557.842V658.296H636.374ZM556.842 658.296V721.296H478.311V658.296H556.842ZM477.311 658.296V721.296H398.779V658.296H477.311ZM477.311 657.296H398.779V594.296H477.311V657.296ZM477.311 593.296H398.779V530.296H477.311V593.296ZM477.311 529.296H398.779V466.296H477.311V529.296ZM477.311 465.296H398.779V402.296H477.311V465.296ZM477.311 401.296H398.779V338.296H477.311V401.296ZM478.311 401.296V338.296H556.842V401.296H478.311ZM557.842 401.296V338.296H636.374V401.296H557.842ZM1113.56 594.296V657.296H1035.03V594.296H1113.56ZM1034.03 594.296V657.296H955.5V594.296H1034.03ZM954.5 594.296V657.296H875.968V594.296H954.5ZM874.968 594.296V657.296H796.437V594.296H874.968ZM795.437 594.296V657.296H716.905V594.296H795.437ZM715.905 594.296V657.296H637.374V594.296H715.905ZM636.374 594.296V657.296H557.842V594.296H636.374ZM556.842 594.296V657.296H478.311V594.296H556.842ZM556.842 593.296H478.311V530.296H556.842V593.296ZM556.842 529.296H478.311V466.296H556.842L556.842 529.296ZM556.842 465.296H478.311V402.296H556.842V465.296ZM557.842 465.296V402.296H636.374V465.296H557.842ZM637.374 465.296V402.296L715.905 402.296V465.296L637.374 465.296ZM716.905 465.296V402.296H795.437V465.296H716.905ZM1034.03 530.296V593.296H955.5V530.296H1034.03ZM954.5 530.296V593.296H875.968V530.296H954.5ZM874.968 530.296V593.296H796.437V530.296H874.968ZM795.437 530.296V593.296H716.905V530.296H795.437ZM715.905 530.296V593.296H637.374V530.296H715.905ZM636.374 530.296V593.296H557.842V530.296H636.374ZM636.374 529.296H557.842L557.842 466.296L636.374 466.296L636.374 529.296ZM637.374 529.296L637.374 466.296H715.905L715.905 529.296H637.374ZM716.905 529.296L716.905 466.296H795.437L795.437 529.296H716.905ZM796.437 529.296L796.437 466.296H874.968L874.968 529.296H796.437Z" fill="#C5F6FA" fill-opacity="0.7"/>
<circle cx="296.922" cy="754.128" r="90.9962" fill="#FFC9C9" fill-opacity="0.5"/>
<line x1="196.224" y1="831.725" x2="277.245" y2="862.203" stroke="#495057" stroke-opacity="0.5" stroke-width="3"/>
<line x1="215.859" y1="849.14" x2="249.536" y2="861.808" stroke="#495057" stroke-opacity="0.5" stroke-width="3"/>
<line x1="186.839" y1="818.166" x2="292.751" y2="858.008" stroke="#495057" stroke-opacity="0.5" stroke-width="3"/>
<line x1="179.406" y1="805.341" x2="305.818" y2="852.894" stroke="#495057" stroke-opacity="0.5" stroke-width="3"/>
<line x1="176.854" y1="794.352" x2="316.444" y2="846.863" stroke="#495057" stroke-opacity="0.5" stroke-width="3"/>
<line x1="174.79" y1="783.547" x2="325.118" y2="840.097" stroke="#495057" stroke-opacity="0.5" stroke-width="3"/>
<line x1="173.702" y1="773.11" x2="331.839" y2="832.597" stroke="#495057" stroke-opacity="0.5" stroke-width="3"/>
<line x1="174.079" y1="763.223" x2="338.072" y2="824.914" stroke="#495057" stroke-opacity="0.5" stroke-width="3"/>
<line x1="175.919" y1="753.886" x2="342.841" y2="816.679" stroke="#495057" stroke-opacity="0.5" stroke-width="3"/>
<line x1="177.272" y1="744.367" x2="347.611" y2="808.444" stroke="#495057" stroke-opacity="0.5" stroke-width="3"/>
<line x1="180.577" y1="735.581" x2="350.915" y2="799.659" stroke="#495057" stroke-opacity="0.5" stroke-width="3"/>
<line x1="185.346" y1="727.347" x2="352.756" y2="790.323" stroke="#495057" stroke-opacity="0.5" stroke-width="3"/>
<line x1="190.603" y1="719.296" x2="354.109" y2="780.803" stroke="#495057" stroke-opacity="0.5" stroke-width="3"/>
<line x1="196.836" y1="711.612" x2="354.485" y2="770.916" stroke="#495057" stroke-opacity="0.5" stroke-width="3"/>
<line x1="204.534" y1="704.479" x2="353.885" y2="760.662" stroke="#495057" stroke-opacity="0.5" stroke-width="3"/>
<line x1="213.208" y1="697.713" x2="351.333" y2="749.673" stroke="#495057" stroke-opacity="0.5" stroke-width="3"/>
<line x1="223.346" y1="691.498" x2="347.317" y2="738.134" stroke="#495057" stroke-opacity="0.5" stroke-width="3"/>
<line x1="235.924" y1="686.201" x2="340.86" y2="725.676" stroke="#495057" stroke-opacity="0.5" stroke-width="3"/>
<line x1="253.871" y1="682.924" x2="330.499" y2="711.75" stroke="#495057" stroke-opacity="0.5" stroke-width="3"/>
<line x1="280.116" y1="682.768" x2="310.865" y2="694.335" stroke="#495057" stroke-opacity="0.5" stroke-width="3"/>
<path d="M1618.07 228.917L1713.56 394.311H1522.58L1618.07 228.917Z" fill="#FFEC99" fill-opacity="0.5"/>
<path d="M1565.25 389.797L1663.56 280.936L1708.68 420.506L1565.25 389.797Z" stroke="#495057" stroke-opacity="0.5" stroke-width="6"/>
<path d="M1469.53 868.556L1458.03 811.898L1516.77 815.992L1510.88 753.092L1568.44 758.499L1557.82 700.856L1616.57 704.949" stroke="#15AABF" stroke-opacity="0.5" stroke-width="6"/>
<path d="M1479.17 911.251L1467.31 824.705L1527.03 830.548L1521.55 767.174L1578.35 772.213L1566.54 715.317L1624.02 719.462L1644.07 757.593L1588.85 752.338L1599.08 809.45L1542.55 806.377L1547.15 866.264L1486.63 863.337L1494.23 918.806L1479.17 911.251Z" fill="#99E9F2" fill-opacity="0.5"/>
<path d="M1489.98 906.633L1478.48 849.975L1537.22 854.069L1531.33 791.169L1588.89 796.576L1578.27 738.933L1637.01 743.026" stroke="#15AABF" stroke-opacity="0.5" stroke-width="6"/>
<ellipse cx="8.15625" cy="19.0488" rx="7.15625" ry="7.13208" fill="#C5F6FA"/>
<ellipse cx="8.15625" cy="45.313" rx="7.15625" ry="7.13208" fill="#C5F6FA"/>
<ellipse cx="34.4688" cy="45.313" rx="7.15625" ry="7.13208" fill="#C5F6FA"/>
<ellipse cx="34.4688" cy="71.5771" rx="7.15625" ry="7.13208" fill="#C5F6FA"/>
<ellipse cx="60.7812" cy="71.5771" rx="7.15625" ry="7.13208" fill="#C5F6FA"/>
<ellipse cx="60.7812" cy="97.8413" rx="7.15625" ry="7.13208" fill="#C5F6FA"/>
<ellipse cx="87.0938" cy="97.8413" rx="7.15625" ry="7.13208" fill="#C5F6FA"/>
<ellipse cx="87.0938" cy="124.105" rx="7.15625" ry="7.13208" fill="#C5F6FA"/>
<ellipse cx="113.406" cy="124.105" rx="7.15625" ry="7.13208" fill="#C5F6FA"/>
<ellipse cx="113.406" cy="150.37" rx="7.15625" ry="7.13208" fill="#C5F6FA"/>
<ellipse cx="113.406" cy="176.634" rx="7.15625" ry="7.13208" fill="#C5F6FA"/>
<ellipse cx="113.406" cy="202.898" rx="7.15625" ry="7.13208" fill="#C5F6FA"/>
<ellipse cx="113.406" cy="229.162" rx="7.15625" ry="7.13208" fill="#C5F6FA"/>
<ellipse cx="113.156" cy="255.049" rx="7.15625" ry="7.13208" fill="#C5F6FA"/>
<ellipse cx="113.156" cy="282.049" rx="7.15625" ry="7.13208" fill="#C5F6FA"/>
<ellipse cx="113.156" cy="308.049" rx="7.15625" ry="7.13208" fill="#C5F6FA"/>
<ellipse cx="113.156" cy="334.049" rx="7.15625" ry="7.13208" fill="#C5F6FA"/>
<ellipse cx="113.156" cy="360.049" rx="7.15625" ry="7.13208" fill="#C5F6FA"/>
<ellipse cx="113.156" cy="386.049" rx="7.15625" ry="7.13208" fill="#C5F6FA"/>
<ellipse cx="113.156" cy="412.049" rx="7.15625" ry="7.13208" fill="#C5F6FA"/>
<ellipse cx="139.719" cy="124.105" rx="7.15625" ry="7.13208" fill="#C5F6FA"/>
<ellipse cx="139.719" cy="150.37" rx="7.15625" ry="7.13208" fill="#C5F6FA"/>
<ellipse cx="139.719" cy="176.634" rx="7.15625" ry="7.13208" fill="#C5F6FA"/>
<ellipse cx="140.156" cy="203.049" rx="7.15625" ry="7.13208" fill="#C5F6FA"/>
<ellipse cx="140.156" cy="229.049" rx="7.15625" ry="7.13208" fill="#C5F6FA"/>
<ellipse cx="140.156" cy="255.049" rx="7.15625" ry="7.13208" fill="#C5F6FA"/>
<ellipse cx="140.156" cy="282.049" rx="7.15625" ry="7.13208" fill="#C5F6FA"/>
<ellipse cx="140.156" cy="308.049" rx="7.15625" ry="7.13208" fill="#C5F6FA"/>
<ellipse cx="140.156" cy="334.049" rx="7.15625" ry="7.13208" fill="#C5F6FA"/>
<ellipse cx="140.156" cy="360.049" rx="7.15625" ry="7.13208" fill="#C5F6FA"/>
<ellipse cx="87.0938" cy="150.37" rx="7.15625" ry="7.13208" fill="#C5F6FA"/>
<ellipse cx="87.0938" cy="176.634" rx="7.15625" ry="7.13208" fill="#C5F6FA"/>
<ellipse cx="87.0938" cy="202.898" rx="7.15625" ry="7.13208" fill="#C5F6FA"/>
<ellipse cx="87.1562" cy="229.049" rx="7.15625" ry="7.13208" fill="#C5F6FA"/>
<ellipse cx="87.1562" cy="255.049" rx="7.15625" ry="7.13208" fill="#C5F6FA"/>
<ellipse cx="87.1562" cy="282.049" rx="7.15625" ry="7.13208" fill="#C5F6FA"/>
<ellipse cx="87.1562" cy="308.049" rx="7.15625" ry="7.13208" fill="#C5F6FA"/>
<ellipse cx="87.1562" cy="334.049" rx="7.15625" ry="7.13208" fill="#C5F6FA"/>
<ellipse cx="87.1562" cy="360.049" rx="7.15625" ry="7.13208" fill="#C5F6FA"/>
<ellipse cx="88.1562" cy="386.049" rx="7.15625" ry="7.13208" fill="#C5F6FA"/>
<ellipse cx="113.406" cy="97.8413" rx="7.15625" ry="7.13208" fill="#C5F6FA"/>
<ellipse cx="139.719" cy="97.8413" rx="7.15625" ry="7.13208" fill="#C5F6FA"/>
<ellipse cx="166.031" cy="97.8413" rx="7.15625" ry="7.13208" fill="#C5F6FA"/>
<ellipse cx="166.031" cy="124.105" rx="7.15625" ry="7.13208" fill="#C5F6FA"/>
<ellipse cx="166.031" cy="150.37" rx="7.15625" ry="7.13208" fill="#C5F6FA"/>
<ellipse cx="166.031" cy="176.634" rx="7.15625" ry="7.13208" fill="#C5F6FA"/>
<ellipse cx="166.031" cy="202.898" rx="7.15625" ry="7.13208" fill="#C5F6FA"/>
<ellipse cx="166.156" cy="229.049" rx="7.15625" ry="7.13208" fill="#C5F6FA"/>
<ellipse cx="166.156" cy="255.049" rx="7.15625" ry="7.13208" fill="#C5F6FA"/>
<ellipse cx="166.156" cy="282.049" rx="7.15625" ry="7.13208" fill="#C5F6FA"/>
<ellipse cx="166.156" cy="308.049" rx="7.15625" ry="7.13208" fill="#C5F6FA"/>
<ellipse cx="166.156" cy="334.049" rx="7.15625" ry="7.13208" fill="#C5F6FA"/>
<ellipse cx="166.156" cy="360.049" rx="7.15625" ry="7.13208" fill="#C5F6FA"/>
<ellipse cx="166.156" cy="386.049" rx="7.15625" ry="7.13208" fill="#C5F6FA"/>
<ellipse cx="60.7812" cy="124.105" rx="7.15625" ry="7.13208" fill="#C5F6FA"/>
<ellipse cx="60.7812" cy="150.37" rx="7.15625" ry="7.13208" fill="#C5F6FA"/>
<ellipse cx="60.7812" cy="176.634" rx="7.15625" ry="7.13208" fill="#C5F6FA"/>
<ellipse cx="60.7812" cy="202.898" rx="7.15625" ry="7.13208" fill="#C5F6FA"/>
<ellipse cx="60.7812" cy="229.162" rx="7.15625" ry="7.13208" fill="#C5F6FA"/>
<ellipse cx="60.7812" cy="255.426" rx="7.15625" ry="7.13208" fill="#C5F6FA"/>
<ellipse cx="61.1562" cy="282.049" rx="7.15625" ry="7.13208" fill="#C5F6FA"/>
<ellipse cx="61.1562" cy="308.049" rx="7.15625" ry="7.13208" fill="#C5F6FA"/>
<ellipse cx="61.1562" cy="334.049" rx="7.15625" ry="7.13208" fill="#C5F6FA"/>
<ellipse cx="61.1562" cy="360.049" rx="7.15625" ry="7.13208" fill="#C5F6FA"/>
<ellipse cx="61.1562" cy="386.049" rx="7.15625" ry="7.13208" fill="#C5F6FA"/>
<ellipse cx="61.1562" cy="412.049" rx="7.15625" ry="7.13208" fill="#C5F6FA"/>
<ellipse cx="61.1562" cy="438.049" rx="7.15625" ry="7.13208" fill="#C5F6FA"/>
<ellipse cx="61.1562" cy="464.049" rx="7.15625" ry="7.13208" fill="#C5F6FA"/>
<ellipse cx="87.0938" cy="71.5771" rx="7.15625" ry="7.13208" fill="#C5F6FA"/>
<ellipse cx="113.406" cy="71.5771" rx="7.15625" ry="7.13208" fill="#C5F6FA"/>
<ellipse cx="139.719" cy="71.5771" rx="7.15625" ry="7.13208" fill="#C5F6FA"/>
<ellipse cx="166.031" cy="71.5771" rx="7.15625" ry="7.13208" fill="#C5F6FA"/>
<ellipse cx="192.344" cy="71.5771" rx="7.15625" ry="7.13208" fill="#C5F6FA"/>
<ellipse cx="192.344" cy="97.8413" rx="7.15625" ry="7.13208" fill="#C5F6FA"/>
<ellipse cx="192.344" cy="124.105" rx="7.15625" ry="7.13208" fill="#C5F6FA"/>
<ellipse cx="192.344" cy="150.37" rx="7.15625" ry="7.13208" fill="#C5F6FA"/>
<ellipse cx="192.156" cy="177.049" rx="7.15625" ry="7.13208" fill="#C5F6FA"/>
<ellipse cx="192.156" cy="203.049" rx="7.15625" ry="7.13208" fill="#C5F6FA"/>
<ellipse cx="192.156" cy="229.049" rx="7.15625" ry="7.13208" fill="#C5F6FA"/>
<ellipse cx="192.156" cy="255.049" rx="7.15625" ry="7.13208" fill="#C5F6FA"/>
<ellipse cx="192.156" cy="282.049" rx="7.15625" ry="7.13208" fill="#C5F6FA"/>
<ellipse cx="192.156" cy="308.049" rx="7.15625" ry="7.13208" fill="#C5F6FA"/>
<ellipse cx="192.156" cy="334.049" rx="7.15625" ry="7.13208" fill="#C5F6FA"/>
<ellipse cx="34.4688" cy="97.8413" rx="7.15625" ry="7.13208" fill="#C5F6FA"/>
<ellipse cx="34.4688" cy="124.105" rx="7.15625" ry="7.13208" fill="#C5F6FA"/>
<ellipse cx="34.4688" cy="150.37" rx="7.15625" ry="7.13208" fill="#C5F6FA"/>
<ellipse cx="34.4688" cy="176.634" rx="7.15625" ry="7.13208" fill="#C5F6FA"/>
<ellipse cx="34.4688" cy="202.898" rx="7.15625" ry="7.13208" fill="#C5F6FA"/>
<ellipse cx="34.4688" cy="229.162" rx="7.15625" ry="7.13208" fill="#C5F6FA"/>
<ellipse cx="34.1562" cy="256.049" rx="7.15625" ry="7.13208" fill="#C5F6FA"/>
<ellipse cx="34.1562" cy="282.049" rx="7.15625" ry="7.13208" fill="#C5F6FA"/>
<ellipse cx="34.1562" cy="308.049" rx="7.15625" ry="7.13208" fill="#C5F6FA"/>
<ellipse cx="34.1562" cy="334.049" rx="7.15625" ry="7.13208" fill="#C5F6FA"/>
<ellipse cx="34.1562" cy="360.049" rx="7.15625" ry="7.13208" fill="#C5F6FA"/>
<ellipse cx="34.1562" cy="386.049" rx="7.15625" ry="7.13208" fill="#C5F6FA"/>
<ellipse cx="34.1562" cy="412.049" rx="7.15625" ry="7.13208" fill="#C5F6FA"/>
<ellipse cx="34.1562" cy="438.049" rx="7.15625" ry="7.13208" fill="#C5F6FA"/>
<ellipse cx="60.7812" cy="45.313" rx="7.15625" ry="7.13208" fill="#C5F6FA"/>
<ellipse cx="87.0938" cy="45.313" rx="7.15625" ry="7.13208" fill="#C5F6FA"/>
<ellipse cx="113.406" cy="45.313" rx="7.15625" ry="7.13208" fill="#C5F6FA"/>
<ellipse cx="139.719" cy="45.313" rx="7.15625" ry="7.13208" fill="#C5F6FA"/>
<ellipse cx="166.031" cy="45.313" rx="7.15625" ry="7.13208" fill="#C5F6FA"/>
<ellipse cx="192.344" cy="45.313" rx="7.15625" ry="7.13208" fill="#C5F6FA"/>
<ellipse cx="218.656" cy="45.313" rx="7.15625" ry="7.13208" fill="#C5F6FA"/>
<ellipse cx="218.656" cy="71.5771" rx="7.15625" ry="7.13208" fill="#C5F6FA"/>
<ellipse cx="218.656" cy="97.8413" rx="7.15625" ry="7.13208" fill="#C5F6FA"/>
<ellipse cx="218.656" cy="124.105" rx="7.15625" ry="7.13208" fill="#C5F6FA"/>
<ellipse cx="218.656" cy="150.37" rx="7.15625" ry="7.13208" fill="#C5F6FA"/>
<ellipse cx="218.656" cy="176.634" rx="7.15625" ry="7.13208" fill="#C5F6FA"/>
<ellipse cx="219.156" cy="203.049" rx="7.15625" ry="7.13208" fill="#C5F6FA"/>
<ellipse cx="219.156" cy="229.049" rx="7.15625" ry="7.13208" fill="#C5F6FA"/>
<ellipse cx="219.156" cy="255.049" rx="7.15625" ry="7.13208" fill="#C5F6FA"/>
<ellipse cx="219.156" cy="282.049" rx="7.15625" ry="7.13208" fill="#C5F6FA"/>
<ellipse cx="219.156" cy="308.049" rx="7.15625" ry="7.13208" fill="#C5F6FA"/>
<ellipse cx="219.156" cy="334.049" rx="7.15625" ry="7.13208" fill="#C5F6FA"/>
<ellipse cx="219.156" cy="360.049" rx="7.15625" ry="7.13208" fill="#C5F6FA"/>
<ellipse cx="34.4688" cy="19.0488" rx="7.15625" ry="7.13208" fill="#C5F6FA"/>
<ellipse cx="60.7812" cy="19.0488" rx="7.15625" ry="7.13208" fill="#C5F6FA"/>
<ellipse cx="87.0938" cy="19.0488" rx="7.15625" ry="7.13208" fill="#C5F6FA"/>
<ellipse cx="113.406" cy="19.0488" rx="7.15625" ry="7.13208" fill="#C5F6FA"/>
<ellipse cx="139.719" cy="19.0488" rx="7.15625" ry="7.13208" fill="#C5F6FA"/>
<ellipse cx="166.031" cy="19.0488" rx="7.15625" ry="7.13208" fill="#C5F6FA"/>
<ellipse cx="192.344" cy="19.0488" rx="7.15625" ry="7.13208" fill="#C5F6FA"/>
<ellipse cx="218.656" cy="19.0488" rx="7.15625" ry="7.13208" fill="#C5F6FA"/>
<ellipse cx="244.969" cy="19.0488" rx="7.15625" ry="7.13208" fill="#C5F6FA"/>
<ellipse cx="271.156" cy="19.0488" rx="7.15625" ry="7.13208" fill="#C5F6FA"/>
<ellipse cx="297.156" cy="19.0488" rx="7.15625" ry="7.13208" fill="#C5F6FA"/>
<ellipse cx="323.156" cy="19.0488" rx="7.15625" ry="7.13208" fill="#C5F6FA"/>
<ellipse cx="349.156" cy="19.0488" rx="7.15625" ry="7.13208" fill="#C5F6FA"/>
<ellipse cx="375.156" cy="19.0488" rx="7.15625" ry="7.13208" fill="#C5F6FA"/>
<ellipse cx="401.156" cy="19.0488" rx="7.15625" ry="7.13208" fill="#C5F6FA"/>
<ellipse cx="427.156" cy="20.0488" rx="7.15625" ry="7.13208" fill="#C5F6FA"/>
<ellipse cx="453.156" cy="20.0488" rx="7.15625" ry="7.13208" fill="#C5F6FA"/>
<ellipse cx="479.156" cy="19.0488" rx="7.15625" ry="7.13208" fill="#C5F6FA"/>
<ellipse cx="244.969" cy="45.313" rx="7.15625" ry="7.13208" fill="#C5F6FA"/>
<ellipse cx="271.156" cy="45.313" rx="7.15625" ry="7.13208" fill="#C5F6FA"/>
<ellipse cx="297.156" cy="45.313" rx="7.15625" ry="7.13208" fill="#C5F6FA"/>
<ellipse cx="323.156" cy="45.313" rx="7.15625" ry="7.13208" fill="#C5F6FA"/>
<ellipse cx="349.156" cy="45.313" rx="7.15625" ry="7.13208" fill="#C5F6FA"/>
<ellipse cx="375.156" cy="45.313" rx="7.15625" ry="7.13208" fill="#C5F6FA"/>
<ellipse cx="401.156" cy="45.313" rx="7.15625" ry="7.13208" fill="#C5F6FA"/>
<ellipse cx="427.156" cy="46.313" rx="7.15625" ry="7.13208" fill="#C5F6FA"/>
<ellipse cx="453.156" cy="46.313" rx="7.15625" ry="7.13208" fill="#C5F6FA"/>
<ellipse cx="479.156" cy="45.313" rx="7.15625" ry="7.13208" fill="#C5F6FA"/>
<ellipse cx="244.969" cy="71.5771" rx="7.15625" ry="7.13208" fill="#C5F6FA"/>
<ellipse cx="271.156" cy="71.5771" rx="7.15625" ry="7.13208" fill="#C5F6FA"/>
<ellipse cx="297.156" cy="71.5771" rx="7.15625" ry="7.13208" fill="#C5F6FA"/>
<ellipse cx="323.156" cy="71.5771" rx="7.15625" ry="7.13208" fill="#C5F6FA"/>
<ellipse cx="349.156" cy="71.5771" rx="7.15625" ry="7.13208" fill="#C5F6FA"/>
<ellipse cx="375.156" cy="71.5771" rx="7.15625" ry="7.13208" fill="#C5F6FA"/>
<ellipse cx="401.156" cy="71.5771" rx="7.15625" ry="7.13208" fill="#C5F6FA"/>
<ellipse cx="427.156" cy="72.5771" rx="7.15625" ry="7.13208" fill="#C5F6FA"/>
<ellipse cx="453.156" cy="72.5771" rx="7.15625" ry="7.13208" fill="#C5F6FA"/>
<ellipse cx="479.156" cy="71.5771" rx="7.15625" ry="7.13208" fill="#C5F6FA"/>
<ellipse cx="244.969" cy="97.8413" rx="7.15625" ry="7.13208" fill="#C5F6FA"/>
<ellipse cx="271.156" cy="97.8413" rx="7.15625" ry="7.13208" fill="#C5F6FA"/>
<ellipse cx="297.156" cy="97.8413" rx="7.15625" ry="7.13208" fill="#C5F6FA"/>
<ellipse cx="323.156" cy="97.8413" rx="7.15625" ry="7.13208" fill="#C5F6FA"/>
<ellipse cx="349.156" cy="97.8413" rx="7.15625" ry="7.13208" fill="#C5F6FA"/>
<ellipse cx="375.156" cy="97.8413" rx="7.15625" ry="7.13208" fill="#C5F6FA"/>
<ellipse cx="401.156" cy="97.8413" rx="7.15625" ry="7.13208" fill="#C5F6FA"/>
<ellipse cx="427.156" cy="98.8413" rx="7.15625" ry="7.13208" fill="#C5F6FA"/>
<ellipse cx="453.156" cy="98.8413" rx="7.15625" ry="7.13208" fill="#C5F6FA"/>
<ellipse cx="479.156" cy="97.8413" rx="7.15625" ry="7.13208" fill="#C5F6FA"/>
<ellipse cx="244.969" cy="124.105" rx="7.15625" ry="7.13208" fill="#C5F6FA"/>
<ellipse cx="271.156" cy="124.105" rx="7.15625" ry="7.13208" fill="#C5F6FA"/>
<ellipse cx="297.156" cy="124.105" rx="7.15625" ry="7.13208" fill="#C5F6FA"/>
<ellipse cx="323.156" cy="124.105" rx="7.15625" ry="7.13208" fill="#C5F6FA"/>
<ellipse cx="349.156" cy="124.105" rx="7.15625" ry="7.13208" fill="#C5F6FA"/>
<ellipse cx="375.156" cy="124.105" rx="7.15625" ry="7.13208" fill="#C5F6FA"/>
<ellipse cx="401.156" cy="124.105" rx="7.15625" ry="7.13208" fill="#C5F6FA"/>
<ellipse cx="427.156" cy="125.105" rx="7.15625" ry="7.13208" fill="#C5F6FA"/>
<ellipse cx="453.156" cy="125.105" rx="7.15625" ry="7.13208" fill="#C5F6FA"/>
<ellipse cx="479.156" cy="124.105" rx="7.15625" ry="7.13208" fill="#C5F6FA"/>
<ellipse cx="245.156" cy="151.049" rx="7.15625" ry="7.13208" fill="#C5F6FA"/>
<ellipse cx="271.344" cy="151.049" rx="7.15625" ry="7.13208" fill="#C5F6FA"/>
<ellipse cx="297.344" cy="151.049" rx="7.15625" ry="7.13208" fill="#C5F6FA"/>
<ellipse cx="323.344" cy="151.049" rx="7.15625" ry="7.13208" fill="#C5F6FA"/>
<ellipse cx="349.344" cy="151.049" rx="7.15625" ry="7.13208" fill="#C5F6FA"/>
<ellipse cx="375.344" cy="151.049" rx="7.15625" ry="7.13208" fill="#C5F6FA"/>
<ellipse cx="401.344" cy="151.049" rx="7.15625" ry="7.13208" fill="#C5F6FA"/>
<ellipse cx="427.344" cy="152.049" rx="7.15625" ry="7.13208" fill="#C5F6FA"/>
<ellipse cx="453.344" cy="152.049" rx="7.15625" ry="7.13208" fill="#C5F6FA"/>
<ellipse cx="245.156" cy="177.049" rx="7.15625" ry="7.13208" fill="#C5F6FA"/>
<ellipse cx="271.344" cy="177.049" rx="7.15625" ry="7.13208" fill="#C5F6FA"/>
<ellipse cx="297.344" cy="177.049" rx="7.15625" ry="7.13208" fill="#C5F6FA"/>
<ellipse cx="323.344" cy="177.049" rx="7.15625" ry="7.13208" fill="#C5F6FA"/>
<ellipse cx="349.344" cy="177.049" rx="7.15625" ry="7.13208" fill="#C5F6FA"/>
<ellipse cx="375.344" cy="177.049" rx="7.15625" ry="7.13208" fill="#C5F6FA"/>
<ellipse cx="401.344" cy="177.049" rx="7.15625" ry="7.13208" fill="#C5F6FA"/>
<ellipse cx="427.344" cy="178.049" rx="7.15625" ry="7.13208" fill="#C5F6FA"/>
<ellipse cx="453.344" cy="178.049" rx="7.15625" ry="7.13208" fill="#C5F6FA"/>
<ellipse cx="245.156" cy="203.049" rx="7.15625" ry="7.13208" fill="#C5F6FA"/>
<ellipse cx="271.344" cy="203.049" rx="7.15625" ry="7.13208" fill="#C5F6FA"/>
<ellipse cx="297.344" cy="203.049" rx="7.15625" ry="7.13208" fill="#C5F6FA"/>
<ellipse cx="323.344" cy="203.049" rx="7.15625" ry="7.13208" fill="#C5F6FA"/>
<ellipse cx="349.344" cy="203.049" rx="7.15625" ry="7.13208" fill="#C5F6FA"/>
<ellipse cx="375.344" cy="203.049" rx="7.15625" ry="7.13208" fill="#C5F6FA"/>
<ellipse cx="401.344" cy="203.049" rx="7.15625" ry="7.13208" fill="#C5F6FA"/>
<ellipse cx="245.156" cy="229.049" rx="7.15625" ry="7.13208" fill="#C5F6FA"/>
<ellipse cx="271.344" cy="229.049" rx="7.15625" ry="7.13208" fill="#C5F6FA"/>
<ellipse cx="297.344" cy="229.049" rx="7.15625" ry="7.13208" fill="#C5F6FA"/>
<ellipse cx="323.344" cy="229.049" rx="7.15625" ry="7.13208" fill="#C5F6FA"/>
<ellipse cx="349.344" cy="229.049" rx="7.15625" ry="7.13208" fill="#C5F6FA"/>
<ellipse cx="375.344" cy="229.049" rx="7.15625" ry="7.13208" fill="#C5F6FA"/>
<ellipse cx="401.344" cy="229.049" rx="7.15625" ry="7.13208" fill="#C5F6FA"/>
<ellipse cx="245.156" cy="255.049" rx="7.15625" ry="7.13208" fill="#C5F6FA"/>
<ellipse cx="271.344" cy="255.049" rx="7.15625" ry="7.13208" fill="#C5F6FA"/>
<ellipse cx="297.344" cy="255.049" rx="7.15625" ry="7.13208" fill="#C5F6FA"/>
<ellipse cx="323.344" cy="255.049" rx="7.15625" ry="7.13208" fill="#C5F6FA"/>
<ellipse cx="349.344" cy="255.049" rx="7.15625" ry="7.13208" fill="#C5F6FA"/>
<ellipse cx="375.344" cy="255.049" rx="7.15625" ry="7.13208" fill="#C5F6FA"/>
<ellipse cx="245.156" cy="282.049" rx="7.15625" ry="7.13208" fill="#C5F6FA"/>
<ellipse cx="271.344" cy="282.049" rx="7.15625" ry="7.13208" fill="#C5F6FA"/>
<ellipse cx="297.344" cy="282.049" rx="7.15625" ry="7.13208" fill="#C5F6FA"/>
<ellipse cx="323.344" cy="282.049" rx="7.15625" ry="7.13208" fill="#C5F6FA"/>
<ellipse cx="245.156" cy="308.049" rx="7.15625" ry="7.13208" fill="#C5F6FA"/>
<ellipse cx="271.344" cy="308.049" rx="7.15625" ry="7.13208" fill="#C5F6FA"/>
<ellipse cx="271.156" cy="334.049" rx="7.15625" ry="7.13208" fill="#C5F6FA"/>
<ellipse cx="349.156" cy="282.049" rx="7.15625" ry="7.13208" fill="#C5F6FA"/>
<ellipse cx="8.15625" cy="71.5771" rx="7.15625" ry="7.13208" fill="#C5F6FA"/>
<ellipse cx="8.15625" cy="97.8413" rx="7.15625" ry="7.13208" fill="#C5F6FA"/>
<ellipse cx="8.15625" cy="124.105" rx="7.15625" ry="7.13208" fill="#C5F6FA"/>
<ellipse cx="8.15625" cy="150.37" rx="7.15625" ry="7.13208" fill="#C5F6FA"/>
<ellipse cx="8.15625" cy="176.634" rx="7.15625" ry="7.13208" fill="#C5F6FA"/>
<ellipse cx="8.15625" cy="202.898" rx="7.15625" ry="7.13208" fill="#C5F6FA"/>
<ellipse cx="8.15625" cy="229.162" rx="7.15625" ry="7.13208" fill="#C5F6FA"/>
<ellipse cx="8.15625" cy="255.426" rx="7.15625" ry="7.13208" fill="#C5F6FA"/>
<ellipse cx="8.15625" cy="281.69" rx="7.15625" ry="7.13208" fill="#C5F6FA"/>
<ellipse cx="8.15625" cy="308.049" rx="7.15625" ry="7.13208" fill="#C5F6FA"/>
<ellipse cx="8.15625" cy="334.049" rx="7.15625" ry="7.13208" fill="#C5F6FA"/>
<ellipse cx="8.15625" cy="360.049" rx="7.15625" ry="7.13208" fill="#C5F6FA"/>
<ellipse cx="8.15625" cy="386.049" rx="7.15625" ry="7.13208" fill="#C5F6FA"/>
<ellipse cx="8.15625" cy="412.049" rx="7.15625" ry="7.13208" fill="#C5F6FA"/>
<ellipse cx="8.15625" cy="438.049" rx="7.15625" ry="7.13208" fill="#C5F6FA"/>
<ellipse cx="8.15625" cy="464.049" rx="7.15625" ry="7.13208" fill="#C5F6FA"/>
<ellipse cx="8.15625" cy="490.049" rx="7.15625" ry="7.13208" fill="#C5F6FA"/>
</g>
</svg>
