<svg width="375" height="665" viewBox="0 0 375 665" fill="none" xmlns="http://www.w3.org/2000/svg">
<mask id="mask0_181_159" style="mask-type:alpha" maskUnits="userSpaceOnUse" x="0" y="0" width="375" height="665">
<rect width="375" height="665" fill="#D9D9D9"/>
</mask>
<g mask="url(#mask0_181_159)">
<path fill-rule="evenodd" clip-rule="evenodd" d="M48.8534 3.55335L48.8534 38.5995L0 38.5995V39.5995L48.8534 39.5995V78.0069H0V79.0069H48.8534L48.8534 117.414H0V118.414H48.8534V156.822H0V157.822H48.8534L48.8534 196.229H0V197.229H48.8534V235.637H0V236.637H48.8534L48.8534 275.044H0V276.044H48.8534V314.451H0V315.451H48.8534L48.8534 353.859H0V354.859H48.8534V393.266H0V394.266H48.8534L48.8534 432.674H0V433.674H48.8534V472.081H0V473.081H48.8534L48.8534 511.488H0V512.488H48.8534V550.896H0V551.896H48.8534L48.8534 590.303H0V591.303H48.8534L48.8534 629.711H0V630.711H48.8534V665H49.8534V630.711H97.8242V665H98.8242V630.711H146.795V665H147.795V630.711H195.766V665H196.766V630.711H244.737V665H245.737V630.711H293.707V665H294.707V630.711H342.678V665H343.678V630.711L379.566 630.711L379.039 629.711L343.678 629.711V591.303H358.786L358.258 590.303H343.678V562.654L342.678 560.758V590.303H294.707V551.896H338.005L337.478 550.896H294.707V512.488H317.225L316.698 511.488H294.707L294.708 473.081H296.445L295.917 472.081H294.708V469.787L293.708 467.89V472.081H245.737V433.674H275.664L275.137 432.674H245.737V394.266H254.884L254.357 393.266H245.737V376.919L244.737 375.023V393.266H196.766V354.859H234.104L233.576 353.859H196.766L196.766 315.451H213.323L212.796 314.451H196.766V284.052L195.766 282.156V314.451H147.795V276.044H192.543L192.016 275.044H147.795V236.637H171.763L171.236 235.637H147.795V197.229H150.983L150.455 196.229H147.795V191.185L146.795 189.288V196.229L98.8242 196.229V157.822L130.202 157.822L129.675 156.822L98.8242 156.822V118.414H109.422L108.895 117.414H98.8242V98.3172L97.8242 96.4208V117.414L49.8534 117.414L49.8534 79.0069L88.6416 79.007L88.1143 78.007L49.8534 78.0069V39.5995H67.8613L67.334 38.5995H49.8534L49.8534 5.44974L48.8534 3.55335ZM1371.19 0L1372.07 1.65274V0H1371.19ZM1391.55 38.5996L1392.08 39.5996L1420.04 39.5996V78.007H1412.33L1412.86 79.007H1420.04V92.6237L1421.04 94.5201V79.007H1469.12V78.007H1421.04V39.5996L1469.12 39.5996V38.5996L1421.04 38.5996V0H1420.04V38.5996L1391.55 38.5996ZM1433.11 117.414L1433.64 118.414H1469.12V117.414H1433.11ZM1453.89 156.822L1454.42 157.822H1469.12V156.822H1453.89ZM392.649 655.521L391.649 653.625V665H392.649V655.521ZM342.678 591.303V629.711H294.707V591.303H342.678ZM293.707 591.303V629.711H245.737V591.303H293.707ZM244.737 591.303V629.711H196.766V591.303H244.737ZM195.766 591.303V629.711H147.795V591.303H195.766ZM146.795 591.303V629.711H98.8242L98.8242 591.303H146.795ZM97.8242 591.303L97.8242 629.711H49.8534L49.8534 591.303H97.8242ZM97.8242 590.303H49.8534L49.8534 551.896H97.8242V590.303ZM97.8242 550.896H49.8534V512.488H97.8242V550.896ZM97.8242 511.488H49.8534L49.8534 473.081H97.8242V511.488ZM97.8242 472.081H49.8534V433.674H97.8242L97.8242 472.081ZM97.8242 432.674H49.8534L49.8534 394.266H97.8242V432.674ZM97.8242 393.266H49.8534V354.859H97.8242V393.266ZM97.8242 353.859H49.8534L49.8534 315.451H97.8242L97.8242 353.859ZM97.8242 314.451H49.8534V276.044H97.8242V314.451ZM97.8242 275.044H49.8534L49.8534 236.637H97.8242V275.044ZM97.8242 235.637H49.8534V197.229H97.8242L97.8242 235.637ZM97.8242 196.229H49.8534L49.8534 157.822H97.8242V196.229ZM97.8242 156.822H49.8534V118.414L97.8242 118.414V156.822ZM293.707 551.896V590.303H245.737L245.737 551.896H293.707ZM244.737 551.896L244.737 590.303H196.766L196.766 551.896H244.737ZM195.766 551.896L195.766 590.303H147.795V551.896H195.766ZM146.795 551.896V590.303H98.8242V551.896H146.795ZM146.795 550.896H98.8242V512.488H146.795V550.896ZM146.795 511.488H98.8242V473.081H146.795L146.795 511.488ZM146.795 472.081H98.8242L98.8242 433.674H146.795V472.081ZM146.795 432.674H98.8242V394.266H146.795V432.674ZM146.795 393.266H98.8242V354.859H146.795V393.266ZM146.795 353.859H98.8242L98.8242 315.451H146.795V353.859ZM146.795 314.451H98.8242V276.044H146.795V314.451ZM146.795 275.044H98.8242V236.637L146.795 236.637V275.044ZM146.795 235.637L98.8242 235.637L98.8242 197.229L146.795 197.229V235.637ZM293.707 512.488V550.896H245.737V512.488H293.707ZM244.737 512.488V550.896H196.766V512.488H244.737ZM195.766 512.488V550.896H147.795V512.488H195.766ZM195.766 511.488L147.795 511.488L147.795 473.081L195.766 473.081V511.488ZM195.766 472.081L147.795 472.081V433.674L195.766 433.674V472.081ZM195.766 432.674L147.795 432.674V394.266L195.766 394.266V432.674ZM195.766 393.266L147.795 393.266V354.859H195.766V393.266ZM195.766 353.859H147.795V315.451H195.766L195.766 353.859ZM293.708 473.081L293.707 511.488H245.737V473.081H293.708ZM244.737 473.081V511.488H196.766V473.081H244.737ZM244.737 472.081H196.766V433.674H244.737V472.081ZM244.737 432.674H196.766V394.266H244.737V432.674Z" fill="#C5F6FA" fill-opacity="0.7"/>
</g>
</svg>
