<svg width="138" height="150" viewBox="0 0 138 150" fill="none" xmlns="http://www.w3.org/2000/svg">
<path d="M20.8834 117.715L13.928 83.4495L49.4536 85.925L45.891 47.8841L80.7023 51.1544L74.2826 16.2925L109.808 18.768" stroke="#15AABF" stroke-opacity="0.5" stroke-width="4"/>
<path d="M26.7146 143.537L19.5404 91.1948L55.6557 94.7282L52.3415 56.4004L86.6936 59.4484L79.5533 25.0384L114.316 27.5453L126.445 50.6064L93.0448 47.428L99.2334 81.9684L65.0444 80.1101L67.8272 116.329L31.2264 114.559L35.8244 148.106L26.7146 143.537Z" fill="#99E9F2" fill-opacity="0.5"/>
<path d="M33.2505 140.744L26.2952 106.478L61.8208 108.954L58.2581 70.9129L93.0695 74.1832L86.6498 39.3213L122.175 41.7968" stroke="#15AABF" stroke-opacity="0.5" stroke-width="4"/>
</svg>
