<svg width="1440" height="1093" viewBox="0 0 1440 1093" fill="none" xmlns="http://www.w3.org/2000/svg">
<mask id="mask0_116_289" style="mask-type:alpha" maskUnits="userSpaceOnUse" x="0" y="0" width="1440" height="1093">
<rect width="1440" height="1093" fill="#D9D9D9"/>
</mask>
<g mask="url(#mask0_116_289)">
<path fill-rule="evenodd" clip-rule="evenodd" d="M45.6865 -0.999998L-1 -1V0L47.0709 4.64916e-06L45.6865 -0.999998ZM78.6529 22.8129L78.6529 63L-1 63V64H78.6529V127H-1V128H78.6529L78.6529 191H-1V192H78.6529V255H-1V256H78.6529V319H-1V320H78.6529L78.6529 383H-1V384H78.6529V447H-1V448H78.6529L78.6529 511H-1V512H78.6529V575H-1V576H78.6529L78.6528 639H-1V640H78.6528V703H-1V704H78.6528V767H-1V768H78.6528L78.6528 831H-1V832H78.6528V895H-1V896H78.6528L78.6528 959H-1V960H78.6528V1016H79.6528V960H158.184V1016H159.184V960H237.716V1016H238.716V960H317.248V1016H318.248V960H396.779V1016H397.779V960H476.311V1016H477.311V960H555.842V1016H556.842V960L635.374 960V1016H636.374V960H714.905V1016H715.905V960H794.437V1016H795.437V960H873.968V1016H874.968V960H953.5V1016H954.5V960H1033.03V1016H1034.03V960H1112.56V1016H1113.56V960H1192.09V1016H1193.09V960H1271.63V1016H1272.63V960H1351.16V1016H1352.16V960H1376.09L1374.7 959H1352.16V942.715L1351.16 941.992V959H1272.63V896H1287.49L1286.1 895H1272.63V885.266L1271.63 884.544V895H1193.09V832H1198.89L1197.5 831H1193.09V827.817L1192.09 827.095V831L1113.56 831V770.369L1112.56 769.646V831H1034.03V768H1110.28L1108.9 767H1034.03V712.92L1033.03 712.198V767H954.5V704H1021.68L1020.3 703H954.5V655.471L953.5 654.749V703H874.968V640H933.082L931.697 639H874.968V598.022L873.968 597.3V639H795.437V576H844.481L843.096 575H795.437V540.574L794.437 539.851V575H715.905V512H755.88L754.495 511H715.905V483.125L714.905 482.403V511H636.374L636.374 448H667.279L665.894 447H636.374V425.676L635.374 424.954V447H556.842V384H578.677L577.293 383H556.842V368.228L555.842 367.505V383H477.311V320H490.076L488.692 319H477.311V310.779L476.311 310.057V319H397.779V256H401.475L400.091 255H397.779V253.33L396.779 252.608V255H318.248V195.881L317.248 195.159V255H238.716V192H312.874L311.49 191H238.716V138.433L237.716 137.71V191H159.184V128H224.273L222.889 127H159.184L159.184 80.984L158.184 80.2617L158.184 127L79.6529 127V64L135.672 64L134.288 63H79.6529L79.6529 23.5352L78.6529 22.8129ZM1430.69 999.441V1016H1431.69V1000.16L1430.69 999.441ZM1828.35 1008.35V1016H1829.35V1007.43L1828.35 1008.35ZM1880.78 960H1907.88V1016H1908.88V960H1987.41V1016H1988.41V960H2066.94V1016H2067.94V960H2146.47V1016H2147.47V960H2226V1016H2227V960H2305.54V1016H2306.54V960H2384.95V959H2306.54V896H2384.95V895H2306.54V832H2384.95V831H2306.54V768H2384.95V767H2306.54V704H2384.95V703H2306.54V640H2384.95V639H2306.54V576H2384.95V575H2306.54V567.438L2305.54 568.36V575H2298.33L2297.25 576H2305.54V639H2228.92L2227.84 640H2305.54V703H2227V640.77L2226 641.692V703H2159.51L2158.43 704H2226V767H2147.47V714.101L2146.47 715.023V767H2090.1L2089.02 768H2146.47V831H2067.94V787.433L2066.94 788.355V831H2020.69L2019.61 832H2066.94V895H1988.41V860.765L1987.41 861.687V895H1951.28L1950.2 896H1987.41V959L1908.88 959V934.096L1907.88 935.018V959H1881.87L1880.78 960ZM2366.66 512H2384.95V511H2367.75L2366.66 512ZM2227 704H2305.54V767H2227V704ZM2227 768H2305.54V831H2227V768ZM2227 832H2305.54V895H2227V832ZM2227 896H2305.54V959H2227V896ZM2226 896V959H2147.47V896H2226ZM2146.47 896V959H2067.94V896H2146.47ZM2066.94 896V959H1988.41V896H2066.94ZM1271.63 896V959H1193.09V896H1271.63ZM1192.09 896V959L1113.56 959V896L1192.09 896ZM1112.56 896V959H1034.03V896H1112.56ZM1033.03 896V959H954.5V896H1033.03ZM953.5 896V959H874.968V896H953.5ZM873.968 896V959H795.437V896H873.968ZM794.437 896V959H715.905V896H794.437ZM714.905 896V959H636.374V896H714.905ZM635.374 896V959H556.842V896H635.374ZM555.842 896V959H477.311V896H555.842ZM476.311 896V959H397.779V896H476.311ZM396.779 896V959L318.248 959V896L396.779 896ZM317.248 896V959H238.716V896H317.248ZM237.716 896V959H159.184V896H237.716ZM158.184 896V959H79.6528L79.6528 896H158.184ZM158.184 895H79.6528V832H158.184L158.184 895ZM158.184 831H79.6528L79.6528 768H158.184V831ZM158.184 767H79.6528V704H158.184V767ZM158.184 703H79.6528V640H158.184V703ZM158.184 639H79.6528L79.6529 576H158.184L158.184 639ZM158.184 575H79.6529V512H158.184V575ZM158.184 511H79.6529L79.6529 448H158.184V511ZM158.184 447H79.6529V384H158.184V447ZM158.184 383H79.6529L79.6529 320H158.184L158.184 383ZM158.184 319H79.6529V256H158.184V319ZM158.184 255H79.6529V192H158.184V255ZM158.184 191L79.6529 191L79.6529 128L158.184 128V191ZM2147.47 768H2226V831H2147.47V768ZM2147.47 832H2226V895H2147.47V832ZM2146.47 832V895H2067.94V832H2146.47ZM1192.09 832V895L1113.56 895V832L1192.09 832ZM1112.56 832V895H1034.03V832H1112.56ZM1033.03 832V895H954.5V832H1033.03ZM953.5 832V895H874.968V832H953.5ZM873.968 832V895H795.437V832H873.968ZM794.437 832V895H715.905V832H794.437ZM714.905 832V895H636.374V832H714.905ZM635.374 832V895H556.842V832H635.374ZM555.842 832V895H477.311V832H555.842ZM476.311 832V895H397.779V832H476.311ZM396.779 832V895L318.248 895L318.248 832L396.779 832ZM317.248 832L317.248 895H238.716L238.716 832H317.248ZM237.716 832L237.716 895H159.184L159.184 832H237.716ZM237.716 831H159.184V768H237.716V831ZM237.716 767H159.184V704H237.716V767ZM237.716 703H159.184V640H237.716V703ZM237.716 639H159.184L159.184 576H237.716V639ZM237.716 575H159.184V512H237.716V575ZM237.716 511H159.184V448H237.716L237.716 511ZM237.716 447L159.184 447V384L237.716 384V447ZM237.716 383L159.184 383L159.184 320L237.716 320V383ZM237.716 319L159.184 319V256L237.716 256V319ZM237.716 255L159.184 255V192L237.716 192V255ZM1033.03 768V831H954.5V768H1033.03ZM953.5 768V831H874.968V768H953.5ZM873.968 768V831H795.437V768H873.968ZM794.437 768V831H715.905V768H794.437ZM714.905 768V831H636.374V768H714.905ZM635.374 768V831H556.842V768H635.374ZM555.842 768V831H477.311V768H555.842ZM476.311 768V831H397.779V768H476.311ZM396.779 768V831L318.248 831V768L396.779 768ZM317.248 768V831H238.716V768H317.248ZM317.248 767H238.716V704H317.248V767ZM317.248 703H238.716V640H317.248V703ZM317.248 639H238.716V576H317.248V639ZM317.248 575H238.716V512H317.248V575ZM317.248 511H238.716L238.716 448H317.248L317.248 511ZM317.248 447H238.716V384H317.248V447ZM317.248 383H238.716V320H317.248V383ZM317.248 319H238.716V256H317.248V319ZM953.5 704V767H874.968V704H953.5ZM873.968 704V767H795.437V704H873.968ZM794.437 704V767H715.905V704H794.437ZM714.905 704V767H636.374V704H714.905ZM635.374 704V767H556.842V704H635.374ZM555.842 704V767H477.311L477.311 704H555.842ZM476.311 704L476.311 767H397.779L397.779 704H476.311ZM396.779 704L396.779 767L318.248 767V704L396.779 704ZM396.779 703L318.248 703V640L396.779 640V703ZM396.779 639L318.248 639V576L396.779 576V639ZM396.779 575L318.248 575V512L396.779 512V575ZM396.779 511L318.248 511L318.248 448H396.779V511ZM396.779 447H318.248V384H396.779V447ZM396.779 383H318.248V320H396.779V383ZM396.779 319H318.248V256H396.779V319ZM873.968 640V703H795.437V640H873.968ZM794.437 640V703H715.905V640H794.437ZM714.905 640V703H636.374V640H714.905ZM635.374 640V703H556.842V640H635.374ZM555.842 640V703H477.311V640H555.842ZM476.311 640V703H397.779V640H476.311ZM476.311 639H397.779V576H476.311V639ZM476.311 575H397.779V512H476.311V575ZM476.311 511H397.779V448H476.311V511ZM476.311 447H397.779V384H476.311V447ZM476.311 383H397.779V320H476.311V383ZM794.437 576V639H715.905V576H794.437ZM714.905 576V639H636.374V576H714.905ZM635.374 576V639H556.842V576H635.374ZM555.842 576V639H477.311V576H555.842ZM555.842 575H477.311V512H555.842V575ZM555.842 511H477.311V448H555.842L555.842 511ZM555.842 447H477.311V384H555.842V447ZM714.905 512V575H636.374V512H714.905ZM635.374 512V575H556.842V512H635.374ZM635.374 511H556.842L556.842 448L635.374 448L635.374 511Z" fill="#C5F6FA" fill-opacity="0.7"/>
<circle cx="192.922" cy="741.978" r="90.9962" fill="#FFC9C9" fill-opacity="0.5"/>
<line x1="92.2239" y1="819.575" x2="173.245" y2="850.053" stroke="#495057" stroke-opacity="0.5" stroke-width="3"/>
<line x1="111.859" y1="836.99" x2="145.536" y2="849.658" stroke="#495057" stroke-opacity="0.5" stroke-width="3"/>
<line x1="82.8387" y1="806.016" x2="188.751" y2="845.858" stroke="#495057" stroke-opacity="0.5" stroke-width="3"/>
<line x1="75.4061" y1="793.191" x2="201.818" y2="840.745" stroke="#495057" stroke-opacity="0.5" stroke-width="3"/>
<line x1="72.8542" y1="782.202" x2="212.444" y2="834.713" stroke="#495057" stroke-opacity="0.5" stroke-width="3"/>
<line x1="70.7902" y1="771.397" x2="221.118" y2="827.948" stroke="#495057" stroke-opacity="0.5" stroke-width="3"/>
<line x1="69.7022" y1="760.96" x2="227.839" y2="820.447" stroke="#495057" stroke-opacity="0.5" stroke-width="3"/>
<line x1="70.0787" y1="751.073" x2="234.072" y2="812.764" stroke="#495057" stroke-opacity="0.5" stroke-width="3"/>
<line x1="71.9192" y1="741.737" x2="238.841" y2="804.529" stroke="#495057" stroke-opacity="0.5" stroke-width="3"/>
<line x1="73.2719" y1="732.217" x2="243.611" y2="796.295" stroke="#495057" stroke-opacity="0.5" stroke-width="3"/>
<line x1="76.5768" y1="723.431" x2="246.916" y2="787.509" stroke="#495057" stroke-opacity="0.5" stroke-width="3"/>
<line x1="81.3459" y1="715.197" x2="248.756" y2="778.173" stroke="#495057" stroke-opacity="0.5" stroke-width="3"/>
<line x1="86.6032" y1="707.146" x2="250.109" y2="768.653" stroke="#495057" stroke-opacity="0.5" stroke-width="3"/>
<line x1="92.8365" y1="699.462" x2="250.485" y2="758.766" stroke="#495057" stroke-opacity="0.5" stroke-width="3"/>
<line x1="100.534" y1="692.329" x2="249.885" y2="748.512" stroke="#495057" stroke-opacity="0.5" stroke-width="3"/>
<line x1="109.208" y1="685.563" x2="247.333" y2="737.523" stroke="#495057" stroke-opacity="0.5" stroke-width="3"/>
<line x1="119.346" y1="679.348" x2="243.317" y2="725.984" stroke="#495057" stroke-opacity="0.5" stroke-width="3"/>
<line x1="131.924" y1="674.051" x2="236.86" y2="713.526" stroke="#495057" stroke-opacity="0.5" stroke-width="3"/>
<line x1="149.871" y1="670.774" x2="226.499" y2="699.6" stroke="#495057" stroke-opacity="0.5" stroke-width="3"/>
<line x1="176.116" y1="670.618" x2="206.864" y2="682.185" stroke="#495057" stroke-opacity="0.5" stroke-width="3"/>
<path d="M1250.07 216.767L1345.56 382.161H1154.58L1250.07 216.767Z" fill="#FFEC99" fill-opacity="0.5"/>
<path d="M1197.25 377.647L1295.56 268.786L1340.68 408.356L1197.25 377.647Z" stroke="#495057" stroke-opacity="0.5" stroke-width="6"/>
<path d="M1150.53 856.406L1139.03 799.748L1197.77 803.842L1191.88 740.942L1249.44 746.349L1238.82 688.706L1297.57 692.799" stroke="#15AABF" stroke-opacity="0.5" stroke-width="6"/>
<path d="M1160.17 899.101L1148.31 812.555L1208.03 818.398L1202.55 755.024L1259.35 760.063L1247.54 703.167L1305.02 707.313L1325.07 745.443L1269.85 740.188L1280.08 797.3L1223.55 794.227L1228.15 854.114L1167.63 851.187L1175.23 906.656L1160.17 899.101Z" fill="#99E9F2" fill-opacity="0.5"/>
<path d="M1170.98 894.483L1159.48 837.826L1218.22 841.919L1212.33 779.019L1269.89 784.426L1259.27 726.783L1318.01 730.876" stroke="#15AABF" stroke-opacity="0.5" stroke-width="6"/>
<ellipse cx="7.15625" cy="6.89892" rx="7.15625" ry="7.13208" fill="#C5F6FA"/>
<ellipse cx="7.15625" cy="33.1631" rx="7.15625" ry="7.13208" fill="#C5F6FA"/>
<ellipse cx="33.4688" cy="33.1631" rx="7.15625" ry="7.13208" fill="#C5F6FA"/>
<ellipse cx="33.4688" cy="59.4272" rx="7.15625" ry="7.13208" fill="#C5F6FA"/>
<ellipse cx="59.7812" cy="59.4272" rx="7.15625" ry="7.13208" fill="#C5F6FA"/>
<ellipse cx="59.7812" cy="85.6914" rx="7.15625" ry="7.13208" fill="#C5F6FA"/>
<ellipse cx="86.0938" cy="85.6914" rx="7.15625" ry="7.13208" fill="#C5F6FA"/>
<ellipse cx="86.0938" cy="111.956" rx="7.15625" ry="7.13208" fill="#C5F6FA"/>
<ellipse cx="112.406" cy="111.956" rx="7.15625" ry="7.13208" fill="#C5F6FA"/>
<ellipse cx="112.406" cy="138.22" rx="7.15625" ry="7.13208" fill="#C5F6FA"/>
<ellipse cx="112.406" cy="164.484" rx="7.15625" ry="7.13208" fill="#C5F6FA"/>
<ellipse cx="112.406" cy="190.748" rx="7.15625" ry="7.13208" fill="#C5F6FA"/>
<ellipse cx="112.406" cy="217.012" rx="7.15625" ry="7.13208" fill="#C5F6FA"/>
<ellipse cx="112.156" cy="242.899" rx="7.15625" ry="7.13208" fill="#C5F6FA"/>
<ellipse cx="112.156" cy="269.899" rx="7.15625" ry="7.13208" fill="#C5F6FA"/>
<ellipse cx="112.156" cy="295.899" rx="7.15625" ry="7.13208" fill="#C5F6FA"/>
<ellipse cx="112.156" cy="321.899" rx="7.15625" ry="7.13208" fill="#C5F6FA"/>
<ellipse cx="112.156" cy="347.899" rx="7.15625" ry="7.13208" fill="#C5F6FA"/>
<ellipse cx="112.156" cy="373.899" rx="7.15625" ry="7.13208" fill="#C5F6FA"/>
<ellipse cx="112.156" cy="399.899" rx="7.15625" ry="7.13208" fill="#C5F6FA"/>
<ellipse cx="138.719" cy="111.956" rx="7.15625" ry="7.13208" fill="#C5F6FA"/>
<ellipse cx="138.719" cy="138.22" rx="7.15625" ry="7.13208" fill="#C5F6FA"/>
<ellipse cx="138.719" cy="164.484" rx="7.15625" ry="7.13208" fill="#C5F6FA"/>
<ellipse cx="139.156" cy="190.899" rx="7.15625" ry="7.13208" fill="#C5F6FA"/>
<ellipse cx="139.156" cy="216.899" rx="7.15625" ry="7.13208" fill="#C5F6FA"/>
<ellipse cx="139.156" cy="242.899" rx="7.15625" ry="7.13208" fill="#C5F6FA"/>
<ellipse cx="139.156" cy="269.899" rx="7.15625" ry="7.13208" fill="#C5F6FA"/>
<ellipse cx="139.156" cy="295.899" rx="7.15625" ry="7.13208" fill="#C5F6FA"/>
<ellipse cx="139.156" cy="321.899" rx="7.15625" ry="7.13208" fill="#C5F6FA"/>
<ellipse cx="139.156" cy="347.899" rx="7.15625" ry="7.13208" fill="#C5F6FA"/>
<ellipse cx="86.0938" cy="138.22" rx="7.15625" ry="7.13208" fill="#C5F6FA"/>
<ellipse cx="86.0938" cy="164.484" rx="7.15625" ry="7.13208" fill="#C5F6FA"/>
<ellipse cx="86.0938" cy="190.748" rx="7.15625" ry="7.13208" fill="#C5F6FA"/>
<ellipse cx="86.1562" cy="216.899" rx="7.15625" ry="7.13208" fill="#C5F6FA"/>
<ellipse cx="86.1562" cy="242.899" rx="7.15625" ry="7.13208" fill="#C5F6FA"/>
<ellipse cx="86.1562" cy="269.899" rx="7.15625" ry="7.13208" fill="#C5F6FA"/>
<ellipse cx="86.1562" cy="295.899" rx="7.15625" ry="7.13208" fill="#C5F6FA"/>
<ellipse cx="86.1562" cy="321.899" rx="7.15625" ry="7.13208" fill="#C5F6FA"/>
<ellipse cx="86.1562" cy="347.899" rx="7.15625" ry="7.13208" fill="#C5F6FA"/>
<ellipse cx="87.1562" cy="373.899" rx="7.15625" ry="7.13208" fill="#C5F6FA"/>
<ellipse cx="112.406" cy="85.6914" rx="7.15625" ry="7.13208" fill="#C5F6FA"/>
<ellipse cx="138.719" cy="85.6914" rx="7.15625" ry="7.13208" fill="#C5F6FA"/>
<ellipse cx="165.031" cy="85.6914" rx="7.15625" ry="7.13208" fill="#C5F6FA"/>
<ellipse cx="165.031" cy="111.956" rx="7.15625" ry="7.13208" fill="#C5F6FA"/>
<ellipse cx="165.031" cy="138.22" rx="7.15625" ry="7.13208" fill="#C5F6FA"/>
<ellipse cx="165.031" cy="164.484" rx="7.15625" ry="7.13208" fill="#C5F6FA"/>
<ellipse cx="165.031" cy="190.748" rx="7.15625" ry="7.13208" fill="#C5F6FA"/>
<ellipse cx="165.156" cy="216.899" rx="7.15625" ry="7.13208" fill="#C5F6FA"/>
<ellipse cx="165.156" cy="242.899" rx="7.15625" ry="7.13208" fill="#C5F6FA"/>
<ellipse cx="165.156" cy="269.899" rx="7.15625" ry="7.13208" fill="#C5F6FA"/>
<ellipse cx="165.156" cy="295.899" rx="7.15625" ry="7.13208" fill="#C5F6FA"/>
<ellipse cx="165.156" cy="321.899" rx="7.15625" ry="7.13208" fill="#C5F6FA"/>
<ellipse cx="165.156" cy="347.899" rx="7.15625" ry="7.13208" fill="#C5F6FA"/>
<ellipse cx="165.156" cy="373.899" rx="7.15625" ry="7.13208" fill="#C5F6FA"/>
<ellipse cx="59.7812" cy="111.956" rx="7.15625" ry="7.13208" fill="#C5F6FA"/>
<ellipse cx="59.7812" cy="138.22" rx="7.15625" ry="7.13208" fill="#C5F6FA"/>
<ellipse cx="59.7812" cy="164.484" rx="7.15625" ry="7.13208" fill="#C5F6FA"/>
<ellipse cx="59.7812" cy="190.748" rx="7.15625" ry="7.13208" fill="#C5F6FA"/>
<ellipse cx="59.7812" cy="217.012" rx="7.15625" ry="7.13208" fill="#C5F6FA"/>
<ellipse cx="59.7812" cy="243.276" rx="7.15625" ry="7.13208" fill="#C5F6FA"/>
<ellipse cx="60.1562" cy="269.899" rx="7.15625" ry="7.13208" fill="#C5F6FA"/>
<ellipse cx="60.1562" cy="295.899" rx="7.15625" ry="7.13208" fill="#C5F6FA"/>
<ellipse cx="60.1562" cy="321.899" rx="7.15625" ry="7.13208" fill="#C5F6FA"/>
<ellipse cx="60.1562" cy="347.899" rx="7.15625" ry="7.13208" fill="#C5F6FA"/>
<ellipse cx="60.1562" cy="373.899" rx="7.15625" ry="7.13208" fill="#C5F6FA"/>
<ellipse cx="60.1562" cy="399.899" rx="7.15625" ry="7.13208" fill="#C5F6FA"/>
<ellipse cx="60.1562" cy="425.899" rx="7.15625" ry="7.13208" fill="#C5F6FA"/>
<ellipse cx="60.1562" cy="451.899" rx="7.15625" ry="7.13208" fill="#C5F6FA"/>
<ellipse cx="86.0938" cy="59.4272" rx="7.15625" ry="7.13208" fill="#C5F6FA"/>
<ellipse cx="112.406" cy="59.4272" rx="7.15625" ry="7.13208" fill="#C5F6FA"/>
<ellipse cx="138.719" cy="59.4272" rx="7.15625" ry="7.13208" fill="#C5F6FA"/>
<ellipse cx="165.031" cy="59.4272" rx="7.15625" ry="7.13208" fill="#C5F6FA"/>
<ellipse cx="191.344" cy="59.4272" rx="7.15625" ry="7.13208" fill="#C5F6FA"/>
<ellipse cx="191.344" cy="85.6914" rx="7.15625" ry="7.13208" fill="#C5F6FA"/>
<ellipse cx="191.344" cy="111.956" rx="7.15625" ry="7.13208" fill="#C5F6FA"/>
<ellipse cx="191.344" cy="138.22" rx="7.15625" ry="7.13208" fill="#C5F6FA"/>
<ellipse cx="191.156" cy="164.899" rx="7.15625" ry="7.13208" fill="#C5F6FA"/>
<ellipse cx="191.156" cy="190.899" rx="7.15625" ry="7.13208" fill="#C5F6FA"/>
<ellipse cx="191.156" cy="216.899" rx="7.15625" ry="7.13208" fill="#C5F6FA"/>
<ellipse cx="191.156" cy="242.899" rx="7.15625" ry="7.13208" fill="#C5F6FA"/>
<ellipse cx="191.156" cy="269.899" rx="7.15625" ry="7.13208" fill="#C5F6FA"/>
<ellipse cx="191.156" cy="295.899" rx="7.15625" ry="7.13208" fill="#C5F6FA"/>
<ellipse cx="191.156" cy="321.899" rx="7.15625" ry="7.13208" fill="#C5F6FA"/>
<ellipse cx="33.4688" cy="85.6914" rx="7.15625" ry="7.13208" fill="#C5F6FA"/>
<ellipse cx="33.4688" cy="111.956" rx="7.15625" ry="7.13208" fill="#C5F6FA"/>
<ellipse cx="33.4688" cy="138.22" rx="7.15625" ry="7.13208" fill="#C5F6FA"/>
<ellipse cx="33.4688" cy="164.484" rx="7.15625" ry="7.13208" fill="#C5F6FA"/>
<ellipse cx="33.4688" cy="190.748" rx="7.15625" ry="7.13208" fill="#C5F6FA"/>
<ellipse cx="33.4688" cy="217.012" rx="7.15625" ry="7.13208" fill="#C5F6FA"/>
<ellipse cx="33.1562" cy="243.899" rx="7.15625" ry="7.13208" fill="#C5F6FA"/>
<ellipse cx="33.1562" cy="269.899" rx="7.15625" ry="7.13208" fill="#C5F6FA"/>
<ellipse cx="33.1562" cy="295.899" rx="7.15625" ry="7.13208" fill="#C5F6FA"/>
<ellipse cx="33.1562" cy="321.899" rx="7.15625" ry="7.13208" fill="#C5F6FA"/>
<ellipse cx="33.1562" cy="347.899" rx="7.15625" ry="7.13208" fill="#C5F6FA"/>
<ellipse cx="33.1562" cy="373.899" rx="7.15625" ry="7.13208" fill="#C5F6FA"/>
<ellipse cx="33.1562" cy="399.899" rx="7.15625" ry="7.13208" fill="#C5F6FA"/>
<ellipse cx="33.1562" cy="425.899" rx="7.15625" ry="7.13208" fill="#C5F6FA"/>
<ellipse cx="59.7812" cy="33.1631" rx="7.15625" ry="7.13208" fill="#C5F6FA"/>
<ellipse cx="86.0938" cy="33.1631" rx="7.15625" ry="7.13208" fill="#C5F6FA"/>
<ellipse cx="112.406" cy="33.1631" rx="7.15625" ry="7.13208" fill="#C5F6FA"/>
<ellipse cx="138.719" cy="33.1631" rx="7.15625" ry="7.13208" fill="#C5F6FA"/>
<ellipse cx="165.031" cy="33.1631" rx="7.15625" ry="7.13208" fill="#C5F6FA"/>
<ellipse cx="191.344" cy="33.1631" rx="7.15625" ry="7.13208" fill="#C5F6FA"/>
<ellipse cx="217.656" cy="33.1631" rx="7.15625" ry="7.13208" fill="#C5F6FA"/>
<ellipse cx="217.656" cy="59.4272" rx="7.15625" ry="7.13208" fill="#C5F6FA"/>
<ellipse cx="217.656" cy="85.6914" rx="7.15625" ry="7.13208" fill="#C5F6FA"/>
<ellipse cx="217.656" cy="111.956" rx="7.15625" ry="7.13208" fill="#C5F6FA"/>
<ellipse cx="217.656" cy="138.22" rx="7.15625" ry="7.13208" fill="#C5F6FA"/>
<ellipse cx="217.656" cy="164.484" rx="7.15625" ry="7.13208" fill="#C5F6FA"/>
<ellipse cx="218.156" cy="190.899" rx="7.15625" ry="7.13208" fill="#C5F6FA"/>
<ellipse cx="218.156" cy="216.899" rx="7.15625" ry="7.13208" fill="#C5F6FA"/>
<ellipse cx="218.156" cy="242.899" rx="7.15625" ry="7.13208" fill="#C5F6FA"/>
<ellipse cx="218.156" cy="269.899" rx="7.15625" ry="7.13208" fill="#C5F6FA"/>
<ellipse cx="218.156" cy="295.899" rx="7.15625" ry="7.13208" fill="#C5F6FA"/>
<ellipse cx="218.156" cy="321.899" rx="7.15625" ry="7.13208" fill="#C5F6FA"/>
<ellipse cx="218.156" cy="347.899" rx="7.15625" ry="7.13208" fill="#C5F6FA"/>
<ellipse cx="33.4688" cy="6.89892" rx="7.15625" ry="7.13208" fill="#C5F6FA"/>
<ellipse cx="59.7812" cy="6.89892" rx="7.15625" ry="7.13208" fill="#C5F6FA"/>
<ellipse cx="86.0938" cy="6.89892" rx="7.15625" ry="7.13208" fill="#C5F6FA"/>
<ellipse cx="112.406" cy="6.89892" rx="7.15625" ry="7.13208" fill="#C5F6FA"/>
<ellipse cx="138.719" cy="6.89892" rx="7.15625" ry="7.13208" fill="#C5F6FA"/>
<ellipse cx="165.031" cy="6.89892" rx="7.15625" ry="7.13208" fill="#C5F6FA"/>
<ellipse cx="191.344" cy="6.89892" rx="7.15625" ry="7.13208" fill="#C5F6FA"/>
<ellipse cx="217.656" cy="6.89892" rx="7.15625" ry="7.13208" fill="#C5F6FA"/>
<ellipse cx="243.969" cy="6.89892" rx="7.15625" ry="7.13208" fill="#C5F6FA"/>
<ellipse cx="270.156" cy="6.89892" rx="7.15625" ry="7.13208" fill="#C5F6FA"/>
<ellipse cx="296.156" cy="6.89892" rx="7.15625" ry="7.13208" fill="#C5F6FA"/>
<ellipse cx="322.156" cy="6.89892" rx="7.15625" ry="7.13208" fill="#C5F6FA"/>
<ellipse cx="348.156" cy="6.89892" rx="7.15625" ry="7.13208" fill="#C5F6FA"/>
<ellipse cx="400.156" cy="6.89892" rx="7.15625" ry="7.13208" fill="#C5F6FA"/>
<ellipse cx="374.156" cy="6.89892" rx="7.15625" ry="7.13208" fill="#C5F6FA"/>
<ellipse cx="426.156" cy="7.89892" rx="7.15625" ry="7.13208" fill="#C5F6FA"/>
<ellipse cx="452.156" cy="7.89892" rx="7.15625" ry="7.13208" fill="#C5F6FA"/>
<ellipse cx="478.156" cy="6.89892" rx="7.15625" ry="7.13208" fill="#C5F6FA"/>
<ellipse cx="243.969" cy="33.1631" rx="7.15625" ry="7.13208" fill="#C5F6FA"/>
<ellipse cx="270.156" cy="33.1631" rx="7.15625" ry="7.13208" fill="#C5F6FA"/>
<ellipse cx="296.156" cy="33.1631" rx="7.15625" ry="7.13208" fill="#C5F6FA"/>
<ellipse cx="322.156" cy="33.1631" rx="7.15625" ry="7.13208" fill="#C5F6FA"/>
<ellipse cx="348.156" cy="33.1631" rx="7.15625" ry="7.13208" fill="#C5F6FA"/>
<ellipse cx="400.156" cy="33.1631" rx="7.15625" ry="7.13208" fill="#C5F6FA"/>
<ellipse cx="374.156" cy="33.1631" rx="7.15625" ry="7.13208" fill="#C5F6FA"/>
<ellipse cx="426.156" cy="34.1631" rx="7.15625" ry="7.13208" fill="#C5F6FA"/>
<ellipse cx="452.156" cy="34.1631" rx="7.15625" ry="7.13208" fill="#C5F6FA"/>
<ellipse cx="478.156" cy="33.1631" rx="7.15625" ry="7.13208" fill="#C5F6FA"/>
<ellipse cx="243.969" cy="59.4272" rx="7.15625" ry="7.13208" fill="#C5F6FA"/>
<ellipse cx="270.156" cy="59.4272" rx="7.15625" ry="7.13208" fill="#C5F6FA"/>
<ellipse cx="296.156" cy="59.4272" rx="7.15625" ry="7.13208" fill="#C5F6FA"/>
<ellipse cx="322.156" cy="59.4272" rx="7.15625" ry="7.13208" fill="#C5F6FA"/>
<ellipse cx="348.156" cy="59.4272" rx="7.15625" ry="7.13208" fill="#C5F6FA"/>
<ellipse cx="400.156" cy="59.4272" rx="7.15625" ry="7.13208" fill="#C5F6FA"/>
<ellipse cx="374.156" cy="59.4272" rx="7.15625" ry="7.13208" fill="#C5F6FA"/>
<ellipse cx="426.156" cy="60.4272" rx="7.15625" ry="7.13208" fill="#C5F6FA"/>
<ellipse cx="452.156" cy="60.4272" rx="7.15625" ry="7.13208" fill="#C5F6FA"/>
<ellipse cx="478.156" cy="59.4272" rx="7.15625" ry="7.13208" fill="#C5F6FA"/>
<ellipse cx="243.969" cy="85.6914" rx="7.15625" ry="7.13208" fill="#C5F6FA"/>
<ellipse cx="270.156" cy="85.6914" rx="7.15625" ry="7.13208" fill="#C5F6FA"/>
<ellipse cx="296.156" cy="85.6914" rx="7.15625" ry="7.13208" fill="#C5F6FA"/>
<ellipse cx="322.156" cy="85.6914" rx="7.15625" ry="7.13208" fill="#C5F6FA"/>
<ellipse cx="348.156" cy="85.6914" rx="7.15625" ry="7.13208" fill="#C5F6FA"/>
<ellipse cx="400.156" cy="85.6914" rx="7.15625" ry="7.13208" fill="#C5F6FA"/>
<ellipse cx="374.156" cy="85.6914" rx="7.15625" ry="7.13208" fill="#C5F6FA"/>
<ellipse cx="426.156" cy="86.6914" rx="7.15625" ry="7.13208" fill="#C5F6FA"/>
<ellipse cx="452.156" cy="86.6914" rx="7.15625" ry="7.13208" fill="#C5F6FA"/>
<ellipse cx="478.156" cy="85.6914" rx="7.15625" ry="7.13208" fill="#C5F6FA"/>
<ellipse cx="243.969" cy="111.956" rx="7.15625" ry="7.13208" fill="#C5F6FA"/>
<ellipse cx="270.156" cy="111.956" rx="7.15625" ry="7.13208" fill="#C5F6FA"/>
<ellipse cx="296.156" cy="111.956" rx="7.15625" ry="7.13208" fill="#C5F6FA"/>
<ellipse cx="322.156" cy="111.956" rx="7.15625" ry="7.13208" fill="#C5F6FA"/>
<ellipse cx="348.156" cy="111.956" rx="7.15625" ry="7.13208" fill="#C5F6FA"/>
<ellipse cx="400.156" cy="111.956" rx="7.15625" ry="7.13208" fill="#C5F6FA"/>
<ellipse cx="374.156" cy="111.956" rx="7.15625" ry="7.13208" fill="#C5F6FA"/>
<ellipse cx="426.156" cy="112.956" rx="7.15625" ry="7.13208" fill="#C5F6FA"/>
<ellipse cx="452.156" cy="112.956" rx="7.15625" ry="7.13208" fill="#C5F6FA"/>
<ellipse cx="478.156" cy="111.956" rx="7.15625" ry="7.13208" fill="#C5F6FA"/>
<ellipse cx="244.156" cy="138.899" rx="7.15625" ry="7.13208" fill="#C5F6FA"/>
<ellipse cx="270.344" cy="138.899" rx="7.15625" ry="7.13208" fill="#C5F6FA"/>
<ellipse cx="296.344" cy="138.899" rx="7.15625" ry="7.13208" fill="#C5F6FA"/>
<ellipse cx="322.344" cy="138.899" rx="7.15625" ry="7.13208" fill="#C5F6FA"/>
<ellipse cx="348.344" cy="138.899" rx="7.15625" ry="7.13208" fill="#C5F6FA"/>
<ellipse cx="400.344" cy="138.899" rx="7.15625" ry="7.13208" fill="#C5F6FA"/>
<ellipse cx="374.344" cy="138.899" rx="7.15625" ry="7.13208" fill="#C5F6FA"/>
<ellipse cx="426.344" cy="139.899" rx="7.15625" ry="7.13208" fill="#C5F6FA"/>
<ellipse cx="452.344" cy="139.899" rx="7.15625" ry="7.13208" fill="#C5F6FA"/>
<ellipse cx="244.156" cy="164.899" rx="7.15625" ry="7.13208" fill="#C5F6FA"/>
<ellipse cx="270.344" cy="164.899" rx="7.15625" ry="7.13208" fill="#C5F6FA"/>
<ellipse cx="296.344" cy="164.899" rx="7.15625" ry="7.13208" fill="#C5F6FA"/>
<ellipse cx="322.344" cy="164.899" rx="7.15625" ry="7.13208" fill="#C5F6FA"/>
<ellipse cx="348.344" cy="164.899" rx="7.15625" ry="7.13208" fill="#C5F6FA"/>
<ellipse cx="400.344" cy="164.899" rx="7.15625" ry="7.13208" fill="#C5F6FA"/>
<ellipse cx="374.344" cy="164.899" rx="7.15625" ry="7.13208" fill="#C5F6FA"/>
<ellipse cx="426.344" cy="165.899" rx="7.15625" ry="7.13208" fill="#C5F6FA"/>
<ellipse cx="452.344" cy="165.899" rx="7.15625" ry="7.13208" fill="#C5F6FA"/>
<ellipse cx="244.156" cy="190.899" rx="7.15625" ry="7.13208" fill="#C5F6FA"/>
<ellipse cx="270.344" cy="190.899" rx="7.15625" ry="7.13208" fill="#C5F6FA"/>
<ellipse cx="296.344" cy="190.899" rx="7.15625" ry="7.13208" fill="#C5F6FA"/>
<ellipse cx="322.344" cy="190.899" rx="7.15625" ry="7.13208" fill="#C5F6FA"/>
<ellipse cx="348.344" cy="190.899" rx="7.15625" ry="7.13208" fill="#C5F6FA"/>
<ellipse cx="400.344" cy="190.899" rx="7.15625" ry="7.13208" fill="#C5F6FA"/>
<ellipse cx="374.344" cy="190.899" rx="7.15625" ry="7.13208" fill="#C5F6FA"/>
<ellipse cx="244.156" cy="216.899" rx="7.15625" ry="7.13208" fill="#C5F6FA"/>
<ellipse cx="270.344" cy="216.899" rx="7.15625" ry="7.13208" fill="#C5F6FA"/>
<ellipse cx="296.344" cy="216.899" rx="7.15625" ry="7.13208" fill="#C5F6FA"/>
<ellipse cx="322.344" cy="216.899" rx="7.15625" ry="7.13208" fill="#C5F6FA"/>
<ellipse cx="348.344" cy="216.899" rx="7.15625" ry="7.13208" fill="#C5F6FA"/>
<ellipse cx="400.344" cy="216.899" rx="7.15625" ry="7.13208" fill="#C5F6FA"/>
<ellipse cx="374.344" cy="216.899" rx="7.15625" ry="7.13208" fill="#C5F6FA"/>
<ellipse cx="244.156" cy="242.899" rx="7.15625" ry="7.13208" fill="#C5F6FA"/>
<ellipse cx="270.344" cy="242.899" rx="7.15625" ry="7.13208" fill="#C5F6FA"/>
<ellipse cx="296.344" cy="242.899" rx="7.15625" ry="7.13208" fill="#C5F6FA"/>
<ellipse cx="322.344" cy="242.899" rx="7.15625" ry="7.13208" fill="#C5F6FA"/>
<ellipse cx="348.344" cy="242.899" rx="7.15625" ry="7.13208" fill="#C5F6FA"/>
<ellipse cx="400.344" cy="242.899" rx="7.15625" ry="7.13208" fill="#C5F6FA"/>
<ellipse cx="244.156" cy="269.899" rx="7.15625" ry="7.13208" fill="#C5F6FA"/>
<ellipse cx="270.344" cy="269.899" rx="7.15625" ry="7.13208" fill="#C5F6FA"/>
<ellipse cx="296.344" cy="269.899" rx="7.15625" ry="7.13208" fill="#C5F6FA"/>
<ellipse cx="322.344" cy="269.899" rx="7.15625" ry="7.13208" fill="#C5F6FA"/>
<ellipse cx="244.156" cy="295.899" rx="7.15625" ry="7.13208" fill="#C5F6FA"/>
<ellipse cx="270.344" cy="295.899" rx="7.15625" ry="7.13208" fill="#C5F6FA"/>
<ellipse cx="270.156" cy="321.899" rx="7.15625" ry="7.13208" fill="#C5F6FA"/>
<ellipse cx="348.156" cy="269.899" rx="7.15625" ry="7.13208" fill="#C5F6FA"/>
<ellipse cx="7.15625" cy="59.4272" rx="7.15625" ry="7.13208" fill="#C5F6FA"/>
<ellipse cx="7.15625" cy="85.6914" rx="7.15625" ry="7.13208" fill="#C5F6FA"/>
<ellipse cx="7.15625" cy="111.956" rx="7.15625" ry="7.13208" fill="#C5F6FA"/>
<ellipse cx="7.15625" cy="138.22" rx="7.15625" ry="7.13208" fill="#C5F6FA"/>
<ellipse cx="7.15625" cy="164.484" rx="7.15625" ry="7.13208" fill="#C5F6FA"/>
<ellipse cx="7.15625" cy="190.748" rx="7.15625" ry="7.13208" fill="#C5F6FA"/>
<ellipse cx="7.15625" cy="217.012" rx="7.15625" ry="7.13208" fill="#C5F6FA"/>
<ellipse cx="7.15625" cy="243.276" rx="7.15625" ry="7.13208" fill="#C5F6FA"/>
<ellipse cx="7.15625" cy="269.54" rx="7.15625" ry="7.13208" fill="#C5F6FA"/>
<ellipse cx="7.15625" cy="295.899" rx="7.15625" ry="7.13208" fill="#C5F6FA"/>
<ellipse cx="7.15625" cy="321.899" rx="7.15625" ry="7.13208" fill="#C5F6FA"/>
<ellipse cx="7.15625" cy="347.899" rx="7.15625" ry="7.13208" fill="#C5F6FA"/>
<ellipse cx="7.15625" cy="373.899" rx="7.15625" ry="7.13208" fill="#C5F6FA"/>
<ellipse cx="7.15625" cy="399.899" rx="7.15625" ry="7.13208" fill="#C5F6FA"/>
<ellipse cx="7.15625" cy="425.899" rx="7.15625" ry="7.13208" fill="#C5F6FA"/>
<ellipse cx="7.15625" cy="451.899" rx="7.15625" ry="7.13208" fill="#C5F6FA"/>
<ellipse cx="7.15625" cy="477.899" rx="7.15625" ry="7.13208" fill="#C5F6FA"/>
</g>
</svg>
