<svg width="305" height="305" viewBox="0 0 305 305" fill="none" xmlns="http://www.w3.org/2000/svg">
<rect x="1.5" y="1.5" width="302" height="302" rx="48.5" fill="white" stroke="#0F0F0F" stroke-width="3"/>
<path d="M64.4 217.2C59.4 217.2 55.2 217.2 50.6 217C46.8 216.8 44.8 216 44.4 212.4C43.6 203.4 43 194.2 43 184.6C43 137.8 54.8 85.8 96.8 62.2C98.8 61.2 100.2 60.6 101.6 60.6C103.2 60.6 104.4 61.2 106.2 62.2C144.2 86.6 158.4 130.4 158.4 183.6C158.4 192.2 158 201.2 157 210.8C156.6 215 154.4 216.2 150.6 216.6C146 217 140.4 217.2 135 217.2C128.4 217.2 122 217 117.8 216.6C115.2 216.2 113.8 215 113.8 212.4C113.8 208 117 198.8 117 186.6C117 178.6 113 175.2 104.2 175.2C92.4 175.2 82.2 179.8 82.2 191.2C82.2 200.2 84.4 207.6 84.4 212.8C84.6 215 83.8 216.2 81.2 216.6C76.8 217 70.8 217.2 64.4 217.2ZM85.4 152.8C87.8 152.8 94 149.6 102.6 149C107.4 148.6 110.6 148.4 113 148C115.4 147.4 116.2 146 116.2 143.2C116.2 130.6 109.8 113.6 103.8 105C102.8 103.8 102.2 103 101.4 103C100.4 103 99.6 103.6 98.4 105C88.4 116.4 83.4 137.6 83.4 150.4C83.4 152.2 84.2 152.8 85.4 152.8ZM214.044 217.2C183.444 217.2 167.244 205.8 167.244 179.2C167.244 150.2 190.044 138.6 216.044 134.8C222.244 133.8 225.244 132.4 225.244 128.8C225.244 122.6 221.844 118.6 212.244 118.6C201.844 118.6 191.444 123 182.044 131.4C180.844 132.6 179.644 133.2 178.644 133.2C177.844 133.2 176.844 132.8 176.044 132C172.244 128.4 168.644 122 168.644 113.8C168.644 99.6 186.044 88.6 214.644 88.6C248.244 88.6 260.044 105.4 260.044 135.2C260.044 147.4 259.044 166.6 259.044 181.4C259.044 193 260.644 206.2 260.644 209.4C260.644 212.8 259.044 215 255.644 215.6C249.244 217 227.244 217.2 214.044 217.2ZM225.444 178V165C225.444 159 224.644 157.4 221.244 157.4C210.244 157.4 201.244 163.8 201.244 174.2C201.244 183 207.244 186.8 217.444 186.8C223.844 186.8 225.444 184 225.444 178Z" fill="#0F0F0F"/>
</svg>
