<svg width="210" height="208" viewBox="0 0 210 208" fill="none" xmlns="http://www.w3.org/2000/svg">
<path d="M50.3467 41.5608C16.424 61.701 15.5889 75.1888 13.3046 100.438C11.0203 125.687 50.1618 170.255 100.405 185.634C138.617 197.33 178.302 178.434 187.363 156.313C192.084 144.789 192.568 144.874 190.717 123.834C188.866 102.794 203.584 93.4204 182.721 62.9897C162.7 33.7871 153.285 13.1707 129.34 13.1683C74.7518 13.1627 87.7794 19.3367 50.3467 41.5608Z" fill="#186049"/>
<path d="M76.2676 156V146.158H78.1716V156H76.2676ZM77.6676 156V154.32H83.1136V156H77.6676ZM77.6676 151.786V150.162H82.6236V151.786H77.6676ZM77.6676 147.838V146.158H83.0436V147.838H77.6676ZM88.098 156L84.22 146.158H86.278L89.274 154.124H88.476L91.5 146.158H93.53L89.61 156H88.098ZM95.2691 156V146.158H97.1731V156H95.2691ZM96.6691 156V154.32H102.115V156H96.6691ZM96.6691 151.786V150.162H101.625V151.786H96.6691ZM96.6691 147.838V146.158H102.045V147.838H96.6691ZM105.541 151.884V150.4H107.823C108.29 150.4 108.649 150.283 108.901 150.05C109.162 149.807 109.293 149.476 109.293 149.056C109.293 148.673 109.162 148.356 108.901 148.104C108.649 147.843 108.29 147.712 107.823 147.712H105.541V146.158H107.991C108.626 146.158 109.181 146.284 109.657 146.536C110.142 146.779 110.516 147.115 110.777 147.544C111.048 147.973 111.183 148.468 111.183 149.028C111.183 149.607 111.048 150.111 110.777 150.54C110.516 150.96 110.142 151.291 109.657 151.534C109.172 151.767 108.607 151.884 107.963 151.884H105.541ZM104.141 156V146.158H106.045V156H104.141ZM109.517 156L106.269 151.744L108.019 151.198L111.827 156H109.517ZM117.823 156.14C117.123 156.14 116.465 156.014 115.849 155.762C115.242 155.501 114.705 155.137 114.239 154.67C113.781 154.203 113.422 153.667 113.161 153.06C112.909 152.444 112.783 151.781 112.783 151.072C112.783 150.353 112.913 149.691 113.175 149.084C113.436 148.468 113.8 147.931 114.267 147.474C114.733 147.007 115.279 146.648 115.905 146.396C116.53 146.135 117.207 146.004 117.935 146.004C118.747 146.004 119.493 146.158 120.175 146.466C120.856 146.765 121.421 147.189 121.869 147.74L120.581 149.028C120.273 148.627 119.89 148.319 119.433 148.104C118.975 147.889 118.471 147.782 117.921 147.782C117.295 147.782 116.74 147.922 116.255 148.202C115.779 148.473 115.405 148.855 115.135 149.35C114.864 149.835 114.729 150.405 114.729 151.058C114.729 151.711 114.859 152.29 115.121 152.794C115.391 153.289 115.755 153.676 116.213 153.956C116.679 154.236 117.211 154.376 117.809 154.376C118.425 154.376 118.952 154.264 119.391 154.04C119.829 153.807 120.165 153.471 120.399 153.032C120.632 152.584 120.749 152.038 120.749 151.394L121.995 152.248L117.697 152.206V150.554H122.709V150.82C122.709 151.996 122.499 152.981 122.079 153.774C121.659 154.558 121.08 155.151 120.343 155.552C119.615 155.944 118.775 156.14 117.823 156.14ZM126.019 151.884V150.4H128.301C128.768 150.4 129.127 150.283 129.379 150.05C129.64 149.807 129.771 149.476 129.771 149.056C129.771 148.673 129.64 148.356 129.379 148.104C129.127 147.843 128.768 147.712 128.301 147.712H126.019V146.158H128.469C129.104 146.158 129.659 146.284 130.135 146.536C130.62 146.779 130.994 147.115 131.255 147.544C131.526 147.973 131.661 148.468 131.661 149.028C131.661 149.607 131.526 150.111 131.255 150.54C130.994 150.96 130.62 151.291 130.135 151.534C129.65 151.767 129.085 151.884 128.441 151.884H126.019ZM124.619 156V146.158H126.523V156H124.619ZM129.995 156L126.747 151.744L128.497 151.198L132.305 156H129.995ZM133.833 156V146.158H135.737V156H133.833ZM135.233 156V154.32H140.679V156H135.233ZM135.233 151.786V150.162H140.189V151.786H135.233ZM135.233 147.838V146.158H140.609V147.838H135.233ZM142.705 156V146.158H144.609V156H142.705ZM144.105 156V154.32H149.551V156H144.105ZM144.105 151.786V150.162H149.061V151.786H144.105ZM144.105 147.838V146.158H149.481V147.838H144.105ZM151.577 156V146.158H152.907L153.481 148.062V156H151.577ZM158.381 156L152.543 148.44L152.907 146.158L158.745 153.718L158.381 156ZM158.381 156L157.835 154.152V146.158H159.753V156H158.381Z" fill="#F3FFF6"/>
</svg>
