<svg width="305" height="305" viewBox="0 0 305 305" fill="none" xmlns="http://www.w3.org/2000/svg">
<rect x="1.5" y="1.5" width="302" height="302" rx="48.5" fill="white" stroke="#0F0F0F" stroke-width="3"/>
<path d="M122.76 176.72H74.58C69.96 189.26 63.36 206.64 60.5 213.46C59.62 215.22 58.08 216.32 54.78 216.32C49.5 216.32 40.7 215 35.64 213.46L35.42 212.58C46.64 185.74 80.52 104.12 88.88 83.88L87.34 79.7C96.58 77.72 110.44 76.84 112.86 76.84C114.84 76.84 116.6 77.94 117.92 81.02C128.04 105.44 143.44 147.24 150.48 165.94C159.5 189.26 164.56 202.9 168.96 212.8L168.74 213.68C163.9 215.22 147.18 216.32 141.68 216.32C138.16 216.32 136.4 215.22 134.2 209.06C130.24 198.06 127.38 188.6 122.76 176.72ZM80.74 159.12H117.92C108.24 132.06 101.42 114.24 99.22 108.74C94.16 122.38 88.88 137.12 80.74 159.12ZM267.798 197.4V198.06C267.798 209.06 262.078 217.64 247.778 217.64C238.978 217.64 233.038 213.46 229.738 205.76C224.238 211.48 213.898 217.64 204.438 217.64C190.138 217.64 176.938 207.08 176.938 189.7C176.938 167.48 204.658 161.32 221.378 158.24C225.558 157.58 227.978 157.14 229.518 156.92V152.74C229.518 142.4 222.038 136.24 212.138 136.24C203.118 136.24 194.978 140.64 190.138 143.28C181.998 144.16 179.798 134.26 180.238 130.08C191.678 122.38 207.738 115.12 221.158 115.12C238.758 115.12 257.458 126.34 257.458 152.08C257.458 161.1 256.578 176.72 256.578 191.46C256.578 194.1 259.218 197.4 265.598 197.4C266.258 197.4 267.138 197.4 267.798 197.4ZM204.658 184.64C204.658 193.44 210.818 198.28 218.298 198.28C222.478 198.28 224.458 197.62 227.318 195.42C228.418 194.32 229.078 192.78 229.078 188.82V169.46C209.938 172.1 204.658 179.14 204.658 184.64Z" fill="#0F0F0F"/>
</svg>
