<svg width="360" height="228" viewBox="0 0 360 228" fill="none" xmlns="http://www.w3.org/2000/svg">
<mask id="path-1-inside-1_361_826" fill="white">
<path fill-rule="evenodd" clip-rule="evenodd" d="M231.578 213.234C215.108 213.234 200.283 205.839 189.952 194.04C180.889 214.116 161.41 228.001 138.842 228.001C113.905 228.001 92.7403 211.049 85.2317 187.524C76.8183 192.741 67.0056 195.734 56.5268 195.734C25.3079 195.734 0 169.165 0 136.39C0 115.31 10.4703 96.7962 26.2492 86.2688C25.7751 83.1757 25.5288 80.0027 25.5288 76.7693C25.5288 43.9948 50.8367 17.4258 82.0556 17.4258C89.862 17.4258 97.2987 19.087 104.063 22.0912C114.43 8.88901 130.129 0.472656 147.7 0.472656C164.758 0.472656 180.051 8.40509 190.415 20.948C195.988 19.0186 201.944 17.9746 208.133 17.9746C220.797 17.9746 232.489 22.3468 241.913 29.7319C251.453 22.0151 263.407 17.4258 276.382 17.4258C307.601 17.4258 332.909 43.9948 332.909 76.7693C332.909 79.5063 332.732 82.2 332.39 84.8385C348.925 95.1934 360 114.159 360 135.84C360 168.614 334.692 195.183 303.473 195.183C294.097 195.183 285.254 192.787 277.47 188.545C267.207 203.499 250.475 213.234 231.578 213.234Z"/>
</mask>
<path d="M189.952 194.04L191.08 193.051C190.744 192.668 190.236 192.481 189.731 192.556C189.226 192.631 188.795 192.957 188.585 193.422L189.952 194.04ZM85.2317 187.524L86.6606 187.068C86.5201 186.628 86.1844 186.277 85.7508 186.117C85.3172 185.957 84.834 186.006 84.4412 186.249L85.2317 187.524ZM26.2492 86.2688L27.0816 87.5166C27.5666 87.193 27.8202 86.6178 27.7318 86.0416L26.2492 86.2688ZM104.063 22.0912L103.454 23.462C104.081 23.7408 104.818 23.5577 105.242 23.0176L104.063 22.0912ZM190.415 20.948L189.259 21.9034C189.658 22.3861 190.315 22.5702 190.906 22.3654L190.415 20.948ZM241.913 29.7319L240.987 30.9125C241.538 31.3436 242.313 31.3377 242.856 30.8981L241.913 29.7319ZM332.39 84.8385L330.903 84.6459C330.828 85.227 331.098 85.7988 331.594 86.1098L332.39 84.8385ZM277.47 188.545L278.188 187.228C277.513 186.86 276.669 187.063 276.234 187.697L277.47 188.545ZM186.203 198.125C185.796 198.846 186.051 199.761 186.772 200.168C187.493 200.575 188.408 200.321 188.816 199.599L186.203 198.125ZM182.525 208.708C183.056 208.072 182.971 207.126 182.335 206.596C181.699 206.065 180.753 206.15 180.222 206.786L182.525 208.708ZM172.764 214.205C172.125 214.732 172.034 215.677 172.561 216.316C173.087 216.956 174.033 217.047 174.672 216.52L172.764 214.205ZM165.486 222.722C166.214 222.327 166.484 221.416 166.088 220.688C165.693 219.96 164.783 219.69 164.054 220.085L165.486 222.722ZM154.379 224.163C153.588 224.407 153.144 225.247 153.389 226.039C153.633 226.83 154.473 227.274 155.264 227.029L154.379 224.163ZM144.39 229.226C145.214 229.144 145.816 228.409 145.734 227.585C145.652 226.761 144.917 226.159 144.093 226.241L144.39 229.226ZM134.478 226.322C133.652 226.253 132.928 226.868 132.86 227.693C132.792 228.519 133.406 229.243 134.232 229.311L134.478 226.322ZM125.135 227.793C125.938 227.997 126.755 227.511 126.959 226.709C127.162 225.906 126.677 225.089 125.874 224.885L125.135 227.793ZM117.625 222.045C116.867 221.711 115.982 222.056 115.648 222.814C115.315 223.572 115.659 224.457 116.418 224.791L117.625 222.045ZM108.311 220.408C109.005 220.859 109.934 220.662 110.386 219.968C110.837 219.273 110.64 218.344 109.946 217.892L108.311 220.408ZM103.02 212.566C102.405 212.011 101.456 212.06 100.901 212.675C100.346 213.29 100.395 214.238 101.01 214.793L103.02 212.566ZM94.6723 208.118C95.1951 208.761 96.1398 208.858 96.7825 208.336C97.4252 207.813 97.5225 206.868 96.9997 206.225L94.6723 208.118ZM92.0088 199.041C91.5887 198.327 90.6693 198.089 89.9553 198.509C89.2413 198.929 89.0031 199.848 89.4232 200.562L92.0088 199.041ZM85.3627 192.309C85.6721 193.077 86.546 193.45 87.3144 193.14C88.0829 192.831 88.4549 191.957 88.1455 191.188L85.3627 192.309ZM81.2514 188.08C80.5193 188.468 80.2402 189.376 80.6279 190.108C81.0156 190.84 81.9234 191.119 82.6555 190.731L81.2514 188.08ZM75.5625 193.884C76.341 193.601 76.7424 192.74 76.4591 191.962C76.1758 191.183 75.315 190.782 74.5365 191.065L75.5625 193.884ZM67.4756 193.089C66.6652 193.261 66.1477 194.057 66.3196 194.868C66.4916 195.678 67.2879 196.196 68.0983 196.024L67.4756 193.089ZM60.4083 197.1C61.2348 197.043 61.8583 196.326 61.8011 195.5C61.7438 194.673 61.0275 194.05 60.201 194.107L60.4083 197.1ZM52.1021 194.05C51.2765 193.981 50.5513 194.594 50.4823 195.419C50.4133 196.245 51.0266 196.97 51.8521 197.039L52.1021 194.05ZM42.64 195.48C43.4423 195.687 44.2601 195.204 44.4667 194.402C44.6733 193.599 44.1904 192.782 43.3882 192.575L42.64 195.48ZM35.0429 189.659C34.2864 189.322 33.3994 189.661 33.0618 190.418C32.7242 191.175 33.0638 192.061 33.8204 192.399L35.0429 189.659ZM25.6345 187.904C26.3257 188.361 27.2563 188.171 27.7129 187.48C28.1696 186.789 27.9794 185.858 27.2882 185.401L25.6345 187.904ZM20.3158 179.945C19.7059 179.384 18.757 179.424 18.1963 180.034C17.6356 180.644 17.6754 181.593 18.2852 182.153L20.3158 179.945ZM11.9329 175.324C12.4484 175.972 13.392 176.08 14.0405 175.564C14.689 175.049 14.7968 174.105 14.2813 173.457L11.9329 175.324ZM9.3121 166.116C8.9013 165.396 7.9851 165.146 7.2657 165.557C6.5463 165.968 6.29613 166.884 6.70692 167.603L9.3121 166.116ZM2.70971 159.185C3.00776 159.958 3.87598 160.343 4.64893 160.045C5.42189 159.747 5.80688 158.878 5.50883 158.105L2.70971 159.185ZM2.94433 149.614C2.76443 148.806 1.96305 148.296 1.15439 148.476C0.345732 148.656 -0.16398 149.457 0.0159175 150.266L2.94433 149.614ZM-1.33232 141.05C-1.27262 141.876 -0.554401 142.498 0.271872 142.438C1.09815 142.378 1.71958 141.66 1.65989 140.834L-1.33232 141.05ZM1.68589 131.601C1.75027 130.775 1.13292 130.053 0.307002 129.989C-0.518919 129.924 -1.24065 130.542 -1.30504 131.368L1.68589 131.601ZM0.263828 121.445C0.0698321 122.25 0.565467 123.06 1.37086 123.254C2.17625 123.448 2.98642 122.953 3.18041 122.147L0.263828 121.445ZM6.16035 113.057C6.48107 112.293 6.12187 111.414 5.35805 111.093C4.59422 110.773 3.71502 111.132 3.3943 111.896L6.16035 113.057ZM8.02711 102.974C7.58658 103.676 7.79821 104.601 8.49979 105.042C9.20138 105.482 10.1272 105.271 10.5678 104.569L8.02711 102.974ZM16.3016 96.9203C16.8518 96.3009 16.7958 95.3529 16.1765 94.8027C15.5572 94.2524 14.6091 94.3085 14.0589 94.9278L16.3016 96.9203ZM21.3512 87.9961C20.7044 88.5137 20.5997 89.4577 21.1174 90.1045C21.635 90.7513 22.579 90.856 23.2257 90.3384L21.3512 87.9961ZM27.4237 83.7358C27.3297 82.9128 26.5863 82.3217 25.7632 82.4157C24.9402 82.5096 24.3491 83.253 24.4431 84.0761L27.4237 83.7358ZM24.0746 79.2091C24.1058 80.037 24.8021 80.6828 25.63 80.6517C26.4578 80.6205 27.1037 79.9242 27.0725 79.0964L24.0746 79.2091ZM27.1887 72.3259C27.2484 71.4996 26.627 70.7814 25.8007 70.7217C24.9744 70.662 24.2562 71.2834 24.1965 72.1097L27.1887 72.3259ZM25.5447 62.894C25.3648 63.7027 25.8745 64.5041 26.6832 64.684C27.4919 64.8639 28.2932 64.3541 28.4731 63.5455L25.5447 62.894ZM31.0376 55.0542C31.3357 54.2813 30.9507 53.4131 30.1777 53.115C29.4048 52.817 28.5366 53.202 28.2385 53.9749L31.0376 55.0542ZM32.2357 45.5565C31.8249 46.2759 32.0751 47.1921 32.7945 47.6029C33.5139 48.0137 34.4301 47.7635 34.8409 47.0441L32.2357 45.5565ZM39.8101 39.7029C40.3256 39.0544 40.2178 38.1108 39.5693 37.5953C38.9208 37.0798 37.9772 37.1876 37.4617 37.8361L39.8101 39.7029ZM43.8141 31.0064C43.2042 31.5671 43.1644 32.516 43.7251 33.1258C44.2858 33.7357 45.2348 33.7755 45.8446 33.2148L43.8141 31.0064ZM52.817 27.7584C53.5082 27.3017 53.6984 26.3712 53.2417 25.68C52.7851 24.9888 51.8545 24.7986 51.1633 25.2553L52.817 27.7584ZM59.3492 20.7606C58.5926 21.0982 58.253 21.9852 58.5906 22.7417C58.9282 23.4982 59.8152 23.8378 60.5717 23.5002L59.3492 20.7606ZM68.917 20.5847C69.7192 20.3781 70.2021 19.5602 69.9955 18.758C69.7889 17.9557 68.9711 17.4728 68.1689 17.6794L68.917 20.5847ZM77.3809 16.1204C76.5554 16.1895 75.9421 16.9147 76.0111 17.7402C76.0801 18.5657 76.8053 19.179 77.6309 19.11L77.3809 16.1204ZM87.5554 19.211C88.3794 19.2969 89.117 18.6986 89.2029 17.8747C89.2888 17.0507 88.6905 16.3131 87.8666 16.2272L87.5554 19.211ZM99.2381 18.6377C98.4501 18.382 97.604 18.8134 97.3483 19.6013C97.0925 20.3893 97.5239 21.2354 98.3119 21.4912L99.2381 18.6377ZM107.884 19.8901C108.441 19.2767 108.395 18.3281 107.781 17.7713C107.168 17.2144 106.219 17.2603 105.663 17.8737L107.884 19.8901ZM111.896 11.9312C111.257 12.4577 111.165 13.403 111.692 14.0426C112.218 14.6822 113.163 14.7739 113.803 14.2474L111.896 11.9312ZM120.479 9.53423C121.19 9.10825 121.42 8.18693 120.994 7.47642C120.568 6.7659 119.647 6.53524 118.937 6.96122L120.479 9.53423ZM126.647 3.10086C125.88 3.41406 125.512 4.28968 125.826 5.05662C126.139 5.82356 127.014 6.1914 127.781 5.8782L126.647 3.10086ZM135.553 3.38626C136.359 3.19536 136.858 2.3871 136.667 1.58097C136.476 0.774837 135.668 0.276098 134.862 0.467003L135.553 3.38626ZM143.386 -0.861703C142.56 -0.798039 141.942 -0.0768428 142.006 0.749135C142.069 1.57511 142.79 2.19309 143.616 2.12943L143.386 -0.861703ZM153.638 2.30543C154.461 2.39826 155.204 1.80617 155.296 0.982958C155.389 0.159748 154.797 -0.582847 153.974 -0.675675L153.638 2.30543ZM166.206 2.13273C165.424 1.85727 164.568 2.26733 164.292 3.04861C164.017 3.8299 164.427 4.68657 165.208 4.96203L166.206 2.13273ZM175.901 10.1367C176.602 10.5776 177.528 10.3665 177.969 9.66514C178.41 8.9638 178.199 8.03781 177.498 7.59689L175.901 10.1367ZM187.33 15.3719C186.738 14.7919 185.789 14.8011 185.208 15.3926C184.628 15.984 184.638 16.9337 185.229 17.5138L187.33 15.3719ZM195.107 21.1046C195.909 20.8998 196.394 20.083 196.189 19.2803C195.985 18.4776 195.168 17.9929 194.365 18.1977L195.107 21.1046ZM203.502 16.6656C202.676 16.734 202.062 17.4587 202.131 18.2843C202.199 19.1099 202.924 19.7238 203.749 19.6554L203.502 16.6656ZM212.558 19.6589C213.383 19.7279 214.109 19.1146 214.178 18.2891C214.247 17.4635 213.633 16.7383 212.808 16.6693L212.558 19.6589ZM222.029 18.2306C221.226 18.0239 220.409 18.5066 220.202 19.3088C219.995 20.1111 220.478 20.929 221.28 21.1357L222.029 18.2306ZM229.632 24.0559C230.388 24.3937 231.276 24.0544 231.613 23.298C231.951 22.5416 231.612 21.6545 230.855 21.3167L229.632 24.0559ZM239.046 25.8179C238.355 25.3609 237.424 25.5506 236.967 26.2417C236.51 26.9327 236.7 27.8633 237.391 28.3202L239.046 25.8179ZM246.5 28.1896C247.185 27.7232 247.362 26.7901 246.896 26.1054C246.429 25.4207 245.496 25.2438 244.811 25.7101L246.5 28.1896ZM253.144 21.0012C252.391 21.3466 252.06 22.237 252.406 22.99C252.751 23.743 253.642 24.0734 254.395 23.7279L253.144 21.0012ZM262.924 20.668C263.725 20.4563 264.202 19.6355 263.991 18.8346C263.779 18.0336 262.958 17.5559 262.157 17.7675L262.924 20.668ZM271.594 16.13C270.769 16.2007 270.157 16.9272 270.227 17.7526C270.298 18.578 271.025 19.1898 271.85 19.1191L271.594 16.13ZM280.807 19.11C281.632 19.179 282.357 18.5657 282.426 17.7402C282.495 16.9147 281.882 16.1895 281.057 16.1204L280.807 19.11ZM290.269 17.6794C289.466 17.4728 288.648 17.9557 288.442 18.758C288.235 19.5602 288.718 20.3781 289.52 20.5847L290.269 17.6794ZM297.866 23.5002C298.622 23.8378 299.509 23.4982 299.847 22.7417C300.184 21.9852 299.845 21.0982 299.088 20.7606L297.866 23.5002ZM307.274 25.2553C306.583 24.7986 305.652 24.9888 305.196 25.68C304.739 26.3712 304.929 27.3017 305.62 27.7583L307.274 25.2553ZM312.593 33.2148C313.203 33.7755 314.152 33.7356 314.712 33.1258C315.273 32.516 315.233 31.5671 314.623 31.0064L312.593 33.2148ZM320.976 37.8361C320.46 37.1876 319.517 37.0798 318.868 37.5953C318.22 38.1108 318.112 39.0544 318.627 39.7029L320.976 37.8361ZM323.597 47.0441C324.007 47.7635 324.924 48.0137 325.643 47.6029C326.362 47.1921 326.613 46.2759 326.202 45.5565L323.597 47.0441ZM330.199 53.9749C329.901 53.2019 329.033 52.8169 328.26 53.115C327.487 53.413 327.102 54.2813 327.4 55.0542L330.199 53.9749ZM329.964 63.5455C330.144 64.3541 330.946 64.8638 331.754 64.6839C332.563 64.504 333.073 63.7027 332.893 62.894L329.964 63.5455ZM334.241 72.1097C334.181 71.2834 333.463 70.662 332.637 70.7217C331.811 70.7814 331.189 71.4996 331.249 72.3259L334.241 72.1097ZM331.377 78.744C331.351 79.572 332.001 80.2646 332.829 80.2911C333.657 80.3175 334.349 79.6677 334.376 78.8397L331.377 78.744ZM334.111 82.9728C334.19 82.1482 333.586 81.4152 332.762 81.3355C331.937 81.2558 331.204 81.8597 331.125 82.6843L334.111 82.9728ZM335.634 88.8989C336.294 89.3996 337.235 89.2703 337.735 88.6103C338.236 87.9502 338.107 87.0093 337.447 86.5087L335.634 88.8989ZM345.104 93.4541C344.541 92.8463 343.592 92.81 342.984 93.3729C342.376 93.9358 342.34 94.8849 342.903 95.4927L345.104 93.4541ZM348.936 103.242C349.388 103.937 350.317 104.134 351.011 103.682C351.706 103.231 351.903 102.301 351.451 101.607L348.936 103.242ZM356.334 110.709C356.005 109.948 355.122 109.599 354.362 109.928C353.602 110.258 353.252 111.141 353.581 111.901L356.334 110.709ZM356.726 121.213C356.925 122.017 357.738 122.507 358.543 122.308C359.347 122.109 359.837 121.295 359.638 120.491L356.726 121.213ZM361.294 130.679C361.228 129.853 360.505 129.237 359.679 129.303C358.853 129.37 358.238 130.093 358.304 130.919L361.294 130.679ZM358.34 140.283C358.28 141.109 358.902 141.828 359.728 141.887C360.554 141.947 361.273 141.326 361.332 140.499L358.34 140.283ZM359.984 149.715C360.164 148.906 359.654 148.105 358.846 147.925C358.037 147.745 357.236 148.255 357.056 149.063L359.984 149.715ZM354.491 157.555C354.193 158.328 354.578 159.196 355.351 159.494C356.124 159.792 356.992 159.407 357.29 158.634L354.491 157.555ZM353.293 167.052C353.704 166.333 353.454 165.417 352.734 165.006C352.015 164.595 351.099 164.845 350.688 165.565L353.293 167.052ZM345.719 172.906C345.203 173.555 345.311 174.498 345.96 175.014C346.608 175.529 347.552 175.421 348.067 174.773L345.719 172.906ZM341.715 181.603C342.325 181.042 342.364 180.093 341.804 179.483C341.243 178.873 340.294 178.833 339.684 179.394L341.715 181.603ZM332.712 184.851C332.021 185.307 331.83 186.238 332.287 186.929C332.744 187.62 333.674 187.81 334.365 187.354L332.712 184.851ZM326.18 191.848C326.936 191.511 327.276 190.624 326.938 189.867C326.601 189.111 325.714 188.771 324.957 189.109L326.18 191.848ZM316.612 192.024C315.81 192.231 315.327 193.049 315.533 193.851C315.74 194.653 316.558 195.136 317.36 194.929L316.612 192.024ZM308.148 196.488C308.973 196.419 309.587 195.694 309.518 194.869C309.449 194.043 308.723 193.43 307.898 193.499L308.148 196.488ZM296.897 193.274C296.075 193.172 295.325 193.755 295.222 194.577C295.119 195.399 295.702 196.148 296.524 196.251L296.897 193.274ZM283.058 192.811C283.829 193.114 284.7 192.736 285.003 191.965C285.307 191.194 284.929 190.323 284.158 190.02L283.058 192.811ZM273.605 191.23C273.086 191.875 273.188 192.82 273.833 193.339C274.478 193.859 275.423 193.756 275.942 193.111L273.605 191.23ZM269.598 199.856C270.21 199.299 270.255 198.35 269.697 197.737C269.14 197.125 268.191 197.08 267.578 197.638L269.598 199.856ZM260.631 203.024C259.938 203.477 259.744 204.407 260.198 205.1C260.652 205.793 261.581 205.987 262.274 205.533L260.631 203.024ZM254.131 209.967C254.889 209.632 255.231 208.746 254.896 207.988C254.56 207.231 253.674 206.889 252.917 207.224L254.131 209.967ZM244.624 210.099C243.821 210.304 243.337 211.121 243.542 211.924C243.747 212.726 244.564 213.211 245.366 213.006L244.624 210.099ZM236.217 214.542C237.043 214.474 237.657 213.749 237.588 212.923C237.52 212.098 236.795 211.484 235.969 211.553L236.217 214.542ZM225.843 211.424C225.02 211.334 224.279 211.929 224.19 212.753C224.1 213.576 224.695 214.316 225.519 214.406L225.843 211.424ZM213.684 211.786C214.469 212.052 215.321 211.632 215.587 210.848C215.853 210.063 215.433 209.211 214.649 208.945L213.684 211.786ZM204.248 204.106C203.538 203.678 202.616 203.907 202.189 204.616C201.761 205.326 201.99 206.248 202.699 206.676L204.248 204.106ZM193.039 199.378C193.645 199.943 194.594 199.909 195.159 199.303C195.724 198.697 195.691 197.748 195.085 197.183L193.039 199.378ZM188.585 193.422C187.858 195.032 187.063 196.601 186.203 198.125L188.816 199.599C189.719 197.997 190.555 196.348 191.319 194.657L188.585 193.422ZM180.222 206.786C177.961 209.495 175.463 211.98 172.764 214.205L174.672 216.52C177.517 214.175 180.146 211.559 182.525 208.708L180.222 206.786ZM164.054 220.085C160.985 221.751 157.749 223.122 154.379 224.163L155.264 227.029C158.827 225.929 162.246 224.481 165.486 222.722L164.054 220.085ZM144.093 226.241C142.365 226.413 140.613 226.501 138.842 226.501V229.501C140.713 229.501 142.564 229.408 144.39 229.226L144.093 226.241ZM138.842 226.501C137.373 226.501 135.918 226.44 134.478 226.322L134.232 229.311C135.753 229.437 137.29 229.501 138.842 229.501V226.501ZM125.874 224.885C123.032 224.164 120.276 223.21 117.625 222.045L116.418 224.791C119.218 226.022 122.131 227.03 125.135 227.793L125.874 224.885ZM109.946 217.892C107.504 216.306 105.189 214.523 103.02 212.566L101.01 214.793C103.295 216.855 105.735 218.734 108.311 220.408L109.946 217.892ZM96.9997 206.225C95.1684 203.974 93.4984 201.572 92.0088 199.041L89.4232 200.562C90.9892 203.224 92.7455 205.749 94.6723 208.118L96.9997 206.225ZM88.1455 191.188C87.6026 189.84 87.1069 188.466 86.6606 187.068L83.8027 187.98C84.2715 189.449 84.7922 190.893 85.3627 192.309L88.1455 191.188ZM84.4412 186.249C83.3993 186.895 82.3356 187.506 81.2514 188.08L82.6555 190.731C83.8001 190.125 84.9228 189.48 86.0221 188.799L84.4412 186.249ZM74.5365 191.065C72.2475 191.898 69.8901 192.577 67.4756 193.089L68.0983 196.024C70.6513 195.482 73.1434 194.765 75.5625 193.884L74.5365 191.065ZM60.201 194.107C58.9868 194.191 57.7617 194.234 56.5268 194.234V197.234C57.8309 197.234 59.1252 197.189 60.4083 197.1L60.201 194.107ZM56.5268 194.234C55.037 194.234 53.5614 194.172 52.1021 194.05L51.8521 197.039C53.3944 197.168 54.9535 197.234 56.5268 197.234V194.234ZM43.3882 192.575C40.5114 191.834 37.723 190.855 35.0429 189.659L33.8204 192.399C36.6515 193.662 39.5984 194.697 42.64 195.48L43.3882 192.575ZM27.2882 185.401C24.8267 183.775 22.4957 181.949 20.3158 179.945L18.2852 182.153C20.5813 184.264 23.0382 186.189 25.6345 187.904L27.2882 185.401ZM14.2813 173.457C12.4515 171.155 10.7885 168.701 9.3121 166.116L6.70692 167.603C8.25899 170.321 10.0078 172.902 11.9329 175.324L14.2813 173.457ZM5.50883 158.105C4.45519 155.373 3.59441 152.536 2.94433 149.614L0.0159175 150.266C0.698544 153.334 1.60265 156.314 2.70971 159.185L5.50883 158.105ZM1.65989 140.834C1.55395 139.368 1.5 137.886 1.5 136.39H-1.5C-1.5 137.958 -1.44344 139.512 -1.33232 141.05L1.65989 140.834ZM1.5 136.39C1.5 134.777 1.56279 133.18 1.68589 131.601L-1.30504 131.368C-1.43418 133.024 -1.5 134.699 -1.5 136.39H1.5ZM3.18041 122.147C3.9369 119.007 4.93776 115.969 6.16035 113.057L3.3943 111.896C2.10959 114.955 1.05827 118.147 0.263828 121.445L3.18041 122.147ZM10.5678 104.569C12.2752 101.85 14.1948 99.2918 16.3016 96.9203L14.0589 94.9278C11.8415 97.4237 9.82232 100.115 8.02711 102.974L10.5678 104.569ZM23.2257 90.3384C24.4707 89.342 25.7571 88.4003 27.0816 87.5166L25.4167 85.021C24.0196 85.9531 22.6633 86.946 21.3512 87.9961L23.2257 90.3384ZM27.7318 86.0416C27.6148 85.2779 27.512 84.5093 27.4237 83.7358L24.4431 84.0761C24.5357 84.8877 24.6436 85.6945 24.7665 86.496L27.7318 86.0416ZM27.0725 79.0964C27.0435 78.3245 27.0288 77.5488 27.0288 76.7693H24.0288C24.0288 77.5864 24.0442 78.3998 24.0746 79.2091L27.0725 79.0964ZM27.0288 76.7693C27.0288 75.274 27.0828 73.7922 27.1887 72.3259L24.1965 72.1097C24.0854 73.6479 24.0288 75.2018 24.0288 76.7693H27.0288ZM28.4731 63.5455C29.1232 60.6233 29.984 57.7867 31.0376 55.0542L28.2385 53.9749C27.1315 56.846 26.2274 59.8255 25.5447 62.894L28.4731 63.5455ZM34.8409 47.0441C36.3173 44.4586 37.9803 42.0047 39.8101 39.7029L37.4617 37.8361C35.5366 40.2578 33.7878 42.8385 32.2357 45.5565L34.8409 47.0441ZM45.8446 33.2148C48.0245 31.2104 50.3555 29.3846 52.817 27.7584L51.1633 25.2553C48.567 26.9706 46.1101 28.8953 43.8141 31.0064L45.8446 33.2148ZM60.5717 23.5002C63.2518 22.3042 66.0402 21.3255 68.917 20.5847L68.1689 17.6794C65.1272 18.4627 62.1803 19.4972 59.3492 20.7606L60.5717 23.5002ZM77.6309 19.11C79.0902 18.988 80.5658 18.9258 82.0556 18.9258V15.9258C80.4823 15.9258 78.9232 15.9915 77.3809 16.1204L77.6309 19.11ZM82.0556 18.9258C83.9123 18.9258 85.7469 19.0224 87.5554 19.211L87.8666 16.2272C85.9549 16.0278 84.0164 15.9258 82.0556 15.9258V18.9258ZM98.3119 21.4912C100.065 22.0601 101.78 22.7187 103.454 23.462L104.671 20.7203C102.904 19.9351 101.091 19.2391 99.2381 18.6377L98.3119 21.4912ZM105.242 23.0176C106.087 21.9417 106.968 20.8985 107.884 19.8901L105.663 17.8737C104.699 18.9351 103.772 20.0328 102.883 21.1647L105.242 23.0176ZM113.803 14.2474C115.911 12.5122 118.142 10.9356 120.479 9.53423L118.937 6.96122C116.47 8.43996 114.118 10.1027 111.896 11.9312L113.803 14.2474ZM127.781 5.8782C130.288 4.85438 132.884 4.01833 135.553 3.38626L134.862 0.467003C132.04 1.1353 129.296 2.01909 126.647 3.10086L127.781 5.8782ZM143.616 2.12943C144.964 2.02554 146.326 1.97266 147.7 1.97266V-1.02734C146.249 -1.02734 144.81 -0.971497 143.386 -0.861703L143.616 2.12943ZM147.7 1.97266C149.706 1.97266 151.688 2.08552 153.638 2.30543L153.974 -0.675675C151.912 -0.908141 149.819 -1.02734 147.7 -1.02734V1.97266ZM165.208 4.96203C168.969 6.28799 172.55 8.02992 175.901 10.1367L177.498 7.59689C173.962 5.37414 170.181 3.53418 166.206 2.13273L165.208 4.96203ZM185.229 17.5138C186.644 18.9014 187.989 20.3668 189.259 21.9034L191.572 19.9925C190.236 18.3756 188.82 16.8332 187.33 15.3719L185.229 17.5138ZM190.906 22.3654C192.283 21.8887 193.684 21.4676 195.107 21.1046L194.365 18.1977C192.861 18.5815 191.38 19.0266 189.925 19.5305L190.906 22.3654ZM203.749 19.6554C205.195 19.5356 206.657 19.4746 208.133 19.4746V16.4746C206.574 16.4746 205.03 16.5391 203.502 16.6656L203.749 19.6554ZM208.133 19.4746C209.623 19.4746 211.098 19.5368 212.558 19.6589L212.808 16.6693C211.265 16.5403 209.706 16.4746 208.133 16.4746V19.4746ZM221.28 21.1357C224.159 21.8777 226.95 22.858 229.632 24.0559L230.855 21.3167C228.022 20.0513 225.073 19.0151 222.029 18.2306L221.28 21.1357ZM237.391 28.3202C238.623 29.1351 239.823 30.0001 240.987 30.9125L242.838 28.5512C241.611 27.5895 240.346 26.6774 239.046 25.8179L237.391 28.3202ZM242.856 30.8981C244.034 29.9452 245.25 29.0414 246.5 28.1896L244.811 25.7101C243.493 26.6085 242.211 27.5613 240.969 28.5656L242.856 30.8981ZM254.395 23.7279C257.13 22.4733 259.98 21.4459 262.924 20.668L262.157 17.7675C259.045 18.59 256.033 19.6759 253.144 21.0012L254.395 23.7279ZM271.85 19.1191C273.344 18.9911 274.856 18.9258 276.382 18.9258V15.9258C274.77 15.9258 273.173 15.9947 271.594 16.13L271.85 19.1191ZM276.382 18.9258C277.872 18.9258 279.347 18.988 280.807 19.11L281.057 16.1204C279.514 15.9915 277.955 15.9258 276.382 15.9258V18.9258ZM289.52 20.5847C292.397 21.3255 295.186 22.3042 297.866 23.5002L299.088 20.7606C296.257 19.4972 293.31 18.4627 290.269 17.6794L289.52 20.5847ZM305.62 27.7583C308.082 29.3845 310.413 31.2104 312.593 33.2148L314.623 31.0064C312.327 28.8953 309.87 26.9706 307.274 25.2553L305.62 27.7583ZM318.627 39.7029C320.457 42.0047 322.12 44.4586 323.597 47.0441L326.202 45.5565C324.65 42.8385 322.901 40.2578 320.976 37.8361L318.627 39.7029ZM327.4 55.0542C328.453 57.7867 329.314 60.6233 329.964 63.5455L332.893 62.894C332.21 59.8255 331.306 56.8459 330.199 53.9749L327.4 55.0542ZM331.249 72.3259C331.355 73.7922 331.409 75.274 331.409 76.7693H334.409C334.409 75.2018 334.352 73.6479 334.241 72.1097L331.249 72.3259ZM331.409 76.7693C331.409 77.4302 331.398 78.0885 331.377 78.744L334.376 78.8397C334.398 78.1523 334.409 77.4621 334.409 76.7693H331.409ZM331.125 82.6843C331.061 83.3415 330.987 83.9954 330.903 84.6459L333.878 85.0311C333.966 84.3485 334.044 83.6623 334.111 82.9728L331.125 82.6843ZM331.594 86.1098C332.981 86.9783 334.329 87.9092 335.634 88.8989L337.447 86.5087C336.071 85.4653 334.65 84.4835 333.187 83.5672L331.594 86.1098ZM342.903 95.4927C345.118 97.8841 347.138 100.477 348.936 103.242L351.451 101.607C349.561 98.6989 347.435 95.9714 345.104 93.4541L342.903 95.4927ZM353.581 111.901C354.871 114.878 355.927 117.991 356.726 121.213L359.638 120.491C358.799 117.107 357.689 113.837 356.334 110.709L353.581 111.901ZM358.304 130.919C358.434 132.54 358.5 134.182 358.5 135.84H361.5C361.5 134.102 361.43 132.38 361.294 130.679L358.304 130.919ZM358.5 135.84C358.5 137.335 358.446 138.817 358.34 140.283L361.332 140.499C361.443 138.961 361.5 137.407 361.5 135.84H358.5ZM357.056 149.063C356.406 151.986 355.545 154.822 354.491 157.555L357.29 158.634C358.397 155.763 359.301 152.783 359.984 149.715L357.056 149.063ZM350.688 165.565C349.211 168.15 347.548 170.604 345.719 172.906L348.067 174.773C349.992 172.351 351.741 169.77 353.293 167.052L350.688 165.565ZM339.684 179.394C337.504 181.398 335.173 183.224 332.712 184.851L334.365 187.354C336.962 185.638 339.419 183.714 341.715 181.603L339.684 179.394ZM324.957 189.109C322.277 190.305 319.489 191.283 316.612 192.024L317.36 194.929C320.402 194.146 323.348 193.112 326.18 191.848L324.957 189.109ZM307.898 193.499C306.439 193.621 304.963 193.683 303.473 193.683V196.683C305.046 196.683 306.605 196.617 308.148 196.488L307.898 193.499ZM303.473 193.683C301.247 193.683 299.053 193.544 296.897 193.274L296.524 196.251C298.803 196.536 301.122 196.683 303.473 196.683V193.683ZM284.158 190.02C282.107 189.211 280.115 188.278 278.188 187.228L276.753 189.863C278.786 190.971 280.891 191.957 283.058 192.811L284.158 190.02ZM276.234 187.697C275.4 188.911 274.523 190.089 273.605 191.23L275.942 193.111C276.908 191.911 277.831 190.671 278.707 189.394L276.234 187.697ZM267.578 197.638C265.404 199.617 263.082 201.419 260.631 203.024L262.274 205.533C264.859 203.841 267.307 201.941 269.598 199.856L267.578 197.638ZM252.917 207.224C250.252 208.404 247.481 209.369 244.624 210.099L245.366 213.006C248.388 212.233 251.317 211.213 254.131 209.967L252.917 207.224ZM235.969 211.553C234.521 211.673 233.056 211.734 231.578 211.734V214.734C233.139 214.734 234.686 214.669 236.217 214.542L235.969 211.553ZM231.578 211.734C229.641 211.734 227.728 211.629 225.843 211.424L225.519 214.406C227.511 214.623 229.532 214.734 231.578 214.734V211.734ZM214.649 208.945C211.002 207.707 207.52 206.078 204.248 204.106L202.699 206.676C206.152 208.757 209.829 210.477 213.684 211.786L214.649 208.945ZM195.085 197.183C193.684 195.878 192.348 194.499 191.08 193.051L188.823 195.028C190.157 196.551 191.564 198.003 193.039 199.378L195.085 197.183ZM189.952 194.04L192.209 192.063C191.537 191.296 190.52 190.922 189.511 191.072C188.501 191.222 187.637 191.875 187.217 192.805L189.952 194.04ZM85.2317 187.524L88.0896 186.612C87.8085 185.731 87.1372 185.029 86.2699 184.709C85.4027 184.389 84.4364 184.487 83.6507 184.974L85.2317 187.524ZM26.2492 86.2688L27.9141 88.7644C28.884 88.1173 29.3912 86.9668 29.2145 85.8143L26.2492 86.2688ZM104.063 22.0912L102.845 24.8329C104.1 25.3904 105.574 25.0243 106.422 23.944L104.063 22.0912ZM190.415 20.948L188.103 22.8589C188.9 23.8242 190.214 24.1925 191.397 23.7829L190.415 20.948ZM241.913 29.7319L240.062 32.0932C241.162 32.9554 242.712 32.9435 243.799 32.0644L241.913 29.7319ZM332.39 84.8385L329.415 84.4532C329.265 85.6155 329.805 86.759 330.798 87.3811L332.39 84.8385ZM277.47 188.545L278.906 185.911C277.555 185.175 275.867 185.58 274.997 186.848L277.47 188.545ZM184.896 197.387C184.082 198.83 184.592 200.66 186.035 201.475C187.478 202.289 189.308 201.779 190.122 200.336L184.896 197.387ZM183.677 209.669C184.738 208.397 184.568 206.506 183.296 205.444C182.024 204.382 180.132 204.553 179.07 205.825L183.677 209.669ZM171.81 213.047C170.532 214.101 170.349 215.992 171.403 217.27C172.457 218.549 174.348 218.731 175.626 217.677L171.81 213.047ZM166.201 224.04C167.658 223.25 168.197 221.428 167.407 219.972C166.616 218.516 164.795 217.977 163.339 218.767L166.201 224.04ZM153.937 222.73C152.354 223.219 151.467 224.898 151.955 226.481C152.444 228.064 154.124 228.951 155.707 228.463L153.937 222.73ZM144.538 230.719C146.187 230.555 147.391 229.085 147.227 227.436C147.063 225.788 145.593 224.584 143.944 224.748L144.538 230.719ZM134.601 224.827C132.95 224.69 131.501 225.919 131.365 227.57C131.229 229.221 132.457 230.67 134.108 230.806L134.601 224.827ZM124.766 229.247C126.372 229.655 128.005 228.684 128.412 227.078C128.82 225.472 127.849 223.839 126.243 223.432L124.766 229.247ZM118.229 220.671C116.712 220.005 114.942 220.693 114.275 222.21C113.608 223.727 114.297 225.497 115.814 226.164L118.229 220.671ZM107.493 221.666C108.882 222.568 110.741 222.174 111.644 220.785C112.546 219.396 112.152 217.538 110.763 216.635L107.493 221.666ZM104.025 211.452C102.795 210.342 100.898 210.44 99.7876 211.67C98.6776 212.9 98.775 214.797 100.005 215.907L104.025 211.452ZM93.5087 209.065C94.5541 210.35 96.4436 210.545 97.729 209.499C99.0144 208.454 99.2089 206.564 98.1634 205.279L93.5087 209.065ZM93.3016 198.28C92.4613 196.852 90.6226 196.376 89.1946 197.216C87.7666 198.056 87.2901 199.895 88.1304 201.323L93.3016 198.28ZM83.9713 192.869C84.5902 194.406 86.3379 195.15 87.8748 194.531C89.4117 193.913 90.1558 192.165 89.5369 190.628L83.9713 192.869ZM80.5493 186.755C79.0852 187.53 78.5269 189.346 79.3023 190.81C80.0778 192.274 81.8934 192.832 83.3576 192.057L80.5493 186.755ZM76.0755 195.294C77.6325 194.727 78.4353 193.006 77.8686 191.449C77.302 189.892 75.5805 189.089 74.0235 189.656L76.0755 195.294ZM67.1642 191.622C65.5434 191.966 64.5084 193.558 64.8523 195.179C65.1962 196.8 66.7889 197.835 68.4097 197.491L67.1642 191.622ZM60.512 198.596C62.1649 198.482 63.412 197.049 63.2975 195.396C63.183 193.743 61.7502 192.496 60.0974 192.611L60.512 198.596ZM52.2271 192.555C50.576 192.417 49.1256 193.643 48.9875 195.295C48.8495 196.946 50.076 198.396 51.7271 198.534L52.2271 192.555ZM42.266 196.933C43.8705 197.346 45.5062 196.38 45.9193 194.776C46.3325 193.171 45.3668 191.536 43.7622 191.122L42.266 196.933ZM35.6542 188.29C34.1412 187.614 32.3672 188.294 31.692 189.807C31.0168 191.32 31.6961 193.094 33.2091 193.769L35.6542 188.29ZM24.8077 189.156C26.1901 190.069 28.0511 189.689 28.9644 188.307C29.8777 186.924 29.4974 185.063 28.115 184.15L24.8077 189.156ZM21.331 178.841C20.1114 177.719 18.2136 177.799 17.0921 179.019C15.9707 180.238 16.0503 182.136 17.27 183.258L21.331 178.841ZM10.7587 176.257C11.7897 177.554 13.6769 177.77 14.9739 176.739C16.2709 175.708 16.4865 173.82 15.4555 172.523L10.7587 176.257ZM10.6147 165.372C9.79309 163.933 7.96068 163.433 6.52188 164.254C5.08308 165.076 4.58274 166.908 5.40434 168.347L10.6147 165.372ZM1.31015 159.724C1.90625 161.27 3.64269 162.04 5.1886 161.444C6.73451 160.848 7.50448 159.112 6.90839 157.566L1.31015 159.724ZM4.40853 149.288C4.04874 147.671 2.44597 146.652 0.828658 147.012C-0.788659 147.371 -1.80808 148.974 -1.44829 150.591L4.40853 149.288ZM-2.82842 141.158C-2.70903 142.811 -1.27259 144.054 0.379959 143.934C2.03251 143.815 3.27538 142.378 3.15599 140.726L-2.82842 141.158ZM3.18135 131.717C3.31012 130.065 2.07542 128.622 0.423579 128.493C-1.22826 128.364 -2.67173 129.599 -2.8005 131.251L3.18135 131.717ZM-1.19446 121.094C-1.58246 122.704 -0.591186 124.325 1.0196 124.713C2.63038 125.101 4.25071 124.109 4.6387 122.499L-1.19446 121.094ZM7.54338 113.638C8.18482 112.11 7.46642 110.352 5.93877 109.71C4.41112 109.069 2.65272 109.787 2.01127 111.315L7.54338 113.638ZM6.75678 102.176C5.87571 103.579 6.29897 105.431 7.70214 106.312C9.10531 107.193 10.9571 106.77 11.8381 105.367L6.75678 102.176ZM17.423 97.9165C18.5234 96.6779 18.4114 94.7817 17.1727 93.6813C15.9341 92.5808 14.0379 92.6929 12.9375 93.9316L17.423 97.9165ZM20.4139 86.825C19.1204 87.8603 18.911 89.7482 19.9462 91.0418C20.9815 92.3354 22.8694 92.5448 24.163 91.5095L20.4139 86.825ZM28.914 83.5657C28.7261 81.9195 27.2392 80.7374 25.5931 80.9253C23.9469 81.1133 22.7648 82.6001 22.9527 84.2463L28.914 83.5657ZM22.5757 79.2655C22.638 80.9212 24.0307 82.2129 25.6864 82.1506C27.342 82.0883 28.6337 80.6956 28.5714 79.04L22.5757 79.2655ZM28.6848 72.434C28.8042 70.7814 27.5613 69.345 25.9088 69.2256C24.2562 69.1062 22.8198 70.3491 22.7004 72.0016L28.6848 72.434ZM24.0805 62.5683C23.7207 64.1856 24.7401 65.7884 26.3575 66.1482C27.9748 66.508 29.5775 65.4885 29.9373 63.8712L24.0805 62.5683ZM32.4372 55.5939C33.0333 54.048 32.2633 52.3116 30.7174 51.7155C29.1715 51.1194 27.4351 51.8893 26.839 53.4352L32.4372 55.5939ZM30.9331 44.8127C30.1115 46.2515 30.6119 48.0839 32.0507 48.9055C33.4895 49.7271 35.3219 49.2267 36.1435 47.7879L30.9331 44.8127ZM40.9843 40.6363C42.0153 39.3393 41.7997 37.4521 40.5027 36.4211C39.2057 35.3901 37.3185 35.6057 36.2875 36.9027L40.9843 40.6363ZM42.7988 29.9022C41.5791 31.0236 41.4995 32.9214 42.6209 34.1411C43.7424 35.3608 45.6402 35.4404 46.8598 34.319L42.7988 29.9022ZM53.6438 29.0099C55.0263 28.0966 55.4065 26.2356 54.4932 24.8531C53.5799 23.4707 51.7189 23.0904 50.3365 24.0037L53.6438 29.0099ZM58.7379 19.3908C57.2248 20.066 56.5456 21.8399 57.2208 23.353C57.896 24.866 59.67 25.5452 61.183 24.87L58.7379 19.3908ZM69.2911 22.0373C70.8956 21.6241 71.8613 19.9884 71.4481 18.3839C71.035 16.7794 69.3993 15.8136 67.7948 16.2268L69.2911 22.0373ZM77.2559 14.6256C75.6048 14.7637 74.3783 16.2141 74.5163 17.8652C74.6544 19.5163 76.1048 20.7428 77.7559 20.6048L77.2559 14.6256ZM87.3998 20.7029C89.0477 20.8747 90.523 19.6782 90.6948 18.0302C90.8667 16.3823 89.6701 14.9071 88.0222 14.7352L87.3998 20.7029ZM99.7012 17.211C98.1253 16.6995 96.4331 17.5623 95.9215 19.1382C95.41 20.7141 96.2729 22.4063 97.8488 22.9179L99.7012 17.211ZM108.994 20.8983C110.108 19.6715 110.016 17.7743 108.79 16.6606C107.563 15.547 105.666 15.6387 104.552 16.8655L108.994 20.8983ZM110.943 10.7731C109.664 11.8261 109.481 13.7167 110.534 14.9959C111.587 16.2751 113.477 16.4585 114.756 15.4055L110.943 10.7731ZM121.251 10.8207C122.672 9.96877 123.133 8.12614 122.281 6.70511C121.429 5.28408 119.586 4.82276 118.165 5.67472L121.251 10.8207ZM126.08 1.71219C124.546 2.33858 123.811 4.08983 124.437 5.62371C125.063 7.1576 126.815 7.89326 128.348 7.26687L126.08 1.71219ZM135.899 4.84589C137.511 4.46408 138.509 2.84756 138.127 1.2353C137.745 -0.376958 136.129 -1.37444 134.516 -0.992626L135.899 4.84589ZM143.271 -2.35727C141.619 -2.22994 140.383 -0.787547 140.51 0.864408C140.637 2.51636 142.08 3.75232 143.732 3.62499L143.271 -2.35727ZM153.47 3.79598C155.116 3.98164 156.601 2.79746 156.787 1.15104C156.973 -0.495382 155.788 -1.98057 154.142 -2.16623L153.47 3.79598ZM166.704 0.718078C165.142 0.167159 163.429 0.987272 162.878 2.54985C162.327 4.11243 163.147 5.82576 164.709 6.37668L166.704 0.718078ZM175.103 11.4066C176.505 12.2884 178.357 11.8662 179.239 10.4635C180.121 9.06081 179.699 7.20884 178.296 6.327L175.103 11.4066ZM188.38 14.301C187.197 13.1409 185.298 13.1593 184.138 14.3422C182.977 15.5251 182.996 17.4246 184.179 18.5847L188.38 14.301ZM195.478 22.558C197.083 22.1484 198.052 20.5149 197.643 18.9095C197.233 17.3041 195.6 16.3347 193.994 16.7443L195.478 22.558ZM203.378 15.1707C201.727 15.3075 200.499 16.7569 200.636 18.4081C200.773 20.0593 202.222 21.287 203.873 21.1503L203.378 15.1707ZM212.433 21.1536C214.084 21.2917 215.534 20.0651 215.672 18.414C215.81 16.763 214.584 15.3126 212.933 15.1745L212.433 21.1536ZM222.403 16.7781C220.799 16.3646 219.163 17.3301 218.749 18.9345C218.336 20.539 219.301 22.1748 220.906 22.5882L222.403 16.7781ZM229.02 25.4255C230.533 26.1012 232.307 25.4225 232.983 23.9097C233.659 22.3969 232.98 20.6227 231.467 19.9471L229.02 25.4255ZM239.873 24.5667C238.491 23.6528 236.63 24.0323 235.716 25.4143C234.802 26.7963 235.182 28.6575 236.564 29.5714L239.873 24.5667ZM247.345 29.4293C248.714 28.4966 249.068 26.6304 248.135 25.261C247.203 23.8916 245.336 23.5377 243.967 24.4704L247.345 29.4293ZM252.518 19.6378C251.012 20.3286 250.352 22.1095 251.042 23.6154C251.733 25.1214 253.514 25.7822 255.02 25.0913L252.518 19.6378ZM263.307 22.1182C264.909 21.6949 265.864 20.0532 265.441 18.4513C265.018 16.8495 263.376 15.894 261.774 16.3173L263.307 22.1182ZM271.466 14.6355C269.815 14.7769 268.592 16.2298 268.733 17.8806C268.874 19.5314 270.327 20.755 271.978 20.6136L271.466 14.6355ZM280.682 20.6048C282.333 20.7428 283.783 19.5163 283.921 17.8652C284.059 16.2141 282.833 14.7637 281.182 14.6256L280.682 20.6048ZM290.643 16.2268C289.038 15.8136 287.402 16.7794 286.989 18.3839C286.576 19.9884 287.542 21.6241 289.146 22.0373L290.643 16.2268ZM297.254 24.87C298.767 25.5452 300.541 24.866 301.217 23.353C301.892 21.8399 301.213 20.066 299.7 19.3908L297.254 24.87ZM308.101 24.0037C306.719 23.0904 304.858 23.4707 303.944 24.8531C303.031 26.2356 303.411 28.0966 304.794 29.0099L308.101 24.0037ZM311.578 34.3189C312.797 35.4404 314.695 35.3607 315.817 34.1411C316.938 32.9214 316.858 31.0236 315.639 29.9022L311.578 34.3189ZM322.15 36.9027C321.119 35.6057 319.232 35.39 317.935 36.4211C316.638 37.4521 316.422 39.3393 317.453 40.6363L322.15 36.9027ZM322.294 47.7879C323.116 49.2267 324.948 49.7271 326.387 48.9055C327.826 48.0839 328.326 46.2515 327.504 44.8127L322.294 47.7879ZM331.599 53.4352C331.002 51.8893 329.266 51.1193 327.72 51.7154C326.174 52.3115 325.404 54.048 326 55.5939L331.599 53.4352ZM328.5 63.8712C328.86 65.4885 330.463 66.5079 332.08 66.1481C333.697 65.7884 334.717 64.1856 334.357 62.5683L328.5 63.8712ZM335.737 72.0016C335.618 70.349 334.181 69.1062 332.529 69.2256C330.876 69.345 329.633 70.7814 329.753 72.4339L335.737 72.0016ZM329.878 78.6962C329.825 80.3522 331.125 81.7375 332.781 81.7903C334.437 81.8431 335.822 80.5435 335.875 78.8875L329.878 78.6962ZM335.604 83.117C335.763 81.4678 334.555 80.0018 332.906 79.8424C331.257 79.6831 329.791 80.8909 329.632 82.5401L335.604 83.117ZM334.727 90.0941C336.047 91.0953 337.929 90.8368 338.93 89.5167C339.932 88.1966 339.673 86.3148 338.353 85.3135L334.727 90.0941ZM346.204 92.4349C345.079 91.2193 343.18 91.1466 341.965 92.2724C340.749 93.3983 340.677 95.2964 341.802 96.512L346.204 92.4349ZM347.679 104.06C348.582 105.449 350.44 105.843 351.829 104.94C353.218 104.037 353.612 102.178 352.709 100.789L347.679 104.06ZM357.711 110.113C357.052 108.592 355.286 107.893 353.766 108.552C352.245 109.21 351.546 110.977 352.205 112.497L357.711 110.113ZM355.27 121.574C355.668 123.182 357.295 124.162 358.903 123.764C360.512 123.365 361.492 121.738 361.094 120.13L355.27 121.574ZM362.789 130.559C362.657 128.908 361.211 127.676 359.559 127.808C357.908 127.941 356.676 129.387 356.808 131.038L362.789 130.559ZM356.844 140.175C356.725 141.828 357.967 143.264 359.62 143.383C361.273 143.503 362.709 142.26 362.828 140.607L356.844 140.175ZM361.448 150.041C361.808 148.423 360.789 146.821 359.171 146.461C357.554 146.101 355.951 147.12 355.591 148.738L361.448 150.041ZM353.092 157.015C352.495 158.561 353.265 160.297 354.811 160.893C356.357 161.49 358.094 160.72 358.69 159.174L353.092 157.015ZM354.596 167.796C355.417 166.357 354.917 164.525 353.478 163.703C352.039 162.882 350.207 163.382 349.385 164.821L354.596 167.796ZM344.544 171.973C343.513 173.27 343.729 175.157 345.026 176.188C346.323 177.219 348.21 177.003 349.241 175.706L344.544 171.973ZM342.73 182.707C343.95 181.585 344.029 179.687 342.908 178.468C341.786 177.248 339.889 177.169 338.669 178.29L342.73 182.707ZM331.885 183.599C330.503 184.512 330.122 186.373 331.036 187.756C331.949 189.138 333.81 189.518 335.192 188.605L331.885 183.599ZM326.791 193.218C328.304 192.543 328.983 190.769 328.308 189.256C327.633 187.743 325.859 187.064 324.346 187.739L326.791 193.218ZM316.238 190.572C314.633 190.985 313.667 192.62 314.081 194.225C314.494 195.83 316.129 196.795 317.734 196.382L316.238 190.572ZM308.273 197.983C309.924 197.845 311.15 196.395 311.012 194.744C310.874 193.093 309.424 191.866 307.773 192.004L308.273 197.983ZM297.083 191.786C295.439 191.58 293.94 192.746 293.734 194.39C293.528 196.034 294.694 197.534 296.338 197.74L297.083 191.786ZM282.508 194.206C284.049 194.814 285.791 194.057 286.399 192.515C287.006 190.974 286.249 189.232 284.708 188.624L282.508 194.206ZM272.437 190.29C271.398 191.58 271.602 193.469 272.893 194.508C274.183 195.546 276.072 195.342 277.111 194.052L272.437 190.29ZM270.607 200.966C271.833 199.851 271.922 197.953 270.807 196.728C269.691 195.503 267.794 195.413 266.569 196.528L270.607 200.966ZM259.809 201.769C258.423 202.676 258.035 204.536 258.943 205.922C259.85 207.308 261.71 207.696 263.096 206.788L259.809 201.769ZM254.738 211.339C256.254 210.668 256.938 208.896 256.267 207.381C255.597 205.866 253.825 205.182 252.31 205.852L254.738 211.339ZM244.252 208.646C242.647 209.056 241.678 210.69 242.088 212.295C242.499 213.9 244.132 214.869 245.738 214.459L244.252 208.646ZM236.341 216.037C237.992 215.9 239.22 214.451 239.083 212.799C238.946 211.148 237.496 209.921 235.845 210.058L236.341 216.037ZM226.005 209.932C224.358 209.753 222.878 210.943 222.698 212.59C222.519 214.237 223.709 215.718 225.356 215.897L226.005 209.932ZM213.202 213.206C214.771 213.739 216.475 212.899 217.007 211.33C217.54 209.761 216.7 208.057 215.131 207.525L213.202 213.206ZM205.022 202.821C203.603 201.966 201.759 202.423 200.904 203.842C200.049 205.261 200.506 207.105 201.925 207.96L205.022 202.821ZM192.016 200.475C193.228 201.605 195.126 201.538 196.256 200.326C197.386 199.114 197.319 197.216 196.107 196.086L192.016 200.475ZM187.217 192.805C186.509 194.374 185.734 195.903 184.896 197.387L190.122 200.336C191.048 198.695 191.904 197.007 192.686 195.274L187.217 192.805ZM179.07 205.825C176.868 208.463 174.437 210.882 171.81 213.047L175.626 217.677C178.543 215.273 181.239 212.591 183.677 209.669L179.07 205.825ZM163.339 218.767C160.355 220.387 157.21 221.719 153.937 222.73L155.707 228.463C159.366 227.333 162.876 225.845 166.201 224.04L163.339 218.767ZM143.944 224.748C142.266 224.915 140.564 225.001 138.842 225.001V231.001C140.762 231.001 142.663 230.905 144.538 230.719L143.944 224.748ZM138.842 225.001C137.414 225.001 136 224.942 134.601 224.827L134.108 230.806C135.671 230.935 137.249 231.001 138.842 231.001V225.001ZM126.243 223.432C123.483 222.731 120.805 221.804 118.229 220.671L115.814 226.164C118.689 227.428 121.68 228.463 124.766 229.247L126.243 223.432ZM110.763 216.635C108.389 215.092 106.136 213.358 104.025 211.452L100.005 215.907C102.348 218.021 104.851 219.948 107.493 221.666L110.763 216.635ZM98.1634 205.279C96.3798 203.086 94.753 200.747 93.3016 198.28L88.1304 201.323C89.7347 204.049 91.5341 206.637 93.5087 209.065L98.1634 205.279ZM89.5369 190.628C89.0077 189.314 88.5246 187.975 88.0896 186.612L82.3737 188.436C82.8537 189.94 83.387 191.419 83.9713 192.869L89.5369 190.628ZM83.6507 184.974C82.6376 185.602 81.6033 186.196 80.5493 186.755L83.3576 192.057C84.5324 191.435 85.6846 190.773 86.8126 190.074L83.6507 184.974ZM74.0235 189.656C71.7996 190.465 69.5096 191.124 67.1642 191.622L68.4097 197.491C71.0319 196.935 73.5913 196.198 76.0755 195.294L74.0235 189.656ZM60.0974 192.611C58.9177 192.692 57.7271 192.734 56.5268 192.734V198.734C57.8656 198.734 59.1944 198.688 60.512 198.596L60.0974 192.611ZM56.5268 192.734C55.0788 192.734 53.6449 192.673 52.2271 192.555L51.7271 198.534C53.311 198.666 54.9117 198.734 56.5268 198.734V192.734ZM43.7622 191.122C40.9678 190.403 38.2587 189.452 35.6542 188.29L33.2091 193.769C36.1157 195.066 39.142 196.128 42.266 196.933L43.7622 191.122ZM28.115 184.15C25.721 182.568 23.4529 180.792 21.331 178.841L17.27 183.258C19.6241 185.422 22.1439 187.396 24.8077 189.156L28.115 184.15ZM15.4555 172.523C13.6733 170.281 12.0532 167.891 10.6147 165.372L5.40434 168.347C6.99424 171.131 8.78593 173.775 10.7587 176.257L15.4555 172.523ZM6.90839 157.566C5.88147 154.903 5.04234 152.137 4.40853 149.288L-1.44829 150.591C-0.749387 153.733 0.176379 156.784 1.31015 159.724L6.90839 157.566ZM3.15599 140.726C3.05265 139.295 3 137.85 3 136.39H-3C-3 137.994 -2.94214 139.584 -2.82842 141.158L3.15599 140.726ZM3 136.39C3 134.816 3.06127 133.258 3.18135 131.717L-2.8005 131.251C-2.93266 132.946 -3 134.66 -3 136.39H3ZM4.6387 122.499C5.37622 119.437 6.35185 116.476 7.54338 113.638L2.01127 111.315C0.695498 114.449 -0.381054 117.717 -1.19446 121.094L4.6387 122.499ZM11.8381 105.367C13.5016 102.718 15.3714 100.226 17.423 97.9165L12.9375 93.9316C10.6649 96.4896 8.5959 99.2473 6.75678 102.176L11.8381 105.367ZM24.163 91.5095C25.3744 90.54 26.6259 89.6239 27.9141 88.7644L24.5842 83.7732C23.1508 84.7295 21.7596 85.748 20.4139 86.825L24.163 91.5095ZM29.2145 85.8143C29.1004 85.0697 29.0001 84.32 28.914 83.5657L22.9527 84.2463C23.0476 85.077 23.158 85.9027 23.2838 86.7233L29.2145 85.8143ZM28.5714 79.04C28.5431 78.2869 28.5288 77.5299 28.5288 76.7693H22.5288C22.5288 77.6052 22.5445 78.4374 22.5757 79.2655L28.5714 79.04ZM28.5288 76.7693C28.5288 75.3101 28.5815 73.8643 28.6848 72.434L22.7004 72.0016C22.5867 73.5757 22.5288 75.1657 22.5288 76.7693H28.5288ZM29.9373 63.8712C30.5711 61.0222 31.4103 58.2571 32.4372 55.5939L26.839 53.4352C25.7052 56.3756 24.7794 59.4266 24.0805 62.5683L29.9373 63.8712ZM36.1435 47.7879C37.582 45.2687 39.2021 42.8782 40.9843 40.6363L36.2875 36.9027C34.3147 39.3843 32.523 42.0284 30.9331 44.8127L36.1435 47.7879ZM46.8598 34.319C48.9817 32.368 51.2498 30.5915 53.6438 29.0099L50.3365 24.0037C47.6727 25.7636 45.1529 27.7377 42.7988 29.9022L46.8598 34.319ZM61.183 24.87C63.7875 23.7077 66.4966 22.7569 69.2911 22.0373L67.7948 16.2268C64.6708 17.0313 61.6445 18.0937 58.7379 19.3908L61.183 24.87ZM77.7559 20.6048C79.1737 20.4862 80.6076 20.4258 82.0556 20.4258V14.4258C80.4405 14.4258 78.8398 14.4932 77.2559 14.6256L77.7559 20.6048ZM82.0556 20.4258C83.8602 20.4258 85.6429 20.5197 87.3998 20.7029L88.0222 14.7352C86.0589 14.5305 84.0685 14.4258 82.0556 14.4258V20.4258ZM97.8488 22.9179C99.5516 23.4706 101.219 24.1106 102.845 24.8329L105.28 19.3494C103.465 18.5433 101.604 17.8286 99.7012 17.211L97.8488 22.9179ZM106.422 23.944C107.245 22.8961 108.103 21.8802 108.994 20.8983L104.552 16.8655C103.564 17.9533 102.614 19.0784 101.703 20.2383L106.422 23.944ZM114.756 15.4055C116.808 13.717 118.978 12.1834 121.251 10.8207L118.165 5.67472C115.634 7.19216 113.221 8.89789 110.943 10.7731L114.756 15.4055ZM128.348 7.26687C130.785 6.27203 133.306 5.45984 135.899 4.84589L134.516 -0.992626C131.618 -0.30622 128.8 0.601447 126.08 1.71219L128.348 7.26687ZM143.732 3.62499C145.041 3.52405 146.364 3.47266 147.7 3.47266V-2.52734C146.21 -2.52734 144.733 -2.47001 143.271 -2.35727L143.732 3.62499ZM147.7 3.47266C149.65 3.47266 151.575 3.58235 153.47 3.79598L154.142 -2.16623C152.025 -2.40497 149.875 -2.52734 147.7 -2.52734V3.47266ZM164.709 6.37668C168.363 7.6649 171.844 9.35781 175.103 11.4066L178.296 6.327C174.668 4.04625 170.787 2.15727 166.704 0.718078L164.709 6.37668ZM184.179 18.5847C185.556 19.9356 186.866 21.3624 188.103 22.8589L192.728 19.037C191.359 17.38 189.907 15.799 188.38 14.301L184.179 18.5847ZM191.397 23.7829C192.735 23.3197 194.096 22.9106 195.478 22.558L193.994 16.7443C192.45 17.1384 190.929 17.5956 189.434 18.1131L191.397 23.7829ZM203.873 21.1503C205.278 21.0339 206.698 20.9746 208.133 20.9746V14.9746C206.533 14.9746 204.947 15.0408 203.378 15.1707L203.873 21.1503ZM208.133 20.9746C209.581 20.9746 211.015 21.0351 212.433 21.1536L212.933 15.1745C211.349 15.0421 209.748 14.9746 208.133 14.9746V20.9746ZM220.906 22.5882C223.703 23.309 226.414 24.2613 229.02 25.4255L231.467 19.9471C228.558 18.6479 225.53 17.5838 222.403 16.7781L220.906 22.5882ZM236.564 29.5714C237.762 30.364 238.929 31.2054 240.062 32.0932L243.763 27.3705C242.504 26.3842 241.207 25.4486 239.873 24.5667L236.564 29.5714ZM243.799 32.0644C244.946 31.1371 246.128 30.2578 247.345 29.4293L243.967 24.4704C242.614 25.392 241.299 26.3694 240.026 27.3994L243.799 32.0644ZM255.02 25.0913C257.678 23.872 260.447 22.8738 263.307 22.1182L261.774 16.3173C258.577 17.162 255.484 18.2773 252.518 19.6378L255.02 25.0913ZM271.978 20.6136C273.43 20.4892 274.898 20.4258 276.382 20.4258V14.4258C274.727 14.4258 273.088 14.4966 271.466 14.6355L271.978 20.6136ZM276.382 20.4258C277.83 20.4258 279.264 20.4862 280.682 20.6048L281.182 14.6256C279.598 14.4932 277.997 14.4258 276.382 14.4258V20.4258ZM289.146 22.0373C291.941 22.7569 294.65 23.7077 297.254 24.87L299.7 19.3908C296.793 18.0937 293.767 17.0313 290.643 16.2268L289.146 22.0373ZM304.794 29.0099C307.188 30.5915 309.456 32.368 311.578 34.3189L315.639 29.9022C313.285 27.7377 310.765 25.7636 308.101 24.0037L304.794 29.0099ZM317.453 40.6363C319.235 42.8782 320.855 45.2687 322.294 47.7879L327.504 44.8127C325.914 42.0284 324.123 39.3843 322.15 36.9027L317.453 40.6363ZM326 55.5939C327.027 58.2571 327.866 61.0222 328.5 63.8712L334.357 62.5683C333.658 59.4266 332.732 56.3755 331.599 53.4352L326 55.5939ZM329.753 72.4339C329.856 73.8643 329.909 75.3101 329.909 76.7693H335.909C335.909 75.1657 335.851 73.5757 335.737 72.0016L329.753 72.4339ZM329.909 76.7693C329.909 77.4143 329.898 78.0566 329.878 78.6962L335.875 78.8875C335.897 78.1842 335.909 77.4781 335.909 76.7693H329.909ZM329.632 82.5401C329.57 83.1811 329.497 83.8189 329.415 84.4532L335.366 85.2238C335.456 84.5251 335.536 83.8227 335.604 83.117L329.632 82.5401ZM330.798 87.3811C332.147 88.2257 333.458 89.1312 334.727 90.0941L338.353 85.3135C336.942 84.2434 335.484 83.2362 333.983 82.296L330.798 87.3811ZM341.802 96.512C343.959 98.8405 345.927 101.366 347.679 104.06L352.709 100.789C350.772 97.8101 348.594 95.015 346.204 92.4349L341.802 96.512ZM352.205 112.497C353.461 115.398 354.491 118.432 355.27 121.574L361.094 120.13C360.235 116.665 359.098 113.317 357.711 110.113L352.205 112.497ZM356.808 131.038C356.935 132.62 357 134.222 357 135.84H363C363 134.062 362.929 132.3 362.789 130.559L356.808 131.038ZM357 135.84C357 137.299 356.947 138.745 356.844 140.175L362.828 140.607C362.942 139.033 363 137.443 363 135.84H357ZM355.591 148.738C354.958 151.587 354.118 154.352 353.092 157.015L358.69 159.174C359.824 156.233 360.749 153.182 361.448 150.041L355.591 148.738ZM349.385 164.821C347.947 167.34 346.327 169.731 344.544 171.973L349.241 175.706C351.214 173.225 353.006 170.581 354.596 167.796L349.385 164.821ZM338.669 178.29C336.547 180.241 334.279 182.017 331.885 183.599L335.192 188.605C337.856 186.845 340.376 184.871 342.73 182.707L338.669 178.29ZM324.346 187.739C321.741 188.901 319.032 189.852 316.238 190.572L317.734 196.382C320.858 195.578 323.884 194.515 326.791 193.218L324.346 187.739ZM307.773 192.004C306.355 192.123 304.921 192.183 303.473 192.183V198.183C305.088 198.183 306.689 198.116 308.273 197.983L307.773 192.004ZM303.473 192.183C301.31 192.183 299.177 192.048 297.083 191.786L296.338 197.74C298.679 198.033 301.06 198.183 303.473 198.183V192.183ZM284.708 188.624C282.716 187.839 280.779 186.932 278.906 185.911L276.035 191.18C278.122 192.317 280.283 193.329 282.508 194.206L284.708 188.624ZM274.997 186.848C274.185 188.03 273.331 189.179 272.437 190.29L277.111 194.052C278.101 192.822 279.046 191.551 279.944 190.243L274.997 186.848ZM266.569 196.528C264.452 198.455 262.193 200.208 259.809 201.769L263.096 206.788C265.748 205.051 268.259 203.103 270.607 200.966L266.569 196.528ZM252.31 205.852C249.72 206.999 247.028 207.936 244.252 208.646L245.738 214.459C248.841 213.666 251.849 212.618 254.738 211.339L252.31 205.852ZM235.845 210.058C234.438 210.174 233.015 210.234 231.578 210.234V216.234C233.181 216.234 234.769 216.168 236.341 216.037L235.845 210.058ZM231.578 210.234C229.695 210.234 227.836 210.132 226.005 209.932L225.356 215.897C227.402 216.12 229.478 216.234 231.578 216.234V210.234ZM215.131 207.525C211.588 206.322 208.204 204.739 205.022 202.821L201.925 207.96C205.468 210.096 209.243 211.862 213.202 213.206L215.131 207.525ZM196.107 196.086C194.744 194.816 193.443 193.473 192.209 192.063L187.695 196.016C189.062 197.577 190.504 199.066 192.016 200.475L196.107 196.086Z" fill="#247158" mask="url(#path-1-inside-1_361_826)"/>
</svg>
