<svg width="210" height="208" viewBox="0 0 210 208" fill="none" xmlns="http://www.w3.org/2000/svg">
<path d="M50.3467 41.5608C16.424 61.701 15.5889 75.1888 13.3046 100.438C11.0203 125.687 50.1618 170.255 100.405 185.634C138.617 197.33 178.302 178.434 187.363 156.313C192.084 144.789 192.568 144.874 190.717 123.834C188.866 102.794 203.584 93.4204 182.721 62.9897C162.7 33.7871 153.285 13.1707 129.34 13.1683C74.7518 13.1627 87.7794 19.3367 50.3467 41.5608Z" fill="#247158"/>
<path d="M72.008 156V146.158H73.912V156H72.008ZM73.408 151.968V150.274H78.364V151.968H73.408ZM73.408 147.838V146.158H78.602V147.838H73.408ZM85.0347 156.154C84.316 156.154 83.644 156.023 83.0187 155.762C82.4027 155.501 81.8614 155.141 81.3947 154.684C80.9374 154.217 80.578 153.676 80.3167 153.06C80.0554 152.435 79.9247 151.767 79.9247 151.058C79.9247 150.349 80.0507 149.691 80.3027 149.084C80.564 148.468 80.9234 147.931 81.3807 147.474C81.8474 147.007 82.3887 146.648 83.0047 146.396C83.6207 146.135 84.288 146.004 85.0067 146.004C85.7347 146.004 86.4067 146.135 87.0227 146.396C87.6387 146.648 88.1754 147.007 88.6327 147.474C89.0994 147.931 89.4634 148.468 89.7247 149.084C89.986 149.7 90.1167 150.363 90.1167 151.072C90.1167 151.781 89.986 152.444 89.7247 153.06C89.4634 153.676 89.0994 154.217 88.6327 154.684C88.1754 155.141 87.6387 155.501 87.0227 155.762C86.416 156.023 85.7534 156.154 85.0347 156.154ZM85.0067 154.376C85.6414 154.376 86.192 154.236 86.6587 153.956C87.1254 153.676 87.4894 153.289 87.7507 152.794C88.0214 152.299 88.1567 151.721 88.1567 151.058C88.1567 150.573 88.082 150.129 87.9327 149.728C87.7834 149.327 87.5687 148.981 87.2887 148.692C87.0087 148.393 86.6774 148.165 86.2947 148.006C85.912 147.847 85.4827 147.768 85.0067 147.768C84.3907 147.768 83.8447 147.908 83.3687 148.188C82.902 148.459 82.5334 148.841 82.2627 149.336C82.0014 149.831 81.8707 150.405 81.8707 151.058C81.8707 151.553 81.9454 152.005 82.0947 152.416C82.2534 152.827 82.468 153.177 82.7387 153.466C83.0187 153.755 83.35 153.979 83.7327 154.138C84.1247 154.297 84.5494 154.376 85.0067 154.376ZM93.476 151.884V150.4H95.758C96.2246 150.4 96.584 150.283 96.836 150.05C97.0973 149.807 97.228 149.476 97.228 149.056C97.228 148.673 97.0973 148.356 96.836 148.104C96.584 147.843 96.2246 147.712 95.758 147.712H93.476V146.158H95.926C96.5606 146.158 97.116 146.284 97.592 146.536C98.0773 146.779 98.4506 147.115 98.712 147.544C98.9826 147.973 99.118 148.468 99.118 149.028C99.118 149.607 98.9826 150.111 98.712 150.54C98.4506 150.96 98.0773 151.291 97.592 151.534C97.1066 151.767 96.542 151.884 95.898 151.884H93.476ZM92.076 156V146.158H93.98V156H92.076ZM97.452 156L94.204 151.744L95.954 151.198L99.762 156H97.452ZM101.29 156V146.158H103.194V156H101.29ZM102.69 156V154.32H108.136V156H102.69ZM102.69 151.786V150.162H107.646V151.786H102.69ZM102.69 147.838V146.158H108.066V147.838H102.69ZM112.771 156.14C111.978 156.14 111.297 156.005 110.727 155.734C110.167 155.463 109.659 155.057 109.201 154.516L110.461 153.256C110.751 153.639 111.087 153.937 111.469 154.152C111.852 154.357 112.319 154.46 112.869 154.46C113.364 154.46 113.756 154.362 114.045 154.166C114.344 153.97 114.493 153.699 114.493 153.354C114.493 153.055 114.409 152.813 114.241 152.626C114.073 152.439 113.849 152.281 113.569 152.15C113.299 152.019 112.995 151.903 112.659 151.8C112.333 151.688 112.001 151.562 111.665 151.422C111.339 151.282 111.035 151.109 110.755 150.904C110.485 150.689 110.265 150.419 110.097 150.092C109.929 149.756 109.845 149.336 109.845 148.832C109.845 148.235 109.99 147.726 110.279 147.306C110.569 146.886 110.965 146.564 111.469 146.34C111.973 146.116 112.543 146.004 113.177 146.004C113.849 146.004 114.456 146.13 114.997 146.382C115.539 146.634 115.982 146.961 116.327 147.362L115.067 148.622C114.778 148.305 114.479 148.071 114.171 147.922C113.873 147.773 113.532 147.698 113.149 147.698C112.711 147.698 112.365 147.782 112.113 147.95C111.861 148.118 111.735 148.361 111.735 148.678C111.735 148.949 111.819 149.168 111.987 149.336C112.155 149.504 112.375 149.649 112.645 149.77C112.925 149.891 113.229 150.008 113.555 150.12C113.891 150.232 114.223 150.358 114.549 150.498C114.885 150.638 115.189 150.82 115.459 151.044C115.739 151.268 115.963 151.557 116.131 151.912C116.299 152.257 116.383 152.687 116.383 153.2C116.383 154.115 116.061 154.833 115.417 155.356C114.773 155.879 113.891 156.14 112.771 156.14ZM120.376 156V146.368H122.294V156H120.376ZM117.24 147.852V146.158H125.43V147.852H117.24ZM131.56 151.884V150.4H133.842C134.309 150.4 134.668 150.283 134.92 150.05C135.181 149.807 135.312 149.476 135.312 149.056C135.312 148.673 135.181 148.356 134.92 148.104C134.668 147.843 134.309 147.712 133.842 147.712H131.56V146.158H134.01C134.645 146.158 135.2 146.284 135.676 146.536C136.161 146.779 136.535 147.115 136.796 147.544C137.067 147.973 137.202 148.468 137.202 149.028C137.202 149.607 137.067 150.111 136.796 150.54C136.535 150.96 136.161 151.291 135.676 151.534C135.191 151.767 134.626 151.884 133.982 151.884H131.56ZM130.16 156V146.158H132.064V156H130.16ZM135.536 156L132.288 151.744L134.038 151.198L137.846 156H135.536ZM138.331 156L142.293 146.158H143.847L147.795 156H145.765L142.713 147.922H143.413L140.319 156H138.331ZM140.431 154.166V152.57H145.723V154.166H140.431ZM149.408 156V146.158H151.312V156H149.408ZM153.781 156V146.158H155.111L155.685 148.062V156H153.781ZM160.585 156L154.747 148.44L155.111 146.158L160.949 153.718L160.585 156ZM160.585 156L160.039 154.152V146.158H161.957V156H160.585Z" fill="#F3FFF6"/>
</svg>
