<svg width="231" height="165" viewBox="0 0 231 165" fill="none" xmlns="http://www.w3.org/2000/svg">
<g filter="url(#filter0_d_318_960)">
<rect x="4" y="2" width="223" height="128" rx="20" fill="#F3FFF6"/>
<path d="M23.056 28.88L22.064 30.784L21.568 30.912C21.6213 30.7947 21.6853 30.6987 21.76 30.624C21.8453 30.5493 21.9413 30.512 22.048 30.512C22.272 30.512 22.4747 30.6027 22.656 30.784C22.848 30.9653 22.944 31.2 22.944 31.488C22.944 31.776 22.8373 32.032 22.624 32.256C22.4213 32.4693 22.176 32.576 21.888 32.576C21.6 32.576 21.3493 32.4693 21.136 32.256C20.9227 32.0427 20.816 31.7867 20.816 31.488C20.816 31.36 20.8427 31.216 20.896 31.056C20.9493 30.8853 21.04 30.672 21.168 30.416L22.24 28.432L23.056 28.88ZM26 28.88L25.008 30.784L24.512 30.912C24.5653 30.7947 24.6293 30.6987 24.704 30.624C24.7893 30.5493 24.8853 30.512 24.992 30.512C25.216 30.512 25.4187 30.6027 25.6 30.784C25.792 30.9653 25.888 31.2 25.888 31.488C25.888 31.776 25.7813 32.032 25.568 32.256C25.3653 32.4693 25.12 32.576 24.832 32.576C24.544 32.576 24.2933 32.4693 24.08 32.256C23.8667 32.0427 23.76 31.7867 23.76 31.488C23.76 31.36 23.7867 31.216 23.84 31.056C23.8933 30.8853 23.984 30.672 24.112 30.416L25.184 28.432L26 28.88ZM28.2903 40V28.896H29.3463L34.0503 36.624H33.3303L38.0343 28.896H39.0903V40H37.5863V31.536L37.9383 31.632L34.2263 37.728H33.1703L29.4583 31.632L29.7943 31.536V40H28.2903ZM44.0241 40.064L40.7281 32.4H42.3281L44.7761 38.4H44.2641L46.8401 32.4H48.4401L44.8881 40.064H44.0241ZM41.8481 43.184L44.0881 38.592L44.8881 40.064L43.4481 43.184H41.8481ZM57.219 40.16C56.643 40.16 56.1203 40.0427 55.651 39.808C55.1923 39.5627 54.8243 39.2267 54.547 38.8C54.2697 38.3733 54.115 37.888 54.083 37.344V35.056C54.115 34.5013 54.2697 34.016 54.547 33.6C54.835 33.1733 55.2083 32.8427 55.667 32.608C56.1363 32.3627 56.6537 32.24 57.219 32.24C57.9123 32.24 58.5363 32.416 59.091 32.768C59.6563 33.12 60.099 33.5947 60.419 34.192C60.739 34.7893 60.899 35.4613 60.899 36.208C60.899 36.9547 60.739 37.6267 60.419 38.224C60.099 38.8213 59.6563 39.296 59.091 39.648C58.5363 39.9893 57.9123 40.16 57.219 40.16ZM53.219 40V28.576H54.659V34.256L54.387 36.096L54.659 37.952V40H53.219ZM56.979 38.8C57.459 38.8 57.8803 38.688 58.243 38.464C58.6057 38.24 58.8937 37.936 59.107 37.552C59.3203 37.1573 59.427 36.704 59.427 36.192C59.427 35.6907 59.3203 35.2427 59.107 34.848C58.8937 34.4533 58.6057 34.1493 58.243 33.936C57.8803 33.712 57.4643 33.6 56.995 33.6C56.515 33.6 56.0937 33.712 55.731 33.936C55.3683 34.1493 55.0857 34.4533 54.883 34.848C54.6803 35.2427 54.579 35.696 54.579 36.208C54.579 36.7093 54.675 37.1573 54.867 37.552C55.0697 37.936 55.3523 38.24 55.715 38.464C56.0883 38.688 56.5097 38.8 56.979 38.8ZM62.6195 40V32.4H64.0595V40H62.6195ZM63.3395 30.88C63.0728 30.88 62.8542 30.7947 62.6835 30.624C62.5128 30.4427 62.4275 30.2187 62.4275 29.952C62.4275 29.696 62.5128 29.4827 62.6835 29.312C62.8542 29.1307 63.0728 29.04 63.3395 29.04C63.6062 29.04 63.8248 29.1307 63.9955 29.312C64.1662 29.4827 64.2515 29.696 64.2515 29.952C64.2515 30.2187 64.1662 30.4427 63.9955 30.624C63.8248 30.7947 63.6062 30.88 63.3395 30.88ZM69.4056 43.344C68.627 43.344 67.9336 43.2 67.3256 42.912C66.7283 42.624 66.2483 42.2187 65.8856 41.696L66.8136 40.752C67.123 41.1467 67.491 41.4453 67.9176 41.648C68.3443 41.8613 68.851 41.968 69.4376 41.968C70.2163 41.968 70.8296 41.76 71.2776 41.344C71.7363 40.9387 71.9656 40.3893 71.9656 39.696V37.808L72.2216 36.096L71.9656 34.4V32.4H73.4056V39.696C73.4056 40.4213 73.235 41.056 72.8936 41.6C72.563 42.144 72.0936 42.5707 71.4856 42.88C70.8883 43.1893 70.195 43.344 69.4056 43.344ZM69.4056 39.872C68.7123 39.872 68.0883 39.7067 67.5336 39.376C66.9896 39.0453 66.5576 38.592 66.2376 38.016C65.9176 37.4293 65.7576 36.7733 65.7576 36.048C65.7576 35.3227 65.9176 34.6773 66.2376 34.112C66.5576 33.536 66.9896 33.0827 67.5336 32.752C68.0883 32.4107 68.7123 32.24 69.4056 32.24C70.003 32.24 70.531 32.3573 70.9896 32.592C71.4483 32.8267 71.811 33.1573 72.0776 33.584C72.355 34 72.5043 34.4907 72.5256 35.056V37.072C72.4936 37.6267 72.339 38.1173 72.0616 38.544C71.795 38.96 71.4323 39.2853 70.9736 39.52C70.515 39.7547 69.9923 39.872 69.4056 39.872ZM69.6936 38.512C70.163 38.512 70.5736 38.4107 70.9256 38.208C71.2883 38.0053 71.5656 37.7227 71.7576 37.36C71.9496 36.9867 72.0456 36.5547 72.0456 36.064C72.0456 35.5733 71.9443 35.1467 71.7416 34.784C71.5496 34.4107 71.2776 34.1227 70.9256 33.92C70.5736 33.7067 70.1576 33.6 69.6776 33.6C69.1976 33.6 68.7763 33.7067 68.4136 33.92C68.051 34.1227 67.763 34.4107 67.5496 34.784C67.347 35.1467 67.2456 35.568 67.2456 36.048C67.2456 36.528 67.347 36.9547 67.5496 37.328C67.763 37.7013 68.051 37.9947 68.4136 38.208C68.787 38.4107 69.2136 38.512 69.6936 38.512ZM78.7433 43.344C77.9646 43.344 77.2713 43.2 76.6633 42.912C76.0659 42.624 75.5859 42.2187 75.2233 41.696L76.1513 40.752C76.4606 41.1467 76.8286 41.4453 77.2553 41.648C77.6819 41.8613 78.1886 41.968 78.7753 41.968C79.5539 41.968 80.1673 41.76 80.6153 41.344C81.0739 40.9387 81.3033 40.3893 81.3033 39.696V37.808L81.5593 36.096L81.3033 34.4V32.4H82.7433V39.696C82.7433 40.4213 82.5726 41.056 82.2313 41.6C81.9006 42.144 81.4313 42.5707 80.8233 42.88C80.2259 43.1893 79.5326 43.344 78.7433 43.344ZM78.7433 39.872C78.0499 39.872 77.4259 39.7067 76.8713 39.376C76.3273 39.0453 75.8953 38.592 75.5753 38.016C75.2553 37.4293 75.0953 36.7733 75.0953 36.048C75.0953 35.3227 75.2553 34.6773 75.5753 34.112C75.8953 33.536 76.3273 33.0827 76.8713 32.752C77.4259 32.4107 78.0499 32.24 78.7433 32.24C79.3406 32.24 79.8686 32.3573 80.3273 32.592C80.7859 32.8267 81.1486 33.1573 81.4153 33.584C81.6926 34 81.8419 34.4907 81.8633 35.056V37.072C81.8313 37.6267 81.6766 38.1173 81.3993 38.544C81.1326 38.96 80.7699 39.2853 80.3113 39.52C79.8526 39.7547 79.3299 39.872 78.7433 39.872ZM79.0313 38.512C79.5006 38.512 79.9113 38.4107 80.2633 38.208C80.6259 38.0053 80.9033 37.7227 81.0953 37.36C81.2873 36.9867 81.3833 36.5547 81.3833 36.064C81.3833 35.5733 81.2819 35.1467 81.0793 34.784C80.8873 34.4107 80.6153 34.1227 80.2633 33.92C79.9113 33.7067 79.4953 33.6 79.0153 33.6C78.5353 33.6 78.1139 33.7067 77.7513 33.92C77.3886 34.1227 77.1006 34.4107 76.8873 34.784C76.6846 35.1467 76.5833 35.568 76.5833 36.048C76.5833 36.528 76.6846 36.9547 76.8873 37.328C77.1006 37.7013 77.3886 37.9947 77.7513 38.208C78.1246 38.4107 78.5513 38.512 79.0313 38.512ZM88.4489 40.16C87.6915 40.16 87.0089 39.9893 86.4009 39.648C85.7929 39.296 85.3129 38.8213 84.9609 38.224C84.6089 37.6267 84.4329 36.9493 84.4329 36.192C84.4329 35.4453 84.6035 34.7733 84.9449 34.176C85.2969 33.5787 85.7662 33.1093 86.3529 32.768C86.9502 32.416 87.6169 32.24 88.3529 32.24C89.0569 32.24 89.6755 32.4 90.2089 32.72C90.7529 33.04 91.1742 33.4827 91.4729 34.048C91.7822 34.6133 91.9369 35.2533 91.9369 35.968C91.9369 36.0747 91.9315 36.192 91.9209 36.32C91.9102 36.4373 91.8889 36.576 91.8569 36.736H85.4409V35.536H91.0889L90.5609 36C90.5609 35.488 90.4702 35.056 90.2889 34.704C90.1075 34.3413 89.8515 34.064 89.5209 33.872C89.1902 33.6693 88.7902 33.568 88.3209 33.568C87.8302 33.568 87.3982 33.6747 87.0249 33.888C86.6515 34.1013 86.3635 34.4 86.1609 34.784C85.9582 35.168 85.8569 35.6213 85.8569 36.144C85.8569 36.6773 85.9635 37.1467 86.1769 37.552C86.3902 37.9467 86.6942 38.256 87.0889 38.48C87.4835 38.6933 87.9369 38.8 88.4489 38.8C88.8755 38.8 89.2649 38.7253 89.6169 38.576C89.9795 38.4267 90.2889 38.2027 90.5449 37.904L91.4729 38.848C91.1102 39.2747 90.6622 39.6 90.1289 39.824C89.6062 40.048 89.0462 40.16 88.4489 40.16ZM95.995 40.16C95.5683 40.16 95.163 40.1067 94.779 40C94.4057 39.8827 94.059 39.7227 93.739 39.52C93.419 39.3067 93.1417 39.056 92.907 38.768L93.835 37.84C94.1123 38.1813 94.4323 38.4373 94.795 38.608C95.1577 38.768 95.563 38.848 96.011 38.848C96.459 38.848 96.8057 38.7733 97.051 38.624C97.2963 38.464 97.419 38.2453 97.419 37.968C97.419 37.6907 97.3177 37.4773 97.115 37.328C96.923 37.168 96.6723 37.04 96.363 36.944C96.0537 36.8373 95.723 36.736 95.371 36.64C95.0297 36.5333 94.7043 36.4 94.395 36.24C94.0857 36.08 93.8297 35.8613 93.627 35.584C93.435 35.3067 93.339 34.9387 93.339 34.48C93.339 34.0213 93.451 33.6267 93.675 33.296C93.899 32.9547 94.2083 32.6933 94.603 32.512C95.0083 32.3307 95.4937 32.24 96.059 32.24C96.6563 32.24 97.1843 32.3467 97.643 32.56C98.1123 32.7627 98.4963 33.072 98.795 33.488L97.867 34.416C97.6537 34.1387 97.387 33.9253 97.067 33.776C96.7577 33.6267 96.4057 33.552 96.011 33.552C95.595 33.552 95.275 33.6267 95.051 33.776C94.8377 33.9147 94.731 34.112 94.731 34.368C94.731 34.624 94.827 34.8213 95.019 34.96C95.211 35.0987 95.4617 35.216 95.771 35.312C96.091 35.408 96.4217 35.5093 96.763 35.616C97.1043 35.712 97.4297 35.8453 97.739 36.016C98.0483 36.1867 98.299 36.416 98.491 36.704C98.6937 36.992 98.795 37.3707 98.795 37.84C98.795 38.5547 98.539 39.12 98.027 39.536C97.5257 39.952 96.8483 40.16 95.995 40.16ZM101.647 40V29.216H103.087V40H101.647ZM99.7751 33.712V32.4H104.959V33.712H99.7751ZM113.842 40.16C113.266 40.16 112.743 40.0427 112.274 39.808C111.815 39.5627 111.447 39.2267 111.17 38.8C110.893 38.3733 110.738 37.888 110.706 37.344V35.056C110.738 34.5013 110.893 34.016 111.17 33.6C111.458 33.1733 111.831 32.8427 112.29 32.608C112.759 32.3627 113.277 32.24 113.842 32.24C114.535 32.24 115.159 32.416 115.714 32.768C116.279 33.12 116.722 33.5947 117.042 34.192C117.362 34.7893 117.522 35.4613 117.522 36.208C117.522 36.9547 117.362 37.6267 117.042 38.224C116.722 38.8213 116.279 39.296 115.714 39.648C115.159 39.9893 114.535 40.16 113.842 40.16ZM109.842 43.184V32.4H111.282V34.4L111.01 36.24L111.282 38.096V43.184H109.842ZM113.602 38.8C114.082 38.8 114.503 38.688 114.866 38.464C115.229 38.24 115.517 37.936 115.73 37.552C115.943 37.1573 116.05 36.704 116.05 36.192C116.05 35.6907 115.943 35.2427 115.73 34.848C115.517 34.4533 115.229 34.1493 114.866 33.936C114.503 33.712 114.087 33.6 113.618 33.6C113.138 33.6 112.717 33.712 112.354 33.936C111.991 34.1493 111.709 34.4533 111.506 34.848C111.303 35.2427 111.202 35.696 111.202 36.208C111.202 36.7093 111.298 37.1573 111.49 37.552C111.693 37.936 111.975 38.24 112.338 38.464C112.711 38.688 113.133 38.8 113.602 38.8ZM119.226 40V32.4H120.666V40H119.226ZM120.666 35.664L120.122 35.424C120.122 34.4533 120.346 33.68 120.794 33.104C121.242 32.528 121.888 32.24 122.73 32.24C123.114 32.24 123.461 32.3093 123.77 32.448C124.08 32.576 124.368 32.7947 124.634 33.104L123.69 34.08C123.53 33.9093 123.354 33.7867 123.162 33.712C122.97 33.6373 122.746 33.6 122.49 33.6C121.957 33.6 121.52 33.7707 121.178 34.112C120.837 34.4533 120.666 34.9707 120.666 35.664ZM128.942 40.16C128.196 40.16 127.524 39.984 126.926 39.632C126.329 39.28 125.854 38.8053 125.502 38.208C125.15 37.6 124.974 36.9227 124.974 36.176C124.974 35.44 125.15 34.7787 125.502 34.192C125.854 33.5947 126.329 33.12 126.926 32.768C127.524 32.416 128.196 32.24 128.942 32.24C129.678 32.24 130.345 32.416 130.942 32.768C131.55 33.1093 132.03 33.5787 132.382 34.176C132.734 34.7733 132.91 35.44 132.91 36.176C132.91 36.9227 132.734 37.6 132.382 38.208C132.03 38.8053 131.55 39.28 130.942 39.632C130.345 39.984 129.678 40.16 128.942 40.16ZM128.942 38.768C129.422 38.768 129.849 38.656 130.222 38.432C130.596 38.208 130.889 37.904 131.102 37.52C131.316 37.1253 131.422 36.6773 131.422 36.176C131.422 35.6853 131.31 35.248 131.086 34.864C130.873 34.48 130.58 34.1813 130.206 33.968C129.844 33.744 129.422 33.632 128.942 33.632C128.462 33.632 128.036 33.744 127.662 33.968C127.289 34.1813 126.996 34.48 126.782 34.864C126.569 35.248 126.462 35.6853 126.462 36.176C126.462 36.6773 126.569 37.1253 126.782 37.52C126.996 37.904 127.289 38.208 127.662 38.432C128.036 38.656 128.462 38.768 128.942 38.768ZM138.605 40.16C138.029 40.16 137.506 40.0427 137.037 39.808C136.578 39.5627 136.21 39.2267 135.933 38.8C135.655 38.3733 135.501 37.888 135.469 37.344V35.056C135.501 34.5013 135.655 34.016 135.933 33.6C136.221 33.1733 136.594 32.8427 137.053 32.608C137.522 32.3627 138.039 32.24 138.605 32.24C139.298 32.24 139.922 32.416 140.477 32.768C141.042 33.12 141.485 33.5947 141.805 34.192C142.125 34.7893 142.285 35.4613 142.285 36.208C142.285 36.9547 142.125 37.6267 141.805 38.224C141.485 38.8213 141.042 39.296 140.477 39.648C139.922 39.9893 139.298 40.16 138.605 40.16ZM134.605 40V28.576H136.045V34.256L135.773 36.096L136.045 37.952V40H134.605ZM138.365 38.8C138.845 38.8 139.266 38.688 139.629 38.464C139.991 38.24 140.279 37.936 140.493 37.552C140.706 37.1573 140.813 36.704 140.813 36.192C140.813 35.6907 140.706 35.2427 140.493 34.848C140.279 34.4533 139.991 34.1493 139.629 33.936C139.266 33.712 138.85 33.6 138.381 33.6C137.901 33.6 137.479 33.712 137.117 33.936C136.754 34.1493 136.471 34.4533 136.269 34.848C136.066 35.2427 135.965 35.696 135.965 36.208C135.965 36.7093 136.061 37.1573 136.253 37.552C136.455 37.936 136.738 38.24 137.101 38.464C137.474 38.688 137.895 38.8 138.365 38.8ZM143.989 40V28.576H145.429V40H143.989ZM151.128 40.16C150.371 40.16 149.688 39.9893 149.08 39.648C148.472 39.296 147.992 38.8213 147.64 38.224C147.288 37.6267 147.112 36.9493 147.112 36.192C147.112 35.4453 147.283 34.7733 147.624 34.176C147.976 33.5787 148.445 33.1093 149.032 32.768C149.629 32.416 150.296 32.24 151.032 32.24C151.736 32.24 152.355 32.4 152.888 32.72C153.432 33.04 153.853 33.4827 154.152 34.048C154.461 34.6133 154.616 35.2533 154.616 35.968C154.616 36.0747 154.611 36.192 154.6 36.32C154.589 36.4373 154.568 36.576 154.536 36.736H148.12V35.536H153.768L153.24 36C153.24 35.488 153.149 35.056 152.968 34.704C152.787 34.3413 152.531 34.064 152.2 33.872C151.869 33.6693 151.469 33.568 151 33.568C150.509 33.568 150.077 33.6747 149.704 33.888C149.331 34.1013 149.043 34.4 148.84 34.784C148.637 35.168 148.536 35.6213 148.536 36.144C148.536 36.6773 148.643 37.1467 148.856 37.552C149.069 37.9467 149.373 38.256 149.768 38.48C150.163 38.6933 150.616 38.8 151.128 38.8C151.555 38.8 151.944 38.7253 152.296 38.576C152.659 38.4267 152.968 38.2027 153.224 37.904L154.152 38.848C153.789 39.2747 153.341 39.6 152.808 39.824C152.285 40.048 151.725 40.16 151.128 40.16ZM156.258 40V32.4H157.698V40H156.258ZM161.394 40V35.408C161.394 34.8427 161.218 34.4 160.866 34.08C160.525 33.7493 160.093 33.584 159.57 33.584C159.218 33.584 158.904 33.6587 158.626 33.808C158.349 33.9573 158.125 34.1653 157.954 34.432C157.784 34.6987 157.698 35.0187 157.698 35.392L157.106 35.104C157.106 34.528 157.229 34.0267 157.474 33.6C157.73 33.1733 158.077 32.8427 158.514 32.608C158.952 32.3627 159.442 32.24 159.986 32.24C160.52 32.24 161 32.3573 161.426 32.592C161.864 32.8267 162.205 33.1573 162.45 33.584C162.706 34.0107 162.834 34.5173 162.834 35.104V40H161.394ZM166.53 40V35.408C166.53 34.8427 166.354 34.4 166.002 34.08C165.661 33.7493 165.234 33.584 164.722 33.584C164.37 33.584 164.05 33.6587 163.762 33.808C163.485 33.9573 163.261 34.1653 163.09 34.432C162.92 34.6987 162.834 35.0187 162.834 35.392L162.018 35.104C162.05 34.5173 162.205 34.016 162.482 33.6C162.77 33.1733 163.138 32.8427 163.586 32.608C164.034 32.3627 164.525 32.24 165.058 32.24C165.613 32.24 166.109 32.3573 166.546 32.592C166.984 32.8267 167.33 33.1573 167.586 33.584C167.853 34.0107 167.986 34.5227 167.986 35.12V40H166.53ZM21.056 72V64.4H22.496V72H21.056ZM22.496 67.664L21.952 67.424C21.952 66.4533 22.176 65.68 22.624 65.104C23.072 64.528 23.7173 64.24 24.56 64.24C24.944 64.24 25.2907 64.3093 25.6 64.448C25.9093 64.576 26.1973 64.7947 26.464 65.104L25.52 66.08C25.36 65.9093 25.184 65.7867 24.992 65.712C24.8 65.6373 24.576 65.6 24.32 65.6C23.7867 65.6 23.3493 65.7707 23.008 66.112C22.6667 66.4533 22.496 66.9707 22.496 67.664ZM30.8199 72.16C30.0625 72.16 29.3799 71.9893 28.7719 71.648C28.1639 71.296 27.6839 70.8213 27.3319 70.224C26.9799 69.6267 26.8039 68.9493 26.8039 68.192C26.8039 67.4453 26.9745 66.7733 27.3159 66.176C27.6679 65.5787 28.1372 65.1093 28.7239 64.768C29.3212 64.416 29.9879 64.24 30.7239 64.24C31.4279 64.24 32.0465 64.4 32.5799 64.72C33.1239 65.04 33.5452 65.4827 33.8439 66.048C34.1532 66.6133 34.3079 67.2533 34.3079 67.968C34.3079 68.0747 34.3025 68.192 34.2919 68.32C34.2812 68.4373 34.2599 68.576 34.2279 68.736H27.8119V67.536H33.4599L32.9319 68C32.9319 67.488 32.8412 67.056 32.6599 66.704C32.4785 66.3413 32.2225 66.064 31.8919 65.872C31.5612 65.6693 31.1612 65.568 30.6919 65.568C30.2012 65.568 29.7692 65.6747 29.3959 65.888C29.0225 66.1013 28.7345 66.4 28.5319 66.784C28.3292 67.168 28.2279 67.6213 28.2279 68.144C28.2279 68.6773 28.3345 69.1467 28.5479 69.552C28.7612 69.9467 29.0652 70.256 29.4599 70.48C29.8545 70.6933 30.3079 70.8 30.8199 70.8C31.2465 70.8 31.6359 70.7253 31.9879 70.576C32.3505 70.4267 32.6599 70.2027 32.9159 69.904L33.8439 70.848C33.4812 71.2747 33.0332 71.6 32.4999 71.824C31.9772 72.048 31.4172 72.16 30.8199 72.16ZM39.102 75.344C38.3233 75.344 37.63 75.2 37.022 74.912C36.4247 74.624 35.9447 74.2187 35.582 73.696L36.51 72.752C36.8193 73.1467 37.1873 73.4453 37.614 73.648C38.0407 73.8613 38.5473 73.968 39.134 73.968C39.9127 73.968 40.526 73.76 40.974 73.344C41.4327 72.9387 41.662 72.3893 41.662 71.696V69.808L41.918 68.096L41.662 66.4V64.4H43.102V71.696C43.102 72.4213 42.9313 73.056 42.59 73.6C42.2593 74.144 41.79 74.5707 41.182 74.88C40.5847 75.1893 39.8913 75.344 39.102 75.344ZM39.102 71.872C38.4087 71.872 37.7847 71.7067 37.23 71.376C36.686 71.0453 36.254 70.592 35.934 70.016C35.614 69.4293 35.454 68.7733 35.454 68.048C35.454 67.3227 35.614 66.6773 35.934 66.112C36.254 65.536 36.686 65.0827 37.23 64.752C37.7847 64.4107 38.4087 64.24 39.102 64.24C39.6993 64.24 40.2273 64.3573 40.686 64.592C41.1447 64.8267 41.5073 65.1573 41.774 65.584C42.0513 66 42.2007 66.4907 42.222 67.056V69.072C42.19 69.6267 42.0353 70.1173 41.758 70.544C41.4913 70.96 41.1287 71.2853 40.67 71.52C40.2113 71.7547 39.6887 71.872 39.102 71.872ZM39.39 70.512C39.8593 70.512 40.27 70.4107 40.622 70.208C40.9847 70.0053 41.262 69.7227 41.454 69.36C41.646 68.9867 41.742 68.5547 41.742 68.064C41.742 67.5733 41.6407 67.1467 41.438 66.784C41.246 66.4107 40.974 66.1227 40.622 65.92C40.27 65.7067 39.854 65.6 39.374 65.6C38.894 65.6 38.4727 65.7067 38.11 65.92C37.7473 66.1227 37.4593 66.4107 37.246 66.784C37.0433 67.1467 36.942 67.568 36.942 68.048C36.942 68.528 37.0433 68.9547 37.246 69.328C37.4593 69.7013 37.7473 69.9947 38.11 70.208C38.4833 70.4107 38.91 70.512 39.39 70.512ZM48.5196 72.16C47.8263 72.16 47.197 71.9893 46.6316 71.648C46.0663 71.296 45.6183 70.8213 45.2876 70.224C44.9676 69.6267 44.8076 68.9547 44.8076 68.208C44.8076 67.4613 44.9676 66.7893 45.2876 66.192C45.6183 65.5947 46.061 65.12 46.6156 64.768C47.181 64.416 47.8156 64.24 48.5196 64.24C49.0956 64.24 49.6076 64.3627 50.0556 64.608C50.5143 64.8427 50.8823 65.1733 51.1596 65.6C51.437 66.016 51.5916 66.5013 51.6236 67.056V69.344C51.5916 69.888 51.437 70.3733 51.1596 70.8C50.893 71.2267 50.5303 71.5627 50.0716 71.808C49.6236 72.0427 49.1063 72.16 48.5196 72.16ZM48.7596 70.8C49.4743 70.8 50.0503 70.56 50.4876 70.08C50.925 69.5893 51.1436 68.9653 51.1436 68.208C51.1436 67.6853 51.0423 67.232 50.8396 66.848C50.6476 66.4533 50.3703 66.1493 50.0076 65.936C49.645 65.712 49.2236 65.6 48.7436 65.6C48.2636 65.6 47.837 65.712 47.4636 65.936C47.101 66.16 46.813 66.4693 46.5996 66.864C46.397 67.248 46.2956 67.6907 46.2956 68.192C46.2956 68.704 46.397 69.1573 46.5996 69.552C46.813 69.936 47.1063 70.24 47.4796 70.464C47.853 70.688 48.2796 70.8 48.7596 70.8ZM51.0476 72V69.952L51.3196 68.096L51.0476 66.256V64.4H52.5036V72H51.0476ZM54.6721 72V64.4H56.1121V72H54.6721ZM56.1121 67.664L55.5681 67.424C55.5681 66.4533 55.7921 65.68 56.2401 65.104C56.6881 64.528 57.3335 64.24 58.1761 64.24C58.5601 64.24 58.9068 64.3093 59.2161 64.448C59.5255 64.576 59.8135 64.7947 60.0801 65.104L59.1361 66.08C58.9761 65.9093 58.8001 65.7867 58.6081 65.712C58.4161 65.6373 58.1921 65.6 57.9361 65.6C57.4028 65.6 56.9655 65.7707 56.6241 66.112C56.2828 66.4533 56.1121 66.9707 56.1121 67.664ZM64.132 72.16C63.428 72.16 62.7987 71.9893 62.244 71.648C61.6893 71.296 61.2467 70.8213 60.916 70.224C60.596 69.6267 60.436 68.9547 60.436 68.208C60.436 67.4613 60.596 66.7893 60.916 66.192C61.2467 65.5947 61.6893 65.12 62.244 64.768C62.7987 64.416 63.428 64.24 64.132 64.24C64.6973 64.24 65.2093 64.3627 65.668 64.608C66.1267 64.8427 66.4947 65.1733 66.772 65.6C67.06 66.016 67.22 66.5013 67.252 67.056V69.344C67.22 69.888 67.0653 70.3733 66.788 70.8C66.5107 71.2267 66.1427 71.5627 65.684 71.808C65.2253 72.0427 64.708 72.16 64.132 72.16ZM64.372 70.8C64.852 70.8 65.268 70.688 65.62 70.464C65.9827 70.24 66.2653 69.936 66.468 69.552C66.6707 69.1573 66.772 68.7093 66.772 68.208C66.772 67.6853 66.6653 67.232 66.452 66.848C66.2493 66.464 65.9667 66.16 65.604 65.936C65.252 65.712 64.836 65.6 64.356 65.6C63.876 65.6 63.4547 65.712 63.092 65.936C62.7293 66.16 62.4413 66.4693 62.228 66.864C62.0253 67.248 61.924 67.6907 61.924 68.192C61.924 68.704 62.0253 69.1573 62.228 69.552C62.4413 69.936 62.7293 70.24 63.092 70.464C63.4653 70.688 63.892 70.8 64.372 70.8ZM68.132 72H66.676V69.952L66.948 68.096L66.676 66.256V60.576H68.132V72ZM70.3165 72V64.4H71.7565V72H70.3165ZM71.0365 62.88C70.7698 62.88 70.5512 62.7947 70.3805 62.624C70.2098 62.4427 70.1245 62.2187 70.1245 61.952C70.1245 61.696 70.2098 61.4827 70.3805 61.312C70.5512 61.1307 70.7698 61.04 71.0365 61.04C71.3032 61.04 71.5218 61.1307 71.6925 61.312C71.8632 61.4827 71.9485 61.696 71.9485 61.952C71.9485 62.2187 71.8632 62.4427 71.6925 62.624C71.5218 62.7947 71.3032 62.88 71.0365 62.88ZM79.3266 72V67.568C79.3266 66.992 79.1453 66.5173 78.7826 66.144C78.42 65.7707 77.9506 65.584 77.3746 65.584C76.9906 65.584 76.6493 65.6693 76.3506 65.84C76.052 66.0107 75.8173 66.2453 75.6466 66.544C75.476 66.8427 75.3906 67.184 75.3906 67.568L74.7986 67.232C74.7986 66.656 74.9266 66.144 75.1826 65.696C75.4386 65.248 75.796 64.896 76.2546 64.64C76.7133 64.3733 77.2306 64.24 77.8066 64.24C78.3826 64.24 78.8893 64.384 79.3266 64.672C79.7746 64.96 80.1266 65.3387 80.3826 65.808C80.6386 66.2667 80.7666 66.7573 80.7666 67.28V72H79.3266ZM73.9506 72V64.4H75.3906V72H73.9506ZM85.9403 75.344C85.1616 75.344 84.4683 75.2 83.8603 74.912C83.2629 74.624 82.7829 74.2187 82.4203 73.696L83.3483 72.752C83.6576 73.1467 84.0256 73.4453 84.4523 73.648C84.8789 73.8613 85.3856 73.968 85.9723 73.968C86.7509 73.968 87.3643 73.76 87.8123 73.344C88.2709 72.9387 88.5003 72.3893 88.5003 71.696V69.808L88.7563 68.096L88.5003 66.4V64.4H89.9403V71.696C89.9403 72.4213 89.7696 73.056 89.4283 73.6C89.0976 74.144 88.6283 74.5707 88.0203 74.88C87.4229 75.1893 86.7296 75.344 85.9403 75.344ZM85.9403 71.872C85.2469 71.872 84.6229 71.7067 84.0683 71.376C83.5243 71.0453 83.0923 70.592 82.7723 70.016C82.4523 69.4293 82.2923 68.7733 82.2923 68.048C82.2923 67.3227 82.4523 66.6773 82.7723 66.112C83.0923 65.536 83.5243 65.0827 84.0683 64.752C84.6229 64.4107 85.2469 64.24 85.9403 64.24C86.5376 64.24 87.0656 64.3573 87.5243 64.592C87.9829 64.8267 88.3456 65.1573 88.6123 65.584C88.8896 66 89.0389 66.4907 89.0603 67.056V69.072C89.0283 69.6267 88.8736 70.1173 88.5963 70.544C88.3296 70.96 87.9669 71.2853 87.5083 71.52C87.0496 71.7547 86.5269 71.872 85.9403 71.872ZM86.2283 70.512C86.6976 70.512 87.1083 70.4107 87.4603 70.208C87.8229 70.0053 88.1003 69.7227 88.2923 69.36C88.4843 68.9867 88.5803 68.5547 88.5803 68.064C88.5803 67.5733 88.4789 67.1467 88.2763 66.784C88.0843 66.4107 87.8123 66.1227 87.4603 65.92C87.1083 65.7067 86.6923 65.6 86.2123 65.6C85.7323 65.6 85.3109 65.7067 84.9483 65.92C84.5856 66.1227 84.2976 66.4107 84.0843 66.784C83.8816 67.1467 83.7803 67.568 83.7803 68.048C83.7803 68.528 83.8816 68.9547 84.0843 69.328C84.2976 69.7013 84.5856 69.9947 84.9483 70.208C85.3216 70.4107 85.7483 70.512 86.2283 70.512ZM95.526 72V64.4H96.966V72H95.526ZM100.662 72V67.408C100.662 66.8427 100.486 66.4 100.134 66.08C99.7927 65.7493 99.3607 65.584 98.838 65.584C98.486 65.584 98.1713 65.6587 97.894 65.808C97.6167 65.9573 97.3927 66.1653 97.222 66.432C97.0513 66.6987 96.966 67.0187 96.966 67.392L96.374 67.104C96.374 66.528 96.4967 66.0267 96.742 65.6C96.998 65.1733 97.3447 64.8427 97.782 64.608C98.2193 64.3627 98.71 64.24 99.254 64.24C99.7873 64.24 100.267 64.3573 100.694 64.592C101.131 64.8267 101.473 65.1573 101.718 65.584C101.974 66.0107 102.102 66.5173 102.102 67.104V72H100.662ZM105.798 72V67.408C105.798 66.8427 105.622 66.4 105.27 66.08C104.929 65.7493 104.502 65.584 103.99 65.584C103.638 65.584 103.318 65.6587 103.03 65.808C102.753 65.9573 102.529 66.1653 102.358 66.432C102.187 66.6987 102.102 67.0187 102.102 67.392L101.286 67.104C101.318 66.5173 101.473 66.016 101.75 65.6C102.038 65.1733 102.406 64.8427 102.854 64.608C103.302 64.3627 103.793 64.24 104.326 64.24C104.881 64.24 105.377 64.3573 105.814 64.592C106.251 64.8267 106.598 65.1573 106.854 65.584C107.121 66.0107 107.254 66.5227 107.254 67.12V72H105.798ZM112.758 72.16C112.011 72.16 111.339 71.984 110.741 71.632C110.144 71.28 109.669 70.8053 109.317 70.208C108.965 69.6 108.789 68.9227 108.789 68.176C108.789 67.44 108.965 66.7787 109.317 66.192C109.669 65.5947 110.144 65.12 110.741 64.768C111.339 64.416 112.011 64.24 112.758 64.24C113.494 64.24 114.16 64.416 114.758 64.768C115.366 65.1093 115.846 65.5787 116.198 66.176C116.55 66.7733 116.726 67.44 116.726 68.176C116.726 68.9227 116.55 69.6 116.198 70.208C115.846 70.8053 115.366 71.28 114.758 71.632C114.16 71.984 113.494 72.16 112.758 72.16ZM112.758 70.768C113.238 70.768 113.664 70.656 114.037 70.432C114.411 70.208 114.704 69.904 114.918 69.52C115.131 69.1253 115.238 68.6773 115.238 68.176C115.238 67.6853 115.126 67.248 114.902 66.864C114.688 66.48 114.395 66.1813 114.022 65.968C113.659 65.744 113.238 65.632 112.758 65.632C112.277 65.632 111.851 65.744 111.477 65.968C111.104 66.1813 110.811 66.48 110.597 66.864C110.384 67.248 110.277 67.6853 110.277 68.176C110.277 68.6773 110.384 69.1253 110.597 69.52C110.811 69.904 111.104 70.208 111.477 70.432C111.851 70.656 112.277 70.768 112.758 70.768ZM123.796 72V67.568C123.796 66.992 123.615 66.5173 123.252 66.144C122.889 65.7707 122.42 65.584 121.844 65.584C121.46 65.584 121.119 65.6693 120.82 65.84C120.521 66.0107 120.287 66.2453 120.116 66.544C119.945 66.8427 119.86 67.184 119.86 67.568L119.268 67.232C119.268 66.656 119.396 66.144 119.652 65.696C119.908 65.248 120.265 64.896 120.724 64.64C121.183 64.3733 121.7 64.24 122.276 64.24C122.852 64.24 123.359 64.384 123.796 64.672C124.244 64.96 124.596 65.3387 124.852 65.808C125.108 66.2667 125.236 66.7573 125.236 67.28V72H123.796ZM118.42 72V64.4H119.86V72H118.42ZM130.778 72.16C130.02 72.16 129.338 71.9893 128.73 71.648C128.122 71.296 127.642 70.8213 127.29 70.224C126.938 69.6267 126.762 68.9493 126.762 68.192C126.762 67.4453 126.932 66.7733 127.274 66.176C127.626 65.5787 128.095 65.1093 128.682 64.768C129.279 64.416 129.946 64.24 130.682 64.24C131.386 64.24 132.004 64.4 132.538 64.72C133.082 65.04 133.503 65.4827 133.802 66.048C134.111 66.6133 134.266 67.2533 134.266 67.968C134.266 68.0747 134.26 68.192 134.25 68.32C134.239 68.4373 134.218 68.576 134.186 68.736H127.77V67.536H133.418L132.89 68C132.89 67.488 132.799 67.056 132.618 66.704C132.436 66.3413 132.18 66.064 131.85 65.872C131.519 65.6693 131.119 65.568 130.65 65.568C130.159 65.568 129.727 65.6747 129.354 65.888C128.98 66.1013 128.692 66.4 128.49 66.784C128.287 67.168 128.186 67.6213 128.186 68.144C128.186 68.6773 128.292 69.1467 128.506 69.552C128.719 69.9467 129.023 70.256 129.418 70.48C129.812 70.6933 130.266 70.8 130.778 70.8C131.204 70.8 131.594 70.7253 131.946 70.576C132.308 70.4267 132.618 70.2027 132.874 69.904L133.802 70.848C133.439 71.2747 132.991 71.6 132.458 71.824C131.935 72.048 131.375 72.16 130.778 72.16ZM138.279 72.064L134.983 64.4H136.583L139.031 70.4H138.519L141.095 64.4H142.695L139.143 72.064H138.279ZM136.103 75.184L138.343 70.592L139.143 72.064L137.703 75.184H136.103ZM149.89 72.16C149.463 72.16 149.058 72.1067 148.674 72C148.3 71.8827 147.954 71.7227 147.634 71.52C147.314 71.3067 147.036 71.056 146.802 70.768L147.73 69.84C148.007 70.1813 148.327 70.4373 148.69 70.608C149.052 70.768 149.458 70.848 149.906 70.848C150.354 70.848 150.7 70.7733 150.946 70.624C151.191 70.464 151.314 70.2453 151.314 69.968C151.314 69.6907 151.212 69.4773 151.01 69.328C150.818 69.168 150.567 69.04 150.258 68.944C149.948 68.8373 149.618 68.736 149.266 68.64C148.924 68.5333 148.599 68.4 148.29 68.24C147.98 68.08 147.724 67.8613 147.522 67.584C147.33 67.3067 147.234 66.9387 147.234 66.48C147.234 66.0213 147.346 65.6267 147.57 65.296C147.794 64.9547 148.103 64.6933 148.498 64.512C148.903 64.3307 149.388 64.24 149.954 64.24C150.551 64.24 151.079 64.3467 151.538 64.56C152.007 64.7627 152.391 65.072 152.69 65.488L151.762 66.416C151.548 66.1387 151.282 65.9253 150.962 65.776C150.652 65.6267 150.3 65.552 149.906 65.552C149.49 65.552 149.17 65.6267 148.946 65.776C148.732 65.9147 148.626 66.112 148.626 66.368C148.626 66.624 148.722 66.8213 148.914 66.96C149.106 67.0987 149.356 67.216 149.666 67.312C149.986 67.408 150.316 67.5093 150.658 67.616C150.999 67.712 151.324 67.8453 151.634 68.016C151.943 68.1867 152.194 68.416 152.386 68.704C152.588 68.992 152.69 69.3707 152.69 69.84C152.69 70.5547 152.434 71.12 151.922 71.536C151.42 71.952 150.743 72.16 149.89 72.16ZM157.606 72.16C156.912 72.16 156.283 71.9893 155.718 71.648C155.152 71.296 154.704 70.8213 154.374 70.224C154.054 69.6267 153.894 68.9547 153.894 68.208C153.894 67.4613 154.054 66.7893 154.374 66.192C154.704 65.5947 155.147 65.12 155.702 64.768C156.267 64.416 156.902 64.24 157.606 64.24C158.182 64.24 158.694 64.3627 159.142 64.608C159.6 64.8427 159.968 65.1733 160.246 65.6C160.523 66.016 160.678 66.5013 160.71 67.056V69.344C160.678 69.888 160.523 70.3733 160.246 70.8C159.979 71.2267 159.616 71.5627 159.158 71.808C158.71 72.0427 158.192 72.16 157.606 72.16ZM157.846 70.8C158.56 70.8 159.136 70.56 159.574 70.08C160.011 69.5893 160.23 68.9653 160.23 68.208C160.23 67.6853 160.128 67.232 159.926 66.848C159.734 66.4533 159.456 66.1493 159.094 65.936C158.731 65.712 158.31 65.6 157.83 65.6C157.35 65.6 156.923 65.712 156.55 65.936C156.187 66.16 155.899 66.4693 155.686 66.864C155.483 67.248 155.382 67.6907 155.382 68.192C155.382 68.704 155.483 69.1573 155.686 69.552C155.899 69.936 156.192 70.24 156.566 70.464C156.939 70.688 157.366 70.8 157.846 70.8ZM160.134 72V69.952L160.406 68.096L160.134 66.256V64.4H161.59V72H160.134ZM166.366 72L162.878 64.4H164.478L167.278 70.816H166.35L169.166 64.4H170.702L167.214 72H166.366ZM172.018 72V64.4H173.458V72H172.018ZM172.738 62.88C172.471 62.88 172.253 62.7947 172.082 62.624C171.911 62.4427 171.826 62.2187 171.826 61.952C171.826 61.696 171.911 61.4827 172.082 61.312C172.253 61.1307 172.471 61.04 172.738 61.04C173.005 61.04 173.223 61.1307 173.394 61.312C173.565 61.4827 173.65 61.696 173.65 61.952C173.65 62.2187 173.565 62.4427 173.394 62.624C173.223 62.7947 173.005 62.88 172.738 62.88ZM181.028 72V67.568C181.028 66.992 180.847 66.5173 180.484 66.144C180.122 65.7707 179.652 65.584 179.076 65.584C178.692 65.584 178.351 65.6693 178.052 65.84C177.754 66.0107 177.519 66.2453 177.348 66.544C177.178 66.8427 177.092 67.184 177.092 67.568L176.5 67.232C176.5 66.656 176.628 66.144 176.884 65.696C177.14 65.248 177.498 64.896 177.956 64.64C178.415 64.3733 178.932 64.24 179.508 64.24C180.084 64.24 180.591 64.384 181.028 64.672C181.476 64.96 181.828 65.3387 182.084 65.808C182.34 66.2667 182.468 66.7573 182.468 67.28V72H181.028ZM175.652 72V64.4H177.092V72H175.652ZM187.642 75.344C186.863 75.344 186.17 75.2 185.562 74.912C184.965 74.624 184.485 74.2187 184.122 73.696L185.05 72.752C185.359 73.1467 185.727 73.4453 186.154 73.648C186.581 73.8613 187.087 73.968 187.674 73.968C188.453 73.968 189.066 73.76 189.514 73.344C189.973 72.9387 190.202 72.3893 190.202 71.696V69.808L190.458 68.096L190.202 66.4V64.4H191.642V71.696C191.642 72.4213 191.471 73.056 191.13 73.6C190.799 74.144 190.33 74.5707 189.722 74.88C189.125 75.1893 188.431 75.344 187.642 75.344ZM187.642 71.872C186.949 71.872 186.325 71.7067 185.77 71.376C185.226 71.0453 184.794 70.592 184.474 70.016C184.154 69.4293 183.994 68.7733 183.994 68.048C183.994 67.3227 184.154 66.6773 184.474 66.112C184.794 65.536 185.226 65.0827 185.77 64.752C186.325 64.4107 186.949 64.24 187.642 64.24C188.239 64.24 188.767 64.3573 189.226 64.592C189.685 64.8267 190.047 65.1573 190.314 65.584C190.591 66 190.741 66.4907 190.762 67.056V69.072C190.73 69.6267 190.575 70.1173 190.298 70.544C190.031 70.96 189.669 71.2853 189.21 71.52C188.751 71.7547 188.229 71.872 187.642 71.872ZM187.93 70.512C188.399 70.512 188.81 70.4107 189.162 70.208C189.525 70.0053 189.802 69.7227 189.994 69.36C190.186 68.9867 190.282 68.5547 190.282 68.064C190.282 67.5733 190.181 67.1467 189.978 66.784C189.786 66.4107 189.514 66.1227 189.162 65.92C188.81 65.7067 188.394 65.6 187.914 65.6C187.434 65.6 187.013 65.7067 186.65 65.92C186.287 66.1227 185.999 66.4107 185.786 66.784C185.583 67.1467 185.482 67.568 185.482 68.048C185.482 68.528 185.583 68.9547 185.786 69.328C185.999 69.7013 186.287 69.9947 186.65 70.208C187.023 70.4107 187.45 70.512 187.93 70.512ZM24.288 104.16C23.5947 104.16 22.9653 103.989 22.4 103.648C21.8347 103.296 21.3867 102.821 21.056 102.224C20.736 101.627 20.576 100.955 20.576 100.208C20.576 99.4613 20.736 98.7893 21.056 98.192C21.3867 97.5947 21.8293 97.12 22.384 96.768C22.9493 96.416 23.584 96.24 24.288 96.24C24.864 96.24 25.376 96.3627 25.824 96.608C26.2827 96.8427 26.6507 97.1733 26.928 97.6C27.2053 98.016 27.36 98.5013 27.392 99.056V101.344C27.36 101.888 27.2053 102.373 26.928 102.8C26.6613 103.227 26.2987 103.563 25.84 103.808C25.392 104.043 24.8747 104.16 24.288 104.16ZM24.528 102.8C25.2427 102.8 25.8187 102.56 26.256 102.08C26.6933 101.589 26.912 100.965 26.912 100.208C26.912 99.6853 26.8107 99.232 26.608 98.848C26.416 98.4533 26.1387 98.1493 25.776 97.936C25.4133 97.712 24.992 97.6 24.512 97.6C24.032 97.6 23.6053 97.712 23.232 97.936C22.8693 98.16 22.5813 98.4693 22.368 98.864C22.1653 99.248 22.064 99.6907 22.064 100.192C22.064 100.704 22.1653 101.157 22.368 101.552C22.5813 101.936 22.8747 102.24 23.248 102.464C23.6213 102.688 24.048 102.8 24.528 102.8ZM26.816 104V101.952L27.088 100.096L26.816 98.256V96.4H28.272V104H26.816ZM30.4405 104V96.4H31.8805V104H30.4405ZM31.8805 99.664L31.3365 99.424C31.3365 98.4533 31.5605 97.68 32.0085 97.104C32.4565 96.528 33.1018 96.24 33.9445 96.24C34.3285 96.24 34.6752 96.3093 34.9845 96.448C35.2938 96.576 35.5818 96.7947 35.8485 97.104L34.9045 98.08C34.7445 97.9093 34.5685 97.7867 34.3765 97.712C34.1845 97.6373 33.9605 97.6 33.7045 97.6C33.1712 97.6 32.7338 97.7707 32.3925 98.112C32.0512 98.4533 31.8805 98.9707 31.8805 99.664ZM40.2044 104.16C39.447 104.16 38.7644 103.989 38.1564 103.648C37.5484 103.296 37.0684 102.821 36.7164 102.224C36.3644 101.627 36.1884 100.949 36.1884 100.192C36.1884 99.4453 36.359 98.7733 36.7004 98.176C37.0524 97.5787 37.5217 97.1093 38.1084 96.768C38.7057 96.416 39.3724 96.24 40.1084 96.24C40.8124 96.24 41.431 96.4 41.9644 96.72C42.5084 97.04 42.9297 97.4827 43.2284 98.048C43.5377 98.6133 43.6924 99.2533 43.6924 99.968C43.6924 100.075 43.687 100.192 43.6764 100.32C43.6657 100.437 43.6444 100.576 43.6124 100.736H37.1964V99.536H42.8444L42.3164 100C42.3164 99.488 42.2257 99.056 42.0444 98.704C41.863 98.3413 41.607 98.064 41.2764 97.872C40.9457 97.6693 40.5457 97.568 40.0764 97.568C39.5857 97.568 39.1537 97.6747 38.7804 97.888C38.407 98.1013 38.119 98.4 37.9164 98.784C37.7137 99.168 37.6124 99.6213 37.6124 100.144C37.6124 100.677 37.719 101.147 37.9324 101.552C38.1457 101.947 38.4497 102.256 38.8444 102.48C39.239 102.693 39.6924 102.8 40.2044 102.8C40.631 102.8 41.0204 102.725 41.3724 102.576C41.735 102.427 42.0444 102.203 42.3004 101.904L43.2284 102.848C42.8657 103.275 42.4177 103.6 41.8844 103.824C41.3617 104.048 40.8017 104.16 40.2044 104.16ZM48.7506 104V96.4H50.1906V104H48.7506ZM49.4706 94.88C49.204 94.88 48.9853 94.7947 48.8146 94.624C48.644 94.4427 48.5586 94.2187 48.5586 93.952C48.5586 93.696 48.644 93.4827 48.8146 93.312C48.9853 93.1307 49.204 93.04 49.4706 93.04C49.7373 93.04 49.956 93.1307 50.1266 93.312C50.2973 93.4827 50.3826 93.696 50.3826 93.952C50.3826 94.2187 50.2973 94.4427 50.1266 94.624C49.956 94.7947 49.7373 94.88 49.4706 94.88ZM52.3848 104V96.4H53.8248V104H52.3848ZM57.5208 104V99.408C57.5208 98.8427 57.3448 98.4 56.9928 98.08C56.6514 97.7493 56.2194 97.584 55.6968 97.584C55.3448 97.584 55.0301 97.6587 54.7528 97.808C54.4754 97.9573 54.2514 98.1653 54.0808 98.432C53.9101 98.6987 53.8248 99.0187 53.8248 99.392L53.2328 99.104C53.2328 98.528 53.3554 98.0267 53.6008 97.6C53.8568 97.1733 54.2034 96.8427 54.6408 96.608C55.0781 96.3627 55.5688 96.24 56.1128 96.24C56.6461 96.24 57.1261 96.3573 57.5528 96.592C57.9901 96.8267 58.3314 97.1573 58.5768 97.584C58.8328 98.0107 58.9608 98.5173 58.9608 99.104V104H57.5208ZM62.6568 104V99.408C62.6568 98.8427 62.4808 98.4 62.1288 98.08C61.7874 97.7493 61.3608 97.584 60.8488 97.584C60.4968 97.584 60.1768 97.6587 59.8888 97.808C59.6114 97.9573 59.3874 98.1653 59.2168 98.432C59.0461 98.6987 58.9608 99.0187 58.9608 99.392L58.1448 99.104C58.1768 98.5173 58.3314 98.016 58.6088 97.6C58.8968 97.1733 59.2648 96.8427 59.7128 96.608C60.1608 96.3627 60.6514 96.24 61.1848 96.24C61.7394 96.24 62.2354 96.3573 62.6728 96.592C63.1101 96.8267 63.4568 97.1573 63.7128 97.584C63.9794 98.0107 64.1128 98.5227 64.1128 99.12V104H62.6568ZM70.1442 104.16C69.5682 104.16 69.0456 104.043 68.5762 103.808C68.1176 103.563 67.7496 103.227 67.4722 102.8C67.1949 102.373 67.0402 101.888 67.0082 101.344V99.056C67.0402 98.5013 67.1949 98.016 67.4722 97.6C67.7602 97.1733 68.1336 96.8427 68.5922 96.608C69.0616 96.3627 69.5789 96.24 70.1442 96.24C70.8376 96.24 71.4616 96.416 72.0162 96.768C72.5816 97.12 73.0242 97.5947 73.3442 98.192C73.6642 98.7893 73.8242 99.4613 73.8242 100.208C73.8242 100.955 73.6642 101.627 73.3442 102.224C73.0242 102.821 72.5816 103.296 72.0162 103.648C71.4616 103.989 70.8376 104.16 70.1442 104.16ZM66.1442 107.184V96.4H67.5842V98.4L67.3122 100.24L67.5842 102.096V107.184H66.1442ZM69.9042 102.8C70.3842 102.8 70.8056 102.688 71.1682 102.464C71.5309 102.24 71.8189 101.936 72.0322 101.552C72.2456 101.157 72.3522 100.704 72.3522 100.192C72.3522 99.6907 72.2456 99.2427 72.0322 98.848C71.8189 98.4533 71.5309 98.1493 71.1682 97.936C70.8056 97.712 70.3896 97.6 69.9202 97.6C69.4402 97.6 69.0189 97.712 68.6562 97.936C68.2936 98.1493 68.0109 98.4533 67.8082 98.848C67.6056 99.2427 67.5042 99.696 67.5042 100.208C67.5042 100.709 67.6002 101.157 67.7922 101.552C67.9949 101.936 68.2776 102.24 68.6402 102.464C69.0136 102.688 69.4349 102.8 69.9042 102.8ZM78.5848 104.16C77.9661 104.16 77.4061 104.021 76.9048 103.744C76.4141 103.456 76.0301 103.061 75.7528 102.56C75.4754 102.059 75.3368 101.477 75.3368 100.816V96.4H76.7768V100.752C76.7768 101.168 76.8461 101.531 76.9848 101.84C77.1341 102.139 77.3474 102.368 77.6248 102.528C77.9021 102.688 78.2274 102.768 78.6008 102.768C79.1661 102.768 79.6088 102.592 79.9288 102.24C80.2488 101.877 80.4088 101.381 80.4088 100.752V96.4H81.8488V100.816C81.8488 101.477 81.7101 102.059 81.4328 102.56C81.1554 103.061 80.7714 103.456 80.2808 103.744C79.8008 104.021 79.2354 104.16 78.5848 104.16ZM83.8508 104V92.576H85.2908V104H83.8508ZM89.8856 104.16C89.459 104.16 89.0536 104.107 88.6696 104C88.2963 103.883 87.9496 103.723 87.6296 103.52C87.3096 103.307 87.0323 103.056 86.7976 102.768L87.7256 101.84C88.003 102.181 88.323 102.437 88.6856 102.608C89.0483 102.768 89.4536 102.848 89.9016 102.848C90.3496 102.848 90.6963 102.773 90.9416 102.624C91.187 102.464 91.3096 102.245 91.3096 101.968C91.3096 101.691 91.2083 101.477 91.0056 101.328C90.8136 101.168 90.563 101.04 90.2536 100.944C89.9443 100.837 89.6136 100.736 89.2616 100.64C88.9203 100.533 88.595 100.4 88.2856 100.24C87.9763 100.08 87.7203 99.8613 87.5176 99.584C87.3256 99.3067 87.2296 98.9387 87.2296 98.48C87.2296 98.0213 87.3416 97.6267 87.5656 97.296C87.7896 96.9547 88.099 96.6933 88.4936 96.512C88.899 96.3307 89.3843 96.24 89.9496 96.24C90.547 96.24 91.075 96.3467 91.5336 96.56C92.003 96.7627 92.387 97.072 92.6856 97.488L91.7576 98.416C91.5443 98.1387 91.2776 97.9253 90.9576 97.776C90.6483 97.6267 90.2963 97.552 89.9016 97.552C89.4856 97.552 89.1656 97.6267 88.9416 97.776C88.7283 97.9147 88.6216 98.112 88.6216 98.368C88.6216 98.624 88.7176 98.8213 88.9096 98.96C89.1016 99.0987 89.3523 99.216 89.6616 99.312C89.9816 99.408 90.3123 99.5093 90.6536 99.616C90.995 99.712 91.3203 99.8453 91.6296 100.016C91.939 100.187 92.1896 100.416 92.3816 100.704C92.5843 100.992 92.6856 101.371 92.6856 101.84C92.6856 102.555 92.4296 103.12 91.9176 103.536C91.4163 103.952 90.739 104.16 89.8856 104.16ZM97.8898 104.16C97.1324 104.16 96.4498 103.989 95.8418 103.648C95.2338 103.296 94.7538 102.821 94.4018 102.224C94.0498 101.627 93.8738 100.949 93.8738 100.192C93.8738 99.4453 94.0444 98.7733 94.3858 98.176C94.7378 97.5787 95.2071 97.1093 95.7938 96.768C96.3911 96.416 97.0578 96.24 97.7938 96.24C98.4978 96.24 99.1164 96.4 99.6498 96.72C100.194 97.04 100.615 97.4827 100.914 98.048C101.223 98.6133 101.378 99.2533 101.378 99.968C101.378 100.075 101.372 100.192 101.362 100.32C101.351 100.437 101.33 100.576 101.298 100.736H94.8818V99.536H100.53L100.002 100C100.002 99.488 99.9111 99.056 99.7298 98.704C99.5484 98.3413 99.2924 98.064 98.9618 97.872C98.6311 97.6693 98.2311 97.568 97.7618 97.568C97.2711 97.568 96.8391 97.6747 96.4658 97.888C96.0924 98.1013 95.8044 98.4 95.6018 98.784C95.3991 99.168 95.2978 99.6213 95.2978 100.144C95.2978 100.677 95.4044 101.147 95.6178 101.552C95.8311 101.947 96.1351 102.256 96.5298 102.48C96.9244 102.693 97.3778 102.8 97.8898 102.8C98.3164 102.8 98.7058 102.725 99.0578 102.576C99.4204 102.427 99.7298 102.203 99.9858 101.904L100.914 102.848C100.551 103.275 100.103 103.6 99.5698 103.824C99.0471 104.048 98.4871 104.16 97.8898 104.16ZM110.42 104.16C109.844 104.16 109.321 104.043 108.852 103.808C108.393 103.563 108.025 103.227 107.748 102.8C107.471 102.373 107.316 101.888 107.284 101.344V99.056C107.316 98.5013 107.471 98.016 107.748 97.6C108.036 97.1733 108.409 96.8427 108.868 96.608C109.337 96.3627 109.855 96.24 110.42 96.24C111.113 96.24 111.737 96.416 112.292 96.768C112.857 97.12 113.3 97.5947 113.62 98.192C113.94 98.7893 114.1 99.4613 114.1 100.208C114.1 100.955 113.94 101.627 113.62 102.224C113.3 102.821 112.857 103.296 112.292 103.648C111.737 103.989 111.113 104.16 110.42 104.16ZM106.42 107.184V96.4H107.86V98.4L107.588 100.24L107.86 102.096V107.184H106.42ZM110.18 102.8C110.66 102.8 111.081 102.688 111.444 102.464C111.807 102.24 112.095 101.936 112.308 101.552C112.521 101.157 112.628 100.704 112.628 100.192C112.628 99.6907 112.521 99.2427 112.308 98.848C112.095 98.4533 111.807 98.1493 111.444 97.936C111.081 97.712 110.665 97.6 110.196 97.6C109.716 97.6 109.295 97.712 108.932 97.936C108.569 98.1493 108.287 98.4533 108.084 98.848C107.881 99.2427 107.78 99.696 107.78 100.208C107.78 100.709 107.876 101.157 108.068 101.552C108.271 101.936 108.553 102.24 108.916 102.464C109.289 102.688 109.711 102.8 110.18 102.8ZM118.86 104.16C118.242 104.16 117.682 104.021 117.18 103.744C116.69 103.456 116.306 103.061 116.028 102.56C115.751 102.059 115.612 101.477 115.612 100.816V96.4H117.052V100.752C117.052 101.168 117.122 101.531 117.26 101.84C117.41 102.139 117.623 102.368 117.9 102.528C118.178 102.688 118.503 102.768 118.876 102.768C119.442 102.768 119.884 102.592 120.204 102.24C120.524 101.877 120.684 101.381 120.684 100.752V96.4H122.124V100.816C122.124 101.477 121.986 102.059 121.708 102.56C121.431 103.061 121.047 103.456 120.556 103.744C120.076 104.021 119.511 104.16 118.86 104.16ZM124.127 104V96.4H125.567V104H124.127ZM125.567 99.664L125.023 99.424C125.023 98.4533 125.247 97.68 125.695 97.104C126.143 96.528 126.788 96.24 127.631 96.24C128.015 96.24 128.361 96.3093 128.671 96.448C128.98 96.576 129.268 96.7947 129.535 97.104L128.591 98.08C128.431 97.9093 128.255 97.7867 128.063 97.712C127.871 97.6373 127.647 97.6 127.391 97.6C126.857 97.6 126.42 97.7707 126.079 98.112C125.737 98.4533 125.567 98.9707 125.567 99.664ZM133.842 104.16C133.096 104.16 132.418 103.984 131.81 103.632C131.213 103.28 130.738 102.805 130.386 102.208C130.045 101.6 129.874 100.928 129.874 100.192C129.874 99.4453 130.045 98.7733 130.386 98.176C130.738 97.5787 131.213 97.1093 131.81 96.768C132.418 96.416 133.096 96.24 133.842 96.24C134.429 96.24 134.973 96.352 135.474 96.576C135.976 96.7893 136.408 97.104 136.77 97.52L135.81 98.48C135.576 98.2027 135.288 97.9947 134.946 97.856C134.616 97.7067 134.248 97.632 133.842 97.632C133.362 97.632 132.936 97.744 132.562 97.968C132.189 98.1813 131.896 98.48 131.682 98.864C131.469 99.248 131.362 99.6907 131.362 100.192C131.362 100.693 131.469 101.136 131.682 101.52C131.896 101.904 132.189 102.208 132.562 102.432C132.936 102.656 133.362 102.768 133.842 102.768C134.248 102.768 134.616 102.699 134.946 102.56C135.288 102.411 135.581 102.197 135.826 101.92L136.77 102.88C136.418 103.285 135.986 103.6 135.474 103.824C134.973 104.048 134.429 104.16 133.842 104.16ZM143.647 104V99.568C143.647 98.992 143.465 98.5173 143.103 98.144C142.74 97.7707 142.271 97.584 141.695 97.584C141.311 97.584 140.969 97.6693 140.671 97.84C140.372 98.0107 140.137 98.2453 139.967 98.544C139.796 98.8427 139.711 99.184 139.711 99.568L139.119 99.232C139.119 98.656 139.247 98.144 139.503 97.696C139.759 97.248 140.116 96.896 140.575 96.64C141.033 96.3733 141.551 96.24 142.127 96.24C142.703 96.24 143.209 96.368 143.647 96.624C144.095 96.88 144.447 97.2373 144.703 97.696C144.959 98.1547 145.087 98.6827 145.087 99.28V104H143.647ZM138.271 104V92.576H139.711V104H138.271ZM150.34 104.16C149.647 104.16 149.017 103.989 148.452 103.648C147.887 103.296 147.439 102.821 147.108 102.224C146.788 101.627 146.628 100.955 146.628 100.208C146.628 99.4613 146.788 98.7893 147.108 98.192C147.439 97.5947 147.881 97.12 148.436 96.768C149.001 96.416 149.636 96.24 150.34 96.24C150.916 96.24 151.428 96.3627 151.876 96.608C152.335 96.8427 152.703 97.1733 152.98 97.6C153.257 98.016 153.412 98.5013 153.444 99.056V101.344C153.412 101.888 153.257 102.373 152.98 102.8C152.713 103.227 152.351 103.563 151.892 103.808C151.444 104.043 150.927 104.16 150.34 104.16ZM150.58 102.8C151.295 102.8 151.871 102.56 152.308 102.08C152.745 101.589 152.964 100.965 152.964 100.208C152.964 99.6853 152.863 99.232 152.66 98.848C152.468 98.4533 152.191 98.1493 151.828 97.936C151.465 97.712 151.044 97.6 150.564 97.6C150.084 97.6 149.657 97.712 149.284 97.936C148.921 98.16 148.633 98.4693 148.42 98.864C148.217 99.248 148.116 99.6907 148.116 100.192C148.116 100.704 148.217 101.157 148.42 101.552C148.633 101.936 148.927 102.24 149.3 102.464C149.673 102.688 150.1 102.8 150.58 102.8ZM152.868 104V101.952L153.14 100.096L152.868 98.256V96.4H154.324V104H152.868ZM158.909 104.16C158.482 104.16 158.077 104.107 157.693 104C157.319 103.883 156.973 103.723 156.653 103.52C156.333 103.307 156.055 103.056 155.821 102.768L156.749 101.84C157.026 102.181 157.346 102.437 157.709 102.608C158.071 102.768 158.477 102.848 158.925 102.848C159.373 102.848 159.719 102.773 159.965 102.624C160.21 102.464 160.333 102.245 160.333 101.968C160.333 101.691 160.231 101.477 160.029 101.328C159.837 101.168 159.586 101.04 159.277 100.944C158.967 100.837 158.637 100.736 158.285 100.64C157.943 100.533 157.618 100.4 157.309 100.24C156.999 100.08 156.743 99.8613 156.541 99.584C156.349 99.3067 156.253 98.9387 156.253 98.48C156.253 98.0213 156.365 97.6267 156.589 97.296C156.813 96.9547 157.122 96.6933 157.517 96.512C157.922 96.3307 158.407 96.24 158.973 96.24C159.57 96.24 160.098 96.3467 160.557 96.56C161.026 96.7627 161.41 97.072 161.709 97.488L160.781 98.416C160.567 98.1387 160.301 97.9253 159.981 97.776C159.671 97.6267 159.319 97.552 158.925 97.552C158.509 97.552 158.189 97.6267 157.965 97.776C157.751 97.9147 157.645 98.112 157.645 98.368C157.645 98.624 157.741 98.8213 157.933 98.96C158.125 99.0987 158.375 99.216 158.685 99.312C159.005 99.408 159.335 99.5093 159.677 99.616C160.018 99.712 160.343 99.8453 160.653 100.016C160.962 100.187 161.213 100.416 161.405 100.704C161.607 100.992 161.709 101.371 161.709 101.84C161.709 102.555 161.453 103.12 160.941 103.536C160.439 103.952 159.762 104.16 158.909 104.16ZM166.913 104.16C166.155 104.16 165.473 103.989 164.865 103.648C164.257 103.296 163.777 102.821 163.425 102.224C163.073 101.627 162.897 100.949 162.897 100.192C162.897 99.4453 163.067 98.7733 163.409 98.176C163.761 97.5787 164.23 97.1093 164.817 96.768C165.414 96.416 166.081 96.24 166.817 96.24C167.521 96.24 168.139 96.4 168.673 96.72C169.217 97.04 169.638 97.4827 169.937 98.048C170.246 98.6133 170.401 99.2533 170.401 99.968C170.401 100.075 170.395 100.192 170.385 100.32C170.374 100.437 170.353 100.576 170.321 100.736H163.905V99.536H169.553L169.025 100C169.025 99.488 168.934 99.056 168.753 98.704C168.571 98.3413 168.315 98.064 167.985 97.872C167.654 97.6693 167.254 97.568 166.785 97.568C166.294 97.568 165.862 97.6747 165.489 97.888C165.115 98.1013 164.827 98.4 164.625 98.784C164.422 99.168 164.321 99.6213 164.321 100.144C164.321 100.677 164.427 101.147 164.641 101.552C164.854 101.947 165.158 102.256 165.553 102.48C165.947 102.693 166.401 102.8 166.913 102.8C167.339 102.8 167.729 102.725 168.081 102.576C168.443 102.427 168.753 102.203 169.009 101.904L169.937 102.848C169.574 103.275 169.126 103.6 168.593 103.824C168.07 104.048 167.51 104.16 166.913 104.16ZM174.459 104.16C174.032 104.16 173.627 104.107 173.243 104C172.87 103.883 172.523 103.723 172.203 103.52C171.883 103.307 171.606 103.056 171.371 102.768L172.299 101.84C172.576 102.181 172.896 102.437 173.259 102.608C173.622 102.768 174.027 102.848 174.475 102.848C174.923 102.848 175.27 102.773 175.515 102.624C175.76 102.464 175.883 102.245 175.883 101.968C175.883 101.691 175.782 101.477 175.579 101.328C175.387 101.168 175.136 101.04 174.827 100.944C174.518 100.837 174.187 100.736 173.835 100.64C173.494 100.533 173.168 100.4 172.859 100.24C172.55 100.08 172.294 99.8613 172.091 99.584C171.899 99.3067 171.803 98.9387 171.803 98.48C171.803 98.0213 171.915 97.6267 172.139 97.296C172.363 96.9547 172.672 96.6933 173.067 96.512C173.472 96.3307 173.958 96.24 174.523 96.24C175.12 96.24 175.648 96.3467 176.107 96.56C176.576 96.7627 176.96 97.072 177.259 97.488L176.331 98.416C176.118 98.1387 175.851 97.9253 175.531 97.776C175.222 97.6267 174.87 97.552 174.475 97.552C174.059 97.552 173.739 97.6267 173.515 97.776C173.302 97.9147 173.195 98.112 173.195 98.368C173.195 98.624 173.291 98.8213 173.483 98.96C173.675 99.0987 173.926 99.216 174.235 99.312C174.555 99.408 174.886 99.5093 175.227 99.616C175.568 99.712 175.894 99.8453 176.203 100.016C176.512 100.187 176.763 100.416 176.955 100.704C177.158 100.992 177.259 101.371 177.259 101.84C177.259 102.555 177.003 103.12 176.491 103.536C175.99 103.952 175.312 104.16 174.459 104.16ZM180.207 104.16C179.908 104.16 179.658 104.059 179.455 103.856C179.263 103.643 179.167 103.392 179.167 103.104C179.167 102.805 179.263 102.56 179.455 102.368C179.658 102.165 179.908 102.064 180.207 102.064C180.506 102.064 180.751 102.165 180.943 102.368C181.146 102.56 181.247 102.805 181.247 103.104C181.247 103.392 181.146 103.643 180.943 103.856C180.751 104.059 180.506 104.16 180.207 104.16ZM184.972 96.432L185.964 94.528L186.476 94.4C186.422 94.5173 186.353 94.6133 186.268 94.688C186.193 94.7627 186.097 94.8 185.98 94.8C185.756 94.8 185.548 94.7093 185.356 94.528C185.174 94.336 185.084 94.1013 185.084 93.824C185.084 93.5253 185.185 93.2693 185.388 93.056C185.601 92.8427 185.857 92.736 186.156 92.736C186.433 92.736 186.678 92.8427 186.892 93.056C187.105 93.2693 187.212 93.5253 187.212 93.824C187.212 93.9413 187.185 94.0853 187.132 94.256C187.089 94.416 186.998 94.6293 186.86 94.896L185.804 96.88L184.972 96.432ZM182.028 96.432L183.02 94.528L183.532 94.4C183.478 94.5173 183.409 94.6133 183.324 94.688C183.249 94.7627 183.153 94.8 183.036 94.8C182.812 94.8 182.604 94.7093 182.412 94.528C182.23 94.336 182.14 94.1013 182.14 93.824C182.14 93.5253 182.241 93.2693 182.444 93.056C182.657 92.8427 182.913 92.736 183.212 92.736C183.489 92.736 183.734 92.8427 183.948 93.056C184.161 93.2693 184.268 93.5253 184.268 93.824C184.268 93.9413 184.241 94.0853 184.188 94.256C184.145 94.416 184.054 94.6293 183.916 94.896L182.86 96.88L182.028 96.432Z" fill="#0F0F0F"/>
<path d="M57.691 149.215C56.1186 150.081 54.2894 148.597 54.8127 146.88L66.6018 108.191C67.0155 106.834 68.6725 106.327 69.7748 107.221L93.4093 126.391C94.5117 127.285 94.3578 129.011 93.1146 129.696L57.691 149.215Z" fill="#F3FFF6"/>
</g>
<defs>
<filter id="filter0_d_318_960" x="0" y="0" width="231" height="155.469" filterUnits="userSpaceOnUse" color-interpolation-filters="sRGB">
<feFlood flood-opacity="0" result="BackgroundImageFix"/>
<feColorMatrix in="SourceAlpha" type="matrix" values="0 0 0 0 0 0 0 0 0 0 0 0 0 0 0 0 0 0 127 0" result="hardAlpha"/>
<feOffset dy="2"/>
<feGaussianBlur stdDeviation="2"/>
<feComposite in2="hardAlpha" operator="out"/>
<feColorMatrix type="matrix" values="0 0 0 0 0 0 0 0 0 0 0 0 0 0 0 0 0 0 0.25 0"/>
<feBlend mode="normal" in2="BackgroundImageFix" result="effect1_dropShadow_318_960"/>
<feBlend mode="normal" in="SourceGraphic" in2="effect1_dropShadow_318_960" result="shape"/>
</filter>
</defs>
</svg>
