<svg width="210" height="208" viewBox="0 0 210 208" fill="none" xmlns="http://www.w3.org/2000/svg">
<path d="M50.3467 41.5608C16.424 61.701 15.5889 75.1888 13.3046 100.438C11.0203 125.687 50.1618 170.255 100.405 185.634C138.617 197.33 178.302 178.434 187.363 156.313C192.084 144.789 192.568 144.874 190.717 123.834C188.866 102.794 203.584 93.4204 182.721 62.9897C162.7 33.7871 153.285 13.1707 129.34 13.1683C74.7518 13.1627 87.7794 19.3367 50.3467 41.5608Z" fill="#F3FFF6" stroke="#0F0F0F" stroke-width="4"/>
<path d="M74.0396 156V146.158H75.3836L79.3736 152.542H78.6036L82.5796 146.158H83.9236V156H82.0336V149.42L82.3976 149.532L79.6256 153.984H78.3376L75.5656 149.532L75.9436 149.42V156H74.0396ZM86.3842 156V146.158H88.2882V156H86.3842ZM90.758 156V146.158H92.088L92.662 148.062V156H90.758ZM97.562 156L91.724 148.44L92.088 146.158L97.926 153.718L97.562 156ZM97.562 156L97.016 154.152V146.158H98.934V156H97.562ZM103.816 156V146.368H105.734V156H103.816ZM100.68 147.852V146.158H108.87V147.852H100.68ZM118.164 156.14C117.446 156.14 116.778 156.014 116.162 155.762C115.546 155.501 115.005 155.141 114.538 154.684C114.081 154.217 113.726 153.676 113.474 153.06C113.232 152.444 113.11 151.781 113.11 151.072C113.11 150.363 113.232 149.7 113.474 149.084C113.726 148.468 114.081 147.931 114.538 147.474C115.005 147.017 115.542 146.657 116.148 146.396C116.764 146.135 117.436 146.004 118.164 146.004C118.948 146.004 119.639 146.135 120.236 146.396C120.834 146.648 121.361 146.998 121.818 147.446L120.53 148.734C120.26 148.435 119.928 148.202 119.536 148.034C119.144 147.866 118.687 147.782 118.164 147.782C117.707 147.782 117.287 147.861 116.904 148.02C116.531 148.169 116.204 148.393 115.924 148.692C115.644 148.981 115.43 149.331 115.28 149.742C115.131 150.143 115.056 150.587 115.056 151.072C115.056 151.567 115.131 152.015 115.28 152.416C115.43 152.817 115.644 153.167 115.924 153.466C116.204 153.755 116.531 153.979 116.904 154.138C117.287 154.297 117.707 154.376 118.164 154.376C118.715 154.376 119.186 154.292 119.578 154.124C119.98 153.956 120.316 153.718 120.586 153.41L121.874 154.698C121.417 155.155 120.885 155.51 120.278 155.762C119.672 156.014 118.967 156.14 118.164 156.14ZM125.048 151.884V150.4H127.33C127.797 150.4 128.156 150.283 128.408 150.05C128.669 149.807 128.8 149.476 128.8 149.056C128.8 148.673 128.669 148.356 128.408 148.104C128.156 147.843 127.797 147.712 127.33 147.712H125.048V146.158H127.498C128.133 146.158 128.688 146.284 129.164 146.536C129.649 146.779 130.023 147.115 130.284 147.544C130.555 147.973 130.69 148.468 130.69 149.028C130.69 149.607 130.555 150.111 130.284 150.54C130.023 150.96 129.649 151.291 129.164 151.534C128.679 151.767 128.114 151.884 127.47 151.884H125.048ZM123.648 156V146.158H125.552V156H123.648ZM129.024 156L125.776 151.744L127.526 151.198L131.334 156H129.024ZM132.862 156V146.158H134.766V156H132.862ZM134.262 156V154.32H139.708V156H134.262ZM134.262 151.786V150.162H139.218V151.786H134.262ZM134.262 147.838V146.158H139.638V147.838H134.262ZM141.005 156L144.967 146.158H146.521L150.469 156H148.439L145.387 147.922H146.087L142.993 156H141.005ZM143.105 154.166V152.57H148.397V154.166H143.105ZM152.082 156V146.158H153.426L157.416 152.542H156.646L160.622 146.158H161.966V156H160.076V149.42L160.44 149.532L157.668 153.984H156.38L153.608 149.532L153.986 149.42V156H152.082Z" fill="#0F0F0F"/>
</svg>
