<svg width="61" height="20" viewBox="0 0 61 20" fill="none" xmlns="http://www.w3.org/2000/svg">
<path d="M10.104 11.872H4.68C4.104 13.264 3.432 15.04 3.096 15.808C3 16.024 2.808 16.144 2.448 16.144C1.896 16.144 0.84 16 0.336 15.832V15.736C1.584 12.808 5.328 3.904 6.24 1.72L6.024 1.216C6.912 1.024 8.28 0.927999 8.544 0.927999C8.784 0.927999 8.976 1.072 9.12 1.36C10.224 4 12.048 8.704 12.864 10.792C13.872 13.264 14.448 14.752 14.928 15.76L14.904 15.856C14.376 16.048 12.768 16.144 12.24 16.144C11.856 16.144 11.664 16.024 11.424 15.376C10.968 14.152 10.632 13.24 10.104 11.872ZM5.352 9.88H9.504C8.424 6.904 7.704 5.104 7.416 4.36C6.84 5.92 6.144 7.816 5.352 9.88ZM24.6675 13.672L24.7155 13.744C24.6915 14.44 24.3555 15.28 23.9235 15.664C23.2515 16.096 22.2195 16.288 21.2115 16.288C18.0915 16.288 15.6675 14.488 15.6675 10.96C15.6675 7.528 18.2595 5.152 21.6195 5.152C23.2275 5.152 24.3795 5.656 24.8115 6.064C24.8115 6.688 24.4995 7.6 23.6595 7.552C23.1075 7.336 22.3635 7.168 21.7155 7.168C19.9875 7.168 18.6435 8.368 18.6435 10.552C18.6435 13.168 20.4435 14.128 22.0755 14.128C23.1075 14.128 24.0195 13.936 24.6675 13.672ZM33.1733 13.792L33.2213 13.84C33.3413 14.416 33.2453 15.16 32.8133 15.52C32.2373 16.024 31.2533 16.288 30.1733 16.288C27.7493 16.288 26.9573 14.728 26.9573 13.048V7.312C26.0453 7.312 25.5893 6.904 25.5893 6.64C25.9493 5.968 27.8693 4.216 28.3013 3.88C28.6853 3.544 29.1413 3.256 30.0773 3.16C30.0053 3.88 29.9333 4.768 29.9333 5.44H33.4853C33.1973 7.096 32.6693 7.168 32.1893 7.216C31.6613 7.264 30.8933 7.312 29.8853 7.312C29.7893 9.28 29.8133 11.608 29.8853 12.616C30.0053 13.792 30.6773 14.224 31.4933 14.224C32.1893 14.224 32.8613 13.96 33.1733 13.792ZM36.3587 0.136C37.2707 0.136 37.8467 0.784 37.8467 1.672C37.8467 2.584 37.1987 3.304 36.2867 3.304C35.5427 3.304 34.7507 2.872 34.7507 1.744C34.7507 0.592 35.7347 0.136 36.3587 0.136ZM37.7747 6.784V15.424C37.7747 15.856 37.5827 15.976 37.0547 16.048C36.5747 16.12 35.7107 16.144 34.7747 16.144C34.7987 15.16 34.8467 13.768 34.8467 12.352V8.272C34.8467 6.784 34.7987 6.04 34.7507 5.584C35.3027 5.416 36.8387 5.296 37.3187 5.296C37.6787 5.296 37.7747 5.416 37.7747 6.784ZM41.6666 5.152C42.0266 5.152 42.2186 5.368 42.3146 5.704C42.8906 7.312 43.8266 10 44.6906 12.856C45.6506 10.096 46.7546 7.096 47.3546 5.152C48.0266 5.152 48.6026 5.272 49.1786 5.536C49.6826 5.752 49.5626 6.28 49.2266 7.12C48.2186 9.64 46.8506 12.904 45.8426 15.424C45.6986 15.808 45.4826 15.952 45.1226 16.048C44.5226 16.192 43.7066 16.288 43.2266 16.288C42.4346 13.936 41.5466 11.68 40.4666 8.824C39.9866 7.552 39.6026 6.616 39.2186 5.728C39.7706 5.44 41.0426 5.152 41.6666 5.152ZM59.0942 13.576L59.1422 13.624C59.1422 14.68 58.3022 15.664 57.8942 15.856C57.5342 16.024 56.5022 16.288 55.6622 16.288C52.1822 16.288 50.2382 14.368 50.2382 10.84C50.2382 7.936 52.1342 5.152 55.3982 5.152C58.4222 5.152 59.5982 7.336 59.6222 9.28C59.6222 9.616 59.5982 9.88 59.5502 10.072C59.4302 10.432 58.5182 10.792 57.5342 11.032C56.9342 11.152 54.4382 11.176 53.1422 11.128C53.2622 13.24 54.7742 14.128 56.4062 14.128C57.5582 14.128 58.6862 13.768 59.0942 13.576ZM55.1582 6.832C54.2222 6.832 53.2622 7.672 53.1662 9.472C54.1502 9.544 55.9982 9.52 56.5742 9.472C56.7422 9.472 56.8862 9.232 56.8862 8.968C56.8862 7.792 56.3582 6.832 55.1582 6.832Z" fill="#123797"/>
<path d="M0 18.4H60.1982V19.6H0V18.4Z" fill="#123797"/>
</svg>
