<svg width="360" height="208" viewBox="0 0 360 208" fill="none" xmlns="http://www.w3.org/2000/svg">
<mask id="path-1-inside-1_362_915" fill="white">
<path fill-rule="evenodd" clip-rule="evenodd" d="M231.578 194.502C215.108 194.502 200.283 187.742 189.951 176.955C180.889 195.308 161.41 208 138.842 208C113.905 208 92.7388 192.503 85.2308 170.995C76.8177 175.764 67.0052 178.5 56.5268 178.5C25.3079 178.5 0 154.212 0 124.25C0 104.979 10.4699 88.0548 26.2484 78.4309C25.7746 75.6038 25.5283 72.7036 25.5283 69.7482C25.5283 39.7867 50.8362 15.498 82.0551 15.498C89.8616 15.498 97.2984 17.0168 104.062 19.7631C114.43 7.69403 130.128 0 147.699 0C164.758 0 180.051 7.2517 190.415 18.7182C195.988 16.9544 201.944 16 208.133 16C220.797 16 232.489 19.997 241.913 26.7482C251.453 19.6936 263.407 15.498 276.382 15.498C307.601 15.498 332.909 39.7867 332.909 69.7482C332.909 72.2508 332.733 74.7139 332.391 77.1265C348.925 86.5927 360 103.93 360 123.75C360 153.712 334.692 178 303.473 178C294.097 178 285.255 175.81 277.47 171.932C267.207 185.603 250.475 194.502 231.578 194.502Z"/>
</mask>
<path d="M189.951 176.955L191.035 175.917C190.696 175.564 190.207 175.398 189.723 175.472C189.24 175.547 188.823 175.852 188.606 176.291L189.951 176.955ZM85.2308 170.995L86.647 170.501C86.5004 170.081 86.175 169.748 85.7587 169.591C85.3424 169.435 84.8781 169.471 84.4912 169.69L85.2308 170.995ZM26.2484 78.4309L27.0295 79.7115C27.5526 79.3924 27.8291 78.7872 27.7278 78.1829L26.2484 78.4309ZM104.062 19.7631L103.498 21.1529C104.095 21.3953 104.78 21.2293 105.2 20.7405L104.062 19.7631ZM190.415 18.7182L189.303 19.724C189.696 20.1596 190.308 20.3254 190.868 20.1482L190.415 18.7182ZM241.913 26.7482L241.039 27.9676C241.568 28.3466 242.281 28.3412 242.805 27.9543L241.913 26.7482ZM332.391 77.1265L330.906 76.9161C330.819 77.5241 331.113 78.1232 331.645 78.4283L332.391 77.1265ZM277.47 171.932L278.139 170.59C277.491 170.267 276.706 170.453 276.271 171.032L277.47 171.932ZM186.126 180.746C185.688 181.45 185.903 182.375 186.607 182.813C187.31 183.251 188.235 183.035 188.673 182.332L186.126 180.746ZM182.126 190.882C182.69 190.276 182.655 189.327 182.049 188.763C181.442 188.198 180.493 188.233 179.929 188.839L182.126 190.882ZM172.311 195.624C171.644 196.115 171.501 197.054 171.992 197.721C172.482 198.389 173.421 198.532 174.089 198.041L172.311 195.624ZM164.871 203.59C165.617 203.23 165.93 202.333 165.569 201.587C165.209 200.841 164.312 200.528 163.566 200.889L164.871 203.59ZM154.007 204.472C153.208 204.691 152.738 205.516 152.957 206.315C153.176 207.114 154.001 207.584 154.8 207.365L154.007 204.472ZM144.218 209.264C145.043 209.191 145.653 208.463 145.58 207.638C145.507 206.813 144.779 206.203 143.954 206.276L144.218 209.264ZM133.206 206.227C132.382 206.147 131.648 206.75 131.568 207.575C131.488 208.399 132.091 209.133 132.915 209.213L133.206 206.227ZM121.29 206.904C122.082 207.145 122.92 206.699 123.162 205.906C123.403 205.114 122.956 204.276 122.164 204.034L121.29 206.904ZM111.782 199.692C111.054 199.297 110.143 199.567 109.748 200.295C109.353 201.024 109.623 201.934 110.352 202.329L111.782 199.692ZM100.554 195.643C101.187 196.178 102.134 196.098 102.668 195.465C103.202 194.832 103.123 193.885 102.49 193.351L100.554 195.643ZM94.6975 185.248C94.1889 184.594 93.2465 184.476 92.5926 184.985C91.9387 185.493 91.8209 186.436 92.3294 187.09L94.6975 185.248ZM86.0821 176.991C86.4394 177.738 87.3349 178.055 88.0824 177.697C88.8298 177.34 89.1461 176.445 88.7889 175.697L86.0821 176.991ZM81.2575 171.386C80.5116 171.746 80.1991 172.643 80.5594 173.389C80.9198 174.135 81.8167 174.447 82.5626 174.087L81.2575 171.386ZM75.4345 176.973C76.221 176.713 76.6475 175.865 76.3872 175.078C76.1269 174.292 75.2784 173.865 74.4919 174.125L75.4345 176.973ZM67.4266 175.966C66.6131 176.122 66.0807 176.909 66.2373 177.722C66.394 178.536 67.1805 179.068 67.994 178.912L67.4266 175.966ZM60.3688 179.88C61.1956 179.828 61.8237 179.116 61.7718 178.289C61.7198 177.462 61.0075 176.834 60.1807 176.886L60.3688 179.88ZM51.2304 176.759C50.4054 176.684 49.6754 177.291 49.5999 178.116C49.5244 178.941 50.132 179.671 50.957 179.747L51.2304 176.759ZM40.0035 177.707C40.8002 177.934 41.6301 177.472 41.8571 176.676C42.084 175.879 41.6222 175.049 40.8254 174.822L40.0035 177.707ZM30.9703 170.978C30.2304 170.606 29.3285 170.903 28.9559 171.643C28.5832 172.383 28.8809 173.285 29.6208 173.658L30.9703 170.978ZM20.188 167.717C20.8435 168.224 21.7855 168.103 22.292 167.448C22.7985 166.792 22.6777 165.85 22.0222 165.343L20.188 167.717ZM14.3242 158.102C13.7791 157.478 12.8315 157.414 12.2077 157.96C11.5838 158.505 11.52 159.452 12.0651 160.076L14.3242 158.102ZM5.59437 150.984C6.0045 151.704 6.92047 151.955 7.64025 151.545C8.36004 151.135 8.61106 150.219 8.20093 149.499L5.59437 150.984ZM3.94412 139.845C3.68993 139.057 2.8447 138.624 2.05623 138.878C1.26776 139.132 0.834636 139.977 1.08882 140.766L3.94412 139.845ZM-1.21239 129.835C-1.12707 130.659 -0.389893 131.258 0.434128 131.172C1.25815 131.087 1.85698 130.35 1.77165 129.526L-1.21239 129.835ZM1.69424 119.785C1.76637 118.96 1.15582 118.233 0.330539 118.16C-0.494742 118.088 -1.22224 118.699 -1.29436 119.524L1.69424 119.785ZM0.353871 110.218C0.138029 111.018 0.611433 111.841 1.41125 112.057C2.21106 112.273 3.03441 111.799 3.25026 111L0.353871 110.218ZM6.32348 102.621C6.67561 101.871 6.35319 100.977 5.60332 100.625C4.85346 100.273 3.96012 100.596 3.60798 101.345L6.32348 102.621ZM8.34423 93.1733C7.86913 93.852 8.03414 94.7873 8.71279 95.2624C9.39145 95.7375 10.3267 95.5725 10.8019 94.8938L8.34423 93.1733ZM16.5245 88.028C17.106 87.438 17.0992 86.4883 16.5092 85.9067C15.9192 85.3252 14.9695 85.332 14.3879 85.922L16.5245 88.028ZM21.5401 79.7693C20.8701 80.2565 20.7219 81.1946 21.2091 81.8646C21.6963 82.5347 22.6344 82.6829 23.3044 82.1957L21.5401 79.7693ZM27.4214 76.0874C27.3188 75.2654 26.5691 74.6822 25.7471 74.7849C24.9251 74.8876 24.3419 75.6372 24.4446 76.4593L27.4214 76.0874ZM24.0744 71.9899C24.1085 72.8177 24.8071 73.461 25.6348 73.427C26.4626 73.3929 27.1059 72.6942 27.0719 71.8665L24.0744 71.9899ZM27.3 64.4726C27.3853 63.6486 26.7865 62.9114 25.9625 62.8261C25.1384 62.7408 24.4013 63.3396 24.3159 64.1636L27.3 64.4726ZM26.6171 53.2325C26.363 54.021 26.7961 54.8663 27.5846 55.1204C28.373 55.3746 29.2183 54.9415 29.4724 54.153L26.6171 53.2325ZM33.7293 44.4996C34.1394 43.7798 33.8884 42.8638 33.1686 42.4537C32.4488 42.0436 31.5328 42.2946 31.1227 43.0144L33.7293 44.4996ZM37.5935 33.9223C37.0484 34.5462 37.1122 35.4938 37.736 36.0389C38.3598 36.584 39.3074 36.5202 39.8525 35.8963L37.5935 33.9223ZM47.5505 28.6549C48.2061 28.1484 48.3269 27.2064 47.8204 26.5508C47.3139 25.8953 46.3718 25.7745 45.7163 26.281L47.5505 28.6549ZM55.1491 20.3408C54.4092 20.7135 54.1116 21.6153 54.4842 22.3552C54.8569 23.0951 55.7588 23.3928 56.4986 23.0201L55.1491 20.3408ZM66.3538 19.1763C67.1505 18.9493 67.6124 18.1195 67.3854 17.3227C67.1584 16.526 66.3285 16.0641 65.5318 16.2911L66.3538 19.1763ZM76.4853 14.2516C75.6603 14.3271 75.0527 15.0571 75.1282 15.8821C75.2037 16.7071 75.9337 17.3147 76.7587 17.2392L76.4853 14.2516ZM87.5443 17.2571C88.369 17.3354 89.1011 16.7303 89.1793 15.9056C89.2576 15.0809 88.6525 14.3488 87.8278 14.2706L87.5443 17.2571ZM99.168 16.4624C98.3737 16.2272 97.5391 16.6804 97.3039 17.4748C97.0687 18.2691 97.5219 19.1037 98.3163 19.3389L99.168 16.4624ZM109.362 16.4093C109.969 15.8447 110.003 14.8956 109.438 14.2893C108.873 13.683 107.924 13.6492 107.318 14.2138L109.362 16.4093ZM117.469 6.65393C116.755 7.07357 116.516 7.99279 116.935 8.70707C117.355 9.42135 118.274 9.66021 118.989 9.24058L117.469 6.65393ZM129.937 4.3084C130.724 4.05109 131.154 3.20415 130.897 2.41669C130.639 1.62924 129.792 1.19947 129.005 1.45678L129.937 4.3084ZM141.377 -1.1728C140.553 -1.08701 139.955 -0.34949 140.041 0.474482C140.126 1.29845 140.864 1.89686 141.688 1.81106L141.377 -1.1728ZM153.542 1.79373C154.366 1.8771 155.102 1.27652 155.185 0.452297C155.269 -0.371924 154.668 -1.10767 153.844 -1.19104L153.542 1.79373ZM165.884 1.29264C165.094 1.04246 164.251 1.47987 164.001 2.26962C163.751 3.05937 164.188 3.9024 164.978 4.15257L165.884 1.29264ZM175.676 8.81681C176.397 9.2255 177.312 8.97264 177.721 8.25203C178.129 7.53143 177.877 6.61596 177.156 6.20728L175.676 8.81681ZM187.156 13.371C186.537 12.8198 185.589 12.8743 185.038 13.4927C184.487 14.1111 184.541 15.0593 185.159 15.6105L187.156 13.371ZM195.093 18.9896C195.9 18.8017 196.402 17.9952 196.214 17.1884C196.026 16.3816 195.219 15.8799 194.413 16.0678L195.093 18.9896ZM203.525 14.6732C202.699 14.7356 202.08 15.4558 202.142 16.2819C202.205 17.108 202.925 17.7271 203.751 17.6647L203.525 14.6732ZM212.519 17.6651C213.345 17.7275 214.066 17.1085 214.128 16.2824C214.19 15.4563 213.571 14.7361 212.745 14.6736L212.519 17.6651ZM221.867 16.0712C221.061 15.883 220.254 16.3845 220.066 17.1913C219.878 17.9981 220.379 18.8046 221.186 18.9928L221.867 16.0712ZM229.54 21.6406C230.308 21.9517 231.183 21.5815 231.494 20.8137C231.805 20.0459 231.435 19.1713 230.667 18.8602L229.54 21.6406ZM238.926 22.9888C238.216 22.5612 237.295 22.7897 236.867 23.4993C236.439 24.2088 236.668 25.1307 237.377 25.5583L238.926 22.9888ZM246.518 25.4355C247.222 24.9986 247.438 24.0739 247.001 23.37C246.564 22.6661 245.64 22.4497 244.936 22.8865L246.518 25.4355ZM253.342 18.566C252.577 18.8843 252.215 19.7623 252.533 20.5272C252.851 21.292 253.729 21.6541 254.494 21.3358L253.342 18.566ZM263.026 18.5624C263.832 18.3699 264.329 17.5606 264.136 16.7548C263.943 15.9491 263.134 15.452 262.328 15.6446L263.026 18.5624ZM271.661 14.18C270.835 14.2439 270.217 14.9653 270.281 15.7913C270.345 16.6172 271.066 17.235 271.892 17.1711L271.661 14.18ZM281.679 17.2392C282.504 17.3147 283.234 16.7071 283.309 15.8821C283.385 15.0571 282.777 14.3271 281.952 14.2516L281.679 17.2392ZM292.906 16.2911C292.109 16.0641 291.279 16.526 291.052 17.3227C290.825 18.1195 291.287 18.9493 292.084 19.1763L292.906 16.2911ZM301.939 23.0201C302.679 23.3928 303.581 23.0951 303.953 22.3552C304.326 21.6153 304.028 20.7135 303.288 20.3408L301.939 23.0201ZM312.721 26.281C312.066 25.7745 311.124 25.8953 310.617 26.5509C310.111 27.2064 310.231 28.1484 310.887 28.6549L312.721 26.281ZM318.585 35.8963C319.13 36.5202 320.078 36.584 320.701 36.0389C321.325 35.4938 321.389 34.5462 320.844 33.9223L318.585 35.8963ZM327.315 43.0144C326.905 42.2946 325.989 42.0436 325.269 42.4537C324.549 42.8638 324.298 43.7798 324.708 44.4996L327.315 43.0144ZM328.965 54.153C329.219 54.9415 330.064 55.3746 330.853 55.1204C331.641 54.8663 332.074 54.021 331.82 53.2326L328.965 54.153ZM334.121 64.1636C334.036 63.3396 333.299 62.7408 332.475 62.8261C331.651 62.9114 331.052 63.6486 331.137 64.4726L334.121 64.1636ZM331.378 71.5462C331.349 72.3741 331.997 73.0687 332.824 73.0976C333.652 73.1265 334.347 72.4788 334.376 71.6508L331.378 71.5462ZM334.109 75.4477C334.197 74.6238 333.599 73.8854 332.775 73.7983C331.952 73.7112 331.213 74.3084 331.126 75.1323L334.109 75.4477ZM335.544 80.8808C336.226 81.3507 337.16 81.1785 337.63 80.4963C338.1 79.814 337.928 78.88 337.246 78.4101L335.544 80.8808ZM344.748 84.5641C344.154 83.9866 343.204 84 342.627 84.594C342.049 85.188 342.063 86.1376 342.657 86.7151L344.748 84.5641ZM348.678 93.6637C349.164 94.3341 350.102 94.4833 350.773 93.9967C351.443 93.5102 351.592 92.5722 351.106 91.9017L348.678 93.6637ZM356.1 100.234C355.739 99.4887 354.841 99.1775 354.096 99.5389C353.351 99.9003 353.039 100.798 353.401 101.543L356.1 100.234ZM356.648 110.129C356.87 110.928 357.697 111.395 358.495 111.173C359.293 110.951 359.761 110.124 359.539 109.326L356.648 110.129ZM361.282 118.889C361.208 118.064 360.479 117.455 359.654 117.53C358.829 117.604 358.22 118.333 358.294 119.158L361.282 118.889ZM358.228 129.026C358.143 129.85 358.742 130.587 359.566 130.672C360.39 130.758 361.127 130.159 361.212 129.335L358.228 129.026ZM358.911 140.266C359.165 139.477 358.732 138.632 357.944 138.378C357.155 138.124 356.31 138.557 356.056 139.345L358.911 140.266ZM351.799 148.999C351.389 149.719 351.64 150.635 352.36 151.045C353.079 151.455 353.995 151.204 354.406 150.484L351.799 148.999ZM347.935 159.576C348.48 158.952 348.416 158.005 347.792 157.46C347.168 156.914 346.221 156.978 345.676 157.602L347.935 159.576ZM337.978 164.843C337.322 165.35 337.201 166.292 337.708 166.948C338.214 167.603 339.156 167.724 339.812 167.217L337.978 164.843ZM330.379 173.158C331.119 172.785 331.417 171.883 331.044 171.143C330.671 170.403 329.769 170.106 329.03 170.478L330.379 173.158ZM319.174 174.322C318.378 174.549 317.916 175.379 318.143 176.176C318.37 176.972 319.2 177.434 319.996 177.207L319.174 174.322ZM309.043 179.247C309.868 179.171 310.475 178.441 310.4 177.616C310.324 176.791 309.594 176.184 308.77 176.259L309.043 179.247ZM296.921 176.13C296.098 176.037 295.355 176.628 295.262 177.451C295.168 178.274 295.759 179.018 296.582 179.111L296.921 176.13ZM283.154 175.987C283.934 176.267 284.793 175.862 285.073 175.082C285.353 174.302 284.948 173.443 284.168 173.163L283.154 175.987ZM273.555 174.361C273.006 174.981 273.064 175.929 273.684 176.478C274.304 177.027 275.252 176.969 275.801 176.349L273.555 174.361ZM269.274 182.638C269.914 182.112 270.006 181.167 269.48 180.527C268.954 179.887 268.009 179.794 267.369 180.32L269.274 182.638ZM260.324 185.241C259.61 185.661 259.372 186.581 259.792 187.295C260.212 188.009 261.131 188.247 261.845 187.827L260.324 185.241ZM253.707 191.805C254.477 191.499 254.853 190.628 254.548 189.858C254.242 189.087 253.371 188.711 252.6 189.016L253.707 191.805ZM244.389 191.565C243.581 191.75 243.076 192.554 243.261 193.362C243.446 194.17 244.25 194.675 245.058 194.49L244.389 191.565ZM236.105 195.835C236.931 195.774 237.551 195.054 237.49 194.228C237.428 193.402 236.709 192.782 235.883 192.843L236.105 195.835ZM225.929 192.728C225.105 192.647 224.371 193.25 224.291 194.075C224.21 194.899 224.813 195.633 225.638 195.714L225.929 192.728ZM213.981 193.392C214.774 193.634 215.612 193.188 215.854 192.396C216.096 191.604 215.65 190.765 214.857 190.523L213.981 193.392ZM204.452 186.158C203.724 185.762 202.814 186.031 202.418 186.759C202.022 187.486 202.29 188.397 203.018 188.793L204.452 186.158ZM193.206 182.074C193.838 182.609 194.785 182.531 195.32 181.899C195.856 181.267 195.778 180.321 195.146 179.785L193.206 182.074ZM188.606 176.291C187.852 177.817 187.024 179.304 186.126 180.746L188.673 182.332C189.622 180.807 190.498 179.235 191.296 177.619L188.606 176.291ZM179.929 188.839C177.62 191.322 175.069 193.595 172.311 195.624L174.089 198.041C176.996 195.902 179.688 193.504 182.126 190.882L179.929 188.839ZM163.566 200.889C160.53 202.355 157.333 203.56 154.007 204.472L154.8 207.365C158.304 206.404 161.672 205.135 164.871 203.59L163.566 200.889ZM143.954 206.276C142.271 206.424 140.566 206.5 138.842 206.5V209.5C140.654 209.5 142.447 209.421 144.218 209.264L143.954 206.276ZM138.842 206.5C136.939 206.5 135.059 206.408 133.206 206.227L132.915 209.213C134.864 209.403 136.841 209.5 138.842 209.5V206.5ZM122.164 204.034C118.524 202.926 115.049 201.465 111.782 199.692L110.352 202.329C113.795 204.197 117.456 205.737 121.29 206.904L122.164 204.034ZM102.49 193.351C99.6081 190.918 96.995 188.202 94.6975 185.248L92.3294 187.09C94.7564 190.21 97.5149 193.077 100.554 195.643L102.49 193.351ZM88.7889 175.697C87.9828 174.011 87.2669 172.277 86.647 170.501L83.8146 171.49C84.4712 173.371 85.2291 175.206 86.0821 176.991L88.7889 175.697ZM84.4912 169.69C83.4355 170.289 82.3571 170.854 81.2575 171.386L82.5626 174.087C83.7213 173.527 84.8578 172.931 85.9705 172.3L84.4912 169.69ZM74.4919 174.125C72.2018 174.883 69.8429 175.5 67.4266 175.966L67.994 178.912C70.5379 178.422 73.0221 177.772 75.4345 176.973L74.4919 174.125ZM60.1807 176.886C58.9731 176.962 57.7548 177 56.5268 177V180C57.8176 180 59.0986 179.96 60.3688 179.88L60.1807 176.886ZM56.5268 177C54.7398 177 52.973 176.919 51.2304 176.759L50.957 179.747C52.7904 179.915 54.6484 180 56.5268 180V177ZM40.8254 174.822C37.3874 173.843 34.0904 172.55 30.9703 170.978L29.6208 173.658C32.9089 175.314 36.3824 176.676 40.0035 177.707L40.8254 174.822ZM22.0222 165.343C19.2159 163.175 16.6368 160.749 14.3242 158.102L12.0651 160.076C14.507 162.871 17.2286 165.431 20.188 167.717L22.0222 165.343ZM8.20093 149.499C6.46373 146.45 5.03188 143.22 3.94412 139.845L1.08882 140.766C2.24098 144.34 3.75688 147.759 5.59437 150.984L8.20093 149.499ZM1.77165 129.526C1.59202 127.791 1.5 126.031 1.5 124.25H-1.5C-1.5 126.135 -1.40264 127.998 -1.21239 129.835L1.77165 129.526ZM1.5 124.25C1.5 122.746 1.56563 121.257 1.69424 119.785L-1.29436 119.524C-1.43056 121.082 -1.5 122.659 -1.5 124.25H1.5ZM3.25026 111C4.03194 108.103 5.06408 105.303 6.32348 102.621L3.60798 101.345C2.27504 104.184 1.18195 107.149 0.353871 110.218L3.25026 111ZM10.8019 94.8938C12.51 92.4538 14.4255 90.1574 16.5245 88.028L14.3879 85.922C12.1726 88.1695 10.1495 90.5946 8.34423 93.1733L10.8019 94.8938ZM23.3044 82.1957C24.5083 81.3203 25.7509 80.4913 27.0295 79.7115L25.4673 77.1503C24.1196 77.9723 22.8095 78.8463 21.5401 79.7693L23.3044 82.1957ZM27.7278 78.1829C27.6115 77.4889 27.5092 76.7903 27.4214 76.0874L24.4446 76.4593C24.5376 77.2037 24.6458 77.9436 24.769 78.6788L27.7278 78.1829ZM27.0719 71.8665C27.0429 71.1639 27.0283 70.4578 27.0283 69.7482H24.0283C24.0283 70.4989 24.0438 71.2463 24.0744 71.9899L27.0719 71.8665ZM27.0283 69.7482C27.0283 67.9672 27.1203 66.2074 27.3 64.4726L24.3159 64.1636C24.1257 66.0008 24.0283 67.8638 24.0283 69.7482H27.0283ZM29.4724 54.153C30.5602 50.7788 31.9921 47.5484 33.7293 44.4996L31.1227 43.0144C29.2852 46.2392 27.7693 49.6586 26.6171 53.2325L29.4724 54.153ZM39.8525 35.8963C42.1652 33.2497 44.7442 30.8232 47.5505 28.6549L45.7163 26.281C42.7569 28.5675 40.0354 31.1278 37.5935 33.9223L39.8525 35.8963ZM56.4986 23.0201C59.6187 21.4486 62.9157 20.1558 66.3538 19.1763L65.5318 16.2911C61.9108 17.3227 58.4372 18.6847 55.1491 20.3408L56.4986 23.0201ZM76.7587 17.2392C78.5014 17.0797 80.2681 16.998 82.0551 16.998V13.998C80.1767 13.998 78.3187 14.0838 76.4853 14.2516L76.7587 17.2392ZM82.0551 16.998C83.9081 16.998 85.7392 17.0858 87.5443 17.2571L87.8278 14.2706C85.9286 14.0903 84.0028 13.998 82.0551 13.998V16.998ZM98.3163 19.3389C100.083 19.8622 101.812 20.4684 103.498 21.1529L104.627 18.3733C102.85 17.6521 101.029 17.0135 99.168 16.4624L98.3163 19.3389ZM105.2 20.7405C106.503 19.2237 107.893 17.7776 109.362 16.4093L107.318 14.2138C105.768 15.6576 104.3 17.184 102.925 18.7857L105.2 20.7405ZM118.989 9.24058C122.409 7.23119 126.076 5.5699 129.937 4.3084L129.005 1.45678C124.938 2.7856 121.074 4.53598 117.469 6.65393L118.989 9.24058ZM141.688 1.81106C143.662 1.60552 145.667 1.5 147.699 1.5V-1.5C145.563 -1.5 143.454 -1.38908 141.377 -1.1728L141.688 1.81106ZM147.699 1.5C149.673 1.5 151.623 1.59959 153.542 1.79373L153.844 -1.19104C151.824 -1.39531 149.774 -1.5 147.699 -1.5V1.5ZM164.978 4.15257C168.74 5.34445 172.323 6.91495 175.676 8.81681L177.156 6.20728C173.622 4.20275 169.847 2.54809 165.884 1.29264L164.978 4.15257ZM185.159 15.6105C186.616 16.9092 188 18.2825 189.303 19.724L191.528 17.7123C190.153 16.1904 188.693 14.7411 187.156 13.371L185.159 15.6105ZM190.868 20.1482C192.253 19.71 193.662 19.323 195.093 18.9896L194.413 16.0678C192.906 16.4188 191.421 16.8264 189.963 17.2881L190.868 20.1482ZM203.751 17.6647C205.196 17.5556 206.658 17.5 208.133 17.5V14.5C206.582 14.5 205.046 14.5585 203.525 14.6732L203.751 17.6647ZM208.133 17.5C209.61 17.5 211.072 17.5557 212.519 17.6651L212.745 14.6736C211.223 14.5586 209.685 14.5 208.133 14.5V17.5ZM221.186 18.9928C224.066 19.6645 226.858 20.5535 229.54 21.6406L230.667 18.8602C227.841 17.7148 224.9 16.7785 221.867 16.0712L221.186 18.9928ZM237.377 25.5583C238.633 26.315 239.855 27.119 241.039 27.9676L242.786 25.5288C241.537 24.634 240.249 23.7865 238.926 22.9888L237.377 25.5583ZM242.805 27.9543C244.004 27.0674 245.243 26.2269 246.518 25.4355L244.936 22.8865C243.592 23.7207 242.286 24.6069 241.021 25.5421L242.805 27.9543ZM254.494 21.3358C257.23 20.1977 260.081 19.2663 263.026 18.5624L262.328 15.6446C259.227 16.3859 256.224 17.3669 253.342 18.566L254.494 21.3358ZM271.892 17.1711C273.373 17.0565 274.87 16.998 276.382 16.998V13.998C274.793 13.998 273.218 14.0595 271.661 14.18L271.892 17.1711ZM276.382 16.998C278.169 16.998 279.936 17.0797 281.679 17.2392L281.952 14.2516C280.119 14.0838 278.261 13.998 276.382 13.998V16.998ZM292.084 19.1763C295.522 20.1558 298.819 21.4486 301.939 23.0201L303.288 20.3408C300 18.6847 296.527 17.3227 292.906 16.2911L292.084 19.1763ZM310.887 28.6549C313.693 30.8232 316.272 33.2497 318.585 35.8963L320.844 33.9223C318.402 31.1278 315.681 28.5675 312.721 26.281L310.887 28.6549ZM324.708 44.4996C326.445 47.5484 327.877 50.7788 328.965 54.153L331.82 53.2326C330.668 49.6586 329.152 46.2392 327.315 43.0144L324.708 44.4996ZM331.137 64.4726C331.317 66.2074 331.409 67.9672 331.409 69.7482H334.409C334.409 67.8638 334.312 66.0008 334.121 64.1636L331.137 64.4726ZM331.409 69.7482C331.409 70.35 331.399 70.9494 331.378 71.5462L334.376 71.6508C334.398 71.0192 334.409 70.3849 334.409 69.7482H331.409ZM331.126 75.1323C331.063 75.7299 330.989 76.3246 330.906 76.9161L333.876 77.337C333.965 76.7104 334.043 76.0806 334.109 75.4477L331.126 75.1323ZM331.645 78.4283C332.983 79.194 334.283 80.0125 335.544 80.8808L337.246 78.4101C335.917 77.4946 334.546 76.6318 333.136 75.8248L331.645 78.4283ZM342.657 86.7151C344.863 88.86 346.879 91.1847 348.678 93.6637L351.106 91.9017C349.205 89.2822 347.076 86.8276 344.748 84.5641L342.657 86.7151ZM353.401 101.543C354.731 104.286 355.822 107.156 356.648 110.129L359.539 109.326C358.663 106.176 357.508 103.137 356.1 100.234L353.401 101.543ZM358.294 119.158C358.43 120.671 358.5 122.203 358.5 123.75H361.5C361.5 122.113 361.426 120.491 361.282 118.889L358.294 119.158ZM358.5 123.75C358.5 125.531 358.408 127.291 358.228 129.026L361.212 129.335C361.403 127.498 361.5 125.635 361.5 123.75H358.5ZM356.056 139.345C354.968 142.72 353.536 145.95 351.799 148.999L354.406 150.484C356.243 147.259 357.759 143.84 358.911 140.266L356.056 139.345ZM345.676 157.602C343.363 160.249 340.784 162.675 337.978 164.843L339.812 167.217C342.771 164.931 345.493 162.371 347.935 159.576L345.676 157.602ZM329.03 170.478C325.909 172.05 322.612 173.343 319.174 174.322L319.996 177.207C323.617 176.176 327.091 174.814 330.379 173.158L329.03 170.478ZM308.77 176.259C307.027 176.419 305.26 176.5 303.473 176.5V179.5C305.352 179.5 307.209 179.415 309.043 179.247L308.77 176.259ZM303.473 176.5C301.256 176.5 299.069 176.375 296.921 176.13L296.582 179.111C298.843 179.368 301.142 179.5 303.473 179.5V176.5ZM284.168 173.163C282.096 172.419 280.084 171.558 278.139 170.59L276.802 173.275C278.851 174.296 280.972 175.203 283.154 175.987L284.168 173.163ZM276.271 171.032C275.412 172.176 274.505 173.287 273.555 174.361L275.801 176.349C276.805 175.215 277.762 174.042 278.67 172.833L276.271 171.032ZM267.369 180.32C265.165 182.131 262.81 183.778 260.324 185.241L261.845 187.827C264.466 186.285 266.949 184.548 269.274 182.638L267.369 180.32ZM252.6 189.016C249.961 190.063 247.217 190.919 244.389 191.565L245.058 194.49C248.036 193.809 250.925 192.908 253.707 191.805L252.6 189.016ZM235.883 192.843C234.463 192.949 233.027 193.002 231.578 193.002V196.002C233.101 196.002 234.611 195.946 236.105 195.835L235.883 192.843ZM231.578 193.002C229.671 193.002 227.786 192.909 225.929 192.728L225.638 195.714C227.591 195.905 229.573 196.002 231.578 196.002V193.002ZM214.857 190.523C211.209 189.409 207.726 187.94 204.452 186.158L203.018 188.793C206.468 190.671 210.138 192.219 213.981 193.392L214.857 190.523ZM195.146 179.785C193.706 178.565 192.334 177.274 191.035 175.917L188.868 177.992C190.239 179.424 191.687 180.787 193.206 182.074L195.146 179.785ZM189.951 176.955L192.118 174.88C191.441 174.173 190.462 173.841 189.495 173.99C188.528 174.138 187.695 174.749 187.261 175.627L189.951 176.955ZM85.2308 170.995L88.0632 170.007C87.77 169.167 87.1193 168.5 86.2866 168.187C85.454 167.874 84.5254 167.947 83.7515 168.386L85.2308 170.995ZM26.2484 78.4309L27.8106 80.9921C28.8568 80.3539 29.4097 79.1436 29.2071 77.935L26.2484 78.4309ZM104.062 19.7631L102.934 22.5427C104.128 23.0276 105.498 22.6956 106.338 21.718L104.062 19.7631ZM190.415 18.7182L188.19 20.7298C188.977 21.6011 190.201 21.9327 191.321 21.5783L190.415 18.7182ZM241.913 26.7482L240.166 29.187C241.224 29.945 242.65 29.9342 243.696 29.1604L241.913 26.7482ZM332.391 77.1265L329.42 76.7057C329.248 77.9217 329.834 79.1199 330.9 79.73L332.391 77.1265ZM277.47 171.932L278.808 169.247C277.512 168.602 275.941 168.974 275.071 170.131L277.47 171.932ZM184.853 179.954C183.977 181.36 184.407 183.21 185.814 184.086C187.22 184.962 189.07 184.531 189.946 183.125L184.853 179.954ZM183.224 191.904C184.352 190.691 184.284 188.792 183.07 187.664C181.857 186.536 179.959 186.605 178.83 187.818L183.224 191.904ZM171.422 194.416C170.087 195.398 169.801 197.276 170.783 198.61C171.765 199.945 173.643 200.231 174.978 199.249L171.422 194.416ZM165.524 204.941C167.015 204.22 167.641 202.426 166.92 200.935C166.2 199.443 164.406 198.817 162.914 199.538L165.524 204.941ZM153.61 203.025C152.012 203.464 151.072 205.114 151.51 206.712C151.949 208.31 153.599 209.25 155.197 208.812L153.61 203.025ZM144.35 210.758C146 210.613 147.22 209.157 147.074 207.506C146.928 205.856 145.472 204.636 143.822 204.782L144.35 210.758ZM133.352 204.734C131.703 204.574 130.236 205.78 130.075 207.429C129.914 209.078 131.121 210.545 132.77 210.706L133.352 204.734ZM120.853 208.339C122.438 208.822 124.114 207.928 124.597 206.343C125.079 204.758 124.186 203.082 122.601 202.599L120.853 208.339ZM112.497 198.374C111.041 197.584 109.22 198.124 108.43 199.58C107.64 201.037 108.18 202.858 109.636 203.648L112.497 198.374ZM99.5866 196.789C100.853 197.858 102.745 197.698 103.814 196.432C104.883 195.166 104.723 193.274 103.457 192.205L99.5866 196.789ZM95.8816 184.327C94.8644 183.019 92.9796 182.783 91.6717 183.801C90.3639 184.818 90.1282 186.703 91.1454 188.01L95.8816 184.327ZM84.7288 177.638C85.4433 179.133 87.2343 179.765 88.7292 179.051C90.2241 178.336 90.8567 176.545 90.1422 175.05L84.7288 177.638ZM80.605 170.035C79.1131 170.756 78.488 172.55 79.2088 174.041C79.9296 175.533 81.7233 176.158 83.2151 175.438L80.605 170.035ZM75.9058 178.397C77.4787 177.877 78.3318 176.18 77.8113 174.607C77.2907 173.034 75.5935 172.181 74.0206 172.701L75.9058 178.397ZM67.1429 174.493C65.5159 174.806 64.451 176.379 64.7644 178.006C65.0778 179.633 66.6507 180.698 68.2776 180.385L67.1429 174.493ZM60.4628 181.377C62.1164 181.273 63.3727 179.848 63.2688 178.195C63.1649 176.541 61.7402 175.285 60.0866 175.389L60.4628 181.377ZM51.3671 175.265C49.7171 175.114 48.2572 176.33 48.1062 177.98C47.9552 179.63 49.1703 181.089 50.8203 181.24L51.3671 175.265ZM39.5925 179.15C41.186 179.604 42.8457 178.68 43.2997 177.087C43.7536 175.493 42.8299 173.833 41.2364 173.379L39.5925 179.15ZM31.6451 169.639C30.1653 168.893 28.3615 169.489 27.6162 170.968C26.8709 172.448 27.4663 174.252 28.946 174.997L31.6451 169.639ZM19.2709 168.904C20.5819 169.917 22.466 169.676 23.479 168.365C24.492 167.054 24.2504 165.169 22.9393 164.156L19.2709 168.904ZM15.4537 157.115C14.3635 155.867 12.4683 155.74 11.2207 156.83C9.97302 157.92 9.84539 159.815 10.9356 161.063L15.4537 157.115ZM4.29109 151.727C5.11134 153.166 6.94329 153.668 8.38286 152.848C9.82242 152.028 10.3245 150.196 9.50422 148.756L4.29109 151.727ZM5.37176 139.385C4.8634 137.808 3.17293 136.942 1.59599 137.45C0.0190524 137.959 -0.847196 139.649 -0.33883 141.226L5.37176 139.385ZM-2.70442 129.989C-2.53376 131.637 -1.05941 132.835 0.588629 132.664C2.23667 132.494 3.43433 131.019 3.26367 129.371L-2.70442 129.989ZM3.18855 119.916C3.3328 118.265 2.1117 116.81 0.461138 116.666C-1.18942 116.522 -2.64441 117.743 -2.78867 119.394L3.18855 119.916ZM-1.09432 109.827C-1.52601 111.427 -0.579199 113.073 1.02043 113.505C2.62006 113.937 4.26677 112.99 4.69845 111.39L-1.09432 109.827ZM7.68122 103.258C8.38549 101.759 7.74064 99.9718 6.24092 99.2676C4.74119 98.5633 2.9545 99.2081 2.25024 100.708L7.68122 103.258ZM7.11542 92.313C6.16522 93.6704 6.49524 95.541 7.85254 96.4912C9.20985 97.4414 11.0805 97.1114 12.0307 95.7541L7.11542 92.313ZM17.5927 89.081C18.7559 87.901 18.7422 86.0016 17.5622 84.8385C16.3822 83.6754 14.4828 83.689 13.3197 84.869L17.5927 89.081ZM20.658 78.5561C19.3179 79.5305 19.0215 81.4068 19.9959 82.7468C20.9703 84.0868 22.8465 84.3833 24.1866 83.4089L20.658 78.5561ZM28.9099 75.9015C28.7045 74.2574 27.2053 73.0911 25.5612 73.2965C23.9171 73.5018 22.7508 75.0011 22.9561 76.6452L28.9099 75.9015ZM22.5757 72.0517C22.6438 73.7071 24.0411 74.9939 25.6966 74.9257C27.352 74.8575 28.6388 73.4603 28.5706 71.8048L22.5757 72.0517ZM28.792 64.6271C28.9627 62.9791 27.765 61.5047 26.117 61.3341C24.4689 61.1634 22.9946 62.3611 22.8239 64.0091L28.792 64.6271ZM25.1895 52.7723C24.6811 54.3492 25.5474 56.0397 27.1243 56.5481C28.7013 57.0564 30.3917 56.1902 30.9001 54.6133L25.1895 52.7723ZM35.0325 45.2422C35.8528 43.8026 35.3507 41.9707 33.9112 41.1504C32.4716 40.3302 30.6397 40.8322 29.8194 42.2718L35.0325 45.2422ZM36.4639 32.9353C35.3737 34.183 35.5013 36.0782 36.749 37.1684C37.9966 38.2586 39.8918 38.131 40.982 36.8833L36.4639 32.9353ZM48.4676 29.8419C49.7787 28.8289 50.0204 26.9448 49.0074 25.6337C47.9943 24.3226 46.1103 24.081 44.7992 25.094L48.4676 29.8419ZM54.4744 19.0011C52.9946 19.7464 52.3992 21.5502 53.1446 23.03C53.8899 24.5097 55.6936 25.1051 57.1734 24.3598L54.4744 19.0011ZM66.7647 20.6189C68.3582 20.165 69.2819 18.5052 68.828 16.9118C68.374 15.3183 66.7143 14.3946 65.1208 14.8485L66.7647 20.6189ZM76.3486 12.7579C74.6986 12.9089 73.4835 14.3689 73.6345 16.0188C73.7855 17.6688 75.2455 18.8839 76.8954 18.7329L76.3486 12.7579ZM87.4026 18.7504C89.052 18.907 90.5161 17.6967 90.6726 16.0473C90.8292 14.3979 89.619 12.9338 87.9695 12.7773L87.4026 18.7504ZM99.5939 15.0241C98.0052 14.5537 96.336 15.4602 95.8656 17.0489C95.3952 18.6376 96.3017 20.3068 97.8904 20.7772L99.5939 15.0241ZM110.385 17.507C111.597 16.3779 111.665 14.4796 110.536 13.2671C109.407 12.0545 107.508 11.9869 106.296 13.116L110.385 17.507ZM116.709 5.36061C115.281 6.19988 114.803 8.03832 115.642 9.46688C116.481 10.8954 118.32 11.3732 119.748 10.5339L116.709 5.36061ZM130.403 5.73422C131.977 5.2196 132.837 3.5257 132.322 1.95079C131.808 0.375886 130.114 -0.483648 128.539 0.0309706L130.403 5.73422ZM141.222 -2.66474C139.574 -2.49314 138.377 -1.01811 138.549 0.629836C138.72 2.27778 140.195 3.47459 141.843 3.303L141.222 -2.66474ZM153.391 3.28612C155.04 3.45285 156.511 2.25169 156.678 0.603246C156.844 -1.0452 155.643 -2.51669 153.995 -2.68342L153.391 3.28612ZM166.337 -0.13733C164.757 -0.637681 163.071 0.237141 162.571 1.81664C162.07 3.39614 162.945 5.08219 164.525 5.58254L166.337 -0.13733ZM174.936 10.1216C176.377 10.9389 178.208 10.4332 179.026 8.99202C179.843 7.55082 179.337 5.71988 177.896 4.90251L174.936 10.1216ZM188.154 12.2513C186.917 11.1488 185.021 11.2578 183.918 12.4946C182.816 13.7315 182.925 15.6278 184.161 16.7303L188.154 12.2513ZM195.433 20.4505C197.047 20.0746 198.051 18.4618 197.675 16.8481C197.299 15.2345 195.686 14.231 194.072 14.6069L195.433 20.4505ZM203.412 13.1775C201.76 13.3022 200.522 14.7427 200.647 16.3948C200.771 18.047 202.212 19.2852 203.864 19.1605L203.412 13.1775ZM212.406 19.1608C214.058 19.2857 215.499 18.0476 215.624 16.3955C215.749 14.7433 214.511 13.3028 212.858 13.1779L212.406 19.1608ZM222.208 14.6104C220.594 14.2341 218.981 15.2371 218.605 16.8507C218.229 18.4642 219.232 20.0773 220.845 20.4536L222.208 14.6104ZM228.977 23.0308C230.513 23.653 232.262 22.9126 232.884 21.3771C233.506 19.8415 232.766 18.0923 231.231 17.47L228.977 23.0308ZM239.7 21.7041C238.281 20.8489 236.437 21.306 235.582 22.725C234.727 24.1441 235.184 25.9878 236.603 26.843L239.7 21.7041ZM247.309 26.71C248.716 25.8362 249.149 23.9867 248.276 22.579C247.402 21.1712 245.552 20.7383 244.145 21.6121L247.309 26.71ZM252.766 17.1811C251.236 17.8176 250.512 19.5737 251.148 21.1034C251.785 22.6331 253.541 23.3572 255.071 22.7207L252.766 17.1811ZM263.374 20.0213C264.986 19.6362 265.98 18.0176 265.595 16.4061C265.21 14.7947 263.591 13.8005 261.98 14.1857L263.374 20.0213ZM271.545 12.6845C269.893 12.8123 268.657 14.2551 268.785 15.907C268.913 17.5589 270.356 18.7944 272.008 18.6666L271.545 12.6845ZM281.542 18.7329C283.192 18.8839 284.652 17.6688 284.803 16.0188C284.954 14.3689 283.739 12.9089 282.089 12.7579L281.542 18.7329ZM293.317 14.8485C291.723 14.3946 290.063 15.3183 289.609 16.9118C289.155 18.5052 290.079 20.165 291.673 20.6189L293.317 14.8485ZM301.264 24.3598C302.744 25.1051 304.548 24.5097 305.293 23.03C306.038 21.5502 305.443 19.7464 303.963 19.0011L301.264 24.3598ZM313.638 25.094C312.327 24.081 310.443 24.3226 309.43 25.6337C308.417 26.9448 308.659 28.8289 309.97 29.8419L313.638 25.094ZM317.455 36.8833C318.546 38.131 320.441 38.2586 321.688 37.1684C322.936 36.0782 323.064 34.183 321.973 32.9353L317.455 36.8833ZM328.618 42.2718C327.798 40.8322 325.966 40.3302 324.526 41.1504C323.087 41.9707 322.585 43.8026 323.405 45.2422L328.618 42.2718ZM327.537 54.6133C328.046 56.1902 329.736 57.0565 331.313 56.5481C332.89 56.0397 333.756 54.3493 333.248 52.7723L327.537 54.6133ZM335.613 64.0091C335.443 62.3611 333.969 61.1634 332.32 61.3341C330.672 61.5047 329.475 62.9791 329.645 64.6271L335.613 64.0091ZM329.879 71.4938C329.821 73.1496 331.116 74.5388 332.772 74.5967C334.428 74.6545 335.817 73.359 335.875 71.7032L329.879 71.4938ZM335.601 75.6054C335.775 73.9577 334.581 72.4808 332.933 72.3066C331.285 72.1324 329.809 73.3269 329.634 74.9746L335.601 75.6054ZM334.693 82.1161C336.058 83.0559 337.926 82.7116 338.866 81.3471C339.805 79.9826 339.461 78.1145 338.097 77.1747L334.693 82.1161ZM345.794 83.4886C344.606 82.3336 342.706 82.3604 341.551 83.5484C340.397 84.7363 340.423 86.6356 341.611 87.7906L345.794 83.4886ZM347.464 94.5446C348.437 95.8856 350.313 96.1838 351.654 95.2107C352.995 94.2376 353.293 92.3617 352.32 91.0207L347.464 94.5446ZM357.45 99.5797C356.727 98.0889 354.932 97.4663 353.442 98.1892C351.951 98.912 351.328 100.707 352.051 102.197L357.45 99.5797ZM355.203 110.531C355.647 112.127 357.301 113.062 358.897 112.618C360.493 112.174 361.428 110.52 360.984 108.924L355.203 110.531ZM362.776 118.755C362.628 117.105 361.17 115.887 359.52 116.036C357.869 116.184 356.652 117.642 356.8 119.292L362.776 118.755ZM356.736 128.871C356.566 130.519 357.763 131.994 359.411 132.164C361.059 132.335 362.534 131.137 362.704 129.489L356.736 128.871ZM360.339 140.726C360.847 139.149 359.981 137.459 358.404 136.95C356.827 136.442 355.137 137.308 354.628 138.885L360.339 140.726ZM350.496 148.256C349.675 149.696 350.177 151.528 351.617 152.348C353.057 153.168 354.889 152.666 355.709 151.227L350.496 148.256ZM349.064 160.563C350.155 159.315 350.027 157.42 348.779 156.33C347.532 155.24 345.636 155.367 344.546 156.615L349.064 160.563ZM337.061 163.656C335.75 164.669 335.508 166.554 336.521 167.865C337.534 169.176 339.418 169.417 340.729 168.404L337.061 163.656ZM331.054 174.497C332.534 173.752 333.129 171.948 332.384 170.468C331.638 168.989 329.835 168.393 328.355 169.139L331.054 174.497ZM318.763 172.879C317.17 173.333 316.246 174.993 316.7 176.587C317.154 178.18 318.814 179.104 320.407 178.65L318.763 172.879ZM309.18 180.74C310.83 180.589 312.045 179.13 311.894 177.48C311.743 175.83 310.283 174.614 308.633 174.765L309.18 180.74ZM297.091 174.64C295.445 174.453 293.958 175.636 293.771 177.282C293.584 178.928 294.767 180.414 296.413 180.602L297.091 174.64ZM282.647 177.398C284.207 177.958 285.925 177.148 286.485 175.589C287.045 174.03 286.235 172.312 284.676 171.751L282.647 177.398ZM272.432 173.366C271.334 174.607 271.449 176.503 272.69 177.601C273.931 178.699 275.827 178.584 276.925 177.343L272.432 173.366ZM270.226 183.797C271.506 182.745 271.691 180.855 270.639 179.575C269.588 178.295 267.697 178.109 266.417 179.161L270.226 183.797ZM259.563 183.948C258.135 184.789 257.659 186.627 258.499 188.055C259.339 189.483 261.178 189.96 262.606 189.119L259.563 183.948ZM254.26 193.199C255.8 192.588 256.553 190.845 255.942 189.304C255.331 187.764 253.588 187.011 252.047 187.622L254.26 193.199ZM244.055 190.103C242.44 190.472 241.43 192.081 241.799 193.696C242.168 195.311 243.777 196.322 245.392 195.952L244.055 190.103ZM236.215 197.331C237.868 197.209 239.108 195.77 238.985 194.117C238.863 192.465 237.424 191.225 235.772 191.347L236.215 197.331ZM226.075 191.235C224.426 191.074 222.959 192.28 222.798 193.929C222.636 195.578 223.843 197.045 225.492 197.207L226.075 191.235ZM213.543 194.827C215.128 195.311 216.805 194.419 217.289 192.834C217.772 191.249 216.88 189.573 215.296 189.089L213.543 194.827ZM205.169 184.841C203.714 184.049 201.892 184.586 201.1 186.042C200.308 187.497 200.846 189.319 202.301 190.111L205.169 184.841ZM192.236 183.218C193.5 184.289 195.393 184.133 196.464 182.869C197.536 181.605 197.38 179.712 196.116 178.641L192.236 183.218ZM187.261 175.627C186.529 177.109 185.725 178.553 184.853 179.954L189.946 183.125C190.921 181.559 191.822 179.943 192.641 178.283L187.261 175.627ZM178.83 187.818C176.585 190.232 174.105 192.442 171.422 194.416L174.978 199.249C177.96 197.055 180.722 194.594 183.224 191.904L178.83 187.818ZM162.914 199.538C159.96 200.965 156.848 202.137 153.61 203.025L155.197 208.812C158.789 207.827 162.243 206.525 165.524 204.941L162.914 199.538ZM143.822 204.782C142.183 204.926 140.522 205 138.842 205V211C140.698 211 142.535 210.919 144.35 210.758L143.822 204.782ZM138.842 205C136.987 205 135.156 204.91 133.352 204.734L132.77 210.706C134.767 210.901 136.793 211 138.842 211V205ZM122.601 202.599C119.058 201.521 115.676 200.098 112.497 198.374L109.636 203.648C113.168 205.563 116.922 207.142 120.853 208.339L122.601 202.599ZM103.457 192.205C100.655 189.839 98.1142 187.198 95.8816 184.327L91.1454 188.01C93.6371 191.214 96.4683 194.157 99.5866 196.789L103.457 192.205ZM90.1422 175.05C89.3597 173.413 88.6648 171.73 88.0632 170.007L82.3984 171.984C83.0733 173.917 83.8522 175.804 84.7288 177.638L90.1422 175.05ZM83.7515 168.386C82.7243 168.968 81.675 169.518 80.605 170.035L83.2151 175.438C84.4034 174.863 85.5689 174.252 86.7101 173.605L83.7515 168.386ZM74.0206 172.701C71.7916 173.439 69.4954 174.04 67.1429 174.493L68.2776 180.385C70.8855 179.882 73.4323 179.216 75.9058 178.397L74.0206 172.701ZM60.0866 175.389C58.9104 175.463 57.7234 175.5 56.5268 175.5V181.5C57.8489 181.5 59.1614 181.459 60.4628 181.377L60.0866 175.389ZM56.5268 175.5C54.7855 175.5 53.0644 175.421 51.3671 175.265L50.8203 181.24C52.6991 181.412 54.6027 181.5 56.5268 181.5V175.5ZM41.2364 173.379C37.8899 172.426 34.6812 171.168 31.6451 169.639L28.946 174.997C32.3181 176.696 35.8799 178.092 39.5925 179.15L41.2364 173.379ZM22.9393 164.156C20.2095 162.047 17.7017 159.688 15.4537 157.115L10.9356 161.063C13.4421 163.932 16.2349 166.559 19.2709 168.904L22.9393 164.156ZM9.50422 148.756C7.81715 145.795 6.42733 142.659 5.37176 139.385L-0.33883 141.226C0.84553 144.9 2.40345 148.414 4.29109 151.727L9.50422 148.756ZM3.26367 129.371C3.08934 127.688 3 125.979 3 124.25H-3C-3 126.186 -2.89996 128.101 -2.70442 129.989L3.26367 129.371ZM3 124.25C3 122.79 3.06373 121.344 3.18855 119.916L-2.78867 119.394C-2.92865 120.995 -3 122.615 -3 124.25H3ZM4.69845 111.39C5.45694 108.58 6.4586 105.862 7.68122 103.258L2.25024 100.708C0.880524 103.625 -0.24304 106.673 -1.09432 109.827L4.69845 111.39ZM12.0307 95.7541C13.6903 93.3834 15.5519 91.1514 17.5927 89.081L13.3197 84.869C11.0462 87.1755 8.96922 89.665 7.11542 92.313L12.0307 95.7541ZM24.1866 83.4089C25.3577 82.5573 26.5666 81.7508 27.8106 80.9921L24.6863 75.8697C23.304 76.7128 21.9601 77.6093 20.658 78.5561L24.1866 83.4089ZM29.2071 77.935C29.0943 77.2615 28.9951 76.5836 28.9099 75.9015L22.9561 76.6452C23.0517 77.4104 23.163 78.171 23.2897 78.9268L29.2071 77.935ZM28.5706 71.8048C28.5425 71.1228 28.5283 70.4372 28.5283 69.7482H22.5283C22.5283 70.5195 22.5442 71.2874 22.5757 72.0517L28.5706 71.8048ZM28.5283 69.7482C28.5283 68.0189 28.6177 66.3106 28.792 64.6271L22.8239 64.0091C22.6284 65.8975 22.5283 67.8121 22.5283 69.7482H28.5283ZM30.9001 54.6133C31.9557 51.3389 33.3455 48.203 35.0325 45.2422L29.8194 42.2718C27.9318 45.5846 26.3739 49.0985 25.1895 52.7723L30.9001 54.6133ZM40.982 36.8833C43.2301 34.3107 45.7379 31.951 48.4676 29.8419L44.7992 25.094C41.7632 27.4397 38.9705 30.0668 36.4639 32.9353L40.982 36.8833ZM57.1734 24.3598C60.2095 22.8306 63.4182 21.5723 66.7647 20.6189L65.1208 14.8485C61.4083 15.9062 57.8464 17.3027 54.4744 19.0011L57.1734 24.3598ZM76.8954 18.7329C78.5927 18.5776 80.3138 18.498 82.0551 18.498V12.498C80.131 12.498 78.2274 12.5859 76.3486 12.7579L76.8954 18.7329ZM82.0551 18.498C83.8607 18.498 85.6445 18.5836 87.4026 18.7504L87.9695 12.7773C86.0233 12.5925 84.0502 12.498 82.0551 12.498V18.498ZM97.8904 20.7772C99.6104 21.2865 101.293 21.8766 102.934 22.5427L105.191 16.9835C103.37 16.244 101.502 15.5891 99.5939 15.0241L97.8904 20.7772ZM106.338 21.718C107.605 20.2436 108.956 18.8377 110.385 17.507L106.296 13.116C104.705 14.5975 103.199 16.1641 101.787 17.8083L106.338 21.718ZM119.748 10.5339C123.076 8.5788 126.645 6.96205 130.403 5.73422L128.539 0.0309706C124.369 1.39346 120.407 3.18837 116.709 5.36061L119.748 10.5339ZM141.843 3.303C143.766 3.10282 145.719 3 147.699 3V-3C145.512 -3 143.35 -2.88638 141.222 -2.66474L141.843 3.303ZM147.699 3C149.623 3 151.522 3.09705 153.391 3.28612L153.995 -2.68342C151.925 -2.89276 149.825 -3 147.699 -3V3ZM164.525 5.58254C168.187 6.74263 171.673 8.27105 174.936 10.1216L177.896 4.90251C174.271 2.84665 170.4 1.14991 166.337 -0.13733L164.525 5.58254ZM184.161 16.7303C185.578 17.9932 186.923 19.3285 188.19 20.7298L192.641 16.7065C191.229 15.1444 189.731 13.6571 188.154 12.2513L184.161 16.7303ZM191.321 21.5783C192.669 21.1517 194.04 20.775 195.433 20.4505L194.072 14.6069C192.527 14.9668 191.006 15.3847 189.51 15.858L191.321 21.5783ZM203.864 19.1605C205.272 19.0542 206.695 19 208.133 19V13C206.545 13 204.97 13.0599 203.412 13.1775L203.864 19.1605ZM208.133 19C209.572 19 210.997 19.0543 212.406 19.1608L212.858 13.1779C211.299 13.06 209.723 13 208.133 13V19ZM220.845 20.4536C223.649 21.1075 226.366 21.9728 228.977 23.0308L231.231 17.47C228.332 16.2955 225.318 15.3355 222.208 14.6104L220.845 20.4536ZM236.603 26.843C237.825 27.5793 239.013 28.3615 240.166 29.187L243.66 24.3094C242.379 23.3916 241.058 22.5222 239.7 21.7041L236.603 26.843ZM243.696 29.1604C244.863 28.2977 246.068 27.4799 247.309 26.71L244.145 21.6121C242.766 22.4677 241.426 23.3767 240.129 24.3361L243.696 29.1604ZM255.071 22.7207C257.733 21.6131 260.507 20.7066 263.374 20.0213L261.98 14.1857C258.8 14.9456 255.721 15.9514 252.766 17.1811L255.071 22.7207ZM272.008 18.6666C273.45 18.555 274.909 18.498 276.382 18.498V12.498C274.754 12.498 273.141 12.561 271.545 12.6845L272.008 18.6666ZM276.382 18.498C278.124 18.498 279.845 18.5776 281.542 18.7329L282.089 12.7579C280.21 12.5859 278.306 12.498 276.382 12.498V18.498ZM291.673 20.6189C295.019 21.5723 298.228 22.8306 301.264 24.3598L303.963 19.0011C300.591 17.3027 297.029 15.9062 293.317 14.8485L291.673 20.6189ZM309.97 29.8419C312.7 31.951 315.207 34.3107 317.455 36.8833L321.973 32.9353C319.467 30.0669 316.674 27.4397 313.638 25.094L309.97 29.8419ZM323.405 45.2422C325.092 48.203 326.482 51.3389 327.537 54.6133L333.248 52.7723C332.064 49.0985 330.506 45.5846 328.618 42.2718L323.405 45.2422ZM329.645 64.6271C329.82 66.3106 329.909 68.0189 329.909 69.7482H335.909C335.909 67.8121 335.809 65.8975 335.613 64.0091L329.645 64.6271ZM329.909 69.7482C329.909 70.3325 329.899 70.9144 329.879 71.4938L335.875 71.7032C335.898 71.0541 335.909 70.4024 335.909 69.7482H329.909ZM329.634 74.9746C329.573 75.5546 329.502 76.1317 329.42 76.7057L335.361 77.5474C335.452 76.9033 335.532 76.2559 335.601 75.6054L329.634 74.9746ZM330.9 79.73C332.201 80.475 333.467 81.2714 334.693 82.1161L338.097 77.1747C336.733 76.2357 335.327 75.3507 333.881 74.523L330.9 79.73ZM341.611 87.7906C343.757 89.8763 345.716 92.1359 347.464 94.5446L352.32 91.0207C350.368 88.331 348.183 85.8114 345.794 83.4886L341.611 87.7906ZM352.051 102.197C353.342 104.86 354.401 107.646 355.203 110.531L360.984 108.924C360.084 105.686 358.896 102.563 357.45 99.5797L352.051 102.197ZM356.8 119.292C356.932 120.761 357 122.247 357 123.75H363C363 122.068 362.924 120.402 362.776 118.755L356.8 119.292ZM357 123.75C357 125.479 356.911 127.188 356.736 128.871L362.704 129.489C362.9 127.601 363 125.686 363 123.75H357ZM354.628 138.885C353.573 142.159 352.183 145.295 350.496 148.256L355.709 151.227C357.596 147.914 359.154 144.4 360.339 140.726L354.628 138.885ZM344.546 156.615C342.298 159.188 339.79 161.547 337.061 163.656L340.729 168.404C343.765 166.059 346.558 163.432 349.064 160.563L344.546 156.615ZM328.355 169.139C325.319 170.668 322.11 171.926 318.763 172.879L320.407 178.65C324.12 177.592 327.682 176.196 331.054 174.497L328.355 169.139ZM308.633 174.765C306.936 174.921 305.214 175 303.473 175V181C305.397 181 307.301 180.912 309.18 180.74L308.633 174.765ZM303.473 175C301.312 175 299.183 174.878 297.091 174.64L296.413 180.602C298.729 180.865 301.085 181 303.473 181V175ZM284.676 171.751C282.659 171.027 280.7 170.19 278.808 169.247L276.133 174.618C278.235 175.665 280.409 176.594 282.647 177.398L284.676 171.751ZM275.071 170.131C274.236 171.243 273.356 172.323 272.432 173.366L276.925 177.343C277.955 176.179 278.937 174.975 279.87 173.734L275.071 170.131ZM266.417 179.161C264.273 180.923 261.982 182.525 259.563 183.948L262.606 189.119C265.294 187.538 267.841 185.757 270.226 183.797L266.417 179.161ZM252.047 187.622C249.478 188.641 246.808 189.474 244.055 190.103L245.392 195.952C248.445 195.254 251.408 194.33 254.26 193.199L252.047 187.622ZM235.772 191.347C234.388 191.45 232.99 191.502 231.578 191.502V197.502C233.138 197.502 234.685 197.445 236.215 197.331L235.772 191.347ZM231.578 191.502C229.719 191.502 227.884 191.412 226.075 191.235L225.492 197.207C227.494 197.402 229.524 197.502 231.578 197.502V191.502ZM215.296 189.089C211.744 188.004 208.354 186.574 205.169 184.841L202.301 190.111C205.839 192.036 209.603 193.624 213.543 194.827L215.296 189.089ZM196.116 178.641C194.715 177.454 193.381 176.199 192.118 174.88L187.785 179.03C189.192 180.499 190.678 181.897 192.236 183.218L196.116 178.641Z" fill="#247158" mask="url(#path-1-inside-1_362_915)"/>
</svg>
