<svg width="337" height="121" viewBox="0 0 337 121" fill="none" xmlns="http://www.w3.org/2000/svg">
<path d="M295.39 52.5026C288.365 63.9294 287.962 76.6532 294.228 84.9634C297.244 88.9579 303.665 94.4269 309.128 92.8537C319.448 89.8783 318.603 63.8548 318.525 61.8932C317.93 47.2375 312.195 35.9834 308.191 29.6026" fill="#0A7E5B"/>
<path d="M48.7392 26.556C36.9084 32.8772 30.1407 43.6594 31.3579 53.9958C31.9461 58.9662 34.7306 66.9278 40.2408 68.3257C50.6524 70.964 63.0529 48.0694 63.975 46.3362C70.8561 33.3827 71.5831 20.7726 71.3458 13.2435" fill="#0A7E5B"/>
<path d="M12.0715 30.2351C8.25 43.0928 11.1605 55.4859 19.3673 61.8867C23.3158 64.9625 30.9355 68.5792 35.8034 65.6431C44.999 60.0932 37.4341 35.1792 36.8497 33.3049C32.4746 19.3049 24.0175 9.923 18.4961 4.7988" fill="#0A7E5B"/>
<path d="M63.0122 41.903C49.614 42.5449 38.8788 49.387 35.5493 59.2478C33.951 63.9909 33.0552 72.3777 37.435 76.0019C45.7117 82.8471 66.7265 67.4747 68.3024 66.3038C80.0704 57.5484 86.1307 46.4662 89.1426 39.5617" fill="#0A7E5B"/>
<path d="M97.1121 29.4724C88.8397 40.0314 87.0003 52.628 92.2863 61.5935C94.8309 65.9035 100.592 72.0636 106.198 71.1183C116.789 69.3292 118.892 43.3771 119.036 41.4192C120.103 26.7903 115.677 14.9598 112.421 8.16714" fill="#0A7E5B"/>
<path d="M142.718 29.5373C134.445 40.0963 132.606 52.6929 137.892 61.6584C140.436 65.9684 146.198 72.1286 151.803 71.1832C162.394 69.3941 164.497 43.4421 164.642 41.4841C165.708 26.8552 161.283 15.0247 158.027 8.23208" fill="#0A7E5B"/>
<path d="M200.935 34.8625C189.979 42.6009 184.599 54.1386 187.087 64.2445C188.287 69.1037 192.037 76.659 197.678 77.3634C208.336 78.6912 217.804 54.4366 218.504 52.6025C223.727 38.8962 222.886 26.2932 221.718 18.8515" fill="#0A7E5B"/>
<path d="M269.707 37.1433C258.75 44.8816 253.371 56.4193 255.859 66.5252C257.059 71.3845 260.808 78.9397 266.449 79.6441C277.108 80.972 286.576 56.7173 287.276 54.8832C292.499 41.1769 291.658 28.5739 290.49 21.1322" fill="#0A7E5B"/>
<path d="M177.801 42.8601C169.529 53.4191 167.689 66.0157 172.975 74.9812C175.52 79.2912 181.281 85.4513 186.887 84.506C197.478 82.7169 199.581 56.7648 199.725 54.8069C200.792 40.178 196.367 28.3475 193.11 21.5548" fill="#0A7E5B"/>
<path d="M283.496 48.1897C275.224 58.7486 273.385 71.3453 278.671 80.3108C281.215 84.6208 286.977 90.7809 292.582 89.8356C303.173 88.0465 305.276 62.0944 305.42 60.1365C306.487 45.5076 302.062 33.6771 298.805 26.8844" fill="#0A7E5B"/>
<path d="M233.444 48.6376C227.718 60.7673 228.716 73.4583 235.857 81.0294C239.294 84.6683 246.277 89.3984 251.534 87.2343C261.464 83.1427 257.764 57.3698 257.471 55.4286C255.269 40.927 248.332 30.3714 243.651 24.4693" fill="#0A7E5B"/>
<path d="M250.32 39.7552C244.593 51.8849 245.591 64.576 252.733 72.1471C256.169 75.786 263.153 80.5161 268.409 78.352C278.34 74.2603 274.64 48.4874 274.347 46.5463C272.145 32.0447 265.208 21.4891 260.527 15.587" fill="#0A7E5B"/>
<path d="M216.882 45.969C208.609 56.5279 206.77 69.1246 212.056 78.0901C214.6 82.4001 220.362 88.5602 225.967 87.6149C236.558 85.8258 238.662 59.8737 238.806 57.9158C239.872 43.2869 235.447 31.4564 232.191 24.6637" fill="#0A7E5B"/>
<path d="M117.425 41.4307C111.638 53.5315 112.572 66.2274 119.675 73.8342C123.094 77.4903 130.053 82.2555 135.321 80.1177C145.272 76.076 141.701 50.2849 141.417 48.3422C139.288 33.8298 132.404 23.2395 127.753 17.314" fill="#0A7E5B"/>
<path d="M160.059 49.4243C154.271 61.5251 155.206 74.221 162.309 81.8278C165.727 85.484 172.687 90.2491 177.954 88.1114C187.905 84.0696 184.335 58.2785 184.051 56.3359C181.922 41.8235 175.038 31.2331 170.387 25.3076" fill="#0A7E5B"/>
<path d="M309.276 51.2007C303.488 63.3015 304.422 75.9974 311.526 83.6042C314.944 87.2603 321.903 92.0255 327.171 89.8878C337.122 85.846 333.551 60.0549 333.268 58.1122C331.138 43.5998 324.255 33.0095 319.604 27.084" fill="#0A7E5B"/>
<path d="M106.888 47.7942C93.5069 46.8552 82.0413 52.3867 77.5747 61.7874C75.4294 66.3094 73.5531 74.5326 77.476 78.6469C84.8899 86.4184 107.567 73.6253 109.27 72.648C121.986 65.338 129.309 55.0458 133.112 48.5436" fill="#0A7E5B"/>
<path d="M73.879 31.4086C63.8046 40.2646 59.6783 52.3076 63.224 62.0928C64.9318 66.7975 69.4611 73.9127 75.1449 74.0152C85.8839 74.2059 92.7278 49.0843 93.2297 47.1863C96.9705 33.0036 94.7983 20.5607 92.8477 13.2848" fill="#0A7E5B"/>
<path d="M110.812 68.3819C99.1247 61.7997 86.3948 61.8846 78.3308 68.4645C74.4547 71.631 69.2357 78.2569 71.0171 83.6554C74.3857 93.8542 100.358 92.0126 102.315 91.8592C116.937 90.7033 127.963 84.5416 134.186 80.2964" fill="#0A7E5B"/>
</svg>
