<svg width="621" height="409" viewBox="0 0 621 409" fill="none" xmlns="http://www.w3.org/2000/svg">
<path d="M201.785 78.8606C159.68 103.858 158.644 120.599 155.809 151.938C152.973 183.277 201.555 238.596 263.917 257.683C311.345 272.2 360.603 248.747 371.849 221.291C377.708 206.987 378.309 207.092 376.011 180.977C373.714 154.862 391.982 143.228 366.087 105.458C341.237 69.2119 329.551 43.623 299.83 43.6199C232.076 43.613 248.246 51.2762 201.785 78.8606Z" fill="#DF823E"/>
<path d="M65.7123 54.0944C21.4365 80.3813 20.3466 97.9855 17.3652 130.941C14.3837 163.896 65.471 222.066 131.048 242.138C180.922 257.404 232.72 232.74 244.546 203.869C250.707 188.827 251.338 188.938 248.922 161.477C246.506 134.015 265.717 121.781 238.486 82.0633C212.355 43.9482 200.066 17.0398 168.813 17.0366C97.5657 17.0293 114.569 25.0877 65.7123 54.0944Z" fill="#247158"/>
<path d="M153.041 280.182H96.1008C90.6408 295.002 82.8408 315.542 79.4608 323.602C78.4208 325.682 76.6008 326.982 72.7008 326.982C66.4608 326.982 56.0608 325.422 50.0808 323.602L49.8208 322.562C63.0808 290.842 103.121 194.382 113.001 170.462L111.181 165.522C122.101 163.182 138.481 162.142 141.341 162.142C143.681 162.142 145.761 163.442 147.321 167.082C159.281 195.942 177.481 245.342 185.801 267.442C196.461 295.002 202.441 311.122 207.641 322.822L207.381 323.862C201.661 325.682 181.901 326.982 175.401 326.982C171.241 326.982 169.161 325.682 166.561 318.402C161.881 305.402 158.501 294.222 153.041 280.182ZM103.381 259.382H147.321C135.881 227.402 127.821 206.342 125.221 199.842C119.241 215.962 113.001 233.382 103.381 259.382ZM324.45 304.622V305.402C324.45 318.402 317.69 328.542 300.79 328.542C290.39 328.542 283.37 323.602 279.47 314.502C272.97 321.262 260.75 328.542 249.57 328.542C232.67 328.542 217.07 316.062 217.07 295.522C217.07 269.262 249.83 261.982 269.59 258.342C274.53 257.562 277.39 257.042 279.21 256.782V251.842C279.21 239.622 270.37 232.342 258.67 232.342C248.01 232.342 238.39 237.542 232.67 240.662C223.05 241.702 220.45 230.002 220.97 225.062C234.49 215.962 253.47 207.382 269.33 207.382C290.13 207.382 312.23 220.642 312.23 251.062C312.23 261.722 311.19 280.182 311.19 297.602C311.19 300.722 314.31 304.622 321.85 304.622C322.63 304.622 323.67 304.622 324.45 304.622ZM249.83 289.542C249.83 299.942 257.11 305.662 265.95 305.662C270.89 305.662 273.23 304.882 276.61 302.282C277.91 300.982 278.69 299.162 278.69 294.482V271.602C256.07 274.722 249.83 283.042 249.83 289.542Z" fill="#0F0F0F"/>
<path d="M181.627 75.3868L186.491 50.4161L178.01 48.7643C177.256 48.6174 176.944 48.2142 177.475 47.2419C178.278 45.8823 178.999 45.1915 179.571 44.765C180.289 45.1003 181.551 45.3952 186.31 46.3221L203.083 49.5891C202.408 52.0495 200.906 52.9796 199.918 53.0316L192.38 51.5633L188.544 71.2571C187.911 74.5081 187.702 76.0812 187.566 77.0327C186.201 77.0113 184.336 76.7947 182.451 76.4276C181.791 76.2991 181.489 76.0936 181.627 75.3868ZM199.768 60.0931L199.805 59.9047C200.393 58.8945 202.44 57.924 203.759 58.1809C205.832 58.5847 206.304 60.6816 205.735 63.6027C207.773 60.6742 210.073 59.4107 212.523 59.8879C213.7 60.1173 214.627 60.8846 214.95 61.4854C214.757 62.4748 213.966 64.2768 212.907 65.1953C212.429 65.6401 211.818 65.7655 211.157 65.3923C210.496 65.0191 210.034 64.8802 209.375 64.7517C208.621 64.6049 207.144 64.9041 205.958 66.7269C205.528 67.4257 205.324 67.9727 205.122 69.0092L203.195 78.9033C203.048 79.6571 202.833 80.0065 201.864 79.9643C200.178 79.8316 198.755 79.6034 197.012 79.2638C197.64 76.7943 198.2 73.9203 198.824 70.7165L200.375 62.7542C200.586 61.6705 200.477 60.7203 199.768 60.0931ZM215.88 74.968L217.404 67.147C217.973 64.2259 218.154 62.7941 218.234 61.8805C219.325 61.7998 222.113 62.0493 223.385 62.2971C224.045 62.4256 224.187 62.6979 223.664 65.3834C223.059 68.493 222.37 72.0266 221.728 75.3246C221.021 78.9524 223.051 80.0813 224.747 80.4116C226.302 80.7145 227.674 80.1993 228.565 79.6394L231.217 66.0233C231.483 64.6569 231.671 64.4489 232.565 64.3785C234.674 64.5938 235.871 64.729 237.472 65.0411C237.28 66.0305 236.487 69.3481 235.679 73.4941L234.275 80.7027C233.908 82.5873 234.429 83.1777 235.655 83.6611L235.6 83.9437C235.183 85.3297 233.411 86.6471 232.186 86.4085C229.642 85.9129 228.844 84.486 228.683 82.5476C227.229 83.4869 225.669 83.9654 224.635 84.253C223.619 84.4464 222.622 84.5455 221.491 84.3253C216.449 83.3433 214.981 79.5852 215.88 74.968ZM250.838 67.351C252.769 67.7272 254.477 68.5 255.803 69.9807C255.658 71.224 254.679 72.9893 253.104 72.5359C252.197 71.9192 251.084 71.36 250 71.1489C248.54 70.8644 247.403 71.4255 247.183 72.5563C246.99 73.5457 247.634 74.2579 248.513 75.016C249.355 75.7178 251.074 76.9329 252.001 77.7002C254.146 79.4874 254.693 81.4521 254.289 83.5252C253.381 88.1895 248.841 89.6526 244.507 88.8083C242.669 88.4504 240.829 87.603 239.713 86.5543C239.136 86.0018 238.813 85.4009 238.951 84.6942C239.143 83.7048 239.882 82.675 240.652 82.2381C241.844 83.3994 243.704 84.6421 245.636 85.0183C247.379 85.3579 248.525 84.7497 248.754 83.5718C248.919 82.7237 248.52 82.0103 247.339 81.0466C246.289 80.1576 245.175 79.3536 244.078 78.4554C242.405 77.0047 241.34 74.939 241.826 72.442C242.643 68.2488 246.739 66.5526 250.838 67.351ZM270.844 88.8525L270.92 88.9651C270.935 90.1418 270.462 91.5656 269.477 92.1071C268.153 92.8763 266.12 93.0183 264 92.6053C259.242 91.6784 258.283 88.3132 258.926 85.0151L261.119 73.7548C259.329 73.406 258.59 72.4307 258.691 71.9125C259.654 70.7309 264.093 68.0257 265.07 67.5313C265.952 67.0185 266.957 66.6275 268.832 66.797C268.415 68.1829 267.934 69.8986 267.677 71.2178L274.65 72.576C273.451 75.7168 272.387 75.6562 271.427 75.5669C270.372 75.4592 268.846 75.2598 266.867 74.8744C265.926 78.701 265.083 83.2803 264.839 85.2867C264.625 87.6412 265.779 88.7462 267.381 89.0582C268.747 89.3244 270.167 89.063 270.844 88.8525ZM281.857 73.393C282.517 73.5214 282.744 73.8592 282.777 74.6969C283.107 78.5266 283.344 82.5827 283.67 89.4436C287.288 82.6664 288.39 80.7782 289.9 77.7958C289.935 77.3626 289.904 76.7697 289.883 76.3745C290.739 76.2478 293.299 76.1596 294.242 76.3432C294.995 76.49 295.036 77.0358 295.117 78.1274C295.331 81.5434 295.877 87.0289 296.154 91.6308C298.729 86.9487 301.703 81.2196 303.436 77.5961C304.708 77.8438 306.188 78.2789 307.189 78.914C307.756 79.2688 307.768 79.956 306.891 81.4477C303.811 86.716 300.889 91.6729 297.631 97.1021C297.118 97.9802 296.856 98.3204 295.868 98.3724C294.682 98.4349 293.194 98.2917 291.922 98.044C291.596 93.1881 291.163 89.3872 290.768 83.8821C289.155 86.8932 286.925 90.8111 284.807 94.6531C284.294 95.5312 283.937 95.853 283.147 95.8946C281.97 95.91 280.473 95.8139 279.342 95.5937C278.908 91.548 278.355 86.3544 277.657 80.6438C277.227 77.3323 276.887 75.3101 276.539 73.5797C277.611 73.3484 280.538 73.136 281.857 73.393ZM321.012 81.0197C327.844 82.3503 330.441 87.8443 329.304 93.6865C328.019 100.283 322.832 104.065 316.283 102.789C310.205 101.605 306.66 96.7091 307.963 90.0188C309.22 83.5641 314.699 79.7899 321.012 81.0197ZM319.871 84.3673C316.997 83.8075 314.864 86.4728 314.066 90.5718C313.02 95.9429 314.795 98.8804 317.48 99.4035C320.354 99.9633 322.422 97.383 323.266 93.0485C324.046 89.0437 323.358 85.0464 319.871 84.3673ZM334.836 86.4019L334.873 86.2134C335.461 85.2032 337.508 84.2327 338.827 84.4897C340.9 84.8935 341.372 86.9903 340.803 89.9115C342.841 86.983 345.141 85.7194 347.59 86.1966C348.768 86.426 349.695 87.1933 350.018 87.7942C349.825 88.7836 349.034 90.5856 347.975 91.504C347.497 91.9488 346.886 92.0743 346.225 91.7011C345.564 91.3278 345.102 91.189 344.442 91.0605C343.689 90.9136 342.212 91.2129 341.026 93.0357C340.596 93.7345 340.392 94.2815 340.19 95.318L338.263 105.212C338.116 105.966 337.901 106.315 336.931 106.273C335.246 106.14 333.823 105.912 332.08 105.573C332.708 103.103 333.267 100.229 333.891 97.0253L335.442 89.0629C335.653 87.9793 335.545 87.029 334.836 86.4019ZM363.757 106.95L363.833 107.063C363.848 108.24 363.375 109.663 362.39 110.205C361.066 110.974 359.034 111.116 356.913 110.703C352.155 109.776 351.197 106.411 351.839 103.113L354.032 91.8526C352.242 91.5038 351.503 90.5285 351.604 90.0103C352.567 88.8287 357.007 86.1235 357.983 85.6291C358.865 85.1163 359.871 84.7253 361.745 84.8947C361.328 86.2807 360.847 87.9964 360.59 89.3156L367.563 90.6738C366.365 93.8146 365.301 93.754 364.34 93.6647C363.285 93.557 361.759 93.3576 359.78 92.9722C358.839 96.7988 357.996 101.378 357.752 103.384C357.538 105.739 358.692 106.844 360.294 107.156C361.66 107.422 363.08 107.161 363.757 106.95ZM378.428 84.3789L376.428 94.6499C378.662 93.4713 380.87 92.6789 383.509 93.1928C387.985 94.0646 389.595 97.8503 388.613 102.892L387.392 109.158C386.924 111.561 386.476 114.114 386.258 115.734C385.241 115.683 383.31 115.551 381.284 115.157C380.578 115.019 380.397 114.69 380.526 114.031C380.939 111.911 382.049 106.21 382.866 102.017C383.407 99.2369 382.25 97.3977 380.082 96.9755C378.575 96.6818 377.014 97.1604 375.813 97.8065L373.05 111.988C372.885 112.836 372.736 113.1 371.719 113.049C370.08 112.925 368.611 112.688 366.914 112.358C367.495 109.879 368.093 107.061 368.717 103.858L372.177 86.0953C372.727 83.2685 372.881 81.978 372.979 80.9703C373.995 80.7769 377.149 80.9022 378.186 81.1041C378.845 81.2326 378.988 81.5049 378.428 84.3789ZM390.016 124.78L390.053 124.591C391.769 123.312 395.405 119.961 397.752 116.946C397.581 116.571 397.256 115.48 397.12 114.671C396.712 112.245 394.686 100.554 393.621 96.4828C395.068 96.0801 397.496 95.9173 398.674 96.1468C399.522 96.3119 399.657 96.8761 399.84 97.6942C400.421 100.986 401.389 108.07 401.831 111.824C404.362 107.866 407.775 101.392 409.039 98.1657C409.972 98.3964 411.028 98.7488 412.189 99.3172C413.265 99.8201 413.249 100.404 412.746 101.48C410.605 106.197 407.517 111.757 403.617 116.964C399.381 122.643 394.576 127.477 393.493 127.266C391.844 126.945 390.397 125.587 390.016 124.78Z" fill="#0F0F0F"/>
<path d="M50.4736 146.452L44.5098 124.645C43.902 122.423 43.3828 120.524 42.6152 118.445C43.802 117.872 46.8617 116.687 50.0101 115.826C57.0477 113.901 62.6728 115 64.5722 121.945C66.3829 128.566 61.2918 132.695 58.295 133.564C57.5079 133.78 56.4177 133.978 55.7861 133.852C55.0366 133.659 53.836 132.545 53.4435 131.109C53.8392 131.101 54.5001 130.97 54.9631 130.843C57.278 130.21 59.7731 128.234 58.4942 123.557C57.304 119.205 54.0072 118.614 51.2293 119.374C50.72 119.513 50.0844 119.737 49.4616 120.006L54.8809 139.823C55.7673 143.064 56.2271 144.381 56.5266 145.294C55.8029 145.741 52.924 146.678 51.6739 147.02C51.0257 147.197 50.6636 147.147 50.4736 146.452ZM74.046 140.354L67.0945 114.935C66.3475 112.204 65.913 110.979 65.5671 110.078C66.3792 109.408 69.2747 108.168 70.247 107.903C70.9415 107.713 71.19 107.893 71.9497 110.671L78.0402 132.942C78.6607 135.21 79.437 137.685 79.8968 139.003C78.9878 139.5 75.4607 140.614 74.8588 140.778C74.3958 140.905 74.1727 140.817 74.046 140.354ZM102.243 129.109L102.281 129.248C103.011 131.736 102.107 133.526 99.4679 134.247C97.5696 134.767 96.041 134.09 95.0086 132.68C94.1593 134.306 92.4766 136.159 90.2543 136.767C87.1985 137.603 83.88 136.022 82.943 132.596C81.6388 127.827 86.8402 125.011 89.8786 123.384C90.6614 122.971 91.5957 122.566 92.1133 122.275L91.898 121.488C91.4125 119.531 89.6393 118.324 87.3243 118.957C85.7038 119.4 84.2859 120.584 83.3856 121.478C81.6393 122.552 80.5352 121.063 80.1554 119.674C81.7075 117.707 84.5642 115.233 87.6663 114.385C91.8333 113.245 95.9602 115.053 97.3531 120.146C97.8722 122.044 98.6493 125.614 99.4724 128.623C99.637 129.225 100.404 129.662 101.468 129.371C101.7 129.308 102.024 129.219 102.243 129.109ZM88.0395 130.307C88.4827 131.927 89.9987 132.557 91.4803 132.152C92.7304 131.81 93.3655 131.04 93.7902 130.227C93.9793 129.827 93.9916 129.326 93.7764 128.539L92.8647 125.205C88.9759 126.816 87.6217 128.779 88.0395 130.307ZM108.562 139.523L108.512 139.338C109.483 137.43 111.256 132.815 112.024 129.072C111.704 128.811 110.928 127.978 110.448 127.313C109.007 125.319 102.008 115.738 99.2478 112.561C100.367 111.559 102.471 110.336 103.629 110.02C104.462 109.792 104.833 110.238 105.359 110.89C107.34 113.583 111.348 119.503 113.409 122.672C113.923 118.003 114.112 110.686 113.814 107.234C114.753 107.027 115.856 106.875 117.148 106.87C118.336 106.844 118.58 107.374 118.606 108.561C118.778 113.739 118.475 120.092 117.289 126.488C116.009 133.456 113.846 139.92 112.781 140.211C111.16 140.654 109.261 140.078 108.562 139.523ZM129.231 91.4728C130.574 91.1056 131.938 91.1804 132.764 91.6514C133.358 92.7329 132.943 95.036 131.667 95.2853C131.272 95.294 130.678 95.307 130.354 95.3956C128.085 96.0161 127.464 98.4751 129.08 103.656C129.728 103.479 133.525 102.441 134.611 102.044C134.877 103.564 134.486 104.865 133.998 105.446C133.523 106.074 131.953 106.702 129.916 107.259C130.98 111.149 133.976 121.376 134.672 123.923C133.208 124.572 130.283 125.522 129.634 125.699C129.125 125.838 128.868 125.809 128.678 125.114C127.403 120.089 125.884 114.533 124.314 108.792C122.424 109.159 121.405 108.89 121.126 107.872C121.719 106.764 122.3 106.158 123.339 105.226C122.047 100.504 122.635 97.5565 124.085 95.219C125.536 92.8815 127.472 91.954 129.231 91.4728ZM140.504 114.615L138.402 106.929C137.617 104.059 137.145 102.695 136.811 101.841C137.754 101.284 140.363 100.272 141.614 99.9301C142.262 99.7528 142.51 99.9337 143.232 102.573C144.068 105.629 145.017 109.101 145.904 112.342C146.879 115.907 149.198 116.019 150.865 115.563C152.393 115.145 153.394 114.075 153.945 113.178L150.286 99.7977C149.919 98.455 149.994 98.1855 150.764 97.7261C152.751 96.9838 153.883 96.5746 155.457 96.1441C155.723 97.1164 156.483 100.442 157.597 104.516L159.535 111.6C160.041 113.452 160.77 113.75 162.083 113.64L162.159 113.918C162.4 115.345 161.395 117.311 160.192 117.641C157.691 118.324 156.344 117.399 155.34 115.733C154.453 117.219 153.267 118.34 152.467 119.056C151.643 119.68 150.793 120.211 149.681 120.515C144.727 121.87 141.745 119.152 140.504 114.615ZM167.414 114.819L160.463 89.4008C159.716 86.6691 159.281 85.4443 158.935 84.5437C159.747 83.8737 162.643 82.634 163.615 82.3681C164.31 82.1781 164.558 82.359 165.318 85.137L171.408 107.407C172.029 109.676 172.805 112.151 173.265 113.468C172.356 113.966 168.829 115.079 168.227 115.244C167.764 115.371 167.541 115.282 167.414 114.819Z" fill="#F3FFF6"/>
<path d="M289.344 173.802L287.482 159.168C287.292 157.676 287.143 156.502 286.878 155.18C287.707 154.849 289.111 154.477 290.409 154.28L298.122 153.298C298.118 154.782 297.809 155.402 297.481 155.863C297.029 156.115 295.95 156.252 294.521 156.434L291.22 156.854L291.939 162.504L298.859 161.624C298.856 163.882 298.21 164.384 297.099 164.525L292.274 165.139L293.07 171.392C293.82 171.458 294.844 171.393 296.05 171.239C297.352 171.073 299.665 170.747 301.173 170.426L301.244 170.481C301.136 171.914 300.626 172.721 299.889 173.267C299.457 173.419 298.036 173.664 295.592 173.975C292.799 174.33 290.683 174.438 289.901 174.376L289.344 173.802ZM313.482 171.118L312.44 162.928C312.206 161.087 311.088 160.164 309.66 160.346C308.422 160.504 307.733 161.172 307.111 161.864L308.319 171.355C308.391 171.927 308.316 172.098 307.658 172.246C306.599 172.542 305.65 172.695 304.476 172.844C304.325 171.154 304.111 169.213 303.836 167.055L303.174 161.849C303.052 160.896 302.897 160.432 302.38 160.176L302.356 159.985C302.541 159.155 303.547 158.188 304.499 158.067C305.737 157.91 306.358 158.992 306.638 159.924C307.826 158.612 309.197 157.469 310.816 157.263C314.847 156.75 315.97 159.995 316.285 162.471L316.794 166.471C317.004 168.121 317.29 169.859 317.49 170.93C316.768 171.087 315.555 171.435 314.19 171.608C313.745 171.665 313.531 171.499 313.482 171.118ZM321.338 155.925C321.814 155.864 322.104 156.117 322.288 156.546C323.32 158.576 325.01 161.973 326.634 165.606C327.439 161.793 328.395 157.64 328.861 154.967C329.75 154.854 330.532 154.916 331.338 155.168C332.041 155.369 331.971 156.088 331.668 157.255C330.759 160.758 329.499 165.306 328.59 168.808C328.464 169.34 328.203 169.567 327.743 169.755C326.973 170.046 325.91 170.311 325.275 170.391C323.832 167.414 322.278 164.579 320.368 160.983C319.519 159.382 318.854 158.208 318.197 157.099C318.878 156.625 320.512 156.03 321.338 155.925ZM335.643 147.362C336.849 147.209 337.72 147.969 337.869 149.144C338.023 150.35 337.287 151.411 336.081 151.565C335.097 151.69 333.976 151.252 333.787 149.76C333.593 148.236 334.817 147.467 335.643 147.362ZM338.635 155.917L340.089 167.345C340.161 167.917 339.928 168.108 339.241 168.292C338.619 168.468 337.48 168.645 336.242 168.802C336.108 167.497 335.937 165.648 335.699 163.775L335.012 158.378C334.762 156.41 334.573 155.434 334.433 154.839C335.135 154.524 337.146 154.107 337.781 154.026C338.257 153.965 338.404 154.108 338.635 155.917ZM342.365 155.023L342.348 154.896C342.509 154.134 343.603 153.092 344.491 152.978C345.888 152.801 346.625 154.03 346.876 155.998C347.553 153.718 348.745 152.437 350.396 152.227C351.189 152.126 351.936 152.418 352.266 152.731C352.351 153.398 352.227 154.704 351.749 155.507C351.539 155.888 351.178 156.095 350.682 155.997C350.186 155.899 349.864 155.908 349.42 155.964C348.912 156.029 348.04 156.527 347.67 157.929C347.544 158.461 347.529 158.85 347.618 159.548L348.466 166.215C348.531 166.723 348.468 166.989 347.845 167.165C346.75 167.433 345.802 167.586 344.627 167.735C344.508 166.041 344.262 164.104 343.987 161.946L343.305 156.581C343.212 155.851 342.945 155.272 342.365 155.023ZM360.574 150.932C365.177 150.346 367.97 153.281 368.471 157.218C369.037 161.662 366.544 165.14 362.131 165.702C358.036 166.223 354.768 163.864 354.195 159.357C353.641 155.008 356.321 151.473 360.574 150.932ZM360.552 153.29C358.616 153.536 357.822 155.669 358.174 158.431C358.634 162.05 360.372 163.538 362.182 163.308C364.118 163.062 364.887 160.996 364.516 158.076C364.172 155.377 362.901 152.991 360.552 153.29ZM381.868 162.416L380.826 154.226C380.592 152.385 379.474 151.463 378.046 151.644C376.808 151.802 376.119 152.47 375.497 153.162L376.705 162.654C376.778 163.225 376.703 163.396 376.044 163.544C374.985 163.84 374.037 163.993 372.862 164.143C372.711 162.452 372.497 160.512 372.222 158.353L371.56 153.147C371.439 152.195 371.283 151.731 370.766 151.474L370.742 151.283C370.927 150.453 371.933 149.487 372.885 149.366C374.123 149.208 374.745 150.29 375.024 151.222C376.212 149.91 377.583 148.768 379.202 148.562C383.234 148.049 384.356 151.293 384.671 153.769L385.18 157.769C385.39 159.419 385.676 161.157 385.877 162.229C385.154 162.385 383.941 162.733 382.576 162.907C382.131 162.963 381.917 162.797 381.868 162.416ZM392.905 150.979L394.104 160.407C394.177 160.979 394.106 161.181 393.483 161.357C392.388 161.626 391.44 161.779 390.265 161.928C390.115 160.238 389.9 158.297 389.626 156.139L388.947 150.806C388.838 149.949 388.65 149.489 388.166 149.228L388.141 149.037C388.358 148.203 389.368 147.268 390.257 147.155C391.622 146.981 392.116 148.08 392.432 149.04C393.596 147.795 395.145 146.533 396.796 146.323C398.859 146.06 400.096 146.903 400.932 148.152C402.024 146.851 403.748 145.438 405.494 145.216C409.081 144.76 410.425 147.718 410.732 150.13L411.281 154.448C411.491 156.098 411.777 157.836 411.978 158.907C411.256 159.064 409.979 159.42 408.645 159.589C408.233 159.642 408.018 159.476 407.965 159.063L406.927 150.905C406.701 149.127 405.734 148.121 404.179 148.319C403.068 148.46 402.319 149.169 401.729 149.857L402.933 159.316C403.006 159.888 402.963 160.054 402.308 160.235C401.217 160.535 400.233 160.66 399.122 160.801C398.971 159.111 398.757 157.17 398.482 155.012L398.102 152.028C397.872 150.218 396.878 149.248 395.386 149.438C394.37 149.567 393.518 150.224 392.905 150.979ZM426.519 153.863L426.591 153.919C426.769 155.316 425.823 156.758 425.316 157.081C424.868 157.364 423.547 157.887 422.436 158.028C417.833 158.614 414.939 156.402 414.345 151.735C413.856 147.894 415.896 143.893 420.213 143.343C424.213 142.834 426.136 145.525 426.495 148.092C426.551 148.537 426.564 148.89 426.533 149.152C426.435 149.648 425.289 150.278 424.028 150.761C423.254 151.021 419.957 151.473 418.235 151.627C418.749 154.401 420.898 155.321 423.057 155.046C424.581 154.852 426.012 154.186 426.519 153.863ZM420.178 145.606C418.94 145.763 417.812 147.036 417.988 149.433C419.301 149.363 421.742 149.02 422.495 148.859C422.718 148.831 422.868 148.489 422.823 148.14C422.625 146.585 421.765 145.404 420.178 145.606ZM439.782 155.047L438.74 146.857C438.506 145.016 437.389 144.093 435.96 144.275C434.722 144.433 434.033 145.101 433.411 145.793L434.619 155.284C434.692 155.856 434.617 156.027 433.958 156.175C432.899 156.471 431.951 156.624 430.776 156.773C430.626 155.083 430.411 153.142 430.136 150.984L429.474 145.778C429.353 144.826 429.197 144.361 428.68 144.105L428.656 143.914C428.841 143.084 429.847 142.117 430.799 141.996C432.037 141.839 432.659 142.921 432.939 143.853C434.127 142.541 435.497 141.398 437.116 141.192C441.148 140.68 442.27 143.924 442.585 146.4L443.094 150.4C443.304 152.05 443.59 153.788 443.791 154.859C443.069 155.016 441.855 155.364 440.49 155.537C440.046 155.594 439.831 155.428 439.782 155.047ZM456.102 150.39L456.174 150.445C456.43 151.187 456.428 152.187 455.917 152.736C455.24 153.499 453.983 154.014 452.554 154.196C449.348 154.604 448.038 152.674 447.755 150.452L446.79 142.865C445.584 143.018 444.912 142.555 444.868 142.206C445.231 141.257 447.475 138.616 447.99 138.099C448.441 137.59 448.996 137.132 450.218 136.848C450.244 137.812 450.298 138.999 450.411 139.888L455.109 139.29C455.007 141.529 454.321 141.713 453.694 141.857C453.004 142.01 451.996 142.202 450.663 142.372C450.867 144.991 451.291 148.066 451.555 149.387C451.912 150.923 452.874 151.381 453.953 151.244C454.874 151.127 455.718 150.664 456.102 150.39ZM471.355 148.965L471.367 149.06C471.617 150.77 470.854 151.867 469.044 152.098C467.743 152.263 466.797 151.674 466.247 150.647C465.534 151.641 464.251 152.707 462.727 152.901C460.632 153.168 458.589 151.815 458.29 149.466C457.874 146.196 461.57 144.823 463.728 144.032C464.283 143.832 464.937 143.652 465.306 143.509L465.238 142.969C465.1 141.632 464.042 140.67 462.454 140.872C461.343 141.013 460.297 141.662 459.619 142.168C458.366 142.714 457.777 141.628 457.655 140.676C458.863 139.522 460.98 138.156 463.107 137.885C465.964 137.522 468.519 139.1 468.964 142.592C469.129 143.893 469.309 146.322 469.572 148.385C469.624 148.798 470.09 149.158 470.82 149.065C470.978 149.045 471.201 149.017 471.355 148.965ZM461.868 148.43C462.009 149.541 462.951 150.099 463.967 149.969C464.824 149.86 465.315 149.411 465.671 148.914C465.834 148.667 465.888 148.338 465.82 147.798L465.529 145.513C462.812 146.213 461.735 147.383 461.868 148.43ZM474.726 150.826L472.509 133.399C472.271 131.526 472.098 130.677 471.954 130.05C472.552 129.683 474.579 129.135 475.246 129.05C475.722 128.99 475.869 129.132 476.112 131.037L478.054 146.306C478.252 147.861 478.534 149.567 478.715 150.48C478.068 150.724 475.636 151.13 475.223 151.182C474.906 151.223 474.767 151.144 474.726 150.826ZM482.985 149.775L480.767 132.348C480.529 130.475 480.356 129.626 480.212 128.999C480.811 128.633 482.838 128.084 483.504 128C483.98 127.939 484.128 128.082 484.37 129.986L486.313 145.255C486.511 146.811 486.792 148.517 486.973 149.429C486.327 149.673 483.894 150.079 483.482 150.131C483.164 150.172 483.025 150.093 482.985 149.775ZM491.531 154.269L491.515 154.142C492.334 152.973 493.935 150.092 494.791 147.692C494.604 147.49 494.17 146.868 493.915 146.385C493.149 144.934 489.423 137.956 487.898 135.602C488.73 135.044 490.233 134.434 491.026 134.333C491.598 134.26 491.801 134.589 492.088 135.069C493.144 137.031 495.237 141.313 496.302 143.597C497.077 140.563 497.884 135.75 498.01 133.444C498.649 133.395 499.391 133.397 500.245 133.515C501.031 133.608 501.143 133.981 501.049 134.767C500.68 138.201 499.887 142.367 498.507 146.478C497.013 150.958 494.982 155.023 494.252 155.116C493.141 155.257 491.941 154.7 491.531 154.269ZM308.568 201.162L308.671 201.214C308.713 202.305 308.418 203.278 307.947 203.887C307.218 204.495 305.604 205.249 303.477 205.52C296.208 206.445 291.81 202.811 291.038 196.748C290.202 190.177 294.673 185.511 300.958 184.711C303.942 184.332 306.416 185.017 307.001 185.555C307.202 186.627 306.577 187.803 305.573 187.769C304.568 187.478 303.02 187.223 301.274 187.445C297.433 187.934 294.609 190.842 295.256 195.921C295.805 200.238 298.987 203.188 304.034 202.546C306.161 202.275 307.779 201.553 308.568 201.162ZM316.669 188.777C321.272 188.191 324.065 191.126 324.566 195.062C325.131 199.506 322.638 202.985 318.226 203.546C314.131 204.067 310.863 201.709 310.289 197.201C309.736 192.852 312.415 189.318 316.669 188.777ZM316.646 191.134C314.71 191.381 313.917 193.514 314.268 196.276C314.729 199.895 316.467 201.383 318.276 201.153C320.212 200.906 320.982 198.841 320.61 195.92C320.267 193.222 318.996 190.836 316.646 191.134ZM337.963 200.261L336.921 192.071C336.686 190.23 335.569 189.307 334.14 189.489C332.902 189.647 332.213 190.315 331.592 191.007L332.799 200.498C332.872 201.07 332.797 201.241 332.139 201.389C331.079 201.685 330.131 201.838 328.957 201.987C328.806 200.297 328.591 198.356 328.317 196.198L327.654 190.992C327.533 190.039 327.377 189.575 326.861 189.319L326.836 189.128C327.021 188.298 328.027 187.331 328.98 187.21C330.218 187.053 330.839 188.135 331.119 189.067C332.307 187.755 333.678 186.612 335.297 186.406C339.328 185.893 340.451 189.138 340.766 191.614L341.275 195.614C341.485 197.264 341.77 199.002 341.971 200.073C341.249 200.23 340.035 200.578 338.67 200.751C338.226 200.808 338.011 200.642 337.963 200.261ZM348.829 184.685C350.13 184.519 351.373 184.651 352.521 185.311C352.69 186.129 352.439 187.451 351.347 187.493C350.644 187.292 349.823 187.171 349.092 187.264C348.108 187.389 347.506 187.982 347.603 188.744C347.688 189.41 348.245 189.727 348.96 190.023C349.639 190.291 350.981 190.701 351.728 190.993C353.46 191.676 354.217 192.805 354.395 194.202C354.795 197.345 352.227 199.22 349.306 199.592C348.068 199.749 346.726 199.597 345.801 199.167C345.32 198.938 344.99 198.625 344.929 198.149C344.844 197.482 345.096 196.676 345.492 196.238C346.49 196.724 347.927 197.122 349.229 196.956C350.403 196.807 351.001 196.182 350.9 195.389C350.828 194.817 350.426 194.449 349.477 194.086C348.626 193.743 347.753 193.467 346.871 193.127C345.508 192.559 344.402 191.474 344.188 189.791C343.829 186.966 346.067 185.036 348.829 184.685ZM368.902 193.582L368.978 193.669C369.063 194.594 368.76 195.761 368.253 196.342C367.437 197.026 366.105 197.454 364.771 197.624C360.645 198.149 357.135 196.176 356.542 191.51C355.964 186.97 358.993 183.391 363.437 182.826C365.564 182.555 367.172 183.028 367.812 183.495C367.917 184.32 367.658 185.579 366.539 185.657C365.772 185.464 364.76 185.367 363.903 185.476C361.617 185.767 360.042 187.58 360.409 190.469C360.85 193.929 363.392 194.896 365.551 194.621C366.916 194.448 368.089 194.04 368.902 193.582ZM371.699 175.033C372.905 174.879 373.776 175.639 373.925 176.814C374.079 178.02 373.343 179.081 372.137 179.235C371.153 179.36 370.032 178.922 369.843 177.43C369.649 175.906 370.873 175.138 371.699 175.033ZM374.691 183.587L376.145 195.015C376.217 195.587 375.984 195.778 375.297 195.962C374.675 196.138 373.536 196.315 372.298 196.472C372.164 195.167 371.993 193.318 371.755 191.445L371.068 186.048C370.818 184.08 370.629 183.104 370.489 182.509C371.191 182.194 373.202 181.777 373.837 181.696C374.313 181.635 374.46 181.778 374.691 183.587ZM385.117 180.067C389.72 179.481 392.513 182.416 393.014 186.353C393.579 190.797 391.086 194.275 386.674 194.837C382.579 195.358 379.311 192.999 378.738 188.492C378.184 184.143 380.863 180.608 385.117 180.067ZM385.095 182.425C383.158 182.671 382.365 184.804 382.717 187.566C383.177 191.185 384.915 192.673 386.724 192.443C388.661 192.197 389.43 190.131 389.058 187.211C388.715 184.513 387.444 182.126 385.095 182.425ZM396.653 188.115L395.982 182.846C395.732 180.878 395.547 179.934 395.407 179.338C396.081 179.059 397.898 178.634 398.755 178.525C399.199 178.469 399.346 178.611 399.577 180.421C399.843 182.516 400.146 184.897 400.429 187.119C400.74 189.563 402.261 189.853 403.404 189.708C404.451 189.575 405.212 188.962 405.659 188.421L404.492 179.247C404.375 178.326 404.45 178.156 405.001 177.924C406.382 177.619 407.167 177.455 408.246 177.318C408.331 177.984 408.523 180.25 408.878 183.044L409.496 187.9C409.658 189.17 410.111 189.435 410.988 189.485L411.012 189.675C411.038 190.64 410.192 191.844 409.366 191.949C407.652 192.167 406.849 191.431 406.342 190.237C405.618 191.136 404.73 191.765 404.135 192.163C403.533 192.498 402.922 192.769 402.16 192.866C398.764 193.298 397.048 191.226 396.653 188.115ZM417.339 175.967C418.64 175.801 419.883 175.934 421.032 176.594C421.2 177.411 420.949 178.734 419.858 178.776C419.155 178.575 418.333 178.454 417.603 178.546C416.618 178.672 416.016 179.264 416.113 180.026C416.198 180.693 416.755 181.009 417.47 181.305C418.149 181.574 419.491 181.983 420.238 182.276C421.97 182.958 422.727 184.088 422.905 185.485C423.305 188.627 420.737 190.502 417.816 190.874C416.578 191.032 415.236 190.88 414.311 190.449C413.83 190.22 413.5 189.907 413.439 189.431C413.354 188.764 413.607 187.958 414.003 187.521C415 188.007 416.438 188.404 417.739 188.239C418.914 188.089 419.512 187.465 419.411 186.671C419.338 186.1 418.936 185.732 417.987 185.368C417.137 185.025 416.263 184.749 415.381 184.41C414.018 183.841 412.912 182.756 412.698 181.074C412.339 178.248 414.577 176.318 417.339 175.967Z" fill="#0F0F0F"/>
</svg>
