<svg width="210" height="208" viewBox="0 0 210 208" fill="none" xmlns="http://www.w3.org/2000/svg">
<path d="M50.3467 41.5608C16.424 61.701 15.5889 75.1888 13.3046 100.438C11.0203 125.687 50.1618 170.255 100.405 185.634C138.617 197.33 178.302 178.434 187.363 156.313C192.084 144.789 192.568 144.874 190.717 123.834C188.866 102.794 203.584 93.4204 182.721 62.9897C162.7 33.7871 153.285 13.1707 129.34 13.1683C74.7518 13.1627 87.7794 19.3367 50.3467 41.5608Z" fill="#DF823E"/>
<path d="M77.7745 156V146.368H79.6925V156H77.7745ZM74.6385 147.852V146.158H82.8285V147.852H74.6385ZM85.9932 151.884V150.4H88.2752C88.7418 150.4 89.1012 150.283 89.3532 150.05C89.6145 149.807 89.7452 149.476 89.7452 149.056C89.7452 148.673 89.6145 148.356 89.3532 148.104C89.1012 147.843 88.7418 147.712 88.2752 147.712H85.9932V146.158H88.4432C89.0778 146.158 89.6332 146.284 90.1092 146.536C90.5945 146.779 90.9678 147.115 91.2292 147.544C91.4998 147.973 91.6352 148.468 91.6352 149.028C91.6352 149.607 91.4998 150.111 91.2292 150.54C90.9678 150.96 90.5945 151.291 90.1092 151.534C89.6238 151.767 89.0592 151.884 88.4152 151.884H85.9932ZM84.5932 156V146.158H86.4972V156H84.5932ZM89.9692 156L86.7212 151.744L88.4712 151.198L92.2792 156H89.9692ZM93.8068 156V146.158H95.7108V156H93.8068ZM95.2068 156V154.32H100.653V156H95.2068ZM95.2068 151.786V150.162H100.163V151.786H95.2068ZM95.2068 147.838V146.158H100.583V147.838H95.2068ZM102.679 156V146.158H104.583V156H102.679ZM104.079 156V154.32H109.525V156H104.079ZM104.079 151.786V150.162H109.035V151.786H104.079ZM104.079 147.838V146.158H109.455V147.838H104.079ZM116.135 152.346V150.792H118.417C118.716 150.792 118.986 150.731 119.229 150.61C119.472 150.489 119.663 150.316 119.803 150.092C119.943 149.859 120.013 149.579 120.013 149.252C120.013 148.935 119.943 148.659 119.803 148.426C119.663 148.193 119.472 148.015 119.229 147.894C118.986 147.773 118.716 147.712 118.417 147.712H116.135V146.158H118.613C119.238 146.158 119.798 146.284 120.293 146.536C120.797 146.788 121.194 147.147 121.483 147.614C121.772 148.071 121.917 148.617 121.917 149.252C121.917 149.887 121.772 150.437 121.483 150.904C121.194 151.361 120.797 151.716 120.293 151.968C119.798 152.22 119.238 152.346 118.613 152.346H116.135ZM114.735 156V146.158H116.639V156H114.735ZM128.418 156.154C127.699 156.154 127.027 156.023 126.402 155.762C125.786 155.501 125.245 155.141 124.778 154.684C124.321 154.217 123.961 153.676 123.7 153.06C123.439 152.435 123.308 151.767 123.308 151.058C123.308 150.349 123.434 149.691 123.686 149.084C123.947 148.468 124.307 147.931 124.764 147.474C125.231 147.007 125.772 146.648 126.388 146.396C127.004 146.135 127.671 146.004 128.39 146.004C129.118 146.004 129.79 146.135 130.406 146.396C131.022 146.648 131.559 147.007 132.016 147.474C132.483 147.931 132.847 148.468 133.108 149.084C133.369 149.7 133.5 150.363 133.5 151.072C133.5 151.781 133.369 152.444 133.108 153.06C132.847 153.676 132.483 154.217 132.016 154.684C131.559 155.141 131.022 155.501 130.406 155.762C129.799 156.023 129.137 156.154 128.418 156.154ZM128.39 154.376C129.025 154.376 129.575 154.236 130.042 153.956C130.509 153.676 130.873 153.289 131.134 152.794C131.405 152.299 131.54 151.721 131.54 151.058C131.54 150.573 131.465 150.129 131.316 149.728C131.167 149.327 130.952 148.981 130.672 148.692C130.392 148.393 130.061 148.165 129.678 148.006C129.295 147.847 128.866 147.768 128.39 147.768C127.774 147.768 127.228 147.908 126.752 148.188C126.285 148.459 125.917 148.841 125.646 149.336C125.385 149.831 125.254 150.405 125.254 151.058C125.254 151.553 125.329 152.005 125.478 152.416C125.637 152.827 125.851 153.177 126.122 153.466C126.402 153.755 126.733 153.979 127.116 154.138C127.508 154.297 127.933 154.376 128.39 154.376ZM136.859 152.346V150.792H139.141C139.44 150.792 139.711 150.731 139.953 150.61C140.196 150.489 140.387 150.316 140.527 150.092C140.667 149.859 140.737 149.579 140.737 149.252C140.737 148.935 140.667 148.659 140.527 148.426C140.387 148.193 140.196 148.015 139.953 147.894C139.711 147.773 139.44 147.712 139.141 147.712H136.859V146.158H139.337C139.963 146.158 140.523 146.284 141.017 146.536C141.521 146.788 141.918 147.147 142.207 147.614C142.497 148.071 142.641 148.617 142.641 149.252C142.641 149.887 142.497 150.437 142.207 150.904C141.918 151.361 141.521 151.716 141.017 151.968C140.523 152.22 139.963 152.346 139.337 152.346H136.859ZM135.459 156V146.158H137.363V156H135.459ZM145.84 152.346V150.792H148.122C148.421 150.792 148.692 150.731 148.934 150.61C149.177 150.489 149.368 150.316 149.508 150.092C149.648 149.859 149.718 149.579 149.718 149.252C149.718 148.935 149.648 148.659 149.508 148.426C149.368 148.193 149.177 148.015 148.934 147.894C148.692 147.773 148.421 147.712 148.122 147.712H145.84V146.158H148.318C148.944 146.158 149.504 146.284 149.998 146.536C150.502 146.788 150.899 147.147 151.188 147.614C151.478 148.071 151.622 148.617 151.622 149.252C151.622 149.887 151.478 150.437 151.188 150.904C150.899 151.361 150.502 151.716 149.998 151.968C149.504 152.22 148.944 152.346 148.318 152.346H145.84ZM144.44 156V146.158H146.344V156H144.44ZM156.228 152.206L152.42 146.158H154.618L157.572 151.002H156.312L159.266 146.158H161.436L157.586 152.206H156.228ZM155.976 156V151.184H157.894V156H155.976Z" fill="#0F0F0F"/>
</svg>
