<svg width="342" height="53" viewBox="0 0 342 53" fill="none" xmlns="http://www.w3.org/2000/svg">
<rect width="342" height="53" rx="8" fill="#E9C09A"/>
<path d="M135.953 31.82V22.06C135.953 20.7 135.933 20.3 135.913 19.78C136.353 19.68 138.373 19.4 140.013 19.4C146.033 19.4 147.113 23.02 147.113 25.58C147.113 29.86 143.993 32.2 139.913 32.2C138.433 32.2 137.233 32.08 135.953 31.82ZM138.453 21.06V30.48C138.933 30.6 139.473 30.64 140.013 30.64C141.813 30.64 144.433 29.78 144.433 25.6C144.433 22.62 142.713 20.96 139.733 20.96C139.113 20.96 138.753 21 138.453 21.06ZM150.842 18.78C151.602 18.78 152.082 19.32 152.082 20.06C152.082 20.82 151.542 21.42 150.782 21.42C150.162 21.42 149.502 21.06 149.502 20.12C149.502 19.16 150.322 18.78 150.842 18.78ZM152.022 24.32V31.52C152.022 31.88 151.862 31.98 151.422 32.04C151.022 32.1 150.302 32.12 149.522 32.12C149.542 31.3 149.582 30.14 149.582 28.96V25.56C149.582 24.32 149.542 23.7 149.502 23.32C149.962 23.18 151.242 23.08 151.642 23.08C151.942 23.08 152.022 23.18 152.022 24.32ZM157.656 22.96C158.476 22.96 159.236 23.14 159.896 23.64C159.936 24.16 159.676 24.96 158.996 24.9C158.576 24.72 158.076 24.58 157.616 24.58C156.996 24.58 156.576 24.9 156.576 25.38C156.576 25.8 156.896 26.04 157.316 26.28C157.716 26.5 158.516 26.86 158.956 27.1C159.976 27.66 160.356 28.42 160.356 29.3C160.356 31.28 158.616 32.24 156.776 32.24C155.996 32.24 155.176 32.04 154.636 31.7C154.356 31.52 154.176 31.3 154.176 31C154.176 30.58 154.396 30.1 154.676 29.86C155.256 30.24 156.116 30.6 156.936 30.6C157.676 30.6 158.096 30.26 158.096 29.76C158.096 29.4 157.876 29.14 157.316 28.84C156.816 28.56 156.296 28.32 155.776 28.04C154.976 27.58 154.376 26.82 154.376 25.76C154.376 23.98 155.916 22.96 157.656 22.96ZM170.148 30.48V30.54C170.168 31.62 169.608 32.24 168.468 32.24C167.648 32.24 167.108 31.8 166.848 31.12C166.328 31.68 165.448 32.24 164.488 32.24C163.168 32.24 162.008 31.24 162.008 29.76C162.008 27.7 164.408 27.14 165.808 26.82C166.168 26.74 166.588 26.68 166.828 26.62V26.28C166.848 25.44 166.268 24.76 165.268 24.76C164.568 24.76 163.868 25.08 163.408 25.34C162.588 25.58 162.308 24.86 162.308 24.26C163.148 23.64 164.568 22.96 165.908 22.96C167.708 22.96 169.168 24.14 169.168 26.34C169.168 27.16 169.088 28.68 169.088 29.98C169.088 30.24 169.348 30.5 169.808 30.5C169.908 30.5 170.048 30.5 170.148 30.48ZM164.308 29.4C164.308 30.1 164.848 30.52 165.488 30.52C166.028 30.52 166.368 30.28 166.628 30C166.748 29.86 166.808 29.66 166.808 29.32V27.88C165.068 28.1 164.308 28.74 164.308 29.4ZM174.68 19.76V23.68C175.24 23.4 176.3 22.96 176.98 22.96C179.42 22.96 180.82 24.78 180.82 27.16C180.82 30.3 178.36 32.24 175.4 32.24C174.34 32.24 173.38 32.02 172.76 31.74C172.42 31.6 172.26 31.48 172.26 31.16V20.96C172.26 19.82 172.22 19.22 172.18 18.8C172.64 18.64 173.88 18.44 174.3 18.44C174.6 18.44 174.68 18.54 174.68 19.76ZM174.68 25.02V30.62C174.96 30.7 175.28 30.76 175.62 30.76C176.84 30.76 178.3 29.88 178.3 27.52C178.3 25.92 177.42 24.74 175.86 24.74C175.54 24.74 174.98 24.86 174.68 25.02ZM183.179 31.9V20.92C183.179 19.74 183.139 19.2 183.099 18.8C183.499 18.62 184.799 18.44 185.219 18.44C185.519 18.44 185.599 18.54 185.599 19.74V29.36C185.599 30.34 185.639 31.42 185.679 32C185.259 32.1 183.719 32.16 183.459 32.16C183.259 32.16 183.179 32.1 183.179 31.9ZM195.349 29.98L195.389 30.02C195.389 30.9 194.689 31.72 194.349 31.88C194.049 32.02 193.189 32.24 192.489 32.24C189.589 32.24 187.969 30.64 187.969 27.7C187.969 25.28 189.549 22.96 192.269 22.96C194.789 22.96 195.769 24.78 195.789 26.4C195.789 26.68 195.769 26.9 195.729 27.06C195.629 27.36 194.869 27.66 194.049 27.86C193.549 27.96 191.469 27.98 190.389 27.94C190.489 29.7 191.749 30.44 193.109 30.44C194.069 30.44 195.009 30.14 195.349 29.98ZM192.069 24.36C191.289 24.36 190.489 25.06 190.409 26.56C191.229 26.62 192.769 26.6 193.249 26.56C193.389 26.56 193.509 26.36 193.509 26.14C193.509 25.16 193.069 24.36 192.069 24.36ZM203.722 23.14V20.88C203.722 19.72 203.682 19.22 203.622 18.8C204.042 18.64 205.342 18.44 205.762 18.44C206.062 18.44 206.142 18.54 206.142 19.76V29.76C206.142 30.54 206.402 30.74 206.962 30.86V30.92C206.862 31.5 206.302 32.24 205.742 32.24C204.642 32.24 204.202 31.74 204.002 31.18C203.262 31.74 202.182 32.24 201.422 32.24C199.062 32.24 197.482 30.52 197.482 27.88C197.482 24.94 199.682 22.96 202.502 22.96C203.042 22.96 203.522 23.06 203.722 23.14ZM203.722 30.06V24.66C203.522 24.56 203.102 24.44 202.582 24.44C201.382 24.44 200.002 25.32 200.002 27.54C200.002 29.42 201.122 30.42 202.442 30.42C202.862 30.42 203.382 30.3 203.722 30.06Z" fill="#0F0F0F" fill-opacity="0.5"/>
</svg>
