<svg width="83" height="21" viewBox="0 0 83 21" fill="none" xmlns="http://www.w3.org/2000/svg">
<path d="M1.728 16.784V5.072C1.728 3.44 1.704 2.96 1.68 2.336C2.208 2.216 4.632 1.88 6.6 1.88C13.824 1.88 15.12 6.224 15.12 9.296C15.12 14.432 11.376 17.24 6.48 17.24C4.704 17.24 3.264 17.096 1.728 16.784ZM4.728 3.872V15.176C5.304 15.32 5.952 15.368 6.6 15.368C8.76 15.368 11.904 14.336 11.904 9.32C11.904 5.744 9.84 3.752 6.264 3.752C5.52 3.752 5.088 3.8 4.728 3.872ZM18.8153 1.136C19.7273 1.136 20.3033 1.784 20.3033 2.672C20.3033 3.584 19.6553 4.304 18.7433 4.304C17.9993 4.304 17.2073 3.872 17.2073 2.744C17.2073 1.592 18.1913 1.136 18.8153 1.136ZM20.2313 7.784V16.424C20.2313 16.856 20.0393 16.976 19.5113 17.048C19.0313 17.12 18.1673 17.144 17.2313 17.144C17.2553 16.16 17.3033 14.768 17.3033 13.352V9.272C17.3033 7.784 17.2553 7.04 17.2073 6.584C17.7593 6.416 19.2953 6.296 19.7753 6.296C20.1353 6.296 20.2313 6.416 20.2313 7.784ZM26.2118 6.152C27.1958 6.152 28.1078 6.368 28.8998 6.968C28.9478 7.592 28.6358 8.552 27.8198 8.48C27.3158 8.264 26.7158 8.096 26.1638 8.096C25.4198 8.096 24.9158 8.48 24.9158 9.056C24.9158 9.56 25.2998 9.848 25.8038 10.136C26.2838 10.4 27.2438 10.832 27.7718 11.12C28.9958 11.792 29.4518 12.704 29.4518 13.76C29.4518 16.136 27.3638 17.288 25.1558 17.288C24.2198 17.288 23.2358 17.048 22.5878 16.64C22.2518 16.424 22.0358 16.16 22.0358 15.8C22.0358 15.296 22.2998 14.72 22.6358 14.432C23.3318 14.888 24.3638 15.32 25.3478 15.32C26.2358 15.32 26.7398 14.912 26.7398 14.312C26.7398 13.88 26.4758 13.568 25.8038 13.208C25.2038 12.872 24.5798 12.584 23.9558 12.248C22.9958 11.696 22.2758 10.784 22.2758 9.512C22.2758 7.376 24.1238 6.152 26.2118 6.152ZM40.4226 15.176V15.248C40.4466 16.544 39.7746 17.288 38.4066 17.288C37.4226 17.288 36.7746 16.76 36.4626 15.944C35.8386 16.616 34.7826 17.288 33.6306 17.288C32.0466 17.288 30.6546 16.088 30.6546 14.312C30.6546 11.84 33.5346 11.168 35.2146 10.784C35.6466 10.688 36.1506 10.616 36.4386 10.544V10.136C36.4626 9.128 35.7666 8.312 34.5666 8.312C33.7266 8.312 32.8866 8.696 32.3346 9.008C31.3506 9.296 31.0146 8.432 31.0146 7.712C32.0226 6.968 33.7266 6.152 35.3346 6.152C37.4946 6.152 39.2466 7.568 39.2466 10.208C39.2466 11.192 39.1506 13.016 39.1506 14.576C39.1506 14.888 39.4626 15.2 40.0146 15.2C40.1346 15.2 40.3026 15.2 40.4226 15.176ZM33.4146 13.88C33.4146 14.72 34.0626 15.224 34.8306 15.224C35.4786 15.224 35.8866 14.936 36.1986 14.6C36.3426 14.432 36.4146 14.192 36.4146 13.784V12.056C34.3266 12.32 33.4146 13.088 33.4146 13.88ZM45.081 2.312V7.016C45.753 6.68 47.025 6.152 47.841 6.152C50.769 6.152 52.449 8.336 52.449 11.192C52.449 14.96 49.497 17.288 45.945 17.288C44.673 17.288 43.521 17.024 42.777 16.688C42.369 16.52 42.177 16.376 42.177 15.992V3.752C42.177 2.384 42.129 1.664 42.081 1.16C42.633 0.967999 44.121 0.727999 44.625 0.727999C44.985 0.727999 45.081 0.847999 45.081 2.312ZM45.081 8.624V15.344C45.417 15.44 45.801 15.512 46.209 15.512C47.673 15.512 49.425 14.456 49.425 11.624C49.425 9.704 48.369 8.288 46.497 8.288C46.113 8.288 45.441 8.432 45.081 8.624ZM54.4995 16.88V3.704C54.4995 2.288 54.4515 1.64 54.4035 1.16C54.8835 0.943999 56.4435 0.727999 56.9475 0.727999C57.3075 0.727999 57.4035 0.847999 57.4035 2.288V13.832C57.4035 15.008 57.4515 16.304 57.4995 17C56.9955 17.12 55.1475 17.192 54.8355 17.192C54.5955 17.192 54.4995 17.12 54.4995 16.88ZM68.3229 14.576L68.3709 14.624C68.3709 15.68 67.5309 16.664 67.1229 16.856C66.7629 17.024 65.7309 17.288 64.8909 17.288C61.4109 17.288 59.4669 15.368 59.4669 11.84C59.4669 8.936 61.3629 6.152 64.6269 6.152C67.6509 6.152 68.8269 8.336 68.8509 10.28C68.8509 10.616 68.8269 10.88 68.7789 11.072C68.6589 11.432 67.7469 11.792 66.7629 12.032C66.1629 12.152 63.6669 12.176 62.3709 12.128C62.4909 14.24 64.0029 15.128 65.6349 15.128C66.7869 15.128 67.9149 14.768 68.3229 14.576ZM64.3869 7.832C63.4509 7.832 62.4909 8.672 62.3949 10.472C63.3789 10.544 65.2269 10.52 65.8029 10.472C65.9709 10.472 66.1149 10.232 66.1149 9.968C66.1149 8.792 65.5869 7.832 64.3869 7.832ZM77.5905 6.368V3.656C77.5905 2.264 77.5425 1.664 77.4705 1.16C77.9745 0.967999 79.5345 0.727999 80.0385 0.727999C80.3985 0.727999 80.4945 0.847999 80.4945 2.312V14.312C80.4945 15.248 80.8065 15.488 81.4785 15.632V15.704C81.3585 16.4 80.6865 17.288 80.0145 17.288C78.6945 17.288 78.1665 16.688 77.9265 16.016C77.0385 16.688 75.7425 17.288 74.8305 17.288C71.9985 17.288 70.1025 15.224 70.1025 12.056C70.1025 8.528 72.7425 6.152 76.1265 6.152C76.7745 6.152 77.3505 6.272 77.5905 6.368ZM77.5905 14.672V8.192C77.3505 8.072 76.8465 7.928 76.2225 7.928C74.7825 7.928 73.1265 8.984 73.1265 11.648C73.1265 13.904 74.4705 15.104 76.0545 15.104C76.5585 15.104 77.1825 14.96 77.5905 14.672Z" fill="#2F54B5" fill-opacity="0.5"/>
<path d="M0 19.4H82.1025V20.6H0V19.4Z" fill="#2F54B5" fill-opacity="0.5"/>
</svg>
