<svg width="73" height="21" viewBox="0 0 73 21" fill="none" xmlns="http://www.w3.org/2000/svg">
<path d="M2.24262 2.84L1.81062 2.24V2.12C2.26662 2.048 4.35462 1.928 4.78662 1.928C5.00262 1.928 5.21862 2.096 5.43462 2.36C6.22662 3.464 8.19462 6.464 9.92262 9.128C10.9786 10.832 11.8666 12.152 12.4666 13.376C12.2986 11.552 12.3226 10.616 12.3226 9.392V2.696C12.3226 2.144 12.4906 2.048 12.8506 2.024C13.5226 1.952 14.2906 1.928 14.7946 1.928C14.7466 2.96 14.7226 4.352 14.7226 6.344V16.904C14.5066 17 13.1146 17.288 12.4186 17.288C12.1306 17.288 11.9866 17.216 11.8186 16.976C10.5946 15.224 9.34662 13.352 7.47462 10.424C6.17862 8.408 5.48262 7.088 4.52262 5.24C4.64262 7.664 4.64262 8.888 4.64262 10.112V16.4C4.64262 16.904 4.49862 16.976 4.09062 17.048C3.68262 17.12 2.89062 17.168 2.17062 17.144C2.21862 16.184 2.24262 14.792 2.24262 12.776V2.84ZM22.5687 6.152C26.0487 6.152 27.8487 8.6 27.8487 11.576C27.8487 14.936 25.6647 17.288 22.3287 17.288C19.2327 17.288 17.0247 15.224 17.0247 11.816C17.0247 8.528 19.3527 6.152 22.5687 6.152ZM22.3287 7.904C20.8647 7.904 20.0727 9.416 20.0727 11.504C20.0727 14.24 21.2247 15.512 22.5927 15.512C24.0567 15.512 24.8247 14.048 24.8247 11.84C24.8247 9.8 24.1047 7.904 22.3287 7.904ZM29.4026 7.472V7.376C29.5946 6.824 30.5066 6.152 31.1786 6.152C32.2346 6.152 32.6666 7.136 32.6666 8.624C33.3866 6.992 34.3946 6.152 35.6426 6.152C36.2426 6.152 36.7706 6.44 36.9866 6.704C36.9866 7.208 36.7706 8.168 36.3386 8.72C36.1466 8.984 35.8586 9.104 35.4986 8.984C35.1386 8.864 34.8986 8.84 34.5626 8.84C34.1786 8.84 33.4826 9.128 33.0746 10.136C32.9306 10.52 32.8826 10.808 32.8826 11.336V16.376C32.8826 16.76 32.8106 16.952 32.3306 17.024C31.4906 17.12 30.7706 17.144 29.8826 17.144C29.9546 15.872 29.9546 14.408 29.9546 12.776V8.72C29.9546 8.168 29.8106 7.712 29.4026 7.472ZM41.4082 9.248V16.376C41.4082 16.808 41.3362 16.952 40.8562 17.024C40.0162 17.12 39.2962 17.144 38.4082 17.144C38.4562 15.872 38.4802 14.408 38.4802 12.776V8.744C38.4802 8.096 38.3842 7.736 38.0482 7.496V7.352C38.2882 6.752 39.1282 6.152 39.8002 6.152C40.8322 6.152 41.0962 7.016 41.2402 7.76C42.2242 6.944 43.4962 6.152 44.7442 6.152C46.3042 6.152 47.1442 6.896 47.6482 7.904C48.5842 7.04 50.0002 6.152 51.3202 6.152C54.0322 6.152 54.7522 8.48 54.7522 10.304V13.568C54.7522 14.816 54.8002 16.136 54.8482 16.952C54.2962 17 53.3122 17.144 52.3042 17.144C51.9922 17.144 51.8482 17 51.8482 16.688V10.52C51.8482 9.176 51.2242 8.336 50.0482 8.336C49.2082 8.336 48.5842 8.792 48.0802 9.248V16.4C48.0802 16.832 48.0322 16.952 47.5282 17.024C46.6882 17.144 45.9442 17.144 45.1042 17.144C45.1522 15.872 45.1762 14.408 45.1762 12.776V10.52C45.1762 9.152 44.5282 8.336 43.4002 8.336C42.6322 8.336 41.9362 8.744 41.4082 9.248ZM66.3607 15.176V15.248C66.3847 16.544 65.7127 17.288 64.3447 17.288C63.3607 17.288 62.7127 16.76 62.4007 15.944C61.7767 16.616 60.7207 17.288 59.5687 17.288C57.9847 17.288 56.5927 16.088 56.5927 14.312C56.5927 11.84 59.4727 11.168 61.1527 10.784C61.5847 10.688 62.0887 10.616 62.3767 10.544V10.136C62.4007 9.128 61.7047 8.312 60.5047 8.312C59.6647 8.312 58.8247 8.696 58.2727 9.008C57.2887 9.296 56.9527 8.432 56.9527 7.712C57.9607 6.968 59.6647 6.152 61.2727 6.152C63.4327 6.152 65.1847 7.568 65.1847 10.208C65.1847 11.192 65.0887 13.016 65.0887 14.576C65.0887 14.888 65.4007 15.2 65.9527 15.2C66.0727 15.2 66.2407 15.2 66.3607 15.176ZM59.3527 13.88C59.3527 14.72 60.0007 15.224 60.7687 15.224C61.4167 15.224 61.8247 14.936 62.1367 14.6C62.2807 14.432 62.3527 14.192 62.3527 13.784V12.056C60.2647 12.32 59.3527 13.088 59.3527 13.88ZM68.1151 16.88V3.704C68.1151 2.288 68.0671 1.64 68.0191 1.16C68.4991 0.943999 70.0591 0.727999 70.5631 0.727999C70.9231 0.727999 71.0191 0.847999 71.0191 2.288V13.832C71.0191 15.008 71.0671 16.304 71.1151 17C70.6111 17.12 68.7631 17.192 68.4511 17.192C68.2111 17.192 68.1151 17.12 68.1151 16.88Z" fill="#2F54B5"/>
<path d="M0.490623 19.4H72.5071V20.6H0.490623V19.4Z" fill="#2F54B5"/>
</svg>
