<svg width="759" height="271" viewBox="0 0 759 271" fill="none" xmlns="http://www.w3.org/2000/svg">
<path d="M665.147 118.223C649.328 143.953 648.42 172.604 662.53 191.316C669.321 200.311 683.78 212.626 696.08 209.083C719.319 202.383 717.416 143.785 717.24 139.368C715.901 106.367 702.987 81.0253 693.972 66.6573" fill="#D8EDF5"/>
<path d="M109.749 59.7981C83.1088 74.0318 67.8695 98.3107 70.6103 121.586C71.9348 132.778 78.2048 150.706 90.6126 153.853C114.057 159.794 141.98 108.241 144.056 104.338C159.551 75.17 161.188 46.7751 160.653 29.8214" fill="#D8EDF5"/>
<path d="M27.182 68.0826C18.577 97.0351 25.1308 124.941 43.6105 139.354C52.5015 146.28 69.6593 154.424 80.6205 147.813C101.327 135.316 84.2925 79.2155 82.9766 74.9951C73.125 43.4704 54.0816 22.3447 41.6486 10.8062" fill="#D8EDF5"/>
<path d="M141.888 94.3559C111.719 95.8012 87.5455 111.208 80.0484 133.412C76.4492 144.092 74.4323 162.977 84.2943 171.138C102.932 186.552 150.252 151.937 153.8 149.301C180.299 129.586 193.945 104.631 200.727 89.0838" fill="#D8EDF5"/>
<path d="M218.673 66.3645C200.045 90.1407 195.903 118.505 207.806 138.693C213.536 148.398 226.509 162.27 239.132 160.141C262.979 156.112 267.716 97.6746 268.04 93.2658C270.442 60.325 260.478 33.6856 253.145 18.3902" fill="#D8EDF5"/>
<path d="M321.365 66.511C302.738 90.2872 298.596 118.652 310.499 138.84C316.228 148.545 329.202 162.416 341.824 160.287C365.672 156.259 370.408 97.8211 370.733 93.4123C373.134 60.4715 363.17 33.8321 355.837 18.5367" fill="#D8EDF5"/>
<path d="M452.457 78.5017C427.786 95.9265 415.672 121.907 421.276 144.663C423.977 155.604 432.42 172.617 445.122 174.203C469.122 177.193 490.442 122.578 492.018 118.448C503.779 87.5844 501.885 59.2055 499.255 42.4486" fill="#D8EDF5"/>
<path d="M607.314 83.6374C582.643 101.062 570.529 127.042 576.133 149.798C578.834 160.74 587.277 177.753 599.979 179.339C623.979 182.329 645.299 127.713 646.876 123.583C658.637 92.7201 656.743 64.3412 654.112 47.5844" fill="#D8EDF5"/>
<path d="M400.365 96.511C381.737 120.287 377.595 148.652 389.498 168.84C395.228 178.545 408.201 192.416 420.824 190.287C444.671 186.259 449.408 127.821 449.732 123.412C452.134 90.4715 442.169 63.8321 434.837 48.5367" fill="#D8EDF5"/>
<path d="M638.365 108.511C619.738 132.287 615.596 160.652 627.499 180.84C633.228 190.545 646.202 204.416 658.824 202.287C682.672 198.259 687.408 139.821 687.733 135.412C690.134 102.471 680.17 75.8321 672.837 60.5367" fill="#D8EDF5"/>
<path d="M525.66 109.519C512.765 136.832 515.012 165.409 531.093 182.458C538.831 190.652 554.556 201.303 566.393 196.43C588.754 187.216 580.422 129.182 579.762 124.811C574.803 92.1569 559.183 68.3882 548.643 55.0981" fill="#D8EDF5"/>
<path d="M563.66 89.5191C550.765 116.832 553.012 145.409 569.093 162.458C576.831 170.652 592.556 181.303 604.393 176.43C626.754 167.216 618.422 109.182 617.762 104.811C612.803 72.1569 597.183 48.3882 586.643 35.0981" fill="#D8EDF5"/>
<path d="M488.365 103.511C469.737 127.287 465.595 155.652 477.498 175.84C483.228 185.545 496.201 199.416 508.824 197.287C532.671 193.259 537.408 134.821 537.732 130.412C540.134 97.4715 530.169 70.8321 522.837 55.5367" fill="#D8EDF5"/>
<path d="M264.413 93.2919C251.381 120.54 253.485 149.128 269.48 166.257C277.177 174.489 292.848 185.219 304.709 180.406C327.117 171.305 319.076 113.229 318.437 108.855C313.643 76.1767 298.142 52.3298 287.669 38.987" fill="#D8EDF5"/>
<path d="M360.413 111.292C347.381 138.54 349.485 167.128 365.48 184.257C373.177 192.489 388.848 203.219 400.709 198.406C423.117 189.305 415.076 131.229 414.437 126.855C409.643 94.1767 394.142 70.3298 383.669 56.987" fill="#D8EDF5"/>
<path d="M696.413 115.292C683.381 142.54 685.485 171.128 701.48 188.257C709.177 196.489 724.848 207.219 736.709 202.406C759.117 193.305 751.076 135.229 750.437 130.855C745.643 98.1767 730.142 74.3298 719.669 60.987" fill="#D8EDF5"/>
<path d="M240.685 107.621C210.555 105.506 184.737 117.962 174.679 139.13C169.849 149.312 165.624 167.829 174.457 177.093C191.151 194.593 242.216 165.786 246.05 163.585C274.684 147.125 291.172 123.949 299.736 109.308" fill="#D8EDF5"/>
<path d="M166.358 70.7241C143.672 90.6659 134.381 117.784 142.365 139.817C146.211 150.411 156.409 166.433 169.208 166.664C193.39 167.093 208.8 110.526 209.931 106.252C218.354 74.3157 213.463 46.2974 209.07 29.9138" fill="#D8EDF5"/>
<path d="M249.522 153.979C223.205 139.158 194.54 139.349 176.382 154.165C167.654 161.295 155.902 176.216 159.913 188.372C167.499 211.337 225.981 207.19 230.388 206.844C263.314 204.242 288.142 190.367 302.154 180.808" fill="#D8EDF5"/>
</svg>
