<svg width="320" height="189" viewBox="0 0 320 189" fill="none" xmlns="http://www.w3.org/2000/svg">
<mask id="path-1-inside-1_361_856" fill="white">
<path fill-rule="evenodd" clip-rule="evenodd" d="M205.602 176.735C190.979 176.735 177.816 170.592 168.644 160.79C160.597 177.466 143.304 188.999 123.268 188.999C101.128 188.999 82.3365 174.917 75.6705 155.375C68.201 159.708 59.4892 162.194 50.1861 162.194C22.4691 162.194 0 140.124 0 112.9C0 95.3891 9.29549 80.0109 23.3041 71.2662C22.8836 68.6979 22.665 66.0632 22.665 63.3784C22.665 36.1538 45.1341 14.084 72.8511 14.084C79.7814 14.084 86.3837 15.4638 92.3886 17.959C101.593 6.9917 115.531 0 131.132 0C146.276 0 159.854 6.58877 169.055 17.0071C174.003 15.4044 179.291 14.5371 184.786 14.5371C196.03 14.5371 206.411 18.1695 214.778 24.3049C223.248 17.8957 233.861 14.084 245.379 14.084C273.096 14.084 295.565 36.1538 295.565 63.3784C295.565 65.6515 295.409 67.8886 295.106 70.08C309.786 78.6814 319.618 94.4352 319.618 112.445C319.618 139.669 297.149 161.739 269.432 161.739C261.108 161.739 253.258 159.749 246.347 156.226C237.235 168.648 222.38 176.735 205.602 176.735Z"/>
</mask>
<path d="M168.644 160.79L169.739 159.765C169.401 159.404 168.906 159.233 168.417 159.307C167.928 159.382 167.508 159.693 167.293 160.138L168.644 160.79ZM75.6705 155.375L77.0902 154.891C76.9452 154.465 76.6172 154.128 76.1964 153.97C75.7757 153.813 75.3064 153.852 74.9178 154.077L75.6705 155.375ZM23.3041 71.2662L24.0984 72.5386C24.6116 72.2182 24.8821 71.6209 24.7844 71.0238L23.3041 71.2662ZM92.3886 17.959L91.813 19.3441C92.4181 19.5956 93.1164 19.4252 93.5376 18.9233L92.3886 17.959ZM169.055 17.0071L167.931 18.0001C168.326 18.4477 168.949 18.6181 169.518 18.4341L169.055 17.0071ZM214.778 24.3049L213.891 25.5146C214.426 25.9066 215.155 25.9012 215.684 25.5011L214.778 24.3049ZM295.106 70.08L293.62 69.8744C293.537 70.4755 293.824 71.0675 294.347 71.3742L295.106 70.08ZM246.347 156.226L247.028 154.89C246.373 154.556 245.572 154.746 245.138 155.339L246.347 156.226ZM165.121 164.135C164.691 164.844 164.917 165.766 165.625 166.196C166.333 166.626 167.256 166.4 167.686 165.692L165.121 164.135ZM161.913 173.435C162.468 172.821 162.421 171.872 161.806 171.317C161.192 170.761 160.243 170.809 159.688 171.423L161.913 173.435ZM152.983 177.567C152.322 178.067 152.192 179.008 152.693 179.669C153.193 180.329 154.134 180.459 154.794 179.959L152.983 177.567ZM146.589 185.046C147.33 184.677 147.632 183.777 147.263 183.035C146.894 182.293 145.994 181.991 145.252 182.361L146.589 185.046ZM136.768 185.638C135.97 185.863 135.507 186.692 135.732 187.489C135.958 188.287 136.786 188.75 137.584 188.525L136.768 185.638ZM128.093 190.28C128.918 190.205 129.526 189.475 129.451 188.65C129.376 187.825 128.646 187.218 127.821 187.293L128.093 190.28ZM118.242 187.247C117.418 187.164 116.682 187.765 116.599 188.59C116.516 189.414 117.117 190.149 117.942 190.232L118.242 187.247ZM107.507 188.094C108.297 188.342 109.139 187.903 109.388 187.112C109.636 186.322 109.197 185.48 108.406 185.232L107.507 188.094ZM99.19 181.255C98.4671 180.85 97.5531 181.108 97.1485 181.831C96.7439 182.554 97.0019 183.468 97.7249 183.873L99.19 181.255ZM89.0109 177.741C89.6358 178.285 90.5833 178.219 91.1272 177.594C91.6711 176.969 91.6055 176.022 90.9806 175.478L89.0109 177.741ZM84.1333 168.142C83.634 167.481 82.6933 167.35 82.0323 167.849C81.3712 168.348 81.2401 169.289 81.7394 169.95L84.1333 168.142ZM76.2432 160.814C76.5928 161.566 77.4851 161.891 78.2361 161.541C78.9871 161.192 79.3125 160.299 78.9629 159.548L76.2432 160.814ZM69.12 156.946C68.3548 157.263 67.9918 158.141 68.3092 158.906C68.6266 159.671 69.5042 160.034 70.2694 159.717L69.12 156.946ZM57.0335 163.252C57.855 163.145 58.4343 162.393 58.3274 161.571C58.2205 160.75 57.4679 160.17 56.6464 160.277L57.0335 163.252ZM45.4496 160.471C44.6248 160.393 43.8929 160.998 43.8148 161.823C43.7367 162.648 44.3419 163.38 45.1666 163.458L45.4496 160.471ZM35.3069 161.558C36.1015 161.792 36.9356 161.338 37.1699 160.543C37.4043 159.749 36.9501 158.914 36.1555 158.68L35.3069 161.558ZM27.3816 155.138C26.6471 154.755 25.7411 155.04 25.3581 155.775C24.975 156.509 25.26 157.415 25.9946 157.798L27.3816 155.138ZM17.5811 152.315C18.2281 152.832 19.172 152.727 19.6895 152.08C20.2069 151.433 20.102 150.489 19.455 149.972L17.5811 152.315ZM12.6772 143.372C12.1429 142.739 11.1965 142.659 10.5634 143.194C9.93035 143.728 9.85028 144.674 10.3846 145.307L12.6772 143.372ZM4.69188 137.027C5.09125 137.753 6.00339 138.017 6.72919 137.618C7.455 137.219 7.71964 136.307 7.32027 135.581L4.69188 137.027ZM3.61752 126.887C3.37131 126.096 2.53049 125.654 1.7395 125.9C0.948501 126.146 0.506865 126.987 0.753074 127.778L3.61752 126.887ZM-1.25006 117.926C-1.16764 118.75 -0.432587 119.352 0.391731 119.269C1.21605 119.187 1.81748 118.452 1.73506 117.627L-1.25006 117.926ZM1.88253 106.878C1.98772 106.057 1.40686 105.305 0.585136 105.2C-0.236586 105.095 -0.987997 105.676 -1.09319 106.497L1.88253 106.878ZM2.1526 94.1085C1.84136 94.8762 2.21141 95.7509 2.97915 96.0622C3.74688 96.3734 4.62157 96.0034 4.93282 95.2356L2.1526 94.1085ZM10.8413 84.7432C11.3358 84.0785 11.1978 83.1389 10.5331 82.6444C9.8684 82.1499 8.92873 82.2879 8.43427 82.9526L10.8413 84.7432ZM17.2928 73.7175C16.6496 74.2396 16.5514 75.1842 17.0735 75.8275C17.5955 76.4707 18.5402 76.5689 19.1834 76.0468L17.2928 73.7175ZM24.5131 69.124C24.4127 68.3016 23.6648 67.7163 22.8425 67.8167C22.0201 67.917 21.4348 68.665 21.5352 69.4873L24.5131 69.124ZM21.206 65.4187C21.2393 66.2465 21.9373 66.8905 22.7651 66.8572C23.5928 66.8239 24.2369 66.1259 24.2036 65.2982L21.206 65.4187ZM24.4001 58.6508C24.4825 57.8265 23.8811 57.0915 23.0568 57.0091C22.2325 56.9266 21.4974 57.5281 21.415 58.3524L24.4001 58.6508ZM23.4181 48.5C23.1719 49.291 23.6135 50.1318 24.4045 50.378C25.1955 50.6242 26.0363 50.1826 26.2826 49.3916L23.4181 48.5ZM29.9853 40.6975C30.3847 39.9717 30.12 39.0596 29.3942 38.6602C28.6684 38.2608 27.7563 38.5255 27.3569 39.2513L29.9853 40.6975ZM33.0496 30.971C32.5153 31.6041 32.5954 32.5504 33.2285 33.0848C33.8616 33.6191 34.8079 33.539 35.3422 32.9059L33.0496 30.971ZM42.1201 26.3065C42.767 25.789 42.872 24.8451 42.3545 24.1981C41.837 23.5512 40.8931 23.4463 40.2462 23.9637L42.1201 26.3065ZM48.6596 18.48C47.9251 18.863 47.6401 19.769 48.0231 20.5036C48.4061 21.2381 49.3121 21.5231 50.0467 21.1401L48.6596 18.48ZM58.8206 17.5981C59.6152 17.3638 60.0693 16.5296 59.835 15.7351C59.6006 14.9405 58.7665 14.4863 57.9719 14.7206L58.8206 17.5981ZM67.8317 12.8205C67.0069 12.8987 66.4017 13.6306 66.4798 14.4553C66.558 15.2801 67.2899 15.8853 68.1146 15.8072L67.8317 12.8205ZM77.7102 15.8189C78.5347 15.8991 79.2681 15.2957 79.3483 14.4712C79.4285 13.6466 78.8251 12.9132 78.0005 12.833L77.7102 15.8189ZM88.1077 14.8335C87.3149 14.5931 86.4774 15.041 86.237 15.8338C85.9966 16.6266 86.4445 17.4641 87.2372 17.7045L88.1077 14.8335ZM97.1934 15.0264C97.7926 14.4544 97.8147 13.5049 97.2426 12.9057C96.6706 12.3064 95.7211 12.2844 95.1219 12.8564L97.1934 15.0264ZM104.124 5.97799C103.415 6.40599 103.187 7.32796 103.615 8.03725C104.043 8.74655 104.965 8.97459 105.674 8.54658L104.124 5.97799ZM115.36 4.0632C116.145 3.79938 116.568 2.9489 116.304 2.1636C116.04 1.37831 115.19 0.955571 114.404 1.21939L115.36 4.0632ZM125.47 -1.19865C124.646 -1.11042 124.05 -0.371154 124.138 0.452563C124.227 1.27628 124.966 1.87252 125.79 1.7843L125.47 -1.19865ZM136.322 1.76829C137.146 1.85399 137.884 1.25549 137.969 0.431503C138.055 -0.39248 137.456 -1.12992 136.632 -1.21561L136.322 1.76829ZM147.398 1.06707C146.611 0.810593 145.764 1.24126 145.508 2.02898C145.251 2.81671 145.682 3.6632 146.47 3.91968L147.398 1.06707ZM155.934 8.15816C156.65 8.57506 157.569 8.33268 157.986 7.6168C158.402 6.90091 158.16 5.98261 157.444 5.56572L155.934 8.15816ZM166.314 12.0838C165.703 11.5251 164.754 11.5679 164.195 12.1796C163.636 12.7912 163.679 13.74 164.291 14.2987L166.314 12.0838ZM173.251 17.3862C174.056 17.194 174.554 16.385 174.362 15.5792C174.17 14.7733 173.36 14.2759 172.555 14.468L173.251 17.3862ZM180.677 13.1953C179.851 13.2592 179.233 13.9806 179.297 14.8065C179.361 15.6325 180.082 16.2503 180.908 16.1864L180.677 13.1953ZM188.676 16.1874C189.502 16.2514 190.223 15.6338 190.287 14.8079C190.351 13.9819 189.734 13.2604 188.908 13.1964L188.676 16.1874ZM197.055 14.4772C196.249 14.2844 195.44 14.7812 195.247 15.5869C195.054 16.3926 195.551 17.202 196.357 17.3948L197.055 14.4772ZM203.749 19.7977C204.514 20.1156 205.391 19.7531 205.709 18.9881C206.027 18.2231 205.665 17.3452 204.9 17.0273L203.749 19.7977ZM212.242 20.7887C211.537 20.3536 210.613 20.5723 210.178 21.2772C209.742 21.9821 209.961 22.9063 210.666 23.3415L212.242 20.7887ZM218.953 23.2302C219.653 22.7858 219.859 21.8588 219.415 21.1597C218.97 20.4605 218.043 20.254 217.344 20.6985L218.953 23.2302ZM224.815 16.7637C224.053 17.0888 223.699 17.97 224.024 18.732C224.349 19.494 225.231 19.8481 225.993 19.5231L224.815 16.7637ZM233.54 17.0067C234.345 16.8093 234.837 15.9971 234.64 15.1926C234.442 14.388 233.63 13.8957 232.826 14.093L233.54 17.0067ZM241.16 12.7509C240.334 12.8165 239.718 13.5391 239.784 14.3649C239.849 15.1908 240.572 15.807 241.398 15.7415L241.16 12.7509ZM250.116 15.8072C250.941 15.8853 251.673 15.2801 251.751 14.4553C251.829 13.6306 251.224 12.8987 250.399 12.8205L250.116 15.8072ZM260.259 14.7207C259.464 14.4863 258.63 14.9405 258.396 15.7351C258.161 16.5296 258.615 17.3638 259.41 17.5981L260.259 14.7207ZM268.184 21.1401C268.918 21.5231 269.824 21.2381 270.207 20.5036C270.59 19.769 270.305 18.863 269.571 18.48L268.184 21.1401ZM277.984 23.9637C277.337 23.4463 276.393 23.5512 275.876 24.1981C275.359 24.8451 275.464 25.789 276.11 26.3065L277.984 23.9637ZM282.888 32.9059C283.423 33.539 284.369 33.6191 285.002 33.0848C285.635 32.5504 285.715 31.6041 285.181 30.971L282.888 32.9059ZM290.874 39.2513C290.474 38.5255 289.562 38.2608 288.836 38.6602C288.11 39.0596 287.846 39.9717 288.245 40.6975L290.874 39.2513ZM291.948 49.3916C292.194 50.1826 293.035 50.6242 293.826 50.378C294.617 50.1318 295.059 49.291 294.812 48.5L291.948 49.3916ZM296.816 58.3524C296.733 57.5281 295.998 56.9266 295.174 57.0091C294.349 57.0915 293.748 57.8265 293.83 58.6508L296.816 58.3524ZM294.038 65.0076C294.01 65.8356 294.658 66.5296 295.486 66.5579C296.314 66.5861 297.008 65.9378 297.036 65.1099L294.038 65.0076ZM296.799 68.5656C296.884 67.7416 296.285 67.0046 295.461 66.9195C294.637 66.8344 293.9 67.4335 293.815 68.2575L296.799 68.5656ZM297.829 73.6175C298.505 74.0954 299.441 73.9341 299.919 73.2574C300.397 72.5807 300.236 71.6447 299.559 71.1669L297.829 73.6175ZM306.279 76.8238C305.693 76.2384 304.743 76.2389 304.157 76.825C303.572 77.4111 303.572 78.3608 304.158 78.9463L306.279 76.8238ZM309.489 85.2713C309.967 85.9482 310.902 86.11 311.579 85.6325C312.256 85.155 312.418 84.2192 311.941 83.5422L309.489 85.2713ZM316.364 91.1376C316.011 90.3881 315.118 90.0665 314.368 90.4194C313.619 90.7723 313.297 91.666 313.65 92.4155L316.364 91.1376ZM316.499 100.173C316.715 100.972 317.538 101.446 318.338 101.23C319.138 101.014 319.611 100.191 319.395 99.3911L316.499 100.173ZM320.927 108.049C320.855 107.223 320.128 106.613 319.303 106.685C318.477 106.757 317.867 107.484 317.939 108.309L320.927 108.049ZM317.883 117.172C317.801 117.997 318.402 118.732 319.227 118.814C320.051 118.897 320.786 118.295 320.868 117.471L317.883 117.172ZM318.865 127.323C319.111 126.532 318.67 125.691 317.879 125.445C317.088 125.199 316.247 125.641 316.001 126.432L318.865 127.323ZM312.298 135.126C311.899 135.851 312.163 136.764 312.889 137.163C313.615 137.562 314.527 137.298 314.926 136.572L312.298 135.126ZM309.234 144.852C309.768 144.219 309.688 143.273 309.055 142.738C308.422 142.204 307.475 142.284 306.941 142.917L309.234 144.852ZM300.163 149.517C299.516 150.034 299.411 150.978 299.929 151.625C300.446 152.272 301.39 152.377 302.037 151.859L300.163 149.517ZM293.624 157.343C294.358 156.96 294.643 156.054 294.26 155.32C293.877 154.585 292.971 154.3 292.237 154.683L293.624 157.343ZM283.463 158.225C282.668 158.459 282.214 159.294 282.448 160.088C282.683 160.883 283.517 161.337 284.311 161.103L283.463 158.225ZM274.452 163.003C275.276 162.924 275.882 162.193 275.803 161.368C275.725 160.543 274.993 159.938 274.169 160.016L274.452 163.003ZM263.63 159.903C262.807 159.808 262.062 160.397 261.966 161.22C261.87 162.043 262.46 162.787 263.283 162.883L263.63 159.903ZM251.314 160.03C252.091 160.316 252.953 159.918 253.239 159.141C253.525 158.363 253.127 157.501 252.35 157.215L251.314 160.03ZM241.476 159.753C240.91 160.358 240.942 161.307 241.547 161.873C242.152 162.439 243.101 162.407 243.667 161.802L241.476 159.753ZM234.374 169.643C235.066 169.187 235.257 168.257 234.8 167.565C234.344 166.874 233.414 166.683 232.722 167.139L234.374 169.643ZM222.487 172.283C221.709 172.566 221.307 173.426 221.589 174.205C221.872 174.983 222.732 175.385 223.511 175.103L222.487 172.283ZM211.678 177.888C212.501 177.793 213.091 177.049 212.997 176.226C212.902 175.403 212.158 174.813 211.335 174.908L211.678 177.888ZM200.584 174.985C199.76 174.902 199.025 175.503 198.942 176.327C198.859 177.152 199.46 177.887 200.285 177.97L200.584 174.985ZM189.863 175.837C190.653 176.085 191.495 175.645 191.743 174.855C191.991 174.065 191.552 173.223 190.761 172.975L189.863 175.837ZM181.555 169.008C180.832 168.604 179.918 168.863 179.514 169.586C179.11 170.309 179.368 171.223 180.092 171.627L181.555 169.008ZM171.385 165.512C172.01 166.055 172.958 165.989 173.501 165.363C174.044 164.738 173.978 163.79 173.352 163.247L171.385 165.512ZM167.293 160.138C166.632 161.508 165.907 162.841 165.121 164.135L167.686 165.692C168.521 164.316 169.292 162.898 169.995 161.442L167.293 160.138ZM159.688 171.423C157.655 173.671 155.41 175.729 152.983 177.567L154.794 179.959C157.37 178.007 159.754 175.822 161.913 173.435L159.688 171.423ZM145.252 182.361C142.558 183.701 139.721 184.803 136.768 185.638L137.584 188.525C140.718 187.639 143.729 186.469 146.589 185.046L145.252 182.361ZM127.821 187.293C126.322 187.429 124.804 187.499 123.268 187.499V190.499C124.894 190.499 126.504 190.425 128.093 190.28L127.821 187.293ZM123.268 187.499C121.57 187.499 119.894 187.414 118.242 187.247L117.942 190.232C119.693 190.409 121.47 190.499 123.268 190.499V187.499ZM108.406 185.232C105.174 184.216 102.089 182.877 99.19 181.255L97.7249 183.873C100.802 185.595 104.076 187.015 107.507 188.094L108.406 185.232ZM90.9806 175.478C88.4483 173.274 86.1519 170.814 84.1333 168.142L81.7394 169.95C83.884 172.789 86.3227 175.401 89.0109 177.741L90.9806 175.478ZM78.9629 159.548C78.2589 158.036 77.633 156.482 77.0902 154.891L74.2508 155.859C74.8285 157.553 75.4944 159.206 76.2432 160.814L78.9629 159.548ZM74.9178 154.077C73.0608 155.155 71.1247 156.114 69.12 156.946L70.2694 159.717C72.3972 158.834 74.4522 157.816 76.4232 156.672L74.9178 154.077ZM56.6464 160.277C54.5334 160.552 52.377 160.694 50.1861 160.694V163.694C52.5067 163.694 54.7924 163.544 57.0335 163.252L56.6464 160.277ZM50.1861 160.694C48.5877 160.694 47.0077 160.619 45.4496 160.471L45.1666 163.458C46.8187 163.614 48.4931 163.694 50.1861 163.694V160.694ZM36.1555 158.68C33.093 157.777 30.1575 156.586 27.3816 155.138L25.9946 157.798C28.9409 159.335 32.0566 160.599 35.3069 161.558L36.1555 158.68ZM19.455 149.972C16.9823 147.994 14.7114 145.783 12.6772 143.372L10.3846 145.307C12.5452 147.867 14.9564 150.215 17.5811 152.315L19.455 149.972ZM7.32027 135.581C5.80833 132.833 4.56288 129.924 3.61752 126.887L0.753074 127.778C1.75915 131.01 3.08422 134.105 4.69188 137.027L7.32027 135.581ZM1.73506 117.627C1.57961 116.073 1.5 114.496 1.5 112.9H-1.5C-1.5 114.595 -1.41541 116.272 -1.25006 117.926L1.73506 117.627ZM1.5 112.9C1.5 110.86 1.63013 108.85 1.88253 106.878L-1.09319 106.497C-1.36172 108.595 -1.5 110.732 -1.5 112.9H1.5ZM4.93282 95.2356C6.45472 91.4816 8.44787 87.9606 10.8413 84.7432L8.43427 82.9526C5.89131 86.371 3.77181 90.1145 2.1526 94.1085L4.93282 95.2356ZM19.1834 76.0468C20.743 74.7809 22.3843 73.6086 24.0984 72.5386L22.5098 69.9937C20.6905 71.1294 18.9483 72.3738 17.2928 73.7175L19.1834 76.0468ZM24.7844 71.0238C24.6813 70.3946 24.5908 69.7612 24.5131 69.124L21.5352 69.4873C21.6179 70.1652 21.7142 70.839 21.8238 71.5085L24.7844 71.0238ZM24.2036 65.2982C24.178 64.6614 24.165 64.0214 24.165 63.3784H21.165C21.165 64.0617 21.1788 64.7419 21.206 65.4187L24.2036 65.2982ZM24.165 63.3784C24.165 61.7826 24.2446 60.2056 24.4001 58.6508L21.415 58.3524C21.2496 60.0062 21.165 61.6828 21.165 63.3784H24.165ZM26.2826 49.3916C27.2279 46.3544 28.4734 43.4453 29.9853 40.6975L27.3569 39.2513C25.7493 42.1731 24.4242 45.2678 23.4181 48.5L26.2826 49.3916ZM35.3422 32.9059C37.3765 30.4956 39.6473 28.2843 42.1201 26.3065L40.2462 23.9637C37.6214 26.0632 35.2102 28.411 33.0496 30.971L35.3422 32.9059ZM50.0467 21.1401C52.8226 19.6927 55.758 18.5013 58.8206 17.5981L57.9719 14.7206C54.7217 15.6792 51.606 16.9437 48.6596 18.48L50.0467 21.1401ZM68.1146 15.8072C69.6727 15.6596 71.2527 15.584 72.8511 15.584V12.584C71.1581 12.584 69.4837 12.664 67.8317 12.8205L68.1146 15.8072ZM72.8511 15.584C74.4914 15.584 76.1124 15.6636 77.7102 15.8189L78.0005 12.833C76.3064 12.6683 74.5885 12.584 72.8511 12.584V15.584ZM87.2372 17.7045C88.7975 18.1775 90.3242 18.7255 91.813 19.3441L92.9642 16.5738C91.3839 15.9172 89.7636 15.3356 88.1077 14.8335L87.2372 17.7045ZM93.5376 18.9233C94.6826 17.559 95.9033 16.2579 97.1934 15.0264L95.1219 12.8564C93.7522 14.164 92.4559 15.5455 91.2397 16.9946L93.5376 18.9233ZM105.674 8.54658C108.7 6.72077 111.944 5.21073 115.36 4.0632L114.404 1.21939C110.779 2.43734 107.335 4.04007 104.124 5.97799L105.674 8.54658ZM125.79 1.7843C127.544 1.59645 129.326 1.5 131.132 1.5V-1.5C129.219 -1.5 127.33 -1.39783 125.47 -1.19865L125.79 1.7843ZM131.132 1.5C132.886 1.5 134.617 1.59098 136.322 1.76829L136.632 -1.21561C134.825 -1.40363 132.989 -1.5 131.132 -1.5V1.5ZM146.47 3.91968C149.798 5.00349 152.968 6.43055 155.934 8.15816L157.444 5.56572C154.295 3.73203 150.931 2.21737 147.398 1.06707L146.47 3.91968ZM164.291 14.2987C165.57 15.4677 166.786 16.7034 167.931 18.0001L170.18 16.0141C168.963 14.637 167.673 13.3249 166.314 12.0838L164.291 14.2987ZM169.518 18.4341C170.741 18.0378 171.986 17.6878 173.251 17.3862L172.555 14.468C171.213 14.788 169.892 15.1595 168.593 15.5801L169.518 18.4341ZM180.908 16.1864C182.187 16.0875 183.48 16.0371 184.786 16.0371V13.0371C183.403 13.0371 182.033 13.0905 180.677 13.1953L180.908 16.1864ZM184.786 16.0371C186.095 16.0371 187.393 16.0878 188.676 16.1874L188.908 13.1964C187.548 13.0908 186.173 13.0371 184.786 13.0371V16.0371ZM196.357 17.3948C198.905 18.0046 201.375 18.8114 203.749 19.7977L204.9 17.0273C202.381 15.9805 199.759 15.1243 197.055 14.4772L196.357 17.3948ZM210.666 23.3415C211.772 24.0242 212.848 24.7493 213.891 25.5146L215.665 23.0953C214.558 22.283 213.416 21.5133 212.242 20.7887L210.666 23.3415ZM215.684 25.5011C216.74 24.7016 217.831 23.9439 218.953 23.2302L217.344 20.6985C216.152 21.4559 214.995 22.2602 213.873 23.1088L215.684 25.5011ZM225.993 19.5231C228.413 18.4906 230.935 17.6456 233.54 17.0067L232.826 14.093C230.061 14.771 227.384 15.6678 224.815 16.7637L225.993 19.5231ZM241.398 15.7415C242.711 15.6372 244.039 15.584 245.379 15.584V12.584C243.959 12.584 242.552 12.6403 241.16 12.7509L241.398 15.7415ZM245.379 15.584C246.978 15.584 248.558 15.6596 250.116 15.8072L250.399 12.8205C248.747 12.664 247.072 12.584 245.379 12.584V15.584ZM259.41 17.5981C262.472 18.5013 265.408 19.6927 268.184 21.1401L269.571 18.48C266.625 16.9437 263.509 15.6792 260.259 14.7207L259.41 17.5981ZM276.11 26.3065C278.583 28.2843 280.854 30.4956 282.888 32.9059L285.181 30.971C283.02 28.411 280.609 26.0632 277.984 23.9637L276.11 26.3065ZM288.245 40.6975C289.757 43.4453 291.003 46.3544 291.948 49.3916L294.812 48.5C293.806 45.2678 292.481 42.1731 290.874 39.2513L288.245 40.6975ZM293.83 58.6508C293.986 60.2056 294.065 61.7826 294.065 63.3784H297.065C297.065 61.6828 296.981 60.0061 296.816 58.3524L293.83 58.6508ZM294.065 63.3784C294.065 63.9237 294.056 64.4668 294.038 65.0076L297.036 65.1099C297.056 64.535 297.065 63.9578 297.065 63.3784H294.065ZM293.815 68.2575C293.759 68.7992 293.694 69.3382 293.62 69.8744L296.591 70.2856C296.67 69.7152 296.74 69.1418 296.799 68.5656L293.815 68.2575ZM294.347 71.3742C295.542 72.0741 296.703 72.8228 297.829 73.6175L299.559 71.1669C298.364 70.3233 297.132 69.5287 295.864 68.7858L294.347 71.3742ZM304.158 78.9463C306.113 80.8986 307.898 83.0146 309.489 85.2713L311.941 83.5422C310.249 81.1442 308.354 78.8967 306.279 76.8238L304.158 78.9463ZM313.65 92.4155C314.817 94.8941 315.774 97.4871 316.499 100.173L319.395 99.3911C318.624 96.533 317.606 93.774 316.364 91.1376L313.65 92.4155ZM317.939 108.309C318.058 109.672 318.118 111.051 318.118 112.445H321.118C321.118 110.964 321.054 109.498 320.927 108.049L317.939 108.309ZM318.118 112.445C318.118 114.041 318.039 115.618 317.883 117.172L320.868 117.471C321.034 115.817 321.118 114.14 321.118 112.445H318.118ZM316.001 126.432C315.055 129.469 313.81 132.378 312.298 135.126L314.926 136.572C316.534 133.65 317.859 130.555 318.865 127.323L316.001 126.432ZM306.941 142.917C304.907 145.328 302.636 147.539 300.163 149.517L302.037 151.859C304.662 149.76 307.073 147.412 309.234 144.852L306.941 142.917ZM292.237 154.683C289.461 156.13 286.525 157.322 283.463 158.225L284.311 161.103C287.562 160.144 290.677 158.879 293.624 157.343L292.237 154.683ZM274.169 160.016C272.611 160.164 271.031 160.239 269.432 160.239V163.239C271.125 163.239 272.8 163.159 274.452 163.003L274.169 160.016ZM269.432 160.239C267.468 160.239 265.532 160.125 263.63 159.903L263.283 162.883C265.3 163.118 267.352 163.239 269.432 163.239V160.239ZM252.35 157.215C250.521 156.542 248.745 155.765 247.028 154.89L245.666 157.562C247.488 158.491 249.373 159.316 251.314 160.03L252.35 157.215ZM245.138 155.339C244.006 156.881 242.783 158.355 241.476 159.753L243.667 161.802C245.055 160.318 246.354 158.752 247.557 157.113L245.138 155.339ZM232.722 167.139C229.555 169.229 226.123 170.963 222.487 172.283L223.511 175.103C227.37 173.702 231.012 171.861 234.374 169.643L232.722 167.139ZM211.335 174.908C209.455 175.124 207.542 175.235 205.602 175.235V178.235C207.657 178.235 209.684 178.117 211.678 177.888L211.335 174.908ZM205.602 175.235C203.907 175.235 202.233 175.15 200.584 174.985L200.285 177.97C202.033 178.145 203.807 178.235 205.602 178.235V175.235ZM190.761 172.975C187.533 171.962 184.451 170.627 181.555 169.008L180.092 171.627C183.166 173.345 186.437 174.762 189.863 175.837L190.761 172.975ZM173.352 163.247C172.087 162.148 170.881 160.986 169.739 159.765L167.548 161.815C168.761 163.111 170.042 164.345 171.385 165.512L173.352 163.247ZM168.644 160.79L170.834 158.74C170.158 158.018 169.169 157.675 168.191 157.825C167.213 157.974 166.372 158.595 165.942 159.487L168.644 160.79ZM75.6705 155.375L78.5099 154.406C78.2198 153.556 77.5638 152.88 76.7223 152.565C75.8808 152.25 74.9424 152.329 74.1652 152.78L75.6705 155.375ZM23.3041 71.2662L24.8927 73.811C25.9192 73.1703 26.4602 71.9756 26.2647 70.7814L23.3041 71.2662ZM92.3886 17.959L91.2375 20.7293C92.4476 21.2322 93.8441 20.8913 94.6865 19.8876L92.3886 17.959ZM169.055 17.0071L166.807 18.9931C167.597 19.8882 168.844 20.2292 169.98 19.8611L169.055 17.0071ZM214.778 24.3049L213.004 26.7242C214.074 27.5084 215.531 27.4974 216.589 26.6972L214.778 24.3049ZM295.106 70.08L292.134 69.6688C291.968 70.8709 292.542 72.0549 293.589 72.6684L295.106 70.08ZM246.347 156.226L247.709 153.553C246.399 152.885 244.798 153.266 243.928 154.452L246.347 156.226ZM163.839 163.357C162.979 164.773 163.43 166.619 164.847 167.478C166.263 168.338 168.108 167.887 168.968 166.471L163.839 163.357ZM163.025 174.442C164.136 173.213 164.041 171.316 162.812 170.204C161.583 169.093 159.686 169.188 158.575 170.417L163.025 174.442ZM152.077 176.372C150.756 177.372 150.497 179.254 151.497 180.574C152.497 181.895 154.379 182.155 155.7 181.154L152.077 176.372ZM147.257 186.389C148.74 185.651 149.344 183.85 148.606 182.367C147.868 180.883 146.067 180.279 144.584 181.018L147.257 186.389ZM136.359 184.195C134.765 184.645 133.838 186.303 134.289 187.898C134.739 189.492 136.397 190.419 137.992 189.968L136.359 184.195ZM128.229 191.774C129.879 191.624 131.095 190.165 130.945 188.514C130.795 186.864 129.335 185.649 127.685 185.799L128.229 191.774ZM118.392 185.755C116.744 185.589 115.273 186.791 115.107 188.439C114.941 190.088 116.143 191.559 117.791 191.725L118.392 185.755ZM107.057 189.525C108.638 190.021 110.322 189.143 110.819 187.562C111.315 185.982 110.437 184.297 108.856 183.801L107.057 189.525ZM99.9226 179.946C98.4768 179.137 96.6488 179.653 95.8396 181.098C95.0304 182.544 95.5464 184.372 96.9922 185.181L99.9226 179.946ZM88.0261 178.872C89.2758 179.96 91.1708 179.829 92.2586 178.579C93.3464 177.329 93.2152 175.434 91.9654 174.346L88.0261 178.872ZM85.3302 167.238C84.3316 165.916 82.4503 165.653 81.1282 166.652C79.8061 167.651 79.5439 169.532 80.5425 170.854L85.3302 167.238ZM74.8833 161.448C75.5826 162.95 77.3671 163.6 78.8692 162.901C80.3712 162.202 81.022 160.417 80.3227 158.915L74.8833 161.448ZM68.5453 155.56C67.0149 156.195 66.2888 157.95 66.9236 159.481C67.5584 161.011 69.3137 161.737 70.8441 161.102L68.5453 155.56ZM57.227 164.74C58.87 164.526 60.0286 163.021 59.8149 161.378C59.6011 159.735 58.0959 158.576 56.4529 158.79L57.227 164.74ZM45.5911 158.978C43.9416 158.822 42.4777 160.032 42.3215 161.681C42.1652 163.331 43.3757 164.795 45.0251 164.951L45.5911 158.978ZM34.8826 162.996C36.4717 163.465 38.14 162.557 38.6087 160.968C39.0774 159.378 38.169 157.71 36.5799 157.241L34.8826 162.996ZM28.0751 153.808C26.606 153.042 24.794 153.612 24.028 155.081C23.262 156.55 23.8319 158.362 25.3011 159.128L28.0751 153.808ZM16.6442 153.486C17.938 154.521 19.8259 154.311 20.8608 153.017C21.8958 151.723 21.6858 149.835 20.392 148.8L16.6442 153.486ZM13.8235 142.405C12.7549 141.139 10.8622 140.979 9.59598 142.047C8.3298 143.116 8.16966 145.009 9.23829 146.275L13.8235 142.405ZM3.37769 137.75C4.17642 139.202 6.00069 139.731 7.45231 138.932C8.90393 138.134 9.43319 136.309 8.63446 134.858L3.37769 137.75ZM5.04974 126.441C4.55732 124.859 2.87568 123.976 1.29369 124.468C-0.288295 124.96 -1.17157 126.642 -0.679149 128.224L5.04974 126.441ZM-2.74262 118.075C-2.57778 119.724 -1.10767 120.927 0.540961 120.762C2.1896 120.597 3.39245 119.127 3.22762 117.478L-2.74262 118.075ZM3.37039 107.069C3.58077 105.425 2.41904 103.923 0.775601 103.712C-0.867842 103.502 -2.37066 104.664 -2.58105 106.307L3.37039 107.069ZM0.762498 93.5449C0.140004 95.0804 0.880117 96.8298 2.41559 97.4523C3.95106 98.0748 5.70043 97.3347 6.32293 95.7992L0.762498 93.5449ZM12.0448 85.6385C13.0337 84.3091 12.7577 82.4298 11.4284 81.4409C10.099 80.452 8.21967 80.728 7.23076 82.0573L12.0448 85.6385ZM16.3475 72.5529C15.0611 73.597 14.8647 75.4863 15.9088 76.7728C16.953 78.0592 18.8423 78.2556 20.1287 77.2114L16.3475 72.5529ZM26.002 68.9423C25.8014 67.2976 24.3055 66.127 22.6608 66.3277C21.0161 66.5284 19.8455 68.0243 20.0462 69.6689L26.002 68.9423ZM19.7072 65.479C19.7738 67.1345 21.1698 68.4226 22.8253 68.356C24.4809 68.2894 25.7689 66.8934 25.7024 65.2379L19.7072 65.479ZM25.8927 58.8001C26.0575 57.1514 24.8546 55.6813 23.206 55.5165C21.5574 55.3517 20.0873 56.5545 19.9224 58.2032L25.8927 58.8001ZM21.9859 48.0542C21.4935 49.6362 22.3767 51.3178 23.9587 51.8102C25.5407 52.3027 27.2224 51.4194 27.7148 49.8374L21.9859 48.0542ZM31.2995 41.4206C32.0982 39.969 31.569 38.1448 30.1173 37.346C28.6657 36.5473 26.8415 37.0766 26.0427 38.5282L31.2995 41.4206ZM31.9033 30.0035C30.8347 31.2697 30.9948 33.1624 32.261 34.2311C33.5272 35.2997 35.4199 35.1395 36.4886 33.8734L31.9033 30.0035ZM43.057 27.4778C44.3509 26.4429 44.5608 24.5551 43.5259 23.2612C42.4909 21.9673 40.6031 21.7574 39.3092 22.7923L43.057 27.4778ZM47.9661 17.15C46.497 17.916 45.927 19.728 46.6931 21.1971C47.4591 22.6662 49.2711 23.2362 50.7402 22.4702L47.9661 17.15ZM59.2449 19.0368C60.8341 18.5681 61.7424 16.8999 61.2737 15.3107C60.805 13.7216 59.1368 12.8132 57.5476 13.2819L59.2449 19.0368ZM67.6902 11.3272C66.0407 11.4835 64.8303 12.9473 64.9865 14.5968C65.1428 16.2463 66.6066 17.4568 68.2561 17.3005L67.6902 11.3272ZM77.565 17.3119C79.2141 17.4722 80.6809 16.2654 80.8413 14.6163C81.0016 12.9672 79.7948 11.5004 78.1457 11.3401L77.565 17.3119ZM88.5429 13.398C86.9573 12.9173 85.2822 13.813 84.8015 15.3986C84.3208 16.9841 85.2164 18.6592 86.802 19.1399L88.5429 13.398ZM98.2291 16.1114C99.4276 14.9674 99.4717 13.0684 98.3276 11.8699C97.1836 10.6715 95.2846 10.6274 94.0861 11.7714L98.2291 16.1114ZM103.349 4.69369C101.93 5.5497 101.474 7.39363 102.33 8.81223C103.186 10.2308 105.03 10.6869 106.449 9.83088L103.349 4.69369ZM115.838 5.4851C117.408 4.95746 118.254 3.2565 117.726 1.68591C117.198 0.115318 115.497 -0.730155 113.927 -0.202508L115.838 5.4851ZM125.31 -2.69012C123.663 -2.51367 122.471 -1.03513 122.647 0.6123C122.823 2.25973 124.302 3.45221 125.949 3.27577L125.31 -2.69012ZM136.167 3.26025C137.815 3.43163 139.29 2.23463 139.461 0.586666C139.633 -1.0613 138.436 -2.53618 136.788 -2.70757L136.167 3.26025ZM147.863 -0.359236C146.287 -0.872186 144.594 -0.0108593 144.081 1.56459C143.568 3.14004 144.43 4.83303 146.005 5.34598L147.863 -0.359236ZM155.18 9.45438C156.611 10.2882 158.448 9.80342 159.282 8.37166C160.116 6.93989 159.631 5.10329 158.199 4.2695L155.18 9.45438ZM167.326 10.9764C166.103 9.85889 164.205 9.94461 163.088 11.1679C161.97 12.3911 162.056 14.2887 163.279 15.4062L167.326 10.9764ZM173.599 18.8453C175.21 18.4609 176.205 16.8429 175.821 15.2312C175.436 13.6195 173.818 12.6246 172.207 13.009L173.599 18.8453ZM180.561 11.6998C178.909 11.8275 177.674 13.2702 177.801 14.9222C177.929 16.5741 179.372 17.8097 181.024 17.6819L180.561 11.6998ZM188.56 17.6829C190.212 17.811 191.655 16.5758 191.783 14.9239C191.911 13.272 190.676 11.829 189.024 11.7009L188.56 17.6829ZM197.404 13.0183C195.793 12.6328 194.174 13.6265 193.788 15.2378C193.403 16.8492 194.396 18.468 196.008 18.8536L197.404 13.0183ZM203.173 21.1828C204.703 21.8186 206.459 21.0937 207.095 19.5637C207.73 18.0337 207.005 16.278 205.475 15.6422L203.173 21.1828ZM213.03 19.5124C211.62 18.642 209.771 19.0794 208.901 20.4892C208.031 21.8991 208.468 23.7476 209.878 24.6179L213.03 19.5124ZM219.758 24.4961C221.156 23.6073 221.569 21.7532 220.681 20.355C219.792 18.9567 217.938 18.5437 216.539 19.4326L219.758 24.4961ZM224.227 15.384C222.703 16.0342 221.994 17.7966 222.645 19.3206C223.295 20.8446 225.057 21.5529 226.581 20.9027L224.227 15.384ZM233.897 18.4635C235.507 18.0689 236.491 16.4445 236.097 14.8353C235.702 13.2261 234.078 12.2415 232.468 12.6362L233.897 18.4635ZM241.041 11.2556C239.39 11.3868 238.157 12.8321 238.288 14.4837C238.419 16.1354 239.865 17.3679 241.516 17.2367L241.041 11.2556ZM249.974 17.3005C251.624 17.4568 253.088 16.2463 253.244 14.5968C253.4 12.9473 252.19 11.4835 250.54 11.3272L249.974 17.3005ZM260.683 13.2819C259.094 12.8132 257.426 13.7216 256.957 15.3107C256.488 16.8999 257.396 18.5682 258.986 19.0368L260.683 13.2819ZM267.49 22.4702C268.959 23.2362 270.771 22.6662 271.537 21.1971C272.304 19.728 271.734 17.916 270.264 17.15L267.49 22.4702ZM278.921 22.7923C277.627 21.7574 275.74 21.9673 274.705 23.2612C273.67 24.5551 273.88 26.4429 275.173 27.4778L278.921 22.7923ZM281.742 33.8734C282.811 35.1395 284.703 35.2997 285.97 34.2311C287.236 33.1624 287.396 31.2697 286.327 30.0035L281.742 33.8734ZM292.188 38.5282C291.389 37.0765 289.565 36.5473 288.113 37.346C286.662 38.1448 286.132 39.969 286.931 41.4206L292.188 38.5282ZM290.516 49.8374C291.008 51.4194 292.69 52.3027 294.272 51.8102C295.854 51.3178 296.737 49.6362 296.245 48.0542L290.516 49.8374ZM298.308 58.2032C298.143 56.5545 296.673 55.3517 295.025 55.5165C293.376 55.6813 292.173 57.1514 292.338 58.8001L298.308 58.2032ZM292.539 64.9565C292.482 66.6124 293.779 68.0005 295.435 68.057C297.091 68.1135 298.479 66.8169 298.535 65.161L292.539 64.9565ZM298.291 68.7197C298.461 67.0716 297.263 65.5976 295.615 65.4274C293.967 65.2573 292.493 66.4554 292.323 68.1034L298.291 68.7197ZM296.964 74.8428C298.317 75.7985 300.189 75.4761 301.145 74.1226C302.1 72.7691 301.778 70.8972 300.424 69.9415L296.964 74.8428ZM307.339 75.7626C306.167 74.5917 304.267 74.5927 303.096 75.7649C301.925 76.9371 301.926 78.8366 303.098 80.0075L307.339 75.7626ZM308.263 86.1358C309.218 87.4898 311.09 87.8132 312.444 86.8583C313.798 85.9033 314.121 84.0316 313.166 82.6776L308.263 86.1358ZM317.721 90.4986C317.016 88.9996 315.228 88.3566 313.729 89.0623C312.23 89.7681 311.587 91.5555 312.293 93.0545L317.721 90.4986ZM315.051 100.563C315.482 102.163 317.129 103.11 318.728 102.678C320.328 102.247 321.275 100.6 320.843 99.0003L315.051 100.563ZM322.422 107.918C322.278 106.268 320.823 105.046 319.172 105.19C317.522 105.334 316.3 106.789 316.444 108.44L322.422 107.918ZM316.391 117.023C316.226 118.672 317.429 120.142 319.077 120.307C320.726 120.472 322.196 119.269 322.361 117.62L316.391 117.023ZM320.297 127.769C320.79 126.187 319.907 124.505 318.325 124.013C316.743 123.521 315.061 124.404 314.568 125.986L320.297 127.769ZM310.984 134.403C310.185 135.854 310.714 137.678 312.166 138.477C313.618 139.276 315.442 138.747 316.241 137.295L310.984 134.403ZM310.38 145.82C311.449 144.553 311.288 142.661 310.022 141.592C308.756 140.523 306.863 140.684 305.795 141.95L310.38 145.82ZM299.226 148.345C297.932 149.38 297.722 151.268 298.757 152.562C299.792 153.856 301.68 154.066 302.974 153.031L299.226 148.345ZM294.317 158.673C295.786 157.907 296.356 156.095 295.59 154.626C294.824 153.157 293.012 152.587 291.543 153.353L294.317 158.673ZM283.038 156.786C281.449 157.255 280.541 158.923 281.01 160.512C281.478 162.102 283.146 163.01 284.736 162.541L283.038 156.786ZM274.593 164.496C276.243 164.34 277.453 162.876 277.297 161.226C277.14 159.577 275.677 158.366 274.027 158.523L274.593 164.496ZM263.803 158.414C262.158 158.222 260.668 159.4 260.476 161.046C260.285 162.692 261.463 164.181 263.109 164.373L263.803 158.414ZM250.796 161.438C252.351 162.01 254.075 161.213 254.647 159.658C255.219 158.103 254.422 156.379 252.868 155.807L250.796 161.438ZM240.38 158.728C239.249 159.938 239.312 161.837 240.523 162.969C241.733 164.1 243.631 164.037 244.763 162.826L240.38 158.728ZM235.2 170.895C236.583 169.983 236.965 168.122 236.053 166.739C235.14 165.356 233.279 164.975 231.896 165.887L235.2 170.895ZM221.976 170.873C220.418 171.438 219.614 173.159 220.179 174.717C220.745 176.274 222.466 177.078 224.023 176.513L221.976 170.873ZM211.849 179.378C213.495 179.189 214.676 177.701 214.487 176.055C214.297 174.409 212.809 173.228 211.163 173.417L211.849 179.378ZM200.734 173.492C199.086 173.327 197.615 174.529 197.45 176.177C197.284 177.826 198.486 179.297 200.135 179.462L200.734 173.492ZM189.414 177.268C190.995 177.764 192.678 176.885 193.174 175.304C193.67 173.723 192.791 172.04 191.21 171.543L189.414 177.268ZM182.287 167.699C180.84 166.891 179.012 167.408 178.204 168.855C177.396 170.301 177.914 172.129 179.36 172.937L182.287 167.699ZM170.401 166.644C171.652 167.731 173.547 167.598 174.633 166.347C175.72 165.096 175.587 163.201 174.336 162.115L170.401 166.644ZM165.942 159.487C165.302 160.812 164.6 162.104 163.839 163.357L168.968 166.471C169.828 165.054 170.622 163.594 171.346 162.094L165.942 159.487ZM158.575 170.417C156.605 172.595 154.429 174.59 152.077 176.372L155.7 181.154C158.351 179.146 160.804 176.898 163.025 174.442L158.575 170.417ZM144.584 181.018C141.973 182.317 139.222 183.385 136.359 184.195L137.992 189.968C141.216 189.057 144.315 187.853 147.257 186.389L144.584 181.018ZM127.685 185.799C126.232 185.931 124.758 185.999 123.268 185.999V191.999C124.94 191.999 126.595 191.923 128.229 191.774L127.685 185.799ZM123.268 185.999C121.621 185.999 119.994 185.916 118.392 185.755L117.791 191.725C119.593 191.906 121.42 191.999 123.268 191.999V185.999ZM108.856 183.801C105.723 182.816 102.733 181.518 99.9226 179.946L96.9922 185.181C100.158 186.953 103.528 188.415 107.057 189.525L108.856 183.801ZM91.9654 174.346C89.511 172.21 87.2859 169.827 85.3302 167.238L80.5425 170.854C82.7501 173.777 85.2599 176.464 88.0261 178.872L91.9654 174.346ZM80.3227 158.915C79.6412 157.451 79.0353 155.947 78.5099 154.406L72.8312 156.343C73.4262 158.088 74.1121 159.791 74.8833 161.448L80.3227 158.915ZM74.1652 152.78C72.3652 153.824 70.4884 154.754 68.5453 155.56L70.8441 161.102C73.0334 160.194 75.1479 159.146 77.1759 157.97L74.1652 152.78ZM56.4529 158.79C54.4039 159.057 52.3121 159.194 50.1861 159.194V165.194C52.5716 165.194 54.922 165.04 57.227 164.74L56.4529 158.79ZM50.1861 159.194C48.635 159.194 47.1022 159.121 45.5911 158.978L45.0251 164.951C46.7242 165.112 48.4458 165.194 50.1861 165.194V159.194ZM36.5799 157.241C33.6112 156.366 30.7658 155.211 28.0751 153.808L25.3011 159.128C28.3327 160.709 31.5384 162.01 34.8826 162.996L36.5799 157.241ZM20.392 148.8C17.9953 146.883 15.7945 144.74 13.8235 142.405L9.23829 146.275C11.4621 148.91 13.9434 151.326 16.6442 153.486L20.392 148.8ZM8.63446 134.858C7.17039 132.197 5.96475 129.381 5.04974 126.441L-0.679149 128.224C0.35728 131.554 1.72216 134.741 3.37769 137.75L8.63446 134.858ZM3.22762 117.478C3.07712 115.973 3 114.446 3 112.9H-3C-3 114.645 -2.91291 116.372 -2.74262 118.075L3.22762 117.478ZM3 112.9C3 110.924 3.12605 108.978 3.37039 107.069L-2.58105 106.307C-2.85764 108.468 -3 110.668 -3 112.9H3ZM6.32293 95.7992C7.79618 92.1652 9.72614 88.7554 12.0448 85.6385L7.23076 82.0573C4.61303 85.5762 2.43035 89.4309 0.762498 93.5449L6.32293 95.7992ZM20.1287 77.2114C21.6404 75.9845 23.2312 74.8482 24.8927 73.811L21.7155 68.7213C19.8436 69.8898 18.051 71.1702 16.3475 72.5529L20.1287 77.2114ZM26.2647 70.7814C26.1649 70.1723 26.0773 69.5592 26.002 68.9423L20.0462 69.6689C20.1314 70.3672 20.2306 71.0613 20.3435 71.7509L26.2647 70.7814ZM25.7024 65.2379C25.6776 64.6212 25.665 64.0013 25.665 63.3784H19.665C19.665 64.0818 19.6792 64.7821 19.7072 65.479L25.7024 65.2379ZM25.665 63.3784C25.665 61.8326 25.7422 60.3053 25.8927 58.8001L19.9224 58.2032C19.7521 59.9064 19.665 61.6329 19.665 63.3784H25.665ZM27.7148 49.8374C28.6298 46.8978 29.8354 44.0814 31.2995 41.4206L26.0427 38.5282C24.3872 41.5369 23.0223 44.7245 21.9859 48.0542L27.7148 49.8374ZM36.4886 33.8734C38.4596 31.538 40.6603 29.3949 43.057 27.4778L39.3092 22.7923C36.6085 24.9526 34.1271 27.3687 31.9033 30.0035L36.4886 33.8734ZM50.7402 22.4702C53.4308 21.0672 56.2762 19.9124 59.2449 19.0368L57.5476 13.2819C54.2035 14.2682 50.9977 15.5692 47.9661 17.15L50.7402 22.4702ZM68.2561 17.3005C69.7673 17.1573 71.3 17.084 72.8511 17.084V11.084C71.1108 11.084 69.3892 11.1663 67.6902 11.3272L68.2561 17.3005ZM72.8511 17.084C74.4429 17.084 76.0154 17.1612 77.565 17.3119L78.1457 11.3401C76.4033 11.1706 74.6371 11.084 72.8511 11.084V17.084ZM86.802 19.1399C88.3145 19.5985 89.7943 20.1297 91.2375 20.7293L93.5398 15.1886C91.9138 14.513 90.2466 13.9146 88.5429 13.398L86.802 19.1399ZM94.6865 19.8876C95.796 18.5657 96.9789 17.3049 98.2291 16.1114L94.0861 11.7714C92.6766 13.117 91.3425 14.5388 90.0907 16.0303L94.6865 19.8876ZM106.449 9.83088C109.382 8.06111 112.527 6.59743 115.838 5.4851L113.927 -0.202508C110.197 1.05064 106.653 2.69972 103.349 4.69369L106.449 9.83088ZM125.949 3.27577C127.65 3.0936 129.379 3 131.132 3V-3C129.166 -3 127.223 -2.89498 125.31 -2.69012L125.949 3.27577ZM131.132 3C132.834 3 134.514 3.08828 136.167 3.26025L136.788 -2.70757C134.928 -2.90094 133.041 -3 131.132 -3V3ZM146.005 5.34598C149.232 6.39655 152.304 7.77981 155.18 9.45438L158.199 4.2695C154.959 2.38277 151.498 0.82431 147.863 -0.359236L146.005 5.34598ZM163.279 15.4062C164.519 16.5391 165.697 17.7366 166.807 18.9931L171.304 15.0212C170.052 13.6037 168.724 12.2535 167.326 10.9764L163.279 15.4062ZM169.98 19.8611C171.166 19.4769 172.373 19.1376 173.599 18.8453L172.207 13.009C170.826 13.3382 169.467 13.7203 168.131 14.1531L169.98 19.8611ZM181.024 17.6819C182.264 17.586 183.519 17.5371 184.786 17.5371V11.5371C183.364 11.5371 181.955 11.592 180.561 11.6998L181.024 17.6819ZM184.786 17.5371C186.057 17.5371 187.315 17.5863 188.56 17.6829L189.024 11.7009C187.625 11.5923 186.212 11.5371 184.786 11.5371V17.5371ZM196.008 18.8536C198.478 19.4448 200.872 20.2268 203.173 21.1828L205.475 15.6422C202.883 14.565 200.186 13.6841 197.404 13.0183L196.008 18.8536ZM209.878 24.6179C210.95 25.2796 211.993 25.9825 213.004 26.7242L216.552 21.8856C215.413 21.0498 214.238 20.2579 213.03 19.5124L209.878 24.6179ZM216.589 26.6972C217.613 25.9223 218.67 25.1878 219.758 24.4961L216.539 19.4326C215.313 20.2119 214.122 21.0395 212.968 21.9126L216.589 26.6972ZM226.581 20.9027C228.927 19.902 231.372 19.0829 233.897 18.4635L232.468 12.6362C229.624 13.3337 226.87 14.2565 224.227 15.384L226.581 20.9027ZM241.516 17.2367C242.79 17.1356 244.078 17.084 245.379 17.084V11.084C243.919 11.084 242.473 11.1419 241.041 11.2556L241.516 17.2367ZM245.379 17.084C246.931 17.084 248.463 17.1573 249.974 17.3005L250.54 11.3272C248.841 11.1663 247.12 11.084 245.379 11.084V17.084ZM258.986 19.0368C261.954 19.9124 264.8 21.0672 267.49 22.4702L270.264 17.15C267.233 15.5692 264.027 14.2682 260.683 13.2819L258.986 19.0368ZM275.173 27.4778C277.57 29.3949 279.771 31.538 281.742 33.8734L286.327 30.0035C284.103 27.3687 281.622 24.9526 278.921 22.7923L275.173 27.4778ZM286.931 41.4206C288.395 44.0814 289.601 46.8977 290.516 49.8374L296.245 48.0542C295.208 44.7245 293.843 41.5369 292.188 38.5282L286.931 41.4206ZM292.338 58.8001C292.488 60.3053 292.565 61.8326 292.565 63.3784H298.565C298.565 61.6329 298.478 59.9064 298.308 58.2032L292.338 58.8001ZM292.565 63.3784C292.565 63.9067 292.556 64.4327 292.539 64.9565L298.535 65.161C298.555 64.5691 298.565 63.9749 298.565 63.3784H292.565ZM292.323 68.1034C292.269 68.6279 292.206 69.1497 292.134 69.6688L298.077 70.4912C298.159 69.9037 298.23 69.3131 298.291 68.7197L292.323 68.1034ZM293.589 72.6684C294.747 73.3468 295.873 74.0726 296.964 74.8428L300.424 69.9415C299.195 69.0736 297.927 68.256 296.622 67.4916L293.589 72.6684ZM303.098 80.0075C304.992 81.8995 306.722 83.9498 308.263 86.1358L313.166 82.6776C311.425 80.2091 309.474 77.8958 307.339 75.7626L303.098 80.0075ZM312.293 93.0545C313.423 95.4542 314.349 97.9642 315.051 100.563L320.843 99.0003C320.049 96.0559 319 93.2139 317.721 90.4986L312.293 93.0545ZM316.444 108.44C316.559 109.759 316.618 111.095 316.618 112.445H322.618C322.618 110.921 322.552 109.411 322.422 107.918L316.444 108.44ZM316.618 112.445C316.618 113.991 316.541 115.518 316.391 117.023L322.361 117.62C322.531 115.917 322.618 114.19 322.618 112.445H316.618ZM314.568 125.986C313.653 128.925 312.448 131.742 310.984 134.403L316.241 137.295C317.896 134.286 319.261 131.099 320.297 127.769L314.568 125.986ZM305.795 141.95C303.824 144.285 301.623 146.428 299.226 148.345L302.974 153.031C305.675 150.871 308.156 148.455 310.38 145.82L305.795 141.95ZM291.543 153.353C288.852 154.756 286.007 155.911 283.038 156.786L284.736 162.541C288.08 161.555 291.286 160.254 294.317 158.673L291.543 153.353ZM274.027 158.523C272.516 158.666 270.983 158.739 269.432 158.739V164.739C271.172 164.739 272.894 164.657 274.593 164.496L274.027 158.523ZM269.432 158.739C267.526 158.739 265.648 158.628 263.803 158.414L263.109 164.373C265.184 164.615 267.294 164.739 269.432 164.739V158.739ZM252.868 155.807C251.095 155.155 249.373 154.401 247.709 153.553L244.985 158.899C246.859 159.854 248.799 160.704 250.796 161.438L252.868 155.807ZM243.928 154.452C242.832 155.946 241.647 157.374 240.38 158.728L244.763 162.826C246.191 161.299 247.528 159.688 248.766 158L243.928 154.452ZM231.896 165.887C228.826 167.913 225.5 169.593 221.976 170.873L224.023 176.513C227.993 175.071 231.741 173.178 235.2 170.895L231.896 165.887ZM211.163 173.417C209.34 173.627 207.484 173.735 205.602 173.735V179.735C207.714 179.735 209.799 179.614 211.849 179.378L211.163 173.417ZM205.602 173.735C203.957 173.735 202.334 173.653 200.734 173.492L200.135 179.462C201.933 179.643 203.757 179.735 205.602 179.735V173.735ZM191.21 171.543C188.081 170.561 185.094 169.268 182.287 167.699L179.36 172.937C182.523 174.704 185.888 176.162 189.414 177.268L191.21 171.543ZM174.336 162.115C173.11 161.05 171.941 159.923 170.834 158.74L166.453 162.84C167.702 164.174 169.019 165.444 170.401 166.644L174.336 162.115Z" fill="#247158" mask="url(#path-1-inside-1_361_856)"/>
</svg>
