<svg width="1290" height="3210" viewBox="0 0 1290 3210" fill="none" xmlns="http://www.w3.org/2000/svg">
<path d="M1103.36 902.673C1124.53 881.132 1131.83 853.41 1122.26 832.016C1117.65 821.73 1106.31 806.494 1093.53 807.195C1069.38 808.528 1058.13 866.068 1057.32 870.412C1051.24 902.877 1058.16 930.465 1063.73 946.485" fill="#7AAB99" fill-opacity="0.5"/>
<path d="M133.488 894.786C146.501 867.529 144.377 838.943 128.37 821.825C120.668 813.598 104.989 802.879 93.1313 807.7C70.7299 816.817 78.8107 874.887 79.4526 879.261C84.2695 911.936 99.7868 935.772 110.269 949.107" fill="#7AAB99" fill-opacity="0.5"/>
<path d="M1004.12 1265.26C1004.64 1235.06 990.846 1209.94 969.178 1201.01C958.756 1196.72 940.042 1193.47 931.255 1202.78C914.658 1220.37 946.112 1269.85 948.511 1273.57C966.455 1301.29 990.466 1316.54 1005.54 1324.32" fill="#7AAB99" fill-opacity="0.5"/>
<path d="M1183.12 1580.26C1183.64 1550.06 1169.85 1524.94 1148.18 1516.01C1137.76 1511.72 1119.04 1508.47 1110.26 1517.78C1093.66 1535.37 1125.11 1584.85 1127.51 1588.57C1145.45 1616.29 1169.47 1631.54 1184.54 1639.32" fill="#4D8F78"/>
<path d="M1027.46 222.749C1019.73 255.195 1031.71 279.708 1057.65 285.495C1070.13 288.271 1093.58 288.482 1107.12 276.977C1132.69 255.234 1103.57 207.714 1101.33 204.154C1084.6 177.578 1057.1 165.434 1039.42 159.726" fill="#7AAB99" fill-opacity="0.5"/>
<path d="M719.502 968.363C706.603 937.603 682.469 924.88 658.11 935.514C646.396 940.637 627.34 954.302 623.197 971.581C615.376 1004.23 666.932 1025.41 670.838 1026.96C700.03 1038.54 729.396 1032.12 747.036 1026.3" fill="#7AAB99" fill-opacity="0.5"/>
<path d="M109.503 2053.36C96.603 2022.6 72.4696 2009.88 48.1105 2020.51C36.3966 2025.64 17.3406 2039.3 13.1973 2056.58C5.37568 2089.23 56.9324 2110.41 60.8381 2111.96C90.0298 2123.54 119.396 2117.12 137.036 2111.3" fill="#7AAB99" fill-opacity="0.5"/>
<path d="M670.464 342.428C669.567 372.618 683.053 397.913 704.61 407.109C714.979 411.525 733.651 415 742.551 405.8C759.363 388.413 728.521 338.552 726.167 334.81C708.565 306.863 684.744 291.323 669.769 283.357" fill="#7AAB99" fill-opacity="0.5"/>
<path d="M792.464 80.4277C791.567 110.618 805.053 135.913 826.61 145.109C836.979 149.525 855.651 153 864.551 143.8C881.363 126.413 850.521 76.5523 848.167 72.8102C830.565 44.8631 806.744 29.3234 791.769 21.3567" fill="#7AAB99" fill-opacity="0.5"/>
<path d="M683.212 3140.66C685.894 3110.58 673.927 3084.53 652.953 3074.08C642.863 3069.05 624.429 3064.48 615 3073.14C597.189 3089.5 625.028 3141.1 627.156 3144.97C643.073 3173.91 665.934 3190.83 680.411 3199.67" fill="#7AAB99" fill-opacity="0.5"/>
<path d="M1137.55 1608.6C1154.61 1583.68 1156.93 1555.11 1143.76 1535.73C1137.43 1526.41 1123.59 1513.39 1111.13 1516.33C1087.59 1521.87 1086.6 1580.49 1086.56 1584.91C1086.27 1617.94 1097.92 1643.89 1106.21 1658.68" fill="#7AAB99" fill-opacity="0.5"/>
<path d="M1090.73 2769.74C1112.66 2748.97 1120.94 2721.53 1112.15 2699.8C1107.91 2689.36 1097.13 2673.72 1084.33 2673.97C1060.15 2674.43 1046.84 2731.53 1045.87 2735.85C1038.63 2768.07 1044.56 2795.89 1049.55 2812.1" fill="#7AAB99" fill-opacity="0.5"/>
<path d="M1237.11 42.1843C1218.39 57.4943 1210.18 78.9273 1215.94 96.7845C1218.72 105.37 1226.42 118.48 1236.66 119.029C1255.99 120.061 1269.93 75.2387 1270.96 71.8513C1278.61 46.5383 1275.49 23.981 1272.45 10.747" fill="#7AAB99" fill-opacity="0.5"/>
</svg>
