<svg width="316" height="182" viewBox="0 0 316 182" fill="none" xmlns="http://www.w3.org/2000/svg">
<mask id="path-1-inside-1_362_1006" fill="white">
<path fill-rule="evenodd" clip-rule="evenodd" d="M203.184 170.188C188.734 170.188 175.727 164.272 166.662 154.834C158.711 170.893 141.62 182 121.818 182C99.9391 182 81.369 168.44 74.7811 149.622C67.3994 153.795 58.7898 156.189 49.596 156.189C22.2049 156.189 0 134.937 0 108.721C0 91.8584 9.18629 77.0497 23.0303 68.6288C22.6145 66.155 22.3984 63.6173 22.3984 61.0313C22.3984 34.815 44.6033 13.5625 71.9944 13.5625C78.8433 13.5625 85.3679 14.8912 91.3022 17.294C100.399 6.73281 114.173 0 129.59 0C144.557 0 157.975 6.34523 167.069 16.3784C171.958 14.8351 177.184 14 182.614 14C193.726 14 203.984 17.4977 212.253 23.4055C220.623 17.2332 231.111 13.5625 242.495 13.5625C269.886 13.5625 292.091 34.815 292.091 61.0313C292.091 63.22 291.936 65.3741 291.636 67.4841C306.143 75.767 315.86 90.9371 315.86 108.279C315.86 134.496 293.655 155.748 266.264 155.748C258.038 155.748 250.279 153.831 243.45 150.439C234.445 162.4 219.765 170.188 203.184 170.188Z"/>
</mask>
<path d="M166.662 154.834L167.744 153.795C167.405 153.442 166.916 153.277 166.434 153.351C165.951 153.426 165.534 153.73 165.317 154.168L166.662 154.834ZM74.7811 149.622L76.1968 149.127C76.0501 148.708 75.725 148.375 75.3092 148.218C74.8934 148.062 74.4297 148.098 74.043 148.317L74.7811 149.622ZM23.0303 68.6288L23.8098 69.9103C24.3341 69.5914 24.6112 68.9854 24.5095 68.3802L23.0303 68.6288ZM91.3022 17.294L90.7393 18.6843C91.3354 18.9257 92.0191 18.7602 92.4388 18.2729L91.3022 17.294ZM167.069 16.3784L165.957 17.3857C166.351 17.82 166.961 17.9852 167.52 17.8088L167.069 16.3784ZM212.253 23.4055L211.381 24.626C211.909 25.0035 212.62 24.9982 213.143 24.6128L212.253 23.4055ZM291.636 67.4841L290.151 67.2732C290.065 67.882 290.359 68.4818 290.893 68.7867L291.636 67.4841ZM243.45 150.439L244.117 149.095C243.47 148.774 242.686 148.96 242.252 149.537L243.45 150.439ZM163.148 158.056C162.709 158.758 162.923 159.684 163.625 160.122C164.328 160.561 165.253 160.347 165.692 159.645L163.148 158.056ZM159.92 167.16C160.485 166.555 160.452 165.605 159.846 165.04C159.24 164.475 158.291 164.508 157.726 165.114L159.92 167.16ZM151.064 171.028C150.396 171.518 150.251 172.456 150.741 173.124C151.231 173.793 152.17 173.937 152.838 173.447L151.064 171.028ZM144.721 178.317C145.467 177.958 145.781 177.062 145.422 176.315C145.062 175.569 144.166 175.255 143.42 175.614L144.721 178.317ZM135.066 178.734C134.267 178.953 133.797 179.777 134.015 180.577C134.233 181.376 135.058 181.847 135.857 181.628L135.066 178.734ZM126.547 183.293C127.372 183.22 127.982 182.493 127.91 181.667C127.837 180.842 127.109 180.232 126.284 180.305L126.547 183.293ZM116.896 180.262C116.072 180.182 115.338 180.786 115.258 181.61C115.178 182.435 115.782 183.168 116.606 183.248L116.896 180.262ZM106.38 181.225C107.173 181.465 108.01 181.018 108.251 180.225C108.491 179.432 108.043 178.595 107.251 178.354L106.38 181.225ZM98.1799 174.574C97.4511 174.18 96.541 174.452 96.1471 175.181C95.7532 175.909 96.0247 176.82 96.7535 177.213L98.1799 174.574ZM88.1253 171.347C88.7593 171.88 89.7055 171.798 90.2388 171.164C90.7721 170.531 90.6905 169.584 90.0565 169.051L88.1253 171.347ZM83.2412 161.989C82.7315 161.336 81.7889 161.219 81.1358 161.729C80.4827 162.239 80.3665 163.181 80.8762 163.834L83.2412 161.989ZM75.366 154.957C75.7241 155.704 76.62 156.019 77.367 155.661C78.114 155.303 78.4292 154.407 78.0711 153.66L75.366 154.957ZM68.2967 151.085C67.5286 151.396 67.1573 152.27 67.4674 153.038C67.7776 153.806 68.6518 154.177 69.4199 153.867L68.2967 151.085ZM56.3466 157.266C57.1685 157.162 57.7504 156.411 57.6465 155.589C57.5425 154.767 56.7919 154.185 55.97 154.289L56.3466 157.266ZM44.9714 154.48C44.1464 154.405 43.4166 155.012 43.3414 155.837C43.2662 156.662 43.8741 157.392 44.6991 157.467L44.9714 154.48ZM35.067 155.681C35.8639 155.907 36.6933 155.445 36.9194 154.648C37.1456 153.851 36.6828 153.021 35.8858 152.795L35.067 155.681ZM27.2777 149.451C26.5372 149.08 25.6358 149.379 25.2643 150.119C24.8929 150.86 25.1921 151.761 25.9325 152.133L27.2777 149.451ZM17.6281 146.924C18.2846 147.429 19.2264 147.307 19.7316 146.65C20.2368 145.994 20.1142 145.052 19.4576 144.547L17.6281 146.924ZM12.7259 138.24C12.1795 137.617 11.2318 137.555 10.6091 138.102C9.98634 138.648 9.92445 139.596 10.4708 140.218L12.7259 138.24ZM4.76387 132.232C5.17527 132.951 6.09169 133.201 6.81074 132.789C7.52979 132.378 7.77919 131.461 7.36779 130.742L4.76387 132.232ZM3.64081 122.325C3.38568 121.537 2.53992 121.105 1.75176 121.36C0.963595 121.615 0.531495 122.461 0.786633 123.249L3.64081 122.325ZM-1.24593 113.634C-1.16025 114.458 -0.422819 115.056 0.401165 114.971C1.22515 114.885 1.82366 114.147 1.73799 113.324L-1.24593 113.634ZM1.88277 102.892C1.99147 102.071 1.41381 101.317 0.592549 101.208C-0.228717 101.1 -0.982598 101.677 -1.09129 102.499L1.88277 102.892ZM2.16028 90.4861C1.84021 91.2502 2.20017 92.129 2.96427 92.4491C3.72836 92.7692 4.60726 92.4092 4.92733 91.6451L2.16028 90.4861ZM10.7891 81.5604C11.2935 80.9032 11.1696 79.9616 10.5125 79.4572C9.85528 78.9528 8.91364 79.0767 8.40925 79.7338L10.7891 81.5604ZM17.1419 70.896C16.4915 71.4091 16.3803 72.3523 16.8934 73.0027C17.4065 73.6531 18.3497 73.7644 19.0001 73.2513L17.1419 70.896ZM24.2419 66.5546C24.139 65.7326 23.3891 65.1497 22.5671 65.2526C21.7451 65.3556 21.1622 66.1054 21.2652 66.9274L24.2419 66.5546ZM20.939 63.0008C20.9732 63.8285 21.6719 64.4718 22.4996 64.4376C23.3274 64.4034 23.9707 63.7047 23.9365 62.877L20.939 63.0008ZM24.1364 56.4285C24.2221 55.6045 23.6236 54.8671 22.7996 54.7814C21.9756 54.6957 21.2382 55.2942 21.1525 56.1182L24.1364 56.4285ZM23.1851 46.5029C22.9299 47.2911 23.362 48.1368 24.1502 48.392C24.9384 48.6471 25.7841 48.215 26.0392 47.4268L23.1851 46.5029ZM29.7662 39.0096C30.1776 38.2906 29.9282 37.3741 29.2092 36.9627C28.4901 36.5513 27.5737 36.8007 27.1623 37.5198L29.7662 39.0096ZM32.8692 29.5335C32.3229 30.1563 32.3848 31.104 33.0075 31.6504C33.6302 32.1967 34.5779 32.1348 35.1243 31.5121L32.8692 29.5335ZM41.8561 25.2053C42.5126 24.7001 42.6353 23.7583 42.1301 23.1017C41.6249 22.4452 40.6831 22.3225 40.0265 22.8277L41.8561 25.2053ZM48.331 17.6192C47.5905 17.9907 47.2913 18.8921 47.6628 19.6326C48.0342 20.373 48.9356 20.6722 49.6761 20.3008L48.331 17.6192ZM58.2843 16.9569C59.0812 16.7307 59.544 15.9014 59.3179 15.1044C59.0918 14.3074 58.2624 13.8447 57.4654 14.0708L58.2843 16.9569ZM67.0975 12.2846C66.2725 12.3598 65.6647 13.0895 65.7399 13.9145C65.8151 14.7395 66.5448 15.3474 67.3698 15.2722L67.0975 12.2846ZM76.7927 15.2883C77.6175 15.3664 78.3493 14.7611 78.4274 13.9363C78.5054 13.1116 77.9001 12.3797 77.0754 12.3017L76.7927 15.2883ZM87.0585 14.2257C86.264 13.9911 85.4297 14.445 85.1952 15.2395C84.9606 16.034 85.4145 16.8683 86.209 17.1029L87.0585 14.2257ZM96.0796 14.4947C96.6867 13.931 96.7218 12.9819 96.1582 12.3748C95.5945 11.7677 94.6454 11.7326 94.0383 12.2962L96.0796 14.4947ZM102.982 5.6555C102.267 6.07417 102.027 6.99307 102.445 7.70791C102.864 8.42276 103.783 8.66286 104.498 8.24419L102.982 5.6555ZM114.068 3.94629C114.855 3.68972 115.286 2.84318 115.029 2.05549C114.773 1.26779 113.926 0.83722 113.139 1.09378L114.068 3.94629ZM124.027 -1.21304C123.203 -1.12752 122.604 -0.390201 122.69 0.4338C122.776 1.2578 123.513 1.85646 124.337 1.77093L124.027 -1.21304ZM134.695 1.75583C135.52 1.83893 136.255 1.23811 136.338 0.41386C136.421 -0.410389 135.821 -1.14594 134.996 -1.22904L134.695 1.75583ZM145.592 0.949709C144.802 0.700266 143.959 1.13846 143.71 1.92844C143.46 2.71842 143.899 3.56104 144.689 3.81048L145.592 0.949709ZM154.04 7.8747C154.761 8.28242 155.676 8.02834 156.084 7.30719C156.492 6.58604 156.238 5.67091 155.517 5.26319L154.04 7.8747ZM164.326 11.5554C163.707 11.0051 162.759 11.0609 162.208 11.6801C161.658 12.2993 161.714 13.2474 162.333 13.7978L164.326 11.5554ZM171.214 16.7986C172.021 16.6112 172.523 15.8051 172.336 14.9981C172.148 14.1912 171.342 13.689 170.535 13.8764L171.214 16.7986ZM178.558 12.6521C177.732 12.7143 177.112 13.4344 177.175 14.2605C177.237 15.0865 177.957 15.7058 178.783 15.6436L178.558 12.6521ZM186.448 15.6439C187.274 15.7061 187.994 15.0869 188.056 14.2608C188.118 13.4347 187.499 12.7146 186.673 12.6524L186.448 15.6439ZM194.702 13.8788C193.895 13.6912 193.089 14.1933 192.902 15.0002C192.714 15.8071 193.216 16.6133 194.023 16.8009L194.702 13.8788ZM201.326 19.1087C202.094 19.4191 202.968 19.048 203.279 18.2799C203.589 17.5118 203.218 16.6376 202.45 16.3272L201.326 19.1087ZM209.724 19.9533C209.014 19.5265 208.092 19.7562 207.665 20.4663C207.239 21.1763 207.468 22.0979 208.178 22.5246L209.724 19.9533ZM216.39 22.4163C217.095 21.9803 217.312 21.0558 216.876 20.3514C216.44 19.647 215.516 19.4293 214.812 19.8653L216.39 22.4163ZM222.215 16.0713C221.45 16.3888 221.087 17.2664 221.404 18.0316C221.722 18.7968 222.599 19.1598 223.364 18.8424L222.215 16.0713ZM230.822 16.4255C231.628 16.2335 232.125 15.4245 231.933 14.6187C231.741 13.8128 230.932 13.3152 230.126 13.5072L230.822 16.4255ZM238.34 12.2221C237.514 12.2859 236.896 13.0071 236.96 13.8331C237.023 14.659 237.745 15.277 238.571 15.2132L238.34 12.2221ZM247.119 15.2722C247.945 15.3474 248.674 14.7395 248.749 13.9145C248.825 13.0895 248.217 12.3598 247.392 12.2846L247.119 15.2722ZM257.024 14.0708C256.227 13.8447 255.398 14.3074 255.171 15.1044C254.945 15.9014 255.408 16.7307 256.205 16.9569L257.024 14.0708ZM264.813 20.3008C265.554 20.6722 266.455 20.373 266.827 19.6326C267.198 18.8921 266.899 17.9907 266.158 17.6192L264.813 20.3008ZM274.463 22.8277C273.806 22.3225 272.864 22.4452 272.359 23.1017C271.854 23.7583 271.977 24.7001 272.633 25.2053L274.463 22.8277ZM279.365 31.5121C279.911 32.1348 280.859 32.1967 281.482 31.6503C282.105 31.104 282.166 30.1563 281.62 29.5335L279.365 31.5121ZM287.327 37.5198C286.916 36.8007 285.999 36.5513 285.28 36.9627C284.561 37.3741 284.312 38.2906 284.723 39.0096L287.327 37.5198ZM288.45 47.4268C288.705 48.215 289.551 48.6471 290.339 48.392C291.127 48.1368 291.559 47.2911 291.304 46.5029L288.45 47.4268ZM293.337 56.1182C293.251 55.2942 292.514 54.6957 291.69 54.7814C290.866 54.8671 290.267 55.6045 290.353 56.4285L293.337 56.1182ZM290.564 62.597C290.535 63.4249 291.182 64.1196 292.01 64.1486C292.838 64.1775 293.533 63.5299 293.562 62.702L290.564 62.597ZM293.327 66.036C293.414 65.2122 292.817 64.4735 291.994 64.3863C291.17 64.299 290.431 64.896 290.344 65.7199L293.327 66.036ZM295.928 72.0933C296.591 72.5904 297.531 72.456 298.028 71.7933C298.525 71.1305 298.391 70.1903 297.728 69.6933L295.928 72.0933ZM306.901 78.5891C306.385 77.9412 305.441 77.8344 304.793 78.3506C304.145 78.8668 304.038 79.8105 304.554 80.4584L306.901 78.5891ZM310.736 90.7414C311.065 91.5018 311.947 91.8518 312.708 91.5232C313.468 91.1945 313.818 90.3116 313.49 89.5511L310.736 90.7414ZM316.927 101.88C316.816 101.059 316.06 100.484 315.239 100.596C314.418 100.708 313.843 101.464 313.955 102.285L316.927 101.88ZM314.122 112.882C314.036 113.706 314.635 114.444 315.459 114.529C316.283 114.615 317.02 114.016 317.106 113.192L314.122 112.882ZM315.073 122.808C315.328 122.019 314.896 121.174 314.108 120.919C313.32 120.663 312.474 121.096 312.219 121.884L315.073 122.808ZM308.492 130.301C308.081 131.02 308.33 131.936 309.049 132.348C309.768 132.759 310.685 132.51 311.096 131.791L308.492 130.301ZM305.389 139.777C305.935 139.154 305.874 138.207 305.251 137.66C304.628 137.114 303.68 137.176 303.134 137.798L305.389 139.777ZM296.402 144.105C295.746 144.61 295.623 145.552 296.128 146.209C296.634 146.865 297.575 146.988 298.232 146.483L296.402 144.105ZM289.927 151.691C290.668 151.32 290.967 150.418 290.596 149.678C290.224 148.938 289.323 148.638 288.582 149.01L289.927 151.691ZM279.974 152.354C279.177 152.58 278.714 153.409 278.94 154.206C279.167 155.003 279.996 155.466 280.793 155.24L279.974 152.354ZM271.161 157.026C271.986 156.951 272.594 156.221 272.519 155.396C272.443 154.571 271.714 153.963 270.889 154.038L271.161 157.026ZM260.537 153.926C259.714 153.832 258.971 154.424 258.878 155.247C258.784 156.07 259.376 156.813 260.199 156.907L260.537 153.926ZM248.377 154.164C249.157 154.443 250.016 154.037 250.295 153.257C250.574 152.477 250.169 151.619 249.389 151.339L248.377 154.164ZM238.602 153.819C238.028 154.416 238.046 155.366 238.643 155.94C239.24 156.514 240.19 156.496 240.764 155.899L238.602 153.819ZM231.524 163.472C232.221 163.025 232.425 162.098 231.979 161.4C231.532 160.702 230.604 160.499 229.907 160.945L231.524 163.472ZM219.793 165.873C219.012 166.148 218.601 167.004 218.876 167.786C219.151 168.567 220.007 168.978 220.789 168.703L219.793 165.873ZM209.15 171.357C209.974 171.265 210.567 170.524 210.475 169.7C210.383 168.877 209.641 168.284 208.818 168.376L209.15 171.357ZM198.248 168.448C197.424 168.368 196.69 168.971 196.61 169.796C196.53 170.62 197.133 171.354 197.957 171.434L198.248 168.448ZM187.699 169.398C188.492 169.639 189.33 169.192 189.571 168.4C189.812 167.607 189.365 166.769 188.573 166.528L187.699 169.398ZM179.477 162.725C178.749 162.329 177.839 162.6 177.444 163.328C177.049 164.056 177.319 164.966 178.047 165.361L179.477 162.725ZM169.403 159.46C170.036 159.994 170.982 159.915 171.517 159.282C172.052 158.65 171.972 157.703 171.34 157.168L169.403 159.46ZM165.317 154.168C164.658 155.5 163.933 156.797 163.148 158.056L165.692 159.645C166.53 158.303 167.302 156.92 168.006 155.499L165.317 154.168ZM157.726 165.114C155.707 167.278 153.476 169.26 151.064 171.028L152.838 173.447C155.4 171.569 157.771 169.463 159.92 167.16L157.726 165.114ZM143.42 175.614C140.767 176.891 137.973 177.94 135.066 178.734L135.857 181.628C138.94 180.786 141.905 179.673 144.721 178.317L143.42 175.614ZM126.284 180.305C124.814 180.434 123.324 180.5 121.818 180.5V183.5C123.412 183.5 124.989 183.43 126.547 183.293L126.284 180.305ZM121.818 180.5C120.156 180.5 118.514 180.419 116.896 180.262L116.606 183.248C118.32 183.415 120.059 183.5 121.818 183.5V180.5ZM107.251 178.354C104.071 177.389 101.035 176.117 98.1799 174.574L96.7535 177.213C99.7841 178.851 103.006 180.201 106.38 181.225L107.251 178.354ZM90.0565 169.051C87.5361 166.931 85.2506 164.563 83.2412 161.989L80.8762 163.834C83.0155 166.575 85.4468 169.094 88.1253 171.347L90.0565 169.051ZM78.0711 153.66C77.3656 152.189 76.7392 150.676 76.1968 149.127L73.3653 150.118C73.9445 151.772 74.6133 153.387 75.366 154.957L78.0711 153.66ZM74.043 148.317C72.2029 149.357 70.284 150.283 68.2967 151.085L69.4199 153.867C71.5288 153.016 73.5656 152.033 75.5192 150.928L74.043 148.317ZM55.97 154.289C53.8852 154.553 51.7576 154.689 49.596 154.689V157.689C51.8838 157.689 54.1371 157.545 56.3466 157.266L55.97 154.289ZM49.596 154.689C48.0356 154.689 46.493 154.618 44.9714 154.48L44.6991 157.467C46.3111 157.614 47.9446 157.689 49.596 157.689V154.689ZM35.8858 152.795C32.883 151.943 30.0032 150.818 27.2777 149.451L25.9325 152.133C28.8257 153.584 31.8816 154.777 35.067 155.681L35.8858 152.795ZM19.4576 144.547C17.0037 142.658 14.7484 140.545 12.7259 138.24L10.4708 140.218C12.6229 142.671 15.0209 144.918 17.6281 146.924L19.4576 144.547ZM7.36779 130.742C5.84683 128.084 4.59323 125.267 3.64081 122.325L0.786633 123.249C1.80389 126.392 3.14208 129.398 4.76387 132.232L7.36779 130.742ZM1.73799 113.324C1.58062 111.81 1.5 110.275 1.5 108.721H-1.5C-1.5 110.378 -1.41399 112.017 -1.24593 113.634L1.73799 113.324ZM1.5 108.721C1.5 106.746 1.63023 104.8 1.88277 102.892L-1.09129 102.499C-1.36105 104.537 -1.5 106.614 -1.5 108.721H1.5ZM4.92733 91.6451C6.43882 88.0368 8.41596 84.6524 10.7891 81.5604L8.40925 79.7338C5.88238 83.0261 3.77378 86.6342 2.16028 90.4861L4.92733 91.6451ZM19.0001 73.2513C20.5269 72.0467 22.133 70.9303 23.8098 69.9103L22.2508 67.3473C20.4703 68.4303 18.7643 69.6161 17.1419 70.896L19.0001 73.2513ZM24.5095 68.3802C24.4079 67.7755 24.3186 67.1669 24.2419 66.5546L21.2652 66.9274C21.3471 67.5814 21.4425 68.2315 21.551 68.8774L24.5095 68.3802ZM23.9365 62.877C23.9112 62.2648 23.8984 61.6495 23.8984 61.0313H20.8984C20.8984 61.6908 20.9121 62.3474 20.939 63.0008L23.9365 62.877ZM23.8984 61.0313C23.8984 59.4773 23.9791 57.9419 24.1364 56.4285L21.1525 56.1182C20.9844 57.7345 20.8984 59.3735 20.8984 61.0313H23.8984ZM26.0392 47.4268C26.9917 44.4847 28.2453 41.6679 29.7662 39.0096L27.1623 37.5198C25.5405 40.3544 24.2023 43.3604 23.1851 46.5029L26.0392 47.4268ZM35.1243 31.5121C37.1468 29.207 39.4021 27.0936 41.8561 25.2053L40.0265 22.8277C37.4194 24.8339 35.0213 27.0807 32.8692 29.5335L35.1243 31.5121ZM49.6761 20.3008C52.4016 18.9336 55.2814 17.8089 58.2843 16.9569L57.4654 14.0708C54.28 14.9746 51.2241 16.1679 48.331 17.6192L49.6761 20.3008ZM67.3698 15.2722C68.8914 15.1335 70.434 15.0625 71.9944 15.0625V12.0625C70.343 12.0625 68.7095 12.1376 67.0975 12.2846L67.3698 15.2722ZM71.9944 15.0625C73.6142 15.0625 75.2149 15.139 76.7927 15.2883L77.0754 12.3017C75.4037 12.1435 73.7087 12.0625 71.9944 12.0625V15.0625ZM86.209 17.1029C87.7539 17.559 89.2654 18.0876 90.7393 18.6843L91.8652 15.9036C90.3011 15.2703 88.6973 14.7096 87.0585 14.2257L86.209 17.1029ZM92.4388 18.2729C93.5784 16.9497 94.7941 15.6883 96.0796 14.4947L94.0383 12.2962C92.6716 13.5652 91.3785 14.907 90.1657 16.3151L92.4388 18.2729ZM104.498 8.24419C107.487 6.49318 110.693 5.0455 114.068 3.94629L113.139 1.09378C109.558 2.25997 106.156 3.79631 102.982 5.6555L104.498 8.24419ZM124.337 1.77093C126.062 1.59191 127.814 1.5 129.59 1.5V-1.5C127.711 -1.5 125.855 -1.40272 124.027 -1.21304L124.337 1.77093ZM129.59 1.5C131.315 1.5 133.018 1.58675 134.695 1.75583L134.996 -1.22904C133.219 -1.40819 131.416 -1.5 129.59 -1.5V1.5ZM144.689 3.81048C147.978 4.84898 151.109 6.21747 154.04 7.8747L155.517 5.26319C152.405 3.50369 149.081 2.05144 145.592 0.949709L144.689 3.81048ZM162.333 13.7978C163.608 14.9305 164.818 16.1284 165.957 17.3857L168.18 15.371C166.968 14.0333 165.681 12.7595 164.326 11.5554L162.333 13.7978ZM167.52 17.8088C168.731 17.4267 169.963 17.0893 171.214 16.7986L170.535 13.8764C169.208 14.1847 167.901 14.5425 166.617 14.9479L167.52 17.8088ZM178.783 15.6436C180.046 15.5485 181.324 15.5 182.614 15.5V12.5C181.249 12.5 179.896 12.5513 178.558 12.6521L178.783 15.6436ZM182.614 15.5C183.904 15.5 185.183 15.5486 186.448 15.6439L186.673 12.6524C185.333 12.5514 183.98 12.5 182.614 12.5V15.5ZM194.023 16.8009C196.541 17.3863 198.981 18.1612 201.326 19.1087L202.45 16.3272C199.961 15.3217 197.373 14.4997 194.702 13.8788L194.023 16.8009ZM208.178 22.5246C209.277 23.1846 210.345 23.8858 211.381 24.626L213.125 22.185C212.024 21.3988 210.89 20.6541 209.724 19.9533L208.178 22.5246ZM213.143 24.6128C214.192 23.8394 215.275 23.1064 216.39 22.4163L214.812 19.8653C213.627 20.5981 212.477 21.3766 211.363 22.1982L213.143 24.6128ZM223.364 18.8424C225.755 17.8506 228.247 17.0389 230.822 16.4255L230.126 13.5072C227.396 14.1578 224.752 15.0188 222.215 16.0713L223.364 18.8424ZM238.571 15.2132C239.865 15.1134 241.173 15.0625 242.495 15.0625V12.0625C241.096 12.0625 239.711 12.1164 238.34 12.2221L238.571 15.2132ZM242.495 15.0625C244.055 15.0625 245.598 15.1335 247.119 15.2722L247.392 12.2846C245.78 12.1376 244.146 12.0625 242.495 12.0625V15.0625ZM256.205 16.9569C259.208 17.8089 262.088 18.9336 264.813 20.3008L266.158 17.6192C263.265 16.1679 260.209 14.9746 257.024 14.0708L256.205 16.9569ZM272.633 25.2053C275.087 27.0936 277.343 29.207 279.365 31.5121L281.62 29.5335C279.468 27.0807 277.07 24.8339 274.463 22.8277L272.633 25.2053ZM284.723 39.0096C286.244 41.6679 287.498 44.4847 288.45 47.4268L291.304 46.5029C290.287 43.3604 288.949 40.3544 287.327 37.5198L284.723 39.0096ZM290.353 56.4285C290.51 57.9419 290.591 59.4773 290.591 61.0313H293.591C293.591 59.3735 293.505 57.7345 293.337 56.1182L290.353 56.4285ZM290.591 61.0313C290.591 61.5553 290.582 62.0773 290.564 62.597L293.562 62.702C293.581 62.1473 293.591 61.5903 293.591 61.0313H290.591ZM290.344 65.7199C290.289 66.2403 290.225 66.7581 290.151 67.2732L293.122 67.695C293.2 67.1448 293.268 66.5917 293.327 66.036L290.344 65.7199ZM290.893 68.7867C292.647 69.7882 294.328 70.8934 295.928 72.0933L297.728 69.6933C296.029 68.4185 294.243 67.2448 292.38 66.1815L290.893 68.7867ZM304.554 80.4584C307.054 83.5962 309.14 87.0487 310.736 90.7414L313.49 89.5511C311.786 85.6096 309.562 81.9296 306.901 78.5891L304.554 80.4584ZM313.955 102.285C314.222 104.246 314.36 106.247 314.36 108.279H317.36C317.36 106.111 317.213 103.975 316.927 101.88L313.955 102.285ZM314.36 108.279C314.36 109.833 314.279 111.369 314.122 112.882L317.106 113.192C317.274 111.576 317.36 109.937 317.36 108.279H314.36ZM312.219 121.884C311.267 124.826 310.013 127.643 308.492 130.301L311.096 131.791C312.718 128.956 314.056 125.95 315.073 122.808L312.219 121.884ZM303.134 137.798C301.112 140.104 298.856 142.217 296.402 144.105L298.232 146.483C300.839 144.477 303.237 142.23 305.389 139.777L303.134 137.798ZM288.582 149.01C285.857 150.377 282.977 151.502 279.974 152.354L280.793 155.24C283.978 154.336 287.034 153.143 289.927 151.691L288.582 149.01ZM270.889 154.038C269.367 154.177 267.824 154.248 266.264 154.248V157.248C267.915 157.248 269.549 157.173 271.161 157.026L270.889 154.038ZM266.264 154.248C264.325 154.248 262.414 154.139 260.537 153.926L260.199 156.907C262.188 157.132 264.212 157.248 266.264 157.248V154.248ZM249.389 151.339C247.577 150.69 245.817 149.94 244.117 149.095L242.783 151.782C244.587 152.679 246.455 153.475 248.377 154.164L249.389 151.339ZM242.252 149.537C241.124 151.034 239.905 152.464 238.602 153.819L240.764 155.899C242.151 154.457 243.448 152.935 244.648 151.341L242.252 149.537ZM229.907 160.945C226.776 162.948 223.386 164.61 219.793 165.873L220.789 168.703C224.6 167.363 228.199 165.599 231.524 163.472L229.907 160.945ZM208.818 168.376C206.971 168.582 205.091 168.688 203.184 168.688V171.688C205.202 171.688 207.193 171.575 209.15 171.357L208.818 168.376ZM203.184 168.688C201.517 168.688 199.871 168.607 198.248 168.448L197.957 171.434C199.676 171.602 201.42 171.688 203.184 171.688V168.688ZM188.573 166.528C185.383 165.557 182.339 164.277 179.477 162.725L178.047 165.361C181.085 167.01 184.316 168.368 187.699 169.398L188.573 166.528ZM171.34 157.168C170.08 156.104 168.88 154.978 167.744 153.795L165.58 155.873C166.788 157.131 168.065 158.329 169.403 159.46L171.34 157.168ZM166.662 154.834L168.825 152.756C168.149 152.051 167.171 151.72 166.205 151.869C165.24 152.017 164.407 152.627 163.973 153.503L166.662 154.834ZM74.7811 149.622L77.6126 148.631C77.319 147.793 76.6689 147.127 75.8373 146.814C75.0057 146.502 74.0782 146.574 73.3048 147.011L74.7811 149.622ZM23.0303 68.6288L24.5893 71.1919C25.6379 70.5541 26.1922 69.3419 25.9888 68.1316L23.0303 68.6288ZM91.3022 17.294L90.1763 20.0747C91.3686 20.5574 92.7359 20.2264 93.5753 19.2518L91.3022 17.294ZM167.069 16.3784L164.846 18.3931C165.633 19.2616 166.854 19.5921 167.972 19.2393L167.069 16.3784ZM212.253 23.4055L210.509 25.8465C211.566 26.6015 212.988 26.5908 214.033 25.82L212.253 23.4055ZM291.636 67.4841L288.666 67.0623C288.493 68.2798 289.081 69.4796 290.149 70.0893L291.636 67.4841ZM243.45 150.439L244.784 147.752C243.49 147.109 241.922 147.48 241.053 148.634L243.45 150.439ZM161.875 157.261C160.998 158.666 161.426 160.517 162.831 161.395C164.236 162.272 166.087 161.845 166.964 160.439L161.875 157.261ZM161.016 168.184C162.147 166.972 162.081 165.074 160.869 163.944C159.658 162.813 157.76 162.879 156.629 164.091L161.016 168.184ZM150.177 169.818C148.841 170.798 148.552 172.675 149.531 174.011C150.511 175.348 152.388 175.637 153.725 174.657L150.177 169.818ZM145.371 179.669C146.864 178.95 147.492 177.157 146.773 175.665C146.055 174.172 144.262 173.544 142.769 174.262L145.371 179.669ZM134.671 177.287C133.073 177.724 132.131 179.374 132.568 180.972C133.005 182.57 134.654 183.512 136.253 183.075L134.671 177.287ZM126.678 184.787C128.329 184.642 129.549 183.186 129.404 181.536C129.259 179.885 127.803 178.665 126.152 178.81L126.678 184.787ZM117.041 178.769C115.392 178.609 113.925 179.816 113.765 181.465C113.605 183.114 114.812 184.581 116.461 184.741L117.041 178.769ZM105.944 182.66C107.53 183.141 109.205 182.246 109.686 180.66C110.167 179.075 109.272 177.4 107.686 176.919L105.944 182.66ZM98.8931 173.255C97.4355 172.467 95.6153 173.01 94.8275 174.467C94.0397 175.925 94.5827 177.745 96.0403 178.533L98.8931 173.255ZM87.1597 172.495C88.4277 173.561 90.3201 173.398 91.3867 172.13C92.4533 170.862 92.29 168.97 91.0221 167.903L87.1597 172.495ZM84.4237 161.066C83.4043 159.76 81.5191 159.527 80.2129 160.547C78.9068 161.566 78.6743 163.451 79.6937 164.757L84.4237 161.066ZM74.0134 155.605C74.7297 157.099 76.5216 157.73 78.0156 157.014C79.5096 156.297 80.14 154.505 79.4236 153.011L74.0134 155.605ZM67.7351 149.695C66.1988 150.315 65.4562 152.063 66.0765 153.6C66.6969 155.136 68.4452 155.879 69.9815 155.258L67.7351 149.695ZM56.5349 158.754C58.1786 158.546 59.3426 157.045 59.1346 155.401C58.9266 153.757 57.4255 152.593 55.7817 152.801L56.5349 158.754ZM45.1076 152.986C43.4575 152.836 41.998 154.051 41.8476 155.701C41.6972 157.351 42.9129 158.811 44.5629 158.961L45.1076 152.986ZM34.6575 157.124C36.2515 157.576 37.9102 156.651 38.3625 155.057C38.8147 153.463 37.8892 151.804 36.2953 151.352L34.6575 157.124ZM27.9502 148.11C26.4693 147.368 24.6665 147.966 23.9236 149.447C23.1807 150.928 23.779 152.731 25.26 153.474L27.9502 148.11ZM16.7133 148.113C18.0264 149.123 19.91 148.878 20.9204 147.565C21.9308 146.252 21.6855 144.368 20.3724 143.358L16.7133 148.113ZM13.8534 137.251C12.7607 136.005 10.8652 135.881 9.61976 136.974C8.37434 138.067 8.25055 139.962 9.34329 141.208L13.8534 137.251ZM3.4619 132.977C4.28471 134.415 6.11754 134.914 7.55565 134.091C8.99376 133.268 9.49256 131.436 8.66975 129.997L3.4619 132.977ZM5.0679 121.863C4.55763 120.287 2.86611 119.423 1.28979 119.933C-0.286533 120.443 -1.15073 122.135 -0.640457 123.711L5.0679 121.863ZM-2.73788 113.789C-2.56652 115.437 -1.09167 116.634 0.556301 116.463C2.20427 116.291 3.4013 114.816 3.22994 113.168L-2.73788 113.789ZM3.36981 103.089C3.58719 101.447 2.43189 99.9388 0.789356 99.7214C-0.853175 99.504 -2.36094 100.659 -2.57832 102.302L3.36981 103.089ZM0.776756 89.9065C0.136617 91.4347 0.856531 93.1925 2.38473 93.8326C3.91293 94.4728 5.67071 93.7529 6.31085 92.2247L0.776756 89.9065ZM11.979 82.4737C12.9878 81.1593 12.7401 79.276 11.4257 78.2673C10.1114 77.2585 8.2281 77.5062 7.21932 78.8206L11.979 82.4737ZM16.2129 69.7183C14.9121 70.7446 14.6895 72.631 15.7157 73.9318C16.742 75.2325 18.6284 75.4551 19.9291 74.4289L16.2129 69.7183ZM25.7303 66.3681C25.5244 64.7241 24.0247 63.5583 22.3807 63.7642C20.7367 63.9702 19.5709 65.4698 19.7768 67.1138L25.7303 66.3681ZM19.4403 63.0627C19.5087 64.7181 20.9061 66.0047 22.5615 65.9363C24.217 65.868 25.5036 64.4705 25.4352 62.8151L19.4403 63.0627ZM25.6284 56.5836C25.7997 54.9356 24.6027 53.4608 22.9547 53.2894C21.3068 53.1181 19.8319 54.3151 19.6606 55.9631L25.6284 56.5836ZM21.758 46.0409C21.2477 47.6173 22.1119 49.3088 23.6882 49.8191C25.2645 50.3293 26.9561 49.4651 27.4663 47.8888L21.758 46.0409ZM31.0682 39.7545C31.891 38.3164 31.3922 36.4836 29.9541 35.6608C28.516 34.838 26.6831 35.3368 25.8603 36.7749L31.0682 39.7545ZM31.7417 28.5443C30.649 29.7897 30.7728 31.6851 32.0182 32.7779C33.2636 33.8706 35.1591 33.7468 36.2518 32.5014L31.7417 28.5443ZM42.7708 26.3941C44.0839 25.3836 44.3293 23.5001 43.3189 22.187C42.3084 20.8739 40.4248 20.6285 39.1118 21.639L42.7708 26.3941ZM47.6584 16.2785C46.1774 17.0214 45.5791 18.8242 46.322 20.3051C47.0649 21.7861 48.8677 22.3844 50.3487 21.6415L47.6584 16.2785ZM58.6937 18.3999C60.2876 17.9477 61.2132 16.2889 60.7609 14.695C60.3087 13.101 58.6499 12.1755 57.056 12.6277L58.6937 18.3999ZM66.9613 10.7908C65.3113 10.9412 64.0956 12.4007 64.246 14.0507C64.3965 15.7007 65.856 16.9164 67.506 16.766L66.9613 10.7908ZM76.6514 16.7816C78.3009 16.9377 79.7646 15.7271 79.9207 14.0776C80.0768 12.4281 78.8662 10.9644 77.2167 10.8083L76.6514 16.7816ZM87.4833 12.7871C85.8942 12.3179 84.2257 13.2257 83.7566 14.8148C83.2874 16.4038 84.1952 18.0723 85.7842 18.5415L87.4833 12.7871ZM97.1003 15.5939C98.3144 14.4665 98.3848 12.5683 97.2574 11.3541C96.13 10.14 94.2318 10.0696 93.0176 11.197L97.1003 15.5939ZM102.223 4.36115C100.794 5.19849 100.314 7.03629 101.151 8.46598C101.988 9.89568 103.826 10.3759 105.256 9.53853L102.223 4.36115ZM114.532 5.37254C116.108 4.85941 116.969 3.16633 116.456 1.59093C115.943 0.0155412 114.25 -0.845596 112.674 -0.332468L114.532 5.37254ZM123.872 -2.70502C122.224 -2.53398 121.027 -1.05935 121.198 0.588654C121.369 2.23666 122.844 3.43396 124.492 3.26292L123.872 -2.70502ZM134.545 3.24827C136.193 3.41446 137.665 2.21282 137.831 0.564321C137.997 -1.08418 136.795 -2.55528 135.147 -2.72147L134.545 3.24827ZM146.044 -0.480678C144.464 -0.979564 142.778 -0.103179 142.28 1.47678C141.781 3.05674 142.657 4.74198 144.237 5.24087L146.044 -0.480678ZM153.302 9.18045C154.744 9.9959 156.574 9.48773 157.39 8.04544C158.205 6.60314 157.697 4.77288 156.255 3.95744L153.302 9.18045ZM165.323 10.4342C164.084 9.33355 162.188 9.44524 161.087 10.6837C159.987 11.9221 160.098 13.8183 161.337 14.919L165.323 10.4342ZM171.553 18.2597C173.167 17.8848 174.172 16.2726 173.797 14.6587C173.422 13.0448 171.81 12.0404 170.196 12.4153L171.553 18.2597ZM178.445 11.1563C176.793 11.2807 175.554 12.7209 175.679 14.3731C175.803 16.0252 177.243 17.2638 178.896 17.1394L178.445 11.1563ZM186.335 17.1396C187.987 17.2641 189.427 16.0257 189.552 14.3735C189.676 12.7214 188.438 11.2811 186.786 11.1566L186.335 17.1396ZM195.042 12.4178C193.428 12.0426 191.816 13.0467 191.44 14.6605C191.065 16.2743 192.069 17.8867 193.683 18.2619L195.042 12.4178ZM200.764 20.4995C202.3 21.1202 204.049 20.3781 204.67 18.8419C205.29 17.3057 204.548 15.5572 203.012 14.9365L200.764 20.4995ZM210.497 18.6676C209.076 17.8141 207.233 18.2735 206.38 19.6936C205.526 21.1137 205.986 22.9568 207.406 23.8103L210.497 18.6676ZM217.18 23.6918C218.589 22.8199 219.024 20.9709 218.152 19.562C217.28 18.1532 215.431 17.7179 214.022 18.5898L217.18 23.6918ZM221.64 14.6858C220.11 15.3207 219.384 17.076 220.019 18.6064C220.653 20.1368 222.409 20.8628 223.939 20.2279L221.64 14.6858ZM231.169 17.8847C232.781 17.5006 233.776 15.8827 233.392 14.271C233.008 12.6593 231.39 11.664 229.779 12.0481L231.169 17.8847ZM238.225 10.7266C236.573 10.854 235.337 12.2965 235.464 13.9485C235.592 15.6004 237.034 16.8363 238.686 16.7088L238.225 10.7266ZM246.983 16.766C248.633 16.9164 250.093 15.7007 250.243 14.0507C250.394 12.4007 249.178 10.9412 247.528 10.7908L246.983 16.766ZM257.433 12.6277C255.839 12.1755 254.181 13.101 253.728 14.695C253.276 16.2889 254.202 17.9477 255.796 18.3999L257.433 12.6277ZM264.141 21.6415C265.622 22.3844 267.424 21.7861 268.167 20.3051C268.91 18.8242 268.312 17.0214 266.831 16.2785L264.141 21.6415ZM275.378 21.6389C274.064 20.6285 272.181 20.8739 271.17 22.187C270.16 23.5001 270.405 25.3836 271.719 26.3941L275.378 21.6389ZM278.237 32.5014C279.33 33.7468 281.226 33.8706 282.471 32.7779C283.717 31.6851 283.84 29.7897 282.748 28.5443L278.237 32.5014ZM288.629 36.7749C287.806 35.3368 285.973 34.838 284.535 35.6608C283.097 36.4836 282.598 38.3164 283.421 39.7545L288.629 36.7749ZM287.023 47.8888C287.533 49.4651 289.225 50.3293 290.801 49.8191C292.377 49.3088 293.242 47.6173 292.731 46.0409L287.023 47.8888ZM294.829 55.9631C294.657 54.3151 293.183 53.1181 291.535 53.2894C289.887 53.4608 288.69 54.9356 288.861 56.5836L294.829 55.9631ZM289.064 62.5445C289.006 64.2004 290.302 65.5897 291.958 65.6476C293.613 65.7056 295.003 64.4103 295.061 62.7544L289.064 62.5445ZM294.819 66.194C294.993 64.5464 293.799 63.0692 292.152 62.8946C290.504 62.72 289.027 63.9142 288.852 65.5618L294.819 66.194ZM295.028 73.2933C296.354 74.2874 298.234 74.0187 299.228 72.6932C300.222 71.3677 299.954 69.4873 298.628 68.4932L295.028 73.2933ZM308.074 77.6545C307.042 76.3586 305.154 76.145 303.858 77.1774C302.562 78.2097 302.349 80.0972 303.381 81.3931L308.074 77.6545ZM309.359 91.3365C310.016 92.8574 311.782 93.5574 313.303 92.9C314.824 92.2427 315.524 90.4769 314.867 88.956L309.359 91.3365ZM318.414 101.678C318.19 100.036 316.678 98.8863 315.036 99.1099C313.395 99.3336 312.245 100.846 312.469 102.487L318.414 101.678ZM312.63 112.727C312.459 114.375 313.656 115.85 315.304 116.021C316.952 116.192 318.426 114.995 318.598 113.347L312.63 112.727ZM316.5 123.27C317.011 121.693 316.146 120.002 314.57 119.492C312.994 118.981 311.302 119.845 310.792 121.422L316.5 123.27ZM307.19 129.556C306.367 130.994 306.866 132.827 308.304 133.65C309.742 134.473 311.575 133.974 312.398 132.536L307.19 129.556ZM306.517 140.766C307.609 139.521 307.486 137.625 306.24 136.533C304.995 135.44 303.099 135.564 302.007 136.809L306.517 140.766ZM295.488 142.916C294.174 143.927 293.929 145.811 294.94 147.124C295.95 148.437 297.834 148.682 299.147 147.672L295.488 142.916ZM290.6 153.032C292.081 152.289 292.679 150.486 291.936 149.005C291.193 147.524 289.391 146.926 287.91 147.669L290.6 153.032ZM279.565 150.911C277.971 151.363 277.045 153.022 277.497 154.616C277.95 156.21 279.608 157.135 281.202 156.683L279.565 150.911ZM271.297 158.52C272.947 158.369 274.163 156.91 274.012 155.26C273.862 153.61 272.402 152.394 270.752 152.545L271.297 158.52ZM260.706 152.435C259.06 152.249 257.574 153.432 257.387 155.078C257.2 156.724 258.384 158.21 260.03 158.397L260.706 152.435ZM247.871 155.576C249.431 156.134 251.149 155.323 251.707 153.763C252.266 152.203 251.454 150.486 249.895 149.927L247.871 155.576ZM237.521 152.779C236.372 153.973 236.409 155.873 237.603 157.021C238.798 158.17 240.697 158.133 241.845 156.938L237.521 152.779ZM232.332 164.735C233.728 163.842 234.135 161.987 233.242 160.592C232.349 159.196 230.494 158.789 229.098 159.682L232.332 164.735ZM219.296 164.458C217.733 165.008 216.911 166.721 217.461 168.284C218.011 169.847 219.723 170.668 221.286 170.118L219.296 164.458ZM209.317 172.848C210.963 172.664 212.149 171.181 211.966 169.534C211.782 167.887 210.299 166.701 208.652 166.885L209.317 172.848ZM198.394 166.956C196.745 166.795 195.278 168.001 195.117 169.651C194.956 171.3 196.163 172.767 197.812 172.927L198.394 166.956ZM187.262 170.833C188.847 171.316 190.523 170.422 191.006 168.837C191.488 167.252 190.595 165.576 189.01 165.093L187.262 170.833ZM180.193 161.406C178.736 160.616 176.915 161.156 176.125 162.612C175.335 164.069 175.875 165.89 177.331 166.68L180.193 161.406ZM168.435 160.605C169.7 161.675 171.593 161.516 172.663 160.25C173.732 158.985 173.573 157.092 172.308 156.023L168.435 160.605ZM163.973 153.503C163.336 154.79 162.635 156.044 161.875 157.261L166.964 160.439C167.828 159.057 168.625 157.63 169.35 156.165L163.973 153.503ZM156.629 164.091C154.674 166.186 152.514 168.105 150.177 169.818L153.725 174.657C156.362 172.723 158.804 170.555 161.016 168.184L156.629 164.091ZM142.769 174.262C140.198 175.5 137.489 176.517 134.671 177.287L136.253 183.075C139.424 182.208 142.474 181.063 145.371 179.669L142.769 174.262ZM126.152 178.81C124.726 178.936 123.28 179 121.818 179V185C123.456 185 125.077 184.928 126.678 184.787L126.152 178.81ZM121.818 179C120.204 179 118.611 178.922 117.041 178.769L116.461 184.741C118.223 184.912 120.011 185 121.818 185V179ZM107.686 176.919C104.603 175.983 101.66 174.75 98.8931 173.255L96.0403 178.533C99.1589 180.219 102.474 181.607 105.944 182.66L107.686 176.919ZM91.0221 167.903C88.5808 165.849 86.3681 163.557 84.4237 161.066L79.6937 164.757C81.898 167.582 84.4022 170.175 87.1597 172.495L91.0221 167.903ZM79.4236 153.011C78.7418 151.589 78.1365 150.128 77.6126 148.631L71.9496 150.614C72.5472 152.321 73.2371 153.986 74.0134 155.605L79.4236 153.011ZM73.3048 147.011C71.5215 148.019 69.6616 148.917 67.7351 149.695L69.9815 155.258C72.1512 154.382 74.247 153.37 76.2574 152.234L73.3048 147.011ZM55.7817 152.801C53.7593 153.057 51.6945 153.189 49.596 153.189V159.189C51.9468 159.189 54.2631 159.041 56.5349 158.754L55.7817 152.801ZM49.596 153.189C48.0811 153.189 46.5839 153.121 45.1076 152.986L44.5629 158.961C46.2201 159.112 47.8991 159.189 49.596 159.189V153.189ZM36.2953 151.352C33.3836 150.526 30.5919 149.436 27.9502 148.11L25.26 153.474C28.2369 154.967 31.3809 156.195 34.6575 157.124L36.2953 151.352ZM20.3724 143.358C17.995 141.529 15.8111 139.482 13.8534 137.251L9.34329 141.208C11.5602 143.734 14.0296 146.048 16.7133 148.113L20.3724 143.358ZM8.66975 129.997C7.19921 127.427 5.9879 124.705 5.0679 121.863L-0.640457 123.711C0.409221 126.954 1.7897 130.054 3.4619 132.977L8.66975 129.997ZM3.22994 113.168C3.07792 111.706 3 110.223 3 108.721H-3C-3 110.43 -2.91129 112.121 -2.73788 113.789L3.22994 113.168ZM3 108.721C3 106.812 3.12587 104.932 3.36981 103.089L-2.57832 102.302C-2.85669 104.405 -3 106.548 -3 108.721H3ZM6.31085 92.2247C7.77134 88.7381 9.68276 85.4655 11.979 82.4737L7.21932 78.8206C4.61558 82.213 2.44125 85.9329 0.776756 89.9065L6.31085 92.2247ZM19.9291 74.4289C21.4082 73.262 22.9644 72.1803 24.5893 71.1919L21.4712 66.0657C19.6389 67.1803 17.8829 68.4008 16.2129 69.7183L19.9291 74.4289ZM25.9888 68.1316C25.8906 67.5475 25.8044 66.9596 25.7303 66.3681L19.7768 67.1138C19.8613 67.7887 19.9598 68.4595 20.0718 69.1261L25.9888 68.1316ZM25.4352 62.8151C25.4108 62.2236 25.3984 61.6289 25.3984 61.0313H19.3984C19.3984 61.7114 19.4125 62.3887 19.4403 63.0627L25.4352 62.8151ZM25.3984 61.0313C25.3984 59.5293 25.4764 58.0456 25.6284 56.5836L19.6606 55.9631C19.4871 57.6308 19.3984 59.3216 19.3984 61.0313H25.3984ZM27.4663 47.8888C28.3863 45.0468 29.5976 42.3247 31.0682 39.7545L25.8603 36.7749C24.1881 39.6976 22.8077 42.7983 21.758 46.0409L27.4663 47.8888ZM36.2518 32.5014C38.2095 30.2701 40.3935 28.2234 42.7708 26.3941L39.1118 21.639C36.428 23.7041 33.9586 26.0176 31.7417 28.5443L36.2518 32.5014ZM50.3487 21.6415C52.9903 20.3164 55.7821 19.226 58.6937 18.3999L57.056 12.6277C53.7794 13.5574 50.6354 14.7851 47.6584 16.2785L50.3487 21.6415ZM67.506 16.766C68.9824 16.6314 70.4796 16.5625 71.9944 16.5625V10.5625C70.2975 10.5625 68.6186 10.6397 66.9613 10.7908L67.506 16.766ZM71.9944 16.5625C73.567 16.5625 75.1205 16.6368 76.6514 16.7816L77.2167 10.8083C75.4981 10.6457 73.7559 10.5625 71.9944 10.5625V16.5625ZM85.7842 18.5415C87.2822 18.9838 88.7476 19.4962 90.1763 20.0747L92.4281 14.5133C90.8189 13.8617 89.1691 13.2848 87.4833 12.7871L85.7842 18.5415ZM93.5753 19.2518C94.6784 17.9711 95.8554 16.7498 97.1003 15.5939L93.0176 11.197C91.6104 12.5037 90.2785 13.8856 89.0292 15.3361L93.5753 19.2518ZM105.256 9.53853C108.153 7.84161 111.26 6.43826 114.532 5.37254L112.674 -0.332468C108.991 0.867208 105.49 2.44788 102.223 4.36115L105.256 9.53853ZM124.492 3.26292C126.165 3.08923 127.866 3 129.59 3V-3C127.659 -3 125.751 -2.90004 123.872 -2.70502L124.492 3.26292ZM129.59 3C131.265 3 132.918 3.08421 134.545 3.24827L135.147 -2.72147C133.32 -2.90566 131.466 -3 129.59 -3V3ZM144.237 5.24087C147.426 6.24775 150.461 7.57436 153.302 9.18045L156.255 3.95744C153.052 2.1468 149.633 0.652676 146.044 -0.480678L144.237 5.24087ZM161.337 14.919C162.571 16.016 163.743 17.1759 164.846 18.3931L169.291 14.3637C168.043 12.9858 166.717 11.674 165.323 10.4342L161.337 14.919ZM167.972 19.2393C169.145 18.8688 170.34 18.5416 171.553 18.2597L170.196 12.4153C168.831 12.7323 167.487 13.1005 166.166 13.5175L167.972 19.2393ZM178.896 17.1394C180.122 17.0471 181.362 17 182.614 17V11C181.211 11 179.821 11.0527 178.445 11.1563L178.896 17.1394ZM182.614 17C183.867 17 185.108 17.0472 186.335 17.1396L186.786 11.1566C185.409 11.0528 184.017 11 182.614 11V17ZM193.683 18.2619C196.125 18.8297 198.491 19.581 200.764 20.4995L203.012 14.9365C200.452 13.902 197.789 13.0564 195.042 12.4178L193.683 18.2619ZM207.406 23.8103C208.47 24.4499 209.505 25.1294 210.509 25.8465L213.997 20.9645C212.864 20.1553 211.697 19.3888 210.497 18.6676L207.406 23.8103ZM214.033 25.82C215.049 25.0708 216.099 24.3605 217.18 23.6918L214.022 18.5898C212.804 19.344 211.619 20.1452 210.472 20.991L214.033 25.82ZM223.939 20.2279C226.257 19.2665 228.673 18.4795 231.169 17.8847L229.779 12.0481C226.97 12.7172 224.251 13.6029 221.64 14.6858L223.939 20.2279ZM238.686 16.7088C239.942 16.6119 241.212 16.5625 242.495 16.5625V10.5625C241.058 10.5625 239.634 10.6179 238.225 10.7266L238.686 16.7088ZM242.495 16.5625C244.01 16.5625 245.507 16.6314 246.983 16.766L247.528 10.7908C245.871 10.6397 244.192 10.5625 242.495 10.5625V16.5625ZM255.796 18.3999C258.707 19.226 261.499 20.3164 264.141 21.6415L266.831 16.2785C263.854 14.7851 260.71 13.5574 257.433 12.6277L255.796 18.3999ZM271.719 26.3941C274.096 28.2234 276.28 30.2701 278.237 32.5014L282.748 28.5443C280.531 26.0176 278.061 23.7041 275.378 21.6389L271.719 26.3941ZM283.421 39.7545C284.892 42.3247 286.103 45.0468 287.023 47.8888L292.731 46.0409C291.682 42.7983 290.301 39.6976 288.629 36.7749L283.421 39.7545ZM288.861 56.5836C289.013 58.0456 289.091 59.5293 289.091 61.0313H295.091C295.091 59.3216 295.002 57.6308 294.829 55.9631L288.861 56.5836ZM289.091 61.0313C289.091 61.5378 289.082 62.0423 289.064 62.5445L295.061 62.7544C295.081 62.1823 295.091 61.6078 295.091 61.0313H289.091ZM288.852 65.5618C288.799 66.0646 288.737 66.5648 288.666 67.0623L294.607 67.9058C294.687 67.3381 294.758 66.7675 294.819 66.194L288.852 65.5618ZM290.149 70.0893C291.849 71.06 293.478 72.1309 295.028 73.2933L298.628 68.4932C296.879 67.1811 295.04 65.9731 293.124 64.8788L290.149 70.0893ZM303.381 81.3931C305.8 84.4295 307.817 87.7682 309.359 91.3365L314.867 88.956C313.109 84.8901 310.816 81.0962 308.074 77.6545L303.381 81.3931ZM312.469 102.487C312.727 104.382 312.86 106.315 312.86 108.279H318.86C318.86 106.043 318.708 103.839 318.414 101.678L312.469 102.487ZM312.86 108.279C312.86 109.781 312.782 111.265 312.63 112.727L318.598 113.347C318.771 111.68 318.86 109.989 318.86 108.279H312.86ZM310.792 121.422C309.872 124.264 308.661 126.986 307.19 129.556L312.398 132.536C314.07 129.613 315.451 126.512 316.5 123.27L310.792 121.422ZM302.007 136.809C300.049 139.04 297.865 141.087 295.488 142.916L299.147 147.672C301.83 145.606 304.3 143.293 306.517 140.766L302.007 136.809ZM287.91 147.669C285.268 148.994 282.476 150.085 279.565 150.911L281.202 156.683C284.479 155.753 287.623 154.525 290.6 153.032L287.91 147.669ZM270.752 152.545C269.276 152.679 267.779 152.748 266.264 152.748V158.748C267.961 158.748 269.64 158.671 271.297 158.52L270.752 152.545ZM266.264 152.748C264.382 152.748 262.527 152.642 260.706 152.435L260.03 158.397C262.075 158.629 264.156 158.748 266.264 158.748V152.748ZM249.895 149.927C248.138 149.298 246.432 148.571 244.784 147.752L242.115 153.126C243.972 154.048 245.894 154.867 247.871 155.576L249.895 149.927ZM241.053 148.634C239.963 150.083 238.783 151.467 237.521 152.779L241.845 156.938C243.273 155.454 244.61 153.886 245.847 152.243L241.053 148.634ZM229.098 159.682C226.065 161.623 222.778 163.233 219.296 164.458L221.286 170.118C225.207 168.739 228.911 166.925 232.332 164.735L229.098 159.682ZM208.652 166.885C206.86 167.085 205.035 167.188 203.184 167.188V173.188C205.258 173.188 207.304 173.072 209.317 172.848L208.652 166.885ZM203.184 167.188C201.566 167.188 199.968 167.109 198.394 166.956L197.812 172.927C199.579 173.099 201.372 173.188 203.184 173.188V167.188ZM189.01 165.093C185.917 164.152 182.966 162.911 180.193 161.406L177.331 166.68C180.457 168.376 183.782 169.774 187.262 170.833L189.01 165.093ZM172.308 156.023C171.088 154.992 169.926 153.901 168.825 152.756L164.498 156.912C165.743 158.208 167.057 159.441 168.435 160.605L172.308 156.023Z" fill="#247158" mask="url(#path-1-inside-1_362_1006)"/>
</svg>
