<svg width="210" height="208" viewBox="0 0 210 208" fill="none" xmlns="http://www.w3.org/2000/svg">
<path d="M50.3467 41.5608C16.424 61.701 15.5889 75.1888 13.3046 100.438C11.0203 125.687 50.1618 170.255 100.405 185.634C138.617 197.33 178.302 178.434 187.363 156.313C192.084 144.789 192.568 144.874 190.717 123.834C188.866 102.794 203.584 93.4204 182.721 62.9897C162.7 33.7871 153.285 13.1707 129.34 13.1683C74.7518 13.1627 87.7794 19.3367 50.3467 41.5608Z" fill="#0F0F0F"/>
<path d="M71.2839 156.14C70.4906 156.14 69.8093 156.005 69.2399 155.734C68.6799 155.463 68.1713 155.057 67.7139 154.516L68.9739 153.256C69.2633 153.639 69.5993 153.937 69.9819 154.152C70.3646 154.357 70.8313 154.46 71.3819 154.46C71.8766 154.46 72.2686 154.362 72.5579 154.166C72.8566 153.97 73.0059 153.699 73.0059 153.354C73.0059 153.055 72.9219 152.813 72.7539 152.626C72.5859 152.439 72.3619 152.281 72.0819 152.15C71.8113 152.019 71.5079 151.903 71.1719 151.8C70.8453 151.688 70.5139 151.562 70.1779 151.422C69.8513 151.282 69.5479 151.109 69.2679 150.904C68.9973 150.689 68.7779 150.419 68.6099 150.092C68.4419 149.756 68.3579 149.336 68.3579 148.832C68.3579 148.235 68.5026 147.726 68.7919 147.306C69.0813 146.886 69.4779 146.564 69.9819 146.34C70.4859 146.116 71.0553 146.004 71.6899 146.004C72.3619 146.004 72.9686 146.13 73.5099 146.382C74.0513 146.634 74.4946 146.961 74.8399 147.362L73.5799 148.622C73.2906 148.305 72.9919 148.071 72.6839 147.922C72.3853 147.773 72.0446 147.698 71.6619 147.698C71.2233 147.698 70.8779 147.782 70.6259 147.95C70.3739 148.118 70.2479 148.361 70.2479 148.678C70.2479 148.949 70.3319 149.168 70.4999 149.336C70.6679 149.504 70.8873 149.649 71.1579 149.77C71.4379 149.891 71.7413 150.008 72.0679 150.12C72.4039 150.232 72.7353 150.358 73.0619 150.498C73.3979 150.638 73.7013 150.82 73.9719 151.044C74.2519 151.268 74.4759 151.557 74.6439 151.912C74.8119 152.257 74.8959 152.687 74.8959 153.2C74.8959 154.115 74.5739 154.833 73.9299 155.356C73.2859 155.879 72.4039 156.14 71.2839 156.14ZM76.8486 156V146.158H78.1926L82.1826 152.542H81.4126L85.3886 146.158H86.7326V156H84.8426V149.42L85.2066 149.532L82.4346 153.984H81.1466L78.3746 149.532L78.7526 149.42V156H76.8486ZM93.7992 156.154C93.0805 156.154 92.4085 156.023 91.7832 155.762C91.1672 155.501 90.6258 155.141 90.1592 154.684C89.7018 154.217 89.3425 153.676 89.0812 153.06C88.8198 152.435 88.6892 151.767 88.6892 151.058C88.6892 150.349 88.8152 149.691 89.0672 149.084C89.3285 148.468 89.6878 147.931 90.1452 147.474C90.6118 147.007 91.1532 146.648 91.7692 146.396C92.3852 146.135 93.0525 146.004 93.7712 146.004C94.4992 146.004 95.1712 146.135 95.7872 146.396C96.4032 146.648 96.9398 147.007 97.3972 147.474C97.8638 147.931 98.2278 148.468 98.4892 149.084C98.7505 149.7 98.8812 150.363 98.8812 151.072C98.8812 151.781 98.7505 152.444 98.4892 153.06C98.2278 153.676 97.8638 154.217 97.3972 154.684C96.9398 155.141 96.4032 155.501 95.7872 155.762C95.1805 156.023 94.5178 156.154 93.7992 156.154ZM93.7712 154.376C94.4058 154.376 94.9565 154.236 95.4232 153.956C95.8898 153.676 96.2538 153.289 96.5152 152.794C96.7858 152.299 96.9212 151.721 96.9212 151.058C96.9212 150.573 96.8465 150.129 96.6972 149.728C96.5478 149.327 96.3332 148.981 96.0532 148.692C95.7732 148.393 95.4418 148.165 95.0592 148.006C94.6765 147.847 94.2472 147.768 93.7712 147.768C93.1552 147.768 92.6092 147.908 92.1332 148.188C91.6665 148.459 91.2978 148.841 91.0272 149.336C90.7658 149.831 90.6352 150.405 90.6352 151.058C90.6352 151.553 90.7098 152.005 90.8592 152.416C91.0178 152.827 91.2325 153.177 91.5032 153.466C91.7832 153.755 92.1145 153.979 92.4972 154.138C92.8892 154.297 93.3138 154.376 93.7712 154.376ZM106.79 156L102.52 150.862L106.678 146.158H109.058L104.424 151.268V150.386L109.212 156H106.79ZM100.84 156V146.158H102.744V156H100.84ZM113.215 152.206L109.407 146.158H111.605L114.559 151.002H113.299L116.253 146.158H118.423L114.573 152.206H113.215ZM112.963 156V151.184H114.881V156H112.963ZM124.303 156V154.446H126.865C127.323 154.446 127.677 154.306 127.929 154.026C128.191 153.746 128.321 153.415 128.321 153.032C128.321 152.771 128.265 152.533 128.153 152.318C128.041 152.103 127.873 151.935 127.649 151.814C127.435 151.683 127.173 151.618 126.865 151.618H124.303V150.078H126.655C127.047 150.078 127.36 149.98 127.593 149.784C127.836 149.588 127.957 149.294 127.957 148.902C127.957 148.501 127.836 148.202 127.593 148.006C127.36 147.81 127.047 147.712 126.655 147.712H124.303V146.158H126.879C127.533 146.158 128.079 146.279 128.517 146.522C128.965 146.755 129.301 147.068 129.525 147.46C129.749 147.843 129.861 148.263 129.861 148.72C129.861 149.28 129.689 149.765 129.343 150.176C129.007 150.577 128.513 150.876 127.859 151.072L127.943 150.456C128.671 150.661 129.231 151.002 129.623 151.478C130.025 151.945 130.225 152.509 130.225 153.172C130.225 153.695 130.095 154.171 129.833 154.6C129.581 155.02 129.208 155.361 128.713 155.622C128.228 155.874 127.635 156 126.935 156H124.303ZM122.903 156V146.158H124.793V156H122.903ZM132.185 156V146.158H134.089V156H132.185ZM133.585 156V154.306H138.597V156H133.585ZM139.386 156L143.348 146.158H144.902L148.85 156H146.82L143.768 147.922H144.468L141.374 156H139.386ZM141.486 154.166V152.57H146.778V154.166H141.486ZM154.466 156.14C153.747 156.14 153.08 156.014 152.464 155.762C151.848 155.501 151.306 155.141 150.84 154.684C150.382 154.217 150.028 153.676 149.776 153.06C149.533 152.444 149.412 151.781 149.412 151.072C149.412 150.363 149.533 149.7 149.776 149.084C150.028 148.468 150.382 147.931 150.84 147.474C151.306 147.017 151.843 146.657 152.45 146.396C153.066 146.135 153.738 146.004 154.466 146.004C155.25 146.004 155.94 146.135 156.538 146.396C157.135 146.648 157.662 146.998 158.12 147.446L156.832 148.734C156.561 148.435 156.23 148.202 155.838 148.034C155.446 147.866 154.988 147.782 154.466 147.782C154.008 147.782 153.588 147.861 153.206 148.02C152.832 148.169 152.506 148.393 152.226 148.692C151.946 148.981 151.731 149.331 151.582 149.742C151.432 150.143 151.358 150.587 151.358 151.072C151.358 151.567 151.432 152.015 151.582 152.416C151.731 152.817 151.946 153.167 152.226 153.466C152.506 153.755 152.832 153.979 153.206 154.138C153.588 154.297 154.008 154.376 154.466 154.376C155.016 154.376 155.488 154.292 155.88 154.124C156.281 153.956 156.617 153.718 156.888 153.41L158.176 154.698C157.718 155.155 157.186 155.51 156.58 155.762C155.973 156.014 155.268 156.14 154.466 156.14ZM165.899 156L161.629 150.862L165.787 146.158H168.167L163.533 151.268V150.386L168.321 156L165.899 156ZM159.949 156V146.158H161.853V156H159.949Z" fill="#F3FFF6"/>
</svg>
