<svg width="342" height="69" viewBox="0 0 342 69" fill="none" xmlns="http://www.w3.org/2000/svg">
<path d="M17.72 40.44C19.24 40.44 22.04 39.56 23.88 37.64C26.2 35.32 27.88 30.36 27.88 25.08C27.88 19.88 26.2 16.68 21.4 16.68C19.8 16.68 19 16.92 18.36 17.56C16.6 19.4 15.8 25.96 15.8 34.76C15.8 38.68 16.2 40.44 17.72 40.44ZM11.08 67.16C9 67.16 6.84 67.08 4.92 66.92C3.8 66.84 2.92 66.6 2.6 65C1.48 58.92 0.68 50.12 0.68 40.36C0.68 29.96 1.48 18.2 3.88 7.56C4.12 6.6 4.76 5.96 5.96 5.88C8.52 5.64 12.52 5.56 16.36 5.56C28.2 5.56 33.72 7 38.12 11.32C41.4 14.68 42.68 19.64 42.68 25.8C42.68 40.44 34.04 46.68 25 50.68C19.48 53.16 17.96 54.52 17.96 57.48C17.96 60.44 19.48 64.44 19.48 65.56C19.48 66.44 18.92 66.84 17.96 66.92C16.28 67.08 13.72 67.16 11.08 67.16ZM64.2137 65.4C64.2137 66.44 63.5738 66.92 62.6938 67C60.8538 67.16 58.6938 67.16 56.4538 67.16C54.2138 67.16 51.8938 67.16 49.9738 67C49.0938 66.92 47.8938 66.52 47.7338 64.68C47.0938 58.12 46.7738 50.44 46.7738 42.44C46.7738 29.4 47.5738 15.32 49.1738 3.64C49.4138 1.96 50.2938 1.72 51.3338 1.56C53.1738 1.47999 54.9338 1.4 56.7738 1.4C58.6138 1.4 60.4538 1.47999 62.1338 1.56C63.2538 1.64 63.9738 2.12 63.9738 3.24C63.9738 4.6 62.5338 18.6 62.5338 33.32C62.5338 48.84 64.2137 63.08 64.2137 65.4ZM86.8456 67.08C74.6056 67.08 68.1256 62.52 68.1256 51.88C68.1256 40.28 77.2456 35.64 87.6456 34.12C90.1256 33.72 91.3256 33.16 91.3256 31.72C91.3256 29.24 89.9656 27.64 86.1256 27.64C81.9656 27.64 77.8056 29.4 74.0456 32.76C73.5656 33.24 73.0856 33.48 72.6856 33.48C72.3656 33.48 71.9656 33.32 71.6456 33C70.1256 31.56 68.6856 29 68.6856 25.72C68.6856 20.04 75.6456 15.64 87.0856 15.64C100.526 15.64 105.246 22.36 105.246 34.28C105.246 39.16 104.846 46.84 104.846 52.76C104.846 57.4 105.486 62.68 105.486 63.96C105.486 65.32 104.846 66.2 103.486 66.44C100.926 67 92.1256 67.08 86.8456 67.08ZM91.4056 51.4V46.2C91.4056 43.8 91.0856 43.16 89.7256 43.16C85.3256 43.16 81.7256 45.72 81.7256 49.88C81.7256 53.4 84.1256 54.92 88.2056 54.92C90.7656 54.92 91.4056 53.8 91.4056 51.4ZM138.336 15.96C145.936 15.96 149.536 21.48 149.536 36.36C149.536 48.52 148.336 61.32 147.856 64.68C147.616 66.2 146.816 66.92 145.616 67C144.336 67.16 142.576 67.16 140.736 67.16C138.736 67.16 136.816 67.08 135.136 67C133.856 66.84 133.376 66.28 133.376 65.32C133.376 61.64 134.576 48.28 134.576 37.8C134.576 32.12 133.616 29.4 130.656 29.4C129.216 29.4 127.936 29.88 126.976 30.84C125.616 32.12 125.056 34.36 125.056 40.2C125.056 52.2 126.176 62.52 126.176 64.92C126.176 66.36 125.536 66.92 124.096 67C122.656 67.08 121.136 67.16 119.616 67.16C117.616 67.16 115.696 67.08 114.256 67C112.896 66.92 112.016 66.52 111.856 64.44C111.296 58.28 110.896 50.44 110.896 41.4C110.896 34.92 111.056 27.8 111.616 20.28C111.776 17.72 113.296 17.08 115.376 16.84C116.816 16.76 118.496 16.68 120.096 16.68C121.456 16.68 122.816 16.76 123.776 16.84C125.216 16.92 125.776 17.56 125.776 18.68C125.776 19.8 126.176 20.2 126.896 20.2C129.296 20.2 132.336 15.96 138.336 15.96ZM173.682 5.08C174.562 5.08 174.882 5.72 174.722 6.52C174.482 7.56 172.162 12.68 172.162 15.96C172.162 16.68 172.562 17.08 173.682 17.08C174.482 17.08 176.162 16.76 177.282 16.76C178.002 16.76 178.402 17.24 178.562 18.2C178.802 19.56 178.962 21.48 178.962 23.56C178.962 25.72 178.802 27.96 178.402 29.96C178.242 30.68 177.762 30.92 177.202 30.92C176.162 30.92 174.802 30.52 173.362 30.52C172.082 30.52 171.762 31.48 171.682 32.84C171.522 34.2 171.442 35.96 171.442 37.8C171.442 46.12 173.282 55.4 175.122 62.6C175.202 63.16 175.442 63.72 175.442 64.12C175.442 64.76 175.122 65.16 174.562 65.56C171.602 67.48 165.122 68.76 161.442 68.76C160.322 68.76 159.682 68.52 159.362 67.64C157.762 63.24 156.882 53.16 156.802 44.2C156.802 39.64 157.042 35.32 157.122 32.92C157.202 31.56 156.802 31 155.922 31C155.282 31 154.562 31.08 154.082 31.08C153.362 31.08 152.962 30.68 152.882 29.72C152.802 29.16 152.722 28.52 152.722 27.72C152.722 24.6 153.122 20.84 153.522 18.76C153.762 17.24 154.402 16.84 155.282 16.84C155.922 16.84 156.482 16.92 157.042 16.92C158.962 16.92 159.042 15.16 159.522 11.08C159.602 9.32 160.082 8.68 161.282 7.96C165.202 5.8 172.162 5.08 173.682 5.08ZM227.546 30.6C227.546 25.32 227.066 19.96 227.066 18.52C227.066 17.32 227.626 16.92 228.506 16.84C229.946 16.68 232.106 16.52 234.266 16.52C236.426 16.52 238.666 16.68 240.266 16.84C241.706 17 242.426 17.72 242.746 19.48C242.826 20.52 242.906 21.88 242.906 23.48C242.906 50.52 232.106 63.08 225.946 67.64C225.466 67.96 224.986 68.04 224.506 68.04C224.026 68.04 223.626 67.96 223.306 67.72C219.706 64.92 215.626 60.28 212.666 55.8C212.346 55.24 212.026 55.08 211.626 55.08C211.146 55.08 210.746 55.4 210.346 55.88C207.866 59.72 202.426 65.48 198.906 67.8C198.506 68.04 198.186 68.12 197.866 68.12C197.546 68.12 197.226 68.04 196.906 67.8C187.226 60.28 182.026 46.52 182.026 24.6C182.026 22.52 182.106 20.76 182.346 19.24C182.586 17.72 183.226 17 184.666 16.84C186.186 16.68 188.506 16.6 190.746 16.6C193.226 16.6 195.546 16.68 197.066 16.84C198.026 16.92 198.586 17.4 198.586 18.44C198.586 19.48 197.706 25.96 197.706 33.08C197.706 39.08 198.426 45.08 200.426 48.92C200.586 49.48 200.906 49.72 201.306 49.72C201.626 49.72 202.026 49.48 202.266 48.92C204.906 43.24 205.946 37.24 205.946 28.12C205.946 24.52 205.706 19.64 205.706 18.44C205.706 17.48 206.186 17.08 206.986 16.92C208.586 16.68 210.746 16.52 212.906 16.52C215.146 16.52 217.306 16.68 218.746 16.92C219.466 17.08 220.026 17.4 220.026 18.28C220.026 20.36 219.306 28.28 219.306 34.12C219.306 40.84 220.186 44.68 222.666 48.92C222.826 49.4 223.146 49.64 223.466 49.64C223.786 49.64 224.186 49.4 224.426 48.92C226.906 44.28 227.546 37.24 227.546 30.6ZM264.271 65.56C264.271 66.52 263.551 66.92 262.751 67C260.831 67.16 258.591 67.24 256.271 67.24C253.951 67.24 251.711 67.16 249.711 67C248.911 66.92 247.871 66.6 247.711 64.92C247.071 59.56 246.751 53.24 246.751 46.68C246.751 37 247.391 26.84 248.751 18.76C249.071 17.16 249.951 16.84 250.991 16.76C252.751 16.6 254.351 16.6 255.871 16.6C257.471 16.6 259.071 16.6 260.831 16.76C262.031 16.84 262.671 17.4 262.671 18.36C262.671 20.12 262.111 27.4 262.111 35.88C262.111 51.8 264.271 62.76 264.271 65.56ZM256.111 13.56C250.191 13.56 247.391 11.16 247.391 7C247.391 2.76 250.191 0.119998 256.111 0.119998C262.351 0.119998 264.831 2.76 264.831 7C264.831 11.16 262.351 13.56 256.111 13.56ZM271.491 47.64C273.811 51.64 278.691 55.96 284.291 55.96C287.091 55.96 288.291 54.84 288.291 52.84C288.291 50.84 286.851 49.48 282.451 47.4C274.771 43.72 268.531 40.44 268.531 31.08C268.531 21.48 275.731 15.64 287.091 15.64C292.211 15.64 297.491 16.92 300.211 18.52C301.411 19.24 301.731 19.96 301.731 21.16C301.731 24.12 300.291 29 299.011 31.64C298.691 32.36 298.211 32.6 297.731 32.6C297.331 32.6 296.931 32.44 296.611 32.12C293.651 29.64 289.011 27.08 285.251 27.08C282.691 27.08 281.411 28.28 281.411 29.96C281.411 32.04 282.851 33 287.411 35.08C294.531 38.28 302.451 42.04 302.451 51.96C302.451 62.68 295.571 68.04 285.091 68.04C274.371 68.04 267.731 62.92 267.731 54.68C267.731 51.4 268.531 48.92 269.251 47.8C269.571 47.32 269.971 47 270.451 47C270.851 47 271.251 47.16 271.491 47.64ZM341.568 53.24C341.568 62.52 333.328 68.04 323.888 68.04C309.488 68.04 304.688 57 304.688 43.56C304.688 23.8 314.768 15.72 326.768 15.72C334.848 15.72 341.168 20.04 341.168 29C341.168 42.68 329.728 44.28 322.688 47.4C320.208 48.28 319.168 49 319.168 50.36C319.168 52.68 320.848 54.52 324.688 54.52C330.208 54.52 335.248 52.12 338.368 48.04C338.848 47.64 339.168 47.4 339.568 47.4C340.688 47.4 341.568 49.48 341.568 53.24ZM328.688 30.44C328.688 28.36 327.328 26.84 325.008 26.84C320.608 26.84 317.568 31.64 317.568 37.16C317.568 37.96 317.808 38.6 318.528 38.6C319.008 38.6 319.568 38.44 320.048 38.2C323.248 36.28 328.688 34.28 328.688 30.44Z" fill="#343A40"/>
</svg>
