<svg width="328" height="335" viewBox="0 0 328 335" fill="none" xmlns="http://www.w3.org/2000/svg">
<g filter="url(#filter0_d_314_685)">
<rect y="51.1025" width="280.022" height="288.186" rx="50" transform="rotate(-10.5151 0 51.1025)" fill="white"/>
<g clip-path="url(#clip0_314_685)">
<path d="M178.871 171.786L154.333 176.341L168.746 253.991L193.284 249.437L178.871 171.786Z" fill="#6A3906"/>
<path d="M214.221 253.491L150.362 265.344C150.362 265.344 155.41 257.758 157.191 256.001C164.595 248.699 195.554 242.953 205.085 247.112C207.378 248.112 214.221 253.491 214.221 253.491Z" fill="#6A3906"/>
<path d="M170.937 191.817C192.726 187.772 207.116 166.853 203.077 145.093C199.038 123.332 178.1 108.971 156.31 113.015C134.521 117.059 120.131 137.978 124.17 159.739C128.209 181.499 149.147 195.861 170.937 191.817Z" fill="#E3C6DE"/>
<path d="M128.911 132.721C135.78 131.446 140.317 124.851 139.043 117.991C137.77 111.131 131.169 106.603 124.3 107.878C117.431 109.153 112.895 115.748 114.168 122.608C115.441 129.468 122.042 133.996 128.911 132.721Z" fill="#E3C6DE"/>
<path d="M123.068 146.651C129.937 145.376 134.474 138.782 133.2 131.922C131.927 125.062 125.326 120.534 118.457 121.809C111.588 123.084 107.052 129.679 108.325 136.539C109.599 143.399 116.199 147.926 123.068 146.651Z" fill="#E3C6DE"/>
<path d="M117.32 153.921C124.189 152.646 128.725 146.052 127.452 139.192C126.178 132.332 119.578 127.804 112.709 129.079C105.839 130.354 101.303 136.949 102.576 143.809C103.85 150.669 110.45 155.196 117.32 153.921Z" fill="#E3C6DE"/>
<path d="M117.388 173.404C124.257 172.129 128.793 165.534 127.52 158.674C126.247 151.814 119.646 147.287 112.777 148.562C105.908 149.837 101.372 156.431 102.645 163.291C103.918 170.151 110.519 174.679 117.388 173.404Z" fill="#E3C6DE"/>
<path d="M128.318 186.881C135.187 185.606 139.724 179.011 138.45 172.151C137.177 165.291 130.576 160.764 123.707 162.039C116.838 163.314 112.302 169.908 113.575 176.768C114.848 183.628 121.449 188.156 128.318 186.881Z" fill="#E3C6DE"/>
<path d="M108.749 179.436C115.618 178.161 120.154 171.566 118.881 164.706C117.608 157.846 111.007 153.319 104.138 154.594C97.2687 155.869 92.7324 162.463 94.0057 169.323C95.279 176.183 101.88 180.711 108.749 179.436Z" fill="#E3C6DE"/>
<path d="M121.124 193.534C127.994 192.259 132.53 185.664 131.257 178.804C129.983 171.944 123.383 167.416 116.513 168.691C109.644 169.966 105.108 176.561 106.381 183.421C107.655 190.281 114.255 194.809 121.124 193.534Z" fill="#E3C6DE"/>
<path d="M112.565 199.994C119.434 198.719 123.97 192.124 122.697 185.264C121.423 178.404 114.823 173.877 107.954 175.152C101.085 176.427 96.5482 183.022 97.8215 189.882C99.0948 196.742 105.696 201.269 112.565 199.994Z" fill="#E3C6DE"/>
<path d="M126.987 208.394C133.856 207.119 138.392 200.525 137.119 193.665C135.846 186.805 129.245 182.277 122.376 183.552C115.507 184.827 110.971 191.422 112.244 198.282C113.517 205.142 120.118 209.669 126.987 208.394Z" fill="#E3C6DE"/>
<path d="M113.902 135.507C120.771 134.232 125.307 127.637 124.034 120.777C122.76 113.917 116.16 109.39 109.291 110.665C102.421 111.94 97.8852 118.534 99.1585 125.394C100.432 132.254 107.032 136.782 113.902 135.507Z" fill="#E3C6DE"/>
<path d="M123.319 116.924C130.188 115.649 134.724 109.055 133.451 102.195C132.177 95.3346 125.577 90.8071 118.708 92.0821C111.838 93.357 107.302 99.9517 108.575 106.812C109.849 113.672 116.449 118.199 123.319 116.924Z" fill="#E3C6DE"/>
<path d="M144.923 125.76C151.792 124.485 156.328 117.891 155.055 111.031C153.782 104.171 147.181 99.643 140.312 100.918C133.443 102.193 128.907 108.788 130.18 115.648C131.453 122.508 138.054 127.035 144.923 125.76Z" fill="#E3C6DE"/>
<path d="M140.043 113.82C146.912 112.545 151.448 105.95 150.175 99.0901C148.902 92.2301 142.301 87.7026 135.432 88.9776C128.563 90.2526 124.027 96.8472 125.3 103.707C126.573 110.567 133.174 115.095 140.043 113.82Z" fill="#E3C6DE"/>
<path d="M159.629 114.17C166.498 112.895 171.034 106.301 169.761 99.4407C168.488 92.5807 161.887 88.0532 155.018 89.3282C148.149 90.6031 143.612 97.1978 144.886 104.058C146.159 110.918 152.76 115.445 159.629 114.17Z" fill="#E3C6DE"/>
<path d="M158.388 105.098C165.257 103.823 169.794 97.2279 168.52 90.3679C167.247 83.508 160.646 78.9804 153.777 80.2554C146.908 81.5304 142.372 88.1251 143.645 94.9851C144.918 101.845 151.519 106.373 158.388 105.098Z" fill="#E3C6DE"/>
<path d="M160.092 135.793C166.961 134.518 171.497 127.924 170.224 121.064C168.951 114.204 162.35 109.676 155.481 110.951C148.612 112.226 144.075 118.821 145.349 125.681C146.622 132.541 153.223 137.068 160.092 135.793Z" fill="#E3C6DE"/>
<path d="M171.797 124.761C178.666 123.486 183.202 116.891 181.929 110.031C180.656 103.171 174.055 98.6435 167.186 99.9185C160.317 101.193 155.781 107.788 157.054 114.648C158.327 121.508 164.928 126.036 171.797 124.761Z" fill="#E3C6DE"/>
<path d="M136.724 203.484C143.593 202.209 148.13 195.615 146.856 188.755C145.583 181.895 138.982 177.367 132.113 178.642C125.244 179.917 120.708 186.512 121.981 193.372C123.255 200.232 129.855 204.759 136.724 203.484Z" fill="#E3C6DE"/>
<path d="M144.606 214.87C151.475 213.595 156.011 207 154.738 200.14C153.464 193.28 146.864 188.753 139.995 190.028C133.126 191.303 128.589 197.898 129.863 204.758C131.136 211.618 137.737 216.145 144.606 214.87Z" fill="#E3C6DE"/>
<path d="M149.429 188.28C156.298 187.005 160.834 180.411 159.561 173.551C158.288 166.691 151.687 162.163 144.818 163.438C137.949 164.713 133.413 171.308 134.686 178.168C135.959 185.028 142.56 189.555 149.429 188.28Z" fill="#E3C6DE"/>
<path d="M163.871 213.509C170.74 212.234 175.276 205.639 174.003 198.779C172.73 191.919 166.129 187.392 159.26 188.667C152.391 189.942 147.854 196.536 149.128 203.396C150.401 210.256 157.002 214.784 163.871 213.509Z" fill="#E3C6DE"/>
<path d="M151.275 203.001C158.144 201.726 162.68 195.131 161.407 188.271C160.133 181.411 153.533 176.884 146.664 178.159C139.794 179.434 135.258 186.028 136.531 192.888C137.805 199.748 144.405 204.276 151.275 203.001Z" fill="#E3C6DE"/>
<path d="M169.22 192.138C176.089 190.863 180.625 184.268 179.352 177.408C178.078 170.548 171.478 166.021 164.609 167.296C157.74 168.571 153.203 175.166 154.477 182.026C155.75 188.886 162.351 193.413 169.22 192.138Z" fill="#E3C6DE"/>
<path d="M179.769 208.344C186.638 207.069 191.175 200.474 189.901 193.614C188.628 186.754 182.027 182.227 175.158 183.501C168.289 184.776 163.753 191.371 165.026 198.231C166.299 205.091 172.9 209.619 179.769 208.344Z" fill="#E3C6DE"/>
<path d="M197.575 201.493C204.444 200.218 208.98 193.623 207.707 186.763C206.434 179.903 199.833 175.375 192.964 176.65C186.095 177.925 181.559 184.52 182.832 191.38C184.105 198.24 190.706 202.768 197.575 201.493Z" fill="#E3C6DE"/>
<path d="M186.376 188.954C193.245 187.679 197.781 181.084 196.508 174.224C195.234 167.364 188.634 162.837 181.765 164.112C174.896 165.387 170.359 171.982 171.633 178.842C172.906 185.701 179.507 190.229 186.376 188.954Z" fill="#E3C6DE"/>
<path d="M175.275 114.812C182.144 113.537 186.68 106.942 185.407 100.082C184.134 93.2223 177.533 88.6948 170.664 89.9698C163.795 91.2447 159.258 97.8394 160.532 104.699C161.805 111.559 168.406 116.087 175.275 114.812Z" fill="#E3C6DE"/>
<path d="M180.895 104.463C187.765 103.188 192.301 96.5932 191.028 89.7332C189.754 82.8732 183.154 78.3457 176.284 79.6206C169.415 80.8956 164.879 87.4903 166.152 94.3503C167.426 101.21 174.026 105.738 180.895 104.463Z" fill="#E3C6DE"/>
<path d="M193.762 114.038C200.631 112.763 205.167 106.168 203.894 99.3079C202.621 92.4479 196.02 87.9204 189.151 89.1953C182.282 90.4703 177.746 97.065 179.019 103.925C180.292 110.785 186.893 115.313 193.762 114.038Z" fill="#E3C6DE"/>
<path d="M187.92 127.971C194.789 126.696 199.325 120.101 198.052 113.241C196.778 106.381 190.178 101.854 183.309 103.129C176.44 104.404 171.903 110.999 173.177 117.859C174.45 124.719 181.051 129.246 187.92 127.971Z" fill="#E3C6DE"/>
<path d="M198.85 141.449C205.719 140.174 210.255 133.579 208.982 126.719C207.709 119.859 201.108 115.331 194.239 116.606C187.37 117.881 182.833 124.476 184.107 131.336C185.38 138.196 191.981 142.724 198.85 141.449Z" fill="#E3C6DE"/>
<path d="M203.406 127.754C210.275 126.479 214.811 119.884 213.538 113.024C212.265 106.164 205.664 101.637 198.795 102.912C191.926 104.187 187.39 110.781 188.663 117.641C189.936 124.501 196.537 129.029 203.406 127.754Z" fill="#E3C6DE"/>
<path d="M215.435 142.356C222.304 141.081 226.84 134.486 225.567 127.626C224.294 120.766 217.693 116.239 210.824 117.514C203.955 118.789 199.418 125.383 200.692 132.243C201.965 139.103 208.566 143.631 215.435 142.356Z" fill="#E3C6DE"/>
<path d="M201.703 187.88C208.572 186.605 213.109 180.011 211.835 173.151C210.562 166.291 203.961 161.763 197.092 163.038C190.223 164.313 185.687 170.908 186.96 177.768C188.233 184.628 194.834 189.155 201.703 187.88Z" fill="#E3C6DE"/>
<path d="M214.566 185.493C221.436 184.218 225.972 177.623 224.699 170.763C223.425 163.903 216.825 159.375 209.956 160.65C203.086 161.925 198.55 168.52 199.823 175.38C201.097 182.24 207.697 186.768 214.566 185.493Z" fill="#E3C6DE"/>
<path d="M204.732 173.141C211.601 171.866 216.138 165.271 214.864 158.411C213.591 151.551 206.99 147.023 200.121 148.298C193.252 149.573 188.716 156.168 189.989 163.028C191.262 169.888 197.863 174.416 204.732 173.141Z" fill="#E3C6DE"/>
<path d="M208.732 156.449C215.601 155.174 220.138 148.579 218.864 141.72C217.591 134.86 210.99 130.332 204.121 131.607C197.252 132.882 192.716 139.477 193.989 146.337C195.262 153.197 201.863 157.724 208.732 156.449Z" fill="#E3C6DE"/>
<path d="M214.39 167.802C221.259 166.527 225.795 159.933 224.522 153.073C223.249 146.213 216.648 141.685 209.779 142.96C202.91 144.235 198.374 150.83 199.647 157.69C200.92 164.55 207.521 169.077 214.39 167.802Z" fill="#E3C6DE"/>
<path d="M222.075 156.63C228.944 155.355 233.481 148.76 232.207 141.9C230.934 135.04 224.333 130.513 217.464 131.788C210.595 133.063 206.059 139.657 207.332 146.517C208.605 153.377 215.206 157.905 222.075 156.63Z" fill="#E3C6DE"/>
<path d="M106.077 162.654C112.946 161.379 117.483 154.784 116.209 147.924C114.936 141.064 108.335 136.537 101.466 137.812C94.5973 139.087 90.061 145.681 91.3343 152.541C92.6075 159.401 99.2083 163.929 106.077 162.654Z" fill="#E3C6DE"/>
<path d="M108.09 147.217C114.959 145.942 119.495 139.348 118.222 132.488C116.949 125.628 110.348 121.1 103.479 122.375C96.6099 123.65 92.0736 130.245 93.3469 137.105C94.6202 143.965 101.221 148.492 108.09 147.217Z" fill="#E3C6DE"/>
<path d="M109.759 133.915C113.351 133.248 115.723 129.799 115.057 126.212C114.391 122.625 110.94 120.257 107.348 120.924C103.755 121.59 101.383 125.039 102.049 128.626C102.715 132.214 106.167 134.581 109.759 133.915Z" fill="#B789B2"/>
<path d="M113.875 126.431C117.467 125.764 119.839 122.316 119.173 118.728C118.507 115.141 115.056 112.773 111.463 113.44C107.871 114.107 105.499 117.556 106.165 121.143C106.831 124.73 110.283 127.098 113.875 126.431Z" fill="#B789B2"/>
<path d="M121.879 123.418C125.471 122.752 127.843 119.303 127.177 115.716C126.511 112.128 123.059 109.761 119.467 110.428C115.875 111.094 113.503 114.543 114.169 118.13C114.835 121.718 118.287 124.085 121.879 123.418Z" fill="#B789B2"/>
<path d="M125.064 119.162C128.656 118.495 131.029 115.047 130.363 111.459C129.697 107.872 126.245 105.504 122.653 106.171C119.061 106.838 116.689 110.287 117.355 113.874C118.02 117.461 121.472 119.829 125.064 119.162Z" fill="#B789B2"/>
<path d="M132.007 120.317C135.599 119.65 137.971 116.202 137.305 112.614C136.639 109.027 133.188 106.659 129.596 107.326C126.003 107.993 123.631 111.441 124.297 115.029C124.963 118.616 128.415 120.984 132.007 120.317Z" fill="#B789B2"/>
<path d="M136.32 115.546C139.912 114.879 142.285 111.431 141.619 107.843C140.953 104.256 137.501 101.888 133.909 102.555C130.317 103.222 127.945 106.67 128.611 110.258C129.276 113.845 132.728 116.213 136.32 115.546Z" fill="#B789B2"/>
<path d="M137.961 107.911C141.554 107.244 143.926 103.796 143.26 100.208C142.594 96.6211 139.142 94.2535 135.55 94.9202C131.958 95.5869 129.586 99.0356 130.252 102.623C130.918 106.21 134.369 108.578 137.961 107.911Z" fill="#B789B2"/>
<path d="M130.801 113.822C134.393 113.155 136.766 109.706 136.1 106.119C135.434 102.532 131.982 100.164 128.39 100.831C124.798 101.498 122.426 104.946 123.091 108.534C123.757 112.121 127.209 114.489 130.801 113.822Z" fill="#B789B2"/>
<path d="M118.07 134.205C121.662 133.538 124.034 130.089 123.368 126.502C122.703 122.915 119.251 120.547 115.659 121.214C112.067 121.88 109.694 125.329 110.36 128.916C111.026 132.504 114.478 134.871 118.07 134.205Z" fill="#B789B2"/>
<path d="M125.167 141.133C128.759 140.467 131.131 137.018 130.465 133.431C129.799 129.843 126.348 127.476 122.755 128.142C119.163 128.809 116.791 132.258 117.457 135.845C118.123 139.432 121.575 141.8 125.167 141.133Z" fill="#B789B2"/>
<path d="M126.906 130.732C130.498 130.065 132.87 126.617 132.204 123.029C131.539 119.442 128.087 117.074 124.495 117.741C120.903 118.408 118.53 121.856 119.196 125.444C119.862 129.031 123.314 131.399 126.906 130.732Z" fill="#B789B2"/>
<path d="M131.242 132.676C134.835 132.009 137.207 128.56 136.541 124.973C135.875 121.386 132.423 119.018 128.831 119.685C125.239 120.352 122.867 123.8 123.533 127.388C124.199 130.975 127.65 133.343 131.242 132.676Z" fill="#B789B2"/>
<path d="M134.898 124.362C138.49 123.695 140.863 120.246 140.197 116.659C139.531 113.072 136.079 110.704 132.487 111.371C128.895 112.038 126.523 115.486 127.189 119.074C127.854 122.661 131.306 125.029 134.898 124.362Z" fill="#B789B2"/>
<path d="M106.158 142.524C109.75 141.857 112.122 138.409 111.456 134.821C110.79 131.234 107.339 128.866 103.746 129.533C100.154 130.2 97.7822 133.648 98.448 137.236C99.1139 140.823 102.566 143.191 106.158 142.524Z" fill="#B789B2"/>
<path d="M112.771 141.907C116.364 141.24 118.736 137.792 118.07 134.205C117.404 130.617 113.952 128.25 110.36 128.916C106.768 129.583 104.396 133.032 105.062 136.619C105.728 140.206 109.179 142.574 112.771 141.907Z" fill="#B789B2"/>
<path d="M110.594 149.947C114.186 149.28 116.558 145.831 115.892 142.244C115.226 138.657 111.775 136.289 108.183 136.956C104.59 137.623 102.218 141.071 102.884 144.659C103.55 148.246 107.002 150.614 110.594 149.947Z" fill="#B789B2"/>
<path d="M117.711 147.099C121.303 146.432 123.675 142.983 123.009 139.396C122.343 135.809 118.892 133.441 115.3 134.108C111.707 134.774 109.335 138.223 110.001 141.81C110.667 145.398 114.119 147.765 117.711 147.099Z" fill="#B789B2"/>
<path d="M193.453 115.702C197.427 114.964 200.052 111.149 199.315 107.18C198.578 103.211 194.759 100.591 190.785 101.329C186.811 102.067 184.187 105.882 184.923 109.851C185.66 113.82 189.479 116.439 193.453 115.702Z" fill="#C796C2"/>
<path d="M201.21 121.097C205.184 120.359 207.809 116.544 207.072 112.575C206.336 108.606 202.517 105.987 198.542 106.724C194.568 107.462 191.944 111.277 192.68 115.246C193.417 119.215 197.236 121.835 201.21 121.097Z" fill="#C796C2"/>
<path d="M203.583 130.241C207.557 129.503 210.182 125.688 209.445 121.719C208.709 117.75 204.89 115.13 200.915 115.868C196.941 116.606 194.317 120.421 195.053 124.39C195.79 128.359 199.609 130.978 203.583 130.241Z" fill="#C796C2"/>
<path d="M207.897 134.238C211.871 133.501 214.496 129.685 213.759 125.716C213.023 121.747 209.204 119.128 205.23 119.866C201.255 120.603 198.631 124.419 199.367 128.388C200.104 132.356 203.923 134.976 207.897 134.238Z" fill="#C796C2"/>
<path d="M205.805 141.73C209.779 140.993 212.403 137.177 211.667 133.208C210.93 129.24 207.111 126.62 203.137 127.358C199.163 128.095 196.538 131.911 197.275 135.88C198.011 139.849 201.83 142.468 205.805 141.73Z" fill="#C796C2"/>
<path d="M210.552 147.025C214.526 146.287 217.151 142.472 216.414 138.503C215.677 134.534 211.858 131.915 207.884 132.652C203.91 133.39 201.286 137.205 202.022 141.174C202.759 145.143 206.578 147.762 210.552 147.025Z" fill="#C796C2"/>
<path d="M218.765 149.722C222.74 148.984 225.364 145.169 224.627 141.2C223.891 137.231 220.072 134.611 216.098 135.349C212.123 136.087 209.499 139.902 210.236 143.871C210.972 147.84 214.791 150.459 218.765 149.722Z" fill="#C796C2"/>
<path d="M213.1 141.164C217.075 140.427 219.699 136.611 218.962 132.643C218.226 128.674 214.407 126.054 210.433 126.792C206.459 127.529 203.834 131.345 204.571 135.314C205.307 139.283 209.126 141.902 213.1 141.164Z" fill="#C796C2"/>
<path d="M192.156 124.796C196.13 124.059 198.755 120.243 198.018 116.274C197.282 112.305 193.463 109.686 189.489 110.424C185.514 111.161 182.89 114.977 183.627 118.946C184.363 122.915 188.182 125.534 192.156 124.796Z" fill="#C796C2"/>
<path d="M183.688 131.783C187.662 131.045 190.287 127.23 189.55 123.261C188.813 119.292 184.995 116.673 181.02 117.41C177.046 118.148 174.422 121.964 175.158 125.932C175.895 129.901 179.714 132.521 183.688 131.783Z" fill="#C796C2"/>
<path d="M194.938 134.909C198.913 134.171 201.537 130.356 200.8 126.387C200.064 122.418 196.245 119.798 192.271 120.536C188.297 121.274 185.672 125.089 186.409 129.058C187.145 133.027 190.964 135.646 194.938 134.909Z" fill="#C796C2"/>
<path d="M192.285 139.445C196.259 138.707 198.884 134.892 198.147 130.923C197.41 126.954 193.591 124.334 189.617 125.072C185.643 125.81 183.018 129.625 183.755 133.594C184.492 137.563 188.311 140.182 192.285 139.445Z" fill="#C796C2"/>
<path d="M201.01 144.435C204.984 143.697 207.608 139.882 206.872 135.913C206.135 131.944 202.316 129.325 198.342 130.062C194.368 130.8 191.743 134.615 192.48 138.584C193.216 142.553 197.035 145.173 201.01 144.435Z" fill="#C796C2"/>
<path d="M184.397 110.737C188.371 109.999 190.995 106.184 190.259 102.215C189.522 98.2459 185.703 95.6264 181.729 96.3641C177.755 97.1017 175.13 100.917 175.867 104.886C176.603 108.855 180.422 111.474 184.397 110.737Z" fill="#C796C2"/>
<path d="M184.297 118.076C188.271 117.338 190.896 113.523 190.159 109.554C189.422 105.585 185.603 102.966 181.629 103.703C177.655 104.441 175.03 108.257 175.767 112.225C176.504 116.194 180.323 118.814 184.297 118.076Z" fill="#C796C2"/>
<path d="M175.699 114.743C179.673 114.005 182.298 110.19 181.561 106.221C180.825 102.252 177.006 99.6323 173.031 100.37C169.057 101.108 166.433 104.923 167.169 108.892C167.906 112.861 171.725 115.48 175.699 114.743Z" fill="#C796C2"/>
<path d="M177.995 122.895C181.97 122.158 184.594 118.342 183.857 114.373C183.121 110.405 179.302 107.785 175.328 108.523C171.353 109.26 168.729 113.076 169.466 117.045C170.202 121.014 174.021 123.633 177.995 122.895Z" fill="#C796C2"/>
<path d="M127.183 181.558C129.977 181.039 131.822 178.357 131.304 175.567C130.786 172.777 128.102 170.936 125.308 171.454C122.514 171.973 120.669 174.655 121.187 177.445C121.705 180.235 124.39 182.076 127.183 181.558Z" fill="#C796C2"/>
<path d="M133.712 182.808C136.506 182.289 138.351 179.607 137.833 176.817C137.315 174.027 134.631 172.186 131.837 172.704C129.043 173.223 127.198 175.905 127.716 178.695C128.234 181.485 130.919 183.326 133.712 182.808Z" fill="#C796C2"/>
<path d="M137.857 188C140.65 187.481 142.495 184.799 141.977 182.009C141.46 179.219 138.775 177.378 135.981 177.897C133.188 178.415 131.343 181.097 131.861 183.887C132.378 186.677 135.063 188.518 137.857 188Z" fill="#C796C2"/>
<path d="M141.774 189.334C144.568 188.816 146.413 186.134 145.895 183.344C145.377 180.554 142.693 178.712 139.899 179.231C137.105 179.75 135.26 182.432 135.778 185.222C136.296 188.012 138.981 189.853 141.774 189.334Z" fill="#C796C2"/>
<path d="M142.576 194.744C145.37 194.226 147.215 191.543 146.697 188.753C146.179 185.964 143.495 184.122 140.701 184.641C137.907 185.159 136.063 187.841 136.58 190.631C137.098 193.421 139.783 195.263 142.576 194.744Z" fill="#C796C2"/>
<path d="M147.143 196.789C149.936 196.27 151.781 193.588 151.264 190.798C150.746 188.008 148.061 186.167 145.267 186.686C142.474 187.204 140.629 189.886 141.147 192.676C141.665 195.466 144.349 197.308 147.143 196.789Z" fill="#C796C2"/>
<path d="M153.193 196.17C155.987 195.651 157.832 192.969 157.314 190.179C156.796 187.389 154.112 185.548 151.318 186.066C148.524 186.585 146.679 189.267 147.197 192.057C147.715 194.847 150.4 196.688 153.193 196.17Z" fill="#C796C2"/>
<path d="M147.101 192.295C149.894 191.776 151.739 189.094 151.221 186.304C150.704 183.514 148.019 181.673 145.225 182.191C142.432 182.71 140.587 185.392 141.105 188.182C141.623 190.972 144.307 192.813 147.101 192.295Z" fill="#C796C2"/>
<path d="M128.954 187.771C131.748 187.252 133.593 184.57 133.075 181.78C132.557 178.99 129.873 177.149 127.079 177.668C124.285 178.186 122.44 180.868 122.958 183.658C123.476 186.448 126.161 188.289 128.954 187.771Z" fill="#C796C2"/>
<path d="M125.518 194.679C128.311 194.161 130.156 191.479 129.638 188.689C129.121 185.899 126.436 184.057 123.642 184.576C120.849 185.094 119.004 187.776 119.522 190.566C120.039 193.356 122.724 195.198 125.518 194.679Z" fill="#C796C2"/>
<path d="M133.639 193.471C136.433 192.953 138.278 190.271 137.76 187.481C137.242 184.691 134.558 182.849 131.764 183.368C128.97 183.886 127.125 186.568 127.643 189.358C128.161 192.148 130.846 193.99 133.639 193.471Z" fill="#C796C2"/>
<path d="M133.235 197.141C136.029 196.623 137.874 193.94 137.356 191.15C136.838 188.36 134.153 186.519 131.36 187.038C128.566 187.556 126.721 190.238 127.239 193.028C127.757 195.818 130.441 197.66 133.235 197.141Z" fill="#C796C2"/>
<path d="M140.272 197.851C143.066 197.332 144.911 194.65 144.393 191.86C143.875 189.07 141.191 187.229 138.397 187.747C135.603 188.266 133.758 190.948 134.276 193.738C134.794 196.528 137.478 198.369 140.272 197.851Z" fill="#C796C2"/>
<path d="M119.944 180.962C122.738 180.443 124.583 177.761 124.065 174.971C123.547 172.181 120.862 170.34 118.069 170.858C115.275 171.377 113.43 174.059 113.948 176.849C114.466 179.639 117.15 181.48 119.944 180.962Z" fill="#C796C2"/>
<path d="M121.983 185.702C124.777 185.184 126.621 182.501 126.104 179.712C125.586 176.922 122.901 175.08 120.108 175.599C117.314 176.117 115.469 178.799 115.987 181.589C116.505 184.379 119.189 186.221 121.983 185.702Z" fill="#C796C2"/>
<path d="M115.503 186.019C118.297 185.501 120.142 182.819 119.624 180.029C119.106 177.239 116.422 175.398 113.628 175.916C110.834 176.435 108.989 179.117 109.507 181.907C110.025 184.697 112.709 186.538 115.503 186.019Z" fill="#C796C2"/>
<path d="M119.316 190.595C122.11 190.077 123.955 187.395 123.437 184.605C122.919 181.815 120.234 179.973 117.441 180.492C114.647 181.01 112.802 183.692 113.32 186.482C113.838 189.272 116.522 191.114 119.316 190.595Z" fill="#C796C2"/>
<path d="M112.45 165.417C113.957 163.451 114.289 161.12 113.315 159.466C112.847 158.673 111.785 157.535 110.761 157.719C108.822 158.064 108.454 162.869 108.429 163.231C108.244 165.941 109.063 168.126 109.662 169.38" fill="#C796C2"/>
<path d="M135.17 156.008C136.676 154.042 137.008 151.711 136.034 150.056C135.566 149.264 134.505 148.126 133.481 148.31C131.542 148.655 131.174 153.46 131.149 153.822C130.964 156.532 131.782 158.716 132.382 159.97" fill="#C796C2"/>
<path d="M153.019 161.552C154.526 159.586 154.858 157.255 153.884 155.6C153.416 154.808 152.354 153.67 151.33 153.854C149.391 154.199 149.023 159.004 148.998 159.366C148.813 162.076 149.632 164.26 150.231 165.514" fill="#C796C2"/>
<path d="M193.292 152.302C193.95 149.914 193.379 147.631 191.854 146.464C191.123 145.903 189.711 145.249 188.829 145.804C187.16 146.849 188.627 151.439 188.741 151.788C189.587 154.37 191.169 156.087 192.196 157.023" fill="#C796C2"/>
<path d="M185.269 173.338C185.927 170.95 185.357 168.668 183.831 167.5C183.1 166.939 181.688 166.285 180.806 166.84C179.138 167.886 180.604 172.476 180.718 172.824C181.564 175.407 183.146 177.123 184.173 178.059" fill="#C796C2"/>
<path d="M207.248 162.854C207.159 160.381 205.924 158.372 204.12 157.717C203.254 157.401 201.71 157.203 201.037 157.993C199.761 159.491 202.541 163.428 202.752 163.725C204.336 165.933 206.363 167.096 207.624 167.68" fill="#C796C2"/>
<path d="M200.425 183.087C200.737 180.632 199.849 178.451 198.173 177.513C197.368 177.061 195.881 176.616 195.085 177.286C193.584 178.557 195.686 182.895 195.847 183.219C197.051 185.653 198.861 187.131 200.011 187.91" fill="#C796C2"/>
<path d="M184.736 195.773C185.048 193.317 184.16 191.136 182.484 190.198C181.678 189.746 180.192 189.301 179.396 189.971C177.895 191.242 179.997 195.58 180.158 195.905C181.362 198.338 183.171 199.817 184.322 200.596" fill="#C796C2"/>
<path d="M167.049 181.087C167.834 178.74 167.383 176.426 165.923 175.182C165.221 174.582 163.848 173.857 162.938 174.362C161.217 175.319 162.437 179.98 162.533 180.332C163.243 182.955 164.729 184.752 165.705 185.741" fill="#C796C2"/>
<path d="M172.895 154.109C174.25 152.034 174.402 149.685 173.302 148.108C172.776 147.351 171.63 146.302 170.623 146.559C168.717 147.051 168.715 151.867 168.718 152.233C168.74 154.951 169.722 157.065 170.414 158.271" fill="#C796C2"/>
<path d="M167.979 135.496C168.891 133.195 168.568 130.86 167.178 129.536C166.51 128.9 165.181 128.099 164.244 128.554C162.474 129.414 163.436 134.137 163.511 134.493C164.074 137.149 165.46 139.027 166.381 140.068" fill="#C796C2"/>
<path d="M150.918 132.555C151.831 130.253 151.507 127.919 150.118 126.595C149.449 125.958 148.12 125.157 147.183 125.612C145.413 126.472 146.375 131.196 146.45 131.551C147.014 134.208 148.399 136.085 149.32 137.127" fill="#C796C2"/>
<path d="M162.414 115.415C162.854 112.979 162.081 110.755 160.456 109.728C159.676 109.235 158.212 108.712 157.384 109.339C155.816 110.531 157.689 114.97 157.834 115.306C158.908 117.801 160.637 119.37 161.744 120.209" fill="#C796C2"/>
<path d="M151.684 101.632C153.19 99.6662 153.522 97.3353 152.549 95.6805C152.08 94.8878 151.019 93.7501 149.995 93.9341C148.056 94.2787 147.688 99.0841 147.663 99.446C147.478 102.156 148.296 104.34 148.896 105.594" fill="#C796C2"/>
</g>
</g>
<defs>
<filter id="filter0_d_314_685" x="-4" y="-2" width="335.912" height="342.449" filterUnits="userSpaceOnUse" color-interpolation-filters="sRGB">
<feFlood flood-opacity="0" result="BackgroundImageFix"/>
<feColorMatrix in="SourceAlpha" type="matrix" values="0 0 0 0 0 0 0 0 0 0 0 0 0 0 0 0 0 0 127 0" result="hardAlpha"/>
<feOffset dy="2"/>
<feGaussianBlur stdDeviation="2"/>
<feComposite in2="hardAlpha" operator="out"/>
<feColorMatrix type="matrix" values="0 0 0 0 0 0 0 0 0 0 0 0 0 0 0 0 0 0 0.25 0"/>
<feBlend mode="normal" in2="BackgroundImageFix" result="effect1_dropShadow_314_685"/>
<feBlend mode="normal" in="SourceGraphic" in2="effect1_dropShadow_314_685" result="shape"/>
</filter>
<clipPath id="clip0_314_685">
<rect width="184.022" height="192.186" fill="white" transform="translate(55.9537 89.5366) rotate(-10.5151)"/>
</clipPath>
</defs>
</svg>
