<svg width="342" height="53" viewBox="0 0 342 53" fill="none" xmlns="http://www.w3.org/2000/svg">
<rect width="342" height="53" rx="8" fill="#DF823E"/>
<path d="M140.827 20.2L140.467 19.7V19.6C140.847 19.54 142.587 19.44 142.947 19.44C143.127 19.44 143.307 19.58 143.487 19.8C144.147 20.72 145.787 23.22 147.227 25.44C148.107 26.86 148.847 27.96 149.347 28.98C149.207 27.46 149.227 26.68 149.227 25.66V20.08C149.227 19.62 149.367 19.54 149.667 19.52C150.227 19.46 150.867 19.44 151.287 19.44C151.247 20.3 151.227 21.46 151.227 23.12V31.92C151.047 32 149.887 32.24 149.307 32.24C149.067 32.24 148.947 32.18 148.807 31.98C147.787 30.52 146.747 28.96 145.187 26.52C144.107 24.84 143.527 23.74 142.727 22.2C142.827 24.22 142.827 25.24 142.827 26.26V31.5C142.827 31.92 142.707 31.98 142.367 32.04C142.027 32.1 141.367 32.14 140.767 32.12C140.807 31.32 140.827 30.16 140.827 28.48V20.2ZM158.416 22.96C161.316 22.96 162.816 25 162.816 27.48C162.816 30.28 160.996 32.24 158.216 32.24C155.636 32.24 153.796 30.52 153.796 27.68C153.796 24.94 155.736 22.96 158.416 22.96ZM158.216 24.42C156.996 24.42 156.336 25.68 156.336 27.42C156.336 29.7 157.296 30.76 158.436 30.76C159.656 30.76 160.296 29.54 160.296 27.7C160.296 26 159.696 24.42 158.216 24.42ZM164.76 24.06V23.98C164.92 23.52 165.68 22.96 166.24 22.96C167.12 22.96 167.48 23.78 167.48 25.02C168.08 23.66 168.92 22.96 169.96 22.96C170.46 22.96 170.9 23.2 171.08 23.42C171.08 23.84 170.9 24.64 170.54 25.1C170.38 25.32 170.14 25.42 169.84 25.32C169.54 25.22 169.34 25.2 169.06 25.2C168.74 25.2 168.16 25.44 167.82 26.28C167.7 26.6 167.66 26.84 167.66 27.28V31.48C167.66 31.8 167.6 31.96 167.2 32.02C166.5 32.1 165.9 32.12 165.16 32.12C165.22 31.06 165.22 29.84 165.22 28.48V25.1C165.22 24.64 165.1 24.26 164.76 24.06ZM175.415 25.54V31.48C175.415 31.84 175.355 31.96 174.955 32.02C174.255 32.1 173.655 32.12 172.915 32.12C172.955 31.06 172.975 29.84 172.975 28.48V25.12C172.975 24.58 172.895 24.28 172.615 24.08V23.96C172.815 23.46 173.515 22.96 174.075 22.96C174.935 22.96 175.155 23.68 175.275 24.3C176.095 23.62 177.155 22.96 178.195 22.96C179.495 22.96 180.195 23.58 180.615 24.42C181.395 23.7 182.575 22.96 183.675 22.96C185.935 22.96 186.535 24.9 186.535 26.42V29.14C186.535 30.18 186.575 31.28 186.615 31.96C186.155 32 185.335 32.12 184.495 32.12C184.235 32.12 184.115 32 184.115 31.74V26.6C184.115 25.48 183.595 24.78 182.615 24.78C181.915 24.78 181.395 25.16 180.975 25.54V31.5C180.975 31.86 180.935 31.96 180.515 32.02C179.815 32.12 179.195 32.12 178.495 32.12C178.535 31.06 178.555 29.84 178.555 28.48V26.6C178.555 25.46 178.015 24.78 177.075 24.78C176.435 24.78 175.855 25.12 175.415 25.54ZM196.859 30.48V30.54C196.879 31.62 196.319 32.24 195.179 32.24C194.359 32.24 193.819 31.8 193.559 31.12C193.039 31.68 192.159 32.24 191.199 32.24C189.879 32.24 188.719 31.24 188.719 29.76C188.719 27.7 191.119 27.14 192.519 26.82C192.879 26.74 193.299 26.68 193.539 26.62V26.28C193.559 25.44 192.979 24.76 191.979 24.76C191.279 24.76 190.579 25.08 190.119 25.34C189.299 25.58 189.019 24.86 189.019 24.26C189.859 23.64 191.279 22.96 192.619 22.96C194.419 22.96 195.879 24.14 195.879 26.34C195.879 27.16 195.799 28.68 195.799 29.98C195.799 30.24 196.059 30.5 196.519 30.5C196.619 30.5 196.759 30.5 196.859 30.48ZM191.019 29.4C191.019 30.1 191.559 30.52 192.199 30.52C192.739 30.52 193.079 30.28 193.339 30C193.459 29.86 193.519 29.66 193.519 29.32V27.88C191.779 28.1 191.019 28.74 191.019 29.4ZM198.971 31.9V20.92C198.971 19.74 198.931 19.2 198.891 18.8C199.291 18.62 200.591 18.44 201.011 18.44C201.311 18.44 201.391 18.54 201.391 19.74V29.36C201.391 30.34 201.431 31.42 201.471 32C201.051 32.1 199.511 32.16 199.251 32.16C199.051 32.16 198.971 32.1 198.971 31.9Z" fill="#0F0F0F"/>
</svg>
