<svg width="111" height="27" viewBox="0 0 111 27" fill="none" xmlns="http://www.w3.org/2000/svg">
<path d="M2.304 21.712V6.096C2.304 3.92 2.272 3.28 2.24 2.448C2.944 2.288 6.176 1.84 8.8 1.84C18.432 1.84 20.16 7.632 20.16 11.728C20.16 18.576 15.168 22.32 8.64 22.32C6.272 22.32 4.352 22.128 2.304 21.712ZM6.304 4.496V19.568C7.072 19.76 7.936 19.824 8.8 19.824C11.68 19.824 15.872 18.448 15.872 11.76C15.872 6.992 13.12 4.336 8.352 4.336C7.36 4.336 6.784 4.4 6.304 4.496ZM25.167 0.848C26.383 0.848 27.151 1.712 27.151 2.896C27.151 4.112 26.287 5.072 25.071 5.072C24.079 5.072 23.023 4.496 23.023 2.992C23.023 1.456 24.335 0.848 25.167 0.848ZM27.055 9.712V21.232C27.055 21.808 26.799 21.968 26.095 22.064C25.455 22.16 24.303 22.192 23.055 22.192C23.087 20.88 23.151 19.024 23.151 17.136V11.696C23.151 9.712 23.087 8.72 23.023 8.112C23.759 7.888 25.807 7.728 26.447 7.728C26.927 7.728 27.055 7.888 27.055 9.712ZM35.109 7.536C36.421 7.536 37.637 7.824 38.693 8.624C38.757 9.456 38.341 10.736 37.253 10.64C36.581 10.352 35.781 10.128 35.045 10.128C34.053 10.128 33.381 10.64 33.381 11.408C33.381 12.08 33.893 12.464 34.565 12.848C35.205 13.2 36.485 13.776 37.189 14.16C38.821 15.056 39.429 16.272 39.429 17.68C39.429 20.848 36.645 22.384 33.701 22.384C32.453 22.384 31.141 22.064 30.277 21.52C29.829 21.232 29.541 20.88 29.541 20.4C29.541 19.728 29.893 18.96 30.341 18.576C31.269 19.184 32.645 19.76 33.957 19.76C35.141 19.76 35.813 19.216 35.813 18.416C35.813 17.84 35.461 17.424 34.565 16.944C33.765 16.496 32.933 16.112 32.101 15.664C30.821 14.928 29.861 13.712 29.861 12.016C29.861 9.168 32.325 7.536 35.109 7.536ZM54.1367 19.568V19.664C54.1687 21.392 53.2727 22.384 51.4487 22.384C50.1367 22.384 49.2727 21.68 48.8567 20.592C48.0247 21.488 46.6167 22.384 45.0807 22.384C42.9687 22.384 41.1127 20.784 41.1127 18.416C41.1127 15.12 44.9527 14.224 47.1927 13.712C47.7687 13.584 48.4407 13.488 48.8247 13.392V12.848C48.8567 11.504 47.9287 10.416 46.3287 10.416C45.2087 10.416 44.0887 10.928 43.3527 11.344C42.0407 11.728 41.5927 10.576 41.5927 9.616C42.9367 8.624 45.2087 7.536 47.3527 7.536C50.2327 7.536 52.5687 9.424 52.5687 12.944C52.5687 14.256 52.4407 16.688 52.4407 18.768C52.4407 19.184 52.8567 19.6 53.5927 19.6C53.7527 19.6 53.9767 19.6 54.1367 19.568ZM44.7927 17.84C44.7927 18.96 45.6567 19.632 46.6807 19.632C47.5447 19.632 48.0887 19.248 48.5047 18.8C48.6967 18.576 48.7927 18.256 48.7927 17.712V15.408C46.0087 15.76 44.7927 16.784 44.7927 17.84ZM60.428 2.416V8.688C61.324 8.24 63.02 7.536 64.108 7.536C68.012 7.536 70.252 10.448 70.252 14.256C70.252 19.28 66.316 22.384 61.58 22.384C59.884 22.384 58.348 22.032 57.356 21.584C56.812 21.36 56.556 21.168 56.556 20.656V4.336C56.556 2.512 56.492 1.552 56.428 0.879999C57.164 0.623999 59.148 0.303999 59.82 0.303999C60.3 0.303999 60.428 0.463999 60.428 2.416ZM60.428 10.832V19.792C60.876 19.92 61.388 20.016 61.932 20.016C63.884 20.016 66.22 18.608 66.22 14.832C66.22 12.272 64.812 10.384 62.316 10.384C61.804 10.384 60.908 10.576 60.428 10.832ZM73.066 21.84V4.272C73.066 2.384 73.002 1.52 72.938 0.879999C73.578 0.591999 75.658 0.303999 76.33 0.303999C76.81 0.303999 76.938 0.463999 76.938 2.384V17.776C76.938 19.344 77.002 21.072 77.066 22C76.394 22.16 73.93 22.256 73.514 22.256C73.194 22.256 73.066 22.16 73.066 21.84ZM91.5772 18.768L91.6412 18.832C91.6412 20.24 90.5212 21.552 89.9772 21.808C89.4972 22.032 88.1212 22.384 87.0012 22.384C82.3612 22.384 79.7692 19.824 79.7692 15.12C79.7692 11.248 82.2972 7.536 86.6492 7.536C90.6812 7.536 92.2492 10.448 92.2812 13.04C92.2812 13.488 92.2492 13.84 92.1852 14.096C92.0252 14.576 90.8092 15.056 89.4972 15.376C88.6972 15.536 85.3692 15.568 83.6412 15.504C83.8012 18.32 85.8172 19.504 87.9932 19.504C89.5292 19.504 91.0332 19.024 91.5772 18.768ZM86.3292 9.776C85.0812 9.776 83.8012 10.896 83.6732 13.296C84.9852 13.392 87.4492 13.36 88.2172 13.296C88.4412 13.296 88.6332 12.976 88.6332 12.624C88.6332 11.056 87.9292 9.776 86.3292 9.776ZM104.014 7.824V4.208C104.014 2.352 103.95 1.552 103.854 0.879999C104.526 0.623999 106.606 0.303999 107.278 0.303999C107.758 0.303999 107.886 0.463999 107.886 2.416V18.416C107.886 19.664 108.302 19.984 109.198 20.176V20.272C109.038 21.2 108.142 22.384 107.246 22.384C105.486 22.384 104.782 21.584 104.462 20.688C103.278 21.584 101.55 22.384 100.334 22.384C96.558 22.384 94.03 19.632 94.03 15.408C94.03 10.704 97.55 7.536 102.062 7.536C102.926 7.536 103.694 7.696 104.014 7.824ZM104.014 18.896V10.256C103.694 10.096 103.022 9.904 102.19 9.904C100.27 9.904 98.062 11.312 98.062 14.864C98.062 17.872 99.854 19.472 101.966 19.472C102.638 19.472 103.47 19.28 104.014 18.896Z" fill="#2F54B5" fill-opacity="0.5"/>
<path d="M0 25.2H110.03V26.8H0V25.2Z" fill="#2F54B5" fill-opacity="0.5"/>
</svg>
