<svg width="362" height="209" viewBox="0 0 362 209" fill="none" xmlns="http://www.w3.org/2000/svg">
<mask id="path-1-inside-1_362_988" fill="white">
<path fill-rule="evenodd" clip-rule="evenodd" d="M232.775 195.446C216.219 195.446 201.318 188.657 190.933 177.825C181.823 196.254 162.244 208.999 139.559 208.999C114.493 208.999 93.2184 193.437 85.6715 171.841C77.2148 176.629 67.3515 179.377 56.8189 179.377C25.4387 179.377 0 154.988 0 124.901C0 105.55 10.524 88.5556 26.384 78.8917C25.9077 76.0528 25.6602 73.1406 25.6602 70.1729C25.6602 40.0868 51.0988 15.6973 82.479 15.6973C90.3258 15.6973 97.8011 17.2223 104.6 19.9801C115.021 7.8608 130.801 0.134766 148.462 0.134766C165.609 0.134766 180.981 7.41661 191.399 18.9308C197.001 17.1596 202.988 16.2012 209.209 16.2012C221.938 16.2012 233.69 20.2147 243.163 26.9939C252.752 19.9101 264.768 15.6973 277.81 15.6973C309.19 15.6973 334.629 40.0868 334.629 70.1729C334.629 72.686 334.451 75.1593 334.108 77.582C350.728 87.0875 361.86 104.497 361.86 124.399C361.86 154.486 336.421 178.875 305.041 178.875C295.617 178.875 286.728 176.675 278.904 172.782C268.587 186.509 251.769 195.446 232.775 195.446Z"/>
</mask>
<path d="M190.933 177.825L192.015 176.787C191.677 176.434 191.188 176.268 190.705 176.343C190.221 176.417 189.805 176.722 189.588 177.16L190.933 177.825ZM85.6715 171.841L87.0875 171.346C86.9409 170.926 86.6156 170.593 86.1995 170.437C85.7834 170.28 85.3193 170.317 84.9324 170.536L85.6715 171.841ZM26.384 78.8917L27.1645 80.1727C27.688 79.8537 27.9647 79.2481 27.8633 78.6435L26.384 78.8917ZM104.6 19.9801L104.036 21.3701C104.633 21.6121 105.317 21.4463 105.737 20.958L104.6 19.9801ZM191.399 18.9308L190.287 19.9371C190.681 20.3723 191.292 20.5379 191.851 20.361L191.399 18.9308ZM243.163 26.9939L242.29 28.2137C242.819 28.5922 243.531 28.5868 244.054 28.2004L243.163 26.9939ZM334.108 77.582L332.623 77.3713C332.536 77.9796 332.83 78.579 333.363 78.8841L334.108 77.582ZM278.904 172.782L279.572 171.439C278.925 171.117 278.139 171.303 277.705 171.881L278.904 172.782ZM187.093 181.637C186.655 182.34 186.87 183.265 187.573 183.704C188.276 184.142 189.201 183.927 189.639 183.224L187.093 181.637ZM183.056 191.811C183.621 191.205 183.587 190.256 182.981 189.691C182.374 189.127 181.425 189.16 180.861 189.767L183.056 191.811ZM173.201 196.58C172.533 197.071 172.39 198.01 172.88 198.677C173.371 199.345 174.309 199.489 174.977 198.998L173.201 196.58ZM165.713 204.568C166.459 204.208 166.772 203.312 166.412 202.566C166.052 201.819 165.156 201.506 164.41 201.866L165.713 204.568ZM154.801 205.463C154.002 205.682 153.531 206.507 153.75 207.306C153.969 208.105 154.794 208.576 155.593 208.357L154.801 205.463ZM144.96 210.262C145.786 210.189 146.396 209.462 146.323 208.636C146.25 207.811 145.522 207.201 144.697 207.274L144.96 210.262ZM133.896 207.225C133.071 207.145 132.338 207.748 132.258 208.573C132.177 209.397 132.781 210.131 133.605 210.211L133.896 207.225ZM121.925 207.894C122.718 208.135 123.556 207.688 123.797 206.896C124.038 206.103 123.59 205.265 122.798 205.024L121.925 207.894ZM112.363 200.666C111.634 200.271 110.724 200.542 110.329 201.27C109.935 201.998 110.205 202.909 110.934 203.303L112.363 200.666ZM101.087 196.592C101.72 197.126 102.666 197.046 103.2 196.413C103.734 195.779 103.654 194.833 103.02 194.299L101.087 196.592ZM95.1848 186.161C94.6758 185.507 93.7334 185.39 93.0797 185.899C92.4261 186.408 92.3089 187.351 92.8179 188.004L95.1848 186.161ZM86.5358 177.862C86.8934 178.609 87.789 178.925 88.5363 178.567C89.2836 178.21 89.5995 177.314 89.2419 176.567L86.5358 177.862ZM81.6811 172.238C80.935 172.598 80.6221 173.495 80.9822 174.241C81.3423 174.987 82.2391 175.3 82.9851 174.94L81.6811 172.238ZM75.8207 177.838C76.6072 177.578 77.0341 176.73 76.774 175.943C76.514 175.157 75.6655 174.73 74.879 174.99L75.8207 177.838ZM67.776 176.838C66.9625 176.995 66.4299 177.781 66.5865 178.595C66.743 179.408 67.5293 179.941 68.3428 179.784L67.776 176.838ZM60.6798 180.756C61.5066 180.704 62.1348 179.992 62.0829 179.165C62.031 178.339 61.3187 177.71 60.4919 177.762L60.6798 180.756ZM51.4968 177.635C50.6718 177.56 49.9419 178.167 49.8665 178.992C49.7911 179.817 50.3988 180.547 51.2238 180.623L51.4968 177.635ZM40.2201 178.577C41.0169 178.804 41.8466 178.341 42.0733 177.545C42.3 176.748 41.8378 175.918 41.0409 175.691L40.2201 178.577ZM31.1362 171.834C30.3961 171.462 29.4944 171.76 29.1222 172.5C28.75 173.24 29.0482 174.142 29.7883 174.514L31.1362 171.834ZM20.3086 168.553C20.9645 169.059 21.9065 168.938 22.4125 168.282C22.9185 167.626 22.797 166.684 22.1411 166.178L20.3086 168.553ZM14.4007 158.908C13.8551 158.284 12.9075 158.221 12.2841 158.767C11.6606 159.312 11.5975 160.26 12.1431 160.883L14.4007 158.908ZM5.63636 151.754C6.04696 152.474 6.96309 152.724 7.68261 152.314C8.40212 151.903 8.65255 150.987 8.24195 150.268L5.63636 151.754ZM3.95936 140.57C3.70482 139.782 2.85939 139.349 2.07104 139.604C1.28268 139.858 0.849936 140.704 1.10447 141.492L3.95936 140.57ZM-1.21064 130.512C-1.12518 131.336 -0.387912 131.934 0.436096 131.849C1.2601 131.763 1.85882 131.026 1.77336 130.202L-1.21064 130.512ZM1.69538 120.416C1.7676 119.591 1.15713 118.864 0.331856 118.791C-0.493417 118.719 -1.22098 119.33 -1.2932 120.155L1.69538 120.416ZM0.364273 110.808C0.148172 111.608 0.621309 112.432 1.42105 112.648C2.2208 112.864 3.0443 112.391 3.26041 111.591L0.364273 110.808ZM6.35106 103.175C6.70356 102.426 6.38157 101.532 5.63188 101.18C4.88219 100.827 3.98869 101.149 3.63619 101.899L6.35106 103.175ZM8.3974 93.6937C7.92191 94.3721 8.08638 95.3075 8.76476 95.783C9.44314 96.2585 10.3785 96.094 10.854 95.4156L8.3974 93.6937ZM16.6069 88.5218C17.1888 87.9321 17.1825 86.9824 16.5928 86.4005C16.0032 85.8186 15.0534 85.8249 14.4715 86.4146L16.6069 88.5218ZM21.6581 80.2392C20.9878 80.7261 20.8391 81.6641 21.326 82.3344C21.8128 83.0047 22.7509 83.1534 23.4211 82.6665L21.6581 80.2392ZM27.5554 76.5391C27.4526 75.7171 26.7029 75.1341 25.8808 75.2368C25.0588 75.3396 24.4758 76.0893 24.5785 76.9113L27.5554 76.5391ZM24.2065 72.4238C24.2406 73.2515 24.9392 73.8949 25.767 73.8608C26.5947 73.8267 27.238 73.128 27.2039 72.3003L24.2065 72.4238ZM27.4335 64.8722C27.519 64.0482 26.9203 63.3109 26.0963 63.2255C25.2722 63.14 24.535 63.7387 24.4495 64.5627L27.4335 64.8722ZM26.7646 53.5823C26.5101 54.3707 26.9428 55.2161 27.7312 55.4706C28.5196 55.7252 29.365 55.2924 29.6195 54.5041L26.7646 53.5823ZM33.9021 44.8069C34.3127 44.0873 34.0623 43.1712 33.3428 42.7606C32.6232 42.35 31.7071 42.6004 31.2965 43.3199L33.9021 44.8069ZM37.8033 34.191C37.2577 34.8145 37.3208 35.7621 37.9442 36.3077C38.5676 36.8532 39.5153 36.7901 40.0608 36.1667L37.8033 34.191ZM47.8013 28.8963C48.4572 28.3902 48.5787 27.4483 48.0727 26.7924C47.5666 26.1365 46.6247 26.015 45.9688 26.521L47.8013 28.8963ZM55.4485 20.5602C54.7084 20.9324 54.4101 21.8341 54.7824 22.5742C55.1546 23.3143 56.0563 23.6125 56.7964 23.2403L55.4485 20.5602ZM66.7011 19.3829C67.4979 19.1563 67.9601 18.3266 67.7335 17.5298C67.5068 16.7329 66.6771 16.2707 65.8803 16.4974L66.7011 19.3829ZM76.8839 14.4516C76.0589 14.527 75.4513 15.2569 75.5267 16.0819C75.6021 16.9069 76.332 17.5146 77.157 17.4392L76.8839 14.4516ZM87.9972 17.4574C88.8219 17.5356 89.5539 16.9305 89.6321 16.1057C89.7103 15.281 89.1051 14.549 88.2804 14.4708L87.9972 17.4574ZM99.6774 16.6714C98.883 16.4364 98.0485 16.8899 97.8135 17.6843C97.5786 18.4787 98.0321 19.3132 98.8264 19.5482L99.6774 16.6714ZM109.923 16.607C110.53 16.0427 110.564 15.0936 110 14.487C109.435 13.8804 108.486 13.8461 107.88 14.4104L109.923 16.607ZM118.084 6.81945C117.369 7.23873 117.13 8.15783 117.549 8.87232C117.968 9.58681 118.888 9.82614 119.602 9.40686L118.084 6.81945ZM130.608 4.4543C131.396 4.19727 131.826 3.35047 131.569 2.56293C131.312 1.77538 130.465 1.34531 129.677 1.60235L130.608 4.4543ZM142.11 -1.03686C141.286 -0.951167 140.687 -0.213726 140.773 0.610257C140.859 1.43424 141.596 2.03274 142.42 1.94704L142.11 -1.03686ZM154.335 1.92965C155.159 2.01292 155.895 1.41225 155.978 0.588017C156.062 -0.236215 155.461 -0.971888 154.637 -1.05516L154.335 1.92965ZM166.735 1.43765C165.945 1.18774 165.102 1.62544 164.852 2.41527C164.602 3.20511 165.04 4.04798 165.83 4.29789L166.735 1.43765ZM176.585 8.98145C177.306 9.38978 178.221 9.13647 178.63 8.41566C179.038 7.69486 178.785 6.77951 178.064 6.37118L176.585 8.98145ZM188.116 13.5643C187.497 13.0134 186.549 13.0684 185.998 13.6871C185.447 14.3058 185.502 15.254 186.121 15.8049L188.116 13.5643ZM196.099 19.1972C196.906 19.0095 197.408 18.2032 197.22 17.3963C197.033 16.5894 196.226 16.0875 195.419 16.2753L196.099 19.1972ZM204.578 14.8751C203.752 14.9374 203.133 15.6576 203.195 16.4837C203.257 17.3098 203.977 17.9289 204.804 17.8666L204.578 14.8751ZM213.618 17.8669C214.444 17.9293 215.164 17.3102 215.227 16.4841C215.289 15.658 214.67 14.9378 213.844 14.8755L213.618 17.8669ZM223.01 16.2783C222.204 16.0903 221.397 16.5921 221.209 17.3989C221.021 18.2057 221.523 19.0121 222.33 19.2001L223.01 16.2783ZM230.729 21.859C231.497 22.1698 232.371 21.7993 232.682 21.0314C232.993 20.2635 232.622 19.389 231.854 19.0781L230.729 21.859ZM240.155 23.2235C239.446 22.7962 238.524 23.0252 238.097 23.7349C237.669 24.4446 237.898 25.3664 238.608 25.7936L240.155 23.2235ZM247.788 25.6704C248.492 25.2339 248.709 24.3092 248.272 23.6051C247.836 22.901 246.911 22.6842 246.207 23.1207L247.788 25.6704ZM254.656 18.7828C253.891 19.1007 253.529 19.9786 253.847 20.7436C254.164 21.5086 255.042 21.871 255.807 21.553L254.656 18.7828ZM264.384 18.768C265.19 18.5757 265.687 17.7665 265.495 16.9607C265.302 16.1549 264.493 15.6577 263.687 15.85L264.384 18.768ZM273.065 14.3799C272.239 14.4438 271.622 15.1651 271.685 15.9911C271.749 16.817 272.471 17.4348 273.297 17.371L273.065 14.3799ZM283.132 17.4392C283.957 17.5146 284.687 16.9069 284.762 16.0819C284.838 15.2569 284.23 14.527 283.405 14.4516L283.132 17.4392ZM294.409 16.4974C293.612 16.2707 292.782 16.7329 292.556 17.5298C292.329 18.3266 292.791 19.1563 293.588 19.3829L294.409 16.4974ZM303.493 23.2403C304.233 23.6125 305.135 23.3143 305.507 22.5742C305.879 21.8341 305.581 20.9324 304.841 20.5602L303.493 23.2403ZM314.32 26.521C313.664 26.015 312.722 26.1365 312.216 26.7924C311.71 27.4483 311.832 28.3902 312.488 28.8963L314.32 26.521ZM320.228 36.1667C320.774 36.7901 321.721 36.8532 322.345 36.3077C322.968 35.7621 323.031 34.8145 322.486 34.191L320.228 36.1667ZM328.993 43.3199C328.582 42.6004 327.666 42.35 326.946 42.7606C326.227 43.1712 325.976 44.0873 326.387 44.8068L328.993 43.3199ZM330.67 54.5041C330.924 55.2924 331.77 55.7252 332.558 55.4707C333.346 55.2161 333.779 54.3707 333.524 53.5823L330.67 54.5041ZM335.84 64.5627C335.754 63.7387 335.017 63.14 334.193 63.2255C333.369 63.3109 332.77 64.0482 332.856 64.8722L335.84 64.5627ZM333.097 71.9785C333.068 72.8065 333.716 73.5011 334.544 73.53C335.372 73.559 336.067 72.9113 336.096 72.0833L333.097 71.9785ZM335.828 75.8956C335.915 75.0718 335.318 74.3333 334.494 74.2461C333.67 74.1589 332.932 74.7561 332.844 75.5799L335.828 75.8956ZM337.281 81.346C337.963 81.8155 338.897 81.6429 339.367 80.9604C339.837 80.2779 339.664 79.344 338.981 78.8744L337.281 81.346ZM346.52 85.0509C345.925 84.4738 344.976 84.4877 344.399 85.0821C343.821 85.6764 343.835 86.626 344.43 87.2032L346.52 85.0509ZM350.482 94.18C350.969 94.8502 351.907 94.9988 352.578 94.5118C353.248 94.0249 353.396 93.0868 352.909 92.4166L350.482 94.18ZM357.93 100.783C357.568 100.037 356.671 99.7265 355.926 100.088C355.181 100.45 354.87 101.348 355.231 102.093L357.93 100.783ZM358.497 110.717C358.72 111.515 359.547 111.982 360.345 111.76C361.143 111.538 361.61 110.711 361.388 109.912L358.497 110.717ZM363.141 119.517C363.067 118.692 362.338 118.083 361.513 118.158C360.687 118.232 360.079 118.961 360.153 119.786L363.141 119.517ZM360.087 129.7C360.001 130.524 360.6 131.261 361.424 131.347C362.248 131.432 362.985 130.834 363.071 130.01L360.087 129.7ZM360.755 140.99C361.01 140.202 360.577 139.356 359.789 139.102C359 138.847 358.155 139.28 357.901 140.068L360.755 140.99ZM353.618 149.766C353.207 150.485 353.458 151.401 354.177 151.812C354.897 152.222 355.813 151.972 356.224 151.252L353.618 149.766ZM349.717 160.381C350.262 159.758 350.199 158.81 349.576 158.265C348.952 157.719 348.005 157.782 347.459 158.406L349.717 160.381ZM339.719 165.676C339.063 166.182 338.941 167.124 339.447 167.78C339.953 168.436 340.895 168.557 341.551 168.051L339.719 165.676ZM332.072 174.012C332.812 173.64 333.11 172.738 332.738 171.998C332.365 171.258 331.464 170.96 330.724 171.332L332.072 174.012ZM320.819 175.189C320.022 175.416 319.56 176.246 319.787 177.043C320.013 177.839 320.843 178.302 321.64 178.075L320.819 175.189ZM310.636 180.121C311.461 180.045 312.069 179.315 311.993 178.49C311.918 177.666 311.188 177.058 310.363 177.133L310.636 180.121ZM298.455 177.004C297.632 176.91 296.889 177.502 296.795 178.325C296.702 179.148 297.293 179.891 298.116 179.985L298.455 177.004ZM284.621 176.847C285.401 177.127 286.259 176.722 286.539 175.942C286.819 175.163 286.414 174.304 285.634 174.024L284.621 176.847ZM274.974 175.225C274.424 175.845 274.481 176.793 275.101 177.342C275.721 177.892 276.669 177.835 277.219 177.215L274.974 175.225ZM270.656 183.53C271.297 183.005 271.39 182.06 270.864 181.419C270.339 180.779 269.393 180.686 268.753 181.211L270.656 183.53ZM261.669 186.153C260.955 186.573 260.717 187.492 261.136 188.206C261.556 188.921 262.475 189.159 263.19 188.74L261.669 186.153ZM255.01 192.733C255.78 192.428 256.157 191.556 255.852 190.786C255.547 190.016 254.675 189.639 253.905 189.944L255.01 192.733ZM245.651 192.503C244.843 192.688 244.338 193.492 244.522 194.299C244.707 195.107 245.511 195.612 246.319 195.428L245.651 192.503ZM237.323 196.778C238.149 196.717 238.769 195.997 238.708 195.171C238.647 194.345 237.927 193.725 237.101 193.786L237.323 196.778ZM227.097 193.67C226.272 193.59 225.539 194.193 225.458 195.017C225.378 195.842 225.981 196.575 226.805 196.656L227.097 193.67ZM215.092 194.326C215.885 194.568 216.723 194.121 216.965 193.329C217.206 192.537 216.76 191.698 215.967 191.457L215.092 194.326ZM205.507 187.073C204.779 186.678 203.868 186.947 203.473 187.675C203.077 188.403 203.346 189.313 204.074 189.709L205.507 187.073ZM194.211 182.962C194.843 183.497 195.79 183.419 196.325 182.787C196.86 182.154 196.782 181.208 196.15 180.673L194.211 182.962ZM189.588 177.16C188.83 178.694 187.997 180.188 187.093 181.637L189.639 183.224C190.594 181.692 191.475 180.113 192.277 178.49L189.588 177.16ZM180.861 189.767C178.539 192.26 175.974 194.543 173.201 196.58L174.977 198.998C177.9 196.85 180.606 194.443 183.056 191.811L180.861 189.767ZM164.41 201.866C161.358 203.338 158.144 204.548 154.801 205.463L155.593 208.357C159.114 207.393 162.498 206.119 165.713 204.568L164.41 201.866ZM144.697 207.274C143.006 207.423 141.292 207.499 139.559 207.499V210.499C141.38 210.499 143.182 210.419 144.96 210.262L144.697 207.274ZM139.559 207.499C137.647 207.499 135.758 207.406 133.896 207.225L133.605 210.211C135.563 210.402 137.55 210.499 139.559 210.499V207.499ZM122.798 205.024C119.14 203.912 115.647 202.445 112.363 200.666L110.934 203.303C114.394 205.178 118.073 206.723 121.925 207.894L122.798 205.024ZM103.02 194.299C100.123 191.856 97.4951 189.128 95.1848 186.161L92.8179 188.004C95.2579 191.137 98.0311 194.016 101.087 196.592L103.02 194.299ZM89.2419 176.567C88.4311 174.872 87.7111 173.13 87.0875 171.346L84.2555 172.336C84.9157 174.225 85.6779 176.069 86.5358 177.862L89.2419 176.567ZM84.9324 170.536C83.8709 171.137 82.7867 171.705 81.6811 172.238L82.9851 174.94C84.1498 174.378 85.2922 173.779 86.4106 173.146L84.9324 170.536ZM74.879 174.99C72.5767 175.751 70.2053 176.371 67.776 176.838L68.3428 179.784C70.8996 179.292 73.3962 178.64 75.8207 177.838L74.879 174.99ZM60.4919 177.762C59.278 177.838 58.0533 177.877 56.8189 177.877V180.877C58.116 180.877 59.4034 180.836 60.6798 180.756L60.4919 177.762ZM56.8189 177.877C55.0232 177.877 53.2479 177.795 51.4968 177.635L51.2238 180.623C53.0655 180.791 54.9319 180.877 56.8189 180.877V177.877ZM41.0409 175.691C37.5857 174.709 34.2721 173.411 31.1362 171.834L29.7883 174.514C33.0921 176.176 36.5821 177.542 40.2201 178.577L41.0409 175.691ZM22.1411 166.178C19.3195 164.001 16.7262 161.565 14.4007 158.908L12.1431 160.883C14.598 163.688 17.3338 166.258 20.3086 168.553L22.1411 166.178ZM8.24195 150.268C6.49427 147.205 5.05375 143.96 3.95936 140.57L1.10447 141.492C2.26343 145.082 3.78819 148.516 5.63636 151.754L8.24195 150.268ZM1.77336 130.202C1.59259 128.459 1.5 126.691 1.5 124.901H-1.5C-1.5 126.794 -1.40204 128.666 -1.21064 130.512L1.77336 130.202ZM1.5 124.901C1.5 123.39 1.56602 121.895 1.69538 120.416L-1.2932 120.155C-1.43016 121.72 -1.5 123.303 -1.5 124.901H1.5ZM3.26041 111.591C4.04655 108.682 5.08454 105.869 6.35106 103.175L3.63619 101.899C2.29599 104.749 1.19692 107.727 0.364273 110.808L3.26041 111.591ZM10.854 95.4156C12.5712 92.9657 14.4968 90.6599 16.6069 88.5218L14.4715 86.4146C12.2451 88.6706 10.2118 91.1051 8.3974 93.6937L10.854 95.4156ZM23.4211 82.6665C24.6309 81.7878 25.8797 80.9555 27.1645 80.1727L25.6035 77.6108C24.2495 78.4358 22.9334 79.3129 21.6581 80.2392L23.4211 82.6665ZM27.8633 78.6435C27.7464 77.9465 27.6436 77.245 27.5554 76.5391L24.5785 76.9113C24.672 77.6588 24.7808 78.4018 24.9047 79.1399L27.8633 78.6435ZM27.2039 72.3003C27.1748 71.5947 27.1602 70.8855 27.1602 70.1729H24.1602C24.1602 70.9267 24.1757 71.6771 24.2065 72.4238L27.2039 72.3003ZM27.1602 70.1729C27.1602 68.3835 27.2528 66.6152 27.4335 64.8722L24.4495 64.5627C24.2581 66.4083 24.1602 68.2799 24.1602 70.1729H27.1602ZM29.6195 54.5041C30.7139 51.1145 32.1544 47.8694 33.9021 44.8069L31.2965 43.3199C29.4483 46.5586 27.9236 49.9928 26.7646 53.5823L29.6195 54.5041ZM40.0608 36.1667C42.3863 33.5094 44.9796 31.0731 47.8013 28.8963L45.9688 26.521C42.994 28.816 40.2581 31.3859 37.8033 34.191L40.0608 36.1667ZM56.7964 23.2403C59.9323 21.6632 63.2459 20.3658 66.7011 19.3829L65.8803 16.4974C62.2422 17.5323 58.7522 18.8987 55.4485 20.5602L56.7964 23.2403ZM77.157 17.4392C78.9081 17.2792 80.6833 17.1973 82.479 17.1973V14.1973C80.5921 14.1973 78.7257 14.2833 76.8839 14.4516L77.157 17.4392ZM82.479 17.1973C84.3418 17.1973 86.1826 17.2854 87.9972 17.4574L88.2804 14.4708C86.3717 14.2899 84.4364 14.1973 82.479 14.1973V17.1973ZM98.8264 19.5482C100.603 20.0737 102.341 20.6826 104.036 21.3701L105.164 18.5901C103.379 17.8659 101.548 17.2247 99.6774 16.6714L98.8264 19.5482ZM105.737 20.958C107.048 19.4343 108.445 17.9815 109.923 16.607L107.88 14.4104C106.321 15.8604 104.846 17.3934 103.463 19.0021L105.737 20.958ZM119.602 9.40686C123.04 7.38914 126.727 5.72097 130.608 4.4543L129.677 1.60235C125.59 2.93621 121.707 4.6933 118.084 6.81945L119.602 9.40686ZM142.42 1.94704C144.404 1.7407 146.42 1.63477 148.462 1.63477V-1.36523C146.316 -1.36523 144.197 -1.25391 142.11 -1.03686L142.42 1.94704ZM148.462 1.63477C150.447 1.63477 152.406 1.73475 154.335 1.92965L154.637 -1.05516C152.607 -1.26017 150.547 -1.36523 148.462 -1.36523V1.63477ZM165.83 4.29789C169.612 5.49467 173.214 7.07168 176.585 8.98145L178.064 6.37118C174.512 4.35889 170.718 2.69787 166.735 1.43765L165.83 4.29789ZM186.121 15.8049C187.586 17.1095 188.977 18.489 190.287 19.9371L192.512 17.9244C191.129 16.3959 189.661 14.9403 188.116 13.5643L186.121 15.8049ZM191.851 20.361C193.244 19.9208 194.66 19.5321 196.099 19.1972L195.419 16.2753C193.905 16.6278 192.413 17.037 190.947 17.5005L191.851 20.361ZM204.804 17.8666C206.257 17.757 207.726 17.7012 209.209 17.7012V14.7012C207.65 14.7012 206.106 14.7599 204.578 14.8751L204.804 17.8666ZM209.209 17.7012C210.693 17.7012 212.163 17.7571 213.618 17.8669L213.844 14.8755C212.314 14.76 210.768 14.7012 209.209 14.7012V17.7012ZM222.33 19.2001C225.226 19.8746 228.032 20.7673 230.729 21.859L231.854 19.0781C229.014 17.9283 226.059 16.9883 223.01 16.2783L222.33 19.2001ZM238.608 25.7936C239.871 26.5537 241.099 27.3613 242.29 28.2137L244.036 25.7741C242.78 24.8756 241.486 24.0244 240.155 23.2235L238.608 25.7936ZM244.054 28.2004C245.26 27.3096 246.506 26.4653 247.788 25.6704L246.207 23.1207C244.856 23.9584 243.543 24.8483 242.272 25.7874L244.054 28.2004ZM255.807 21.553C258.557 20.4101 261.423 19.4749 264.384 18.768L263.687 15.85C260.57 16.5941 257.552 17.5789 254.656 18.7828L255.807 21.553ZM273.297 17.371C274.785 17.2559 276.29 17.1973 277.81 17.1973V14.1973C276.213 14.1973 274.631 14.2589 273.065 14.3799L273.297 17.371ZM277.81 17.1973C279.606 17.1973 281.381 17.2792 283.132 17.4392L283.405 14.4516C281.563 14.2833 279.697 14.1973 277.81 14.1973V17.1973ZM293.588 19.3829C297.043 20.3658 300.357 21.6632 303.493 23.2403L304.841 20.5602C301.537 18.8986 298.047 17.5323 294.409 16.4974L293.588 19.3829ZM312.488 28.8963C315.309 31.0731 317.903 33.5094 320.228 36.1667L322.486 34.191C320.031 31.3859 317.295 28.816 314.32 26.521L312.488 28.8963ZM326.387 44.8068C328.135 47.8694 329.575 51.1145 330.67 54.5041L333.524 53.5823C332.366 49.9928 330.841 46.5586 328.993 43.3199L326.387 44.8068ZM332.856 64.8722C333.036 66.6152 333.129 68.3835 333.129 70.1729H336.129C336.129 68.2799 336.031 66.4083 335.84 64.5627L332.856 64.8722ZM333.129 70.1729C333.129 70.7773 333.118 71.3792 333.097 71.9785L336.096 72.0833C336.118 71.4491 336.129 70.8122 336.129 70.1729H333.129ZM332.844 75.5799C332.781 76.1801 332.707 76.7773 332.623 77.3713L335.593 77.7926C335.682 77.1635 335.761 76.5311 335.828 75.8956L332.844 75.5799ZM333.363 78.8841C334.707 79.6527 336.014 80.4743 337.281 81.346L338.981 78.8744C337.646 77.9557 336.269 77.0898 334.853 76.2799L333.363 78.8841ZM344.43 87.2032C346.648 89.3569 348.674 91.691 350.482 94.18L352.909 92.4166C350.999 89.7871 348.86 87.3231 346.52 85.0509L344.43 87.2032ZM355.231 102.093C356.569 104.848 357.666 107.731 358.497 110.717L361.388 109.912C360.507 106.75 359.345 103.698 357.93 100.783L355.231 102.093ZM360.153 119.786C360.29 121.306 360.36 122.845 360.36 124.399H363.36C363.36 122.755 363.286 121.126 363.141 119.517L360.153 119.786ZM360.36 124.399C360.36 126.189 360.267 127.957 360.087 129.7L363.071 130.01C363.262 128.164 363.36 126.293 363.36 124.399H360.36ZM357.901 140.068C356.806 143.458 355.366 146.703 353.618 149.766L356.224 151.252C358.072 148.014 359.596 144.58 360.755 140.99L357.901 140.068ZM347.459 158.406C345.134 161.063 342.54 163.499 339.719 165.676L341.551 168.051C344.526 165.756 347.262 163.187 349.717 160.381L347.459 158.406ZM330.724 171.332C327.588 172.909 324.274 174.207 320.819 175.189L321.64 178.075C325.278 177.04 328.768 175.674 332.072 174.012L330.724 171.332ZM310.363 177.133C308.612 177.293 306.837 177.375 305.041 177.375V180.375C306.928 180.375 308.794 180.289 310.636 180.121L310.363 177.133ZM305.041 177.375C302.812 177.375 300.614 177.249 298.455 177.004L298.116 179.985C300.388 180.243 302.698 180.375 305.041 180.375V177.375ZM285.634 174.024C283.551 173.276 281.527 172.412 279.572 171.439L278.236 174.125C280.295 175.15 282.427 176.06 284.621 176.847L285.634 174.024ZM277.705 171.881C276.841 173.031 275.929 174.146 274.974 175.225L277.219 177.215C278.228 176.076 279.19 174.898 280.103 173.683L277.705 171.881ZM268.753 181.211C266.537 183.03 264.169 184.684 261.669 186.153L263.19 188.74C265.823 187.191 268.32 185.448 270.656 183.53L268.753 181.211ZM253.905 189.944C251.252 190.995 248.494 191.854 245.651 192.503L246.319 195.428C249.311 194.745 252.215 193.84 255.01 192.733L253.905 189.944ZM237.101 193.786C235.674 193.892 234.231 193.946 232.775 193.946V196.946C234.305 196.946 235.822 196.889 237.323 196.778L237.101 193.786ZM232.775 193.946C230.857 193.946 228.963 193.852 227.097 193.67L226.805 196.656C228.768 196.847 230.76 196.946 232.775 196.946V193.946ZM215.967 191.457C212.299 190.338 208.798 188.862 205.507 187.073L204.074 189.709C207.542 191.594 211.23 193.148 215.092 194.326L215.967 191.457ZM196.15 180.673C194.702 179.447 193.322 178.15 192.015 176.787L189.85 178.863C191.228 180.301 192.684 181.67 194.211 182.962L196.15 180.673ZM190.933 177.825L193.098 175.749C192.421 175.043 191.443 174.711 190.477 174.86C189.51 175.009 188.677 175.619 188.243 176.496L190.933 177.825ZM85.6715 171.841L88.5036 170.851C88.2103 170.012 87.5597 169.346 86.7275 169.033C85.8952 168.72 84.967 168.792 84.1933 169.23L85.6715 171.841ZM26.384 78.8917L27.945 81.4536C28.9921 80.8156 29.5455 79.6046 29.3426 78.3953L26.384 78.8917ZM104.6 19.9801L103.472 22.7601C104.666 23.2441 106.035 22.9125 106.875 21.936L104.6 19.9801ZM191.399 18.9308L189.175 20.9435C189.962 21.8138 191.185 22.145 192.304 21.7912L191.399 18.9308ZM243.163 26.9939L241.417 29.4335C242.474 30.1904 243.899 30.1797 244.945 29.407L243.163 26.9939ZM334.108 77.582L331.138 77.1607C330.965 78.3773 331.552 79.5761 332.618 80.1861L334.108 77.582ZM278.904 172.782L280.24 170.096C278.945 169.452 277.375 169.823 276.506 170.98L278.904 172.782ZM185.82 180.844C184.944 182.25 185.373 184.1 186.779 184.976C188.185 185.853 190.036 185.424 190.912 184.018L185.82 180.844ZM184.154 192.833C185.283 191.621 185.216 189.722 184.003 188.593C182.79 187.464 180.892 187.532 179.763 188.745L184.154 192.833ZM172.313 195.372C170.977 196.353 170.69 198.23 171.671 199.566C172.652 200.901 174.53 201.188 175.865 200.207L172.313 195.372ZM166.365 205.919C167.857 205.199 168.483 203.406 167.763 201.914C167.044 200.422 165.25 199.795 163.758 200.515L166.365 205.919ZM154.405 204.017C152.807 204.454 151.866 206.104 152.304 207.702C152.741 209.3 154.391 210.241 155.989 209.803L154.405 204.017ZM145.092 211.756C146.743 211.611 147.963 210.155 147.817 208.505C147.672 206.854 146.216 205.634 144.565 205.78L145.092 211.756ZM134.041 205.732C132.392 205.572 130.925 206.778 130.765 208.427C130.604 210.076 131.811 211.543 133.46 211.704L134.041 205.732ZM121.489 209.329C123.074 209.812 124.75 208.917 125.232 207.332C125.714 205.747 124.82 204.071 123.234 203.589L121.489 209.329ZM113.077 199.347C111.621 198.558 109.8 199.099 109.011 200.556C108.221 202.012 108.762 203.833 110.219 204.622L113.077 199.347ZM100.12 197.739C101.386 198.807 103.279 198.646 104.347 197.379C105.415 196.113 105.254 194.22 103.987 193.152L100.12 197.739ZM96.3683 185.239C95.3503 183.932 93.4654 183.698 92.1581 184.716C90.8509 185.734 90.6164 187.619 91.6344 188.926L96.3683 185.239ZM85.1827 178.509C85.8979 180.004 87.6892 180.636 89.1838 179.92C90.6783 179.205 91.3102 177.414 90.595 175.919L85.1827 178.509ZM81.0291 170.887C79.537 171.608 78.9112 173.401 79.6314 174.893C80.3515 176.385 82.145 177.011 83.6371 176.291L81.0291 170.887ZM76.2915 179.262C77.8647 178.742 78.7183 177.046 78.1982 175.472C77.6781 173.899 75.9812 173.046 74.4081 173.566L76.2915 179.262ZM67.4926 175.365C65.8656 175.678 64.8004 177.251 65.1135 178.878C65.4265 180.505 66.9992 181.57 68.6263 181.257L67.4926 175.365ZM60.7738 182.253C62.4274 182.15 63.6838 180.725 63.58 179.071C63.4762 177.418 62.0516 176.161 60.398 176.265L60.7738 182.253ZM51.6333 176.141C49.9833 175.991 48.5235 177.206 48.3727 178.856C48.2219 180.506 49.4373 181.966 51.0873 182.117L51.6333 176.141ZM39.8097 180.02C41.4034 180.473 43.0627 179.549 43.5161 177.955C43.9694 176.361 43.045 174.702 41.4514 174.249L39.8097 180.02ZM31.8102 170.494C30.33 169.75 28.5266 170.346 27.7821 171.826C27.0377 173.306 27.6342 175.11 29.1144 175.854L31.8102 170.494ZM19.3924 169.741C20.7042 170.753 22.5881 170.51 23.6002 169.198C24.6122 167.886 24.3692 166.003 23.0574 164.99L19.3924 169.741ZM15.5295 157.92C14.4383 156.673 12.543 156.547 11.2962 157.638C10.0494 158.729 9.92318 160.624 11.0143 161.871L15.5295 157.92ZM4.33356 152.498C5.15476 153.937 6.98703 154.438 8.42606 153.617C9.86509 152.795 10.3659 150.963 9.54475 149.524L4.33356 152.498ZM5.3868 140.109C4.87773 138.533 3.18687 137.667 1.61016 138.176C0.0334532 138.685 -0.832042 140.376 -0.322973 141.953L5.3868 140.109ZM-2.70263 130.666C-2.53172 132.314 -1.05719 133.512 0.59083 133.341C2.23884 133.17 3.43627 131.695 3.26536 130.047L-2.70263 130.666ZM3.18967 120.547C3.33411 118.897 2.11317 117.442 0.462623 117.297C-1.18792 117.153 -2.64305 118.374 -2.78749 120.024L3.18967 120.547ZM-1.08379 110.417C-1.51599 112.017 -0.569721 113.664 1.02977 114.096C2.62926 114.528 4.27627 113.582 4.70847 111.982L-1.08379 110.417ZM7.7085 103.814C8.4135 102.314 7.76952 100.527 6.27013 99.8221C4.77075 99.1171 2.98375 99.7611 2.27876 101.261L7.7085 103.814ZM7.16909 92.8327C6.2181 94.1895 6.54704 96.0603 7.9038 97.0113C9.26056 97.9623 11.1314 97.6333 12.0823 96.2766L7.16909 92.8327ZM17.6745 89.5754C18.8383 88.3961 18.8257 86.4967 17.6464 85.3329C16.4671 84.1691 14.5677 84.1816 13.4039 85.3609L17.6745 89.5754ZM20.7765 79.0256C19.436 79.9993 19.1386 81.8754 20.1123 83.2159C21.0861 84.5565 22.9621 84.8538 24.3027 83.8801L20.7765 79.0256ZM29.0438 76.353C28.8382 74.709 27.3388 73.5429 25.6947 73.7484C24.0507 73.954 22.8846 75.4534 23.0901 77.0975L29.0438 76.353ZM22.7077 72.4856C22.776 74.141 24.1733 75.4277 25.8288 75.3595C27.4842 75.2913 28.7709 73.8939 28.7027 72.2385L22.7077 72.4856ZM28.9255 65.0269C29.0964 63.3789 27.899 61.9044 26.251 61.7335C24.603 61.5626 23.1284 62.76 22.9575 64.408L28.9255 65.0269ZM25.3372 53.1215C24.8281 54.6982 25.6936 56.389 27.2703 56.8981C28.847 57.4072 30.5379 56.5417 31.047 54.965L25.3372 53.1215ZM35.2049 45.5503C36.0261 44.1113 35.5252 42.279 34.0862 41.4578C32.6472 40.6366 30.8149 41.1375 29.9937 42.5765L35.2049 45.5503ZM36.6745 33.2032C35.5833 34.45 35.7095 36.3453 36.9564 37.4365C38.2032 38.5276 40.0985 38.4014 41.1896 37.1546L36.6745 33.2032ZM48.7175 30.0839C50.0294 29.0719 50.2724 27.188 49.2603 25.8761C48.2483 24.5643 46.3644 24.3213 45.0525 25.3334L48.7175 30.0839ZM54.7745 19.2201C53.2943 19.9645 52.6979 21.768 53.4423 23.2482C54.1867 24.7284 55.9901 25.3248 57.4703 24.5804L54.7745 19.2201ZM67.1115 20.8257C68.7051 20.3724 69.6295 18.713 69.1762 17.1194C68.7229 15.5257 67.0635 14.6013 65.4699 15.0546L67.1115 20.8257ZM76.7474 12.9579C75.0974 13.1086 73.8821 14.5684 74.0329 16.2184C74.1837 17.8684 75.6435 19.0837 77.2935 18.933L76.7474 12.9579ZM87.8556 18.9507C89.5051 19.1071 90.969 17.8968 91.1254 16.2473C91.2818 14.5979 90.0714 13.1339 88.422 12.9775L87.8556 18.9507ZM100.103 15.233C98.5141 14.763 96.8451 15.67 96.3751 17.2588C95.9052 18.8476 96.8122 20.5166 98.401 20.9866L100.103 15.233ZM110.945 17.7053C112.158 16.5768 112.226 14.6785 111.098 13.4654C109.969 12.2522 108.071 12.1836 106.858 13.3121L110.945 17.7053ZM117.325 5.52575C115.896 6.3643 115.417 8.2025 116.255 9.63148C117.094 11.0605 118.932 11.5391 120.361 10.7006L117.325 5.52575ZM131.074 5.88027C132.649 5.36621 133.509 3.67262 132.995 2.09753C132.481 0.52244 130.787 -0.337692 129.212 0.176371L131.074 5.88027ZM141.955 -2.52882C140.307 -2.35742 139.11 -0.882542 139.281 0.765424C139.452 2.41339 140.927 3.61039 142.575 3.439L141.955 -2.52882ZM154.184 3.42206C155.833 3.58859 157.304 2.38725 157.471 0.738786C157.637 -0.909677 156.436 -2.38102 154.787 -2.54756L154.184 3.42206ZM167.187 0.00752291C165.608 -0.492288 163.922 0.38311 163.422 1.96278C162.922 3.54245 163.798 5.2282 165.378 5.72801L167.187 0.00752291ZM175.846 10.2866C177.287 11.1032 179.118 10.5966 179.935 9.15501C180.751 7.7134 180.245 5.88271 178.803 5.06605L175.846 10.2866ZM189.113 12.444C187.876 11.3422 185.979 11.4522 184.877 12.6896C183.776 13.9271 183.886 15.8234 185.123 16.9252L189.113 12.444ZM196.439 20.6582C198.053 20.2827 199.057 18.6701 198.681 17.0563C198.306 15.4426 196.693 14.4388 195.079 14.8143L196.439 20.6582ZM204.465 13.3794C202.813 13.504 201.575 14.9443 201.699 16.5965C201.824 18.2486 203.264 19.487 204.916 19.3624L204.465 13.3794ZM213.505 19.3627C215.157 19.4874 216.598 18.2492 216.722 16.597C216.847 14.9449 215.609 13.5044 213.957 13.3797L213.505 19.3627ZM223.351 14.8174C221.737 14.4415 220.124 15.4449 219.748 17.0586C219.372 18.6722 220.376 20.2851 221.99 20.661L223.351 14.8174ZM230.166 23.2494C231.702 23.871 233.451 23.13 234.072 21.5942C234.694 20.0584 233.953 18.3094 232.417 17.6877L230.166 23.2494ZM240.929 21.9384C239.509 21.0838 237.666 21.5418 236.811 22.9613C235.957 24.3807 236.415 26.2242 237.834 27.0787L240.929 21.9384ZM248.578 26.9452C249.986 26.0722 250.42 24.2229 249.547 22.8147C248.674 21.4066 246.825 20.9728 245.416 21.8458L248.578 26.9452ZM254.08 17.3976C252.55 18.0335 251.826 19.7893 252.461 21.3193C253.097 22.8492 254.853 23.574 256.383 22.9382L254.08 17.3976ZM264.732 20.227C266.344 19.8423 267.338 18.224 266.954 16.6124C266.569 15.0008 264.951 14.0063 263.339 14.391L264.732 20.227ZM272.95 12.8844C271.298 13.0121 270.062 14.4547 270.19 16.1067C270.318 17.7586 271.76 18.9942 273.412 18.8665L272.95 12.8844ZM282.996 18.933C284.646 19.0837 286.105 17.8684 286.256 16.2184C286.407 14.5685 285.192 13.1086 283.542 12.9579L282.996 18.933ZM294.819 15.0546C293.226 14.6013 291.566 15.5257 291.113 17.1194C290.66 18.713 291.584 20.3724 293.178 20.8257L294.819 15.0546ZM302.819 24.5804C304.299 25.3248 306.102 24.7284 306.847 23.2482C307.591 21.768 306.995 19.9645 305.515 19.2201L302.819 24.5804ZM315.237 25.3333C313.925 24.3213 312.041 24.5643 311.029 25.8761C310.017 27.188 310.26 29.0719 311.572 30.0839L315.237 25.3333ZM319.099 37.1546C320.191 38.4014 322.086 38.5276 323.333 37.4365C324.58 36.3453 324.706 34.45 323.615 33.2032L319.099 37.1546ZM330.295 42.5765C329.474 41.1375 327.642 40.6366 326.203 41.4578C324.764 42.279 324.263 44.1113 325.084 45.5503L330.295 42.5765ZM329.242 54.965C329.751 56.5417 331.442 57.4072 333.019 56.8981C334.595 56.389 335.461 54.6982 334.952 53.1215L329.242 54.965ZM337.332 64.408C337.161 62.76 335.686 61.5626 334.038 61.7335C332.39 61.9044 331.193 63.3789 331.364 65.0269L337.332 64.408ZM331.598 71.9261C331.54 73.582 332.836 74.9712 334.492 75.0291C336.148 75.087 337.537 73.7916 337.595 72.1357L331.598 71.9261ZM337.319 76.0535C337.494 74.4058 336.299 72.9288 334.652 72.7544C333.004 72.5801 331.527 73.7744 331.353 75.4221L337.319 76.0535ZM336.431 82.5817C337.796 83.5209 339.664 83.1756 340.603 81.8106C341.542 80.4456 341.197 78.5778 339.832 77.6386L336.431 82.5817ZM347.565 83.9748C346.376 82.8206 344.477 82.8484 343.322 84.0371C342.168 85.2258 342.196 87.125 343.385 88.2793L347.565 83.9748ZM349.269 95.0617C350.243 96.4021 352.119 96.6992 353.459 95.7254C354.8 94.7515 355.097 92.8754 354.123 91.5349L349.269 95.0617ZM359.28 100.128C358.556 98.637 356.761 98.0154 355.271 98.739C353.78 99.4626 353.158 101.257 353.882 102.748L359.28 100.128ZM357.052 111.119C357.497 112.715 359.151 113.649 360.747 113.205C362.343 112.76 363.277 111.106 362.833 109.51L357.052 111.119ZM364.635 119.383C364.486 117.733 363.028 116.515 361.378 116.664C359.728 116.812 358.511 118.271 358.659 119.921L364.635 119.383ZM358.595 129.545C358.424 131.193 359.621 132.668 361.269 132.839C362.917 133.01 364.392 131.812 364.563 130.164L358.595 129.545ZM362.183 141.451C362.692 139.874 361.826 138.183 360.25 137.674C358.673 137.165 356.982 138.031 356.473 139.607L362.183 141.451ZM352.315 149.022C351.494 150.461 351.995 152.293 353.434 153.115C354.873 153.936 356.705 153.435 357.526 151.996L352.315 149.022ZM350.846 161.369C351.937 160.122 351.81 158.227 350.564 157.136C349.317 156.045 347.422 156.171 346.33 157.418L350.846 161.369ZM338.803 164.488C337.491 165.501 337.248 167.384 338.26 168.696C339.272 170.008 341.156 170.251 342.467 169.239L338.803 164.488ZM332.746 175.352C334.226 174.608 334.822 172.804 334.078 171.324C333.333 169.844 331.53 169.248 330.05 169.992L332.746 175.352ZM320.409 173.747C318.815 174.2 317.891 175.859 318.344 177.453C318.797 179.047 320.457 179.971 322.05 179.518L320.409 173.747ZM310.773 181.615C312.423 181.464 313.638 180.004 313.487 178.354C313.336 176.704 311.877 175.489 310.227 175.639L310.773 181.615ZM298.624 175.513C296.978 175.326 295.492 176.509 295.305 178.156C295.118 179.802 296.301 181.288 297.947 181.475L298.624 175.513ZM284.114 178.259C285.674 178.819 287.392 178.008 287.951 176.449C288.511 174.889 287.7 173.172 286.141 172.612L284.114 178.259ZM273.851 174.23C272.752 175.47 272.867 177.366 274.107 178.465C275.347 179.564 277.243 179.449 278.342 178.209L273.851 174.23ZM271.608 184.69C272.889 183.639 273.075 181.748 272.024 180.468C270.973 179.187 269.082 179.001 267.801 180.052L271.608 184.69ZM260.909 184.86C259.481 185.7 259.004 187.538 259.843 188.967C260.683 190.395 262.521 190.872 263.95 190.033L260.909 184.86ZM255.562 194.128C257.103 193.517 257.857 191.774 257.246 190.233C256.636 188.693 254.893 187.939 253.352 188.549L255.562 194.128ZM245.317 191.041C243.702 191.41 242.691 193.018 243.06 194.633C243.429 196.249 245.037 197.259 246.652 196.89L245.317 191.041ZM237.433 198.274C239.086 198.151 240.326 196.713 240.204 195.06C240.081 193.408 238.643 192.168 236.99 192.29L237.433 198.274ZM227.242 192.177C225.593 192.016 224.126 193.222 223.965 194.871C223.804 196.521 225.011 197.988 226.66 198.149L227.242 192.177ZM214.655 195.761C216.239 196.244 217.916 195.351 218.399 193.767C218.883 192.182 217.99 190.505 216.405 190.022L214.655 195.761ZM206.223 185.756C204.768 184.964 202.946 185.503 202.155 186.958C201.363 188.414 201.902 190.236 203.358 191.027L206.223 185.756ZM193.242 184.107C194.506 185.178 196.399 185.02 197.47 183.756C198.541 182.491 198.383 180.598 197.119 179.528L193.242 184.107ZM188.243 176.496C187.507 177.985 186.698 179.436 185.82 180.844L190.912 184.018C191.893 182.444 192.798 180.822 193.622 179.155L188.243 176.496ZM179.763 188.745C177.505 191.169 175.01 193.39 172.313 195.372L175.865 200.207C178.863 198.004 181.639 195.534 184.154 192.833L179.763 188.745ZM163.758 200.515C160.788 201.948 157.66 203.125 154.405 204.017L155.989 209.803C159.598 208.815 163.068 207.509 166.365 205.919L163.758 200.515ZM144.565 205.78C142.918 205.925 141.248 205.999 139.559 205.999V211.999C141.424 211.999 143.27 211.917 145.092 211.756L144.565 205.78ZM139.559 205.999C137.695 205.999 135.855 205.909 134.041 205.732L133.46 211.704C135.466 211.899 137.501 211.999 139.559 211.999V205.999ZM123.234 203.589C119.673 202.506 116.273 201.078 113.077 199.347L110.219 204.622C113.767 206.544 117.54 208.129 121.489 209.329L123.234 203.589ZM103.987 193.152C101.169 190.776 98.6138 188.123 96.3683 185.239L91.6344 188.926C94.1392 192.142 96.9852 195.096 100.12 197.739L103.987 193.152ZM90.595 175.919C89.8077 174.274 89.1087 172.583 88.5036 170.851L82.8395 172.831C83.518 174.772 84.3013 176.667 85.1827 178.509L90.595 175.919ZM84.1933 169.23C83.1603 169.815 82.1051 170.368 81.0291 170.887L83.6371 176.291C84.8314 175.715 86.0028 175.101 87.1497 174.451L84.1933 169.23ZM74.4081 173.566C72.1669 174.307 69.8581 174.91 67.4926 175.365L68.6263 181.257C71.2467 180.753 73.806 180.084 76.2915 179.262L74.4081 173.566ZM60.398 176.265C59.2154 176.339 58.0219 176.377 56.8189 176.377V182.377C58.1473 182.377 59.4661 182.335 60.7738 182.253L60.398 176.265ZM56.8189 176.377C55.0688 176.377 53.3391 176.297 51.6333 176.141L51.0873 182.117C52.9744 182.289 54.8863 182.377 56.8189 182.377V176.377ZM41.4514 174.249C38.0875 173.292 34.8621 172.029 31.8102 170.494L29.1144 175.854C32.5021 177.558 36.0802 178.959 39.8097 180.02L41.4514 174.249ZM23.0574 164.99C20.3123 162.873 17.7903 160.503 15.5295 157.92L11.0143 161.871C13.5339 164.75 16.341 167.387 19.3924 169.741L23.0574 164.99ZM9.54475 149.524C7.84731 146.55 6.44892 143.399 5.3868 140.109L-0.322973 141.953C0.868263 145.642 2.43515 149.171 4.33356 152.498L9.54475 149.524ZM3.26536 130.047C3.08991 128.356 3 126.639 3 124.901H-3C-3 126.846 -2.89936 128.769 -2.70263 130.666L3.26536 130.047ZM3 124.901C3 123.434 3.0641 121.982 3.18967 120.547L-2.78749 120.024C-2.92825 121.633 -3 123.259 -3 124.901H3ZM4.70847 111.982C5.47136 109.159 6.47881 106.429 7.7085 103.814L2.27876 101.261C0.901711 104.189 -0.2279 107.25 -1.08379 110.417L4.70847 111.982ZM12.0823 96.2766C13.751 93.896 15.6227 91.6546 17.6745 89.5754L13.4039 85.3609C11.1193 87.676 9.03209 90.1748 7.16909 92.8327L12.0823 96.2766ZM24.3027 83.8801C25.4797 83.0252 26.6947 82.2154 27.945 81.4536L24.823 76.3298C23.4345 77.1759 22.0846 78.0755 20.7765 79.0256L24.3027 83.8801ZM29.3426 78.3953C29.2291 77.7189 29.1294 77.0381 29.0438 76.353L23.0901 77.0975C23.1862 77.8657 23.298 78.6294 23.4253 79.3881L29.3426 78.3953ZM28.7027 72.2385C28.6744 71.5535 28.6602 70.8649 28.6602 70.1729H22.6602C22.6602 70.9473 22.6761 71.7183 22.7077 72.4856L28.7027 72.2385ZM28.6602 70.1729C28.6602 68.4353 28.7501 66.7186 28.9255 65.0269L22.9575 64.408C22.7608 66.3049 22.6602 68.2281 22.6602 70.1729H28.6602ZM31.047 54.965C32.1091 51.6753 33.5075 48.5248 35.2049 45.5503L29.9937 42.5765C28.0953 45.9032 26.5284 49.4319 25.3372 53.1215L31.047 54.965ZM41.1896 37.1546C43.4505 34.5712 45.9724 32.2017 48.7175 30.0839L45.0525 25.3334C42.0012 27.6874 39.194 30.3241 36.6745 33.2032L41.1896 37.1546ZM57.4703 24.5804C60.5223 23.0455 63.7477 21.7826 67.1115 20.8257L65.4699 15.0546C61.7404 16.1155 58.1622 17.5164 54.7745 19.2201L57.4703 24.5804ZM77.2935 18.933C78.9992 18.7771 80.729 18.6973 82.479 18.6973V12.6973C80.5465 12.6973 78.6345 12.7854 76.7474 12.9579L77.2935 18.933ZM82.479 18.6973C84.2944 18.6973 86.088 18.7831 87.8556 18.9507L88.422 12.9775C86.4663 12.7921 84.4837 12.6973 82.479 12.6973V18.6973ZM98.401 20.9866C100.131 21.4981 101.823 22.0909 103.472 22.7601L105.728 17.2001C103.897 16.4576 102.021 15.8002 100.103 15.233L98.401 20.9866ZM106.875 21.936C108.148 20.4547 109.507 19.0421 110.945 17.7053L106.858 13.3121C105.259 14.7998 103.745 16.3729 102.325 18.0241L106.875 21.936ZM120.361 10.7006C123.707 8.73705 127.295 7.11335 131.074 5.88027L129.212 0.176371C125.022 1.54384 121.04 3.34539 117.325 5.52575L120.361 10.7006ZM142.575 3.439C144.508 3.23801 146.472 3.13477 148.462 3.13477V-2.86523C146.264 -2.86523 144.093 -2.75122 141.955 -2.52882L142.575 3.439ZM148.462 3.13477C150.396 3.13477 152.305 3.23221 154.184 3.42206L154.787 -2.54756C152.708 -2.75762 150.598 -2.86523 148.462 -2.86523V3.13477ZM165.378 5.72801C169.06 6.89306 172.565 8.42807 175.846 10.2866L178.803 5.06605C175.16 3.0025 171.271 1.29948 167.187 0.00752291L165.378 5.72801ZM185.123 16.9252C186.548 18.1941 187.901 19.5356 189.175 20.9435L193.624 16.918C192.205 15.3493 190.698 13.8557 189.113 12.444L185.123 16.9252ZM192.304 21.7912C193.659 21.3626 195.038 20.9842 196.439 20.6582L195.079 14.8143C193.527 15.1756 191.998 15.5951 190.495 16.0703L192.304 21.7912ZM204.916 19.3624C206.332 19.2556 207.763 19.2012 209.209 19.2012V13.2012C207.613 13.2012 206.031 13.2613 204.465 13.3794L204.916 19.3624ZM209.209 19.2012C210.655 19.2012 212.088 19.2557 213.505 19.3627L213.957 13.3797C212.39 13.2614 210.806 13.2012 209.209 13.2012V19.2012ZM221.99 20.661C224.809 21.3177 227.541 22.1868 230.166 23.2494L232.417 17.6877C229.505 16.5089 226.475 15.5452 223.351 14.8174L221.99 20.661ZM237.834 27.0787C239.063 27.8184 240.258 28.6042 241.417 29.4335L244.909 24.5543C243.621 23.6327 242.293 22.7598 240.929 21.9384L237.834 27.0787ZM244.945 29.407C246.119 28.5403 247.33 27.7188 248.578 26.9452L245.416 21.8458C244.031 22.7049 242.684 23.6176 241.38 24.5809L244.945 29.407ZM256.383 22.9382C259.06 21.8257 261.85 20.9152 264.732 20.227L263.339 14.391C260.144 15.1538 257.05 16.1633 254.08 17.3976L256.383 22.9382ZM273.412 18.8665C274.862 18.7544 276.329 18.6973 277.81 18.6973V12.6973C276.174 12.6973 274.553 12.7604 272.95 12.8844L273.412 18.8665ZM277.81 18.6973C279.56 18.6973 281.29 18.7771 282.996 18.933L283.542 12.9579C281.655 12.7854 279.743 12.6973 277.81 12.6973V18.6973ZM293.178 20.8257C296.541 21.7826 299.767 23.0455 302.819 24.5804L305.515 19.2201C302.127 17.5164 298.549 16.1155 294.819 15.0546L293.178 20.8257ZM311.572 30.0839C314.317 32.2017 316.839 34.5712 319.099 37.1546L323.615 33.2032C321.095 30.3241 318.288 27.6874 315.237 25.3333L311.572 30.0839ZM325.084 45.5503C326.782 48.5248 328.18 51.6753 329.242 54.965L334.952 53.1215C333.761 49.4319 332.194 45.9032 330.295 42.5765L325.084 45.5503ZM331.364 65.0269C331.539 66.7186 331.629 68.4353 331.629 70.1729H337.629C337.629 68.2281 337.528 66.3049 337.332 64.408L331.364 65.0269ZM331.629 70.1729C331.629 70.7598 331.619 71.3443 331.598 71.9261L337.595 72.1357C337.617 71.484 337.629 70.8297 337.629 70.1729H331.629ZM331.353 75.4221C331.291 76.0046 331.219 76.5842 331.138 77.1607L337.078 78.0033C337.17 77.3566 337.25 76.7066 337.319 76.0535L331.353 75.4221ZM332.618 80.1861C333.926 80.9341 335.198 81.7337 336.431 82.5817L339.832 77.6386C338.462 76.6964 337.049 75.8084 335.597 74.9778L332.618 80.1861ZM343.385 88.2793C345.542 90.3737 347.511 92.6429 349.269 95.0617L354.123 91.5349C352.161 88.8352 349.966 86.3062 347.565 83.9748L343.385 88.2793ZM353.882 102.748C355.181 105.423 356.246 108.221 357.052 111.119L362.833 109.51C361.928 106.259 360.734 103.122 359.28 100.128L353.882 102.748ZM358.659 119.921C358.792 121.396 358.86 122.89 358.86 124.399H364.86C364.86 122.71 364.784 121.037 364.635 119.383L358.659 119.921ZM358.86 124.399C358.86 126.137 358.77 127.854 358.595 129.545L364.563 130.164C364.759 128.268 364.86 126.344 364.86 124.399H358.86ZM356.473 139.607C355.411 142.897 354.013 146.048 352.315 149.022L357.526 151.996C359.425 148.669 360.992 145.141 362.183 141.451L356.473 139.607ZM346.33 157.418C344.07 160.001 341.548 162.371 338.803 164.488L342.467 169.239C345.519 166.885 348.326 164.248 350.846 161.369L346.33 157.418ZM330.05 169.992C326.998 171.527 323.772 172.79 320.409 173.747L322.05 179.518C325.78 178.457 329.358 177.056 332.746 175.352L330.05 169.992ZM310.227 175.639C308.521 175.795 306.791 175.875 305.041 175.875V181.875C306.974 181.875 308.885 181.787 310.773 181.615L310.227 175.639ZM305.041 175.875C302.868 175.875 300.727 175.752 298.624 175.513L297.947 181.475C300.274 181.739 302.642 181.875 305.041 181.875V175.875ZM286.141 172.612C284.113 171.884 282.143 171.043 280.24 170.096L277.567 175.468C279.68 176.519 281.865 177.452 284.114 178.259L286.141 172.612ZM276.506 170.98C275.666 172.097 274.78 173.182 273.851 174.23L278.342 178.209C279.377 177.041 280.365 175.831 281.302 174.584L276.506 170.98ZM267.801 180.052C265.646 181.821 263.342 183.43 260.909 184.86L263.95 190.033C266.651 188.445 269.211 186.657 271.608 184.69L267.801 180.052ZM253.352 188.549C250.77 189.572 248.085 190.409 245.317 191.041L246.652 196.89C249.72 196.19 252.697 195.263 255.562 194.128L253.352 188.549ZM236.99 192.29C235.6 192.393 234.194 192.446 232.775 192.446V198.446C234.342 198.446 235.895 198.388 237.433 198.274L236.99 192.29ZM232.775 192.446C230.906 192.446 229.06 192.355 227.242 192.177L226.66 198.149C228.671 198.345 230.711 198.446 232.775 198.446V192.446ZM216.405 190.022C212.834 188.933 209.426 187.497 206.223 185.756L203.358 191.027C206.913 192.96 210.695 194.553 214.655 195.761L216.405 190.022ZM197.119 179.528C195.711 178.335 194.368 177.074 193.098 175.749L188.767 179.901C190.182 181.377 191.676 182.781 193.242 184.107L197.119 179.528Z" fill="#247158" mask="url(#path-1-inside-1_362_988)"/>
</svg>
