<svg width="97" height="27" viewBox="0 0 97 27" fill="none" xmlns="http://www.w3.org/2000/svg">
<path d="M2.6235 3.12L2.0475 2.32V2.16C2.6555 2.064 5.4395 1.904 6.0155 1.904C6.3035 1.904 6.5915 2.128 6.8795 2.48C7.9355 3.952 10.5595 7.952 12.8635 11.504C14.2715 13.776 15.4555 15.536 16.2555 17.168C16.0315 14.736 16.0635 13.488 16.0635 11.856V2.928C16.0635 2.192 16.2875 2.064 16.7675 2.032C17.6635 1.936 18.6875 1.904 19.3595 1.904C19.2955 3.28 19.2635 5.136 19.2635 7.792V21.872C18.9755 22 17.1195 22.384 16.1915 22.384C15.8075 22.384 15.6155 22.288 15.3915 21.968C13.7595 19.632 12.0955 17.136 9.5995 13.232C7.8715 10.544 6.9435 8.784 5.6635 6.32C5.8235 9.552 5.8235 11.184 5.8235 12.816V21.2C5.8235 21.872 5.6315 21.968 5.0875 22.064C4.5435 22.16 3.4875 22.224 2.5275 22.192C2.5915 20.912 2.6235 19.056 2.6235 16.368V3.12ZM29.805 7.536C34.445 7.536 36.845 10.8 36.845 14.768C36.845 19.248 33.933 22.384 29.485 22.384C25.357 22.384 22.413 19.632 22.413 15.088C22.413 10.704 25.517 7.536 29.805 7.536ZM29.485 9.872C27.533 9.872 26.477 11.888 26.477 14.672C26.477 18.32 28.013 20.016 29.837 20.016C31.789 20.016 32.813 18.064 32.813 15.12C32.813 12.4 31.853 9.872 29.485 9.872ZM38.9967 9.296V9.168C39.2527 8.432 40.4687 7.536 41.3647 7.536C42.7727 7.536 43.3487 8.848 43.3487 10.832C44.3087 8.656 45.6527 7.536 47.3167 7.536C48.1167 7.536 48.8207 7.92 49.1087 8.272C49.1087 8.944 48.8207 10.224 48.2447 10.96C47.9887 11.312 47.6047 11.472 47.1247 11.312C46.6447 11.152 46.3247 11.12 45.8767 11.12C45.3647 11.12 44.4367 11.504 43.8927 12.848C43.7007 13.36 43.6367 13.744 43.6367 14.448V21.168C43.6367 21.68 43.5407 21.936 42.9007 22.032C41.7807 22.16 40.8207 22.192 39.6367 22.192C39.7327 20.496 39.7327 18.544 39.7327 16.368V10.96C39.7327 10.224 39.5407 9.616 38.9967 9.296ZM55.0842 11.664V21.168C55.0842 21.744 54.9882 21.936 54.3482 22.032C53.2282 22.16 52.2682 22.192 51.0842 22.192C51.1482 20.496 51.1802 18.544 51.1802 16.368V10.992C51.1802 10.128 51.0522 9.648 50.6042 9.328V9.136C50.9242 8.336 52.0442 7.536 52.9402 7.536C54.3162 7.536 54.6682 8.688 54.8602 9.68C56.1722 8.592 57.8682 7.536 59.5322 7.536C61.6122 7.536 62.7322 8.528 63.4042 9.872C64.6522 8.72 66.5402 7.536 68.3002 7.536C71.9162 7.536 72.8762 10.64 72.8762 13.072V17.424C72.8762 19.088 72.9402 20.848 73.0042 21.936C72.2682 22 70.9562 22.192 69.6122 22.192C69.1962 22.192 69.0042 22 69.0042 21.584V13.36C69.0042 11.568 68.1722 10.448 66.6042 10.448C65.4842 10.448 64.6522 11.056 63.9802 11.664V21.2C63.9802 21.776 63.9162 21.936 63.2442 22.032C62.1242 22.192 61.1322 22.192 60.0122 22.192C60.0762 20.496 60.1082 18.544 60.1082 16.368V13.36C60.1082 11.536 59.2442 10.448 57.7402 10.448C56.7162 10.448 55.7882 10.992 55.0842 11.664ZM88.4342 19.568V19.664C88.4663 21.392 87.5702 22.384 85.7463 22.384C84.4342 22.384 83.5702 21.68 83.1543 20.592C82.3222 21.488 80.9142 22.384 79.3782 22.384C77.2662 22.384 75.4102 20.784 75.4102 18.416C75.4102 15.12 79.2502 14.224 81.4902 13.712C82.0662 13.584 82.7382 13.488 83.1222 13.392V12.848C83.1543 11.504 82.2262 10.416 80.6262 10.416C79.5062 10.416 78.3862 10.928 77.6502 11.344C76.3382 11.728 75.8902 10.576 75.8902 9.616C77.2342 8.624 79.5062 7.536 81.6502 7.536C84.5302 7.536 86.8663 9.424 86.8663 12.944C86.8663 14.256 86.7382 16.688 86.7382 18.768C86.7382 19.184 87.1543 19.6 87.8903 19.6C88.0503 19.6 88.2743 19.6 88.4342 19.568ZM79.0902 17.84C79.0902 18.96 79.9542 19.632 80.9782 19.632C81.8422 19.632 82.3862 19.248 82.8022 18.8C82.9942 18.576 83.0903 18.256 83.0903 17.712V15.408C80.3062 15.76 79.0902 16.784 79.0902 17.84ZM90.8535 21.84V4.272C90.8535 2.384 90.7895 1.52 90.7255 0.879999C91.3655 0.591999 93.4455 0.303999 94.1175 0.303999C94.5975 0.303999 94.7255 0.463999 94.7255 2.384V17.776C94.7255 19.344 94.7895 21.072 94.8535 22C94.1815 22.16 91.7175 22.256 91.3015 22.256C90.9815 22.256 90.8535 22.16 90.8535 21.84Z" fill="#2F54B5"/>
<path d="M0.287498 25.2H96.7095V26.8H0.287498V25.2Z" fill="#2F54B5"/>
</svg>
