<svg width="435" height="251" viewBox="0 0 435 251" fill="none" xmlns="http://www.w3.org/2000/svg">
<mask id="path-1-inside-1_362_979" fill="white">
<path fill-rule="evenodd" clip-rule="evenodd" d="M279.733 234.712C259.838 234.712 241.93 226.554 229.451 213.537C218.503 235.684 194.974 251 167.713 251C137.591 251 112.024 232.298 102.954 206.345C92.7917 212.099 80.9387 215.401 68.2812 215.401C30.5706 215.401 0 186.092 0 149.936C0 126.681 12.647 106.258 31.7065 94.6446C31.1343 91.2335 30.8369 87.7343 30.8369 84.1685C30.8369 48.013 61.4075 18.7031 99.1182 18.7031C108.548 18.7031 117.531 20.5357 125.701 23.8495C138.224 9.28496 157.188 0 178.413 0C199.018 0 217.493 8.75123 230.012 22.5887C236.743 20.4604 243.938 19.3088 251.413 19.3088C266.711 19.3088 280.834 24.132 292.217 32.279C303.742 23.766 318.181 18.7031 333.854 18.7031C371.565 18.7031 402.136 48.013 402.136 84.1685C402.136 87.1879 401.923 90.1596 401.51 93.0705C421.482 104.494 434.86 125.415 434.86 149.333C434.86 185.488 404.289 214.798 366.579 214.798C355.253 214.798 344.572 212.154 335.169 207.476C322.771 223.972 302.561 234.712 279.733 234.712Z"/>
</mask>
<path d="M229.451 213.537L230.533 212.499C230.195 212.146 229.706 211.98 229.222 212.054C228.739 212.129 228.322 212.434 228.106 212.872L229.451 213.537ZM102.954 206.345L104.37 205.85C104.224 205.43 103.898 205.097 103.482 204.941C103.066 204.784 102.602 204.821 102.215 205.04L102.954 206.345ZM31.7065 94.6446L32.487 95.9255C33.0105 95.6065 33.2872 95.001 33.1858 94.3964L31.7065 94.6446ZM125.701 23.8495L125.137 25.2396C125.734 25.4816 126.418 25.3158 126.838 24.8275L125.701 23.8495ZM230.012 22.5887L228.9 23.5951C229.293 24.0302 229.905 24.1958 230.464 24.0189L230.012 22.5887ZM292.217 32.279L291.344 33.4988C291.873 33.8772 292.586 33.8718 293.109 33.4855L292.217 32.279ZM401.51 93.0705L400.025 92.8599C399.938 93.4682 400.232 94.0676 400.765 94.3726L401.51 93.0705ZM335.169 207.476L335.837 206.133C335.19 205.811 334.405 205.996 333.97 206.575L335.169 207.476ZM225.896 216.954C225.475 217.668 225.713 218.588 226.426 219.008C227.14 219.429 228.059 219.192 228.48 218.479L225.896 216.954ZM222.947 226.466C223.466 225.821 223.365 224.876 222.72 224.356C222.075 223.837 221.13 223.938 220.611 224.583L222.947 226.466ZM214.283 231.38C213.677 231.945 213.644 232.894 214.209 233.5C214.774 234.106 215.723 234.139 216.329 233.574L214.283 231.38ZM208.781 239.681C209.46 239.206 209.625 238.271 209.15 237.592C208.675 236.913 207.74 236.748 207.061 237.223L208.781 239.681ZM199.097 242.011C198.36 242.388 198.067 243.291 198.444 244.029C198.821 244.767 199.725 245.059 200.462 244.682L199.097 242.011ZM191.538 248.495C192.32 248.222 192.733 247.367 192.461 246.585C192.188 245.803 191.333 245.39 190.551 245.662L191.538 248.495ZM181.585 248.118C180.773 248.283 180.248 249.074 180.412 249.886C180.576 250.698 181.368 251.223 182.179 251.059L181.585 248.118ZM172.563 252.341C173.39 252.286 174.016 251.572 173.961 250.745C173.907 249.919 173.193 249.293 172.366 249.347L172.563 252.341ZM162.584 249.314C161.758 249.254 161.039 249.875 160.979 250.701C160.919 251.527 161.54 252.246 162.366 252.306L162.584 249.314ZM151.785 250.747C152.593 250.928 153.396 250.42 153.577 249.611C153.758 248.803 153.249 248.001 152.441 247.82L151.785 250.747ZM142.636 244.837C141.864 244.537 140.995 244.92 140.695 245.693C140.395 246.465 140.778 247.334 141.55 247.634L142.636 244.837ZM131.898 243.018C132.616 243.431 133.533 243.184 133.946 242.466C134.359 241.747 134.111 240.831 133.393 240.418L131.898 243.018ZM124.928 234.65C124.281 234.132 123.338 234.237 122.82 234.884C122.302 235.531 122.407 236.474 123.054 236.992L124.928 234.65ZM115.238 229.677C115.797 230.289 116.746 230.331 117.357 229.772C117.969 229.213 118.011 228.265 117.452 227.653L115.238 229.677ZM111.166 219.578C110.711 218.886 109.78 218.694 109.088 219.149C108.396 219.604 108.204 220.534 108.659 221.226L111.166 219.578ZM103.516 211.826C103.853 212.583 104.74 212.923 105.496 212.586C106.253 212.249 106.594 211.363 106.257 210.606L103.516 211.826ZM98.2905 207.095C97.5444 207.455 97.2315 208.352 97.5916 209.098C97.9517 209.844 98.8484 210.157 99.5945 209.797L98.2905 207.095ZM91.0213 213.265C91.8079 213.005 92.2347 212.156 91.9747 211.37C91.7146 210.583 90.8662 210.156 90.0796 210.417L91.0213 213.265ZM81.506 212.648C80.6925 212.804 80.1599 213.59 80.3164 214.404C80.4729 215.217 81.2593 215.75 82.0728 215.593L81.506 212.648ZM72.9021 216.757C73.7289 216.705 74.3571 215.993 74.3052 215.166C74.2534 214.339 73.541 213.711 72.7142 213.763L72.9021 216.757ZM63.137 213.714C62.3107 213.654 61.5921 214.275 61.5318 215.101C61.4715 215.928 62.0925 216.646 62.9187 216.707L63.137 213.714ZM52.3156 215.14C53.1239 215.322 53.9263 214.814 54.1079 214.005C54.2894 213.197 53.7814 212.395 52.9731 212.213L52.3156 215.14ZM43.1491 209.217C42.3772 208.917 41.5077 209.299 41.2071 210.071C40.9065 210.843 41.2887 211.712 42.0607 212.013L43.1491 209.217ZM32.3916 207.377C33.1092 207.791 34.0265 207.545 34.4403 206.827C34.8541 206.109 34.6078 205.192 33.8901 204.778L32.3916 207.377ZM25.4139 198.985C24.7678 198.467 23.8237 198.57 23.3051 199.216C22.7866 199.862 22.8899 200.806 23.5359 201.325L25.4139 198.985ZM15.7147 193.979C16.2724 194.592 17.2211 194.636 17.8337 194.078C18.4462 193.521 18.4906 192.572 17.9329 191.959L15.7147 193.979ZM11.65 183.852C11.1965 183.159 10.2669 182.965 9.5736 183.418C8.88035 183.872 8.68602 184.801 9.13955 185.495L11.65 183.852ZM4.0092 176.059C4.34403 176.817 5.22974 177.16 5.98748 176.825C6.74523 176.49 7.08808 175.604 6.75325 174.847L4.0092 176.059ZM3.40413 165.166C3.19945 164.363 2.38277 163.878 1.58003 164.083C0.777287 164.287 0.292462 165.104 0.497144 165.907L3.40413 165.166ZM-1.27838 155.311C-1.21002 156.137 -0.485332 156.751 0.340271 156.683C1.16587 156.614 1.77975 155.89 1.7114 155.064L-1.27838 155.311ZM1.73594 144.52C1.80816 143.695 1.1977 142.967 0.372422 142.895C-0.452851 142.823 -1.18041 143.433 -1.25263 144.258L1.73594 144.52ZM0.729881 133.079C0.513781 133.879 0.986918 134.702 1.78666 134.918C2.58641 135.134 3.40991 134.661 3.62601 133.862L0.729881 133.079ZM7.35844 123.698C7.71094 122.948 7.38895 122.055 6.63926 121.702C5.88957 121.35 4.99607 121.672 4.64357 122.422L7.35844 123.698ZM10.3392 112.606C9.86373 113.285 10.0282 114.22 10.7066 114.696C11.385 115.171 12.3204 115.007 12.7959 114.328L10.3392 112.606ZM19.7416 106.005C20.3235 105.415 20.3172 104.465 19.7276 103.884C19.1379 103.302 18.1882 103.308 17.6063 103.898L19.7416 106.005ZM26.205 96.5088C25.5348 96.9956 25.3861 97.9336 25.8729 98.6039C26.3598 99.2742 27.2978 99.4229 27.9681 98.936L26.205 96.5088ZM32.814 91.8553C32.7113 91.0333 31.9616 90.4502 31.1395 90.553C30.3175 90.6558 29.7344 91.4055 29.8372 92.2275L32.814 91.8553ZM29.3923 86.8606C29.4264 87.6883 30.1251 88.3316 30.9528 88.2975C31.7805 88.2634 32.4239 87.5648 32.3898 86.737L29.3923 86.8606ZM32.5483 79.0406C32.6167 78.215 32.0028 77.4903 31.1772 77.4219C30.3516 77.3536 29.6269 77.9675 29.5585 78.7931L32.5483 79.0406ZM31.3341 68.1977C31.1294 69.0005 31.6142 69.8172 32.4169 70.0218C33.2197 70.2265 34.0364 69.7417 34.241 68.9389L31.3341 68.1977ZM37.5902 59.2579C37.925 58.5002 37.5821 57.6145 36.8244 57.2796C36.0666 56.9448 35.1809 57.2876 34.8461 58.0454L37.5902 59.2579ZM39.9765 48.6099C39.5229 49.3032 39.7173 50.2328 40.4105 50.6863C41.1038 51.1399 42.0334 50.9455 42.4869 50.2523L39.9765 48.6099ZM48.7698 42.1452C49.3275 41.5326 49.2831 40.5839 48.6706 40.0262C48.058 39.4684 47.1093 39.5129 46.5516 40.1254L48.7698 42.1452ZM54.3728 32.7798C53.7268 33.2984 53.6235 34.2425 54.142 34.8886C54.6606 35.5346 55.6047 35.6379 56.2508 35.1194L54.3728 32.7798ZM64.727 29.3261C65.4447 28.9123 65.691 27.9951 65.2772 27.2774C64.8634 26.5597 63.9462 26.3134 63.2285 26.7272L64.727 29.3261ZM72.8976 22.0915C72.1256 22.3921 71.7435 23.2616 72.044 24.0336C72.3446 24.8055 73.2141 25.1877 73.9861 24.8871L72.8976 22.0915ZM83.81 21.8913C84.6183 21.7097 85.1263 20.9073 84.9448 20.099C84.7632 19.2907 83.9608 18.7827 83.1525 18.9642L83.81 21.8913ZM93.7556 17.398C92.9294 17.4583 92.3085 18.1769 92.3687 19.0031C92.429 19.8294 93.1477 20.4503 93.9739 20.39L93.7556 17.398ZM105.778 20.5171C106.603 20.5953 107.335 19.9901 107.413 19.1654C107.491 18.3407 106.886 17.6087 106.061 17.5305L105.778 20.5171ZM119.7 20.1637C118.905 19.9287 118.071 20.3822 117.836 21.1766C117.601 21.971 118.054 22.8055 118.849 23.0405L119.7 20.1637ZM130.142 21.2627C130.728 20.6764 130.727 19.7267 130.141 19.1414C129.554 18.5561 128.605 18.5568 128.019 19.1431L130.142 21.2627ZM135.705 12.5018C135.041 12.9961 134.902 13.9358 135.397 14.6005C135.891 15.2653 136.831 15.4034 137.496 14.9091L135.705 12.5018ZM145.696 9.68883C146.425 9.29558 146.697 8.3857 146.304 7.65656C145.911 6.92742 145.001 6.65513 144.272 7.04838L145.696 9.68883ZM153.532 2.88227C152.754 3.16722 152.354 4.02882 152.639 4.8067C152.924 5.58457 153.786 5.98416 154.564 5.6992L153.532 2.88227ZM163.91 3.0123C164.72 2.84043 165.238 2.04413 165.066 1.23373C164.894 0.423331 164.098 -0.0942991 163.287 0.0775742L163.91 3.0123ZM173.338 -1.32561C172.512 -1.2686 171.888 -0.5524 171.945 0.274063C172.002 1.10053 172.718 1.72429 173.545 1.66728L173.338 -1.32561ZM183.143 1.65797C183.97 1.71337 184.685 1.0882 184.74 0.261629C184.796 -0.564944 184.171 -1.27992 183.344 -1.33532L183.143 1.65797ZM193.117 -0.0102441C192.306 -0.177275 191.513 0.3451 191.346 1.15651C191.179 1.96793 191.701 2.76111 192.512 2.92814L193.117 -0.0102441ZM201.617 5.46666C202.397 5.74378 203.255 5.33555 203.532 4.55484C203.809 3.77414 203.401 2.91661 202.62 2.63949L201.617 5.46666ZM211.668 6.57898C210.933 6.19612 210.027 6.48131 209.644 7.21596C209.261 7.95061 209.547 8.85653 210.281 9.23939L211.668 6.57898ZM218.333 14.1823C219.007 14.6643 219.944 14.5089 220.426 13.8351C220.908 13.1613 220.752 12.2244 220.079 11.7424L218.333 14.1823ZM227.68 18.0409C227.081 17.4683 226.132 17.4893 225.559 18.0879C224.986 18.6864 225.007 19.636 225.606 20.2087L227.68 18.0409ZM235.591 22.6143C236.398 22.4266 236.9 21.6203 236.712 20.8134C236.525 20.0065 235.718 19.5046 234.912 19.6924L235.591 22.6143ZM245.871 18.0169C245.045 18.0792 244.426 18.7994 244.488 19.6255C244.551 20.4516 245.271 21.0707 246.097 21.0084L245.871 18.0169ZM256.735 21.0088C257.561 21.0712 258.281 20.4521 258.343 19.626C258.406 18.7999 257.787 18.0797 256.961 18.0174L256.735 21.0088ZM267.931 19.6962C267.124 19.5082 266.318 20.01 266.13 20.8168C265.942 21.6236 266.443 22.43 267.25 22.618L267.931 19.6962ZM277.388 25.8275C278.156 26.1383 279.031 25.7678 279.341 24.9999C279.652 24.232 279.282 23.3575 278.514 23.0467L277.388 25.8275ZM288.447 28.0071C287.737 27.5798 286.815 27.8088 286.388 28.5185C285.961 29.2282 286.19 30.15 286.9 30.5773L288.447 28.0071ZM297.616 30.4312C298.32 29.9947 298.537 29.07 298.1 28.3659C297.664 27.6618 296.739 27.445 296.035 27.8815L297.616 30.4312ZM306.145 22.6906C305.38 23.0085 305.018 23.8864 305.336 24.6514C305.654 25.4164 306.532 25.7788 307.297 25.4609L306.145 22.6906ZM317.649 22.0991C318.455 21.9067 318.953 21.0975 318.76 20.2917C318.568 19.486 317.759 18.9887 316.953 19.1811L317.649 22.0991ZM328.176 17.4217C327.35 17.4856 326.732 18.2069 326.796 19.0329C326.86 19.8588 327.581 20.4766 328.407 20.4128L328.176 17.4217ZM338.999 20.39C339.825 20.4503 340.544 19.8294 340.604 19.0031C340.664 18.1769 340.043 17.4583 339.217 17.398L338.999 20.39ZM349.82 18.9642C349.012 18.7827 348.209 19.2907 348.028 20.099C347.846 20.9073 348.354 21.7097 349.163 21.8913L349.82 18.9642ZM358.987 24.8871C359.759 25.1877 360.628 24.8055 360.929 24.0336C361.229 23.2616 360.847 22.3921 360.075 22.0915L358.987 24.8871ZM369.744 26.7272C369.026 26.3134 368.109 26.5597 367.695 27.2774C367.282 27.9951 367.528 28.9123 368.246 29.3261L369.744 26.7272ZM376.722 35.1194C377.368 35.6379 378.312 35.5346 378.831 34.8886C379.349 34.2425 379.246 33.2984 378.6 32.7798L376.722 35.1194ZM386.421 40.1254C385.863 39.5129 384.915 39.4684 384.302 40.0262C383.69 40.5839 383.645 41.5326 384.203 42.1452L386.421 40.1254ZM390.486 50.2523C390.939 50.9455 391.869 51.1399 392.562 50.6863C393.255 50.2328 393.45 49.3032 392.996 48.6099L390.486 50.2523ZM398.127 58.0454C397.792 57.2876 396.906 56.9448 396.148 57.2796C395.391 57.6145 395.048 58.5002 395.383 59.2579L398.127 58.0454ZM398.732 68.9389C398.936 69.7417 399.753 70.2265 400.556 70.0218C401.358 69.8171 401.843 69.0005 401.639 68.1977L398.732 68.9389ZM403.414 78.7931C403.346 77.9675 402.621 77.3536 401.795 77.4219C400.97 77.4903 400.356 78.215 400.424 79.0406L403.414 78.7931ZM400.598 86.3485C400.569 87.1764 401.216 87.871 402.044 87.9C402.872 87.9289 403.567 87.2812 403.596 86.4533L400.598 86.3485ZM403.276 91.0125C403.363 90.1887 402.766 89.4502 401.942 89.363C401.118 89.2759 400.379 89.873 400.292 90.6969L403.276 91.0125ZM405.494 97.3446C406.177 97.8141 407.111 97.6415 407.58 96.959C408.05 96.2765 407.877 95.3426 407.195 94.873L405.494 97.3446ZM416.214 102.263C415.62 101.686 414.671 101.7 414.093 102.294C413.516 102.889 413.53 103.838 414.125 104.416L416.214 102.263ZM421.432 112.839C421.919 113.509 422.857 113.658 423.527 113.171C424.197 112.684 424.346 111.746 423.859 111.076L421.432 112.839ZM429.865 121.084C429.504 120.338 428.606 120.028 427.861 120.389C427.116 120.751 426.805 121.649 427.167 122.394L429.865 121.084ZM431.111 132.809C431.333 133.607 432.16 134.074 432.958 133.852C433.756 133.629 434.223 132.802 434.001 132.004L431.111 132.809ZM436.098 143.493C436.024 142.667 435.295 142.059 434.47 142.133C433.645 142.207 433.036 142.936 433.11 143.762L436.098 143.493ZM433.148 154.46C433.08 155.286 433.694 156.011 434.52 156.079C435.345 156.147 436.07 155.534 436.138 154.708L433.148 154.46ZM434.363 165.303C434.567 164.501 434.083 163.684 433.28 163.479C432.477 163.274 431.66 163.759 431.456 164.562L434.363 165.303ZM428.107 174.243C427.772 175.001 428.115 175.887 428.872 176.221C429.63 176.556 430.516 176.213 430.851 175.456L428.107 174.243ZM425.72 184.891C426.174 184.198 425.98 183.268 425.286 182.815C424.593 182.361 423.663 182.555 423.21 183.249L425.72 184.891ZM416.927 191.356C416.369 191.968 416.414 192.917 417.026 193.475C417.639 194.033 418.587 193.988 419.145 193.376L416.927 191.356ZM411.324 200.721C411.97 200.203 412.073 199.258 411.555 198.612C411.036 197.966 410.092 197.863 409.446 198.382L411.324 200.721ZM400.97 204.175C400.252 204.589 400.006 205.506 400.42 206.224C400.833 206.941 401.751 207.188 402.468 206.774L400.97 204.175ZM392.799 211.409C393.571 211.109 393.953 210.239 393.653 209.467C393.352 208.695 392.483 208.313 391.711 208.614L392.799 211.409ZM381.887 211.61C381.078 211.791 380.57 212.594 380.752 213.402C380.934 214.21 381.736 214.718 382.544 214.537L381.887 211.61ZM371.941 216.103C372.767 216.043 373.388 215.324 373.328 214.498C373.268 213.672 372.549 213.051 371.723 213.111L371.941 216.103ZM362.597 213.186C361.77 213.14 361.062 213.772 361.015 214.599C360.969 215.427 361.602 216.135 362.429 216.181L362.597 213.186ZM354.18 215.244C354.996 215.384 355.772 214.836 355.912 214.02C356.053 213.203 355.505 212.428 354.689 212.287L354.18 215.244ZM346.938 210.487C346.143 210.253 345.309 210.708 345.075 211.502C344.842 212.297 345.296 213.131 346.091 213.365L346.938 210.487ZM338.274 210.56C339.036 210.884 339.917 210.53 340.242 209.768C340.567 209.006 340.212 208.125 339.45 207.8L338.274 210.56ZM330.672 210.612C330.123 211.232 330.18 212.18 330.8 212.73C331.42 213.279 332.368 213.222 332.918 212.602L330.672 210.612ZM325.066 220.159C325.706 219.633 325.799 218.688 325.274 218.048C324.748 217.407 323.803 217.314 323.163 217.84L325.066 220.159ZM314.611 223.806C313.897 224.225 313.658 225.145 314.078 225.859C314.498 226.573 315.417 226.812 316.131 226.392L314.611 223.806ZM306.343 231.171C307.113 230.866 307.49 229.994 307.185 229.224C306.88 228.453 306.008 228.076 305.238 228.382L306.343 231.171ZM295.275 231.471C294.467 231.655 293.962 232.459 294.146 233.267C294.331 234.075 295.135 234.58 295.943 234.396L295.275 231.471ZM285.177 236.011C286.003 235.95 286.623 235.231 286.562 234.404C286.501 233.578 285.781 232.958 284.955 233.019L285.177 236.011ZM275.16 233.064C274.333 233.011 273.62 233.638 273.566 234.464C273.513 235.291 274.139 236.005 274.966 236.058L275.16 233.064ZM265.512 234.82C266.325 234.981 267.114 234.454 267.276 233.641C267.437 232.829 266.909 232.039 266.097 231.878L265.512 234.82ZM257.273 229.504C256.489 229.236 255.636 229.654 255.368 230.438C255.1 231.222 255.518 232.075 256.302 232.343L257.273 229.504ZM247.504 228.657C248.244 229.028 249.145 228.728 249.516 227.987C249.887 227.246 249.587 226.345 248.846 225.974L247.504 228.657ZM240.974 221.342C240.29 220.874 239.357 221.05 238.889 221.733C238.422 222.417 238.597 223.351 239.281 223.818L240.974 221.342ZM231.79 217.905C232.404 218.462 233.352 218.416 233.909 217.803C234.466 217.189 234.42 216.241 233.807 215.684L231.79 217.905ZM228.106 212.872C227.419 214.261 226.682 215.622 225.896 216.954L228.48 218.479C229.303 217.084 230.076 215.657 230.795 214.202L228.106 212.872ZM220.611 224.583C218.671 226.99 216.556 229.262 214.283 231.38L216.329 233.574C218.705 231.36 220.917 228.984 222.947 226.466L220.611 224.583ZM207.061 237.223C204.535 238.99 201.875 240.591 199.097 242.011L200.462 244.682C203.363 243.2 206.142 241.527 208.781 239.681L207.061 237.223ZM190.551 245.662C187.651 246.673 184.657 247.497 181.585 248.118L182.179 251.059C185.385 250.41 188.51 249.55 191.538 248.495L190.551 245.662ZM172.366 249.347C170.829 249.448 169.278 249.5 167.713 249.5V252.5C169.343 252.5 170.961 252.446 172.563 252.341L172.366 249.347ZM167.713 249.5C165.987 249.5 164.277 249.437 162.584 249.314L162.366 252.306C164.131 252.434 165.915 252.5 167.713 252.5V249.5ZM152.441 247.82C149.067 247.064 145.792 246.063 142.636 244.837L141.55 247.634C144.845 248.913 148.264 249.958 151.785 250.747L152.441 247.82ZM133.393 240.418C130.412 238.704 127.583 236.773 124.928 234.65L123.054 236.992C125.828 239.212 128.784 241.228 131.898 243.018L133.393 240.418ZM117.452 227.653C115.144 225.128 113.04 222.429 111.166 219.578L108.659 221.226C110.622 224.211 112.824 227.037 115.238 229.677L117.452 227.653ZM106.257 210.606C105.564 209.051 104.935 207.465 104.37 205.85L101.538 206.84C102.13 208.533 102.79 210.196 103.516 211.826L106.257 210.606ZM102.215 205.04C100.934 205.765 99.625 206.451 98.2905 207.095L99.5945 209.797C100.988 209.124 102.355 208.408 103.693 207.65L102.215 205.04ZM90.0796 210.417C87.3005 211.335 84.4381 212.083 81.506 212.648L82.0728 215.593C85.1324 215.005 88.1201 214.224 91.0213 213.265L90.0796 210.417ZM72.7142 213.763C71.2492 213.855 69.771 213.901 68.2812 213.901V216.901C69.8337 216.901 71.3745 216.853 72.9021 216.757L72.7142 213.763ZM68.2812 213.901C66.5501 213.901 64.8345 213.838 63.137 213.714L62.9187 216.707C64.6888 216.836 66.4772 216.901 68.2812 216.901V213.901ZM52.9731 212.213C49.592 211.454 46.3101 210.448 43.1491 209.217L42.0607 212.013C45.3611 213.298 48.7869 214.348 52.3156 215.14L52.9731 212.213ZM33.8901 204.778C30.9045 203.057 28.0711 201.118 25.4139 198.985L23.5359 201.325C26.3129 203.554 29.2731 205.579 32.3916 207.377L33.8901 204.778ZM17.9329 191.959C15.6247 189.424 13.5222 186.714 11.65 183.852L9.13955 185.495C11.0999 188.491 13.3004 191.328 15.7147 193.979L17.9329 191.959ZM6.75325 174.847C5.3793 171.737 4.25499 168.503 3.40413 165.166L0.497144 165.907C1.38969 169.407 2.56886 172.799 4.0092 176.059L6.75325 174.847ZM1.7114 155.064C1.57137 153.373 1.5 151.662 1.5 149.936H-1.5C-1.5 151.745 -1.42521 153.538 -1.27838 155.311L1.7114 155.064ZM1.5 149.936C1.5 148.111 1.57972 146.305 1.73594 144.52L-1.25263 144.258C-1.41646 146.13 -1.5 148.024 -1.5 149.936H1.5ZM3.62601 133.862C4.57544 130.348 5.82899 126.951 7.35844 123.698L4.64357 122.422C3.04043 125.831 1.7258 129.393 0.729881 133.079L3.62601 133.862ZM12.7959 114.328C14.8693 111.37 17.1942 108.586 19.7416 106.005L17.6063 103.898C14.9425 106.597 12.5099 109.509 10.3392 112.606L12.7959 114.328ZM27.9681 98.936C29.4286 97.8752 30.936 96.8706 32.487 95.9255L30.926 93.3636C29.3059 94.3508 27.731 95.4003 26.205 96.5088L27.9681 98.936ZM33.1858 94.3964C33.0446 93.5548 32.9206 92.7077 32.814 91.8553L29.8372 92.2275C29.949 93.1214 30.0791 94.0099 30.2272 94.8927L33.1858 94.3964ZM32.3898 86.737C32.3546 85.8851 32.3369 85.0288 32.3369 84.1685H29.3369C29.3369 85.07 29.3555 85.9675 29.3923 86.8606L32.3898 86.737ZM32.3369 84.1685C32.3369 82.442 32.4083 80.7319 32.5483 79.0406L29.5585 78.7931C29.4117 80.5666 29.3369 82.3593 29.3369 84.1685H32.3369ZM34.241 68.9389C35.0919 65.602 36.2162 62.3673 37.5902 59.2579L34.8461 58.0454C33.4058 61.305 32.2266 64.6972 31.3341 68.1977L34.241 68.9389ZM42.4869 50.2523C44.3591 47.3905 46.4616 44.6802 48.7698 42.1452L46.5516 40.1254C44.1373 42.7769 41.9369 45.6133 39.9765 48.6099L42.4869 50.2523ZM56.2508 35.1194C58.908 32.9864 61.7414 31.0476 64.727 29.3261L63.2285 26.7272C60.11 28.5253 57.1498 30.5507 54.3728 32.7798L56.2508 35.1194ZM73.9861 24.8871C77.147 23.6564 80.4289 22.6508 83.81 21.8913L83.1525 18.9642C79.6239 19.7569 76.198 20.8065 72.8976 22.0915L73.9861 24.8871ZM93.9739 20.39C95.6714 20.2662 97.387 20.2031 99.1182 20.2031V17.2031C97.3141 17.2031 95.5257 17.2689 93.7556 17.398L93.9739 20.39ZM99.1182 20.2031C101.366 20.2031 103.588 20.3095 105.778 20.5171L106.061 17.5305C103.777 17.3139 101.461 17.2031 99.1182 17.2031V20.2031ZM118.849 23.0405C120.993 23.6748 123.091 24.4097 125.137 25.2396L126.265 22.4595C124.128 21.5931 121.938 20.8258 119.7 20.1637L118.849 23.0405ZM126.838 24.8275C127.893 23.6002 128.996 22.4111 130.142 21.2627L128.019 19.1431C126.82 20.3439 125.667 21.5876 124.563 22.8716L126.838 24.8275ZM137.496 14.9091C140.084 12.9844 142.824 11.2378 145.696 9.68883L144.272 7.04838C141.272 8.66616 138.41 10.4906 135.705 12.5018L137.496 14.9091ZM154.564 5.6992C157.58 4.59428 160.701 3.69278 163.91 3.0123L163.287 0.0775742C159.939 0.787704 156.681 1.72867 153.532 2.88227L154.564 5.6992ZM173.545 1.66728C175.152 1.55641 176.775 1.5 178.413 1.5V-1.5C176.706 -1.5 175.014 -1.44121 173.338 -1.32561L173.545 1.66728ZM178.413 1.5C180.003 1.5 181.581 1.55325 183.143 1.65797L183.344 -1.33532C181.715 -1.4445 180.07 -1.5 178.413 -1.5V1.5ZM192.512 2.92814C195.634 3.57073 198.674 4.42227 201.617 5.46666L202.62 2.63949C199.548 1.54911 196.375 0.660322 193.117 -0.0102441L192.512 2.92814ZM210.281 9.23939C213.094 10.705 215.784 12.3586 218.333 14.1823L220.079 11.7424C217.415 9.8369 214.605 8.10967 211.668 6.57898L210.281 9.23939ZM225.606 20.2087C226.746 21.2991 227.844 22.4286 228.9 23.5951L231.124 21.5823C230.02 20.3623 228.871 19.181 227.68 18.0409L225.606 20.2087ZM230.464 24.0189C232.145 23.4876 233.855 23.0185 235.591 22.6143L234.912 19.6924C233.099 20.1142 231.314 20.6038 229.56 21.1585L230.464 24.0189ZM246.097 21.0084C247.85 20.8762 249.623 20.8088 251.413 20.8088V17.8088C249.548 17.8088 247.7 17.879 245.871 18.0169L246.097 21.0084ZM251.413 20.8088C253.205 20.8088 254.979 20.8763 256.735 21.0088L256.961 18.0174C255.13 17.8792 253.28 17.8088 251.413 17.8088V20.8088ZM267.25 22.618C270.745 23.4321 274.133 24.5098 277.388 25.8275L278.514 23.0467C275.115 21.6708 271.579 20.5459 267.931 19.6962L267.25 22.618ZM286.9 30.5773C288.424 31.4948 289.906 32.4697 291.344 33.4988L293.09 31.0592C291.588 29.984 290.039 28.9655 288.447 28.0071L286.9 30.5773ZM293.109 33.4855C294.564 32.41 296.068 31.3908 297.616 30.4312L296.035 27.8815C294.418 28.8839 292.847 29.9487 291.326 31.0724L293.109 33.4855ZM307.297 25.4609C310.616 24.0812 314.076 22.9523 317.649 22.0991L316.953 19.1811C313.223 20.0716 309.611 21.25 306.145 22.6906L307.297 25.4609ZM328.407 20.4128C330.204 20.2739 332.02 20.2031 333.854 20.2031V17.2031C331.943 17.2031 330.049 17.2769 328.176 17.4217L328.407 20.4128ZM333.854 20.2031C335.586 20.2031 337.301 20.2662 338.999 20.39L339.217 17.398C337.447 17.2689 335.659 17.2031 333.854 17.2031V20.2031ZM349.163 21.8913C352.544 22.6508 355.826 23.6564 358.987 24.8871L360.075 22.0915C356.775 20.8065 353.349 19.7569 349.82 18.9642L349.163 21.8913ZM368.246 29.3261C371.231 31.0476 374.065 32.9864 376.722 35.1194L378.6 32.7798C375.823 30.5507 372.863 28.5253 369.744 26.7272L368.246 29.3261ZM384.203 42.1452C386.511 44.6802 388.614 47.3905 390.486 50.2523L392.996 48.6099C391.036 45.6133 388.835 42.7769 386.421 40.1254L384.203 42.1452ZM395.383 59.2579C396.756 62.3673 397.881 65.602 398.732 68.9389L401.639 68.1977C400.746 64.6972 399.567 61.305 398.127 58.0454L395.383 59.2579ZM400.424 79.0406C400.564 80.7319 400.636 82.442 400.636 84.1685H403.636C403.636 82.3593 403.561 80.5666 403.414 78.7931L400.424 79.0406ZM400.636 84.1685C400.636 84.8981 400.623 85.6249 400.598 86.3485L403.596 86.4533C403.622 85.6947 403.636 84.9331 403.636 84.1685H400.636ZM400.292 90.6969C400.216 91.4216 400.126 92.1427 400.025 92.8599L402.995 93.2811C403.102 92.5288 403.195 91.7725 403.276 91.0125L400.292 90.6969ZM400.765 94.3726C402.387 95.3005 403.965 96.2924 405.494 97.3446L407.195 94.873C405.597 93.7737 403.949 92.7376 402.254 91.7685L400.765 94.3726ZM414.125 104.416C416.802 107.016 419.248 109.834 421.432 112.839L423.859 111.076C421.573 107.93 419.014 104.982 416.214 102.263L414.125 104.416ZM427.167 122.394C428.782 125.721 430.107 129.202 431.111 132.809L434.001 132.004C432.948 128.221 431.558 124.571 429.865 121.084L427.167 122.394ZM433.11 143.762C433.275 145.597 433.36 147.455 433.36 149.333H436.36C436.36 147.365 436.271 145.417 436.098 143.493L433.11 143.762ZM433.36 149.333C433.36 151.059 433.288 152.769 433.148 154.46L436.138 154.708C436.285 152.934 436.36 151.142 436.36 149.333H433.36ZM431.456 164.562C430.605 167.899 429.481 171.134 428.107 174.243L430.851 175.456C432.291 172.196 433.47 168.804 434.363 165.303L431.456 164.562ZM423.21 183.249C421.338 186.11 419.235 188.821 416.927 191.356L419.145 193.376C421.559 190.724 423.76 187.888 425.72 184.891L423.21 183.249ZM409.446 198.382C406.789 200.515 403.955 202.453 400.97 204.175L402.468 206.774C405.587 204.976 408.547 202.95 411.324 200.721L409.446 198.382ZM391.711 208.614C388.55 209.845 385.268 210.85 381.887 211.61L382.544 214.537C386.073 213.744 389.499 212.694 392.799 211.409L391.711 208.614ZM371.723 213.111C370.025 213.235 368.31 213.298 366.579 213.298V216.298C368.383 216.298 370.171 216.232 371.941 216.103L371.723 213.111ZM366.579 213.298C365.242 213.298 363.914 213.26 362.597 213.186L362.429 216.181C363.802 216.259 365.186 216.298 366.579 216.298V213.298ZM354.689 212.287C352.048 211.833 349.461 211.229 346.938 210.487L346.091 213.365C348.725 214.14 351.424 214.77 354.18 215.244L354.689 212.287ZM339.45 207.8C338.226 207.278 337.021 206.722 335.837 206.133L334.501 208.819C335.737 209.434 336.995 210.015 338.274 210.56L339.45 207.8ZM333.97 206.575C332.927 207.963 331.826 209.31 330.672 210.612L332.918 212.602C334.125 211.24 335.276 209.83 336.368 208.377L333.97 206.575ZM323.163 217.84C320.487 220.035 317.629 222.032 314.611 223.806L316.131 226.392C319.283 224.539 322.27 222.453 325.066 220.159L323.163 217.84ZM305.238 228.382C302.035 229.65 298.707 230.687 295.275 231.471L295.943 234.396C299.524 233.578 302.999 232.495 306.343 231.171L305.238 228.382ZM284.955 233.019C283.232 233.147 281.491 233.212 279.733 233.212V236.212C281.565 236.212 283.38 236.144 285.177 236.011L284.955 233.019ZM279.733 233.212C278.196 233.212 276.671 233.162 275.16 233.064L274.966 236.058C276.542 236.16 278.131 236.212 279.733 236.212V233.212ZM266.097 231.878C263.076 231.277 260.129 230.481 257.273 229.504L256.302 232.343C259.284 233.363 262.359 234.193 265.512 234.82L266.097 231.878ZM248.846 225.974C246.105 224.602 243.475 223.052 240.974 221.342L239.281 223.818C241.894 225.605 244.64 227.223 247.504 228.657L248.846 225.974ZM233.807 215.684C232.677 214.659 231.586 213.596 230.533 212.499L228.368 214.575C229.468 215.723 230.61 216.834 231.79 217.905L233.807 215.684ZM229.451 213.537L231.616 211.461C230.939 210.755 229.961 210.423 228.994 210.572C228.028 210.72 227.194 211.331 226.761 212.208L229.451 213.537ZM102.954 206.345L105.786 205.355C105.493 204.516 104.843 203.85 104.01 203.537C103.178 203.224 102.25 203.296 101.476 203.734L102.954 206.345ZM31.7065 94.6446L33.2675 97.2064C34.3146 96.5684 34.868 95.3575 34.6651 94.1482L31.7065 94.6446ZM125.701 23.8495L124.573 26.6296C125.767 27.1136 127.136 26.782 127.976 25.8055L125.701 23.8495ZM230.012 22.5887L227.787 24.6014C228.575 25.4717 229.797 25.8029 230.916 25.4491L230.012 22.5887ZM292.217 32.279L290.471 34.7186C291.529 35.4754 292.954 35.4647 294 34.692L292.217 32.279ZM401.51 93.0705L398.539 92.6493C398.367 93.8659 398.954 95.0647 400.02 95.6747L401.51 93.0705ZM335.169 207.476L336.506 204.79C335.211 204.145 333.64 204.517 332.771 205.673L335.169 207.476ZM224.604 216.192C223.763 217.619 224.237 219.459 225.664 220.3C227.091 221.142 228.93 220.668 229.772 219.241L224.604 216.192ZM224.115 227.407C225.154 226.117 224.951 224.228 223.661 223.188C222.371 222.149 220.482 222.352 219.443 223.642L224.115 227.407ZM213.261 230.283C212.049 231.412 211.982 233.311 213.112 234.523C214.241 235.735 216.14 235.801 217.352 234.672L213.261 230.283ZM209.641 240.91C210.999 239.96 211.329 238.089 210.379 236.732C209.429 235.374 207.559 235.044 206.201 235.994L209.641 240.91ZM198.415 240.675C196.939 241.429 196.354 243.236 197.108 244.711C197.862 246.187 199.669 246.772 201.145 246.018L198.415 240.675ZM192.032 249.912C193.596 249.366 194.422 247.656 193.877 246.091C193.332 244.527 191.621 243.7 190.057 244.246L192.032 249.912ZM181.287 246.648C179.663 246.977 178.613 248.56 178.942 250.183C179.27 251.807 180.853 252.858 182.477 252.529L181.287 246.648ZM172.662 253.837C174.315 253.728 175.567 252.3 175.458 250.647C175.349 248.993 173.921 247.741 172.267 247.85L172.662 253.837ZM162.693 247.818C161.04 247.698 159.603 248.94 159.483 250.592C159.363 252.245 160.605 253.682 162.257 253.802L162.693 247.818ZM151.457 252.211C153.074 252.573 154.678 251.556 155.04 249.939C155.403 248.323 154.386 246.718 152.769 246.356L151.457 252.211ZM143.18 243.439C141.635 242.839 139.897 243.605 139.297 245.15C138.697 246.694 139.463 248.432 141.007 249.032L143.18 243.439ZM131.15 244.319C132.586 245.145 134.42 244.65 135.246 243.213C136.072 241.777 135.577 239.943 134.141 239.117L131.15 244.319ZM125.865 233.478C124.572 232.443 122.684 232.653 121.649 233.947C120.614 235.24 120.823 237.128 122.117 238.163L125.865 233.478ZM114.131 230.689C115.249 231.912 117.146 231.997 118.369 230.88C119.592 229.762 119.677 227.864 118.559 226.641L114.131 230.689ZM112.419 218.754C111.509 217.369 109.648 216.985 108.264 217.896C106.88 218.806 106.495 220.666 107.406 222.051L112.419 218.754ZM102.146 212.436C102.82 213.95 104.593 214.63 106.107 213.956C107.62 213.283 108.301 211.509 107.627 209.996L102.146 212.436ZM97.6385 205.744C96.1463 206.464 95.5205 208.258 96.2407 209.75C96.9609 211.242 98.7544 211.868 100.247 211.148L97.6385 205.744ZM91.4922 214.689C93.0653 214.169 93.9189 212.472 93.3988 210.899C92.8787 209.326 91.1819 208.472 89.6088 208.992L91.4922 214.689ZM81.2226 211.175C79.5956 211.488 78.5304 213.06 78.8434 214.687C79.1565 216.314 80.7292 217.38 82.3562 217.066L81.2226 211.175ZM72.9961 218.254C74.6497 218.15 75.9061 216.726 75.8023 215.072C75.6985 213.418 74.2739 212.162 72.6203 212.266L72.9961 218.254ZM63.2461 212.218C61.5936 212.098 60.1563 213.34 60.0358 214.992C59.9152 216.645 61.1571 218.082 62.8096 218.203L63.2461 212.218ZM51.9868 216.604C53.6034 216.967 55.2083 215.951 55.5714 214.334C55.9345 212.718 54.9184 211.113 53.3018 210.75L51.9868 216.604ZM43.6934 207.82C42.1494 207.218 40.4105 207.983 39.8093 209.527C39.2082 211.071 39.9725 212.81 41.5164 213.411L43.6934 207.82ZM31.6423 208.677C33.0776 209.504 34.9121 209.012 35.7398 207.576C36.5674 206.141 36.0747 204.307 34.6394 203.479L31.6423 208.677ZM26.3528 197.815C25.0608 196.778 23.1725 196.985 22.1354 198.277C21.0982 199.569 21.3049 201.457 22.597 202.494L26.3528 197.815ZM14.6056 194.989C15.721 196.214 17.6185 196.303 18.8435 195.187C20.0686 194.072 20.1575 192.175 19.042 190.949L14.6056 194.989ZM12.9053 183.031C11.9982 181.645 10.1389 181.256 8.75241 182.163C7.3659 183.07 6.97724 184.929 7.8843 186.316L12.9053 183.031ZM2.63718 176.665C3.30683 178.181 5.07825 178.867 6.59374 178.197C8.10924 177.527 8.79493 175.756 8.12527 174.24L2.63718 176.665ZM4.85763 164.795C4.44827 163.189 2.81491 162.22 1.20942 162.629C-0.396065 163.039 -1.36571 164.672 -0.956351 166.277L4.85763 164.795ZM-2.77326 155.435C-2.63656 157.086 -1.18717 158.314 0.464032 158.177C2.11524 158.041 3.34298 156.591 3.20628 154.94L-2.77326 155.435ZM3.23023 144.651C3.37467 143 2.15373 141.545 0.503188 141.4C-1.14736 141.256 -2.60248 142.477 -2.74692 144.128L3.23023 144.651ZM-0.718185 132.688C-1.15039 134.287 -0.204112 135.934 1.39538 136.366C2.99487 136.799 4.64188 135.852 5.07408 134.253L-0.718185 132.688ZM8.71588 124.336C9.42087 122.837 8.77689 121.05 7.27751 120.345C5.77813 119.64 3.99113 120.284 3.28613 121.783L8.71588 124.336ZM9.11091 111.745C8.15992 113.102 8.48887 114.973 9.84563 115.924C11.2024 116.875 13.0732 116.546 14.0242 115.189L9.11091 111.745ZM20.8093 107.058C21.9731 105.879 21.9605 103.98 20.7812 102.816C19.6019 101.652 17.7025 101.665 16.5387 102.844L20.8093 107.058ZM25.3235 95.2951C23.983 96.2688 23.6856 98.1449 24.6593 99.4855C25.633 100.826 27.5091 101.123 28.8496 100.15L25.3235 95.2951ZM34.3025 91.6693C34.0969 90.0252 32.5975 88.8591 30.9535 89.0646C29.3094 89.2701 28.1433 90.7695 28.3488 92.4136L34.3025 91.6693ZM27.8936 86.9223C27.9618 88.5778 29.3591 89.8645 31.0146 89.7963C32.67 89.728 33.9567 88.3307 33.8885 86.6753L27.8936 86.9223ZM34.0432 79.1643C34.1799 77.5131 32.9521 76.0638 31.3009 75.9271C29.6497 75.7904 28.2004 77.0181 28.0637 78.6693L34.0432 79.1643ZM29.8806 67.8271C29.4712 69.4326 30.4408 71.066 32.0463 71.4753C33.6518 71.8847 35.2852 70.915 35.6945 69.3096L29.8806 67.8271ZM38.9622 59.8642C39.6318 58.3487 38.9461 56.5773 37.4306 55.9076C35.9152 55.2379 34.1437 55.9236 33.4741 57.4391L38.9622 59.8642ZM38.7212 47.7887C37.8141 49.1752 38.2028 51.0345 39.5893 51.9416C40.9758 52.8487 42.8351 52.46 43.7422 51.0735L38.7212 47.7887ZM49.8789 43.1551C50.9944 41.93 50.9056 40.0326 49.6805 38.9171C48.4554 37.8016 46.5579 37.8904 45.4425 39.1155L49.8789 43.1551ZM53.4339 31.6101C52.1418 32.6472 51.9351 34.5354 52.9723 35.8275C54.0094 37.1196 55.8977 37.3263 57.1897 36.2891L53.4339 31.6101ZM65.4763 30.6256C66.9116 29.798 67.4043 27.9635 66.5767 26.5281C65.7491 25.0928 63.9146 24.6001 62.4792 25.4277L65.4763 30.6256ZM72.3534 20.6937C70.8094 21.2949 70.0451 23.0338 70.6463 24.5778C71.2474 26.1217 72.9863 26.886 74.5303 26.2849L72.3534 20.6937ZM84.1388 23.3548C85.7553 22.9917 86.7714 21.3868 86.4083 19.7703C86.0452 18.1537 84.4403 17.1376 82.8237 17.5007L84.1388 23.3548ZM93.6465 15.902C91.994 16.0225 90.7522 17.4598 90.8727 19.1123C90.9932 20.7647 92.4306 22.0066 94.083 21.8861L93.6465 15.902ZM105.636 22.0104C107.286 22.1668 108.75 20.9564 108.906 19.307C109.062 17.6575 107.852 16.1936 106.203 16.0372L105.636 22.0104ZM120.125 18.7253C118.536 18.2554 116.867 19.1624 116.397 20.7512C115.927 22.34 116.834 24.0089 118.423 24.4789L120.125 18.7253ZM131.204 22.3225C132.374 21.15 132.373 19.2505 131.2 18.0799C130.028 16.9092 128.128 16.9107 126.958 18.0832L131.204 22.3225ZM134.81 11.2981C133.481 12.2868 133.204 14.1661 134.193 15.4956C135.182 16.8251 137.061 17.1015 138.391 16.1128L134.81 11.2981ZM146.408 11.0091C147.866 10.2226 148.411 8.4028 147.624 6.94452C146.838 5.48624 145.018 4.94166 143.56 5.72816L146.408 11.0091ZM153.016 1.4738C151.46 2.04371 150.661 3.76691 151.231 5.32266C151.801 6.87841 153.524 7.67759 155.08 7.10767L153.016 1.4738ZM164.221 4.47966C165.842 4.13591 166.877 2.54333 166.533 0.922528C166.19 -0.698275 164.597 -1.73353 162.976 -1.38979L164.221 4.47966ZM173.235 -2.82205C171.582 -2.70803 170.335 -1.27564 170.449 0.377289C170.563 2.03022 171.995 3.27775 173.648 3.16373L173.235 -2.82205ZM183.043 3.15461C184.696 3.2654 186.126 2.01508 186.237 0.361931C186.348 -1.29121 185.097 -2.72117 183.444 -2.83196L183.043 3.15461ZM193.42 -1.47944C191.797 -1.8135 190.211 -0.76875 189.877 0.854078C189.542 2.4769 190.587 4.06328 192.21 4.39734L193.42 -1.47944ZM201.115 6.88025C202.676 7.43449 204.391 6.61802 204.946 5.05661C205.5 3.4952 204.683 1.78014 203.122 1.2259L201.115 6.88025ZM212.361 5.24878C210.892 4.48306 209.08 5.05343 208.314 6.52273C207.548 7.99203 208.119 9.80387 209.588 10.5696L212.361 5.24878ZM217.46 15.4023C218.808 16.3663 220.682 16.0554 221.646 14.7078C222.61 13.3603 222.299 11.4864 220.951 10.5224L217.46 15.4023ZM228.717 16.9571C227.52 15.8117 225.621 15.8537 224.475 17.0509C223.33 18.2481 223.372 20.1471 224.569 21.2925L228.717 16.9571ZM235.931 24.0753C237.545 23.6998 238.549 22.0872 238.173 20.4735C237.798 18.8597 236.185 17.8559 234.572 18.2314L235.931 24.0753ZM245.758 16.5212C244.106 16.6458 242.868 18.0861 242.993 19.7383C243.117 21.3905 244.558 22.6288 246.21 22.5042L245.758 16.5212ZM256.622 22.5046C258.274 22.6293 259.714 21.3911 259.839 19.739C259.964 18.0868 258.726 16.6463 257.073 16.5216L256.622 22.5046ZM268.271 18.2353C266.657 17.8594 265.045 18.8628 264.669 20.4765C264.293 22.0901 265.296 23.703 266.91 24.0789L268.271 18.2353ZM276.825 27.2179C278.361 27.8396 280.11 27.0986 280.732 25.5628C281.354 24.027 280.612 22.278 279.077 21.6563L276.825 27.2179ZM289.221 26.722C287.801 25.8674 285.958 26.3254 285.103 27.7449C284.249 29.1643 284.707 31.0078 286.126 31.8623L289.221 26.722ZM298.406 31.706C299.814 30.833 300.248 28.9837 299.375 27.5755C298.502 26.1673 296.653 25.7336 295.244 26.6066L298.406 31.706ZM305.57 21.3055C304.04 21.9414 303.315 23.6971 303.951 25.2271C304.587 26.7571 306.342 27.4819 307.872 26.846L305.57 21.3055ZM317.998 23.5581C319.609 23.1733 320.604 21.555 320.219 19.9434C319.834 18.3319 318.216 17.3373 316.605 17.7221L317.998 23.5581ZM328.06 15.9262C326.408 16.0539 325.173 17.4966 325.3 19.1485C325.428 20.8004 326.871 22.036 328.523 21.9083L328.06 15.9262ZM338.89 21.8861C340.542 22.0066 341.979 20.7647 342.1 19.1123C342.22 17.4598 340.979 16.0225 339.326 15.902L338.89 21.8861ZM350.149 17.5007C348.532 17.1376 346.927 18.1537 346.564 19.7703C346.201 21.3868 347.217 22.9917 348.834 23.3548L350.149 17.5007ZM358.442 26.2849C359.986 26.886 361.725 26.1217 362.326 24.5778C362.928 23.0338 362.163 21.2949 360.619 20.6938L358.442 26.2849ZM370.493 25.4277C369.058 24.6001 367.224 25.0928 366.396 26.5281C365.568 27.9635 366.061 29.798 367.496 30.6256L370.493 25.4277ZM375.783 36.2891C377.075 37.3263 378.963 37.1196 380 35.8275C381.038 34.5354 380.831 32.6472 379.539 31.6101L375.783 36.2891ZM387.53 39.1155C386.415 37.8904 384.517 37.8016 383.292 38.9171C382.067 40.0326 381.978 41.93 383.094 43.1551L387.53 39.1155ZM389.23 51.0735C390.138 52.46 391.997 52.8487 393.383 51.9416C394.77 51.0345 395.159 49.1752 394.251 47.7887L389.23 51.0735ZM399.499 57.4391C398.829 55.9236 397.057 55.2379 395.542 55.9076C394.027 56.5773 393.341 58.3487 394.01 59.8642L399.499 57.4391ZM397.278 69.3096C397.687 70.915 399.321 71.8847 400.926 71.4753C402.532 71.066 403.501 69.4326 403.092 67.8271L397.278 69.3096ZM404.909 78.6693C404.772 77.0181 403.323 75.7903 401.672 75.927C400.021 76.0638 398.793 77.5131 398.929 79.1643L404.909 78.6693ZM399.099 86.2961C399.041 87.9519 400.336 89.3412 401.992 89.399C403.648 89.4569 405.037 88.1615 405.095 86.5057L399.099 86.2961ZM404.767 91.1704C404.942 89.5227 403.747 88.0457 402.1 87.8714C400.452 87.697 398.975 88.8914 398.801 90.539L404.767 91.1704ZM404.644 98.5803C406.009 99.5195 407.877 99.1742 408.816 97.8092C409.755 96.4443 409.41 94.5764 408.045 93.6373L404.644 98.5803ZM417.259 101.187C416.071 100.033 414.172 100.061 413.017 101.25C411.863 102.438 411.891 104.337 413.08 105.492L417.259 101.187ZM420.218 113.721C421.192 115.061 423.068 115.358 424.409 114.384C425.749 113.411 426.046 111.534 425.073 110.194L420.218 113.721ZM431.215 120.429C430.491 118.938 428.696 118.316 427.206 119.04C425.715 119.764 425.094 121.559 425.817 123.049L431.215 120.429ZM429.666 133.211C430.11 134.807 431.764 135.741 433.36 135.297C434.956 134.852 435.89 133.198 435.446 131.602L429.666 133.211ZM437.592 143.358C437.443 141.708 435.985 140.491 434.335 140.639C432.685 140.788 431.468 142.246 431.616 143.896L437.592 143.358ZM431.654 154.337C431.517 155.988 432.745 157.437 434.396 157.574C436.047 157.711 437.496 156.483 437.633 154.832L431.654 154.337ZM435.816 165.674C436.226 164.068 435.256 162.435 433.65 162.026C432.045 161.616 430.412 162.586 430.002 164.191L435.816 165.674ZM426.735 173.637C426.065 175.152 426.751 176.924 428.266 177.593C429.782 178.263 431.553 177.577 432.223 176.062L426.735 173.637ZM426.976 185.712C427.883 184.326 427.494 182.466 426.107 181.559C424.721 180.652 422.862 181.041 421.955 182.428L426.976 185.712ZM415.818 190.346C414.702 191.571 414.791 193.468 416.016 194.584C417.241 195.699 419.139 195.611 420.254 194.385L415.818 190.346ZM412.263 201.891C413.555 200.854 413.762 198.966 412.724 197.673C411.687 196.381 409.799 196.175 408.507 197.212L412.263 201.891ZM400.22 202.875C398.785 203.703 398.292 205.538 399.12 206.973C399.948 208.408 401.782 208.901 403.218 208.073L400.22 202.875ZM393.343 212.807C394.887 212.206 395.652 210.467 395.051 208.923C394.449 207.379 392.71 206.615 391.166 207.216L393.343 212.807ZM381.558 210.146C379.941 210.509 378.925 212.114 379.288 213.731C379.652 215.347 381.256 216.363 382.873 216L381.558 210.146ZM372.05 217.599C373.703 217.479 374.945 216.041 374.824 214.389C374.704 212.736 373.266 211.494 371.614 211.615L372.05 217.599ZM362.682 211.688C361.027 211.595 359.611 212.861 359.518 214.515C359.425 216.169 360.69 217.586 362.344 217.679L362.682 211.688ZM353.925 216.722C355.558 217.003 357.11 215.907 357.391 214.274C357.672 212.641 356.576 211.09 354.943 210.809L353.925 216.722ZM347.361 209.048C345.772 208.58 344.104 209.49 343.637 211.079C343.169 212.668 344.078 214.336 345.667 214.804L347.361 209.048ZM337.685 211.939C339.209 212.589 340.972 211.88 341.622 210.356C342.271 208.832 341.563 207.07 340.038 206.42L337.685 211.939ZM329.55 209.618C328.451 210.858 328.565 212.754 329.806 213.853C331.046 214.951 332.942 214.837 334.04 213.597L329.55 209.618ZM326.017 221.318C327.298 220.267 327.484 218.377 326.433 217.096C325.382 215.815 323.492 215.629 322.211 216.68L326.017 221.318ZM313.851 222.513C312.423 223.352 311.945 225.191 312.785 226.619C313.624 228.047 315.463 228.525 316.891 227.685L313.851 222.513ZM306.896 232.565C308.436 231.955 309.19 230.212 308.58 228.671C307.97 227.131 306.226 226.377 304.686 226.987L306.896 232.565ZM294.941 230.009C293.326 230.377 292.315 231.986 292.684 233.601C293.053 235.216 294.661 236.227 296.276 235.858L294.941 230.009ZM285.288 237.507C286.94 237.385 288.18 235.946 288.058 234.294C287.935 232.641 286.497 231.401 284.844 231.523L285.288 237.507ZM275.257 231.567C273.603 231.46 272.176 232.714 272.069 234.367C271.962 236.021 273.216 237.448 274.869 237.555L275.257 231.567ZM265.22 236.291C266.845 236.614 268.424 235.559 268.747 233.933C269.07 232.308 268.014 230.729 266.389 230.406L265.22 236.291ZM257.758 228.085C256.191 227.549 254.485 228.385 253.949 229.953C253.413 231.521 254.249 233.226 255.817 233.762L257.758 228.085ZM246.832 229.998C248.314 230.74 250.116 230.14 250.858 228.658C251.599 227.177 250.999 225.374 249.518 224.633L246.832 229.998ZM241.821 220.104C240.453 219.168 238.586 219.519 237.651 220.887C236.716 222.254 237.066 224.121 238.434 225.056L241.821 220.104ZM230.782 219.016C232.009 220.129 233.906 220.038 235.02 218.811C236.133 217.584 236.042 215.687 234.815 214.573L230.782 219.016ZM226.761 212.208C226.091 213.563 225.371 214.892 224.604 216.192L229.772 219.241C230.614 217.814 231.404 216.355 232.14 214.866L226.761 212.208ZM219.443 223.642C217.548 225.993 215.481 228.213 213.261 230.283L217.352 234.672C219.779 232.409 222.04 229.981 224.115 227.407L219.443 223.642ZM206.201 235.994C203.732 237.721 201.131 239.287 198.415 240.675L201.145 246.018C204.107 244.504 206.945 242.796 209.641 240.91L206.201 235.994ZM190.057 244.246C187.221 245.234 184.292 246.04 181.287 246.648L182.477 252.529C185.75 251.867 188.94 250.989 192.032 249.912L190.057 244.246ZM172.267 247.85C170.763 247.949 169.245 248 167.713 248V254C169.376 254 171.027 253.945 172.662 253.837L172.267 247.85ZM167.713 248C166.024 248 164.349 247.938 162.693 247.818L162.257 253.802C164.059 253.933 165.878 254 167.713 254V248ZM152.769 246.356C149.469 245.616 146.265 244.637 143.18 243.439L141.007 249.032C144.371 250.338 147.862 251.405 151.457 252.211L152.769 246.356ZM134.141 239.117C131.226 237.441 128.46 235.554 125.865 233.478L122.117 238.163C124.951 240.431 127.97 242.49 131.15 244.319L134.141 239.117ZM118.559 226.641C116.304 224.174 114.25 221.537 112.419 218.754L107.406 222.051C109.413 225.103 111.664 227.991 114.131 230.689L118.559 226.641ZM107.627 209.996C106.951 208.478 106.337 206.931 105.786 205.355L100.122 207.335C100.728 209.067 101.403 210.769 102.146 212.436L107.627 209.996ZM101.476 203.734C100.223 204.444 98.9435 205.114 97.6385 205.744L100.247 211.148C101.67 210.461 103.066 209.729 104.433 208.955L101.476 203.734ZM89.6088 208.992C86.8908 209.891 84.091 210.623 81.2226 211.175L82.3562 217.066C85.4796 216.466 88.5298 215.668 91.4922 214.689L89.6088 208.992ZM72.6203 212.266C71.1865 212.356 69.7396 212.401 68.2812 212.401V218.401C69.8651 218.401 71.4372 218.352 72.9961 218.254L72.6203 212.266ZM68.2812 212.401C66.5865 212.401 64.9074 212.34 63.2461 212.218L62.8096 218.203C64.616 218.334 66.4407 218.401 68.2812 218.401V212.401ZM53.3018 210.75C49.9945 210.007 46.7846 209.023 43.6934 207.82L41.5164 213.411C44.8865 214.723 48.3844 215.795 51.9868 216.604L53.3018 210.75ZM34.6394 203.479C31.7201 201.796 28.9502 199.9 26.3528 197.815L22.597 202.494C25.4338 204.772 28.4574 206.84 31.6423 208.677L34.6394 203.479ZM19.042 190.949C16.7868 188.473 14.7334 185.825 12.9053 183.031L7.8843 186.316C9.88881 189.38 12.1382 192.279 14.6056 194.989L19.042 190.949ZM8.12527 174.24C6.78452 171.206 5.68764 168.05 4.85763 164.795L-0.956351 166.277C-0.0429558 169.86 1.16364 173.331 2.63718 176.665L8.12527 174.24ZM3.20628 154.94C3.06966 153.29 3 151.621 3 149.936H-3C-3 151.787 -2.9235 153.621 -2.77326 155.435L3.20628 154.94ZM3 149.936C3 148.155 3.07781 146.392 3.23023 144.651L-2.74692 144.128C-2.91455 146.043 -3 147.98 -3 149.936H3ZM5.07408 134.253C6.00025 130.825 7.22326 127.511 8.71588 124.336L3.28613 121.783C1.64616 125.271 0.300988 128.916 -0.718185 132.688L5.07408 134.253ZM14.0242 115.189C16.049 112.3 18.3201 109.581 20.8093 107.058L16.5387 102.844C13.8166 105.602 11.3301 108.579 9.11091 111.745L14.0242 115.189ZM28.8496 100.15C30.2773 99.1126 31.7511 98.1304 33.2675 97.2064L30.1455 92.0827C28.4908 93.0909 26.8822 94.1629 25.3235 95.2951L28.8496 100.15ZM34.6651 94.1482C34.5274 93.3272 34.4064 92.5008 34.3025 91.6693L28.3488 92.4136C28.4631 93.3283 28.5963 94.2375 28.7478 95.1409L34.6651 94.1482ZM33.8885 86.6753C33.8542 85.8439 33.8369 85.0082 33.8369 84.1685H27.8369C27.8369 85.0906 27.8559 86.0087 27.8936 86.9223L33.8885 86.6753ZM33.8369 84.1685C33.8369 82.4834 33.9066 80.8146 34.0432 79.1643L28.0637 78.6693C27.9134 80.484 27.8369 82.318 27.8369 84.1685H33.8369ZM35.6945 69.3096C36.5246 66.0543 37.6214 62.8984 38.9622 59.8642L33.4741 57.4391C32.0006 60.7739 30.794 64.2449 29.8806 67.8271L35.6945 69.3096ZM43.7422 51.0735C45.5703 48.2792 47.6238 45.6318 49.8789 43.1551L45.4425 39.1155C42.9751 41.8253 40.7257 44.7247 38.7212 47.7887L43.7422 51.0735ZM57.1897 36.2891C59.7871 34.2042 62.5571 32.3088 65.4763 30.6256L62.4792 25.4277C59.2944 27.2641 56.2707 29.3329 53.4339 31.6101L57.1897 36.2891ZM74.5303 26.2849C77.6216 25.0813 80.8314 24.0978 84.1388 23.3548L82.8237 17.5007C79.2214 18.3099 75.7235 19.3816 72.3534 20.6937L74.5303 26.2849ZM94.083 21.8861C95.7443 21.7649 97.4234 21.7031 99.1182 21.7031V15.7031C97.2776 15.7031 95.4529 15.7702 93.6465 15.902L94.083 21.8861ZM99.1182 21.7031C101.319 21.7031 103.493 21.8072 105.636 22.0104L106.203 16.0372C103.871 15.8162 101.508 15.7031 99.1182 15.7031V21.7031ZM118.423 24.4789C120.52 25.0993 122.572 25.8181 124.573 26.6296L126.828 21.0695C124.647 20.1848 122.41 19.4013 120.125 18.7253L118.423 24.4789ZM127.976 25.8055C129.006 24.6065 130.083 23.4447 131.204 22.3225L126.958 18.0832C125.733 19.3103 124.555 20.5813 123.426 21.8936L127.976 25.8055ZM138.391 16.1128C140.921 14.2312 143.6 12.5237 146.408 11.0091L143.56 5.72816C140.497 7.38032 137.573 9.24374 134.81 11.2981L138.391 16.1128ZM155.08 7.10767C158.029 6.02709 161.082 5.14531 164.221 4.47966L162.976 -1.38979C159.558 -0.664832 156.231 0.295862 153.016 1.4738L155.08 7.10767ZM173.648 3.16373C175.221 3.05522 176.81 3 178.413 3V-3C176.672 -3 174.945 -2.94003 173.235 -2.82205L173.648 3.16373ZM178.413 3C179.97 3 181.514 3.05213 183.043 3.15461L183.444 -2.83196C181.782 -2.94338 180.104 -3 178.413 -3V3ZM192.21 4.39734C195.264 5.02593 198.237 5.85885 201.115 6.88025L203.122 1.2259C199.985 0.112536 196.745 -0.79488 193.42 -1.47944L192.21 4.39734ZM209.588 10.5696C212.338 12.0027 214.968 13.6194 217.46 15.4023L220.951 10.5224C218.23 8.57605 215.361 6.81198 212.361 5.24878L209.588 10.5696ZM224.569 21.2925C225.683 22.3581 226.756 23.4618 227.787 24.6014L232.237 20.576C231.109 19.3291 229.934 18.122 228.717 16.9571L224.569 21.2925ZM230.916 25.4491C232.56 24.9295 234.233 24.4706 235.931 24.0753L234.572 18.2314C232.721 18.662 230.899 19.1619 229.108 19.7283L230.916 25.4491ZM246.21 22.5042C247.926 22.3748 249.661 22.3088 251.413 22.3088V16.3088C249.51 16.3088 247.625 16.3804 245.758 16.5212L246.21 22.5042ZM251.413 22.3088C253.167 22.3088 254.904 22.3749 256.622 22.5046L257.073 16.5216C255.205 16.3806 253.318 16.3088 251.413 16.3088V22.3088ZM266.91 24.0789C270.329 24.8753 273.642 25.9292 276.825 27.2179L279.077 21.6563C275.606 20.2513 271.995 19.1028 268.271 18.2353L266.91 24.0789ZM286.126 31.8623C287.616 32.7595 289.066 33.7126 290.471 34.7186L293.963 29.8394C292.429 28.7411 290.847 27.7009 289.221 26.722L286.126 31.8623ZM294 34.692C295.423 33.6407 296.893 32.6442 298.406 31.706L295.244 26.6066C293.593 27.6304 291.989 28.7181 290.435 29.8659L294 34.692ZM307.872 26.846C311.118 25.4968 314.502 24.3926 317.998 23.5581L316.605 17.7221C312.797 18.6312 309.109 19.8345 305.57 21.3055L307.872 26.846ZM328.523 21.9083C330.281 21.7724 332.059 21.7031 333.854 21.7031V15.7031C331.904 15.7031 329.972 15.7784 328.06 15.9262L328.523 21.9083ZM333.854 21.7031C335.549 21.7031 337.228 21.7649 338.89 21.8861L339.326 15.902C337.52 15.7702 335.695 15.7031 333.854 15.7031V21.7031ZM348.834 23.3548C352.141 24.0978 355.351 25.0813 358.442 26.2849L360.619 20.6938C357.249 19.3816 353.751 18.3099 350.149 17.5007L348.834 23.3548ZM367.496 30.6256C370.416 32.3088 373.186 34.2042 375.783 36.2891L379.539 31.6101C376.702 29.3329 373.678 27.2641 370.493 25.4277L367.496 30.6256ZM383.094 43.1551C385.349 45.6318 387.402 48.2792 389.23 51.0735L394.251 47.7887C392.247 44.7247 389.998 41.8253 387.53 39.1155L383.094 43.1551ZM394.01 59.8642C395.351 62.8984 396.448 66.0543 397.278 69.3096L403.092 67.8271C402.179 64.2449 400.972 60.7739 399.499 57.4391L394.01 59.8642ZM398.929 79.1643C399.066 80.8146 399.136 82.4834 399.136 84.1685H405.136C405.136 82.3179 405.059 80.4839 404.909 78.6693L398.929 79.1643ZM399.136 84.1685C399.136 84.8806 399.123 85.5899 399.099 86.2961L405.095 86.5057C405.122 85.7297 405.136 84.9505 405.136 84.1685H399.136ZM398.801 90.539C398.726 91.2461 398.639 91.9496 398.539 92.6493L404.48 93.4917C404.589 92.7219 404.685 91.948 404.767 91.1704L398.801 90.539ZM400.02 95.6747C401.607 96.5819 403.149 97.5517 404.644 98.5803L408.045 93.6373C406.413 92.5144 404.73 91.4562 402.999 90.4664L400.02 95.6747ZM413.08 105.492C415.696 108.033 418.086 110.786 420.218 113.721L425.073 110.194C422.736 106.978 420.12 103.965 417.259 101.187L413.08 105.492ZM425.817 123.049C427.393 126.296 428.686 129.693 429.666 133.211L435.446 131.602C434.368 127.731 432.946 123.995 431.215 120.429L425.817 123.049ZM431.616 143.896C431.777 145.687 431.86 147.5 431.86 149.333H437.86C437.86 147.32 437.769 145.328 437.592 143.358L431.616 143.896ZM431.86 149.333C431.86 151.018 431.79 152.686 431.654 154.337L437.633 154.832C437.783 153.017 437.86 151.183 437.86 149.333H431.86ZM430.002 164.191C429.172 167.447 428.075 170.603 426.735 173.637L432.223 176.062C433.696 172.727 434.903 169.256 435.816 165.674L430.002 164.191ZM421.955 182.428C420.127 185.222 418.073 187.869 415.818 190.346L420.254 194.385C422.722 191.676 424.971 188.776 426.976 185.712L421.955 182.428ZM408.507 197.212C405.91 199.297 403.14 201.192 400.22 202.875L403.218 208.073C406.402 206.237 409.426 204.168 412.263 201.891L408.507 197.212ZM391.166 207.216C388.075 208.42 384.865 209.403 381.558 210.146L382.873 216C386.475 215.191 389.973 214.119 393.343 212.807L391.166 207.216ZM371.614 211.615C369.952 211.736 368.273 211.798 366.579 211.798V217.798C368.419 217.798 370.244 217.731 372.05 217.599L371.614 211.615ZM366.579 211.798C365.27 211.798 363.971 211.761 362.682 211.688L362.344 217.679C363.746 217.758 365.157 217.798 366.579 217.798V211.798ZM354.943 210.809C352.359 210.364 349.829 209.774 347.361 209.048L345.667 214.804C348.356 215.595 351.113 216.238 353.925 216.722L354.943 210.809ZM340.038 206.42C338.841 205.91 337.663 205.366 336.506 204.79L333.833 210.162C335.095 210.79 336.38 211.383 337.685 211.939L340.038 206.42ZM332.771 205.673C331.752 207.03 330.677 208.345 329.55 209.618L334.04 213.597C335.274 212.204 336.451 210.764 337.567 209.278L332.771 205.673ZM322.211 216.68C319.596 218.826 316.801 220.778 313.851 222.513L316.891 227.685C320.11 225.793 323.161 223.662 326.017 221.318L322.211 216.68ZM304.686 226.987C301.554 228.228 298.298 229.242 294.941 230.009L296.276 235.858C299.933 235.023 303.481 233.918 306.896 232.565L304.686 226.987ZM284.844 231.523C283.158 231.648 281.454 231.712 279.733 231.712V237.712C281.602 237.712 283.454 237.643 285.288 237.507L284.844 231.523ZM279.733 231.712C278.228 231.712 276.736 231.663 275.257 231.567L274.869 237.555C276.477 237.659 278.099 237.712 279.733 237.712V231.712ZM266.389 230.406C263.434 229.819 260.552 229.041 257.758 228.085L255.817 233.762C258.862 234.804 262.001 235.652 265.22 236.291L266.389 230.406ZM249.518 224.633C246.837 223.291 244.266 221.776 241.821 220.104L238.434 225.056C241.103 226.882 243.908 228.534 246.832 229.998L249.518 224.633ZM234.815 214.573C233.711 213.571 232.644 212.533 231.616 211.461L227.285 215.613C228.41 216.786 229.576 217.921 230.782 219.016L234.815 214.573Z" fill="#247158" mask="url(#path-1-inside-1_362_979)"/>
</svg>
