<svg width="342" height="53" viewBox="0 0 342 53" fill="none" xmlns="http://www.w3.org/2000/svg">
<rect width="342" height="53" rx="8" fill="#D66E22"/>
<path d="M152.709 28.56H148.189C147.709 29.72 147.149 31.2 146.869 31.84C146.789 32.02 146.629 32.12 146.329 32.12C145.869 32.12 144.989 32 144.569 31.86V31.78C145.609 29.34 148.729 21.92 149.489 20.1L149.309 19.68C150.049 19.52 151.189 19.44 151.409 19.44C151.609 19.44 151.769 19.56 151.889 19.8C152.809 22 154.329 25.92 155.009 27.66C155.849 29.72 156.329 30.96 156.729 31.8L156.709 31.88C156.269 32.04 154.929 32.12 154.489 32.12C154.169 32.12 154.009 32.02 153.809 31.48C153.429 30.46 153.149 29.7 152.709 28.56ZM148.749 26.9H152.209C151.309 24.42 150.709 22.92 150.469 22.3C149.989 23.6 149.409 25.18 148.749 26.9ZM165.495 30.06L165.535 30.12C165.515 30.7 165.235 31.4 164.875 31.72C164.315 32.08 163.455 32.24 162.615 32.24C160.015 32.24 157.995 30.74 157.995 27.8C157.995 24.94 160.155 22.96 162.955 22.96C164.295 22.96 165.255 23.38 165.615 23.72C165.615 24.24 165.355 25 164.655 24.96C164.195 24.78 163.575 24.64 163.035 24.64C161.595 24.64 160.475 25.64 160.475 27.46C160.475 29.64 161.975 30.44 163.335 30.44C164.195 30.44 164.955 30.28 165.495 30.06ZM173.233 30.16L173.273 30.2C173.373 30.68 173.293 31.3 172.933 31.6C172.453 32.02 171.633 32.24 170.733 32.24C168.713 32.24 168.053 30.94 168.053 29.54V24.76C167.293 24.76 166.913 24.42 166.913 24.2C167.213 23.64 168.813 22.18 169.173 21.9C169.493 21.62 169.873 21.38 170.653 21.3C170.593 21.9 170.533 22.64 170.533 23.2H173.493C173.253 24.58 172.813 24.64 172.413 24.68C171.973 24.72 171.333 24.76 170.493 24.76C170.413 26.4 170.433 28.34 170.493 29.18C170.593 30.16 171.153 30.52 171.833 30.52C172.413 30.52 172.973 30.3 173.233 30.16ZM176.538 18.78C177.298 18.78 177.778 19.32 177.778 20.06C177.778 20.82 177.238 21.42 176.478 21.42C175.858 21.42 175.198 21.06 175.198 20.12C175.198 19.16 176.018 18.78 176.538 18.78ZM177.718 24.32V31.52C177.718 31.88 177.558 31.98 177.118 32.04C176.718 32.1 175.998 32.12 175.218 32.12C175.238 31.3 175.278 30.14 175.278 28.96V25.56C175.278 24.32 175.238 23.7 175.198 23.32C175.658 23.18 176.938 23.08 177.338 23.08C177.638 23.08 177.718 23.18 177.718 24.32ZM181.611 22.96C181.911 22.96 182.071 23.14 182.151 23.42C182.631 24.76 183.411 27 184.131 29.38C184.931 27.08 185.851 24.58 186.351 22.96C186.911 22.96 187.391 23.06 187.871 23.28C188.291 23.46 188.191 23.9 187.911 24.6C187.071 26.7 185.931 29.42 185.091 31.52C184.971 31.84 184.791 31.96 184.491 32.04C183.991 32.16 183.311 32.24 182.911 32.24C182.251 30.28 181.511 28.4 180.611 26.02C180.211 24.96 179.891 24.18 179.571 23.44C180.031 23.2 181.091 22.96 181.611 22.96ZM196.784 29.98L196.824 30.02C196.824 30.9 196.124 31.72 195.784 31.88C195.484 32.02 194.624 32.24 193.924 32.24C191.024 32.24 189.404 30.64 189.404 27.7C189.404 25.28 190.984 22.96 193.704 22.96C196.224 22.96 197.204 24.78 197.224 26.4C197.224 26.68 197.204 26.9 197.164 27.06C197.064 27.36 196.304 27.66 195.484 27.86C194.984 27.96 192.904 27.98 191.824 27.94C191.924 29.7 193.184 30.44 194.544 30.44C195.504 30.44 196.444 30.14 196.784 29.98ZM193.504 24.36C192.724 24.36 191.924 25.06 191.844 26.56C192.664 26.62 194.204 26.6 194.684 26.56C194.824 26.56 194.944 26.36 194.944 26.14C194.944 25.16 194.504 24.36 193.504 24.36Z" fill="#0F0F0F"/>
</svg>
