<svg width="428" height="212" viewBox="0 0 428 212" fill="none" xmlns="http://www.w3.org/2000/svg">
<path d="M400.456 175.073C401.855 159.388 395.616 145.807 384.68 140.356C379.42 137.738 369.809 135.353 364.892 139.867C355.606 148.397 370.121 175.299 371.23 177.32C379.529 192.408 391.448 201.23 398.996 205.839" fill="#7AAB99" fill-opacity="0.5"/>
<path d="M86.068 163.082C87.4664 147.397 81.2274 133.816 70.2918 128.365C65.0314 125.747 55.4206 123.362 50.5043 127.876C41.218 136.406 55.7325 163.308 56.8419 165.328C65.1409 180.417 77.0597 189.239 84.6077 193.848" fill="#7AAB99" fill-opacity="0.5"/>
<path d="M227.468 48.2599C232.397 33.3036 229.41 18.6598 220.001 10.8647C215.474 7.11872 206.657 2.6111 200.843 5.88834C189.86 12.0833 197.876 41.5813 198.497 43.8009C203.147 60.3812 212.747 71.6832 219.05 77.8873" fill="#7AAB99" fill-opacity="0.5"/>
<path d="M344.951 149.855C349.88 134.898 346.893 120.255 337.484 112.459C332.956 108.713 324.14 104.206 318.326 107.483C307.343 113.678 315.359 143.176 315.98 145.396C320.63 161.976 330.23 173.278 336.532 179.482" fill="#7AAB99" fill-opacity="0.5"/>
<path d="M181.761 111.274C186.69 96.3173 183.703 81.6735 174.294 73.8784C169.766 70.1324 160.95 65.6248 155.136 68.902C144.153 75.097 152.169 104.595 152.79 106.815C157.44 123.395 167.04 134.697 173.342 140.901" fill="#7AAB99" fill-opacity="0.5"/>
<path d="M227.642 168.104C232.571 153.147 229.584 138.504 220.174 130.708C215.647 126.962 206.831 122.455 201.017 125.732C190.034 131.927 198.05 161.425 198.671 163.645C203.321 180.225 212.921 191.527 219.223 197.731" fill="#7AAB99" fill-opacity="0.5"/>
<path d="M266.116 118.212C275.015 105.22 276.224 90.3235 269.358 80.2165C266.053 75.3579 258.841 68.5733 252.344 70.1018C240.07 72.9931 239.555 103.557 239.533 105.861C239.382 123.081 245.455 136.609 249.78 144.323" fill="#7AAB99" fill-opacity="0.5"/>
<path d="M420.442 102.049C429.341 89.0568 430.551 74.1604 423.684 64.0534C420.38 59.1948 413.167 52.4102 406.67 53.9387C394.397 56.83 393.881 87.3934 393.859 89.6982C393.708 106.918 399.781 120.446 404.106 128.16" fill="#7AAB99" fill-opacity="0.5"/>
<path d="M317.496 52.1815C328.329 40.7518 331.867 26.2314 326.677 15.1697C324.178 9.85159 318.123 2.01645 311.467 2.50351C298.891 3.42726 293.572 33.5287 293.188 35.8013C290.329 52.7823 294.197 67.0978 297.254 75.3961" fill="#7AAB99" fill-opacity="0.5"/>
<path d="M75.9782 51.918C86.4317 40.1404 89.4937 25.5121 83.9448 14.6259C81.2733 9.39233 74.9655 1.75923 68.3288 2.46354C55.7899 3.79774 51.4573 34.0569 51.1476 36.3409C48.8449 53.4062 53.1788 67.5877 56.5057 75.7816" fill="#7AAB99" fill-opacity="0.5"/>
<path d="M29.1373 116.68C38.6591 104.137 40.5929 89.3178 34.2274 78.8881C31.1633 73.8742 24.29 66.7461 17.7266 67.9561C5.32658 70.2457 3.3217 100.748 3.18764 103.049C2.19733 120.24 7.60357 134.048 11.5476 141.964" fill="#7AAB99" fill-opacity="0.5"/>
<path d="M119.787 91.2252C129.309 78.6824 131.243 63.8627 124.878 53.433C121.813 48.4191 114.94 41.291 108.377 42.501C95.9767 44.7906 93.9719 75.2926 93.8378 77.5935C92.8475 94.785 98.2537 108.593 102.198 116.509" fill="#7AAB99" fill-opacity="0.5"/>
</svg>
