<svg width="274" height="142" viewBox="0 0 274 142" fill="none" xmlns="http://www.w3.org/2000/svg">
<g filter="url(#filter0_d_318_956)">
<rect x="4" y="40.0002" width="266" height="96" rx="20" fill="#F3FFF6"/>
<path d="M23.056 66.8802L22.064 68.7842L21.568 68.9122C21.6213 68.7949 21.6853 68.6989 21.76 68.6242C21.8453 68.5496 21.9413 68.5122 22.048 68.5122C22.272 68.5122 22.4747 68.6029 22.656 68.7842C22.848 68.9656 22.944 69.2002 22.944 69.4882C22.944 69.7762 22.8373 70.0322 22.624 70.2562C22.4213 70.4696 22.176 70.5762 21.888 70.5762C21.6 70.5762 21.3493 70.4696 21.136 70.2562C20.9227 70.0429 20.816 69.7869 20.816 69.4882C20.816 69.3602 20.8427 69.2162 20.896 69.0562C20.9493 68.8856 21.04 68.6722 21.168 68.4162L22.24 66.4322L23.056 66.8802ZM26 66.8802L25.008 68.7842L24.512 68.9122C24.5653 68.7949 24.6293 68.6989 24.704 68.6242C24.7893 68.5496 24.8853 68.5122 24.992 68.5122C25.216 68.5122 25.4187 68.6029 25.6 68.7842C25.792 68.9656 25.888 69.2002 25.888 69.4882C25.888 69.7762 25.7813 70.0322 25.568 70.2562C25.3653 70.4696 25.12 70.5762 24.832 70.5762C24.544 70.5762 24.2933 70.4696 24.08 70.2562C23.8667 70.0429 23.76 69.7869 23.76 69.4882C23.76 69.3602 23.7867 69.2162 23.84 69.0562C23.8933 68.8856 23.984 68.6722 24.112 68.4162L25.184 66.4322L26 66.8802ZM28.2903 78.0002V66.8962H29.7943V78.0002H28.2903ZM41.0074 78.0002V73.5682C41.0074 72.9922 40.826 72.5176 40.4634 72.1442C40.1007 71.7709 39.6314 71.5842 39.0554 71.5842C38.6714 71.5842 38.33 71.6696 38.0314 71.8402C37.7327 72.0109 37.498 72.2456 37.3274 72.5442C37.1567 72.8429 37.0714 73.1842 37.0714 73.5682L36.4794 73.2322C36.4794 72.6562 36.6074 72.1442 36.8634 71.6962C37.1194 71.2482 37.4767 70.8962 37.9354 70.6402C38.394 70.3736 38.9114 70.2402 39.4874 70.2402C40.0634 70.2402 40.57 70.3842 41.0074 70.6722C41.4554 70.9602 41.8074 71.3389 42.0634 71.8082C42.3194 72.2669 42.4474 72.7576 42.4474 73.2802V78.0002H41.0074ZM35.6314 78.0002V70.4002H37.0714V78.0002H35.6314ZM47.989 78.1602C47.2317 78.1602 46.549 77.9896 45.941 77.6482C45.333 77.2962 44.853 76.8216 44.501 76.2242C44.149 75.6269 43.973 74.9496 43.973 74.1922C43.973 73.4456 44.1437 72.7736 44.485 72.1762C44.837 71.5789 45.3063 71.1096 45.893 70.7682C46.4903 70.4162 47.157 70.2402 47.893 70.2402C48.597 70.2402 49.2157 70.4002 49.749 70.7202C50.293 71.0402 50.7143 71.4829 51.013 72.0482C51.3223 72.6136 51.477 73.2536 51.477 73.9682C51.477 74.0749 51.4717 74.1922 51.461 74.3202C51.4503 74.4376 51.429 74.5762 51.397 74.7362H44.981V73.5362H50.629L50.101 74.0002C50.101 73.4882 50.0103 73.0562 49.829 72.7042C49.6477 72.3416 49.3917 72.0642 49.061 71.8722C48.7303 71.6696 48.3303 71.5682 47.861 71.5682C47.3703 71.5682 46.9383 71.6749 46.565 71.8882C46.1917 72.1016 45.9037 72.4002 45.701 72.7842C45.4983 73.1682 45.397 73.6216 45.397 74.1442C45.397 74.6776 45.5037 75.1469 45.717 75.5522C45.9303 75.9469 46.2343 76.2562 46.629 76.4802C47.0237 76.6936 47.477 76.8002 47.989 76.8002C48.4157 76.8002 48.805 76.7256 49.157 76.5762C49.5197 76.4269 49.829 76.2029 50.085 75.9042L51.013 76.8482C50.6503 77.2749 50.2023 77.6002 49.669 77.8242C49.1463 78.0482 48.5863 78.1602 47.989 78.1602ZM56.6391 78.1602C55.8818 78.1602 55.1991 77.9896 54.5911 77.6482C53.9831 77.2962 53.5031 76.8216 53.1511 76.2242C52.7991 75.6269 52.6231 74.9496 52.6231 74.1922C52.6231 73.4456 52.7938 72.7736 53.1351 72.1762C53.4871 71.5789 53.9565 71.1096 54.5431 70.7682C55.1405 70.4162 55.8071 70.2402 56.5431 70.2402C57.2471 70.2402 57.8658 70.4002 58.3991 70.7202C58.9431 71.0402 59.3645 71.4829 59.6631 72.0482C59.9725 72.6136 60.1271 73.2536 60.1271 73.9682C60.1271 74.0749 60.1218 74.1922 60.1111 74.3202C60.1005 74.4376 60.0791 74.5762 60.0471 74.7362H53.6311V73.5362H59.2791L58.7511 74.0002C58.7511 73.4882 58.6605 73.0562 58.4791 72.7042C58.2978 72.3416 58.0418 72.0642 57.7111 71.8722C57.3805 71.6696 56.9805 71.5682 56.5111 71.5682C56.0205 71.5682 55.5885 71.6749 55.2151 71.8882C54.8418 72.1016 54.5538 72.4002 54.3511 72.7842C54.1485 73.1682 54.0471 73.6216 54.0471 74.1442C54.0471 74.6776 54.1538 75.1469 54.3671 75.5522C54.5805 75.9469 54.8845 76.2562 55.2791 76.4802C55.6738 76.6936 56.1271 76.8002 56.6391 76.8002C57.0658 76.8002 57.4551 76.7256 57.8071 76.5762C58.1698 76.4269 58.4791 76.2029 58.7351 75.9042L59.6631 76.8482C59.3005 77.2749 58.8525 77.6002 58.3191 77.8242C57.7965 78.0482 57.2365 78.1602 56.6391 78.1602ZM64.9852 78.1602C64.2812 78.1602 63.6519 77.9896 63.0972 77.6482C62.5426 77.2962 62.0999 76.8216 61.7692 76.2242C61.4492 75.6269 61.2892 74.9549 61.2892 74.2082C61.2892 73.4616 61.4492 72.7896 61.7692 72.1922C62.0999 71.5949 62.5426 71.1202 63.0972 70.7682C63.6519 70.4162 64.2812 70.2402 64.9852 70.2402C65.5506 70.2402 66.0626 70.3629 66.5212 70.6082C66.9799 70.8429 67.3479 71.1736 67.6252 71.6002C67.9132 72.0162 68.0732 72.5016 68.1052 73.0562V75.3442C68.0732 75.8882 67.9186 76.3736 67.6412 76.8002C67.3639 77.2269 66.9959 77.5629 66.5372 77.8082C66.0786 78.0429 65.5612 78.1602 64.9852 78.1602ZM65.2252 76.8002C65.7052 76.8002 66.1212 76.6882 66.4732 76.4642C66.8359 76.2402 67.1186 75.9362 67.3212 75.5522C67.5239 75.1576 67.6252 74.7096 67.6252 74.2082C67.6252 73.6856 67.5186 73.2322 67.3052 72.8482C67.1026 72.4642 66.8199 72.1602 66.4572 71.9362C66.1052 71.7122 65.6892 71.6002 65.2092 71.6002C64.7292 71.6002 64.3079 71.7122 63.9452 71.9362C63.5826 72.1602 63.2946 72.4696 63.0812 72.8642C62.8786 73.2482 62.7772 73.6909 62.7772 74.1922C62.7772 74.7042 62.8786 75.1576 63.0812 75.5522C63.2946 75.9362 63.5826 76.2402 63.9452 76.4642C64.3186 76.6882 64.7452 76.8002 65.2252 76.8002ZM68.9852 78.0002H67.5292V75.9522L67.8012 74.0962L67.5292 72.2562V66.5762H68.9852V78.0002ZM76.9699 78.1602C76.5432 78.1602 76.1379 78.1069 75.7539 78.0002C75.3805 77.8829 75.0339 77.7229 74.7139 77.5202C74.3939 77.3069 74.1165 77.0562 73.8819 76.7682L74.8099 75.8402C75.0872 76.1816 75.4072 76.4376 75.7699 76.6082C76.1325 76.7682 76.5379 76.8482 76.9859 76.8482C77.4339 76.8482 77.7805 76.7736 78.0259 76.6242C78.2712 76.4642 78.3939 76.2456 78.3939 75.9682C78.3939 75.6909 78.2925 75.4776 78.0899 75.3282C77.8979 75.1682 77.6472 75.0402 77.3379 74.9442C77.0285 74.8376 76.6979 74.7362 76.3459 74.6402C76.0045 74.5336 75.6792 74.4002 75.3699 74.2402C75.0605 74.0802 74.8045 73.8616 74.6019 73.5842C74.4099 73.3069 74.3139 72.9389 74.3139 72.4802C74.3139 72.0216 74.4259 71.6269 74.6499 71.2962C74.8739 70.9549 75.1832 70.6936 75.5779 70.5122C75.9832 70.3309 76.4685 70.2402 77.0339 70.2402C77.6312 70.2402 78.1592 70.3469 78.6179 70.5602C79.0872 70.7629 79.4712 71.0722 79.7699 71.4882L78.8419 72.4162C78.6285 72.1389 78.3619 71.9256 78.0419 71.7762C77.7325 71.6269 77.3805 71.5522 76.9859 71.5522C76.5699 71.5522 76.2499 71.6269 76.0259 71.7762C75.8125 71.9149 75.7059 72.1122 75.7059 72.3682C75.7059 72.6242 75.8019 72.8216 75.9939 72.9602C76.1859 73.0989 76.4365 73.2162 76.7459 73.3122C77.0659 73.4082 77.3965 73.5096 77.7379 73.6162C78.0792 73.7122 78.4045 73.8456 78.7139 74.0162C79.0232 74.1869 79.2739 74.4162 79.4659 74.7042C79.6685 74.9922 79.7699 75.3709 79.7699 75.8402C79.7699 76.5549 79.5139 77.1202 79.0019 77.5362C78.5005 77.9522 77.8232 78.1602 76.9699 78.1602ZM84.926 78.1602C84.1793 78.1602 83.5073 77.9842 82.91 77.6322C82.3127 77.2802 81.838 76.8056 81.486 76.2082C81.134 75.6002 80.958 74.9229 80.958 74.1762C80.958 73.4402 81.134 72.7789 81.486 72.1922C81.838 71.5949 82.3127 71.1202 82.91 70.7682C83.5073 70.4162 84.1793 70.2402 84.926 70.2402C85.662 70.2402 86.3287 70.4162 86.926 70.7682C87.534 71.1096 88.014 71.5789 88.366 72.1762C88.718 72.7736 88.894 73.4402 88.894 74.1762C88.894 74.9229 88.718 75.6002 88.366 76.2082C88.014 76.8056 87.534 77.2802 86.926 77.6322C86.3287 77.9842 85.662 78.1602 84.926 78.1602ZM84.926 76.7682C85.406 76.7682 85.8327 76.6562 86.206 76.4322C86.5793 76.2082 86.8727 75.9042 87.086 75.5202C87.2993 75.1256 87.406 74.6776 87.406 74.1762C87.406 73.6856 87.294 73.2482 87.07 72.8642C86.8567 72.4802 86.5633 72.1816 86.19 71.9682C85.8273 71.7442 85.406 71.6322 84.926 71.6322C84.446 71.6322 84.0193 71.7442 83.646 71.9682C83.2727 72.1816 82.9793 72.4802 82.766 72.8642C82.5527 73.2482 82.446 73.6856 82.446 74.1762C82.446 74.6776 82.5527 75.1256 82.766 75.5202C82.9793 75.9042 83.2727 76.2082 83.646 76.4322C84.0193 76.6562 84.446 76.7682 84.926 76.7682ZM90.5885 78.0002V70.4002H92.0285V78.0002H90.5885ZM95.7245 78.0002V73.4082C95.7245 72.8429 95.5485 72.4002 95.1965 72.0802C94.8552 71.7496 94.4232 71.5842 93.9005 71.5842C93.5485 71.5842 93.2338 71.6589 92.9565 71.8082C92.6792 71.9576 92.4552 72.1656 92.2845 72.4322C92.1138 72.6989 92.0285 73.0189 92.0285 73.3922L91.4365 73.1042C91.4365 72.5282 91.5592 72.0269 91.8045 71.6002C92.0605 71.1736 92.4072 70.8429 92.8445 70.6082C93.2818 70.3629 93.7725 70.2402 94.3165 70.2402C94.8498 70.2402 95.3298 70.3576 95.7565 70.5922C96.1938 70.8269 96.5352 71.1576 96.7805 71.5842C97.0365 72.0109 97.1645 72.5176 97.1645 73.1042V78.0002H95.7245ZM100.861 78.0002V73.4082C100.861 72.8429 100.685 72.4002 100.333 72.0802C99.9912 71.7496 99.5645 71.5842 99.0525 71.5842C98.7005 71.5842 98.3805 71.6589 98.0925 71.8082C97.8152 71.9576 97.5912 72.1656 97.4205 72.4322C97.2498 72.6989 97.1645 73.0189 97.1645 73.3922L96.3485 73.1042C96.3805 72.5176 96.5352 72.0162 96.8125 71.6002C97.1005 71.1736 97.4685 70.8429 97.9165 70.6082C98.3645 70.3629 98.8552 70.2402 99.3885 70.2402C99.9432 70.2402 100.439 70.3576 100.877 70.5922C101.314 70.8269 101.661 71.1576 101.917 71.5842C102.183 72.0109 102.317 72.5229 102.317 73.1202V78.0002H100.861ZM107.868 78.1602C107.111 78.1602 106.428 77.9896 105.82 77.6482C105.212 77.2962 104.732 76.8216 104.38 76.2242C104.028 75.6269 103.852 74.9496 103.852 74.1922C103.852 73.4456 104.023 72.7736 104.364 72.1762C104.716 71.5789 105.185 71.1096 105.772 70.7682C106.369 70.4162 107.036 70.2402 107.772 70.2402C108.476 70.2402 109.095 70.4002 109.628 70.7202C110.172 71.0402 110.593 71.4829 110.892 72.0482C111.201 72.6136 111.356 73.2536 111.356 73.9682C111.356 74.0749 111.351 74.1922 111.34 74.3202C111.329 74.4376 111.308 74.5762 111.276 74.7362H104.86V73.5362H110.508L109.98 74.0002C109.98 73.4882 109.889 73.0562 109.708 72.7042C109.527 72.3416 109.271 72.0642 108.94 71.8722C108.609 71.6696 108.209 71.5682 107.74 71.5682C107.249 71.5682 106.817 71.6749 106.444 71.8882C106.071 72.1016 105.783 72.4002 105.58 72.7842C105.377 73.1682 105.276 73.6216 105.276 74.1442C105.276 74.6776 105.383 75.1469 105.596 75.5522C105.809 75.9469 106.113 76.2562 106.508 76.4802C106.903 76.6936 107.356 76.8002 107.868 76.8002C108.295 76.8002 108.684 76.7256 109.036 76.5762C109.399 76.4269 109.708 76.2029 109.964 75.9042L110.892 76.8482C110.529 77.2749 110.081 77.6002 109.548 77.8242C109.025 78.0482 108.465 78.1602 107.868 78.1602ZM113.932 78.0002V67.2162H115.372V78.0002H113.932ZM112.06 71.7122V70.4002H117.244V71.7122H112.06ZM124.102 78.0002V73.5682C124.102 72.9922 123.921 72.5176 123.558 72.1442C123.196 71.7709 122.726 71.5842 122.15 71.5842C121.766 71.5842 121.425 71.6696 121.126 71.8402C120.828 72.0109 120.593 72.2456 120.422 72.5442C120.252 72.8429 120.166 73.1842 120.166 73.5682L119.574 73.2322C119.574 72.6562 119.702 72.1442 119.958 71.6962C120.214 71.2482 120.572 70.8962 121.03 70.6402C121.489 70.3736 122.006 70.2402 122.582 70.2402C123.158 70.2402 123.665 70.3682 124.102 70.6242C124.55 70.8802 124.902 71.2376 125.158 71.6962C125.414 72.1549 125.542 72.6829 125.542 73.2802V78.0002H124.102ZM118.726 78.0002V66.5762H120.166V78.0002H118.726ZM127.58 78.0002V70.4002H129.02V78.0002H127.58ZM128.3 68.8802C128.033 68.8802 127.815 68.7949 127.644 68.6242C127.473 68.4429 127.388 68.2189 127.388 67.9522C127.388 67.6962 127.473 67.4829 127.644 67.3122C127.815 67.1309 128.033 67.0402 128.3 67.0402C128.567 67.0402 128.785 67.1309 128.956 67.3122C129.127 67.4829 129.212 67.6962 129.212 67.9522C129.212 68.2189 129.127 68.4429 128.956 68.6242C128.785 68.7949 128.567 68.8802 128.3 68.8802ZM136.59 78.0002V73.5682C136.59 72.9922 136.409 72.5176 136.046 72.1442C135.683 71.7709 135.214 71.5842 134.638 71.5842C134.254 71.5842 133.913 71.6696 133.614 71.8402C133.315 72.0109 133.081 72.2456 132.91 72.5442C132.739 72.8429 132.654 73.1842 132.654 73.5682L132.062 73.2322C132.062 72.6562 132.19 72.1442 132.446 71.6962C132.702 71.2482 133.059 70.8962 133.518 70.6402C133.977 70.3736 134.494 70.2402 135.07 70.2402C135.646 70.2402 136.153 70.3842 136.59 70.6722C137.038 70.9602 137.39 71.3389 137.646 71.8082C137.902 72.2669 138.03 72.7576 138.03 73.2802V78.0002H136.59ZM131.214 78.0002V70.4002H132.654V78.0002H131.214ZM143.204 81.3442C142.425 81.3442 141.732 81.2002 141.124 80.9122C140.526 80.6242 140.046 80.2189 139.684 79.6962L140.612 78.7522C140.921 79.1469 141.289 79.4456 141.716 79.6482C142.142 79.8616 142.649 79.9682 143.236 79.9682C144.014 79.9682 144.628 79.7602 145.076 79.3442C145.534 78.9389 145.764 78.3896 145.764 77.6962V75.8082L146.02 74.0962L145.764 72.4002V70.4002H147.204V77.6962C147.204 78.4216 147.033 79.0562 146.692 79.6002C146.361 80.1442 145.892 80.5709 145.284 80.8802C144.686 81.1896 143.993 81.3442 143.204 81.3442ZM143.204 77.8722C142.51 77.8722 141.886 77.7069 141.332 77.3762C140.788 77.0456 140.356 76.5922 140.036 76.0162C139.716 75.4296 139.556 74.7736 139.556 74.0482C139.556 73.3229 139.716 72.6776 140.036 72.1122C140.356 71.5362 140.788 71.0829 141.332 70.7522C141.886 70.4109 142.51 70.2402 143.204 70.2402C143.801 70.2402 144.329 70.3576 144.788 70.5922C145.246 70.8269 145.609 71.1576 145.876 71.5842C146.153 72.0002 146.302 72.4909 146.324 73.0562V75.0722C146.292 75.6269 146.137 76.1176 145.86 76.5442C145.593 76.9602 145.23 77.2856 144.772 77.5202C144.313 77.7549 143.79 77.8722 143.204 77.8722ZM143.492 76.5122C143.961 76.5122 144.372 76.4109 144.724 76.2082C145.086 76.0056 145.364 75.7229 145.556 75.3602C145.748 74.9869 145.844 74.5549 145.844 74.0642C145.844 73.5736 145.742 73.1469 145.54 72.7842C145.348 72.4109 145.076 72.1229 144.724 71.9202C144.372 71.7069 143.956 71.6002 143.476 71.6002C142.996 71.6002 142.574 71.7069 142.212 71.9202C141.849 72.1229 141.561 72.4109 141.348 72.7842C141.145 73.1469 141.044 73.5682 141.044 74.0482C141.044 74.5282 141.145 74.9549 141.348 75.3282C141.561 75.7016 141.849 75.9949 142.212 76.2082C142.585 76.4109 143.012 76.5122 143.492 76.5122ZM153.958 78.0002V67.2162H155.398V78.0002H153.958ZM152.086 71.7122V70.4002H157.27V71.7122H152.086ZM164.128 78.0002V73.5682C164.128 72.9922 163.947 72.5176 163.584 72.1442C163.221 71.7709 162.752 71.5842 162.176 71.5842C161.792 71.5842 161.451 71.6696 161.152 71.8402C160.853 72.0109 160.619 72.2456 160.448 72.5442C160.277 72.8429 160.192 73.1842 160.192 73.5682L159.6 73.2322C159.6 72.6562 159.728 72.1442 159.984 71.6962C160.24 71.2482 160.597 70.8962 161.056 70.6402C161.515 70.3736 162.032 70.2402 162.608 70.2402C163.184 70.2402 163.691 70.3682 164.128 70.6242C164.576 70.8802 164.928 71.2376 165.184 71.6962C165.44 72.1549 165.568 72.6829 165.568 73.2802V78.0002H164.128ZM158.752 78.0002V66.5762H160.192V78.0002H158.752ZM170.822 78.1602C170.128 78.1602 169.499 77.9896 168.934 77.6482C168.368 77.2962 167.92 76.8216 167.59 76.2242C167.27 75.6269 167.11 74.9549 167.11 74.2082C167.11 73.4616 167.27 72.7896 167.59 72.1922C167.92 71.5949 168.363 71.1202 168.918 70.7682C169.483 70.4162 170.118 70.2402 170.822 70.2402C171.398 70.2402 171.91 70.3629 172.358 70.6082C172.816 70.8429 173.184 71.1736 173.462 71.6002C173.739 72.0162 173.894 72.5016 173.926 73.0562V75.3442C173.894 75.8882 173.739 76.3736 173.462 76.8002C173.195 77.2269 172.832 77.5629 172.374 77.8082C171.926 78.0429 171.408 78.1602 170.822 78.1602ZM171.062 76.8002C171.776 76.8002 172.352 76.5602 172.79 76.0802C173.227 75.5896 173.446 74.9656 173.446 74.2082C173.446 73.6856 173.344 73.2322 173.142 72.8482C172.95 72.4536 172.672 72.1496 172.31 71.9362C171.947 71.7122 171.526 71.6002 171.046 71.6002C170.566 71.6002 170.139 71.7122 169.766 71.9362C169.403 72.1602 169.115 72.4696 168.902 72.8642C168.699 73.2482 168.598 73.6909 168.598 74.1922C168.598 74.7042 168.699 75.1576 168.902 75.5522C169.115 75.9362 169.408 76.2402 169.782 76.4642C170.155 76.6882 170.582 76.8002 171.062 76.8002ZM173.35 78.0002V75.9522L173.622 74.0962L173.35 72.2562V70.4002H174.806V78.0002H173.35ZM178.111 78.0002V67.2162H179.551V78.0002H178.111ZM176.239 71.7122V70.4002H181.423V71.7122H176.239ZM183.059 70.4322L184.051 68.5282L184.563 68.4002C184.51 68.5176 184.44 68.6136 184.355 68.6882C184.28 68.7629 184.184 68.8002 184.067 68.8002C183.843 68.8002 183.635 68.7096 183.443 68.5282C183.262 68.3362 183.171 68.1016 183.171 67.8242C183.171 67.5256 183.272 67.2696 183.475 67.0562C183.688 66.8429 183.944 66.7362 184.243 66.7362C184.52 66.7362 184.766 66.8429 184.979 67.0562C185.192 67.2696 185.299 67.5256 185.299 67.8242C185.299 67.9416 185.272 68.0856 185.219 68.2562C185.176 68.4162 185.086 68.6296 184.947 68.8962L183.891 70.8802L183.059 70.4322ZM188.519 78.1602C188.092 78.1602 187.687 78.1069 187.303 78.0002C186.929 77.8829 186.583 77.7229 186.263 77.5202C185.943 77.3069 185.665 77.0562 185.431 76.7682L186.359 75.8402C186.636 76.1816 186.956 76.4376 187.319 76.6082C187.681 76.7682 188.087 76.8482 188.535 76.8482C188.983 76.8482 189.329 76.7736 189.575 76.6242C189.82 76.4642 189.943 76.2456 189.943 75.9682C189.943 75.6909 189.841 75.4776 189.639 75.3282C189.447 75.1682 189.196 75.0402 188.887 74.9442C188.577 74.8376 188.247 74.7362 187.895 74.6402C187.553 74.5336 187.228 74.4002 186.919 74.2402C186.609 74.0802 186.353 73.8616 186.151 73.5842C185.959 73.3069 185.863 72.9389 185.863 72.4802C185.863 72.0216 185.975 71.6269 186.199 71.2962C186.423 70.9549 186.732 70.6936 187.127 70.5122C187.532 70.3309 188.017 70.2402 188.583 70.2402C189.18 70.2402 189.708 70.3469 190.167 70.5602C190.636 70.7629 191.02 71.0722 191.319 71.4882L190.391 72.4162C190.177 72.1389 189.911 71.9256 189.591 71.7762C189.281 71.6269 188.929 71.5522 188.535 71.5522C188.119 71.5522 187.799 71.6269 187.575 71.7762C187.361 71.9149 187.255 72.1122 187.255 72.3682C187.255 72.6242 187.351 72.8216 187.543 72.9602C187.735 73.0989 187.985 73.2162 188.295 73.3122C188.615 73.4082 188.945 73.5096 189.287 73.6162C189.628 73.7122 189.953 73.8456 190.263 74.0162C190.572 74.1869 190.823 74.4162 191.015 74.7042C191.217 74.9922 191.319 75.3709 191.319 75.8402C191.319 76.5549 191.063 77.1202 190.551 77.5362C190.049 77.9522 189.372 78.1602 188.519 78.1602ZM199.923 78.1602C199.166 78.1602 198.483 77.9896 197.875 77.6482C197.267 77.2962 196.787 76.8216 196.435 76.2242C196.083 75.6269 195.907 74.9496 195.907 74.1922C195.907 73.4456 196.078 72.7736 196.419 72.1762C196.771 71.5789 197.24 71.1096 197.827 70.7682C198.424 70.4162 199.091 70.2402 199.827 70.2402C200.531 70.2402 201.15 70.4002 201.683 70.7202C202.227 71.0402 202.648 71.4829 202.947 72.0482C203.256 72.6136 203.411 73.2536 203.411 73.9682C203.411 74.0749 203.406 74.1922 203.395 74.3202C203.384 74.4376 203.363 74.5762 203.331 74.7362H196.915V73.5362H202.563L202.035 74.0002C202.035 73.4882 201.944 73.0562 201.763 72.7042C201.582 72.3416 201.326 72.0642 200.995 71.8722C200.664 71.6696 200.264 71.5682 199.795 71.5682C199.304 71.5682 198.872 71.6749 198.499 71.8882C198.126 72.1016 197.838 72.4002 197.635 72.7842C197.432 73.1682 197.331 73.6216 197.331 74.1442C197.331 74.6776 197.438 75.1469 197.651 75.5522C197.864 75.9469 198.168 76.2562 198.563 76.4802C198.958 76.6936 199.411 76.8002 199.923 76.8002C200.35 76.8002 200.739 76.7256 201.091 76.5762C201.454 76.4269 201.763 76.2029 202.019 75.9042L202.947 76.8482C202.584 77.2749 202.136 77.6002 201.603 77.8242C201.08 78.0482 200.52 78.1602 199.923 78.1602ZM208.285 78.1602C207.592 78.1602 206.962 77.9896 206.397 77.6482C205.832 77.2962 205.384 76.8216 205.053 76.2242C204.733 75.6269 204.573 74.9549 204.573 74.2082C204.573 73.4616 204.733 72.7896 205.053 72.1922C205.384 71.5949 205.826 71.1202 206.381 70.7682C206.946 70.4162 207.581 70.2402 208.285 70.2402C208.861 70.2402 209.373 70.3629 209.821 70.6082C210.28 70.8429 210.648 71.1736 210.925 71.6002C211.202 72.0162 211.357 72.5016 211.389 73.0562V75.3442C211.357 75.8882 211.202 76.3736 210.925 76.8002C210.658 77.2269 210.296 77.5629 209.837 77.8082C209.389 78.0429 208.872 78.1602 208.285 78.1602ZM208.525 76.8002C209.24 76.8002 209.816 76.5602 210.253 76.0802C210.69 75.5896 210.909 74.9656 210.909 74.2082C210.909 73.6856 210.808 73.2322 210.605 72.8482C210.413 72.4536 210.136 72.1496 209.773 71.9362C209.41 71.7122 208.989 71.6002 208.509 71.6002C208.029 71.6002 207.602 71.7122 207.229 71.9362C206.866 72.1602 206.578 72.4696 206.365 72.8642C206.162 73.2482 206.061 73.6909 206.061 74.1922C206.061 74.7042 206.162 75.1576 206.365 75.5522C206.578 75.9362 206.872 76.2402 207.245 76.4642C207.618 76.6882 208.045 76.8002 208.525 76.8002ZM210.813 78.0002V75.9522L211.085 74.0962L210.813 72.2562V70.4002H212.269V78.0002H210.813ZM216.854 78.1602C216.427 78.1602 216.022 78.1069 215.638 78.0002C215.264 77.8829 214.918 77.7229 214.598 77.5202C214.278 77.3069 214 77.0562 213.766 76.7682L214.694 75.8402C214.971 76.1816 215.291 76.4376 215.654 76.6082C216.016 76.7682 216.422 76.8482 216.87 76.8482C217.318 76.8482 217.664 76.7736 217.91 76.6242C218.155 76.4642 218.278 76.2456 218.278 75.9682C218.278 75.6909 218.176 75.4776 217.974 75.3282C217.782 75.1682 217.531 75.0402 217.222 74.9442C216.912 74.8376 216.582 74.7362 216.23 74.6402C215.888 74.5336 215.563 74.4002 215.254 74.2402C214.944 74.0802 214.688 73.8616 214.486 73.5842C214.294 73.3069 214.198 72.9389 214.198 72.4802C214.198 72.0216 214.31 71.6269 214.534 71.2962C214.758 70.9549 215.067 70.6936 215.462 70.5122C215.867 70.3309 216.352 70.2402 216.918 70.2402C217.515 70.2402 218.043 70.3469 218.502 70.5602C218.971 70.7629 219.355 71.0722 219.654 71.4882L218.726 72.4162C218.512 72.1389 218.246 71.9256 217.926 71.7762C217.616 71.6269 217.264 71.5522 216.87 71.5522C216.454 71.5522 216.134 71.6269 215.91 71.7762C215.696 71.9149 215.59 72.1122 215.59 72.3682C215.59 72.6242 215.686 72.8216 215.878 72.9602C216.07 73.0989 216.32 73.2162 216.63 73.3122C216.95 73.4082 217.28 73.5096 217.622 73.6162C217.963 73.7122 218.288 73.8456 218.598 74.0162C218.907 74.1869 219.158 74.4162 219.35 74.7042C219.552 74.9922 219.654 75.3709 219.654 75.8402C219.654 76.5549 219.398 77.1202 218.886 77.5362C218.384 77.9522 217.707 78.1602 216.854 78.1602ZM223.834 78.0642L220.538 70.4002H222.138L224.586 76.4002H224.074L226.65 70.4002H228.25L224.698 78.0642H223.834ZM221.658 81.1842L223.898 76.5922L224.698 78.0642L223.258 81.1842H221.658ZM234.197 78.0002V67.2162H235.637V78.0002H234.197ZM232.325 71.7122V70.4002H237.509V71.7122H232.325ZM242.229 78.1602C241.482 78.1602 240.81 77.9842 240.213 77.6322C239.615 77.2802 239.141 76.8056 238.789 76.2082C238.437 75.6002 238.261 74.9229 238.261 74.1762C238.261 73.4402 238.437 72.7789 238.789 72.1922C239.141 71.5949 239.615 71.1202 240.213 70.7682C240.81 70.4162 241.482 70.2402 242.229 70.2402C242.965 70.2402 243.631 70.4162 244.229 70.7682C244.837 71.1096 245.317 71.5789 245.669 72.1762C246.021 72.7736 246.197 73.4402 246.197 74.1762C246.197 74.9229 246.021 75.6002 245.669 76.2082C245.317 76.8056 244.837 77.2802 244.229 77.6322C243.631 77.9842 242.965 78.1602 242.229 78.1602ZM242.229 76.7682C242.709 76.7682 243.135 76.6562 243.509 76.4322C243.882 76.2082 244.175 75.9042 244.389 75.5202C244.602 75.1256 244.709 74.6776 244.709 74.1762C244.709 73.6856 244.597 73.2482 244.373 72.8642C244.159 72.4802 243.866 72.1816 243.493 71.9682C243.13 71.7442 242.709 71.6322 242.229 71.6322C241.749 71.6322 241.322 71.7442 240.949 71.9682C240.575 72.1816 240.282 72.4802 240.069 72.8642C239.855 73.2482 239.749 73.6856 239.749 74.1762C239.749 74.6776 239.855 75.1256 240.069 75.5202C240.282 75.9042 240.575 76.2082 240.949 76.4322C241.322 76.6562 241.749 76.7682 242.229 76.7682ZM24.112 110.16C23.4933 110.16 22.9333 110.022 22.432 109.744C21.9413 109.456 21.5573 109.062 21.28 108.56C21.0027 108.059 20.864 107.478 20.864 106.816V102.4H22.304V106.752C22.304 107.168 22.3733 107.531 22.512 107.84C22.6613 108.139 22.8747 108.368 23.152 108.528C23.4293 108.688 23.7547 108.768 24.128 108.768C24.6933 108.768 25.136 108.592 25.456 108.24C25.776 107.878 25.936 107.382 25.936 106.752V102.4H27.376V106.816C27.376 107.478 27.2373 108.059 26.96 108.56C26.6827 109.062 26.2987 109.456 25.808 109.744C25.328 110.022 24.7627 110.16 24.112 110.16ZM31.794 110.16C31.3673 110.16 30.962 110.107 30.578 110C30.2047 109.883 29.858 109.723 29.538 109.52C29.218 109.307 28.9407 109.056 28.706 108.768L29.634 107.84C29.9113 108.182 30.2313 108.438 30.594 108.608C30.9567 108.768 31.362 108.848 31.81 108.848C32.258 108.848 32.6047 108.774 32.85 108.624C33.0953 108.464 33.218 108.246 33.218 107.968C33.218 107.691 33.1167 107.478 32.914 107.328C32.722 107.168 32.4713 107.04 32.162 106.944C31.8527 106.838 31.522 106.736 31.17 106.64C30.8287 106.534 30.5033 106.4 30.194 106.24C29.8847 106.08 29.6287 105.862 29.426 105.584C29.234 105.307 29.138 104.939 29.138 104.48C29.138 104.022 29.25 103.627 29.474 103.296C29.698 102.955 30.0073 102.694 30.402 102.512C30.8073 102.331 31.2927 102.24 31.858 102.24C32.4553 102.24 32.9833 102.347 33.442 102.56C33.9113 102.763 34.2953 103.072 34.594 103.488L33.666 104.416C33.4527 104.139 33.186 103.926 32.866 103.776C32.5567 103.627 32.2047 103.552 31.81 103.552C31.394 103.552 31.074 103.627 30.85 103.776C30.6367 103.915 30.53 104.112 30.53 104.368C30.53 104.624 30.626 104.822 30.818 104.96C31.01 105.099 31.2607 105.216 31.57 105.312C31.89 105.408 32.2207 105.51 32.562 105.616C32.9033 105.712 33.2287 105.846 33.538 106.016C33.8473 106.187 34.098 106.416 34.29 106.704C34.4927 106.992 34.594 107.371 34.594 107.84C34.594 108.555 34.338 109.12 33.826 109.536C33.3247 109.952 32.6473 110.16 31.794 110.16ZM39.7981 110.16C39.0408 110.16 38.3581 109.99 37.7501 109.648C37.1421 109.296 36.6621 108.822 36.3101 108.224C35.9581 107.627 35.7821 106.95 35.7821 106.192C35.7821 105.446 35.9528 104.774 36.2941 104.176C36.6461 103.579 37.1155 103.11 37.7021 102.768C38.2995 102.416 38.9661 102.24 39.7021 102.24C40.4061 102.24 41.0248 102.4 41.5581 102.72C42.1021 103.04 42.5235 103.483 42.8221 104.048C43.1315 104.614 43.2861 105.254 43.2861 105.968C43.2861 106.075 43.2808 106.192 43.2701 106.32C43.2595 106.438 43.2381 106.576 43.2061 106.736H36.7901V105.536H42.4381L41.9101 106C41.9101 105.488 41.8195 105.056 41.6381 104.704C41.4568 104.342 41.2008 104.064 40.8701 103.872C40.5395 103.67 40.1395 103.568 39.6701 103.568C39.1795 103.568 38.7475 103.675 38.3741 103.888C38.0008 104.102 37.7128 104.4 37.5101 104.784C37.3075 105.168 37.2061 105.622 37.2061 106.144C37.2061 106.678 37.3128 107.147 37.5261 107.552C37.7395 107.947 38.0435 108.256 38.4381 108.48C38.8328 108.694 39.2861 108.8 39.7981 108.8C40.2248 108.8 40.6141 108.726 40.9661 108.576C41.3288 108.427 41.6381 108.203 41.8941 107.904L42.8221 108.848C42.4595 109.275 42.0115 109.6 41.4781 109.824C40.9555 110.048 40.3955 110.16 39.7981 110.16ZM51.5604 110.16C50.867 110.16 50.2377 109.99 49.6724 109.648C49.107 109.296 48.659 108.822 48.3284 108.224C48.0084 107.627 47.8484 106.955 47.8484 106.208C47.8484 105.462 48.0084 104.79 48.3284 104.192C48.659 103.595 49.1017 103.12 49.6564 102.768C50.2217 102.416 50.8564 102.24 51.5604 102.24C52.1364 102.24 52.6484 102.363 53.0964 102.608C53.555 102.843 53.923 103.174 54.2004 103.6C54.4777 104.016 54.6324 104.502 54.6644 105.056V107.344C54.6324 107.888 54.4777 108.374 54.2004 108.8C53.9337 109.227 53.571 109.563 53.1124 109.808C52.6644 110.043 52.147 110.16 51.5604 110.16ZM51.8004 108.8C52.515 108.8 53.091 108.56 53.5284 108.08C53.9657 107.59 54.1844 106.966 54.1844 106.208C54.1844 105.686 54.083 105.232 53.8804 104.848C53.6884 104.454 53.411 104.15 53.0484 103.936C52.6857 103.712 52.2644 103.6 51.7844 103.6C51.3044 103.6 50.8777 103.712 50.5044 103.936C50.1417 104.16 49.8537 104.47 49.6404 104.864C49.4377 105.248 49.3364 105.691 49.3364 106.192C49.3364 106.704 49.4377 107.158 49.6404 107.552C49.8537 107.936 50.147 108.24 50.5204 108.464C50.8937 108.688 51.3204 108.8 51.8004 108.8ZM54.0884 110V107.952L54.3604 106.096L54.0884 104.256V102.4H55.5444V110H54.0884ZM63.0889 110V105.568C63.0889 104.992 62.9075 104.518 62.5449 104.144C62.1822 103.771 61.7129 103.584 61.1369 103.584C60.7529 103.584 60.4115 103.67 60.1129 103.84C59.8142 104.011 59.5795 104.246 59.4089 104.544C59.2382 104.843 59.1529 105.184 59.1529 105.568L58.5609 105.232C58.5609 104.656 58.6889 104.144 58.9449 103.696C59.2009 103.248 59.5582 102.896 60.0169 102.64C60.4755 102.374 60.9929 102.24 61.5689 102.24C62.1449 102.24 62.6515 102.384 63.0889 102.672C63.5369 102.96 63.8889 103.339 64.1449 103.808C64.4009 104.267 64.5289 104.758 64.5289 105.28V110H63.0889ZM57.7129 110V102.4H59.1529V110H57.7129ZM69.7665 110.16C69.0625 110.16 68.4332 109.99 67.8785 109.648C67.3238 109.296 66.8812 108.822 66.5505 108.224C66.2305 107.627 66.0705 106.955 66.0705 106.208C66.0705 105.462 66.2305 104.79 66.5505 104.192C66.8812 103.595 67.3238 103.12 67.8785 102.768C68.4332 102.416 69.0625 102.24 69.7665 102.24C70.3318 102.24 70.8438 102.363 71.3025 102.608C71.7612 102.843 72.1292 103.174 72.4065 103.6C72.6945 104.016 72.8545 104.502 72.8865 105.056V107.344C72.8545 107.888 72.6998 108.374 72.4225 108.8C72.1452 109.227 71.7772 109.563 71.3185 109.808C70.8598 110.043 70.3425 110.16 69.7665 110.16ZM70.0065 108.8C70.4865 108.8 70.9025 108.688 71.2545 108.464C71.6172 108.24 71.8998 107.936 72.1025 107.552C72.3052 107.158 72.4065 106.71 72.4065 106.208C72.4065 105.686 72.2998 105.232 72.0865 104.848C71.8838 104.464 71.6012 104.16 71.2385 103.936C70.8865 103.712 70.4705 103.6 69.9905 103.6C69.5105 103.6 69.0892 103.712 68.7265 103.936C68.3638 104.16 68.0758 104.47 67.8625 104.864C67.6598 105.248 67.5585 105.691 67.5585 106.192C67.5585 106.704 67.6598 107.158 67.8625 107.552C68.0758 107.936 68.3638 108.24 68.7265 108.464C69.0998 108.688 69.5265 108.8 70.0065 108.8ZM73.7665 110H72.3105V107.952L72.5825 106.096L72.3105 104.256V98.5762H73.7665V110ZM82.5511 110.16C81.8471 110.16 81.2178 109.99 80.6631 109.648C80.1085 109.296 79.6658 108.822 79.3351 108.224C79.0151 107.627 78.8551 106.955 78.8551 106.208C78.8551 105.462 79.0151 104.79 79.3351 104.192C79.6658 103.595 80.1085 103.12 80.6631 102.768C81.2178 102.416 81.8471 102.24 82.5511 102.24C83.1165 102.24 83.6285 102.363 84.0871 102.608C84.5458 102.843 84.9138 103.174 85.1911 103.6C85.4791 104.016 85.6391 104.502 85.6711 105.056V107.344C85.6391 107.888 85.4845 108.374 85.2071 108.8C84.9298 109.227 84.5618 109.563 84.1031 109.808C83.6445 110.043 83.1271 110.16 82.5511 110.16ZM82.7911 108.8C83.2711 108.8 83.6871 108.688 84.0391 108.464C84.4018 108.24 84.6845 107.936 84.8871 107.552C85.0898 107.158 85.1911 106.71 85.1911 106.208C85.1911 105.686 85.0845 105.232 84.8711 104.848C84.6685 104.464 84.3858 104.16 84.0231 103.936C83.6711 103.712 83.2551 103.6 82.7751 103.6C82.2951 103.6 81.8738 103.712 81.5111 103.936C81.1485 104.16 80.8605 104.47 80.6471 104.864C80.4445 105.248 80.3431 105.691 80.3431 106.192C80.3431 106.704 80.4445 107.158 80.6471 107.552C80.8605 107.936 81.1485 108.24 81.5111 108.464C81.8845 108.688 82.3111 108.8 82.7911 108.8ZM86.5511 110H85.0951V107.952L85.3671 106.096L85.0951 104.256V98.5762H86.5511V110ZM92.1916 110.16C91.445 110.16 90.773 109.984 90.1756 109.632C89.5783 109.28 89.1036 108.806 88.7516 108.208C88.3996 107.6 88.2236 106.923 88.2236 106.176C88.2236 105.44 88.3996 104.779 88.7516 104.192C89.1036 103.595 89.5783 103.12 90.1756 102.768C90.773 102.416 91.445 102.24 92.1916 102.24C92.9276 102.24 93.5943 102.416 94.1916 102.768C94.7996 103.11 95.2796 103.579 95.6316 104.176C95.9836 104.774 96.1596 105.44 96.1596 106.176C96.1596 106.923 95.9836 107.6 95.6316 108.208C95.2796 108.806 94.7996 109.28 94.1916 109.632C93.5943 109.984 92.9276 110.16 92.1916 110.16ZM92.1916 108.768C92.6716 108.768 93.0983 108.656 93.4716 108.432C93.845 108.208 94.1383 107.904 94.3516 107.52C94.565 107.126 94.6716 106.678 94.6716 106.176C94.6716 105.686 94.5596 105.248 94.3356 104.864C94.1223 104.48 93.829 104.182 93.4556 103.968C93.093 103.744 92.6716 103.632 92.1916 103.632C91.7116 103.632 91.285 103.744 90.9116 103.968C90.5383 104.182 90.245 104.48 90.0316 104.864C89.8183 105.248 89.7116 105.686 89.7116 106.176C89.7116 106.678 89.8183 107.126 90.0316 107.52C90.245 107.904 90.5383 108.208 90.9116 108.432C91.285 108.656 91.7116 108.768 92.1916 108.768ZM103.23 110V105.568C103.23 104.992 103.049 104.518 102.686 104.144C102.323 103.771 101.854 103.584 101.278 103.584C100.894 103.584 100.553 103.67 100.254 103.84C99.9555 104.011 99.7208 104.246 99.5501 104.544C99.3795 104.843 99.2941 105.184 99.2941 105.568L98.7021 105.232C98.7021 104.656 98.8301 104.144 99.0861 103.696C99.3421 103.248 99.6995 102.896 100.158 102.64C100.617 102.374 101.134 102.24 101.71 102.24C102.286 102.24 102.793 102.384 103.23 102.672C103.678 102.96 104.03 103.339 104.286 103.808C104.542 104.267 104.67 104.758 104.67 105.28V110H103.23ZM97.8541 110V102.4H99.2941V110H97.8541ZM106.189 102.432L107.181 100.528L107.693 100.4C107.639 100.518 107.57 100.614 107.485 100.688C107.41 100.763 107.314 100.8 107.197 100.8C106.973 100.8 106.765 100.71 106.573 100.528C106.391 100.336 106.301 100.102 106.301 99.8242C106.301 99.5256 106.402 99.2696 106.605 99.0562C106.818 98.8429 107.074 98.7362 107.373 98.7362C107.65 98.7362 107.895 98.8429 108.109 99.0562C108.322 99.2696 108.429 99.5256 108.429 99.8242C108.429 99.9416 108.402 100.086 108.349 100.256C108.306 100.416 108.215 100.63 108.077 100.896L107.021 102.88L106.189 102.432ZM111.385 110V99.2162H112.825V110H111.385ZM109.513 103.712V102.4H114.697V103.712H109.513ZM124.956 110V105.568C124.956 104.992 124.774 104.518 124.412 104.144C124.049 103.771 123.58 103.584 123.004 103.584C122.62 103.584 122.278 103.67 121.98 103.84C121.681 104.011 121.446 104.246 121.276 104.544C121.105 104.843 121.02 105.184 121.02 105.568L120.428 105.232C120.428 104.656 120.556 104.144 120.812 103.696C121.068 103.248 121.425 102.896 121.884 102.64C122.342 102.374 122.86 102.24 123.436 102.24C124.012 102.24 124.518 102.384 124.956 102.672C125.404 102.96 125.756 103.339 126.012 103.808C126.268 104.267 126.396 104.758 126.396 105.28V110H124.956ZM119.58 110V102.4H121.02V110H119.58ZM131.937 110.16C131.18 110.16 130.497 109.99 129.889 109.648C129.281 109.296 128.801 108.822 128.449 108.224C128.097 107.627 127.921 106.95 127.921 106.192C127.921 105.446 128.092 104.774 128.433 104.176C128.785 103.579 129.255 103.11 129.841 102.768C130.439 102.416 131.105 102.24 131.841 102.24C132.545 102.24 133.164 102.4 133.697 102.72C134.241 103.04 134.663 103.483 134.961 104.048C135.271 104.614 135.425 105.254 135.425 105.968C135.425 106.075 135.42 106.192 135.409 106.32C135.399 106.438 135.377 106.576 135.345 106.736H128.929V105.536H134.577L134.049 106C134.049 105.488 133.959 105.056 133.777 104.704C133.596 104.342 133.34 104.064 133.009 103.872C132.679 103.67 132.279 103.568 131.809 103.568C131.319 103.568 130.887 103.675 130.513 103.888C130.14 104.102 129.852 104.4 129.649 104.784C129.447 105.168 129.345 105.622 129.345 106.144C129.345 106.678 129.452 107.147 129.665 107.552C129.879 107.947 130.183 108.256 130.577 108.48C130.972 108.694 131.425 108.8 131.937 108.8C132.364 108.8 132.753 108.726 133.105 108.576C133.468 108.427 133.777 108.203 134.033 107.904L134.961 108.848C134.599 109.275 134.151 109.6 133.617 109.824C133.095 110.048 132.535 110.16 131.937 110.16ZM140.587 110.16C139.83 110.16 139.147 109.99 138.539 109.648C137.931 109.296 137.451 108.822 137.099 108.224C136.747 107.627 136.571 106.95 136.571 106.192C136.571 105.446 136.742 104.774 137.083 104.176C137.435 103.579 137.905 103.11 138.491 102.768C139.089 102.416 139.755 102.24 140.491 102.24C141.195 102.24 141.814 102.4 142.347 102.72C142.891 103.04 143.313 103.483 143.611 104.048C143.921 104.614 144.075 105.254 144.075 105.968C144.075 106.075 144.07 106.192 144.059 106.32C144.049 106.438 144.027 106.576 143.995 106.736H137.579V105.536H143.227L142.699 106C142.699 105.488 142.609 105.056 142.427 104.704C142.246 104.342 141.99 104.064 141.659 103.872C141.329 103.67 140.929 103.568 140.459 103.568C139.969 103.568 139.537 103.675 139.163 103.888C138.79 104.102 138.502 104.4 138.299 104.784C138.097 105.168 137.995 105.622 137.995 106.144C137.995 106.678 138.102 107.147 138.315 107.552C138.529 107.947 138.833 108.256 139.227 108.48C139.622 108.694 140.075 108.8 140.587 108.8C141.014 108.8 141.403 108.726 141.755 108.576C142.118 108.427 142.427 108.203 142.683 107.904L143.611 108.848C143.249 109.275 142.801 109.6 142.267 109.824C141.745 110.048 141.185 110.16 140.587 110.16ZM148.933 110.16C148.229 110.16 147.6 109.99 147.045 109.648C146.491 109.296 146.048 108.822 145.717 108.224C145.397 107.627 145.237 106.955 145.237 106.208C145.237 105.462 145.397 104.79 145.717 104.192C146.048 103.595 146.491 103.12 147.045 102.768C147.6 102.416 148.229 102.24 148.933 102.24C149.499 102.24 150.011 102.363 150.469 102.608C150.928 102.843 151.296 103.174 151.573 103.6C151.861 104.016 152.021 104.502 152.053 105.056V107.344C152.021 107.888 151.867 108.374 151.589 108.8C151.312 109.227 150.944 109.563 150.485 109.808C150.027 110.043 149.509 110.16 148.933 110.16ZM149.173 108.8C149.653 108.8 150.069 108.688 150.421 108.464C150.784 108.24 151.067 107.936 151.269 107.552C151.472 107.158 151.573 106.71 151.573 106.208C151.573 105.686 151.467 105.232 151.253 104.848C151.051 104.464 150.768 104.16 150.405 103.936C150.053 103.712 149.637 103.6 149.157 103.6C148.677 103.6 148.256 103.712 147.893 103.936C147.531 104.16 147.243 104.47 147.029 104.864C146.827 105.248 146.725 105.691 146.725 106.192C146.725 106.704 146.827 107.158 147.029 107.552C147.243 107.936 147.531 108.24 147.893 108.464C148.267 108.688 148.693 108.8 149.173 108.8ZM152.933 110H151.477V107.952L151.749 106.096L151.477 104.256V98.5762H152.933V110ZM158.502 110V102.4H159.942V110H158.502ZM163.638 110V105.408C163.638 104.843 163.462 104.4 163.11 104.08C162.769 103.75 162.337 103.584 161.814 103.584C161.462 103.584 161.147 103.659 160.87 103.808C160.593 103.958 160.369 104.166 160.198 104.432C160.027 104.699 159.942 105.019 159.942 105.392L159.35 105.104C159.35 104.528 159.473 104.027 159.718 103.6C159.974 103.174 160.321 102.843 160.758 102.608C161.195 102.363 161.686 102.24 162.23 102.24C162.763 102.24 163.243 102.358 163.67 102.592C164.107 102.827 164.449 103.158 164.694 103.584C164.95 104.011 165.078 104.518 165.078 105.104V110H163.638ZM168.774 110V105.408C168.774 104.843 168.598 104.4 168.246 104.08C167.905 103.75 167.478 103.584 166.966 103.584C166.614 103.584 166.294 103.659 166.006 103.808C165.729 103.958 165.505 104.166 165.334 104.432C165.163 104.699 165.078 105.019 165.078 105.392L164.262 105.104C164.294 104.518 164.449 104.016 164.726 103.6C165.014 103.174 165.382 102.843 165.83 102.608C166.278 102.363 166.769 102.24 167.302 102.24C167.857 102.24 168.353 102.358 168.79 102.592C169.227 102.827 169.574 103.158 169.83 103.584C170.097 104.011 170.23 104.523 170.23 105.12V110H168.774ZM175.318 110.16C174.699 110.16 174.139 110.022 173.638 109.744C173.147 109.456 172.763 109.062 172.486 108.56C172.208 108.059 172.07 107.478 172.07 106.816V102.4H173.51V106.752C173.51 107.168 173.579 107.531 173.718 107.84C173.867 108.139 174.08 108.368 174.358 108.528C174.635 108.688 174.96 108.768 175.334 108.768C175.899 108.768 176.342 108.592 176.662 108.24C176.982 107.878 177.142 107.382 177.142 106.752V102.4H178.582V106.816C178.582 107.478 178.443 108.059 178.166 108.56C177.888 109.062 177.504 109.456 177.014 109.744C176.534 110.022 175.968 110.16 175.318 110.16ZM184.056 110.16C183.309 110.16 182.632 109.984 182.024 109.632C181.426 109.28 180.952 108.806 180.6 108.208C180.258 107.6 180.088 106.928 180.088 106.192C180.088 105.446 180.258 104.774 180.6 104.176C180.952 103.579 181.426 103.11 182.024 102.768C182.632 102.416 183.309 102.24 184.056 102.24C184.642 102.24 185.186 102.352 185.688 102.576C186.189 102.79 186.621 103.104 186.984 103.52L186.024 104.48C185.789 104.203 185.501 103.995 185.16 103.856C184.829 103.707 184.461 103.632 184.056 103.632C183.576 103.632 183.149 103.744 182.776 103.968C182.402 104.182 182.109 104.48 181.896 104.864C181.682 105.248 181.576 105.691 181.576 106.192C181.576 106.694 181.682 107.136 181.896 107.52C182.109 107.904 182.402 108.208 182.776 108.432C183.149 108.656 183.576 108.768 184.056 108.768C184.461 108.768 184.829 108.699 185.16 108.56C185.501 108.411 185.794 108.198 186.04 107.92L186.984 108.88C186.632 109.286 186.2 109.6 185.688 109.824C185.186 110.048 184.642 110.16 184.056 110.16ZM193.86 110V105.568C193.86 104.992 193.678 104.518 193.316 104.144C192.953 103.771 192.484 103.584 191.908 103.584C191.524 103.584 191.182 103.67 190.884 103.84C190.585 104.011 190.35 104.246 190.18 104.544C190.009 104.843 189.924 105.184 189.924 105.568L189.332 105.232C189.332 104.656 189.46 104.144 189.716 103.696C189.972 103.248 190.329 102.896 190.788 102.64C191.246 102.374 191.764 102.24 192.34 102.24C192.916 102.24 193.422 102.368 193.86 102.624C194.308 102.88 194.66 103.238 194.916 103.696C195.172 104.155 195.3 104.683 195.3 105.28V110H193.86ZM188.484 110V98.5762H189.924V110H188.484ZM201.889 110V99.2162H203.329V110H201.889ZM200.017 103.712V102.4H205.201V103.712H200.017ZM206.7 110V102.4H208.14V110H206.7ZM207.42 100.88C207.153 100.88 206.935 100.795 206.764 100.624C206.593 100.443 206.508 100.219 206.508 99.9522C206.508 99.6962 206.593 99.4829 206.764 99.3122C206.935 99.1309 207.153 99.0402 207.42 99.0402C207.687 99.0402 207.905 99.1309 208.076 99.3122C208.247 99.4829 208.332 99.6962 208.332 99.9522C208.332 100.219 208.247 100.443 208.076 100.624C207.905 100.795 207.687 100.88 207.42 100.88ZM210.334 110V102.4H211.774V110H210.334ZM215.47 110V105.408C215.47 104.843 215.294 104.4 214.942 104.08C214.601 103.75 214.169 103.584 213.646 103.584C213.294 103.584 212.98 103.659 212.702 103.808C212.425 103.958 212.201 104.166 212.03 104.432C211.86 104.699 211.774 105.019 211.774 105.392L211.182 105.104C211.182 104.528 211.305 104.027 211.55 103.6C211.806 103.174 212.153 102.843 212.59 102.608C213.028 102.363 213.518 102.24 214.062 102.24C214.596 102.24 215.076 102.358 215.502 102.592C215.94 102.827 216.281 103.158 216.526 103.584C216.782 104.011 216.91 104.518 216.91 105.104V110H215.47ZM220.606 110V105.408C220.606 104.843 220.43 104.4 220.078 104.08C219.737 103.75 219.31 103.584 218.798 103.584C218.446 103.584 218.126 103.659 217.838 103.808C217.561 103.958 217.337 104.166 217.166 104.432C216.996 104.699 216.91 105.019 216.91 105.392L216.094 105.104C216.126 104.518 216.281 104.016 216.558 103.6C216.846 103.174 217.214 102.843 217.662 102.608C218.11 102.363 218.601 102.24 219.134 102.24C219.689 102.24 220.185 102.358 220.622 102.592C221.06 102.827 221.406 103.158 221.662 103.584C221.929 104.011 222.062 104.523 222.062 105.12V110H220.606ZM227.614 110.16C226.856 110.16 226.174 109.99 225.566 109.648C224.958 109.296 224.478 108.822 224.126 108.224C223.774 107.627 223.598 106.95 223.598 106.192C223.598 105.446 223.768 104.774 224.11 104.176C224.462 103.579 224.931 103.11 225.518 102.768C226.115 102.416 226.782 102.24 227.518 102.24C228.222 102.24 228.84 102.4 229.374 102.72C229.918 103.04 230.339 103.483 230.638 104.048C230.947 104.614 231.102 105.254 231.102 105.968C231.102 106.075 231.096 106.192 231.086 106.32C231.075 106.438 231.054 106.576 231.022 106.736H224.606V105.536H230.254L229.726 106C229.726 105.488 229.635 105.056 229.454 104.704C229.272 104.342 229.016 104.064 228.686 103.872C228.355 103.67 227.955 103.568 227.486 103.568C226.995 103.568 226.563 103.675 226.19 103.888C225.816 104.102 225.528 104.4 225.326 104.784C225.123 105.168 225.022 105.622 225.022 106.144C225.022 106.678 225.128 107.147 225.342 107.552C225.555 107.947 225.859 108.256 226.254 108.48C226.648 108.694 227.102 108.8 227.614 108.8C228.04 108.8 228.43 108.726 228.782 108.576C229.144 108.427 229.454 108.203 229.71 107.904L230.638 108.848C230.275 109.275 229.827 109.6 229.294 109.824C228.771 110.048 228.211 110.16 227.614 110.16ZM234.008 110.16C233.709 110.16 233.459 110.059 233.256 109.856C233.064 109.643 232.968 109.392 232.968 109.104C232.968 108.806 233.064 108.56 233.256 108.368C233.459 108.166 233.709 108.064 234.008 108.064C234.307 108.064 234.552 108.166 234.744 108.368C234.947 108.56 235.048 108.806 235.048 109.104C235.048 109.392 234.947 109.643 234.744 109.856C234.552 110.059 234.307 110.16 234.008 110.16ZM238.772 102.432L239.764 100.528L240.276 100.4C240.223 100.518 240.154 100.614 240.068 100.688C239.994 100.763 239.898 100.8 239.78 100.8C239.556 100.8 239.348 100.71 239.156 100.528C238.975 100.336 238.884 100.102 238.884 99.8242C238.884 99.5256 238.986 99.2696 239.188 99.0562C239.402 98.8429 239.658 98.7362 239.956 98.7362C240.234 98.7362 240.479 98.8429 240.692 99.0562C240.906 99.2696 241.012 99.5256 241.012 99.8242C241.012 99.9416 240.986 100.086 240.932 100.256C240.89 100.416 240.799 100.63 240.66 100.896L239.604 102.88L238.772 102.432ZM235.828 102.432L236.82 100.528L237.332 100.4C237.279 100.518 237.21 100.614 237.124 100.688C237.05 100.763 236.954 100.8 236.836 100.8C236.612 100.8 236.404 100.71 236.212 100.528C236.031 100.336 235.94 100.102 235.94 99.8242C235.94 99.5256 236.042 99.2696 236.244 99.0562C236.458 98.8429 236.714 98.7362 237.012 98.7362C237.29 98.7362 237.535 98.8429 237.748 99.0562C237.962 99.2696 238.068 99.5256 238.068 99.8242C238.068 99.9416 238.042 100.086 237.988 100.256C237.946 100.416 237.855 100.63 237.716 100.896L236.66 102.88L235.828 102.432Z" fill="#0F0F0F"/>
<path d="M207.303 16.0986C208.897 15.0481 210.916 16.6138 210.295 18.4187L194.779 63.5502C194.333 64.8464 192.745 65.3204 191.662 64.4805L167.334 45.6173C166.25 44.7774 166.314 43.1214 167.458 42.3669L207.303 16.0986Z" fill="#F3FFF6"/>
</g>
<defs>
<filter id="filter0_d_318_956" x="0" y="13.7598" width="274" height="128.24" filterUnits="userSpaceOnUse" color-interpolation-filters="sRGB">
<feFlood flood-opacity="0" result="BackgroundImageFix"/>
<feColorMatrix in="SourceAlpha" type="matrix" values="0 0 0 0 0 0 0 0 0 0 0 0 0 0 0 0 0 0 127 0" result="hardAlpha"/>
<feOffset dy="2"/>
<feGaussianBlur stdDeviation="2"/>
<feComposite in2="hardAlpha" operator="out"/>
<feColorMatrix type="matrix" values="0 0 0 0 0 0 0 0 0 0 0 0 0 0 0 0 0 0 0.25 0"/>
<feBlend mode="normal" in2="BackgroundImageFix" result="effect1_dropShadow_318_956"/>
<feBlend mode="normal" in="SourceGraphic" in2="effect1_dropShadow_318_956" result="shape"/>
</filter>
</defs>
</svg>
