<svg width="349" height="200" viewBox="0 0 349 200" fill="none" xmlns="http://www.w3.org/2000/svg">
<mask id="path-1-inside-1_362_997" fill="white">
<path fill-rule="evenodd" clip-rule="evenodd" d="M224.502 187.021C208.535 187.021 194.163 180.52 184.147 170.148C175.362 187.795 156.478 200 134.599 200C110.425 200 89.9061 185.099 82.6271 164.419C74.4709 169.005 64.9581 171.636 54.7996 171.636C24.5346 171.636 0 148.281 0 119.472C0 100.942 10.1499 84.6691 25.4462 75.4153C24.9868 72.6967 24.748 69.9079 24.748 67.066C24.748 38.2568 49.2827 14.9023 79.5477 14.9023C87.1156 14.9023 94.3251 16.3626 100.882 19.0033C110.933 7.39826 126.152 0 143.186 0C159.723 0 174.55 6.97282 184.597 17.9983C190 16.3023 195.774 15.3845 201.774 15.3845C214.051 15.3845 225.385 19.2278 234.522 25.7194C243.77 18.9364 255.359 14.9023 267.937 14.9023C298.202 14.9023 322.737 38.2568 322.737 67.066C322.737 69.4726 322.566 71.8412 322.234 74.1612C338.264 83.2633 349 99.9341 349 118.992C349 147.801 324.465 171.156 294.201 171.156C285.111 171.156 276.538 169.049 268.991 165.32C259.041 178.464 242.821 187.021 224.502 187.021Z"/>
</mask>
<path d="M184.147 170.148L185.226 169.106C184.888 168.756 184.4 168.591 183.919 168.666C183.437 168.74 183.022 169.043 182.805 169.48L184.147 170.148ZM82.6271 164.419L84.042 163.921C83.8948 163.503 83.5704 163.172 83.1556 163.016C82.7409 162.859 82.2783 162.895 81.892 163.112L82.6271 164.419ZM25.4462 75.4153L26.2227 76.6987C26.7493 76.3801 27.0278 75.7722 26.9253 75.1653L25.4462 75.4153ZM100.882 19.0033L100.322 20.3948C100.916 20.6341 101.597 20.4696 102.016 19.9854L100.882 19.0033ZM184.597 17.9983L183.489 19.0087C183.882 19.4401 184.49 19.6043 185.047 19.4294L184.597 17.9983ZM234.522 25.7194L233.653 26.9422C234.18 27.3166 234.887 27.3113 235.409 26.929L234.522 25.7194ZM322.234 74.1612L320.749 73.9491C320.662 74.5595 320.957 75.1611 321.494 75.4656L322.234 74.1612ZM268.991 165.32L269.656 163.976C269.01 163.657 268.23 163.841 267.795 164.415L268.991 165.32ZM180.393 173.774C179.953 174.475 180.164 175.401 180.866 175.842C181.567 176.283 182.493 176.071 182.934 175.37L180.393 173.774ZM176.559 183.617C177.126 183.014 177.096 182.064 176.492 181.497C175.888 180.93 174.939 180.96 174.372 181.564L176.559 183.617ZM166.98 188.081C166.31 188.569 166.163 189.507 166.65 190.177C167.138 190.847 168.076 190.994 168.746 190.507L166.98 188.081ZM159.801 195.836C160.549 195.479 160.865 194.583 160.508 193.836C160.151 193.088 159.255 192.772 158.508 193.129L159.801 195.836ZM149.258 196.56C148.459 196.777 147.987 197.601 148.203 198.4C148.42 199.2 149.244 199.672 150.044 199.455L149.258 196.56ZM139.801 201.274C140.626 201.202 141.237 200.474 141.165 199.649C141.093 198.824 140.365 198.213 139.54 198.285L139.801 201.274ZM129.156 198.239C128.331 198.159 127.598 198.763 127.519 199.588C127.439 200.413 128.043 201.145 128.868 201.225L129.156 198.239ZM117.619 199.016C118.412 199.254 119.249 198.805 119.488 198.012C119.727 197.219 119.277 196.382 118.484 196.143L117.619 199.016ZM108.44 191.988C107.71 191.597 106.801 191.871 106.409 192.601C106.018 193.331 106.292 194.24 107.022 194.632L108.44 191.988ZM97.5122 188.212C98.148 188.743 99.094 188.658 99.625 188.022C100.156 187.387 100.071 186.441 99.4353 185.91L97.5122 188.212ZM91.8703 178.125C91.3584 177.474 90.4154 177.361 89.7641 177.873C89.1127 178.384 88.9996 179.327 89.5115 179.979L91.8703 178.125ZM83.4232 170.234C83.7832 170.98 84.6799 171.293 85.426 170.933C86.1722 170.573 86.4852 169.677 86.1252 168.931L83.4232 170.234ZM75.5202 166.165C74.7514 166.474 74.3784 167.347 74.687 168.116C74.9957 168.885 75.8691 169.258 76.6379 168.949L75.5202 166.165ZM62.2346 172.672C63.0566 172.569 63.6391 171.819 63.5357 170.997C63.4323 170.175 62.6822 169.592 61.8602 169.695L62.2346 172.672ZM49.6881 169.906C48.863 169.831 48.1337 170.44 48.0591 171.265C47.9845 172.09 48.5929 172.819 49.4179 172.894L49.6881 169.906ZM38.8301 170.946C39.6275 171.171 40.4559 170.706 40.6804 169.909C40.9048 169.111 40.4403 168.283 39.6428 168.058L38.8301 170.946ZM30.1179 164.388C29.3762 164.019 28.4758 164.321 28.1068 165.063C27.7377 165.805 28.0398 166.705 28.7815 167.074L30.1179 164.388ZM19.6346 161.383C20.2931 161.886 21.2344 161.76 21.7371 161.101C22.2397 160.443 22.1133 159.501 21.4548 158.999L19.6346 161.383ZM13.9863 152.058C13.4374 151.438 12.4894 151.38 11.869 151.929C11.2485 152.477 11.1904 153.425 11.7393 154.046L13.9863 152.058ZM5.43379 145.294C5.84775 146.011 6.76505 146.257 7.48264 145.843C8.20022 145.429 8.44636 144.512 8.0324 143.795L5.43379 145.294ZM3.88484 134.504C3.62779 133.716 2.78098 133.286 1.99344 133.544C1.2059 133.801 0.775865 134.647 1.03292 135.435L3.88484 134.504ZM-1.21846 124.872C-1.13207 125.696 -0.39413 126.294 0.429781 126.207C1.25369 126.121 1.85157 125.383 1.76519 124.559L-1.21846 124.872ZM1.68893 115.175C1.76182 114.35 1.15194 113.622 0.326724 113.549C-0.49849 113.476 -1.22655 114.086 -1.29943 114.911L1.68893 115.175ZM0.307495 105.933C0.0895331 106.732 0.560752 107.557 1.35999 107.775C2.15923 107.993 2.98384 107.521 3.2018 106.722L0.307495 105.933ZM6.18694 98.6671C6.54205 97.9187 6.22318 97.0241 5.47473 96.6689C4.72627 96.3138 3.83165 96.6327 3.47654 97.3812L6.18694 98.6671ZM8.08118 89.5158C7.6029 90.1923 7.76351 91.1283 8.43993 91.6066C9.11634 92.0849 10.0524 91.9243 10.5307 91.2479L8.08118 89.5158ZM16.0721 84.6638C16.6564 84.0766 16.6541 83.1268 16.0669 82.5425C15.4796 81.9581 14.5299 81.9605 13.9455 82.5477L16.0721 84.6638ZM20.8718 76.6434C20.1997 77.1278 20.0476 78.0653 20.532 78.7374C21.0164 79.4094 21.9539 79.5615 22.626 79.0771L20.8718 76.6434ZM26.6287 73.1534C26.5252 72.3315 25.775 71.7491 24.953 71.8526C24.1311 71.9561 23.5487 72.7063 23.6522 73.5283L26.6287 73.1534ZM23.2928 69.2247C23.3272 70.0524 24.026 70.6956 24.8537 70.6612C25.6814 70.6268 26.3246 69.928 26.2902 69.1003L23.2928 69.2247ZM26.5132 61.9794C26.5996 61.1555 26.0017 60.4175 25.1778 60.3311C24.3539 60.2447 23.616 60.8426 23.5296 61.6665L26.5132 61.9794ZM25.781 51.1034C25.5239 51.8909 25.9539 52.7378 26.7415 52.9948C27.529 53.2519 28.3758 52.8218 28.6329 52.0343L25.781 51.1034ZM32.7804 42.7437C33.1944 42.0261 32.9483 41.1088 32.2307 40.6949C31.5131 40.2809 30.5958 40.5271 30.1818 41.2446L32.7804 42.7437ZM36.4874 32.4924C35.9385 33.1129 35.9965 34.0609 36.617 34.6098C37.2375 35.1587 38.1855 35.1006 38.7344 34.4801L36.4874 32.4924ZM46.2028 27.5396C46.8614 27.037 46.9878 26.0957 46.4851 25.4372C45.9825 24.7787 45.0412 24.6523 44.3827 25.1549L46.2028 27.5396ZM53.5296 19.4642C52.7879 19.8333 52.4858 20.7337 52.8548 21.4754C53.2239 22.2171 54.1243 22.5192 54.866 22.1501L53.5296 19.4642ZM64.3909 18.4799C65.1883 18.2555 65.6529 17.4271 65.4284 16.6296C65.204 15.8322 64.3756 15.3677 63.5782 15.5921L64.3909 18.4799ZM74.166 13.6444C73.341 13.719 72.7326 14.4483 72.8072 15.2734C72.8818 16.0985 73.6111 16.7068 74.4362 16.6322L74.166 13.6444ZM84.864 16.6511C85.6888 16.7287 86.4203 16.123 86.4979 15.2983C86.5756 14.4735 85.9699 13.7419 85.1451 13.6643L84.864 16.6511ZM96.1447 15.7725C95.3499 15.5391 94.5163 15.9943 94.2829 16.7892C94.0495 17.584 94.5046 18.4176 95.2995 18.651L96.1447 15.7725ZM106.058 15.8148C106.667 15.2529 106.705 14.3039 106.143 13.6952C105.581 13.0865 104.632 13.0485 104.023 13.6105L106.058 15.8148ZM113.887 6.33044C113.171 6.74714 112.928 7.66537 113.345 8.38137C113.762 9.09737 114.68 9.33999 115.396 8.92329L113.887 6.33044ZM126.001 4.19096C126.789 3.9359 127.221 3.09019 126.966 2.302C126.711 1.51381 125.866 1.08162 125.077 1.33667L126.001 4.19096ZM137.064 -1.18626C136.24 -1.10129 135.641 -0.364382 135.726 0.459676C135.811 1.28373 136.548 1.88289 137.372 1.79792L137.064 -1.18626ZM148.838 1.78137C149.662 1.86393 150.398 1.26263 150.48 0.438329C150.563 -0.385974 149.961 -1.12113 149.137 -1.20369L148.838 1.78137ZM160.802 1.17952C160.012 0.931535 159.17 1.37128 158.922 2.16172C158.674 2.95216 159.114 3.79397 159.904 4.04196L160.802 1.17952ZM170.267 8.51744C170.989 8.92324 171.904 8.66672 172.309 7.94449C172.715 7.22225 172.459 6.3078 171.736 5.902L170.267 8.51744ZM181.452 12.8001C180.831 12.2516 179.883 12.3102 179.335 12.931C178.786 13.5518 178.845 14.4997 179.466 15.0482L181.452 12.8001ZM189.141 18.3157C189.949 18.1293 190.452 17.3238 190.265 16.5166C190.079 15.7094 189.273 15.2062 188.466 15.3927L189.141 18.3157ZM197.305 14.0511C196.479 14.113 195.86 14.8328 195.922 15.6589C195.983 16.4851 196.703 17.1046 197.529 17.0428L197.305 14.0511ZM206.02 17.0429C206.846 17.1048 207.566 16.4852 207.628 15.6591C207.689 14.833 207.07 14.1131 206.244 14.0513L206.02 17.0429ZM215.086 15.3937C214.279 15.2072 213.473 15.7103 213.286 16.5174C213.1 17.3246 213.603 18.1301 214.41 18.3167L215.086 15.3937ZM222.503 20.8587C223.272 21.1675 224.145 20.7946 224.454 20.0259C224.763 19.2572 224.39 18.3837 223.621 18.0749L222.503 20.8587ZM231.639 22.0489C230.928 21.624 230.007 21.856 229.582 22.5671C229.157 23.2782 229.389 24.1992 230.1 24.6241L231.639 22.0489ZM239.011 24.5056C239.717 24.0714 239.937 23.1475 239.502 22.442C239.068 21.7364 238.144 21.5165 237.439 21.9507L239.011 24.5056ZM245.6 17.792C244.835 18.1078 244.47 18.9847 244.786 19.7506C245.101 20.5165 245.978 20.8813 246.744 20.5654L245.6 17.792ZM255.008 17.903C255.814 17.7121 256.313 16.9038 256.122 16.0977C255.931 15.2915 255.123 14.7928 254.317 14.9837L255.008 17.903ZM263.362 13.5771C262.536 13.6404 261.918 14.3614 261.981 15.1874C262.044 16.0134 262.765 16.6316 263.591 16.5683L263.362 13.5771ZM273.049 16.6322C273.874 16.7068 274.603 16.0985 274.678 15.2734C274.752 14.4483 274.144 13.719 273.319 13.6444L273.049 16.6322ZM283.907 15.5921C283.109 15.3677 282.281 15.8322 282.057 16.6296C281.832 17.4271 282.297 18.2555 283.094 18.4799L283.907 15.5921ZM292.619 22.1501C293.361 22.5192 294.261 22.2171 294.63 21.4754C294.999 20.7337 294.697 19.8333 293.955 19.4642L292.619 22.1501ZM303.102 25.1549C302.444 24.6523 301.503 24.7787 301 25.4372C300.497 26.0957 300.624 27.037 301.282 27.5396L303.102 25.1549ZM308.751 34.4802C309.3 35.1006 310.247 35.1587 310.868 34.6098C311.488 34.0609 311.547 33.1129 310.998 32.4924L308.751 34.4802ZM317.303 41.2447C316.889 40.5271 315.972 40.2809 315.254 40.6949C314.537 41.1089 314.291 42.0262 314.705 42.7437L317.303 41.2447ZM318.852 52.0343C319.109 52.8218 319.956 53.2519 320.743 52.9948C321.531 52.7378 321.961 51.8909 321.704 51.1034L318.852 52.0343ZM323.955 61.6665C323.869 60.8426 323.131 60.2448 322.307 60.3311C321.483 60.4175 320.885 61.1555 320.972 61.9794L323.955 61.6665ZM321.207 68.7926C321.177 69.6205 321.825 70.3153 322.653 70.3445C323.481 70.3736 324.176 69.7261 324.205 68.8982L321.207 68.7926ZM323.946 72.5543C324.034 71.7305 323.437 70.9915 322.613 70.9037C321.79 70.8159 321.051 71.4125 320.963 72.2363L323.946 72.5543ZM325.258 77.8133C325.942 78.2804 326.875 78.1044 327.342 77.4203C327.809 76.7361 327.633 75.8028 326.949 75.3357L325.258 77.8133ZM334.214 81.2402C333.617 80.6656 332.668 80.6836 332.093 81.2803C331.518 81.877 331.536 82.8266 332.133 83.4012L334.214 81.2402ZM337.963 90.064C338.453 90.7322 339.391 90.8768 340.06 90.387C340.728 89.8973 340.872 88.9586 340.383 88.2905L337.963 90.064ZM345.239 96.3096C344.874 95.5657 343.976 95.258 343.232 95.6225C342.488 95.987 342.18 96.8856 342.545 97.6295L345.239 96.3096ZM345.699 105.884C345.923 106.682 346.752 107.147 347.549 106.922C348.347 106.698 348.812 105.87 348.588 105.073L345.699 105.884ZM350.288 114.3C350.213 113.475 349.483 112.867 348.658 112.942C347.833 113.017 347.225 113.747 347.3 114.572L350.288 114.3ZM347.235 124.078C347.149 124.902 347.746 125.64 348.57 125.727C349.394 125.813 350.132 125.215 350.219 124.391L347.235 124.078ZM347.967 134.954C348.224 134.167 347.794 133.32 347.007 133.063C346.219 132.806 345.372 133.236 345.115 134.024L347.967 134.954ZM340.968 143.314C340.554 144.032 340.8 144.949 341.517 145.363C342.235 145.777 343.152 145.531 343.566 144.813L340.968 143.314ZM337.261 153.565C337.81 152.945 337.752 151.997 337.131 151.448C336.511 150.899 335.563 150.957 335.014 151.578L337.261 153.565ZM327.545 158.518C326.887 159.021 326.76 159.962 327.263 160.621C327.766 161.279 328.707 161.406 329.365 160.903L327.545 158.518ZM320.219 166.594C320.96 166.225 321.262 165.324 320.893 164.582C320.524 163.841 319.624 163.539 318.882 163.908L320.219 166.594ZM309.357 167.578C308.56 167.802 308.095 168.631 308.32 169.428C308.544 170.226 309.373 170.69 310.17 170.466L309.357 167.578ZM299.582 172.413C300.407 172.339 301.016 171.61 300.941 170.784C300.866 169.959 300.137 169.351 299.312 169.426L299.582 172.413ZM287.856 169.3C287.033 169.208 286.29 169.8 286.197 170.623C286.104 171.446 286.696 172.189 287.52 172.281L287.856 169.3ZM274.494 169.276C275.275 169.554 276.133 169.147 276.411 168.366C276.689 167.586 276.281 166.728 275.501 166.45L274.494 169.276ZM265.157 167.621C264.605 168.239 264.659 169.188 265.277 169.739C265.895 170.291 266.843 170.237 267.395 169.619L265.157 167.621ZM261.046 175.682C261.688 175.159 261.785 174.214 261.262 173.571C260.739 172.929 259.794 172.832 259.152 173.355L261.046 175.682ZM252.32 178.082C251.604 178.499 251.362 179.417 251.779 180.133C252.196 180.849 253.115 181.091 253.83 180.674L252.32 178.082ZM245.935 184.495C246.706 184.192 247.086 183.322 246.783 182.551C246.48 181.779 245.61 181.4 244.839 181.703L245.935 184.495ZM236.892 184.145C236.084 184.328 235.577 185.131 235.76 185.939C235.943 186.747 236.746 187.254 237.554 187.071L236.892 184.145ZM228.884 188.361C229.711 188.3 230.331 187.581 230.271 186.755C230.21 185.929 229.491 185.308 228.665 185.369L228.884 188.361ZM219.038 185.258C218.213 185.178 217.48 185.782 217.4 186.606C217.32 187.431 217.924 188.164 218.749 188.244L219.038 185.258ZM207.454 186.016C208.247 186.256 209.085 185.808 209.324 185.015C209.564 184.222 209.116 183.385 208.323 183.145L207.454 186.016ZM198.244 178.956C197.515 178.563 196.605 178.835 196.212 179.564C195.819 180.294 196.091 181.203 196.82 181.597L198.244 178.956ZM187.288 175.127C187.922 175.66 188.868 175.577 189.401 174.943C189.934 174.309 189.852 173.363 189.218 172.83L187.288 175.127ZM182.805 169.48C182.072 170.951 181.267 172.384 180.393 173.774L182.934 175.37C183.859 173.897 184.713 172.378 185.49 170.817L182.805 169.48ZM174.372 181.564C172.131 183.949 169.656 186.133 166.98 188.081L168.746 190.507C171.572 188.449 174.189 186.141 176.559 183.617L174.372 181.564ZM158.508 193.129C155.57 194.533 152.477 195.687 149.258 196.56L150.044 199.455C153.438 198.534 156.701 197.318 159.801 195.836L158.508 193.129ZM139.54 198.285C137.913 198.427 136.266 198.5 134.599 198.5V201.5C136.353 201.5 138.088 201.423 139.801 201.274L139.54 198.285ZM134.599 198.5C132.761 198.5 130.945 198.411 129.156 198.239L128.868 201.225C130.753 201.407 132.665 201.5 134.599 201.5V198.5ZM118.484 196.143C114.963 195.083 111.602 193.684 108.44 191.988L107.022 194.632C110.359 196.422 113.906 197.897 117.619 199.016L118.484 196.143ZM99.4353 185.91C96.6378 183.573 94.1009 180.963 91.8703 178.125L89.5115 179.979C91.8728 182.984 94.5562 185.743 97.5122 188.212L99.4353 185.91ZM86.1252 168.931C85.3409 167.305 84.6446 165.633 84.042 163.921L81.2122 164.917C81.8521 166.735 82.5912 168.51 83.4232 170.234L86.1252 168.931ZM81.892 163.112C79.8517 164.259 77.7238 165.281 75.5202 166.165L76.6379 168.949C78.9628 168.016 81.2084 166.938 83.3622 165.727L81.892 163.112ZM61.8602 169.695C59.5507 169.986 57.194 170.136 54.7996 170.136V173.136C57.3194 173.136 59.8012 172.978 62.2346 172.672L61.8602 169.695ZM54.7996 170.136C53.0751 170.136 51.37 170.058 49.6881 169.906L49.4179 172.894C51.1896 173.054 52.9848 173.136 54.7996 173.136V170.136ZM39.6428 168.058C36.3206 167.123 33.1342 165.889 30.1179 164.388L28.7815 167.074C31.9648 168.658 35.3265 169.96 38.8301 170.946L39.6428 168.058ZM21.4548 158.999C18.7329 156.921 16.2308 154.595 13.9863 152.058L11.7393 154.046C14.114 156.73 16.7593 159.189 19.6346 161.383L21.4548 158.999ZM8.0324 143.795C6.34009 140.861 4.945 137.752 3.88484 134.504L1.03292 135.435C2.15882 138.884 3.63957 142.183 5.43379 145.294L8.0324 143.795ZM1.76519 124.559C1.58983 122.886 1.5 121.19 1.5 119.472H-1.5C-1.5 121.294 -1.40468 123.096 -1.21846 124.872L1.76519 124.559ZM1.5 119.472C1.5 118.025 1.56384 116.591 1.68893 115.175L-1.29943 114.911C-1.43227 116.415 -1.5 117.936 -1.5 119.472H1.5ZM3.2018 106.722C3.96122 103.937 4.96376 101.245 6.18694 98.6671L3.47654 97.3812C2.17871 100.117 1.11417 102.975 0.307495 105.933L3.2018 106.722ZM10.5307 91.2479C12.1851 88.9081 14.0399 86.706 16.0721 84.6638L13.9455 82.5477C11.7966 84.7072 9.83348 87.0376 8.08118 89.5158L10.5307 91.2479ZM22.626 79.0771C23.7884 78.2392 24.9883 77.4455 26.2227 76.6987L24.6698 74.1319C23.3666 74.9203 22.0996 75.7584 20.8718 76.6434L22.626 79.0771ZM26.9253 75.1653C26.8126 74.499 26.7137 73.8282 26.6287 73.1534L23.6522 73.5283C23.7425 74.245 23.8476 74.9574 23.9672 75.6653L26.9253 75.1653ZM26.2902 69.1003C26.2622 68.4256 26.248 67.7474 26.248 67.066H23.248C23.248 67.7889 23.2631 68.5086 23.2928 69.2247L26.2902 69.1003ZM26.248 67.066C26.248 65.3487 26.3379 63.6519 26.5132 61.9794L23.5296 61.6665C23.3434 63.4427 23.248 65.244 23.248 67.066H26.248ZM28.6329 52.0343C29.693 48.7863 31.0881 45.6773 32.7804 42.7437L30.1818 41.2446C28.3876 44.3549 26.9069 47.654 25.781 51.1034L28.6329 52.0343ZM38.7344 34.4801C40.9788 31.9429 43.4809 29.6172 46.2028 27.5396L44.3827 25.1549C41.5073 27.3495 38.862 29.808 36.4874 32.4924L38.7344 34.4801ZM54.866 22.1501C57.8822 20.6493 61.0687 19.4149 64.3909 18.4799L63.5782 15.5921C60.0746 16.5781 56.7129 17.8803 53.5296 19.4642L54.866 22.1501ZM74.4362 16.6322C76.1181 16.4802 77.8231 16.4023 79.5477 16.4023V13.4023C77.7328 13.4023 75.9376 13.4842 74.166 13.6444L74.4362 16.6322ZM79.5477 16.4023C81.3423 16.4023 83.1158 16.4866 84.864 16.6511L85.1451 13.6643C83.3035 13.491 81.4362 13.4023 79.5477 13.4023V16.4023ZM95.2995 18.651C97.0123 19.1539 98.6881 19.7367 100.322 20.3948L101.443 17.6119C99.7188 16.9177 97.9511 16.3029 96.1447 15.7725L95.2995 18.651ZM102.016 19.9854C103.281 18.5247 104.631 17.1323 106.058 15.8148L104.023 13.6105C102.515 15.0031 101.087 16.4757 99.7486 18.0213L102.016 19.9854ZM115.396 8.92329C118.709 6.99507 122.261 5.40105 126.001 4.19096L125.077 1.33667C121.133 2.61304 117.385 4.29488 113.887 6.33044L115.396 8.92329ZM137.372 1.79792C139.281 1.60106 141.221 1.5 143.186 1.5V-1.5C141.118 -1.5 139.075 -1.39364 137.064 -1.18626L137.372 1.79792ZM143.186 1.5C145.096 1.5 146.981 1.5954 148.838 1.78137L149.137 -1.20369C147.181 -1.3996 145.196 -1.5 143.186 -1.5V1.5ZM159.904 4.04196C163.549 5.18534 167.019 6.69232 170.267 8.51744L171.736 5.902C168.308 3.97541 164.646 2.38547 160.802 1.17952L159.904 4.04196ZM179.466 15.0482C180.881 16.2985 182.224 17.6207 183.489 19.0087L185.706 16.988C184.368 15.5196 182.948 14.1215 181.452 12.8001L179.466 15.0482ZM185.047 19.4294C186.389 19.0082 187.754 18.6362 189.141 18.3157L188.466 15.3927C187.004 15.7305 185.563 16.1228 184.148 16.5672L185.047 19.4294ZM197.529 17.0428C198.929 16.938 200.345 16.8845 201.774 16.8845V13.8845C200.27 13.8845 198.78 13.9408 197.305 14.0511L197.529 17.0428ZM201.774 16.8845C203.203 16.8845 204.619 16.938 206.02 17.0429L206.244 14.0513C204.769 13.9408 203.278 13.8845 201.774 13.8845V16.8845ZM214.41 18.3167C217.2 18.9615 219.904 19.815 222.503 20.8587L223.621 18.0749C220.879 16.9737 218.028 16.0735 215.086 15.3937L214.41 18.3167ZM230.1 24.6241C231.319 25.3521 232.504 26.1257 233.653 26.9422L235.39 24.4966C234.177 23.6343 232.925 22.8175 231.639 22.0489L230.1 24.6241ZM235.409 26.929C236.572 26.0756 237.774 25.2669 239.011 24.5056L237.439 21.9507C236.133 22.7545 234.863 23.6085 233.634 24.5098L235.409 26.929ZM246.744 20.5654C249.394 19.4728 252.155 18.5786 255.008 17.903L254.317 14.9837C251.309 15.6962 248.396 16.6391 245.6 17.792L246.744 20.5654ZM263.591 16.5683C265.024 16.4584 266.474 16.4023 267.937 16.4023V13.4023C266.397 13.4023 264.871 13.4613 263.362 13.5771L263.591 16.5683ZM267.937 16.4023C269.662 16.4023 271.367 16.4802 273.049 16.6322L273.319 13.6444C271.547 13.4842 269.752 13.4023 267.937 13.4023V16.4023ZM283.094 18.4799C286.416 19.4149 289.603 20.6493 292.619 22.1501L293.955 19.4642C290.772 17.8803 287.41 16.5781 283.907 15.5921L283.094 18.4799ZM301.282 27.5396C304.004 29.6172 306.506 31.9429 308.751 34.4802L310.998 32.4924C308.623 29.808 305.978 27.3495 303.102 25.1549L301.282 27.5396ZM314.705 42.7437C316.397 45.6773 317.792 48.7863 318.852 52.0343L321.704 51.1034C320.578 47.654 319.097 44.3549 317.303 41.2447L314.705 42.7437ZM320.972 61.9794C321.147 63.6519 321.237 65.3487 321.237 67.066H324.237C324.237 65.244 324.142 63.4427 323.955 61.6665L320.972 61.9794ZM321.237 67.066C321.237 67.6439 321.227 68.2195 321.207 68.7926L324.205 68.8982C324.226 68.2899 324.237 67.6791 324.237 67.066H321.237ZM320.963 72.2363C320.902 72.8101 320.831 73.3811 320.749 73.9491L323.719 74.3734C323.805 73.7701 323.881 73.1637 323.946 72.5543L320.963 72.2363ZM321.494 75.4656C322.785 76.1987 324.04 76.9823 325.258 77.8133L326.949 75.3357C325.664 74.458 324.338 73.6308 322.975 72.8568L321.494 75.4656ZM332.133 83.4012C334.269 85.4581 336.221 87.6871 337.963 90.064L340.383 88.2905C338.538 85.7733 336.472 83.4149 334.214 81.2402L332.133 83.4012ZM342.545 97.6295C343.836 100.266 344.896 103.026 345.699 105.884L348.588 105.073C347.734 102.036 346.609 99.107 345.239 96.3096L342.545 97.6295ZM347.3 114.572C347.433 116.028 347.5 117.502 347.5 118.992H350.5C350.5 117.411 350.428 115.846 350.288 114.3L347.3 114.572ZM347.5 118.992C347.5 120.709 347.41 122.406 347.235 124.078L350.219 124.391C350.405 122.615 350.5 120.814 350.5 118.992H347.5ZM345.115 134.024C344.055 137.272 342.66 140.381 340.968 143.314L343.566 144.813C345.361 141.703 346.841 138.404 347.967 134.954L345.115 134.024ZM335.014 151.578C332.769 154.115 330.267 156.441 327.545 158.518L329.365 160.903C332.241 158.708 334.886 156.25 337.261 153.565L335.014 151.578ZM318.882 163.908C315.866 165.409 312.679 166.643 309.357 167.578L310.17 170.466C313.674 169.48 317.035 168.178 320.219 166.594L318.882 163.908ZM299.312 169.426C297.63 169.578 295.925 169.656 294.201 169.656V172.656C296.015 172.656 297.811 172.574 299.582 172.413L299.312 169.426ZM294.201 169.656C292.053 169.656 289.936 169.535 287.856 169.3L287.52 172.281C289.711 172.529 291.941 172.656 294.201 172.656V169.656ZM275.501 166.45C273.492 165.734 271.541 164.907 269.656 163.976L268.327 166.665C270.316 167.648 272.375 168.521 274.494 169.276L275.501 166.45ZM267.795 164.415C266.961 165.518 266.08 166.587 265.157 167.621L267.395 169.619C268.372 168.525 269.303 167.393 270.187 166.226L267.795 164.415ZM259.152 173.355C257.015 175.095 254.731 176.677 252.32 178.082L253.83 180.674C256.375 179.19 258.788 177.52 261.046 175.682L259.152 173.355ZM244.839 181.703C242.284 182.706 239.629 183.526 236.892 184.145L237.554 187.071C240.44 186.418 243.24 185.553 245.935 184.495L244.839 181.703ZM228.665 185.369C227.291 185.469 225.903 185.521 224.502 185.521V188.521C225.977 188.521 227.438 188.467 228.884 188.361L228.665 185.369ZM224.502 185.521C222.657 185.521 220.834 185.432 219.038 185.258L218.749 188.244C220.641 188.427 222.56 188.521 224.502 188.521V185.521ZM208.323 183.145C204.789 182.076 201.415 180.666 198.244 178.956L196.82 181.597C200.167 183.401 203.727 184.889 207.454 186.016L208.323 183.145ZM189.218 172.83C187.82 171.655 186.487 170.412 185.226 169.106L183.068 171.19C184.402 172.571 185.811 173.885 187.288 175.127L189.218 172.83ZM184.147 170.148L186.305 168.064C185.628 167.363 184.653 167.035 183.69 167.183C182.727 167.332 181.896 167.939 181.462 168.811L184.147 170.148ZM82.6271 164.419L85.4569 163.423C85.1626 162.587 84.5137 161.924 83.6842 161.612C82.8547 161.3 81.9295 161.37 81.1569 161.804L82.6271 164.419ZM25.4462 75.4153L26.9991 77.9821C28.0523 77.345 28.6094 76.1291 28.4043 74.9154L25.4462 75.4153ZM100.882 19.0033L99.7617 21.7862C100.95 22.2648 102.311 21.9358 103.15 20.9674L100.882 19.0033ZM184.597 17.9983L182.38 20.019C183.166 20.882 184.382 21.2103 185.496 20.8606L184.597 17.9983ZM234.522 25.7194L232.784 28.1649C233.838 28.9138 235.253 28.9032 236.296 28.1385L234.522 25.7194ZM322.234 74.1612L319.264 73.7369C319.09 74.9578 319.681 76.161 320.753 76.77L322.234 74.1612ZM268.991 165.32L270.32 162.631C269.03 161.993 267.468 162.362 266.599 163.51L268.991 165.32ZM179.123 172.976C178.242 174.379 178.665 176.231 180.068 177.112C181.471 177.994 183.322 177.571 184.204 176.168L179.123 172.976ZM177.652 184.644C178.786 183.437 178.727 181.538 177.519 180.404C176.311 179.27 174.413 179.329 173.279 180.537L177.652 184.644ZM166.097 186.869C164.758 187.844 164.462 189.72 165.438 191.06C166.413 192.399 168.289 192.694 169.629 191.719L166.097 186.869ZM160.448 197.189C161.943 196.475 162.576 194.684 161.861 193.189C161.147 191.694 159.356 191.061 157.861 191.776L160.448 197.189ZM148.866 195.112C147.266 195.546 146.322 197.194 146.756 198.793C147.19 200.392 148.838 201.337 150.437 200.903L148.866 195.112ZM139.931 202.768C141.582 202.624 142.803 201.169 142.659 199.518C142.515 197.868 141.06 196.647 139.409 196.791L139.931 202.768ZM129.3 196.746C127.65 196.587 126.184 197.795 126.025 199.444C125.866 201.093 127.075 202.559 128.724 202.718L129.3 196.746ZM117.186 200.452C118.773 200.93 120.446 200.031 120.924 198.444C121.402 196.858 120.503 195.184 118.917 194.707L117.186 200.452ZM109.149 190.667C107.689 189.883 105.871 190.432 105.088 191.892C104.304 193.352 104.853 195.17 106.313 195.954L109.149 190.667ZM96.5507 189.363C97.8223 190.426 99.7142 190.256 100.776 188.984C101.838 187.712 101.668 185.82 100.397 184.758L96.5507 189.363ZM93.0497 177.198C92.0259 175.896 90.14 175.669 88.8372 176.693C87.5345 177.717 87.3084 179.603 88.3321 180.906L93.0497 177.198ZM82.0723 170.886C82.7922 172.378 84.5856 173.004 86.0778 172.284C87.5701 171.564 88.1962 169.771 87.4762 168.279L82.0723 170.886ZM74.9613 164.773C73.4237 165.391 72.6777 167.137 73.295 168.675C73.9123 170.213 75.6592 170.959 77.1967 170.341L74.9613 164.773ZM62.4218 174.16C64.0657 173.954 65.2307 172.453 65.024 170.809C64.8172 169.165 63.3169 168 61.673 168.207L62.4218 174.16ZM49.8232 168.412C48.173 168.263 46.7144 169.48 46.5652 171.13C46.416 172.78 47.6328 174.239 49.2829 174.388L49.8232 168.412ZM38.4237 172.39C40.0186 172.839 41.6754 171.91 42.1243 170.315C42.5731 168.72 41.6441 167.063 40.0492 166.615L38.4237 172.39ZM30.7861 163.045C29.3027 162.307 27.5019 162.911 26.7638 164.395C26.0257 165.878 26.6299 167.679 28.1133 168.417L30.7861 163.045ZM18.7245 162.576C20.0416 163.581 21.9242 163.328 22.9294 162.011C23.9347 160.694 23.6819 158.812 22.3649 157.806L18.7245 162.576ZM15.1098 151.064C14.012 149.823 12.1161 149.707 10.8751 150.805C9.63412 151.903 9.51803 153.799 10.6158 155.04L15.1098 151.064ZM4.13449 146.043C4.96241 147.478 6.79701 147.971 8.23218 147.143C9.66735 146.315 10.1596 144.48 9.3317 143.045L4.13449 146.043ZM5.3108 134.039C4.79669 132.464 3.10307 131.603 1.528 132.118C-0.047076 132.632 -0.907153 134.325 -0.393038 135.9L5.3108 134.039ZM-2.71028 125.028C-2.53751 126.676 -1.06163 127.872 0.586194 127.699C2.23402 127.526 3.42978 126.05 3.25701 124.403L-2.71028 125.028ZM3.18311 115.307C3.32889 113.657 2.10913 112.201 0.4587 112.055C-1.19173 111.909 -2.64784 113.129 -2.79362 114.779L3.18311 115.307ZM-1.13966 105.538C-1.57558 107.137 -0.633143 108.786 0.965337 109.222C2.56382 109.658 4.21303 108.715 4.64895 107.117L-1.13966 105.538ZM7.54214 99.3101C8.25236 97.8132 7.61462 96.024 6.11771 95.3137C4.6208 94.6035 2.83156 95.2413 2.12134 96.7382L7.54214 99.3101ZM6.85643 88.6498C5.89986 90.0027 6.22109 91.8748 7.57392 92.8314C8.92675 93.7879 10.7989 93.4667 11.7554 92.1139L6.85643 88.6498ZM17.1353 85.7219C18.304 84.5474 18.2994 82.6479 17.1249 81.4792C15.9505 80.3105 14.051 80.3152 12.8823 81.4896L17.1353 85.7219ZM19.9946 75.4266C18.6506 76.3954 18.3464 78.2704 19.3152 79.6145C20.284 80.9585 22.159 81.2627 23.5031 80.2939L19.9946 75.4266ZM28.1169 72.9659C27.9099 71.3221 26.4094 70.1573 24.7656 70.3643C23.1217 70.5714 21.9569 72.0718 22.164 73.7157L28.1169 72.9659ZM21.7941 69.287C21.8628 70.9424 23.2605 72.2287 24.916 72.1599C26.5714 72.0912 27.8577 70.6935 27.7889 69.038L21.7941 69.287ZM28.0051 62.1358C28.1778 60.488 26.9821 59.0121 25.3342 58.8393C23.6864 58.6665 22.2105 59.8623 22.0378 61.5101L28.0051 62.1358ZM24.355 50.638C23.8409 52.213 24.701 53.9067 26.276 54.4208C27.8511 54.9349 29.5447 54.0748 30.0588 52.4997L24.355 50.638ZM34.0798 43.4933C34.9077 42.0581 34.4154 40.2235 32.9802 39.3956C31.5451 38.5677 29.7105 39.0599 28.8825 40.4951L34.0798 43.4933ZM35.3639 31.4986C34.2661 32.7396 34.3822 34.6355 35.6231 35.7333C36.8641 36.8311 38.7601 36.715 39.8579 35.474L35.3639 31.4986ZM47.1129 28.732C48.43 27.7267 48.6827 25.8441 47.6775 24.5271C46.6722 23.21 44.7896 22.9573 43.4726 23.9625L47.1129 28.732ZM52.8613 18.1213C51.378 18.8594 50.7738 20.6602 51.5119 22.1436C52.25 23.627 54.0508 24.2311 55.5342 23.4931L52.8613 18.1213ZM64.7972 19.9238C66.3921 19.475 67.3212 17.8182 66.8723 16.2233C66.4235 14.6284 64.7667 13.6993 63.1718 14.1482L64.7972 19.9238ZM74.0309 12.1505C72.3808 12.2997 71.1641 13.7583 71.3133 15.4085C71.4625 17.0586 72.9211 18.2753 74.5712 18.1261L74.0309 12.1505ZM84.7235 18.1445C86.373 18.2998 87.8361 17.0884 87.9914 15.4388C88.1466 13.7892 86.9352 12.3262 85.2856 12.1709L84.7235 18.1445ZM96.5673 14.3333C94.9776 13.8665 93.3104 14.7768 92.8436 16.3665C92.3768 17.9563 93.2872 19.6234 94.8769 20.0902L96.5673 14.3333ZM107.076 16.917C108.293 15.7932 108.369 13.8952 107.245 12.6778C106.121 11.4603 104.223 11.3844 103.006 12.5083L107.076 16.917ZM113.133 5.03401C111.701 5.86742 111.215 7.70389 112.049 9.13588C112.882 10.5679 114.719 11.0531 116.151 10.2197L113.133 5.03401ZM126.463 5.6181C128.039 5.10799 128.904 3.41657 128.393 1.84019C127.883 0.263815 126.192 -0.60057 124.616 -0.090466L126.463 5.6181ZM136.91 -2.67835C135.262 -2.50842 134.064 -1.0346 134.234 0.613519C134.404 2.26164 135.877 3.45994 137.525 3.29001L136.91 -2.67835ZM148.689 3.2739C150.337 3.43903 151.808 2.23643 151.973 0.58782C152.138 -1.06079 150.935 -2.5311 149.287 -2.69623L148.689 3.2739ZM161.251 -0.251699C159.67 -0.747667 157.987 0.131827 157.491 1.71271C156.995 3.29359 157.874 4.97721 159.455 5.47317L161.251 -0.251699ZM169.532 9.82515C170.977 10.6368 172.806 10.1237 173.617 8.67925C174.429 7.23479 173.916 5.40589 172.471 4.59429L169.532 9.82515ZM182.445 11.6761C181.204 10.579 179.308 10.6961 178.211 11.9377C177.114 13.1793 177.231 15.0752 178.473 16.1723L182.445 11.6761ZM189.479 19.7772C191.093 19.4043 192.1 17.7933 191.727 16.179C191.354 14.5646 189.743 13.5583 188.128 13.9312L189.479 19.7772ZM197.193 12.5553C195.541 12.679 194.302 14.1187 194.426 15.7709C194.549 17.4232 195.989 18.6623 197.641 18.5386L197.193 12.5553ZM205.908 18.5387C207.56 18.6624 209 17.4234 209.123 15.7711C209.247 14.1189 208.008 12.6792 206.356 12.5555L205.908 18.5387ZM215.423 13.9322C213.809 13.5592 212.198 14.5654 211.825 16.1797C211.452 17.794 212.458 19.4051 214.072 19.7781L215.423 13.9322ZM221.944 22.2506C223.481 22.8682 225.228 22.1224 225.846 20.585C226.463 19.0475 225.718 17.3005 224.18 16.683L221.944 22.2506ZM232.409 20.7613C230.986 19.9114 229.145 20.3754 228.295 21.7976C227.445 23.2199 227.909 25.0618 229.331 25.9118L232.409 20.7613ZM239.797 25.7831C241.208 24.9147 241.648 23.0668 240.78 21.6558C239.911 20.2447 238.064 19.8048 236.653 20.6732L239.797 25.7831ZM245.029 16.4053C243.497 17.037 242.767 18.7907 243.399 20.3225C244.031 21.8542 245.784 22.5838 247.316 21.9521L245.029 16.4053ZM255.354 19.3626C256.966 18.9808 257.963 17.3642 257.582 15.752C257.2 14.1397 255.583 13.1423 253.971 13.5241L255.354 19.3626ZM263.247 12.0814C261.595 12.2081 260.359 13.65 260.485 15.302C260.612 16.954 262.054 18.1906 263.706 18.0639L263.247 12.0814ZM272.914 18.1261C274.564 18.2753 276.023 17.0586 276.172 15.4085C276.321 13.7584 275.104 12.2997 273.454 12.1505L272.914 18.1261ZM284.313 14.1482C282.718 13.6993 281.062 14.6284 280.613 16.2233C280.164 17.8182 281.093 19.475 282.688 19.9238L284.313 14.1482ZM291.951 23.4931C293.434 24.2311 295.235 23.627 295.973 22.1436C296.711 20.6602 296.107 18.8594 294.624 18.1213L291.951 23.4931ZM304.012 23.9625C302.695 22.9573 300.813 23.21 299.807 24.5271C298.802 25.8442 299.055 27.7268 300.372 28.732L304.012 23.9625ZM307.627 35.474C308.725 36.715 310.621 36.8311 311.862 35.7333C313.103 34.6355 313.219 32.7396 312.121 31.4986L307.627 35.474ZM318.602 40.4951C317.775 39.0599 315.94 38.5677 314.505 39.3956C313.07 40.2235 312.577 42.0581 313.405 43.4933L318.602 40.4951ZM317.426 52.4997C317.94 54.0748 319.634 54.9349 321.209 54.4208C322.784 53.9067 323.644 52.213 323.13 50.638L317.426 52.4997ZM325.447 61.5101C325.274 59.8623 323.799 58.6665 322.151 58.8393C320.503 59.0121 319.307 60.488 319.48 62.1358L325.447 61.5101ZM319.708 68.7398C319.649 70.3957 320.944 71.7852 322.6 71.8436C324.256 71.9019 325.645 70.6068 325.704 68.951L319.708 68.7398ZM325.438 72.7132C325.613 71.0657 324.42 69.5878 322.772 69.4122C321.125 69.2365 319.647 70.4297 319.471 72.0773L325.438 72.7132ZM324.412 79.0521C325.78 79.9864 327.647 79.6344 328.581 78.266C329.515 76.8977 329.163 75.0311 327.795 74.0969L324.412 79.0521ZM335.254 80.1597C334.061 79.0105 332.162 79.0464 331.012 80.2399C329.863 81.4333 329.899 83.3325 331.093 84.4817L335.254 80.1597ZM336.753 90.9508C337.733 92.2871 339.61 92.5764 340.946 91.5968C342.283 90.6173 342.572 88.74 341.592 87.4037L336.753 90.9508ZM346.586 95.6496C345.857 94.1618 344.06 93.5465 342.572 94.2755C341.084 95.0045 340.469 96.8016 341.198 98.2895L346.586 95.6496ZM344.255 106.29C344.703 107.885 346.36 108.815 347.955 108.367C349.55 107.918 350.48 106.262 350.032 104.667L344.255 106.29ZM351.782 114.164C351.632 112.514 350.172 111.298 348.522 111.448C346.872 111.598 345.656 113.057 345.806 114.707L351.782 114.164ZM345.743 123.922C345.57 125.57 346.766 127.046 348.414 127.219C350.062 127.391 351.538 126.196 351.71 124.548L345.743 123.922ZM349.393 135.42C349.907 133.845 349.047 132.151 347.472 131.637C345.897 131.123 344.203 131.983 343.689 133.558L349.393 135.42ZM339.668 142.565C338.84 144 339.333 145.834 340.768 146.662C342.203 147.49 344.038 146.998 344.866 145.563L339.668 142.565ZM338.384 154.559C339.482 153.318 339.366 151.422 338.125 150.325C336.884 149.227 334.988 149.343 333.89 150.584L338.384 154.559ZM326.635 157.326C325.318 158.331 325.065 160.214 326.071 161.531C327.076 162.848 328.959 163.101 330.276 162.095L326.635 157.326ZM320.887 167.937C322.37 167.198 322.974 165.398 322.236 163.914C321.498 162.431 319.697 161.827 318.214 162.565L320.887 167.937ZM308.951 166.134C307.356 166.583 306.427 168.24 306.876 169.835C307.325 171.429 308.981 172.359 310.576 171.91L308.951 166.134ZM299.717 173.907C301.367 173.758 302.584 172.299 302.435 170.649C302.286 168.999 300.827 167.783 299.177 167.932L299.717 173.907ZM288.024 167.81C286.377 167.624 284.892 168.808 284.707 170.455C284.521 172.101 285.705 173.586 287.352 173.772L288.024 167.81ZM273.991 170.689C275.552 171.245 277.268 170.43 277.824 168.87C278.38 167.309 277.565 165.593 276.004 165.037L273.991 170.689ZM264.038 166.622C262.935 167.858 263.042 169.755 264.278 170.858C265.514 171.962 267.41 171.854 268.514 170.618L264.038 166.622ZM261.993 176.845C263.278 175.799 263.471 173.909 262.425 172.624C261.379 171.339 259.49 171.146 258.205 172.192L261.993 176.845ZM251.564 176.786C250.133 177.62 249.649 179.457 250.483 180.888C251.317 182.32 253.154 182.804 254.586 181.97L251.564 176.786ZM246.483 185.891C248.026 185.286 248.785 183.544 248.179 182.002C247.574 180.46 245.832 179.701 244.29 180.306L246.483 185.891ZM236.561 182.682C234.945 183.048 233.931 184.654 234.297 186.27C234.663 187.886 236.269 188.9 237.885 188.534L236.561 182.682ZM228.994 189.856C230.647 189.735 231.888 188.297 231.767 186.645C231.645 184.993 230.207 183.751 228.555 183.873L228.994 189.856ZM219.182 183.765C217.533 183.605 216.067 184.813 215.907 186.462C215.747 188.111 216.955 189.577 218.604 189.737L219.182 183.765ZM207.02 187.452C208.606 187.932 210.281 187.035 210.76 185.449C211.24 183.863 210.343 182.189 208.757 181.709L207.02 187.452ZM198.956 177.636C197.498 176.849 195.678 177.394 194.891 178.852C194.105 180.311 194.65 182.13 196.108 182.917L198.956 177.636ZM186.323 176.275C187.591 177.341 189.484 177.177 190.55 175.908C191.615 174.64 191.451 172.747 190.183 171.681L186.323 176.275ZM181.462 168.811C180.751 170.238 179.971 171.628 179.123 172.976L184.204 176.168C185.156 174.653 186.034 173.091 186.833 171.485L181.462 168.811ZM173.279 180.537C171.103 182.854 168.698 184.975 166.097 186.869L169.629 191.719C172.53 189.607 175.217 187.237 177.652 184.644L173.279 180.537ZM157.861 191.776C155.004 193.141 151.996 194.263 148.866 195.112L150.437 200.903C153.918 199.958 157.267 198.71 160.448 197.189L157.861 191.776ZM139.409 196.791C137.826 196.929 136.222 197 134.599 197V203C136.396 203 138.175 202.921 139.931 202.768L139.409 196.791ZM134.599 197C132.809 197 131.041 196.914 129.3 196.746L128.724 202.718C130.657 202.904 132.617 203 134.599 203V197ZM118.917 194.707C115.492 193.675 112.223 192.316 109.149 190.667L106.313 195.954C109.737 197.791 113.377 199.305 117.186 200.452L118.917 194.707ZM100.397 184.758C97.6786 182.488 95.2149 179.953 93.0497 177.198L88.3321 180.906C90.7588 183.994 93.5154 186.828 96.5507 189.363L100.397 184.758ZM87.4762 168.279C86.7158 166.703 86.0409 165.082 85.4569 163.423L79.7973 165.416C80.4558 167.286 81.2163 169.112 82.0723 170.886L87.4762 168.279ZM81.1569 161.804C79.1733 162.92 77.1043 163.913 74.9613 164.773L77.1967 170.341C79.5824 169.383 81.8868 168.277 84.0973 167.035L81.1569 161.804ZM61.673 168.207C59.4255 168.49 57.1313 168.636 54.7996 168.636V174.636C57.3821 174.636 59.9264 174.474 62.4218 174.16L61.673 168.207ZM54.7996 168.636C53.1202 168.636 51.4602 168.56 49.8232 168.412L49.2829 174.388C51.0994 174.552 52.9396 174.636 54.7996 174.636V168.636ZM40.0492 166.615C36.8177 165.705 33.7189 164.504 30.7861 163.045L28.1133 168.417C31.3801 170.043 34.8295 171.379 38.4237 172.39L40.0492 166.615ZM22.3649 157.806C19.7196 155.787 17.2891 153.528 15.1098 151.064L10.6158 155.04C13.0556 157.798 15.7725 160.323 18.7245 162.576L22.3649 157.806ZM9.3317 143.045C7.69035 140.2 6.33809 137.186 5.3108 134.039L-0.393038 135.9C0.765729 139.45 2.28931 142.845 4.13449 146.043L9.3317 143.045ZM3.25701 124.403C3.08709 122.782 3 121.137 3 119.472H-3C-3 121.347 -2.90194 123.2 -2.71028 125.028L3.25701 124.403ZM3 119.472C3 118.069 3.06189 116.68 3.18311 115.307L-2.79362 114.779C-2.93032 116.327 -3 117.892 -3 119.472H3ZM4.64895 107.117C5.38474 104.419 6.35629 101.81 7.54214 99.3101L2.12134 96.7382C0.78618 99.5522 -0.309359 102.494 -1.13966 105.538L4.64895 107.117ZM11.7554 92.1139C13.3609 89.8434 15.1615 87.7053 17.1353 85.7219L12.8823 81.4896C10.6749 83.7078 8.65768 86.1024 6.85643 88.6498L11.7554 92.1139ZM23.5031 80.2939C24.6329 79.4796 25.7991 78.7081 26.9991 77.9821L23.8934 72.8485C22.5557 73.6577 21.2551 74.518 19.9946 75.4266L23.5031 80.2939ZM28.4043 74.9154C28.2952 74.2697 28.1993 73.6199 28.1169 72.9659L22.164 73.7157C22.2569 74.4534 22.365 75.1867 22.4882 75.9152L28.4043 74.9154ZM27.7889 69.038C27.7618 68.3841 27.748 67.7267 27.748 67.066H21.748C21.748 67.8097 21.7635 68.5501 21.7941 69.287L27.7889 69.038ZM27.748 67.066C27.748 65.4011 27.8351 63.7564 28.0051 62.1358L22.0378 61.5101C21.8461 63.3382 21.748 65.1917 21.748 67.066H27.748ZM30.0588 52.4997C31.0861 49.3525 32.4384 46.3385 34.0798 43.4933L28.8825 40.4951C27.0374 43.6937 25.5138 47.0879 24.355 50.638L30.0588 52.4997ZM39.8579 35.474C42.0372 33.0104 44.4677 30.751 47.1129 28.732L43.4726 23.9625C40.5205 26.2157 37.8036 28.7405 35.3639 31.4986L39.8579 35.474ZM55.5342 23.4931C58.4669 22.0338 61.5657 20.8333 64.7972 19.9238L63.1718 14.1482C59.5775 15.1597 56.1282 16.4958 52.8613 18.1213L55.5342 23.4931ZM74.5712 18.1261C76.2083 17.9781 77.8682 17.9023 79.5477 17.9023V11.9023C77.6877 11.9023 75.8474 11.9863 74.0309 12.1505L74.5712 18.1261ZM79.5477 17.9023C81.2953 17.9023 83.0219 17.9844 84.7235 18.1445L85.2856 12.1709C83.3974 11.9932 81.4832 11.9023 79.5477 11.9023V17.9023ZM94.8769 20.0902C96.5429 20.5794 98.1727 21.1462 99.7617 21.7862L102.003 16.2205C100.234 15.5081 98.4205 14.8774 96.5673 14.3333L94.8769 20.0902ZM103.15 20.9674C104.378 19.5492 105.689 18.1968 107.076 16.917L103.006 12.5083C101.456 13.9385 99.9901 15.4513 98.6147 17.0393L103.15 20.9674ZM116.151 10.2197C119.371 8.34516 122.826 6.79506 126.463 5.6181L124.616 -0.090466C120.569 1.21903 116.722 2.94479 113.133 5.03401L116.151 10.2197ZM137.525 3.29001C139.384 3.09842 141.272 3 143.186 3V-3C141.067 -3 138.973 -2.891 136.91 -2.67835L137.525 3.29001ZM143.186 3C145.046 3 146.882 3.0929 148.689 3.2739L149.287 -2.69623C147.281 -2.8971 145.246 -3 143.186 -3V3ZM159.455 5.47317C163 6.58527 166.374 8.05077 169.532 9.82515L172.471 4.59429C168.952 2.61696 165.195 0.985542 161.251 -0.251699L159.455 5.47317ZM178.473 16.1723C179.847 17.3869 181.152 18.6712 182.38 20.019L186.815 15.9776C185.44 14.4691 183.981 13.0331 182.445 11.6761L178.473 16.1723ZM185.496 20.8606C186.801 20.4508 188.13 20.089 189.479 19.7772L188.128 13.9312C186.628 14.2777 185.151 14.6802 183.699 15.136L185.496 20.8606ZM197.641 18.5386C199.004 18.4366 200.382 18.3845 201.774 18.3845V12.3845C200.233 12.3845 198.705 12.4422 197.193 12.5553L197.641 18.5386ZM201.774 18.3845C203.166 18.3845 204.544 18.4366 205.908 18.5387L206.356 12.5555C204.844 12.4422 203.315 12.3845 201.774 12.3845V18.3845ZM214.072 19.7781C216.787 20.4054 219.417 21.2356 221.944 22.2506L224.18 16.683C221.367 15.553 218.441 14.6296 215.423 13.9322L214.072 19.7781ZM229.331 25.9118C230.515 26.6195 231.667 27.3714 232.784 28.1649L236.259 23.2739C235.013 22.3886 233.729 21.5502 232.409 20.7613L229.331 25.9118ZM236.296 28.1385C237.427 27.3092 238.595 26.5232 239.797 25.7831L236.653 20.6732C235.312 21.4982 234.009 22.3749 232.747 23.3003L236.296 28.1385ZM247.316 21.9521C249.893 20.8896 252.578 20.0199 255.354 19.3626L253.971 13.5241C250.885 14.2549 247.897 15.2223 245.029 16.4053L247.316 21.9521ZM263.706 18.0639C265.101 17.9569 266.512 17.9023 267.937 17.9023V11.9023C266.359 11.9023 264.795 11.9628 263.247 12.0814L263.706 18.0639ZM267.937 17.9023C269.617 17.9023 271.277 17.9781 272.914 18.1261L273.454 12.1505C271.638 11.9863 269.797 11.9023 267.937 11.9023V17.9023ZM282.688 19.9238C285.919 20.8333 289.018 22.0338 291.951 23.4931L294.624 18.1213C291.357 16.4958 287.907 15.1597 284.313 14.1482L282.688 19.9238ZM300.372 28.732C303.017 30.751 305.448 33.0104 307.627 35.474L312.121 31.4986C309.681 28.7406 306.964 26.2157 304.012 23.9625L300.372 28.732ZM313.405 43.4933C315.047 46.3385 316.399 49.3525 317.426 52.4997L323.13 50.638C321.971 47.0879 320.448 43.6937 318.602 40.4951L313.405 43.4933ZM319.48 62.1358C319.65 63.7564 319.737 65.4011 319.737 67.066H325.737C325.737 65.1917 325.639 63.3382 325.447 61.5101L319.48 62.1358ZM319.737 67.066C319.737 67.6263 319.727 68.1843 319.708 68.7398L325.704 68.951C325.726 68.3251 325.737 67.6968 325.737 67.066H319.737ZM319.471 72.0773C319.412 72.6333 319.343 73.1866 319.264 73.7369L325.204 74.5855C325.293 73.9646 325.371 73.3404 325.438 72.7132L319.471 72.0773ZM320.753 76.77C322.008 77.4827 323.229 78.2444 324.412 79.0521L327.795 74.0969C326.475 73.1959 325.114 72.3468 323.716 71.5525L320.753 76.77ZM331.093 84.4817C333.167 86.4797 335.062 88.6441 336.753 90.9508L341.592 87.4037C339.696 84.8164 337.574 82.3933 335.254 80.1597L331.093 84.4817ZM341.198 98.2895C342.45 100.846 343.477 103.52 344.255 106.29L350.032 104.667C349.154 101.542 347.996 98.5274 346.586 95.6496L341.198 98.2895ZM345.806 114.707C345.935 116.119 346 117.548 346 118.992H352C352 117.366 351.926 115.756 351.782 114.164L345.806 114.707ZM346 118.992C346 120.657 345.913 122.301 345.743 123.922L351.71 124.548C351.902 122.72 352 120.866 352 118.992H346ZM343.689 133.558C342.662 136.705 341.31 139.719 339.668 142.565L344.866 145.563C346.711 142.364 348.234 138.97 349.393 135.42L343.689 133.558ZM333.89 150.584C331.711 153.047 329.28 155.307 326.635 157.326L330.276 162.095C333.228 159.842 335.945 157.317 338.384 154.559L333.89 150.584ZM318.214 162.565C315.281 164.024 312.182 165.225 308.951 166.134L310.576 171.91C314.171 170.898 317.62 169.562 320.887 167.937L318.214 162.565ZM299.177 167.932C297.54 168.08 295.88 168.156 294.201 168.156V174.156C296.06 174.156 297.901 174.072 299.717 173.907L299.177 167.932ZM294.201 168.156C292.109 168.156 290.048 168.038 288.024 167.81L287.352 173.772C289.599 174.025 291.884 174.156 294.201 174.156V168.156ZM276.004 165.037C274.05 164.341 272.153 163.536 270.32 162.631L267.662 168.01C269.704 169.019 271.817 169.915 273.991 170.689L276.004 165.037ZM266.599 163.51C265.789 164.58 264.935 165.618 264.038 166.622L268.514 170.618C269.517 169.494 270.475 168.331 271.383 167.131L266.599 163.51ZM258.205 172.192C256.128 173.882 253.908 175.42 251.564 176.786L254.586 181.97C257.198 180.447 259.674 178.732 261.993 176.845L258.205 172.192ZM244.29 180.306C241.806 181.282 239.224 182.08 236.561 182.682L237.885 188.534C240.845 187.864 243.718 186.977 246.483 185.891L244.29 180.306ZM228.555 183.873C227.218 183.971 225.867 184.021 224.502 184.021V190.021C226.013 190.021 227.511 189.965 228.994 189.856L228.555 183.873ZM224.502 184.021C222.705 184.021 220.93 183.934 219.182 183.765L218.604 189.737C220.544 189.925 222.512 190.021 224.502 190.021V184.021ZM208.757 181.709C205.32 180.669 202.039 179.298 198.956 177.636L196.108 182.917C199.543 184.769 203.196 186.295 207.02 187.452L208.757 181.709ZM190.183 171.681C188.824 170.54 187.53 169.333 186.305 168.064L181.989 172.232C183.359 173.651 184.806 175 186.323 176.275L190.183 171.681Z" fill="#247158" mask="url(#path-1-inside-1_362_997)"/>
</svg>
