<svg width="374" height="199" viewBox="0 0 374 199" fill="none" xmlns="http://www.w3.org/2000/svg">
<mask id="path-1-inside-1_362_933" fill="white">
<path fill-rule="evenodd" clip-rule="evenodd" d="M240.102 186.087C223.025 186.087 207.654 179.619 196.942 169.299C187.546 186.857 167.35 199 143.952 199C118.097 199 96.1524 184.173 88.368 163.596C79.6452 168.159 69.4715 170.777 58.6074 170.777C26.2394 170.777 0 147.539 0 118.874C0 100.436 10.8551 84.2445 27.2141 75.0369C26.723 72.3325 26.4678 69.5582 26.4678 66.7312C26.4678 38.0659 52.7072 14.8281 85.0752 14.8281C93.1689 14.8281 100.879 16.2811 107.892 18.9086C118.642 7.36138 134.918 0 153.136 0C170.822 0 186.679 6.93825 197.425 17.909C203.203 16.2216 209.378 15.3086 215.794 15.3086C228.924 15.3086 241.046 19.1326 250.817 25.5916C260.708 18.8422 273.103 14.8281 286.555 14.8281C318.923 14.8281 345.163 38.0659 345.163 66.7312C345.163 69.125 344.98 71.4809 344.625 73.7887C361.768 82.8453 373.251 99.4327 373.251 118.395C373.251 147.061 347.012 170.298 314.644 170.298C304.923 170.298 295.755 168.202 287.684 164.493C277.043 177.572 259.695 186.087 240.102 186.087Z"/>
</mask>
<path d="M196.942 169.299L197.983 168.219C197.645 167.893 197.173 167.744 196.709 167.817C196.245 167.89 195.842 168.177 195.62 168.591L196.942 169.299ZM88.368 163.596L89.7709 163.066C89.6191 162.664 89.3026 162.347 88.9015 162.195C88.5004 162.042 88.0531 162.068 87.6728 162.267L88.368 163.596ZM27.2141 75.0369L27.9499 76.3441C28.5071 76.0305 28.8043 75.3981 28.69 74.7689L27.2141 75.0369ZM107.892 18.9086L107.366 20.3132C107.935 20.5264 108.576 20.3753 108.99 19.9306L107.892 18.9086ZM197.425 17.909L196.353 18.9586C196.741 19.354 197.314 19.504 197.845 19.3489L197.425 17.909ZM250.817 25.5916L249.99 26.8429C250.498 27.1789 251.159 27.174 251.662 26.8306L250.817 25.5916ZM344.625 73.7887L343.143 73.5611C343.046 74.1927 343.36 74.8165 343.925 75.115L344.625 73.7887ZM287.684 164.493L288.31 163.13C287.689 162.844 286.952 163.016 286.52 163.546L287.684 164.493ZM192.951 172.997C192.485 173.682 192.663 174.615 193.348 175.081C194.032 175.547 194.965 175.369 195.431 174.684L192.951 172.997ZM188.416 183.036C189.009 182.457 189.021 181.507 188.442 180.914C187.863 180.322 186.914 180.31 186.321 180.889L188.416 183.036ZM178.281 187.377C177.592 187.836 177.404 188.767 177.863 189.457C178.322 190.147 179.253 190.334 179.943 189.875L178.281 187.377ZM170.39 195.072C171.15 194.741 171.497 193.857 171.166 193.097C170.835 192.338 169.952 191.99 169.192 192.321L170.39 195.072ZM159.378 195.639C158.574 195.838 158.083 196.651 158.282 197.456C158.481 198.26 159.294 198.751 160.098 198.552L159.378 195.639ZM149.38 200.285C150.206 200.22 150.822 199.497 150.757 198.671C150.691 197.845 149.968 197.229 149.142 197.295L149.38 200.285ZM139.675 197.361C138.849 197.307 138.135 197.933 138.081 198.76C138.027 199.587 138.653 200.301 139.48 200.355L139.675 197.361ZM130.61 199.18C131.423 199.344 132.213 198.818 132.377 198.006C132.54 197.194 132.015 196.403 131.202 196.239L130.61 199.18ZM122.965 193.987C122.183 193.714 121.328 194.127 121.055 194.909C120.782 195.691 121.194 196.546 121.977 196.819L122.965 193.987ZM113.748 193.28C114.484 193.661 115.389 193.373 115.77 192.637C116.15 191.901 115.862 190.996 115.127 190.616L113.748 193.28ZM107.861 186.158C107.189 185.673 106.252 185.825 105.767 186.497C105.283 187.17 105.435 188.107 106.107 188.591L107.861 186.158ZM99.2492 182.801C99.8386 183.383 100.788 183.378 101.37 182.788C101.953 182.199 101.947 181.249 101.357 180.667L99.2492 182.801ZM95.8166 174.226C95.3303 173.555 94.3924 173.406 93.7217 173.892C93.0511 174.378 92.9016 175.316 93.388 175.987L95.8166 174.226ZM88.7524 168.269C89.1147 169.014 90.0124 169.325 90.7574 168.962C91.5024 168.6 91.8125 167.702 91.4502 166.957L88.7524 168.269ZM84.2798 163.907C83.523 164.244 83.1825 165.131 83.5193 165.888C83.8562 166.644 84.7428 166.985 85.4997 166.648L84.2798 163.907ZM78.0893 169.41C78.8819 169.169 79.329 168.331 79.088 167.538C78.8469 166.746 78.009 166.298 77.2164 166.54L78.0893 169.41ZM69.8804 168.295C69.0646 168.439 68.5202 169.217 68.6644 170.033C68.8086 170.849 69.5868 171.393 70.4026 171.249L69.8804 168.295ZM62.5559 172.163C63.3829 172.116 64.0148 171.407 63.9671 170.579C63.9195 169.752 63.2104 169.121 62.3833 169.168L62.5559 172.163ZM53.3021 169.062C52.4764 168.995 51.7526 169.61 51.6854 170.436C51.6183 171.261 52.2332 171.985 53.0589 172.052L53.3021 169.062ZM42.1094 170.24C42.9125 170.443 43.7283 169.957 43.9314 169.154C44.1346 168.351 43.6483 167.535 42.8451 167.332L42.1094 170.24ZM32.8409 163.865C32.0847 163.527 31.1975 163.866 30.8593 164.622C30.5212 165.379 30.8601 166.266 31.6164 166.604L32.8409 163.865ZM21.9149 161.178C22.5981 161.646 23.5318 161.472 24.0002 160.789C24.4686 160.106 24.2945 159.172 23.6112 158.704L21.9149 161.178ZM15.5075 151.938C14.9259 151.348 13.9762 151.341 13.3862 151.922C12.7962 152.504 12.7894 153.454 13.3709 154.044L15.5075 151.938ZM6.392 145.348C6.84032 146.045 7.76849 146.246 8.46513 145.798C9.16176 145.349 9.36306 144.421 8.91475 143.725L6.392 145.348ZM4.23263 134.321C3.9489 133.543 3.08794 133.142 2.30961 133.425C1.53129 133.709 1.13034 134.57 1.41407 135.348L4.23263 134.321ZM-1.17425 124.467C-1.07787 125.29 -0.332723 125.879 0.490078 125.782C1.31288 125.686 1.90176 124.941 1.80538 124.118L-1.17425 124.467ZM1.71057 114.515C1.7906 113.69 1.18705 112.957 0.362495 112.877C-0.462057 112.797 -1.19537 113.4 -1.2754 114.225L1.71057 114.515ZM0.51663 105.104C0.279004 105.898 0.729721 106.734 1.52334 106.971C2.31695 107.209 3.15294 106.758 3.39057 105.965L0.51663 105.104ZM6.67436 97.8828C7.0565 97.1478 6.77042 96.2421 6.0354 95.86C5.30037 95.4779 4.39473 95.7639 4.0126 96.499L6.67436 97.8828ZM9.01326 88.6882C8.50685 89.3438 8.62781 90.2858 9.28344 90.7923C9.93906 91.2987 10.8811 91.1777 11.3875 90.5221L9.01326 88.6882ZM17.3072 84.0673C17.9156 83.505 17.953 82.556 17.3908 81.9476C16.8286 81.3392 15.8796 81.3017 15.2711 81.8639L17.3072 84.0673ZM22.538 76.1479C21.8489 76.6077 21.6631 77.5391 22.123 78.2282C22.5828 78.9173 23.5142 79.1031 24.2033 78.6433L22.538 76.1479ZM28.374 72.774C28.2628 71.953 27.5072 71.3776 26.6863 71.4888C25.8653 71.5999 25.2899 72.3555 25.4011 73.1765L28.374 72.774ZM25.0158 68.885C25.0527 69.7126 25.7536 70.3536 26.5812 70.3166C27.4088 70.2797 28.0497 69.5788 28.0128 68.7512L25.0158 68.885ZM28.2731 61.4869C28.3695 60.6641 27.7807 59.919 26.9579 59.8226C26.135 59.7262 25.3899 60.3151 25.2935 61.1379L28.2731 61.4869ZM27.8818 50.2564C27.5981 51.0347 27.9991 51.8957 28.7774 52.1794C29.5557 52.4631 30.4167 52.0622 30.7004 51.2839L27.8818 50.2564ZM35.3825 41.8802C35.8308 41.1836 35.6295 40.2554 34.9329 39.8071C34.2363 39.3588 33.3081 39.5601 32.8598 40.2567L35.3825 41.8802ZM39.8387 31.5611C39.2572 32.1511 39.264 33.1008 39.854 33.6824C40.444 34.264 41.3937 34.2571 41.9753 33.6671L39.8387 31.5611ZM50.079 26.9013C50.7622 26.4329 50.9364 25.4992 50.468 24.816C49.9996 24.1327 49.0659 23.9585 48.3826 24.4269L50.079 26.9013ZM58.0841 19.0008C57.3279 19.3389 56.9889 20.2261 57.3271 20.9824C57.6652 21.7387 58.5524 22.0776 59.3087 21.7395L58.0841 19.0008ZM69.3129 18.2729C70.116 18.0697 70.6024 17.2539 70.3992 16.4508C70.196 15.6477 69.3802 15.1613 68.5771 15.3645L69.3129 18.2729ZM79.5267 13.5526C78.701 13.6198 78.0861 14.3436 78.1532 15.1693C78.2204 15.995 78.9441 16.6099 79.7699 16.5428L79.5267 13.5526ZM90.7635 16.575C91.5888 16.6471 92.3162 16.0364 92.3883 15.2112C92.4603 14.3859 91.8497 13.6584 91.0244 13.5864L90.7635 16.575ZM102.745 15.6725C101.946 15.4545 101.121 15.9256 100.903 16.7249C100.685 17.5241 101.156 18.3487 101.955 18.5667L102.745 15.6725ZM111.887 17.0489C112.497 16.4874 112.535 15.5385 111.974 14.9293C111.412 14.3202 110.463 14.2815 109.854 14.8429L111.887 17.0489ZM116.606 9.48793C115.921 9.95412 115.744 10.8872 116.21 11.572C116.676 12.2568 117.609 12.434 118.294 11.9678L116.606 9.48793ZM125.371 7.84952C126.114 7.48371 126.42 6.58461 126.054 5.84132C125.688 5.09803 124.789 4.79203 124.046 5.15784L125.371 7.84952ZM132.003 1.89319C131.218 2.15536 130.793 3.00496 131.055 3.7908C131.317 4.57665 132.167 5.00117 132.953 4.73899L132.003 1.89319ZM140.887 2.66231C141.7 2.50537 142.233 1.71874 142.076 0.905315C141.919 0.0918881 141.132 -0.440304 140.319 -0.283369L140.887 2.66231ZM148.841 -1.36577C148.014 -1.31391 147.386 -0.60161 147.438 0.225192C147.49 1.05199 148.202 1.68021 149.029 1.62835L148.841 -1.36577ZM159.122 1.77358C159.947 1.84943 160.677 1.24216 160.753 0.417216C160.829 -0.407732 160.221 -1.13797 159.396 -1.21382L159.122 1.77358ZM171.708 1.09751C170.912 0.868038 170.081 1.32731 169.851 2.12332C169.622 2.91933 170.081 3.75065 170.877 3.98012L171.708 1.09751ZM181.979 8.39359C182.714 8.77443 183.62 8.48675 184 7.75105C184.381 7.01535 184.094 6.11022 183.358 5.72938L181.979 8.39359ZM193.852 12.6146C193.211 12.0899 192.266 12.1843 191.741 12.8254C191.216 13.4665 191.311 14.4115 191.952 14.9362L193.852 12.6146ZM202.25 18.2348C203.06 18.0608 203.576 17.2632 203.402 16.4533C203.228 15.6433 202.431 15.1277 201.621 15.3016L202.25 18.2348ZM211.04 13.9732C210.213 14.0306 209.59 14.7472 209.647 15.5736C209.705 16.4 210.421 17.0234 211.248 16.966L211.04 13.9732ZM220.315 16.9643C221.142 17.0214 221.858 16.3977 221.915 15.5713C221.972 14.7448 221.349 14.0285 220.522 13.9714L220.315 16.9643ZM229.891 15.2852C229.081 15.1123 228.284 15.6288 228.111 16.439C227.938 17.2492 228.454 18.0461 229.264 18.2191L229.891 15.2852ZM237.936 20.738C238.712 21.0267 239.576 20.6311 239.864 19.8546C240.153 19.0781 239.757 18.2146 238.981 17.926L237.936 20.738ZM247.588 21.8808C246.864 21.479 245.951 21.7405 245.549 22.465C245.147 23.1894 245.409 24.1024 246.133 24.5043L247.588 21.8808ZM255.575 24.3845C256.295 23.9736 256.545 23.0573 256.134 22.338C255.723 21.6186 254.807 21.3686 254.087 21.7795L255.575 24.3845ZM262.852 17.6399C262.078 17.9352 261.69 18.8021 261.985 19.5761C262.281 20.3501 263.148 20.7381 263.922 20.4428L262.852 17.6399ZM272.776 17.8053C273.585 17.6283 274.098 16.8287 273.921 16.0194C273.744 15.2101 272.944 14.6976 272.135 14.8746L272.776 17.8053ZM281.717 13.4986C280.891 13.5571 280.268 14.2744 280.327 15.1007C280.385 15.9271 281.102 16.5496 281.929 16.4911L281.717 13.4986ZM291.861 16.5428C292.686 16.6099 293.41 15.995 293.477 15.1693C293.544 14.3436 292.929 13.6198 292.104 13.5526L291.861 16.5428ZM303.053 15.3645C302.25 15.1613 301.434 15.6477 301.231 16.4508C301.028 17.2539 301.514 18.0697 302.317 18.2729L303.053 15.3645ZM312.322 21.7395C313.078 22.0776 313.965 21.7387 314.303 20.9824C314.641 20.2261 314.302 19.3389 313.546 19.0008L312.322 21.7395ZM323.248 24.4269C322.564 23.9585 321.631 24.1327 321.162 24.816C320.694 25.4992 320.868 26.4329 321.551 26.9013L323.248 24.4269ZM329.655 33.6671C330.237 34.2571 331.186 34.2639 331.776 33.6824C332.366 33.1008 332.373 32.1511 331.792 31.5611L329.655 33.6671ZM338.771 40.2567C338.322 39.5601 337.394 39.3588 336.697 39.8071C336.001 40.2554 335.799 41.1836 336.248 41.8802L338.771 40.2567ZM340.93 51.2839C341.214 52.0622 342.075 52.4631 342.853 52.1794C343.631 51.8957 344.032 51.0347 343.749 50.2564L340.93 51.2839ZM346.337 61.1379C346.24 60.3151 345.495 59.7262 344.672 59.8226C343.85 59.919 343.261 60.6641 343.357 61.4869L346.337 61.1379ZM343.63 68.4452C343.599 69.273 344.245 69.9695 345.072 70.0009C345.9 70.0322 346.597 69.3865 346.628 68.5587L343.63 68.4452ZM346.351 72.204C346.445 71.381 345.854 70.6373 345.031 70.543C344.208 70.4487 343.465 71.0395 343.37 71.8625L346.351 72.204ZM347.843 77.3826C348.543 77.8251 349.47 77.6161 349.912 76.9157C350.355 76.2154 350.146 75.2889 349.446 74.8464L347.843 77.3826ZM357.061 80.5551C356.441 80.0061 355.493 80.064 354.944 80.6845C354.395 81.3049 354.453 82.2529 355.073 82.8018L357.061 80.5551ZM361.3 89.3277C361.818 89.9741 362.762 90.0782 363.409 89.5601C364.055 89.0421 364.159 88.0981 363.641 87.4516L361.3 89.3277ZM368.916 95.4102C368.524 94.6805 367.614 94.4068 366.884 94.7989C366.155 95.191 365.881 96.1004 366.273 96.8302L368.916 95.4102ZM369.747 105.114C369.992 105.906 370.831 106.349 371.623 106.105C372.414 105.86 372.858 105.02 372.614 104.229L369.747 105.114ZM374.513 113.609C374.43 112.784 373.695 112.183 372.871 112.265C372.047 112.348 371.445 113.083 371.528 113.907L374.513 113.609ZM371.446 123.639C371.349 124.462 371.938 125.207 372.761 125.304C373.584 125.4 374.329 124.811 374.425 123.989L371.446 123.639ZM371.837 134.87C372.121 134.092 371.72 133.231 370.941 132.947C370.163 132.663 369.302 133.064 369.018 133.843L371.837 134.87ZM364.336 143.246C363.888 143.943 364.089 144.871 364.786 145.319C365.482 145.768 366.411 145.566 366.859 144.87L364.336 143.246ZM359.88 153.565C360.462 152.975 360.455 152.026 359.865 151.444C359.275 150.862 358.325 150.869 357.743 151.459L359.88 153.565ZM349.64 158.225C348.957 158.694 348.782 159.627 349.251 160.31C349.719 160.994 350.653 161.168 351.336 160.699L349.64 158.225ZM341.635 166.126C342.391 165.787 342.73 164.9 342.392 164.144C342.053 163.388 341.166 163.049 340.41 163.387L341.635 166.126ZM330.406 166.854C329.603 167.057 329.116 167.872 329.32 168.676C329.523 169.479 330.338 169.965 331.142 169.762L330.406 166.854ZM320.192 171.574C321.018 171.507 321.633 170.783 321.566 169.957C321.498 169.131 320.775 168.517 319.949 168.584L320.192 171.574ZM307.864 168.447C307.04 168.361 306.302 168.959 306.216 169.783C306.13 170.607 306.728 171.344 307.552 171.431L307.864 168.447ZM293.675 168.46C294.462 168.72 295.31 168.293 295.57 167.506C295.83 166.72 295.403 165.871 294.617 165.611L293.675 168.46ZM283.621 166.818C283.046 167.415 283.064 168.364 283.66 168.939C284.257 169.514 285.206 169.496 285.781 168.9L283.621 166.818ZM278.861 175.006C279.524 174.509 279.658 173.569 279.161 172.906C278.664 172.243 277.724 172.109 277.061 172.606L278.861 175.006ZM269.669 177.312C268.939 177.703 268.664 178.612 269.055 179.343C269.446 180.073 270.355 180.348 271.085 179.957L269.669 177.312ZM262.67 183.696C263.449 183.416 263.854 182.556 263.573 181.777C263.292 180.997 262.433 180.593 261.654 180.874L262.67 183.696ZM253.204 183.254C252.392 183.423 251.871 184.216 252.039 185.028C252.207 185.839 253.001 186.36 253.812 186.192L253.204 183.254ZM244.7 187.433C245.526 187.378 246.151 186.663 246.096 185.836C246.04 185.01 245.325 184.385 244.498 184.44L244.7 187.433ZM234.309 184.331C233.484 184.258 232.756 184.867 232.682 185.693C232.609 186.518 233.218 187.246 234.044 187.32L234.309 184.331ZM222.117 185.156C222.915 185.378 223.742 184.911 223.964 184.113C224.186 183.315 223.719 182.488 222.921 182.266L222.117 185.156ZM212.124 178.133C211.382 177.764 210.482 178.066 210.113 178.808C209.744 179.55 210.047 180.45 210.788 180.819L212.124 178.133ZM200.502 174.364C201.156 174.873 202.098 174.756 202.607 174.102C203.116 173.448 202.999 172.506 202.345 171.997L200.502 174.364ZM195.62 168.591C194.811 170.102 193.92 171.572 192.951 172.997L195.431 174.684C196.459 173.173 197.406 171.612 198.265 170.007L195.62 168.591ZM186.321 180.889C183.884 183.268 181.192 185.442 178.281 187.377L179.943 189.875C183.005 187.839 185.843 185.547 188.416 183.036L186.321 180.889ZM169.192 192.321C166.072 193.681 162.79 194.796 159.378 195.639L160.098 198.552C163.673 197.668 167.115 196.499 170.39 195.072L169.192 192.321ZM149.142 197.295C147.433 197.431 145.702 197.5 143.952 197.5V200.5C145.781 200.5 147.592 200.428 149.38 200.285L149.142 197.295ZM143.952 197.5C142.513 197.5 141.087 197.453 139.675 197.361L139.48 200.355C140.956 200.451 142.448 200.5 143.952 200.5V197.5ZM131.202 196.239C128.37 195.669 125.619 194.913 122.965 193.987L121.977 196.819C124.76 197.791 127.644 198.583 130.61 199.18L131.202 196.239ZM115.127 190.616C112.571 189.294 110.142 187.802 107.861 186.158L106.107 188.591C108.509 190.322 111.063 191.891 113.748 193.28L115.127 190.616ZM101.357 180.667C99.322 178.657 97.4679 176.503 95.8166 174.226L93.388 175.987C95.138 178.4 97.0998 180.678 99.2492 182.801L101.357 180.667ZM91.4502 166.957C90.8317 165.686 90.2711 164.388 89.7709 163.066L86.965 164.127C87.4978 165.535 88.0946 166.917 88.7524 168.269L91.4502 166.957ZM87.6728 162.267C86.5655 162.846 85.4339 163.394 84.2798 163.907L85.4997 166.648C86.7113 166.109 87.8997 165.534 89.0632 164.926L87.6728 162.267ZM77.2164 166.54C74.8387 167.263 72.3895 167.851 69.8804 168.295L70.4026 171.249C73.0301 170.785 75.5965 170.168 78.0893 169.41L77.2164 166.54ZM62.3833 169.168C61.1354 169.24 59.8763 169.277 58.6074 169.277V172.277C59.9339 172.277 61.2505 172.239 62.5559 172.163L62.3833 169.168ZM58.6074 169.277C56.8182 169.277 55.0486 169.204 53.3021 169.062L53.0589 172.052C54.8863 172.201 56.7371 172.277 58.6074 172.277V169.277ZM42.8451 167.332C39.3617 166.451 36.0157 165.285 32.8409 163.865L31.6164 166.604C34.9493 168.094 38.459 169.317 42.1094 170.24L42.8451 167.332ZM23.6112 158.704C20.665 156.684 17.9505 154.416 15.5075 151.938L13.3709 154.044C15.9516 156.662 18.814 159.052 21.9149 161.178L23.6112 158.704ZM8.91475 143.725C7.00792 140.762 5.43305 137.614 4.23263 134.321L1.41407 135.348C2.69309 138.857 4.36864 142.204 6.392 145.348L8.91475 143.725ZM1.80538 124.118C1.60351 122.395 1.5 120.645 1.5 118.874H-1.5C-1.5 120.762 -1.38965 122.628 -1.17425 124.467L1.80538 124.118ZM1.5 118.874C1.5 117.405 1.57117 115.951 1.71057 114.515L-1.2754 114.225C-1.42412 115.757 -1.5 117.308 -1.5 118.874H1.5ZM3.39057 105.965C4.22749 103.17 5.33023 100.468 6.67436 97.8828L4.0126 96.499C2.58361 99.2476 1.409 102.124 0.51663 105.104L3.39057 105.965ZM11.3875 90.5221C13.1586 88.2291 15.1396 86.0702 17.3072 84.0673L15.2711 81.8639C12.9837 83.9777 10.889 86.2598 9.01326 88.6882L11.3875 90.5221ZM24.2033 78.6433C25.4152 77.8345 26.6649 77.0673 27.9499 76.3441L26.4784 73.7298C25.1278 74.49 23.8133 75.2968 22.538 76.1479L24.2033 78.6433ZM28.69 74.7689C28.57 74.1081 28.4646 73.4431 28.374 72.774L25.4011 73.1765C25.4977 73.8904 25.6103 74.6 25.7383 75.305L28.69 74.7689ZM28.0128 68.7512C27.9829 68.0812 27.9678 67.4078 27.9678 66.7312H24.9678C24.9678 67.4525 24.9839 68.1705 25.0158 68.885L28.0128 68.7512ZM27.9678 66.7312C27.9678 64.9598 28.0713 63.2102 28.2731 61.4869L25.2935 61.1379C25.0781 62.9767 24.9678 64.8428 24.9678 66.7312H27.9678ZM30.7004 51.2839C31.9008 47.9909 33.4757 44.8432 35.3825 41.8802L32.8598 40.2567C30.8364 43.4008 29.1609 46.7478 27.8818 50.2564L30.7004 51.2839ZM41.9753 33.6671C44.4183 31.1886 47.1327 28.9211 50.079 26.9013L48.3826 24.4269C45.2817 26.5528 42.4193 28.9431 39.8387 31.5611L41.9753 33.6671ZM59.3087 21.7395C62.4834 20.3199 65.8295 19.1541 69.3129 18.2729L68.5771 15.3645C64.9268 16.288 61.4171 17.5105 58.0841 19.0008L59.3087 21.7395ZM79.7699 16.5428C81.5164 16.4007 83.286 16.3281 85.0752 16.3281V13.3281C83.2048 13.3281 81.3541 13.404 79.5267 13.5526L79.7699 16.5428ZM85.0752 16.3281C86.9953 16.3281 88.8928 16.4118 90.7635 16.575L91.0244 13.5864C89.067 13.4155 87.0824 13.3281 85.0752 13.3281V16.3281ZM101.955 18.5667C103.801 19.0702 105.606 19.6539 107.366 20.3132L108.419 17.5039C106.572 16.8122 104.679 16.2001 102.745 15.6725L101.955 18.5667ZM108.99 19.9306C109.914 18.9379 110.881 17.9766 111.887 17.0489L109.854 14.8429C108.792 15.822 107.771 16.8372 106.794 17.8865L108.99 19.9306ZM118.294 11.9678C120.527 10.4477 122.892 9.06964 125.371 7.84952L124.046 5.15784C121.442 6.43936 118.956 7.88802 116.606 9.48793L118.294 11.9678ZM132.953 4.73899C135.514 3.88444 138.164 3.18766 140.887 2.66231L140.319 -0.283369C137.467 0.266869 134.69 0.997003 132.003 1.89319L132.953 4.73899ZM149.029 1.62835C150.385 1.54327 151.755 1.5 153.136 1.5V-1.5C151.692 -1.5 150.26 -1.45476 148.841 -1.36577L149.029 1.62835ZM153.136 1.5C155.158 1.5 157.155 1.59274 159.122 1.77358L159.396 -1.21382C157.338 -1.40305 155.25 -1.5 153.136 -1.5V1.5ZM170.877 3.98012C174.781 5.10547 178.498 6.59179 181.979 8.39359L183.358 5.72938C179.701 3.83643 175.8 2.27716 171.708 1.09751L170.877 3.98012ZM191.952 14.9362C193.502 16.2048 194.971 17.5478 196.353 18.9586L198.497 16.8594C197.037 15.369 195.486 13.9518 193.852 12.6146L191.952 14.9362ZM197.845 19.3489C199.289 18.9273 200.758 18.5552 202.25 18.2348L201.621 15.3016C200.057 15.6373 198.518 16.0272 197.004 16.4692L197.845 19.3489ZM211.248 16.966C212.747 16.8617 214.264 16.8086 215.794 16.8086V13.8086C214.194 13.8086 212.609 13.8641 211.04 13.9732L211.248 16.966ZM215.794 16.8086C217.316 16.8086 218.824 16.8611 220.315 16.9643L220.522 13.9714C218.962 13.8635 217.385 13.8086 215.794 13.8086V16.8086ZM229.264 18.2191C232.254 18.8573 235.151 19.7032 237.936 20.738L238.981 17.926C236.06 16.8403 233.023 15.9538 229.891 15.2852L229.264 18.2191ZM246.133 24.5043C247.456 25.2383 248.743 26.0187 249.99 26.8429L251.644 24.3403C250.332 23.473 248.979 22.6523 247.588 21.8808L246.133 24.5043ZM251.662 26.8306C252.925 25.9688 254.231 25.1524 255.575 24.3845L254.087 21.7795C252.674 22.5868 251.301 23.4454 249.971 24.3525L251.662 26.8306ZM263.922 20.4428C266.761 19.3597 269.719 18.4739 272.776 17.8053L272.135 14.8746C268.933 15.575 265.831 16.5035 262.852 17.6399L263.922 20.4428ZM281.929 16.4911C283.455 16.3832 284.997 16.3281 286.555 16.3281V13.3281C284.927 13.3281 283.313 13.3857 281.717 13.4986L281.929 16.4911ZM286.555 16.3281C288.344 16.3281 290.114 16.4007 291.861 16.5428L292.104 13.5526C290.276 13.404 288.426 13.3281 286.555 13.3281V16.3281ZM302.317 18.2729C305.801 19.1541 309.147 20.3199 312.322 21.7395L313.546 19.0008C310.213 17.5105 306.704 16.288 303.053 15.3645L302.317 18.2729ZM321.551 26.9013C324.498 28.9211 327.212 31.1886 329.655 33.6671L331.792 31.5611C329.211 28.9431 326.349 26.5528 323.248 24.4269L321.551 26.9013ZM336.248 41.8802C338.155 44.8432 339.73 47.9909 340.93 51.2839L343.749 50.2564C342.469 46.7478 340.794 43.4008 338.771 40.2567L336.248 41.8802ZM343.357 61.4869C343.559 63.2102 343.663 64.9598 343.663 66.7312H346.663C346.663 64.8428 346.552 62.9767 346.337 61.1379L343.357 61.4869ZM343.663 66.7312C343.663 67.3049 343.652 67.8763 343.63 68.4452L346.628 68.5587C346.651 67.952 346.663 67.3427 346.663 66.7312H343.663ZM343.37 71.8625C343.305 72.4316 343.229 72.9978 343.143 73.5611L346.108 74.0163C346.2 73.4153 346.281 72.8111 346.351 72.204L343.37 71.8625ZM343.925 75.115C345.268 75.8245 346.575 76.5813 347.843 77.3826L349.446 74.8464C348.111 74.0035 346.737 73.2079 345.326 72.4624L343.925 75.115ZM355.073 82.8018C357.351 84.8172 359.435 87.0004 361.3 89.3277L363.641 87.4516C361.667 84.9879 359.464 82.6811 357.061 80.5551L355.073 82.8018ZM366.273 96.8302C367.694 99.4748 368.861 102.244 369.747 105.114L372.614 104.229C371.669 101.169 370.426 98.221 368.916 95.4102L366.273 96.8302ZM371.528 113.907C371.675 115.385 371.751 116.882 371.751 118.395H374.751C374.751 116.782 374.67 115.186 374.513 113.609L371.528 113.907ZM371.751 118.395C371.751 120.167 371.647 121.916 371.446 123.639L374.425 123.989C374.641 122.15 374.751 120.284 374.751 118.395H371.751ZM369.018 133.843C367.818 137.135 366.243 140.283 364.336 143.246L366.859 144.87C368.882 141.726 370.558 138.379 371.837 134.87L369.018 133.843ZM357.743 151.459C355.3 153.938 352.586 156.205 349.64 158.225L351.336 160.699C354.437 158.574 357.299 156.183 359.88 153.565L357.743 151.459ZM340.41 163.387C337.235 164.806 333.889 165.972 330.406 166.854L331.142 169.762C334.792 168.838 338.302 167.616 341.635 166.126L340.41 163.387ZM319.949 168.584C318.202 168.726 316.433 168.798 314.644 168.798V171.798C316.514 171.798 318.365 171.722 320.192 171.574L319.949 168.584ZM314.644 168.798C312.349 168.798 310.086 168.679 307.864 168.447L307.552 171.431C309.878 171.673 312.245 171.798 314.644 171.798V168.798ZM294.617 165.611C292.449 164.894 290.344 164.064 288.31 163.13L287.058 165.856C289.192 166.837 291.401 167.708 293.675 168.46L294.617 165.611ZM286.52 163.546C285.604 164.672 284.637 165.764 283.621 166.818L285.781 168.9C286.855 167.786 287.878 166.631 288.848 165.44L286.52 163.546ZM277.061 172.606C274.749 174.34 272.278 175.916 269.669 177.312L271.085 179.957C273.827 178.489 276.426 176.833 278.861 175.006L277.061 172.606ZM261.654 180.874C258.936 181.852 256.113 182.651 253.204 183.254L253.812 186.192C256.86 185.56 259.819 184.723 262.67 183.696L261.654 180.874ZM244.498 184.44C243.047 184.538 241.581 184.587 240.102 184.587V187.587C241.648 187.587 243.182 187.535 244.7 187.433L244.498 184.44ZM240.102 184.587C238.146 184.587 236.214 184.501 234.309 184.331L234.044 187.32C236.036 187.497 238.057 187.587 240.102 187.587V184.587ZM222.921 182.266C219.136 181.213 215.521 179.822 212.124 178.133L210.788 180.819C214.357 182.593 218.149 184.053 222.117 185.156L222.921 182.266ZM202.345 171.997C200.816 170.806 199.359 169.545 197.983 168.219L195.902 170.379C197.355 171.779 198.891 173.11 200.502 174.364L202.345 171.997ZM196.942 169.299L199.024 167.138C198.347 166.486 197.404 166.189 196.475 166.335C195.547 166.482 194.741 167.055 194.297 167.883L196.942 169.299ZM88.368 163.596L91.1739 162.535C90.8702 161.732 90.2372 161.098 89.4349 160.793C88.6327 160.487 87.7382 160.54 86.9776 160.938L88.368 163.596ZM27.2141 75.0369L28.6856 77.6513C29.8001 77.024 30.3944 75.7592 30.1659 74.5009L27.2141 75.0369ZM107.892 18.9086L106.84 21.7179C107.978 22.1442 109.26 21.8421 110.088 20.9527L107.892 18.9086ZM197.425 17.909L195.282 20.0083C196.056 20.799 197.203 21.099 198.266 20.7887L197.425 17.909ZM250.817 25.5916L249.163 28.0942C250.179 28.7662 251.501 28.7565 252.508 28.0696L250.817 25.5916ZM344.625 73.7887L341.66 73.3335C341.466 74.5968 342.094 75.8442 343.224 76.4413L344.625 73.7887ZM287.684 164.493L288.937 161.767C287.693 161.196 286.221 161.538 285.357 162.6L287.684 164.493ZM191.711 172.153C190.779 173.523 191.134 175.389 192.504 176.321C193.874 177.253 195.74 176.898 196.672 175.528L191.711 172.153ZM189.464 184.109C190.65 182.952 190.673 181.052 189.516 179.867C188.358 178.681 186.459 178.658 185.273 179.815L189.464 184.109ZM177.451 186.128C176.071 187.046 175.697 188.908 176.614 190.288C177.532 191.667 179.394 192.042 180.773 191.124L177.451 186.128ZM170.99 196.447C172.508 195.785 173.203 194.017 172.542 192.498C171.88 190.979 170.112 190.284 168.593 190.946L170.99 196.447ZM159.019 194.183C157.41 194.581 156.428 196.207 156.826 197.815C157.223 199.424 158.849 200.406 160.458 200.008L159.019 194.183ZM149.499 201.781C151.151 201.649 152.383 200.204 152.252 198.552C152.12 196.901 150.675 195.668 149.023 195.8L149.499 201.781ZM139.773 195.864C138.12 195.756 136.692 197.009 136.584 198.662C136.476 200.316 137.728 201.743 139.382 201.851L139.773 195.864ZM130.314 200.651C131.939 200.978 133.52 199.926 133.847 198.302C134.174 196.678 133.123 195.096 131.499 194.769L130.314 200.651ZM123.46 192.571C121.895 192.025 120.185 192.85 119.638 194.414C119.092 195.979 119.918 197.689 121.482 198.236L123.46 192.571ZM113.059 194.613C114.531 195.374 116.341 194.798 117.102 193.326C117.863 191.855 117.287 190.045 115.816 189.283L113.059 194.613ZM108.738 184.941C107.394 183.972 105.519 184.276 104.551 185.62C103.582 186.965 103.886 188.84 105.23 189.808L108.738 184.941ZM98.1951 183.868C99.3739 185.033 101.273 185.021 102.438 183.842C103.602 182.663 103.59 180.764 102.411 179.6L98.1951 183.868ZM97.031 173.345C96.0583 172.004 94.1825 171.705 92.8411 172.678C91.4998 173.65 91.201 175.526 92.1737 176.867L97.031 173.345ZM87.4035 168.925C88.1282 170.415 89.9235 171.036 91.4135 170.311C92.9034 169.586 93.5238 167.791 92.7991 166.301L87.4035 168.925ZM83.6699 162.537C82.1562 163.211 81.4752 164.984 82.1489 166.498C82.8227 168.011 84.5959 168.692 86.1096 168.018L83.6699 162.537ZM78.5258 170.845C80.111 170.363 81.0052 168.687 80.523 167.102C80.0409 165.516 78.3651 164.622 76.7799 165.104L78.5258 170.845ZM69.6193 166.818C67.9878 167.106 66.8989 168.662 67.1873 170.294C67.4756 171.926 69.0321 173.014 70.6636 172.726L69.6193 166.818ZM62.6422 173.661C64.2963 173.566 65.56 172.147 65.4647 170.493C65.3693 168.839 63.9512 167.575 62.2971 167.671L62.6422 173.661ZM53.4236 167.567C51.7722 167.433 50.3247 168.663 50.1904 170.314C50.0561 171.965 51.286 173.413 52.9374 173.547L53.4236 167.567ZM41.7415 171.694C43.3477 172.101 44.9793 171.128 45.3856 169.522C45.792 167.916 44.8193 166.284 43.213 165.878L41.7415 171.694ZM33.4532 162.496C31.9407 161.82 30.1663 162.498 29.49 164.01C28.8137 165.523 29.4916 167.297 31.0041 167.973L33.4532 162.496ZM21.0667 162.415C22.4333 163.352 24.3005 163.004 25.2374 161.637C26.1742 160.27 25.8259 158.403 24.4593 157.466L21.0667 162.415ZM16.5758 150.885C15.4127 149.705 13.5132 149.691 12.3332 150.854C11.1533 152.017 11.1396 153.917 12.3027 155.097L16.5758 150.885ZM5.13063 146.16C6.02726 147.553 7.8836 147.956 9.27687 147.059C10.6701 146.162 11.0728 144.306 10.1761 142.913L5.13063 146.16ZM5.64191 133.807C5.07445 132.251 3.35252 131.449 1.79587 132.016C0.239223 132.584 -0.562669 134.306 0.00479396 135.862L5.64191 133.807ZM-2.66406 124.641C-2.4713 126.287 -0.981009 127.465 0.664594 127.272C2.3102 127.079 3.48795 125.589 3.29519 123.943L-2.66406 124.641ZM3.20356 114.66C3.36362 113.01 2.15651 111.544 0.507402 111.384C-1.1417 111.224 -2.60832 112.431 -2.76838 114.08L3.20356 114.66ZM-0.920337 104.674C-1.39559 106.261 -0.494155 107.933 1.09308 108.408C2.68031 108.884 4.35228 107.982 4.82753 106.395L-0.920337 104.674ZM8.00524 98.5747C8.76951 97.1047 8.19737 95.2934 6.72732 94.5291C5.25727 93.7648 3.44599 94.337 2.68171 95.807L8.00524 98.5747ZM7.82615 87.7713C6.81333 89.0825 7.05526 90.9665 8.3665 91.9794C9.67775 92.9922 11.5618 92.7503 12.5746 91.439L7.82615 87.7713ZM18.3252 85.1689C19.542 84.0445 19.6169 82.1465 18.4925 80.9296C17.368 79.7127 15.47 79.6378 14.2531 80.7623L18.3252 85.1689ZM21.7054 74.9002C20.3272 75.8199 19.9556 77.6827 20.8753 79.0608C21.795 80.439 23.6578 80.8107 25.0359 79.891L21.7054 74.9002ZM29.8604 72.5727C29.6381 70.9308 28.1269 69.78 26.485 70.0023C24.8432 70.2246 23.6924 71.7358 23.9147 73.3777L29.8604 72.5727ZM23.5173 68.9519C23.5912 70.6071 24.9929 71.889 26.6481 71.8151C28.3033 71.7412 29.5852 70.3395 29.5113 68.6843L23.5173 68.9519ZM29.763 61.6614C29.9557 60.0158 28.778 58.5255 27.1324 58.3328C25.4868 58.14 23.9965 59.3178 23.8037 60.9634L29.763 61.6614ZM26.4726 49.7426C25.9051 51.2993 26.707 53.0212 28.2636 53.5887C29.8203 54.1561 31.5422 53.3542 32.1097 51.7976L26.4726 49.7426ZM36.6439 42.692C37.5405 41.2987 37.1379 39.4424 35.7446 38.5457C34.3514 37.6491 32.495 38.0517 31.5984 39.445L36.6439 42.692ZM38.7704 30.5081C37.6073 31.6881 37.621 33.5876 38.801 34.7507C39.981 35.9138 41.8804 35.9001 43.0435 34.7201L38.7704 30.5081ZM50.9271 28.1385C52.2937 27.2016 52.642 25.3344 51.7052 23.9678C50.7683 22.6012 48.901 22.2529 47.5345 23.1897L50.9271 28.1385ZM57.4719 17.6314C55.9593 18.3077 55.2814 20.0821 55.9577 21.5947C56.634 23.1072 58.4084 23.7851 59.921 23.1088L57.4719 17.6314ZM69.6808 19.7271C71.287 19.3207 72.2597 17.6892 71.8534 16.0829C71.447 14.4767 69.8155 13.504 68.2092 13.9103L69.6808 19.7271ZM79.4052 12.0576C77.7537 12.1918 76.5239 13.6394 76.6581 15.2908C76.7924 16.9422 78.24 18.1721 79.8914 18.0378L79.4052 12.0576ZM90.6331 18.0694C92.2837 18.2134 93.7385 16.9922 93.8826 15.3416C94.0267 13.691 92.8054 12.2362 91.1548 12.0921L90.6331 18.0694ZM103.14 14.2254C101.541 13.7893 99.8919 14.7317 99.4559 16.3301C99.0199 17.9286 99.9622 19.5779 101.561 20.0139L103.14 14.2254ZM112.904 18.1519C114.122 17.029 114.2 15.1311 113.077 13.9128C111.954 12.6944 110.056 12.6171 108.838 13.7399L112.904 18.1519ZM115.761 8.24798C114.392 9.18036 114.037 11.0465 114.97 12.4161C115.902 13.7857 117.768 14.1402 119.138 13.2078L115.761 8.24798ZM126.033 9.19536C127.52 8.46374 128.132 6.66554 127.4 5.17897C126.668 3.69239 124.87 3.08038 123.384 3.812L126.033 9.19536ZM131.529 0.470286C129.957 0.994641 129.108 2.69382 129.632 4.26552C130.157 5.83721 131.856 6.68624 133.428 6.16189L131.529 0.470286ZM141.171 4.13515C142.798 3.82128 143.862 2.24801 143.549 0.62116C143.235 -1.00569 141.661 -2.07008 140.035 -1.75621L141.171 4.13515ZM148.747 -2.86283C147.093 -2.7591 145.837 -1.33451 145.941 0.319094C146.044 1.9727 147.469 3.22913 149.123 3.12541L148.747 -2.86283ZM158.984 3.26728C160.634 3.41898 162.095 2.20445 162.247 0.55455C162.398 -1.09535 161.184 -2.55582 159.534 -2.70752L158.984 3.26728ZM172.124 -0.343795C170.531 -0.80274 168.869 0.1158 168.41 1.70782C167.951 3.29984 168.87 4.96248 170.462 5.42143L172.124 -0.343795ZM181.289 9.72569C182.761 10.4874 184.571 9.91201 185.332 8.44061C186.094 6.96921 185.519 5.15895 184.047 4.39728L181.289 9.72569ZM194.802 11.4538C193.52 10.4044 191.63 10.5932 190.58 11.8754C189.531 13.1576 189.72 15.0477 191.002 16.097L194.802 11.4538ZM202.565 19.7013C204.185 19.3535 205.216 17.7583 204.869 16.1384C204.521 14.5185 202.926 13.4872 201.306 13.835L202.565 19.7013ZM210.936 12.4768C209.283 12.5917 208.036 14.0248 208.151 15.6776C208.266 17.3305 209.699 18.5773 211.352 18.4624L210.936 12.4768ZM220.212 18.4607C221.865 18.5749 223.297 17.3276 223.412 15.6747C223.526 14.0218 222.279 12.5892 220.626 12.475L220.212 18.4607ZM230.204 13.8183C228.583 13.4724 226.99 14.5055 226.644 16.1258C226.298 17.7462 227.331 19.3401 228.951 19.686L230.204 13.8183ZM237.413 22.144C238.966 22.7213 240.693 21.9303 241.27 20.3772C241.847 18.8242 241.056 17.0972 239.503 16.52L237.413 22.144ZM248.316 20.5691C246.867 19.7654 245.041 20.2885 244.237 21.7374C243.434 23.1862 243.957 25.0123 245.406 25.816L248.316 20.5691ZM256.319 25.687C257.758 24.8652 258.258 23.0327 257.436 21.594C256.614 20.1553 254.782 19.6552 253.343 20.477L256.319 25.687ZM262.317 16.2384C260.769 16.8291 259.993 18.5628 260.584 20.1108C261.175 21.6588 262.908 22.4349 264.456 21.8443L262.317 16.2384ZM273.097 19.2707C274.715 18.9167 275.74 17.3175 275.386 15.6989C275.032 14.0804 273.433 13.0552 271.815 13.4092L273.097 19.2707ZM281.611 12.0024C279.958 12.1193 278.713 13.5539 278.83 15.2066C278.947 16.8593 280.382 18.1043 282.035 17.9874L281.611 12.0024ZM291.739 18.0378C293.39 18.1721 294.838 16.9422 294.972 15.2908C295.106 13.6394 293.877 12.1918 292.225 12.0576L291.739 18.0378ZM303.421 13.9103C301.815 13.504 300.183 14.4767 299.777 16.0829C299.371 17.6892 300.343 19.3207 301.95 19.7271L303.421 13.9103ZM311.709 23.1088C313.222 23.7851 314.996 23.1072 315.673 21.5947C316.349 20.0821 315.671 18.3077 314.158 17.6314L311.709 23.1088ZM324.096 23.1897C322.729 22.2529 320.862 22.6012 319.925 23.9678C318.988 25.3343 319.337 27.2016 320.703 28.1385L324.096 23.1897ZM328.587 34.7201C329.75 35.9001 331.649 35.9138 332.829 34.7507C334.009 33.5876 334.023 31.6881 332.86 30.5081L328.587 34.7201ZM340.032 39.445C339.135 38.0517 337.279 37.6491 335.886 38.5457C334.492 39.4423 334.09 41.2987 334.986 42.692L340.032 39.445ZM339.521 51.7976C340.088 53.3542 341.81 54.1561 343.367 53.5887C344.923 53.0212 345.725 51.2993 345.158 49.7426L339.521 51.7976ZM347.827 60.9634C347.634 59.3178 346.144 58.14 344.498 58.3328C342.852 58.5255 341.675 60.0158 341.867 61.6614L347.827 60.9634ZM342.131 68.3885C342.069 70.0441 343.36 71.4371 345.016 71.4998C346.671 71.5625 348.064 70.2711 348.127 68.6154L342.131 68.3885ZM347.841 72.3748C348.03 70.7287 346.848 69.2414 345.202 69.0528C343.556 68.8642 342.069 70.0457 341.88 71.6918L347.841 72.3748ZM347.042 78.6507C348.443 79.5357 350.295 79.1176 351.18 77.717C352.065 76.3163 351.647 74.4633 350.247 73.5783L347.042 78.6507ZM358.055 79.4317C356.815 78.3338 354.919 78.4496 353.821 79.6905C352.723 80.9313 352.839 82.8272 354.079 83.9252L358.055 79.4317ZM360.13 90.2657C361.166 91.5586 363.054 91.7668 364.347 90.7307C365.64 89.6945 365.848 87.8065 364.812 86.5136L360.13 90.2657ZM370.237 94.7002C369.453 93.2407 367.634 92.6933 366.174 93.4776C364.715 94.2618 364.168 96.0807 364.952 97.5402L370.237 94.7002ZM368.314 105.557C368.803 107.14 370.482 108.027 372.066 107.538C373.649 107.049 374.536 105.369 374.047 103.786L368.314 105.557ZM376.005 113.46C375.841 111.811 374.37 110.608 372.722 110.773C371.073 110.938 369.87 112.408 370.035 114.056L376.005 113.46ZM369.956 123.465C369.763 125.111 370.941 126.601 372.586 126.794C374.232 126.986 375.722 125.809 375.915 124.163L369.956 123.465ZM373.246 135.384C373.814 133.827 373.012 132.105 371.455 131.538C369.898 130.97 368.177 131.772 367.609 133.329L373.246 135.384ZM363.075 142.434C362.178 143.828 362.581 145.684 363.974 146.581C365.367 147.477 367.224 147.075 368.12 145.681L363.075 142.434ZM360.948 154.618C362.111 153.438 362.098 151.539 360.918 150.376C359.738 149.213 357.838 149.226 356.675 150.406L360.948 154.618ZM348.792 156.988C347.425 157.925 347.077 159.792 348.014 161.159C348.95 162.525 350.818 162.874 352.184 161.937L348.792 156.988ZM342.247 167.495C343.759 166.819 344.437 165.044 343.761 163.532C343.085 162.019 341.31 161.341 339.798 162.018L342.247 167.495ZM330.038 165.399C328.432 165.806 327.459 167.437 327.865 169.043C328.272 170.65 329.903 171.622 331.509 171.216L330.038 165.399ZM320.314 173.069C321.965 172.935 323.195 171.487 323.061 169.836C322.926 168.184 321.479 166.954 319.827 167.089L320.314 173.069ZM308.019 166.955C306.371 166.783 304.896 167.979 304.724 169.627C304.552 171.275 305.748 172.75 307.396 172.922L308.019 166.955ZM293.204 169.884C294.777 170.404 296.474 169.55 296.994 167.977C297.514 166.404 296.661 164.707 295.088 164.187L293.204 169.884ZM282.541 165.777C281.391 166.97 281.426 168.87 282.619 170.019C283.812 171.169 285.711 171.134 286.861 169.941L282.541 165.777ZM279.761 176.206C281.087 175.212 281.355 173.331 280.361 172.006C279.367 170.68 277.486 170.412 276.161 171.406L279.761 176.206ZM268.961 175.99C267.501 176.772 266.95 178.59 267.732 180.05C268.514 181.511 270.332 182.061 271.793 181.279L268.961 175.99ZM263.178 185.108C264.737 184.546 265.546 182.828 264.984 181.269C264.423 179.71 262.704 178.901 261.145 179.462L263.178 185.108ZM252.899 181.786C251.277 182.122 250.234 183.71 250.57 185.332C250.907 186.954 252.494 187.997 254.117 187.661L252.899 181.786ZM244.8 188.93C246.453 188.819 247.703 187.389 247.592 185.736C247.481 184.083 246.051 182.832 244.398 182.944L244.8 188.93ZM234.442 182.837C232.792 182.69 231.335 183.909 231.188 185.56C231.042 187.21 232.26 188.667 233.911 188.814L234.442 182.837ZM221.715 186.601C223.311 187.045 224.965 186.111 225.409 184.515C225.853 182.919 224.919 181.265 223.323 180.821L221.715 186.601ZM212.792 176.79C211.308 176.052 209.507 176.657 208.77 178.14C208.032 179.624 208.637 181.425 210.121 182.162L212.792 176.79ZM199.581 175.548C200.888 176.566 202.773 176.331 203.791 175.024C204.809 173.716 204.574 171.831 203.267 170.813L199.581 175.548ZM194.297 167.883C193.514 169.347 192.65 170.771 191.711 172.153L196.672 175.528C197.729 173.973 198.703 172.367 199.587 170.714L194.297 167.883ZM185.273 179.815C182.904 182.128 180.285 184.244 177.451 186.128L180.773 191.124C183.912 189.037 186.823 186.687 189.464 184.109L185.273 179.815ZM168.593 190.946C165.55 192.272 162.349 193.36 159.019 194.183L160.458 200.008C164.115 199.104 167.637 197.908 170.99 196.447L168.593 190.946ZM149.023 195.8C147.354 195.932 145.662 196 143.952 196V202C145.821 202 147.671 201.926 149.499 201.781L149.023 195.8ZM143.952 196C142.546 196 141.152 195.954 139.773 195.864L139.382 201.851C140.891 201.95 142.415 202 143.952 202V196ZM131.499 194.769C128.733 194.212 126.048 193.474 123.46 192.571L121.482 198.236C124.33 199.23 127.281 200.04 130.314 200.651L131.499 194.769ZM115.816 189.283C113.324 187.995 110.959 186.541 108.738 184.941L105.23 189.808C107.692 191.583 110.309 193.19 113.059 194.613L115.816 189.283ZM102.411 179.6C100.433 177.646 98.6329 175.554 97.031 173.345L92.1737 176.867C93.973 179.349 95.9887 181.689 98.1951 183.868L102.411 179.6ZM92.7991 166.301C92.2003 165.07 91.6577 163.814 91.1739 162.535L85.5621 164.658C86.1111 166.109 86.7261 167.533 87.4035 168.925L92.7991 166.301ZM86.9776 160.938C85.8983 161.503 84.7952 162.036 83.6699 162.537L86.1096 168.018C87.35 167.466 88.5669 166.878 89.7584 166.255L86.9776 160.938ZM76.7799 165.104C74.4598 165.81 72.0692 166.385 69.6193 166.818L70.6636 172.726C73.3505 172.251 75.9754 171.621 78.5258 170.845L76.7799 165.104ZM62.2971 167.671C61.0778 167.741 59.8475 167.777 58.6074 167.777V173.777C59.9627 173.777 61.308 173.738 62.6422 173.661L62.2971 167.671ZM58.6074 167.777C56.8588 167.777 55.1298 167.706 53.4236 167.567L52.9374 173.547C54.8052 173.699 56.6965 173.777 58.6074 173.777V167.777ZM43.213 165.878C39.8131 165.018 36.5488 163.88 33.4532 162.496L31.0041 167.973C34.4162 169.499 38.0076 170.75 41.7415 171.694L43.213 165.878ZM24.4593 157.466C21.5904 155.5 18.95 153.293 16.5758 150.885L12.3027 155.097C14.9521 157.785 17.8885 160.236 21.0667 162.415L24.4593 157.466ZM10.1761 142.913C8.32757 140.04 6.80303 136.992 5.64191 133.807L0.00479396 135.862C1.32312 139.479 3.049 142.925 5.13063 146.16L10.1761 142.913ZM3.29519 123.943C3.10009 122.278 3 120.587 3 118.874H-3C-3 120.821 -2.88622 122.745 -2.66406 124.641L3.29519 123.943ZM3 118.874C3 117.453 3.06882 116.048 3.20356 114.66L-2.76838 114.08C-2.92177 115.66 -3 117.259 -3 118.874H3ZM4.82753 106.395C5.63674 103.692 6.70354 101.078 8.00524 98.5747L2.68171 95.807C1.2103 98.6372 -0.000250649 101.601 -0.920337 104.674L4.82753 106.395ZM12.5746 91.439C14.2934 89.2138 16.2176 87.1164 18.3252 85.1689L14.2531 80.7623C11.9057 82.9314 9.75422 85.2751 7.82615 87.7713L12.5746 91.439ZM25.0359 79.891C26.2161 79.1034 27.4335 78.356 28.6856 77.6513L25.7427 72.4226C24.3592 73.2013 23.0124 74.028 21.7054 74.9002L25.0359 79.891ZM30.1659 74.5009C30.0499 73.8622 29.948 73.2194 29.8604 72.5727L23.9147 73.3777C24.0143 74.114 24.1304 74.8459 24.2624 75.573L30.1659 74.5009ZM29.5113 68.6843C29.4824 68.0366 29.4678 67.3855 29.4678 66.7312H23.4678C23.4678 67.4748 23.4844 68.2151 23.5173 68.9519L29.5113 68.6843ZM29.4678 66.7312C29.4678 65.0183 29.5679 63.327 29.763 61.6614L23.8037 60.9634C23.5816 62.8599 23.4678 64.7842 23.4678 66.7312H29.4678ZM32.1097 51.7976C33.2708 48.6125 34.7953 45.5644 36.6439 42.692L31.5984 39.445C29.5168 42.6796 27.7909 46.1263 26.4726 49.7426L32.1097 51.7976ZM43.0435 34.7201C45.4178 32.3114 48.0582 30.1053 50.9271 28.1385L47.5345 23.1897C44.3562 25.3686 41.4198 27.8203 38.7704 30.5081L43.0435 34.7201ZM59.921 23.1088C63.0166 21.7247 66.2809 20.5872 69.6808 19.7271L68.2092 13.9103C64.4754 14.8549 60.884 16.1058 57.4719 17.6314L59.921 23.1088ZM79.8914 18.0378C81.5975 17.8991 83.3266 17.8281 85.0752 17.8281V11.8281C83.1642 11.8281 81.2729 11.9057 79.4052 12.0576L79.8914 18.0378ZM85.0752 17.8281C86.9517 17.8281 88.8057 17.9099 90.6331 18.0694L91.1548 12.0921C89.1541 11.9174 87.126 11.8281 85.0752 11.8281V17.8281ZM101.561 20.0139C103.362 20.5052 105.123 21.0747 106.84 21.7179L108.945 16.0993C107.055 15.3914 105.118 14.7651 103.14 14.2254L101.561 20.0139ZM110.088 20.9527C110.986 19.9882 111.925 19.0539 112.904 18.1519L108.838 13.7399C107.748 14.7446 106.7 15.7869 105.696 16.8645L110.088 20.9527ZM119.138 13.2078C121.312 11.7275 123.616 10.3848 126.033 9.19536L123.384 3.812C120.717 5.12422 118.17 6.60818 115.761 8.24798L119.138 13.2078ZM133.428 6.16189C135.927 5.32815 138.513 4.64805 141.171 4.13515L140.035 -1.75621C137.118 -1.19352 134.277 -0.446713 131.529 0.470286L133.428 6.16189ZM149.123 3.12541C150.448 3.04229 151.786 3 153.136 3V-3C151.661 -3 150.197 -2.95378 148.747 -2.86283L149.123 3.12541ZM153.136 3C155.112 3 157.063 3.09063 158.984 3.26728L159.534 -2.70752C157.43 -2.90095 155.295 -3 153.136 -3V3ZM170.462 5.42143C174.271 6.51962 177.896 7.96947 181.289 9.72569L184.047 4.39728C180.303 2.45875 176.31 0.863001 172.124 -0.343795L170.462 5.42143ZM191.002 16.097C192.51 17.3313 193.939 18.6372 195.282 20.0083L199.568 15.8098C198.069 14.2796 196.478 12.8253 194.802 11.4538L191.002 16.097ZM198.266 20.7887C199.675 20.3773 201.109 20.0141 202.565 19.7013L201.306 13.835C199.707 14.1783 198.132 14.5772 196.584 15.0293L198.266 20.7887ZM211.352 18.4624C212.817 18.3605 214.298 18.3086 215.794 18.3086V12.3086C214.159 12.3086 212.539 12.3653 210.936 12.4768L211.352 18.4624ZM215.794 18.3086C217.281 18.3086 218.755 18.3599 220.212 18.4607L220.626 12.475C219.031 12.3647 217.42 12.3086 215.794 12.3086V18.3086ZM228.951 19.686C231.87 20.3091 234.697 21.1346 237.413 22.144L239.503 16.52C236.514 15.4089 233.407 14.502 230.204 13.8183L228.951 19.686ZM245.406 25.816C246.695 26.5312 247.948 27.2915 249.163 28.0942L252.471 23.0889C251.127 22.2001 249.741 21.3593 248.316 20.5691L245.406 25.816ZM252.508 28.0696C253.738 27.2304 255.009 26.4353 256.319 25.687L253.343 20.477C251.895 21.304 250.489 22.1838 249.126 23.1135L252.508 28.0696ZM264.456 21.8443C267.225 20.7878 270.113 19.9233 273.097 19.2707L271.815 13.4092C268.54 14.1255 265.366 15.0754 262.317 16.2384L264.456 21.8443ZM282.035 17.9874C283.525 17.8819 285.033 17.8281 286.555 17.8281V11.8281C284.891 11.8281 283.243 11.8869 281.611 12.0024L282.035 17.9874ZM286.555 17.8281C288.304 17.8281 290.033 17.8991 291.739 18.0378L292.225 12.0576C290.357 11.9057 288.466 11.8281 286.555 11.8281V17.8281ZM301.95 19.7271C305.349 20.5872 308.614 21.7247 311.709 23.1088L314.158 17.6314C310.746 16.1058 307.155 14.8549 303.421 13.9103L301.95 19.7271ZM320.703 28.1385C323.572 30.1053 326.213 32.3114 328.587 34.7201L332.86 30.5081C330.211 27.8203 327.274 25.3686 324.096 23.1897L320.703 28.1385ZM334.986 42.692C336.835 45.5644 338.36 48.6125 339.521 51.7976L345.158 49.7426C343.839 46.1262 342.114 42.6796 340.032 39.445L334.986 42.692ZM341.867 61.6614C342.062 63.327 342.163 65.0183 342.163 66.7312H348.163C348.163 64.7842 348.049 62.8599 347.827 60.9634L341.867 61.6614ZM342.163 66.7312C342.163 67.2859 342.152 67.8384 342.131 68.3885L348.127 68.6154C348.151 67.9898 348.163 67.3617 348.163 66.7312H342.163ZM341.88 71.6918C341.817 72.2418 341.744 72.7891 341.66 73.3335L347.591 74.2439C347.686 73.624 347.769 73.0009 347.841 72.3748L341.88 71.6918ZM343.224 76.4413C344.533 77.1328 345.807 77.8702 347.042 78.6507L350.247 73.5783C348.88 72.7146 347.472 71.8997 346.027 71.1361L343.224 76.4413ZM354.079 83.9252C356.295 85.8853 358.319 88.0067 360.13 90.2657L364.812 86.5136C362.783 83.9816 360.521 81.613 358.055 79.4317L354.079 83.9252ZM364.952 97.5402C366.328 100.102 367.457 102.782 368.314 105.557L374.047 103.786C373.073 100.632 371.792 97.5942 370.237 94.7002L364.952 97.5402ZM370.035 114.056C370.178 115.485 370.251 116.932 370.251 118.395H376.251C376.251 116.732 376.168 115.086 376.005 113.46L370.035 114.056ZM370.251 118.395C370.251 120.108 370.151 121.799 369.956 123.465L375.915 124.163C376.137 122.267 376.251 120.342 376.251 118.395H370.251ZM367.609 133.329C366.448 136.514 364.923 139.562 363.075 142.434L368.12 145.681C370.202 142.447 371.928 139 373.246 135.384L367.609 133.329ZM356.675 150.406C354.301 152.815 351.661 155.021 348.792 156.988L352.184 161.937C355.362 159.758 358.299 157.306 360.948 154.618L356.675 150.406ZM339.798 162.018C336.702 163.402 333.438 164.539 330.038 165.399L331.509 171.216C335.243 170.271 338.835 169.021 342.247 167.495L339.798 162.018ZM319.827 167.089C318.121 167.227 316.392 167.298 314.644 167.298V173.298C316.555 173.298 318.446 173.221 320.314 173.069L319.827 167.089ZM314.644 167.298C312.401 167.298 310.19 167.182 308.019 166.955L307.396 172.922C309.774 173.171 312.193 173.298 314.644 173.298V167.298ZM295.088 164.187C292.972 163.488 290.919 162.678 288.937 161.767L286.431 167.219C288.617 168.223 290.878 169.114 293.204 169.884L295.088 164.187ZM285.357 162.6C284.468 163.693 283.528 164.753 282.541 165.777L286.861 169.941C287.964 168.797 289.015 167.611 290.011 166.386L285.357 162.6ZM276.161 171.406C273.911 173.094 271.504 174.629 268.961 175.99L271.793 181.279C274.601 179.776 277.265 178.079 279.761 176.206L276.161 171.406ZM261.145 179.462C258.494 180.417 255.739 181.197 252.899 181.786L254.117 187.661C257.233 187.015 260.261 186.158 263.178 185.108L261.145 179.462ZM244.398 182.944C242.98 183.039 241.548 183.087 240.102 183.087V189.087C241.682 189.087 243.249 189.034 244.8 188.93L244.398 182.944ZM240.102 183.087C238.19 183.087 236.302 183.003 234.442 182.837L233.911 188.814C235.948 188.995 238.013 189.087 240.102 189.087V183.087ZM223.323 180.821C219.629 179.793 216.104 178.436 212.792 176.79L210.121 182.162C213.775 183.979 217.656 185.472 221.715 186.601L223.323 180.821ZM203.267 170.813C201.778 169.655 200.362 168.428 199.024 167.138L194.861 171.459C196.352 172.896 197.928 174.261 199.581 175.548L203.267 170.813Z" fill="#247158" mask="url(#path-1-inside-1_362_933)"/>
</svg>
