<svg width="308" height="178" viewBox="0 0 308 178" fill="none" xmlns="http://www.w3.org/2000/svg">
<mask id="path-1-inside-1_362_956" fill="white">
<path fill-rule="evenodd" clip-rule="evenodd" d="M198.128 166.241C184.037 166.241 171.353 160.463 162.514 151.243C154.76 166.929 138.095 177.777 118.787 177.777C97.4517 177.777 79.3431 164.531 72.9198 146.149C65.7219 150.224 57.3267 152.563 48.3618 152.563C21.6523 152.563 0 131.804 0 106.196C0 89.7246 8.95753 75.2596 22.4568 67.0341C22.0515 64.6179 21.8408 62.1393 21.8408 59.6135C21.8408 34.0055 43.4932 13.2461 70.2027 13.2461C76.8815 13.2461 83.2442 14.5441 89.0312 16.8915C97.9013 6.57606 111.332 0 126.365 0C140.96 0 154.044 6.19823 162.912 15.9989C167.679 14.4915 172.775 13.6758 178.069 13.6758C188.904 13.6758 198.907 17.0918 206.969 22.8618C215.132 16.8321 225.359 13.2461 236.46 13.2461C263.17 13.2461 284.822 34.0055 284.822 59.6135C284.822 61.7522 284.671 63.857 284.379 65.9188C298.525 74.0095 308 88.8278 308 105.768C308 131.376 286.348 152.135 259.638 152.135C251.617 152.135 244.052 150.263 237.392 146.949C228.611 158.634 214.296 166.241 198.128 166.241Z"/>
</mask>
<path d="M162.514 151.243L163.597 150.205C163.258 149.852 162.769 149.686 162.286 149.76C161.803 149.835 161.386 150.14 161.169 150.578L162.514 151.243ZM72.9198 146.149L74.3358 145.654C74.1892 145.234 73.8639 144.901 73.4478 144.745C73.0316 144.588 72.5675 144.624 72.1807 144.843L72.9198 146.149ZM22.4568 67.0341L23.2373 68.315C23.7609 67.996 24.0376 67.3905 23.9361 66.7859L22.4568 67.0341ZM89.0312 16.8915L88.4674 18.2815C89.0641 18.5235 89.7487 18.3577 90.1685 17.8694L89.0312 16.8915ZM162.912 15.9989L161.799 17.0053C162.193 17.4404 162.804 17.606 163.364 17.4291L162.912 15.9989ZM206.969 22.8618L206.097 24.0817C206.625 24.4601 207.338 24.4547 207.861 24.0683L206.969 22.8618ZM284.379 65.9188L282.894 65.7082C282.808 66.3165 283.101 66.9159 283.634 67.2209L284.379 65.9188ZM237.392 146.949L238.06 145.606C237.413 145.284 236.628 145.47 236.193 146.048L237.392 146.949ZM159.057 154.369C158.618 155.072 158.833 155.998 159.536 156.436C160.239 156.874 161.164 156.66 161.603 155.956L159.057 154.369ZM155.973 163.299C156.538 162.693 156.504 161.744 155.898 161.179C155.292 160.615 154.342 160.649 153.778 161.255L155.973 163.299ZM147.289 167.027C146.622 167.517 146.478 168.456 146.968 169.124C147.459 169.791 148.398 169.935 149.065 169.444L147.289 167.027ZM141.145 174.207C141.891 173.847 142.204 172.95 141.844 172.204C141.484 171.458 140.588 171.145 139.842 171.505L141.145 174.207ZM131.701 174.552C130.902 174.771 130.432 175.596 130.651 176.395C130.869 177.194 131.695 177.664 132.494 177.446L131.701 174.552ZM123.404 179.075C124.229 179.002 124.839 178.274 124.766 177.449C124.694 176.623 123.966 176.013 123.14 176.086L123.404 179.075ZM113.988 176.045C113.164 175.965 112.43 176.568 112.35 177.392C112.27 178.217 112.873 178.95 113.698 179.031L113.988 176.045ZM103.712 177.05C104.505 177.291 105.343 176.844 105.584 176.052C105.825 175.259 105.378 174.421 104.585 174.18L103.712 177.05ZM95.7446 170.487C95.0162 170.093 94.1058 170.363 93.7112 171.092C93.3166 171.82 93.5872 172.731 94.3156 173.125L95.7446 170.487ZM85.8965 167.387C86.5298 167.921 87.4761 167.841 88.0101 167.207C88.5441 166.574 88.4636 165.628 87.8303 165.094L85.8965 167.387ZM81.1932 158.2C80.6842 157.547 79.7417 157.43 79.0881 157.939C78.4344 158.447 78.3172 159.39 78.8262 160.044L81.1932 158.2ZM73.4539 151.37C73.8115 152.117 74.7072 152.433 75.4545 152.075C76.2017 151.718 76.5177 150.822 76.1601 150.075L73.4539 151.37ZM66.5831 147.545C65.8152 147.856 65.4444 148.73 65.755 149.498C66.0657 150.266 66.9401 150.637 67.708 150.326L66.5831 147.545ZM54.9502 153.649C55.7721 153.544 56.3539 152.794 56.2497 151.972C56.1455 151.15 55.3948 150.568 54.573 150.672L54.9502 153.649ZM43.8522 150.858C43.0272 150.783 42.2973 151.39 42.222 152.215C42.1466 153.04 42.7542 153.77 43.5792 153.846L43.8522 150.858ZM34.1726 152.097C34.9694 152.323 35.7991 151.861 36.0258 151.064C36.2524 150.267 35.7902 149.438 34.9934 149.211L34.1726 152.097ZM26.6022 145.943C25.8621 145.571 24.9604 145.869 24.5881 146.609C24.2159 147.349 24.5142 148.251 25.2543 148.623L26.6022 145.943ZM17.1495 143.527C17.8054 144.033 18.7473 143.912 19.2534 143.256C19.7594 142.6 19.6379 141.658 18.982 141.152L17.1495 143.527ZM12.4253 134.993C11.8797 134.37 10.9321 134.307 10.3086 134.852C9.68523 135.398 9.62213 136.345 10.1677 136.969L12.4253 134.993ZM4.60352 129.162C5.01412 129.882 5.93026 130.132 6.64977 129.722C7.36929 129.311 7.61971 128.395 7.20912 127.675L4.60352 129.162ZM3.5825 119.464C3.32797 118.675 2.48254 118.243 1.69419 118.497C0.905831 118.752 0.473084 119.597 0.727618 120.385L3.5825 119.464ZM-1.25251 110.994C-1.16706 111.818 -0.429789 112.416 0.394219 112.331C1.21823 112.246 1.81694 111.508 1.73148 110.684L-1.25251 110.994ZM1.8726 100.509C1.98105 99.6881 1.40318 98.9344 0.581884 98.826C-0.239413 98.7175 -0.993126 99.2954 -1.10158 100.117L1.8726 100.509ZM2.06876 88.3785C1.74929 89.1428 2.10993 90.0214 2.87428 90.3409C3.63863 90.6604 4.51724 90.2997 4.83671 89.5354L2.06876 88.3785ZM10.5461 79.692C11.0498 79.0343 10.925 78.0928 10.2673 77.589C9.60964 77.0853 8.66813 77.2101 8.16441 77.8678L10.5461 79.692ZM16.6878 69.2246C16.0379 69.7383 15.9275 70.6816 16.4412 71.3315C16.9549 71.9814 17.8982 72.0919 18.5481 71.5781L16.6878 69.2246ZM23.6754 65.0041C23.5727 64.1821 22.823 63.599 22.0009 63.7018C21.1789 63.8045 20.5958 64.5542 20.6986 65.3763L23.6754 65.0041ZM20.3804 61.5384C20.4145 62.3662 21.1132 63.0095 21.9409 62.9754C22.7687 62.9413 23.412 62.2426 23.3779 61.4149L20.3804 61.5384ZM23.5723 55.1248C23.6578 54.3008 23.059 53.5635 22.235 53.478C21.411 53.3926 20.6738 53.9913 20.5883 54.8153L23.5723 55.1248ZM22.5684 45.4237C22.3139 46.212 22.7467 47.0575 23.535 47.312C24.3234 47.5665 25.1688 47.1338 25.4233 46.3454L22.5684 45.4237ZM29.0499 38.1336C29.4605 37.4141 29.2101 36.498 28.4906 36.0874C27.7711 35.6768 26.8549 35.9272 26.4443 36.6467L29.0499 38.1336ZM32.0085 28.8402C31.4629 29.4636 31.5261 30.4113 32.1495 30.9568C32.7729 31.5024 33.7205 31.4393 34.2661 30.8159L32.0085 28.8402ZM40.8228 24.6573C41.4787 24.1513 41.6002 23.2093 41.0942 22.5534C40.5882 21.8975 39.6462 21.776 38.9903 22.282L40.8228 24.6573ZM47.0951 17.1857C46.355 17.558 46.0567 18.4597 46.429 19.1998C46.8012 19.9399 47.7029 20.2381 48.443 19.8659L47.0951 17.1857ZM56.8342 16.5979C57.6311 16.3713 58.0933 15.5416 57.8666 14.7448C57.6399 13.9479 56.8102 13.4857 56.0134 13.7124L56.8342 16.5979ZM65.42 11.9635C64.595 12.0389 63.9874 12.7688 64.0628 13.5938C64.1382 14.4188 64.8681 15.0265 65.6931 14.9511L65.42 11.9635ZM74.8784 14.9665C75.7032 15.0447 76.4351 14.4396 76.5133 13.6148C76.5915 12.7901 75.9864 12.0581 75.1616 11.9799L74.8784 14.9665ZM84.9046 13.8611C84.1102 13.6262 83.2757 14.0797 83.0407 14.8741C82.8057 15.6685 83.2592 16.5029 84.0536 16.7379L84.9046 13.8611ZM93.714 14.1839C94.3205 13.6197 94.3549 12.6705 93.7906 12.064C93.2264 11.4574 92.2773 11.4231 91.6707 11.9873L93.714 14.1839ZM100.395 5.49716C99.6804 5.91643 99.4411 6.83553 99.8604 7.55002C100.28 8.26452 101.199 8.50384 101.913 8.08457L100.395 5.49716ZM111.238 3.88885C112.025 3.63181 112.455 2.78502 112.198 1.99747C111.941 1.20993 111.094 0.779863 110.307 1.03689L111.238 3.88885ZM120.935 -1.21931C120.111 -1.13361 119.512 -0.39617 119.598 0.427813C119.684 1.2518 120.421 1.85029 121.245 1.7646L120.935 -1.21931ZM131.341 1.74987C132.165 1.83314 132.901 1.23247 132.984 0.408241C133.068 -0.41599 132.467 -1.15167 131.643 -1.23493L131.341 1.74987ZM141.985 0.896178C141.196 0.646268 140.353 1.08396 140.103 1.8738C139.853 2.66363 140.291 3.50651 141.08 3.75642L141.985 0.896178ZM150.192 7.7244C150.913 8.13273 151.828 7.87943 152.237 7.15863C152.645 6.43783 152.392 5.52248 151.671 5.11415L150.192 7.7244ZM160.265 11.2644C159.646 10.7134 158.698 10.7684 158.147 11.3871C157.596 12.0058 157.651 12.954 158.27 13.5049L160.265 11.2644ZM166.963 16.4432C167.769 16.2555 168.271 15.4492 168.084 14.6423C167.896 13.8354 167.089 13.3335 166.283 13.5213L166.963 16.4432ZM174.111 12.3244C173.285 12.3867 172.666 13.1069 172.728 13.933C172.791 14.7591 173.511 15.3783 174.337 15.3159L174.111 12.3244ZM181.806 15.3162C182.632 15.3786 183.352 14.7595 183.414 13.9334C183.477 13.1073 182.857 12.3871 182.031 12.3247L181.806 15.3162ZM189.867 13.5239C189.061 13.336 188.254 13.8377 188.066 14.6445C187.878 15.4514 188.38 16.2578 189.187 16.4457L189.867 13.5239ZM196.302 18.6983C197.07 19.0091 197.945 18.6386 198.256 17.8707C198.566 17.1028 198.196 16.2283 197.428 15.9175L196.302 18.6983ZM204.525 19.4614C203.815 19.0341 202.893 19.2631 202.466 19.9728C202.039 20.6826 202.268 21.6043 202.977 22.0316L204.525 19.4614ZM211.024 21.9249C211.728 21.4884 211.945 20.5637 211.508 19.8597C211.072 19.1556 210.147 18.9387 209.443 19.3753L211.024 21.9249ZM216.666 15.6664C215.902 15.9843 215.539 16.8622 215.857 17.6272C216.175 18.3922 217.053 18.7546 217.818 18.4366L216.666 15.6664ZM225.084 16.077C225.89 15.8847 226.387 15.0755 226.195 14.2697C226.003 13.4639 225.193 12.9667 224.388 13.159L225.084 16.077ZM232.405 11.9022C231.579 11.9661 230.961 12.6874 231.025 13.5134C231.089 14.3393 231.81 14.9572 232.636 14.8933L232.405 11.9022ZM240.97 14.9511C241.795 15.0265 242.525 14.4188 242.6 13.5938C242.676 12.7688 242.068 12.0389 241.243 11.9635L240.97 14.9511ZM250.65 13.7124C249.853 13.4857 249.023 13.9479 248.797 14.7448C248.57 15.5416 249.032 16.3713 249.829 16.5979L250.65 13.7124ZM258.22 19.8659C258.96 20.2381 259.862 19.9399 260.234 19.1998C260.606 18.4597 260.308 17.558 259.568 17.1857L258.22 19.8659ZM267.673 22.282C267.017 21.776 266.075 21.8975 265.569 22.5534C265.063 23.2093 265.184 24.1513 265.84 24.6573L267.673 22.282ZM272.397 30.8159C272.943 31.4393 273.89 31.5024 274.514 30.9568C275.137 30.4113 275.2 29.4636 274.655 28.8402L272.397 30.8159ZM280.219 36.6467C279.808 35.9272 278.892 35.6768 278.173 36.0874C277.453 36.498 277.203 37.4141 277.613 38.1336L280.219 36.6467ZM281.24 46.3454C281.494 47.1338 282.34 47.5665 283.128 47.312C283.917 47.0575 284.349 46.212 284.095 45.4237L281.24 46.3454ZM286.075 54.8153C285.989 53.9913 285.252 53.3926 284.428 53.478C283.604 53.5635 283.005 54.3008 283.091 55.1248L286.075 54.8153ZM283.296 61.1423C283.267 61.9703 283.914 62.6649 284.742 62.6938C285.57 62.7227 286.265 62.075 286.294 61.2471L283.296 61.1423ZM286.065 64.5072C286.152 63.6834 285.555 62.9449 284.731 62.8577C283.907 62.7705 283.169 63.3677 283.082 64.1915L286.065 64.5072ZM288.544 70.4506C289.206 70.9482 290.147 70.8148 290.644 70.1525C291.142 69.4902 291.008 68.5498 290.346 68.0522L288.544 70.4506ZM299.299 76.7524C298.784 76.104 297.84 75.9962 297.191 76.5117C296.543 77.0273 296.435 77.9709 296.951 78.6194L299.299 76.7524ZM302.972 88.6565C303.3 89.4172 304.182 89.7679 304.943 89.4398C305.704 89.1118 306.055 88.2291 305.727 87.4685L302.972 88.6565ZM309.078 99.5157C308.967 98.6949 308.211 98.1199 307.39 98.2314C306.569 98.343 305.994 99.0989 306.106 99.9198L309.078 99.5157ZM306.269 110.257C306.183 111.081 306.782 111.818 307.606 111.903C308.43 111.989 309.167 111.39 309.253 110.566L306.269 110.257ZM307.272 119.958C307.527 119.169 307.094 118.324 306.306 118.069C305.518 117.815 304.672 118.248 304.418 119.036L307.272 119.958ZM300.791 127.248C300.38 127.967 300.631 128.883 301.35 129.294C302.07 129.705 302.986 129.454 303.397 128.735L300.791 127.248ZM297.832 136.541C298.378 135.918 298.315 134.97 297.691 134.424C297.068 133.879 296.12 133.942 295.575 134.565L297.832 136.541ZM289.018 140.724C288.362 141.23 288.241 142.172 288.747 142.828C289.253 143.484 290.195 143.605 290.851 143.099L289.018 140.724ZM282.746 148.196C283.486 147.823 283.784 146.922 283.412 146.182C283.04 145.441 282.138 145.143 281.398 145.515L282.746 148.196ZM273.007 148.783C272.21 149.01 271.748 149.84 271.974 150.637C272.201 151.433 273.031 151.896 273.827 151.669L273.007 148.783ZM264.421 153.418C265.246 153.342 265.853 152.612 265.778 151.787C265.703 150.962 264.973 150.355 264.148 150.43L264.421 153.418ZM254.058 150.32C253.235 150.227 252.492 150.818 252.398 151.642C252.305 152.465 252.896 153.208 253.719 153.301L254.058 150.32ZM242.183 150.62C242.962 150.899 243.821 150.494 244.101 149.714C244.381 148.935 243.976 148.076 243.196 147.796L242.183 150.62ZM232.639 150.226C232.066 150.823 232.085 151.773 232.683 152.347C233.28 152.92 234.23 152.901 234.803 152.303L232.639 150.226ZM225.789 159.706C226.487 159.258 226.69 158.331 226.242 157.633C225.795 156.936 224.867 156.733 224.17 157.18L225.789 159.706ZM214.316 161.992C213.535 162.267 213.125 163.124 213.4 163.905C213.675 164.687 214.532 165.097 215.313 164.821L214.316 161.992ZM203.952 167.417C204.776 167.325 205.369 166.583 205.277 165.76C205.185 164.937 204.443 164.344 203.619 164.436L203.952 167.417ZM193.317 164.507C192.492 164.427 191.759 165.03 191.678 165.854C191.598 166.679 192.201 167.413 193.025 167.493L193.317 164.507ZM183.012 165.501C183.805 165.743 184.643 165.297 184.885 164.504C185.126 163.712 184.68 162.874 183.888 162.632L183.012 165.501ZM175.026 158.919C174.298 158.523 173.387 158.792 172.991 159.52C172.596 160.248 172.865 161.159 173.593 161.554L175.026 158.919ZM165.16 155.786C165.792 156.321 166.739 156.242 167.274 155.61C167.81 154.978 167.731 154.031 167.099 153.496L165.16 155.786ZM161.169 150.578C160.527 151.877 159.822 153.142 159.057 154.369L161.603 155.956C162.419 154.646 163.173 153.296 163.859 151.908L161.169 150.578ZM153.778 161.255C151.811 163.367 149.638 165.301 147.289 167.027L149.065 169.444C151.565 167.608 153.878 165.55 155.973 163.299L153.778 161.255ZM139.842 171.505C137.256 172.752 134.534 173.776 131.701 174.552L132.494 177.446C135.503 176.621 138.397 175.532 141.145 174.207L139.842 171.505ZM123.14 176.086C121.707 176.212 120.255 176.277 118.787 176.277V179.277C120.343 179.277 121.883 179.209 123.404 179.075L123.14 176.086ZM118.787 176.277C117.167 176.277 115.566 176.198 113.988 176.045L113.698 179.031C115.371 179.194 117.069 179.277 118.787 179.277V176.277ZM104.585 174.18C101.486 173.237 98.5267 171.995 95.7446 170.487L94.3156 173.125C97.2738 174.728 100.419 176.049 103.712 177.05L104.585 174.18ZM87.8303 165.094C85.3757 163.024 83.1499 160.713 81.1932 158.2L78.8262 160.044C80.9126 162.723 83.2839 165.185 85.8965 167.387L87.8303 165.094ZM76.1601 150.075C75.4735 148.64 74.8638 147.165 74.3358 145.654L71.5037 146.643C72.0684 148.259 72.7203 149.836 73.4539 151.37L76.1601 150.075ZM72.1807 144.843C70.3882 145.858 68.5189 146.762 66.5831 147.545L67.708 150.326C69.7656 149.494 71.7528 148.533 73.6589 147.454L72.1807 144.843ZM54.573 150.672C52.5415 150.93 50.4682 151.063 48.3618 151.063V154.063C50.5946 154.063 52.7938 153.922 54.9502 153.649L54.573 150.672ZM48.3618 151.063C46.8402 151.063 45.336 150.994 43.8522 150.858L43.5792 153.846C45.1536 153.989 46.749 154.063 48.3618 154.063V151.063ZM34.9934 149.211C32.0661 148.378 29.2588 147.279 26.6022 145.943L25.2543 148.623C28.0788 150.044 31.0624 151.212 34.1726 152.097L34.9934 149.211ZM18.982 141.152C16.5917 139.308 14.395 137.244 12.4253 134.993L10.1677 136.969C12.2668 139.367 14.6061 141.565 17.1495 143.527L18.982 141.152ZM7.20912 127.675C5.72904 125.082 4.50921 122.334 3.5825 119.464L0.727618 120.385C1.71888 123.456 3.02296 126.393 4.60352 129.162L7.20912 127.675ZM1.73148 110.684C1.57841 109.208 1.5 107.711 1.5 106.196H-1.5C-1.5 107.815 -1.41622 109.415 -1.25251 110.994L1.73148 110.684ZM1.5 106.196C1.5 104.269 1.62677 102.371 1.8726 100.509L-1.10158 100.117C-1.36455 102.108 -1.5 104.137 -1.5 106.196H1.5ZM4.83671 89.5354C6.30878 86.0134 8.23453 82.7101 10.5461 79.692L8.16441 77.8678C5.69938 81.0863 3.64251 84.6132 2.06876 88.3785L4.83671 89.5354ZM18.5481 71.5781C20.0367 70.4016 21.6025 69.3111 23.2373 68.315L21.6763 65.7531C19.9377 66.8125 18.2719 67.9725 16.6878 69.2246L18.5481 71.5781ZM23.9361 66.7859C23.8371 66.1957 23.7502 65.6017 23.6754 65.0041L20.6986 65.3763C20.7785 66.0155 20.8716 66.6509 20.9775 67.2822L23.9361 66.7859ZM23.3779 61.4149C23.3533 60.8174 23.3408 60.2169 23.3408 59.6135H20.3408C20.3408 60.2581 20.3541 60.8998 20.3804 61.5384L23.3779 61.4149ZM23.3408 59.6135C23.3408 58.0981 23.4192 56.6007 23.5723 55.1248L20.5883 54.8153C20.4246 56.3938 20.3408 57.9945 20.3408 59.6135H23.3408ZM25.4233 46.3454C26.35 43.4752 27.5699 40.7272 29.0499 38.1336L26.4443 36.6467C24.8638 39.4164 23.5597 42.3535 22.5684 45.4237L25.4233 46.3454ZM34.2661 30.8159C36.2358 28.5651 38.4325 26.5014 40.8228 24.6573L38.9903 22.282C36.4469 24.2442 34.1076 26.4416 32.0085 28.8402L34.2661 30.8159ZM48.443 19.8659C51.0996 18.5298 53.9069 17.4306 56.8342 16.5979L56.0134 13.7124C52.9033 14.5971 49.9196 15.7652 47.0951 17.1857L48.443 19.8659ZM65.6931 14.9511C67.1768 14.8155 68.6811 14.7461 70.2027 14.7461V11.7461C68.5898 11.7461 66.9944 11.8196 65.42 11.9635L65.6931 14.9511ZM70.2027 14.7461C71.7811 14.7461 73.3409 14.8208 74.8784 14.9665L75.1616 11.9799C73.5301 11.8252 71.8758 11.7461 70.2027 11.7461V14.7461ZM84.0536 16.7379C85.5588 17.1831 87.0314 17.699 88.4674 18.2815L89.595 15.5015C88.0687 14.8824 86.5038 14.3342 84.9046 13.8611L84.0536 16.7379ZM90.1685 17.8694C91.2783 16.5788 92.4622 15.3483 93.714 14.1839L91.6707 11.9873C90.3379 13.2271 89.0767 14.5379 87.8938 15.9135L90.1685 17.8694ZM101.913 8.08457C104.826 6.37524 107.949 4.96198 111.238 3.88885L110.307 1.03689C106.813 2.17722 103.493 3.6794 100.395 5.49716L101.913 8.08457ZM121.245 1.7646C122.926 1.58976 124.634 1.5 126.365 1.5V-1.5C124.531 -1.5 122.719 -1.40485 120.935 -1.21931L121.245 1.7646ZM126.365 1.5C128.046 1.5 129.707 1.58473 131.341 1.74987L131.643 -1.23493C129.908 -1.41019 128.147 -1.5 126.365 -1.5V1.5ZM141.08 3.75642C144.285 4.77038 147.336 6.10646 150.192 7.7244L151.671 5.11415C148.634 3.39368 145.391 1.97359 141.985 0.896178L141.08 3.75642ZM158.27 13.5049C159.511 14.61 160.689 15.7786 161.799 17.0053L164.024 14.9925C162.841 13.6855 161.586 12.4409 160.265 11.2644L158.27 13.5049ZM163.364 17.4291C164.543 17.0562 165.743 16.7269 166.963 16.4432L166.283 13.5213C164.988 13.8226 163.713 14.1724 162.459 14.5687L163.364 17.4291ZM174.337 15.3159C175.568 15.2231 176.813 15.1758 178.069 15.1758V12.1758C176.737 12.1758 175.417 12.2259 174.111 12.3244L174.337 15.3159ZM178.069 15.1758C179.327 15.1758 180.573 15.2232 181.806 15.3162L182.031 12.3247C180.724 12.226 179.403 12.1758 178.069 12.1758V15.1758ZM189.187 16.4457C191.64 17.0172 194.018 17.7735 196.302 18.6983L197.428 15.9175C195 14.9345 192.473 14.1309 189.867 13.5239L189.187 16.4457ZM202.977 22.0316C204.047 22.6755 205.088 23.3596 206.097 24.0817L207.842 21.642C206.769 20.8738 205.662 20.1461 204.525 19.4614L202.977 22.0316ZM207.861 24.0683C208.882 23.3137 209.938 22.5984 211.024 21.9249L209.443 19.3753C208.288 20.0915 207.165 20.8524 206.078 21.6553L207.861 24.0683ZM217.818 18.4366C220.148 17.4683 222.576 16.6759 225.084 16.077L224.388 13.159C221.723 13.7952 219.143 14.6371 216.666 15.6664L217.818 18.4366ZM232.636 14.8933C233.897 14.7958 235.173 14.7461 236.46 14.7461V11.7461C235.095 11.7461 233.743 11.7988 232.405 11.9022L232.636 14.8933ZM236.46 14.7461C237.982 14.7461 239.486 14.8155 240.97 14.9511L241.243 11.9635C239.669 11.8196 238.073 11.7461 236.46 11.7461V14.7461ZM249.829 16.5979C252.756 17.4306 255.564 18.5298 258.22 19.8659L259.568 17.1857C256.744 15.7652 253.76 14.5971 250.65 13.7124L249.829 16.5979ZM265.84 24.6573C268.231 26.5014 270.427 28.5651 272.397 30.8159L274.655 28.8402C272.556 26.4416 270.216 24.2442 267.673 22.282L265.84 24.6573ZM277.613 38.1336C279.093 40.7272 280.313 43.4752 281.24 46.3454L284.095 45.4237C283.103 42.3535 281.799 39.4164 280.219 36.6467L277.613 38.1336ZM283.091 55.1248C283.244 56.6007 283.322 58.0981 283.322 59.6135H286.322C286.322 57.9945 286.239 56.3938 286.075 54.8153L283.091 55.1248ZM283.322 59.6135C283.322 60.1252 283.313 60.6349 283.296 61.1423L286.294 61.2471C286.313 60.7048 286.322 60.1602 286.322 59.6135H283.322ZM283.082 64.1915C283.028 64.6997 282.965 65.2053 282.894 65.7082L285.864 66.1294C285.94 65.5914 286.007 65.0506 286.065 64.5072L283.082 64.1915ZM283.634 67.2209C285.345 68.1991 286.984 69.2786 288.544 70.4506L290.346 68.0522C288.686 66.8051 286.942 65.6569 285.124 64.6167L283.634 67.2209ZM296.951 78.6194C299.386 81.6822 301.417 85.0522 302.972 88.6565L305.727 87.4685C304.065 83.6155 301.895 80.018 299.299 76.7524L296.951 78.6194ZM306.106 99.9198C306.366 101.833 306.5 103.785 306.5 105.768H309.5C309.5 103.65 309.357 101.563 309.078 99.5157L306.106 99.9198ZM306.5 105.768C306.5 107.283 306.422 108.781 306.269 110.257L309.253 110.566C309.416 108.987 309.5 107.387 309.5 105.768H306.5ZM304.418 119.036C303.491 121.906 302.271 124.654 300.791 127.248L303.397 128.735C304.977 125.965 306.281 123.028 307.272 119.958L304.418 119.036ZM295.575 134.565C293.605 136.816 291.408 138.88 289.018 140.724L290.851 143.099C293.394 141.137 295.733 138.94 297.832 136.541L295.575 134.565ZM281.398 145.515C278.741 146.852 275.934 147.951 273.007 148.783L273.827 151.669C276.938 150.784 279.921 149.616 282.746 148.196L281.398 145.515ZM264.148 150.43C262.664 150.566 261.16 150.635 259.638 150.635V153.635C261.251 153.635 262.846 153.562 264.421 153.418L264.148 150.43ZM259.638 150.635C257.749 150.635 255.887 150.528 254.058 150.32L253.719 153.301C255.661 153.522 257.636 153.635 259.638 153.635V150.635ZM243.196 147.796C241.431 147.163 239.717 146.43 238.06 145.606L236.724 148.292C238.485 149.168 240.307 149.947 242.183 150.62L243.196 147.796ZM236.193 146.048C235.096 147.509 233.908 148.904 232.639 150.226L234.803 152.303C236.155 150.895 237.421 149.408 238.591 147.85L236.193 146.048ZM224.17 157.18C221.12 159.136 217.816 160.758 214.316 161.992L215.313 164.821C219.033 163.51 222.545 161.786 225.789 159.706L224.17 157.18ZM203.619 164.436C201.819 164.637 199.986 164.741 198.128 164.741V167.741C200.098 167.741 202.041 167.631 203.952 167.417L203.619 164.436ZM198.128 164.741C196.503 164.741 194.898 164.662 193.317 164.507L193.025 167.493C194.704 167.657 196.406 167.741 198.128 167.741V164.741ZM183.888 162.632C180.78 161.684 177.814 160.434 175.026 158.919L173.593 161.554C176.557 163.166 179.71 164.494 183.012 165.501L183.888 162.632ZM167.099 153.496C165.872 152.458 164.703 151.359 163.597 150.205L161.431 152.281C162.61 153.511 163.855 154.681 165.16 155.786L167.099 153.496ZM162.514 151.243L164.68 149.167C164.003 148.461 163.024 148.129 162.058 148.278C161.091 148.427 160.258 149.037 159.825 149.914L162.514 151.243ZM72.9198 146.149L75.7519 145.159C75.4586 144.32 74.808 143.654 73.9758 143.341C73.1435 143.028 72.2153 143.1 71.4416 143.538L72.9198 146.149ZM22.4568 67.0341L24.0178 69.5959C25.0649 68.9579 25.6183 67.7469 25.4155 66.5377L22.4568 67.0341ZM89.0312 16.8915L87.9035 19.6715C89.097 20.1555 90.4662 19.8239 91.3058 18.8474L89.0312 16.8915ZM162.912 15.9989L160.687 18.0116C161.474 18.8819 162.697 19.2131 163.816 18.8593L162.912 15.9989ZM206.969 22.8618L205.224 25.3015C206.281 26.0583 207.706 26.0476 208.752 25.2749L206.969 22.8618ZM284.379 65.9188L281.409 65.4976C281.236 66.7142 281.823 67.9129 282.89 68.523L284.379 65.9188ZM237.392 146.949L238.729 144.263C237.433 143.619 235.863 143.991 234.994 145.147L237.392 146.949ZM157.784 153.576C156.907 154.982 157.337 156.832 158.743 157.709C160.149 158.585 161.999 158.156 162.876 156.75L157.784 153.576ZM157.071 164.322C158.2 163.109 158.133 161.211 156.92 160.082C155.707 158.953 153.809 159.02 152.68 160.233L157.071 164.322ZM146.401 165.818C145.066 166.799 144.779 168.677 145.76 170.012C146.741 171.347 148.618 171.634 149.954 170.653L146.401 165.818ZM141.797 175.558C143.289 174.838 143.915 173.045 143.195 171.552C142.476 170.06 140.682 169.434 139.19 170.154L141.797 175.558ZM131.305 173.105C129.707 173.543 128.766 175.193 129.204 176.791C129.642 178.389 131.292 179.33 132.89 178.892L131.305 173.105ZM123.536 180.569C125.186 180.423 126.406 178.967 126.261 177.317C126.115 175.666 124.659 174.446 123.009 174.592L123.536 180.569ZM114.134 174.552C112.485 174.391 111.018 175.598 110.857 177.247C110.697 178.896 111.903 180.363 113.552 180.524L114.134 174.552ZM103.276 178.485C104.861 178.967 106.537 178.073 107.019 176.488C107.501 174.903 106.607 173.227 105.022 172.745L103.276 178.485ZM96.4591 169.169C95.0023 168.379 93.1816 168.92 92.3923 170.377C91.6031 171.834 92.1443 173.655 93.6011 174.444L96.4591 169.169ZM84.9295 168.534C86.1962 169.602 88.0889 169.441 89.1569 168.174C90.2249 166.908 90.0639 165.015 88.7972 163.947L84.9295 168.534ZM82.3766 157.279C81.3587 155.972 79.4737 155.737 78.1665 156.755C76.8592 157.773 76.6247 159.658 77.6427 160.965L82.3766 157.279ZM72.1009 152.017C72.816 153.512 74.6073 154.144 76.1019 153.428C77.5965 152.713 78.2283 150.922 77.5132 149.427L72.1009 152.017ZM66.0207 146.155C64.4847 146.776 63.7432 148.525 64.3645 150.061C64.9857 151.597 66.7345 152.338 68.2705 151.717L66.0207 146.155ZM55.1388 155.137C56.7825 154.928 57.9461 153.427 57.7378 151.783C57.5294 150.14 56.028 148.976 54.3843 149.184L55.1388 155.137ZM43.9887 149.364C42.3388 149.213 40.879 150.429 40.7282 152.079C40.5774 153.729 41.7927 155.188 43.4427 155.339L43.9887 149.364ZM33.7622 153.539C35.3558 153.993 37.0152 153.068 37.4685 151.475C37.9219 149.881 36.9975 148.222 35.4038 147.768L33.7622 153.539ZM27.2761 144.603C25.7959 143.859 23.9925 144.455 23.2481 145.935C22.5036 147.416 23.1001 149.219 24.5803 149.963L27.2761 144.603ZM16.2332 144.715C17.5451 145.727 19.429 145.484 20.441 144.172C21.4531 142.86 21.2101 140.976 19.8982 139.964L16.2332 144.715ZM13.5541 134.005C12.4629 132.758 10.5676 132.632 9.3208 133.723C8.07397 134.815 7.94776 136.71 9.03891 137.957L13.5541 134.005ZM3.30073 129.906C4.12192 131.345 5.95419 131.846 7.39322 131.024C8.83225 130.203 9.33311 128.371 8.51191 126.932L3.30073 129.906ZM5.00995 119.003C4.50088 117.426 2.81002 116.561 1.23331 117.07C-0.343399 117.579 -1.20889 119.27 -0.699825 120.846L5.00995 119.003ZM-2.74451 111.148C-2.5736 112.796 -1.09906 113.994 0.548954 113.823C2.19697 113.652 3.3944 112.178 3.22348 110.53L-2.74451 111.148ZM3.35969 100.706C3.5766 99.0632 2.42085 97.5558 0.77826 97.3389C-0.864334 97.1219 -2.37176 98.2777 -2.58867 99.9203L3.35969 100.706ZM0.684788 87.8C0.0458409 89.3287 0.767125 91.0859 2.29582 91.7249C3.82452 92.3638 5.58174 91.6425 6.22069 90.1139L0.684788 87.8ZM11.737 80.604C12.7444 79.2887 12.4948 77.4056 11.1794 76.3982C9.86403 75.3907 7.98101 75.6404 6.97356 76.9557L11.737 80.604ZM15.7576 68.0478C14.4578 69.0752 14.237 70.9619 15.2644 72.2617C16.2918 73.5615 18.1785 73.7823 19.4783 72.7549L15.7576 68.0478ZM25.1638 64.818C24.9583 63.1739 23.4589 62.0078 21.8148 62.2133C20.1708 62.4189 19.0046 63.9183 19.2102 65.5623L25.1638 64.818ZM18.8817 61.6002C18.9499 63.2556 20.3472 64.5423 22.0027 64.4741C23.6581 64.4059 24.9448 63.0086 24.8766 61.3531L18.8817 61.6002ZM25.0643 55.2795C25.2352 53.6315 24.0378 52.157 22.3898 51.986C20.7418 51.8151 19.2672 53.0126 19.0963 54.6606L25.0643 55.2795ZM21.141 44.9628C20.6319 46.5395 21.4974 48.2304 23.0741 48.7394C24.6508 49.2485 26.3417 48.383 26.8508 46.8063L21.141 44.9628ZM30.3527 38.8771C31.1739 37.438 30.6731 35.6058 29.234 34.7846C27.795 33.9634 25.9627 34.4642 25.1415 35.9033L30.3527 38.8771ZM30.8797 27.8523C29.7886 29.0992 29.9148 30.9945 31.1616 32.0856C32.4085 33.1768 34.3037 33.0505 35.3949 31.8037L30.8797 27.8523ZM41.739 25.8449C43.0509 24.8329 43.2939 22.949 42.2818 21.6372C41.2698 20.3253 39.3859 20.0823 38.0741 21.0944L41.739 25.8449ZM46.4211 15.8457C44.9409 16.5901 44.3445 18.3935 45.0889 19.8737C45.8333 21.3539 47.6367 21.9504 49.1169 21.206L46.4211 15.8457ZM57.2446 18.0407C58.8383 17.5874 59.7627 15.928 59.3094 14.3343C58.856 12.7407 57.1966 11.8163 55.603 12.2696L57.2446 18.0407ZM65.2835 10.4698C63.6335 10.6205 62.4182 12.0803 62.569 13.7303C62.7198 15.3803 64.1796 16.5956 65.8296 16.4449L65.2835 10.4698ZM74.7369 16.4599C76.3863 16.6162 77.8503 15.4059 78.0066 13.7564C78.163 12.107 76.9527 10.643 75.3032 10.4866L74.7369 16.4599ZM85.3301 12.4227C83.7413 11.9528 82.0723 12.8598 81.6023 14.4486C81.1324 16.0374 82.0394 17.7063 83.6282 18.1763L85.3301 12.4227ZM94.7356 15.2822C95.9487 14.1537 96.0174 12.2555 94.8889 11.0423C93.7605 9.82917 91.8622 9.76052 90.6491 10.889L94.7356 15.2822ZM99.6358 4.20345C98.2068 5.042 97.7281 6.8802 98.5667 8.30919C99.4052 9.73817 101.243 10.2168 102.672 9.37827L99.6358 4.20345ZM111.703 5.31482C113.278 4.80076 114.138 3.10717 113.624 1.53208C113.11 -0.0430112 111.416 -0.903144 109.841 -0.389082L111.703 5.31482ZM120.78 -2.71126C119.132 -2.53987 117.935 -1.06499 118.106 0.58298C118.277 2.23095 119.752 3.42794 121.4 3.25655L120.78 -2.71126ZM131.19 3.24228C132.839 3.40881 134.31 2.20748 134.477 0.559013C134.643 -1.08945 133.442 -2.5608 131.794 -2.72734L131.19 3.24228ZM142.438 -0.533942C140.858 -1.03376 139.173 -0.158372 138.673 1.42129C138.173 3.00096 139.048 4.68672 140.628 5.18654L142.438 -0.533942ZM149.453 9.02952C150.894 9.84619 152.725 9.33959 153.542 7.89799C154.358 6.45639 153.852 4.6257 152.41 3.80902L149.453 9.02952ZM161.263 10.1441C160.025 9.04228 158.129 9.15221 157.027 10.3896C155.925 11.627 156.035 13.5233 157.273 14.6252L161.263 10.1441ZM167.302 17.9042C168.916 17.5287 169.92 15.9161 169.544 14.3024C169.169 12.6886 167.556 11.6848 165.943 12.0603L167.302 17.9042ZM173.999 10.8287C172.346 10.9533 171.108 12.3936 171.233 14.0458C171.357 15.698 172.798 16.9363 174.45 16.8117L173.999 10.8287ZM181.693 16.812C183.345 16.9367 184.785 15.6985 184.91 14.0463C185.035 12.3942 183.796 10.9537 182.144 10.829L181.693 16.812ZM190.208 12.063C188.594 11.6872 186.981 12.6906 186.605 14.3042C186.23 15.9179 187.233 17.5307 188.847 17.9066L190.208 12.063ZM195.74 20.0887C197.275 20.7104 199.024 19.9693 199.646 18.4335C200.268 16.8977 199.527 15.1487 197.991 14.5271L195.74 20.0887ZM205.298 18.1763C203.879 17.3217 202.035 17.7797 201.181 19.1992C200.326 20.6187 200.784 22.4621 202.204 23.3167L205.298 18.1763ZM211.814 23.1998C213.222 22.3267 213.656 20.4774 212.783 19.0692C211.91 17.6611 210.06 17.2273 208.652 18.1004L211.814 23.1998ZM216.091 14.2813C214.561 14.9172 213.836 16.6729 214.472 18.2029C215.108 19.7329 216.864 20.4577 218.394 19.8218L216.091 14.2813ZM225.433 17.536C227.044 17.1513 228.039 15.5329 227.654 13.9214C227.269 12.3098 225.651 11.3153 224.039 11.7L225.433 17.536ZM232.289 10.4067C230.637 10.5344 229.402 11.9771 229.529 13.629C229.657 15.2809 231.1 16.5165 232.752 16.3888L232.289 10.4067ZM240.834 16.4449C242.484 16.5956 243.943 15.3803 244.094 13.7303C244.245 12.0803 243.03 10.6205 241.38 10.4698L240.834 16.4449ZM251.06 12.2696C249.466 11.8163 247.807 12.7407 247.354 14.3343C246.9 15.928 247.825 17.5874 249.418 18.0407L251.06 12.2696ZM257.546 21.206C259.026 21.9504 260.83 21.3539 261.574 19.8737C262.319 18.3935 261.722 16.5901 260.242 15.8457L257.546 21.206ZM268.589 21.0944C267.277 20.0823 265.393 20.3253 264.381 21.6372C263.369 22.949 263.612 24.8329 264.924 25.8449L268.589 21.0944ZM271.268 31.8037C272.359 33.0505 274.255 33.1768 275.502 32.0856C276.748 30.9945 276.875 29.0992 275.783 27.8523L271.268 31.8037ZM281.522 35.9033C280.7 34.4642 278.868 33.9634 277.429 34.7846C275.99 35.6058 275.489 37.438 276.31 38.8771L281.522 35.9033ZM279.812 46.8063C280.321 48.383 282.012 49.2485 283.589 48.7394C285.166 48.2304 286.031 46.5395 285.522 44.9628L279.812 46.8063ZM287.567 54.6606C287.396 53.0126 285.921 51.8151 284.273 51.986C282.625 52.157 281.428 53.6315 281.599 55.2795L287.567 54.6606ZM281.797 61.0899C281.739 62.7458 283.034 64.135 284.69 64.1929C286.346 64.2508 287.735 62.9553 287.793 61.2995L281.797 61.0899ZM287.557 64.665C287.731 63.0174 286.536 61.5403 284.889 61.366C283.241 61.1917 281.764 62.386 281.59 64.0337L287.557 64.665ZM287.643 71.6498C288.967 72.6451 290.848 72.3781 291.843 71.0535C292.839 69.7289 292.572 67.8483 291.247 66.853L287.643 71.6498ZM300.473 75.819C299.442 74.522 297.555 74.3065 296.258 75.3376C294.961 76.3686 294.746 78.2559 295.777 79.5528L300.473 75.819ZM301.594 89.2505C302.251 90.7719 304.016 91.4733 305.537 90.8172C307.059 90.1611 307.76 88.3958 307.104 86.8744L301.594 89.2505ZM310.565 99.3137C310.342 97.672 308.83 96.5219 307.188 96.7451C305.546 96.9682 304.396 98.48 304.619 100.122L310.565 99.3137ZM304.777 110.102C304.606 111.75 305.803 113.224 307.451 113.395C309.099 113.566 310.574 112.369 310.745 110.721L304.777 110.102ZM308.7 120.419C309.209 118.842 308.343 117.151 306.767 116.642C305.19 116.133 303.499 116.998 302.99 118.575L308.7 120.419ZM299.488 126.504C298.667 127.943 299.168 129.776 300.607 130.597C302.046 131.418 303.878 130.917 304.699 129.478L299.488 126.504ZM298.961 137.529C300.052 136.282 299.926 134.387 298.679 133.296C297.432 132.205 295.537 132.331 294.446 133.578L298.961 137.529ZM288.102 139.536C286.79 140.548 286.547 142.432 287.559 143.744C288.571 145.056 290.455 145.299 291.767 144.287L288.102 139.536ZM283.42 149.536C284.9 148.791 285.496 146.988 284.752 145.508C284.008 144.027 282.204 143.431 280.724 144.175L283.42 149.536ZM272.596 147.341C271.003 147.794 270.078 149.453 270.532 151.047C270.985 152.641 272.644 153.565 274.238 153.112L272.596 147.341ZM264.557 154.912C266.207 154.761 267.423 153.301 267.272 151.651C267.121 150.001 265.661 148.786 264.011 148.936L264.557 154.912ZM254.227 148.83C252.581 148.643 251.095 149.826 250.908 151.472C250.721 153.119 251.904 154.605 253.55 154.792L254.227 148.83ZM241.676 152.032C243.235 152.591 244.953 151.781 245.513 150.221C246.072 148.662 245.262 146.944 243.702 146.384L241.676 152.032ZM231.557 149.187C230.41 150.382 230.449 152.281 231.644 153.429C232.839 154.576 234.738 154.537 235.886 153.342L231.557 149.187ZM226.599 160.968C227.994 160.074 228.4 158.218 227.505 156.824C226.611 155.429 224.755 155.023 223.36 155.917L226.599 160.968ZM213.818 160.577C212.255 161.128 211.435 162.841 211.985 164.404C212.536 165.966 214.249 166.787 215.812 166.236L213.818 160.577ZM204.119 168.908C205.766 168.724 206.951 167.24 206.767 165.594C206.583 163.947 205.099 162.761 203.453 162.945L204.119 168.908ZM193.463 163.014C191.814 162.853 190.346 164.06 190.185 165.709C190.024 167.358 191.231 168.825 192.88 168.986L193.463 163.014ZM182.575 166.936C184.16 167.42 185.836 166.527 186.32 164.942C186.803 163.357 185.91 161.681 184.325 161.197L182.575 166.936ZM175.742 157.601C174.286 156.809 172.465 157.348 171.673 158.804C170.882 160.259 171.421 162.081 172.876 162.872L175.742 157.601ZM164.191 156.931C165.455 158.001 167.348 157.844 168.419 156.579C169.49 155.315 169.332 153.422 168.068 152.351L164.191 156.931ZM159.825 149.914C159.205 151.168 158.523 152.39 157.784 153.576L162.876 156.75C163.718 155.399 164.495 154.005 165.203 152.572L159.825 149.914ZM152.68 160.233C150.778 162.276 148.675 164.147 146.401 165.818L149.954 170.653C152.528 168.762 154.911 166.641 157.071 164.322L152.68 160.233ZM139.19 170.154C136.686 171.361 134.049 172.354 131.305 173.105L132.89 178.892C135.988 178.044 138.967 176.923 141.797 175.558L139.19 170.154ZM123.009 174.592C121.619 174.714 120.211 174.777 118.787 174.777V180.777C120.387 180.777 121.971 180.707 123.536 180.569L123.009 174.592ZM118.787 174.777C117.215 174.777 115.663 174.701 114.134 174.552L113.552 180.524C115.274 180.691 117.021 180.777 118.787 180.777V174.777ZM105.022 172.745C102.019 171.832 99.1532 170.628 96.4591 169.169L93.6011 174.444C96.6473 176.094 99.8859 177.454 103.276 178.485L105.022 172.745ZM88.7972 163.947C86.4216 161.944 84.2686 159.708 82.3766 157.279L77.6427 160.965C79.794 163.728 82.238 166.265 84.9295 168.534L88.7972 163.947ZM77.5132 149.427C76.8501 148.042 76.2615 146.617 75.7519 145.159L70.0877 147.138C70.6707 148.807 71.3436 150.435 72.1009 152.017L77.5132 149.427ZM71.4416 143.538C69.7059 144.521 67.8956 145.396 66.0207 146.155L68.2705 151.717C70.3889 150.86 72.4351 149.871 74.398 148.759L71.4416 143.538ZM54.3843 149.184C52.4153 149.434 50.405 149.563 48.3618 149.563V155.563C50.6578 155.563 52.92 155.418 55.1388 155.137L54.3843 149.184ZM48.3618 149.563C46.8859 149.563 45.4271 149.496 43.9887 149.364L43.4427 155.339C45.0624 155.487 46.7034 155.563 48.3618 155.563V149.563ZM35.4038 147.768C32.5679 146.962 29.8488 145.897 27.2761 144.603L24.5803 149.963C27.4888 151.426 30.5606 152.629 33.7622 153.539L35.4038 147.768ZM19.8982 139.964C17.5845 138.179 15.4591 136.182 13.5541 134.005L9.03891 137.957C11.2027 140.429 13.6132 142.693 16.2332 144.715L19.8982 139.964ZM8.51191 126.932C7.08208 124.426 5.90437 121.773 5.00995 119.003L-0.699825 120.846C0.323714 124.016 1.66992 127.048 3.30073 129.906L8.51191 126.932ZM3.22348 110.53C3.07573 109.105 3 107.659 3 106.196H-3C-3 107.866 -2.91354 109.519 -2.74451 111.148L3.22348 110.53ZM3 106.196C3 104.335 3.12243 102.502 3.35969 100.706L-2.58867 99.9203C-2.86021 101.977 -3 104.071 -3 106.196H3ZM6.22069 90.1139C7.64191 86.7135 9.50211 83.522 11.737 80.604L6.97356 76.9557C4.4318 80.2744 2.30938 83.9131 0.684788 87.8L6.22069 90.1139ZM19.4783 72.7549C20.9191 71.6161 22.4349 70.5604 24.0178 69.5959L20.8958 64.4722C19.1053 65.5632 17.3895 66.758 15.7576 68.0478L19.4783 72.7549ZM25.4155 66.5377C25.3199 65.9682 25.236 65.3948 25.1638 64.818L19.2102 65.5623C19.2927 66.2224 19.3888 66.8785 19.4982 67.5304L25.4155 66.5377ZM24.8766 61.3531C24.8528 60.7762 24.8408 60.1963 24.8408 59.6135H18.8408C18.8408 60.2787 18.8545 60.941 18.8817 61.6002L24.8766 61.3531ZM24.8408 59.6135C24.8408 58.1499 24.9166 56.7041 25.0643 55.2795L19.0963 54.6606C18.9273 56.2904 18.8408 57.9427 18.8408 59.6135H24.8408ZM26.8508 46.8063C27.7452 44.0361 28.9229 41.3826 30.3527 38.8771L25.1415 35.9033C23.5107 38.761 22.1645 41.7927 21.141 44.9628L26.8508 46.8063ZM35.3949 31.8037C37.2999 29.6268 39.4253 27.6299 41.739 25.8449L38.0741 21.0944C35.4541 23.1157 33.0435 25.3798 30.8797 27.8523L35.3949 31.8037ZM49.1169 21.206C51.6897 19.9121 54.4087 18.8474 57.2446 18.0407L55.603 12.2696C52.4014 13.1804 49.3296 14.383 46.4211 15.8457L49.1169 21.206ZM65.8296 16.4449C67.268 16.3134 68.7267 16.2461 70.2027 16.2461V10.2461C68.5442 10.2461 66.9033 10.3217 65.2835 10.4698L65.8296 16.4449ZM70.2027 16.2461C71.7338 16.2461 73.2463 16.3185 74.7369 16.4599L75.3032 10.4866C73.6246 10.3275 71.9231 10.2461 70.2027 10.2461V16.2461ZM83.6282 18.1763C85.0863 18.6076 86.5127 19.1073 87.9035 19.6715L90.1588 14.1114C88.5874 13.4741 86.9763 12.9097 85.3301 12.4227L83.6282 18.1763ZM91.3058 18.8474C92.3792 17.5992 93.5244 16.4089 94.7356 15.2822L90.6491 10.889C89.2757 12.1665 87.9759 13.5174 86.7565 14.9355L91.3058 18.8474ZM102.672 9.37827C105.493 7.72315 108.518 6.35436 111.703 5.31482L109.841 -0.389082C106.244 0.784847 102.826 2.33149 99.6358 4.20345L102.672 9.37827ZM121.4 3.25655C123.03 3.08707 124.686 3 126.365 3V-3C124.479 -3 122.615 -2.90215 120.78 -2.71126L121.4 3.25655ZM126.365 3C127.996 3 129.606 3.08218 131.19 3.24228L131.794 -2.72734C130.009 -2.90765 128.198 -3 126.365 -3V3ZM140.628 5.18654C143.732 6.16877 146.687 7.46284 149.453 9.02952L152.41 3.80902C149.283 2.03729 145.943 0.575197 142.438 -0.533942L140.628 5.18654ZM157.273 14.6252C158.474 15.6946 159.614 16.8252 160.687 18.0116L165.136 13.9861C163.917 12.6389 162.624 11.3563 161.263 10.1441L157.273 14.6252ZM163.816 18.8593C164.959 18.4981 166.121 18.179 167.302 17.9042L165.943 12.0603C164.61 12.3704 163.297 12.7305 162.007 13.1384L163.816 18.8593ZM174.45 16.8117C175.643 16.7217 176.851 16.6758 178.069 16.6758V10.6758C176.7 10.6758 175.342 10.7274 173.999 10.8287L174.45 16.8117ZM178.069 16.6758C179.29 16.6758 180.498 16.7218 181.693 16.812L182.144 10.829C180.799 10.7275 179.44 10.6758 178.069 10.6758V16.6758ZM188.847 17.9066C191.224 18.4603 193.527 19.193 195.74 20.0887L197.991 14.5271C195.491 13.515 192.89 12.6878 190.208 12.063L188.847 17.9066ZM202.204 23.3167C203.239 23.9401 204.247 24.6025 205.224 25.3015L208.715 20.4222C207.61 19.6309 206.47 18.8815 205.298 18.1763L202.204 23.3167ZM208.752 25.2749C209.741 24.5443 210.762 23.8518 211.814 23.1998L208.652 18.1004C207.463 18.8381 206.307 19.6217 205.187 20.4488L208.752 25.2749ZM218.394 19.8218C220.65 18.8839 223.002 18.1163 225.433 17.536L224.039 11.7C221.297 12.3548 218.64 13.2216 216.091 14.2813L218.394 19.8218ZM232.752 16.3888C233.974 16.2943 235.211 16.2461 236.46 16.2461V10.2461C235.057 10.2461 233.666 10.3003 232.289 10.4067L232.752 16.3888ZM236.46 16.2461C237.936 16.2461 239.395 16.3134 240.834 16.4449L241.38 10.4698C239.76 10.3217 238.119 10.2461 236.46 10.2461V16.2461ZM249.418 18.0407C252.254 18.8474 254.973 19.9121 257.546 21.206L260.242 15.8457C257.334 14.383 254.262 13.1804 251.06 12.2696L249.418 18.0407ZM264.924 25.8449C267.238 27.6299 269.363 29.6268 271.268 31.8037L275.783 27.8523C273.62 25.3798 271.209 23.1157 268.589 21.0944L264.924 25.8449ZM276.31 38.8771C277.74 41.3826 278.918 44.0361 279.812 46.8063L285.522 44.9628C284.499 41.7926 283.152 38.761 281.522 35.9033L276.31 38.8771ZM281.599 55.2795C281.747 56.7041 281.822 58.1499 281.822 59.6135H287.822C287.822 57.9427 287.736 56.2904 287.567 54.6606L281.599 55.2795ZM281.822 59.6135C281.822 60.1077 281.814 60.5999 281.797 61.0899L287.793 61.2995C287.812 60.7397 287.822 60.1776 287.822 59.6135H281.822ZM281.59 64.0337C281.538 64.5242 281.477 65.0122 281.409 65.4976L287.349 66.34C287.428 65.7845 287.497 65.2261 287.557 64.665L281.59 64.0337ZM282.89 68.523C284.546 69.4702 286.133 70.5153 287.643 71.6498L291.247 66.853C289.537 65.5684 287.741 64.3858 285.868 63.3147L282.89 68.523ZM295.777 79.5528C298.131 82.5143 300.094 85.7705 301.594 89.2505L307.104 86.8744C305.389 82.8972 303.15 79.1859 300.473 75.819L295.777 79.5528ZM304.619 100.122C304.87 101.968 305 103.853 305 105.768H311C311 103.582 310.852 101.427 310.565 99.3137L304.619 100.122ZM305 105.768C305 107.231 304.924 108.677 304.777 110.102L310.745 110.721C310.914 109.091 311 107.439 311 105.768H305ZM302.99 118.575C302.096 121.345 300.918 123.999 299.488 126.504L304.699 129.478C306.33 126.62 307.676 123.589 308.7 120.419L302.99 118.575ZM294.446 133.578C292.541 135.754 290.416 137.751 288.102 139.536L291.767 144.287C294.387 142.266 296.797 140.001 298.961 137.529L294.446 133.578ZM280.724 144.175C278.151 145.469 275.432 146.534 272.596 147.341L274.238 153.112C277.439 152.201 280.511 150.998 283.42 149.536L280.724 144.175ZM264.011 148.936C262.573 149.068 261.114 149.135 259.638 149.135V155.135C261.297 155.135 262.938 155.06 264.557 154.912L264.011 148.936ZM259.638 149.135C257.806 149.135 256 149.031 254.227 148.83L253.55 154.792C255.548 155.019 257.579 155.135 259.638 155.135V149.135ZM243.702 146.384C241.993 145.771 240.333 145.062 238.729 144.263L236.056 149.635C237.869 150.537 239.745 151.339 241.676 152.032L243.702 146.384ZM234.994 145.147C233.933 146.559 232.785 147.908 231.557 149.187L235.886 153.342C237.279 151.89 238.584 150.358 239.79 148.752L234.994 145.147ZM223.36 155.917C220.407 157.811 217.208 159.382 213.818 160.577L215.812 166.236C219.641 164.886 223.258 163.111 226.599 160.968L223.36 155.917ZM203.453 162.945C201.707 163.14 199.93 163.241 198.128 163.241V169.241C200.153 169.241 202.153 169.128 204.119 168.908L203.453 162.945ZM198.128 163.241C196.552 163.241 194.996 163.164 193.463 163.014L192.88 168.986C194.606 169.154 196.357 169.241 198.128 169.241V163.241ZM184.325 161.197C181.315 160.279 178.442 159.068 175.742 157.601L172.876 162.872C175.929 164.532 179.176 165.899 182.575 166.936L184.325 161.197ZM168.068 152.351C166.881 151.346 165.75 150.283 164.68 149.167L160.348 153.319C161.563 154.586 162.846 155.792 164.191 156.931L168.068 152.351Z" fill="#247158" mask="url(#path-1-inside-1_362_956)"/>
</svg>
