<svg width="327" height="337" viewBox="0 0 327 337" fill="none" xmlns="http://www.w3.org/2000/svg">
<rect x="34.7994" width="293.91" height="304.795" rx="50" transform="rotate(6.55593 34.7994 0)" fill="white"/>
<g clip-path="url(#clip0_318_757)">
<path d="M165.16 148.735L139.897 265.001L170.739 268.545L167.852 149.044L165.16 148.735Z" fill="#6A3906"/>
<path d="M162.936 220.649C162.936 220.649 192.444 224.73 200.698 204.146" stroke="#6A3906" stroke-width="5" stroke-miterlimit="10" stroke-linecap="round"/>
<path d="M190.782 215.591C190.782 215.591 181.139 212.204 185.31 200.418" stroke="#6A3906" stroke-width="5" stroke-miterlimit="10" stroke-linecap="round"/>
<path d="M153.3 207.973C153.3 207.973 125.869 196.305 129.252 174.373" stroke="#6A3906" stroke-width="5" stroke-miterlimit="10" stroke-linecap="round"/>
<path d="M131.95 189.306C131.95 189.306 141.958 191.356 144.374 179.083" stroke="#6A3906" stroke-width="5" stroke-miterlimit="10" stroke-linecap="round"/>
<path d="M224.369 187.265C224.178 187.677 224.111 187.893 223.679 188.342C222.154 189.943 221.56 191.054 221.058 192.225C220.694 193.069 220.314 193.285 220.403 194.494L220.222 196.558C220.164 197.484 218.904 199.468 217.554 200.032C209.707 203.3 203.258 209.226 194.976 208.162C194.261 208.07 193.546 207.945 192.831 207.791C192.069 207.624 191.308 207.422 190.548 207.18C189.48 206.841 188.449 206.437 187.458 205.971C187.201 205.853 186.945 205.729 186.693 205.598C180.91 202.644 174.917 197.972 174.162 191.567C173.359 188.047 176.386 184.513 176.073 180.891C175.705 176.642 173.998 175.011 175.019 171.594C175.554 169.804 176.116 169.954 179.151 165.124C181.684 161.1 181.447 160.751 182.936 159.017C183.976 157.807 185.919 155.548 189.069 154.363C191.315 153.518 191.409 154.257 195.681 153.395C198.594 152.807 200.722 151.397 202.551 150.862C203.322 150.635 203.883 150.342 204.588 150.331C205.783 150.238 207.014 150.629 208.123 150.98C210.155 151.624 211.475 152.179 212.684 154.315C213.655 156.407 214.127 156.911 214.699 158.139C216.974 163.015 222.38 162.536 223.573 167.086C224.169 169.352 222.946 169.937 223.61 174.407C224.036 177.277 224.815 179.504 224.815 179.504C225.335 180.986 225.435 182.177 225.431 183.119C225.544 184.803 224.913 186.07 224.366 187.262L224.369 187.265Z" fill="#007C2F"/>
<path d="M171.151 137.244C171.16 137.852 171.203 138.153 170.942 138.957C170.02 141.793 169.945 143.492 170.015 145.204C170.065 146.442 169.726 146.928 170.534 148.338L171.511 150.943C171.977 152.096 171.599 155.241 170.287 156.719C162.666 165.305 158.28 176.281 147.616 179.88C146.695 180.191 145.756 180.46 144.798 180.695C143.777 180.942 142.734 181.148 141.674 181.305C140.181 181.524 138.699 181.643 137.226 181.664C136.844 181.669 136.463 181.672 136.083 181.664C127.356 181.498 117.381 179.38 112.75 172.07C109.735 168.282 111.356 162.219 108.88 158.017C105.969 153.091 102.953 152.121 102.211 147.385C101.82 144.9 102.589 144.749 103.473 137.117C104.211 130.749 103.722 130.47 104.524 127.491C105.085 125.411 106.13 121.532 109.265 118.237C111.501 115.89 112.043 116.73 116.726 113.167C119.915 110.739 121.682 107.773 123.589 106.045C124.396 105.316 124.901 104.629 125.751 104.198C127.151 103.38 128.869 103.128 130.415 102.902C133.253 102.486 135.176 102.375 137.881 104.249C140.269 106.211 141.139 106.541 142.541 107.687C148.123 112.247 154.405 108.483 158.492 113.287C160.528 115.679 159.384 117.107 162.785 122.128C164.966 125.351 167.199 127.591 167.199 127.591C168.688 129.079 169.499 130.46 170.045 131.603C171.156 133.579 171.129 135.481 171.154 137.247L171.151 137.244Z" fill="#00913A"/>
<path d="M203.557 164.256C201.89 166.357 201.482 168.884 202.491 170.701C202.976 171.575 204.089 172.829 205.196 172.654C207.288 172.323 207.796 167.111 207.831 166.718C208.094 163.779 207.265 161.389 206.648 160.014" fill="#006934"/>
<path d="M208.725 181.599C207.058 183.699 206.65 186.227 207.659 188.044C208.144 188.918 209.257 190.172 210.364 189.997C212.456 189.666 212.964 184.454 212.999 184.06C213.262 181.122 212.433 178.731 211.817 177.357" fill="#006934"/>
<path d="M190.194 172.901C188.527 175.001 188.119 177.529 189.128 179.346C189.613 180.219 190.726 181.474 191.833 181.299C193.925 180.968 194.433 175.755 194.468 175.362C194.731 172.424 193.902 170.033 193.286 168.658" fill="#006934"/>
<path d="M191.852 192.466C190.184 194.567 189.777 197.094 190.785 198.911C191.271 199.785 192.383 201.039 193.49 200.864C195.582 200.533 196.09 195.321 196.126 194.928C196.389 191.989 195.56 189.599 194.943 188.224" fill="#006934"/>
<path d="M113.951 125.389C112.284 127.49 111.876 130.017 112.885 131.834C113.37 132.708 114.483 133.962 115.59 133.787C117.682 133.456 118.19 128.244 118.225 127.85C118.488 124.912 117.659 122.521 117.043 121.147" fill="#007C2F"/>
<path d="M122.444 142.127C120.777 144.228 120.369 146.756 121.378 148.572C121.863 149.446 122.975 150.7 124.083 150.525C126.175 150.194 126.683 144.982 126.718 144.589C126.981 141.65 126.152 139.26 125.535 137.885" fill="#007C2F"/>
<path d="M125.805 163.86C124.138 165.96 123.731 168.488 124.739 170.305C125.225 171.178 126.337 172.433 127.444 172.258C129.536 171.927 130.044 166.714 130.08 166.321C130.343 163.383 129.514 160.992 128.897 159.617" fill="#007C2F"/>
<path d="M142.511 165.78C140.844 167.88 140.437 170.408 141.445 172.225C141.931 173.098 143.043 174.353 144.15 174.178C146.242 173.847 146.75 168.634 146.786 168.241C147.048 165.303 146.22 162.912 145.603 161.537" fill="#007C2F"/>
<path d="M176.907 70.2491C180.586 70.6718 183.021 71.175 185.784 74.4152C188.125 77.6628 189.099 78.3625 190.476 80.2645C195.955 87.8199 205.025 85.204 208.553 92.5681C210.31 96.2345 208.42 97.6395 211.019 105.045C212.686 109.798 214.744 113.338 214.744 113.338C216.114 115.692 216.675 117.691 216.982 119.299C217.723 122.136 217.067 124.504 216.52 126.717C216.331 127.483 216.287 127.869 215.696 128.786C213.615 132.025 212.97 134.121 212.494 136.283C212.152 137.843 211.571 138.341 212.119 140.371L212.488 143.954C212.695 145.55 211.194 149.355 209.069 150.766C196.747 158.958 187.683 171.21 173.196 172.159C171.944 172.238 170.684 172.267 169.414 172.24C168.057 172.209 166.691 172.121 165.319 171.963C163.385 171.741 161.495 171.392 159.65 170.93C159.172 170.813 158.695 170.686 158.222 170.55C147.382 167.439 135.627 161.47 132.238 150.799C129.717 145.061 133.722 138.028 132.002 131.952C129.982 124.83 126.532 122.611 127.156 116.45C127.482 113.217 128.49 113.283 132.091 104.039C135.093 96.3287 134.576 95.8128 136.552 92.3586C137.933 89.946 140.507 85.4474 145.495 82.3755C149.054 80.1837 149.453 81.4182 156.465 78.5232C161.242 76.5502 164.416 73.434 167.361 71.9105C168.604 71.2651 169.464 70.5791 170.662 70.3228" fill="#22AC38"/>
<path d="M150.482 96.4192C148.815 98.5198 148.408 101.048 149.416 102.864C149.902 103.738 151.014 104.992 152.121 104.817C154.213 104.486 154.721 99.274 154.757 98.8808C155.02 95.9423 154.191 93.5516 153.574 92.177" fill="#00913A"/>
<path d="M171.211 85.9934C169.544 88.094 169.136 90.6217 170.145 92.4387C170.631 93.3122 171.743 94.5664 172.85 94.3915C174.942 94.0606 175.45 88.8483 175.485 88.455C175.748 85.5165 174.92 83.1259 174.303 81.7513" fill="#00913A"/>
<path d="M188.555 96.5257C186.888 98.6262 186.48 101.154 187.489 102.971C187.974 103.844 189.087 105.099 190.194 104.924C192.286 104.593 192.794 99.3805 192.829 98.9872C193.092 96.0488 192.263 93.6581 191.647 92.2835" fill="#00913A"/>
<path d="M153.546 120.743C151.879 122.844 151.471 125.372 152.48 127.189C152.966 128.062 154.078 129.316 155.185 129.142C157.277 128.811 157.785 123.598 157.821 123.205C158.083 120.267 157.255 117.876 156.638 116.501" fill="#00913A"/>
<path d="M198.337 127.533C196.67 129.634 196.263 132.162 197.271 133.979C197.757 134.852 198.869 136.106 199.976 135.932C202.068 135.601 202.576 130.388 202.612 129.995C202.874 127.057 202.046 124.666 201.429 123.291" fill="#00913A"/>
<path d="M176.584 112.883C174.917 114.984 174.509 117.511 175.518 119.328C176.004 120.202 177.116 121.456 178.223 121.281C180.315 120.95 180.823 115.738 180.858 115.345C181.121 112.406 180.293 110.016 179.676 108.641" fill="#00913A"/>
<path d="M185.412 149.364C183.745 151.464 183.337 153.992 184.346 155.809C184.831 156.682 185.944 157.937 187.051 157.762C189.143 157.431 189.651 152.218 189.686 151.825C189.949 148.887 189.121 146.496 188.504 145.121" fill="#00913A"/>
<path d="M170.862 137.183C169.195 139.283 168.787 141.811 169.796 143.628C170.281 144.502 171.394 145.756 172.501 145.581C174.593 145.25 175.101 140.038 175.136 139.644C175.399 136.706 174.57 134.315 173.954 132.941" fill="#00913A"/>
<path d="M146.539 144.896C144.872 146.996 144.464 149.524 145.473 151.341C145.958 152.215 147.071 153.469 148.178 153.294C150.27 152.963 150.778 147.751 150.813 147.357C151.076 144.419 150.247 142.028 149.631 140.654" fill="#00913A"/>
</g>
<defs>
<clipPath id="clip0_318_757">
<rect width="197.91" height="208.795" fill="white" transform="translate(77.0053 53.166) rotate(6.55593)"/>
</clipPath>
</defs>
</svg>
