<svg width="81" height="27" viewBox="0 0 81 27" fill="none" xmlns="http://www.w3.org/2000/svg">
<path d="M13.472 16.496H6.24C5.472 18.352 4.576 20.72 4.128 21.744C4 22.032 3.744 22.192 3.264 22.192C2.528 22.192 1.12 22 0.448 21.776V21.648C2.112 17.744 7.104 5.872 8.32 2.96L8.032 2.288C9.216 2.032 11.04 1.904 11.392 1.904C11.712 1.904 11.968 2.096 12.16 2.48C13.632 6 16.064 12.272 17.152 15.056C18.496 18.352 19.264 20.336 19.904 21.68L19.872 21.808C19.168 22.064 17.024 22.192 16.32 22.192C15.808 22.192 15.552 22.032 15.232 21.168C14.624 19.536 14.176 18.32 13.472 16.496ZM7.136 13.84H12.672C11.232 9.872 10.272 7.472 9.888 6.48C9.12 8.56 8.192 11.088 7.136 13.84ZM32.97 18.896L33.034 18.992C33.002 19.92 32.554 21.04 31.978 21.552C31.082 22.128 29.706 22.384 28.362 22.384C24.202 22.384 20.97 19.984 20.97 15.28C20.97 10.704 24.426 7.536 28.906 7.536C31.05 7.536 32.586 8.208 33.162 8.752C33.162 9.584 32.746 10.8 31.626 10.736C30.89 10.448 29.898 10.224 29.034 10.224C26.73 10.224 24.938 11.824 24.938 14.736C24.938 18.224 27.338 19.504 29.514 19.504C30.89 19.504 32.106 19.248 32.97 18.896ZM44.391 19.056L44.455 19.12C44.615 19.888 44.487 20.88 43.911 21.36C43.143 22.032 41.831 22.384 40.391 22.384C37.159 22.384 36.103 20.304 36.103 18.064V10.416C34.887 10.416 34.279 9.872 34.279 9.52C34.759 8.624 37.319 6.288 37.895 5.84C38.407 5.392 39.015 5.008 40.263 4.88C40.167 5.84 40.071 7.024 40.071 7.92H44.807C44.423 10.128 43.719 10.224 43.079 10.288C42.375 10.352 41.351 10.416 40.007 10.416C39.879 13.04 39.911 16.144 40.007 17.488C40.167 19.056 41.063 19.632 42.151 19.632C43.079 19.632 43.975 19.28 44.391 19.056ZM48.7182 0.848C49.9342 0.848 50.7022 1.712 50.7022 2.896C50.7022 4.112 49.8382 5.072 48.6222 5.072C47.6302 5.072 46.5742 4.496 46.5742 2.992C46.5742 1.456 47.8862 0.848 48.7182 0.848ZM50.6062 9.712V21.232C50.6062 21.808 50.3502 21.968 49.6462 22.064C49.0062 22.16 47.8542 22.192 46.6062 22.192C46.6382 20.88 46.7022 19.024 46.7022 17.136V11.696C46.7022 9.712 46.6382 8.72 46.5742 8.112C47.3102 7.888 49.3582 7.728 49.9982 7.728C50.4782 7.728 50.6062 7.888 50.6062 9.712ZM55.8755 7.536C56.3555 7.536 56.6115 7.824 56.7395 8.272C57.5075 10.416 58.7555 14 59.9075 17.808C61.1875 14.128 62.6595 10.128 63.4595 7.536C64.3555 7.536 65.1235 7.696 65.8915 8.048C66.5635 8.336 66.4035 9.04 65.9555 10.16C64.6115 13.52 62.7875 17.872 61.4435 21.232C61.2515 21.744 60.9635 21.936 60.4835 22.064C59.6835 22.256 58.5955 22.384 57.9555 22.384C56.8995 19.248 55.7155 16.24 54.2755 12.432C53.6355 10.736 53.1235 9.488 52.6115 8.304C53.3475 7.92 55.0435 7.536 55.8755 7.536ZM79.1923 18.768L79.2563 18.832C79.2563 20.24 78.1363 21.552 77.5923 21.808C77.1123 22.032 75.7363 22.384 74.6163 22.384C69.9763 22.384 67.3843 19.824 67.3843 15.12C67.3843 11.248 69.9123 7.536 74.2643 7.536C78.2963 7.536 79.8643 10.448 79.8963 13.04C79.8963 13.488 79.8643 13.84 79.8003 14.096C79.6403 14.576 78.4243 15.056 77.1123 15.376C76.3123 15.536 72.9843 15.568 71.2563 15.504C71.4163 18.32 73.4323 19.504 75.6083 19.504C77.1443 19.504 78.6483 19.024 79.1923 18.768ZM73.9443 9.776C72.6963 9.776 71.4163 10.896 71.2883 13.296C72.6003 13.392 75.0643 13.36 75.8323 13.296C76.0563 13.296 76.2483 12.976 76.2483 12.624C76.2483 11.056 75.5443 9.776 73.9443 9.776Z" fill="#123797"/>
<path d="M0 25.2H80.6643V26.8H0V25.2Z" fill="#123797"/>
</svg>
