<svg width="360" height="230" viewBox="0 0 360 230" fill="none" xmlns="http://www.w3.org/2000/svg">
<mask id="path-1-inside-1_361_835" fill="white">
<path fill-rule="evenodd" clip-rule="evenodd" d="M231.578 215.074C215.108 215.074 200.283 207.599 189.952 195.671C180.889 215.966 161.41 230.001 138.842 230.001C113.905 230.001 92.7388 212.864 85.2308 189.082C76.8177 194.355 67.0052 197.381 56.5268 197.381C25.3079 197.381 0 170.523 0 137.393C0 116.083 10.47 97.3685 26.2486 86.7268C25.7749 83.601 25.5287 80.3944 25.5287 77.1269C25.5287 43.9963 50.8366 17.1387 82.0555 17.1387C89.8616 17.1387 97.2981 18.8178 104.062 21.8544C114.429 8.50823 130.128 0 147.699 0C164.757 0 180.051 8.01836 190.415 20.6971C195.988 18.7468 201.944 17.6914 208.133 17.6914C220.797 17.6914 232.489 22.1115 241.914 29.5775C251.454 21.7775 263.407 17.1387 276.382 17.1387C307.601 17.1387 332.909 43.9963 332.909 77.1269C332.909 79.8938 332.732 82.617 332.39 85.2844C348.925 95.7518 360 114.923 360 136.84C360 169.97 334.692 196.828 303.473 196.828C294.097 196.828 285.254 194.405 277.47 190.118C267.206 205.234 250.475 215.074 231.578 215.074Z"/>
</mask>
<path d="M189.952 195.671L191.086 194.689C190.75 194.301 190.239 194.112 189.732 194.187C189.225 194.262 188.791 194.591 188.582 195.059L189.952 195.671ZM85.2308 189.082L86.6612 188.63C86.5215 188.188 86.1845 187.835 85.7488 187.674C85.313 187.514 84.8276 187.564 84.4342 187.811L85.2308 189.082ZM26.2486 86.7268L27.0874 87.9704C27.5677 87.6464 27.8185 87.0748 27.7317 86.502L26.2486 86.7268ZM104.062 21.8544L103.447 23.2228C104.079 23.5062 104.822 23.321 105.246 22.7746L104.062 21.8544ZM190.415 20.6971L189.254 21.6465C189.653 22.1349 190.315 22.3213 190.91 22.1129L190.415 20.6971ZM241.914 29.5775L240.982 30.7532C241.535 31.1909 242.317 31.1849 242.863 30.7387L241.914 29.5775ZM332.39 85.2844L330.902 85.0938C330.828 85.6717 331.096 86.2402 331.588 86.5518L332.39 85.2844ZM277.47 190.118L278.194 188.804C277.515 188.43 276.664 188.635 276.229 189.275L277.47 190.118ZM186.212 199.792C185.808 200.516 186.068 201.429 186.791 201.833C187.515 202.236 188.428 201.977 188.832 201.253L186.212 199.792ZM182.573 210.431C183.099 209.792 183.008 208.846 182.369 208.32C181.729 207.793 180.784 207.884 180.257 208.524L182.573 210.431ZM172.82 216.021C172.184 216.552 172.099 217.498 172.63 218.134C173.162 218.77 174.108 218.855 174.743 218.323L172.82 216.021ZM165.563 224.608C166.288 224.209 166.553 223.296 166.153 222.571C165.754 221.845 164.841 221.581 164.116 221.98L165.563 224.608ZM154.427 226.122C153.636 226.37 153.196 227.212 153.444 228.002C153.692 228.793 154.533 229.233 155.324 228.985L154.427 226.122ZM144.412 231.221C145.236 231.138 145.837 230.402 145.754 229.578C145.671 228.754 144.935 228.153 144.111 228.237L144.412 231.221ZM134.461 228.318C133.635 228.249 132.91 228.863 132.841 229.688C132.772 230.514 133.385 231.239 134.21 231.308L134.461 228.318ZM125.076 229.76C125.878 229.967 126.696 229.484 126.903 228.682C127.11 227.88 126.627 227.062 125.825 226.855L125.076 229.76ZM117.555 223.964C116.799 223.627 115.912 223.966 115.574 224.723C115.237 225.479 115.576 226.366 116.333 226.704L117.555 223.964ZM108.217 222.251C108.909 222.707 109.839 222.516 110.295 221.824C110.752 221.133 110.561 220.203 109.869 219.746L108.217 222.251ZM102.951 214.348C102.34 213.788 101.391 213.83 100.831 214.441C100.272 215.052 100.314 216.001 100.925 216.561L102.951 214.348ZM94.6082 209.813C95.1266 210.459 96.0706 210.563 96.7169 210.044C97.3631 209.526 97.4668 208.582 96.9485 207.936L94.6082 209.813ZM91.9803 200.686C91.5643 199.969 90.6463 199.726 89.9299 200.142C89.2135 200.558 88.9699 201.476 89.3859 202.192L91.9803 200.686ZM85.3506 193.886C85.6569 194.655 86.5292 195.031 87.2989 194.725C88.0687 194.418 88.4444 193.546 88.1381 192.776L85.3506 193.886ZM81.25 189.659C80.5197 190.05 80.2448 190.959 80.6358 191.689C81.0269 192.42 81.936 192.695 82.6663 192.304L81.25 189.659ZM75.5783 195.49C76.3557 195.204 76.7539 194.341 76.4678 193.564C76.1815 192.786 75.3193 192.388 74.5419 192.674L75.5783 195.49ZM67.4817 194.722C66.6718 194.896 66.1561 195.693 66.33 196.503C66.5039 197.313 67.3015 197.829 68.1115 197.655L67.4817 194.722ZM60.4134 198.745C61.2398 198.687 61.8627 197.97 61.8048 197.144C61.7469 196.317 61.03 195.694 60.2036 195.752L60.4134 198.745ZM52.0787 195.692C51.2533 195.622 50.5272 196.235 50.4571 197.06C50.3869 197.885 50.9992 198.612 51.8246 198.682L52.0787 195.692ZM42.5629 197.088C43.3643 197.298 44.1841 196.819 44.3939 196.017C44.6037 195.216 44.1241 194.396 43.3227 194.186L42.5629 197.088ZM34.9472 191.212C34.1927 190.87 33.3037 191.204 32.9615 191.958C32.6192 192.713 32.9534 193.602 33.7078 193.944L34.9472 191.212ZM25.5069 189.367C26.1947 189.829 27.1266 189.646 27.5884 188.958C28.0503 188.27 27.8671 187.338 27.1794 186.877L25.5069 189.367ZM20.2106 181.334C19.6053 180.769 18.6561 180.801 18.0905 181.406C17.5249 182.011 17.557 182.96 18.1623 183.526L20.2106 181.334ZM11.8303 176.608C12.3407 177.26 13.2835 177.376 13.936 176.865C14.5885 176.355 14.7037 175.412 14.1933 174.76L11.8303 176.608ZM9.24979 167.338C8.84396 166.616 7.9295 166.359 7.20729 166.765C6.48507 167.171 6.22858 168.085 6.63441 168.808L9.24979 167.338ZM2.66841 160.32C2.96231 161.095 3.82845 161.484 4.60299 161.19C5.37753 160.897 5.76717 160.03 5.47327 159.256L2.66841 160.32ZM2.93064 150.701C2.75347 149.892 1.95382 149.379 1.14455 149.557C0.335293 149.734 -0.177124 150.533 3.94445e-05 151.343L2.93064 150.701ZM-1.33412 142.076C-1.27537 142.903 -0.55786 143.525 0.268481 143.466C1.09482 143.407 1.71708 142.69 1.65833 141.863L-1.33412 142.076ZM1.68496 132.562C1.74848 131.736 1.13038 131.015 0.304387 130.951C-0.521602 130.887 -1.24269 131.506 -1.30621 132.332L1.68496 132.562ZM0.253861 122.33C0.0623331 123.136 0.560447 123.945 1.36643 124.136C2.17241 124.328 2.98106 123.83 3.17258 123.024L0.253861 122.33ZM6.14182 113.844C6.45892 113.079 6.09555 112.201 5.33021 111.884C4.56487 111.567 3.68739 111.931 3.37029 112.696L6.14182 113.844ZM7.99057 103.681C7.55415 104.385 7.77119 105.309 8.47535 105.746C9.1795 106.182 10.1041 105.965 10.5405 105.261L7.99057 103.681ZM16.275 97.5132C16.8214 96.8904 16.7594 95.9427 16.1367 95.3963C15.514 94.85 14.5663 94.9119 14.0199 95.5346L16.275 97.5132ZM21.3279 88.504C20.6841 89.0253 20.5847 89.9698 21.106 90.6137C21.6273 91.2576 22.5718 91.3569 23.2157 90.8356L21.3279 88.504ZM27.4235 84.1704C27.3306 83.3472 26.5879 82.7552 25.7647 82.8482C24.9415 82.9411 24.3495 83.6838 24.4425 84.507L27.4235 84.1704ZM24.0745 79.5911C24.1053 80.4189 24.8013 81.0651 25.6292 81.0343C26.4571 81.0035 27.1032 80.3074 27.0724 79.4795L24.0745 79.5911ZM27.187 72.6559C27.2458 71.8296 26.6235 71.1121 25.7972 71.0533C24.9708 70.9946 24.2533 71.6168 24.1946 72.4432L27.187 72.6559ZM25.5287 63.1767C25.3516 63.986 25.864 64.7856 26.6733 64.9628C27.4825 65.14 28.2822 64.6275 28.4593 63.8183L25.5287 63.1767ZM31.002 55.2635C31.2959 54.489 30.9062 53.6229 30.1317 53.329C29.3571 53.0351 28.491 53.4247 28.1971 54.1992L31.002 55.2635ZM32.1631 45.7117C31.7573 46.4339 32.0138 47.3484 32.736 47.7542C33.4582 48.1601 34.3727 47.9036 34.7785 47.1814L32.1631 45.7117ZM39.722 39.7599C40.2324 39.1073 40.1172 38.1646 39.4647 37.6542C38.8121 37.1438 37.8694 37.259 37.359 37.9115L39.722 39.7599ZM43.691 30.9933C43.0857 31.5589 43.0536 32.5081 43.6192 33.1134C44.1848 33.7187 45.134 33.7509 45.7393 33.1852L43.691 30.9933ZM52.7081 27.6428C53.3958 27.181 53.579 26.2491 53.1171 25.5613C52.6553 24.8736 51.7234 24.6904 51.0356 25.1522L52.7081 27.6428ZM59.2365 20.5755C58.4821 20.9177 58.1479 21.8068 58.4902 22.5612C58.8324 23.3156 59.7214 23.6498 60.4759 23.3076L59.2365 20.5755ZM68.8514 20.3332C69.6528 20.1234 70.1324 19.3036 69.9226 18.5022C69.7128 17.7008 68.893 17.2212 68.0916 17.431L68.8514 20.3332ZM77.3533 15.8377C76.5279 15.9079 75.9156 16.6339 75.9858 17.4594C76.0559 18.2848 76.782 18.8971 77.6074 18.8269L77.3533 15.8377ZM87.5566 18.9272C88.3804 19.0141 89.1187 18.4167 89.2056 17.5928C89.2925 16.7689 88.6951 16.0306 87.8712 15.9437L87.5566 18.9272ZM99.2463 18.382C98.4592 18.1237 97.6117 18.5523 97.3533 19.3394C97.095 20.1266 97.5237 20.9741 98.3108 21.2324L99.2463 18.382ZM107.878 19.6238C108.431 19.0072 108.38 18.0589 107.764 17.5055C107.147 16.9522 106.199 17.0034 105.645 17.62L107.878 19.6238ZM111.86 11.626C111.223 12.1564 111.137 13.1022 111.668 13.7386C112.198 14.3751 113.144 14.4611 113.78 13.9308L111.86 11.626ZM120.446 9.16615C121.154 8.73618 121.38 7.81358 120.95 7.10548C120.52 6.39737 119.597 6.17189 118.889 6.60186L120.446 9.16615ZM126.6 2.69118C125.835 3.0079 125.471 3.88521 125.788 4.6507C126.104 5.41619 126.982 5.77999 127.747 5.46327L126.6 2.69118ZM135.528 2.93545C136.334 2.74213 136.83 1.93237 136.637 1.12682C136.443 0.321266 135.633 -0.175042 134.828 0.0182847L135.528 2.93545ZM143.373 -1.33164C142.548 -1.26712 141.93 -0.545288 141.995 0.280623C142.059 1.10653 142.781 1.72376 143.607 1.65925L143.373 -1.33164ZM153.65 1.83791C154.473 1.93196 155.217 1.34097 155.311 0.517896C155.405 -0.305175 154.814 -1.04865 153.991 -1.1427L153.65 1.83791ZM166.247 1.70812C165.467 1.42946 164.608 1.836 164.33 2.61616C164.051 3.39631 164.458 4.25465 165.238 4.53331L166.247 1.70812ZM175.929 9.77315C176.628 10.218 177.555 10.0121 178 9.31325C178.445 8.6144 178.239 7.68724 177.54 7.24238L175.929 9.77315ZM187.35 15.0932C186.762 14.5097 185.812 14.5135 185.229 15.1016C184.646 15.6897 184.649 16.6395 185.237 17.2229L187.35 15.0932ZM195.108 20.8393C195.91 20.6323 196.393 19.8143 196.186 19.0121C195.979 18.21 195.161 17.7274 194.359 17.9344L195.108 20.8393ZM203.498 16.3847C202.673 16.4538 202.06 17.1791 202.129 18.0047C202.198 18.8302 202.923 19.4434 203.749 19.3742L203.498 16.3847ZM212.563 19.3782C213.388 19.448 214.114 18.8355 214.184 18.01C214.254 17.1846 213.641 16.4587 212.816 16.3888L212.563 19.3782ZM222.05 17.9716C221.248 17.7625 220.429 18.2428 220.22 19.0444C220.011 19.846 220.491 20.6654 221.293 20.8745L222.05 17.9716ZM229.645 23.8297C230.4 24.1709 231.288 23.8355 231.629 23.0806C231.971 22.3257 231.635 21.4371 230.88 21.096L229.645 23.8297ZM239.062 25.6443C238.373 25.1837 237.442 25.3687 236.981 26.0573C236.521 26.7459 236.706 27.6775 237.394 28.138L239.062 25.6443ZM246.499 28.0069C247.181 27.537 247.353 26.603 246.883 25.9207C246.413 25.2385 245.479 25.0664 244.797 25.5363L246.499 28.0069ZM253.119 20.779C252.368 21.1278 252.041 22.0197 252.39 22.7711C252.739 23.5225 253.631 23.8489 254.382 23.5002L253.119 20.779ZM262.911 20.4038C263.711 20.1897 264.186 19.3674 263.972 18.5671C263.758 17.7668 262.936 17.2916 262.136 17.5057L262.911 20.4038ZM271.585 15.8458C270.76 15.9174 270.149 16.6444 270.221 17.4698C270.292 18.2951 271.019 18.9061 271.845 18.8346L271.585 15.8458ZM280.83 18.8269C281.655 18.8971 282.381 18.2848 282.451 17.4594C282.522 16.6339 281.909 15.9079 281.084 15.8377L280.83 18.8269ZM290.346 17.431C289.544 17.2212 288.724 17.7008 288.515 18.5022C288.305 19.3036 288.784 20.1234 289.586 20.3332L290.346 17.431ZM297.961 23.3076C298.716 23.6498 299.605 23.3156 299.947 22.5612C300.289 21.8068 299.955 20.9177 299.201 20.5755L297.961 23.3076ZM307.402 25.1522C306.714 24.6904 305.782 24.8736 305.32 25.5613C304.858 26.2491 305.041 27.181 305.729 27.6428L307.402 25.1522ZM312.698 33.1852C313.303 33.7509 314.252 33.7187 314.818 33.1134C315.384 32.5081 315.352 31.5589 314.746 30.9933L312.698 33.1852ZM321.078 37.9115C320.568 37.259 319.625 37.1438 318.973 37.6542C318.32 38.1646 318.205 39.1073 318.715 39.7599L321.078 37.9115ZM323.659 47.1814C324.065 47.9036 324.979 48.16 325.701 47.7542C326.423 47.3484 326.68 46.4339 326.274 45.7117L323.659 47.1814ZM330.24 54.1992C329.946 53.4247 329.08 53.035 328.306 53.3289C327.531 53.6228 327.141 54.489 327.435 55.2635L330.24 54.1992ZM329.978 63.8183C330.155 64.6275 330.955 65.1399 331.764 64.9628C332.573 64.7856 333.086 63.986 332.909 63.1767L329.978 63.8183ZM334.243 72.4431C334.184 71.6168 333.466 70.9945 332.64 71.0533C331.814 71.112 331.191 71.8296 331.25 72.6559L334.243 72.4431ZM331.377 79.1241C331.351 79.9521 332.001 80.6446 332.829 80.6707C333.657 80.6968 334.349 80.0468 334.376 79.2188L331.377 79.1241ZM334.111 83.395C334.189 82.5704 333.585 81.8379 332.76 81.7591C331.935 81.6803 331.203 82.2849 331.124 83.1096L334.111 83.395ZM335.645 89.3844C336.302 89.8887 337.243 89.7647 337.748 89.1075C338.252 88.4503 338.128 87.5086 337.471 87.0043L335.645 89.3844ZM345.146 94.0504C344.587 93.4391 343.638 93.3968 343.026 93.9559C342.415 94.515 342.373 95.4638 342.932 96.0751L345.146 94.0504ZM348.966 103.926C349.413 104.623 350.341 104.826 351.039 104.378C351.736 103.931 351.938 103.003 351.491 102.306L348.966 103.926ZM356.361 111.503C356.035 110.742 355.154 110.388 354.392 110.713C353.63 111.039 353.276 111.92 353.602 112.682L356.361 111.503ZM356.734 122.085C356.931 122.89 357.743 123.383 358.548 123.186C359.352 122.989 359.845 122.178 359.649 121.373L356.734 122.085ZM361.295 131.64C361.23 130.815 360.508 130.198 359.682 130.263C358.856 130.329 358.239 131.051 358.305 131.877L361.295 131.64ZM358.342 141.311C358.283 142.137 358.905 142.855 359.732 142.913C360.558 142.972 361.275 142.35 361.334 141.523L358.342 141.311ZM360 150.79C360.177 149.981 359.665 149.181 358.855 149.004C358.046 148.827 357.247 149.339 357.069 150.148L360 150.79ZM354.527 158.703C354.233 159.478 354.622 160.344 355.397 160.638C356.172 160.932 357.038 160.542 357.332 159.767L354.527 158.703ZM353.366 168.255C353.771 167.533 353.515 166.618 352.793 166.212C352.07 165.807 351.156 166.063 350.75 166.785L353.366 168.255ZM345.807 174.207C345.296 174.859 345.412 175.802 346.064 176.312C346.717 176.823 347.659 176.708 348.17 176.055L345.807 174.207ZM341.838 182.973C342.443 182.408 342.475 181.458 341.91 180.853C341.344 180.248 340.395 180.216 339.789 180.781L341.838 182.973ZM332.821 186.324C332.133 186.786 331.95 187.718 332.412 188.405C332.873 189.093 333.805 189.276 334.493 188.814L332.821 186.324ZM326.292 193.391C327.047 193.049 327.381 192.16 327.039 191.405C326.696 190.651 325.807 190.317 325.053 190.659L326.292 193.391ZM316.677 193.633C315.876 193.843 315.396 194.663 315.606 195.464C315.816 196.266 316.636 196.745 317.437 196.536L316.677 193.633ZM308.175 198.129C309.001 198.059 309.613 197.333 309.543 196.507C309.473 195.682 308.747 195.07 307.921 195.14L308.175 198.129ZM296.894 194.914C296.072 194.81 295.321 195.392 295.217 196.214C295.113 197.036 295.695 197.786 296.517 197.891L296.894 194.914ZM283.045 194.409C283.815 194.716 284.687 194.341 284.994 193.571C285.301 192.802 284.926 191.929 284.156 191.623L283.045 194.409ZM273.611 192.834C273.095 193.482 273.203 194.426 273.851 194.942C274.499 195.457 275.443 195.35 275.959 194.702L273.611 192.834ZM269.637 201.503C270.246 200.942 270.285 199.993 269.724 199.384C269.162 198.774 268.213 198.736 267.604 199.297L269.637 201.503ZM260.669 204.741C259.979 205.199 259.79 206.13 260.248 206.82C260.706 207.511 261.637 207.699 262.328 207.241L260.669 204.741ZM254.185 211.733C254.941 211.394 255.279 210.506 254.94 209.75C254.601 208.994 253.713 208.657 252.957 208.996L254.185 211.733ZM244.654 211.913C243.852 212.121 243.37 212.939 243.578 213.741C243.786 214.543 244.604 215.025 245.406 214.817L244.654 211.913ZM236.232 216.379C237.057 216.31 237.67 215.584 237.601 214.759C237.531 213.933 236.806 213.32 235.98 213.39L236.232 216.379ZM225.832 213.259C225.008 213.168 224.267 213.762 224.176 214.586C224.086 215.409 224.68 216.15 225.503 216.241L225.832 213.259ZM213.646 213.582C214.43 213.851 215.283 213.434 215.552 212.651C215.822 211.868 215.405 211.014 214.622 210.745L213.646 213.582ZM204.222 205.845C203.514 205.414 202.591 205.637 202.16 206.344C201.728 207.051 201.952 207.974 202.659 208.406L204.222 205.845ZM193.019 201.036C193.621 201.605 194.571 201.577 195.139 200.974C195.707 200.371 195.679 199.422 195.077 198.854L193.019 201.036ZM188.582 195.059C187.859 196.679 187.067 198.258 186.212 199.792L188.832 201.253C189.731 199.642 190.562 197.984 191.321 196.283L188.582 195.059ZM180.257 208.524C178.002 211.261 175.512 213.772 172.82 216.021L174.743 218.323C177.58 215.954 180.201 213.31 182.573 210.431L180.257 208.524ZM164.116 221.98C161.043 223.672 157.802 225.065 154.427 226.122L155.324 228.985C158.893 227.867 162.318 226.395 165.563 224.608L164.116 221.98ZM144.111 228.237C142.377 228.412 140.62 228.501 138.842 228.501V231.501C140.72 231.501 142.579 231.406 144.412 231.221L144.111 228.237ZM138.842 228.501C137.367 228.501 135.906 228.439 134.461 228.318L134.21 231.308C135.739 231.436 137.283 231.501 138.842 231.501V228.501ZM125.825 226.855C122.976 226.121 120.213 225.15 117.555 223.964L116.333 226.704C119.141 227.957 122.062 228.983 125.076 229.76L125.825 226.855ZM109.869 219.746C107.43 218.138 105.117 216.331 102.951 214.348L100.925 216.561C103.207 218.649 105.644 220.554 108.217 222.251L109.869 219.746ZM96.9485 207.936C95.1256 205.663 93.4632 203.24 91.9803 200.686L89.3859 202.192C90.9439 204.875 92.6912 207.423 94.6082 209.813L96.9485 207.936ZM88.1381 192.776C87.5983 191.42 87.1053 190.037 86.6612 188.63L83.8004 189.534C84.2665 191.01 84.784 192.461 85.3506 193.886L88.1381 192.776ZM84.4342 187.811C83.3941 188.463 82.3322 189.079 81.25 189.659L82.6663 192.304C83.809 191.692 84.9299 191.041 86.0274 190.353L84.4342 187.811ZM74.5419 192.674C72.2531 193.517 69.896 194.203 67.4817 194.722L68.1115 197.655C70.6655 197.107 73.1584 196.381 75.5783 195.49L74.5419 192.674ZM60.2036 195.752C58.9886 195.837 57.7626 195.881 56.5268 195.881V198.881C57.8326 198.881 59.1286 198.835 60.4134 198.745L60.2036 195.752ZM56.5268 195.881C55.0291 195.881 53.5456 195.817 52.0787 195.692L51.8246 198.682C53.3759 198.814 54.9441 198.881 56.5268 198.881V195.881ZM43.3227 194.186C40.4349 193.43 37.6363 192.432 34.9472 191.212L33.7078 193.944C36.5493 195.233 39.5082 196.289 42.5629 197.088L43.3227 194.186ZM27.1794 186.877C24.7185 185.224 22.3887 183.369 20.2106 181.334L18.1623 183.526C20.4558 185.669 22.9112 187.624 25.5069 189.367L27.1794 186.877ZM14.1933 174.76C12.3725 172.432 10.7181 169.951 9.24979 167.338L6.63441 168.808C8.1769 171.553 9.91562 174.16 11.8303 176.608L14.1933 174.76ZM5.47327 159.256C4.42845 156.502 3.57502 153.645 2.93064 150.701L3.94445e-05 151.343C0.676022 154.43 1.57156 157.43 2.66841 160.32L5.47327 159.256ZM1.65833 141.863C1.55342 140.388 1.5 138.897 1.5 137.393H-1.5C-1.5 138.968 -1.44405 140.53 -1.33412 142.076L1.65833 141.863ZM1.5 137.393C1.5 135.766 1.56247 134.154 1.68496 132.562L-1.30621 132.332C-1.43458 134.001 -1.5 135.689 -1.5 137.393H1.5ZM3.17258 123.024C3.92619 119.853 4.92346 116.785 6.14182 113.844L3.37029 112.696C2.09109 115.783 1.04451 119.003 0.253861 122.33L3.17258 123.024ZM10.5405 105.261C12.2476 102.507 14.1675 99.9152 16.275 97.5132L14.0199 95.5346C11.8027 98.0617 9.78433 100.786 7.99057 103.681L10.5405 105.261ZM23.2157 90.8356C24.4656 89.8237 25.7573 88.8674 27.0874 87.9704L25.4099 85.4832C24.0069 86.4294 22.6451 87.4376 21.3279 88.504L23.2157 90.8356ZM27.7317 86.502C27.6147 85.7298 27.5118 84.9525 27.4235 84.1704L24.4425 84.507C24.535 85.3269 24.6428 86.1418 24.7656 86.9515L27.7317 86.502ZM27.0724 79.4795C27.0434 78.6992 27.0287 77.9149 27.0287 77.1269H24.0287C24.0287 77.9521 24.0441 78.7736 24.0745 79.5911L27.0724 79.4795ZM27.0287 77.1269C27.0287 75.6224 27.0821 74.1314 27.187 72.6559L24.1946 72.4432C24.0846 73.9894 24.0287 75.5513 24.0287 77.1269H27.0287ZM28.4593 63.8183C29.1037 60.8748 29.9572 58.0171 31.002 55.2635L28.1971 54.1992C27.1003 57.0899 26.2047 60.0889 25.5287 63.1767L28.4593 63.8183ZM34.7785 47.1814C36.2468 44.5683 37.9012 42.0876 39.722 39.7599L37.359 37.9115C35.4443 40.3593 33.7056 42.9667 32.1631 45.7117L34.7785 47.1814ZM45.7393 33.1852C47.9174 31.1499 50.2472 29.2953 52.7081 27.6428L51.0356 25.1522C48.4399 26.8953 45.9845 28.8501 43.691 30.9933L45.7393 33.1852ZM60.4759 23.3076C63.165 22.0877 65.9636 21.0892 68.8514 20.3332L68.0916 17.431C65.0369 18.2307 62.078 19.2865 59.2365 20.5755L60.4759 23.3076ZM77.6074 18.8269C79.0743 18.7022 80.5578 18.6387 82.0555 18.6387V15.6387C80.4728 15.6387 78.9046 15.7058 77.3533 15.8377L77.6074 18.8269ZM82.0555 18.6387C83.9126 18.6387 85.7477 18.7364 87.5566 18.9272L87.8712 15.9437C85.9581 15.7419 84.0179 15.6387 82.0555 15.6387V18.6387ZM98.3108 21.2324C100.062 21.8071 101.776 22.4722 103.447 23.2228L104.676 20.486C102.91 19.6928 101.098 18.9897 99.2463 18.382L98.3108 21.2324ZM105.246 22.7746C106.088 21.6908 106.966 20.6398 107.878 19.6238L105.645 17.62C104.686 18.689 103.763 19.7945 102.877 20.9342L105.246 22.7746ZM113.78 13.9308C115.885 12.177 118.112 10.5832 120.446 9.16615L118.889 6.60186C116.426 8.0973 114.078 9.77814 111.86 11.626L113.78 13.9308ZM127.747 5.46327C130.257 4.42483 132.856 3.57674 135.528 2.93545L134.828 0.0182847C132.001 0.696679 129.253 1.59359 126.6 2.69118L127.747 5.46327ZM143.607 1.65925C144.958 1.55372 146.323 1.5 147.699 1.5V-1.5C146.245 -1.5 144.802 -1.44324 143.373 -1.33164L143.607 1.65925ZM147.699 1.5C149.711 1.5 151.696 1.61461 153.65 1.83791L153.991 -1.1427C151.924 -1.37888 149.825 -1.5 147.699 -1.5V1.5ZM165.238 4.53331C168.998 5.87646 172.578 7.64027 175.929 9.77315L177.54 7.24238C174.005 4.9919 170.223 3.1283 166.247 1.70812L165.238 4.53331ZM185.237 17.2229C186.647 18.6215 187.988 20.0982 189.254 21.6465L191.576 19.7478C190.245 18.1194 188.834 16.5656 187.35 15.0932L185.237 17.2229ZM190.91 22.1129C192.286 21.6314 193.686 21.206 195.108 20.8393L194.359 17.9344C192.855 18.3222 191.374 18.7721 189.919 19.2814L190.91 22.1129ZM203.749 19.3742C205.195 19.2531 206.657 19.1914 208.133 19.1914V16.1914C206.573 16.1914 205.028 16.2566 203.498 16.3847L203.749 19.3742ZM208.133 19.1914C209.624 19.1914 211.102 19.2545 212.563 19.3782L212.816 16.3888C211.271 16.258 209.709 16.1914 208.133 16.1914V19.1914ZM221.293 20.8745C224.172 21.6255 226.963 22.6176 229.645 23.8297L230.88 21.096C228.046 19.8151 225.096 18.766 222.05 17.9716L221.293 20.8745ZM237.394 28.138C238.624 28.9602 239.82 29.8329 240.982 30.7532L242.845 28.4017C241.621 27.4317 240.359 26.5116 239.062 25.6443L237.394 28.138ZM242.863 30.7387C244.039 29.7777 245.251 28.8661 246.499 28.0069L244.797 25.5363C243.482 26.4425 242.203 27.4035 240.964 28.4162L242.863 30.7387ZM254.382 23.5002C257.117 22.2308 259.967 21.1911 262.911 20.4038L262.136 17.5057C259.022 18.3385 256.009 19.4378 253.119 20.779L254.382 23.5002ZM271.845 18.8346C273.341 18.7048 274.854 18.6387 276.382 18.6387V15.6387C274.767 15.6387 273.167 15.7086 271.585 15.8458L271.845 18.8346ZM276.382 18.6387C277.879 18.6387 279.363 18.7022 280.83 18.8269L281.084 15.8377C279.533 15.7058 277.964 15.6387 276.382 15.6387V18.6387ZM289.586 20.3332C292.474 21.0892 295.272 22.0877 297.961 23.3076L299.201 20.5755C296.359 19.2865 293.4 18.2307 290.346 17.431L289.586 20.3332ZM305.729 27.6428C308.19 29.2953 310.52 31.1499 312.698 33.1852L314.746 30.9933C312.453 28.8501 309.997 26.8953 307.402 25.1522L305.729 27.6428ZM318.715 39.7599C320.536 42.0876 322.19 44.5683 323.659 47.1814L326.274 45.7117C324.732 42.9667 322.993 40.3593 321.078 37.9115L318.715 39.7599ZM327.435 55.2635C328.48 58.0171 329.334 60.8748 329.978 63.8183L332.909 63.1767C332.233 60.0889 331.337 57.0899 330.24 54.1992L327.435 55.2635ZM331.25 72.6559C331.355 74.1314 331.409 75.6224 331.409 77.1269H334.409C334.409 75.5513 334.353 73.9894 334.243 72.4431L331.25 72.6559ZM331.409 77.1269C331.409 77.7953 331.398 78.4612 331.377 79.1241L334.376 79.2188C334.397 78.5243 334.409 77.8269 334.409 77.1269H331.409ZM331.124 83.1096C331.061 83.7744 330.987 84.4359 330.902 85.0938L333.878 85.4751C333.966 84.7852 334.044 84.0918 334.111 83.395L331.124 83.1096ZM331.588 86.5518C332.981 87.4336 334.334 88.379 335.645 89.3844L337.471 87.0043C336.09 85.9445 334.662 84.9474 333.193 84.0171L331.588 86.5518ZM342.932 96.0751C345.148 98.4977 347.168 101.124 348.966 103.926L351.491 102.306C349.602 99.3614 347.477 96.5996 345.146 94.0504L342.932 96.0751ZM353.602 112.682C354.886 115.689 355.939 118.832 356.734 122.085L359.649 121.373C358.814 117.959 357.709 114.66 356.361 111.503L353.602 112.682ZM358.305 131.877C358.434 133.513 358.5 135.168 358.5 136.84H361.5C361.5 135.089 361.431 133.355 361.295 131.64L358.305 131.877ZM358.5 136.84C358.5 138.344 358.447 139.835 358.342 141.311L361.334 141.523C361.444 139.977 361.5 138.415 361.5 136.84H358.5ZM357.069 150.148C356.425 153.092 355.572 155.95 354.527 158.703L357.332 159.767C358.428 156.877 359.324 153.878 360 150.79L357.069 150.148ZM350.75 166.785C349.282 169.398 347.628 171.879 345.807 174.207L348.17 176.055C350.084 173.607 351.823 171 353.366 168.255L350.75 166.785ZM339.789 180.781C337.611 182.817 335.281 184.671 332.821 186.324L334.493 188.814C337.089 187.071 339.544 185.117 341.838 182.973L339.789 180.781ZM325.053 190.659C322.364 191.879 319.565 192.877 316.677 193.633L317.437 196.536C320.492 195.736 323.451 194.68 326.292 193.391L325.053 190.659ZM307.921 195.14C306.454 195.264 304.971 195.328 303.473 195.328V198.328C305.056 198.328 306.624 198.261 308.175 198.129L307.921 195.14ZM303.473 195.328C301.246 195.328 299.05 195.187 296.894 194.914L296.517 197.891C298.798 198.179 301.12 198.328 303.473 198.328V195.328ZM284.156 191.623C282.108 190.806 280.118 189.864 278.194 188.804L276.746 191.432C278.778 192.551 280.881 193.547 283.045 194.409L284.156 191.623ZM276.229 189.275C275.399 190.498 274.525 191.685 273.611 192.834L275.959 194.702C276.92 193.494 277.838 192.246 278.711 190.961L276.229 189.275ZM267.604 199.297C265.434 201.297 263.115 203.118 260.669 204.741L262.328 207.241C264.908 205.529 267.351 203.609 269.637 201.503L267.604 199.297ZM252.957 208.996C250.29 210.192 247.515 211.172 244.654 211.913L245.406 214.817C248.433 214.033 251.366 212.997 254.185 211.733L252.957 208.996ZM235.98 213.39C234.528 213.512 233.06 213.574 231.578 213.574V216.574C233.144 216.574 234.696 216.508 236.232 216.379L235.98 213.39ZM231.578 213.574C229.637 213.574 227.72 213.467 225.832 213.259L225.503 216.241C227.5 216.461 229.527 216.574 231.578 216.574V213.574ZM214.622 210.745C210.975 209.49 207.493 207.842 204.222 205.845L202.659 208.406C206.112 210.513 209.79 212.255 213.646 213.582L214.622 210.745ZM195.077 198.854C193.681 197.538 192.349 196.148 191.086 194.689L188.818 196.653C190.147 198.188 191.549 199.651 193.019 201.036L195.077 198.854ZM189.952 195.671L192.219 193.707C191.548 192.932 190.527 192.553 189.513 192.703C188.498 192.854 187.631 193.511 187.212 194.448L189.952 195.671ZM85.2308 189.082L88.0916 188.179C87.8121 187.293 87.1382 186.587 86.2668 186.267C85.3953 185.946 84.4244 186.047 83.6376 186.54L85.2308 189.082ZM26.2486 86.7268L27.9261 89.214C28.8867 88.566 29.3884 87.4228 29.2148 86.2772L26.2486 86.7268ZM104.062 21.8544L102.833 24.5912C104.096 25.158 105.582 24.7877 106.431 23.6948L104.062 21.8544ZM190.415 20.6971L188.092 22.5958C188.891 23.5727 190.215 23.9455 191.406 23.5287L190.415 20.6971ZM241.914 29.5775L240.051 31.929C241.156 32.8044 242.721 32.7923 243.813 31.9L241.914 29.5775ZM332.39 85.2844L329.415 84.9032C329.267 86.059 329.801 87.196 330.786 87.8192L332.39 85.2844ZM277.47 190.118L278.917 187.49C277.561 186.743 275.858 187.151 274.988 188.433L277.47 190.118ZM184.902 199.062C184.095 200.509 184.614 202.336 186.061 203.143C187.508 203.95 189.335 203.431 190.142 201.984L184.902 199.062ZM183.73 211.385C184.784 210.106 184.601 208.215 183.322 207.162C182.044 206.108 180.153 206.291 179.099 207.57L183.73 211.385ZM171.858 214.87C170.587 215.933 170.417 217.824 171.479 219.096C172.542 220.367 174.434 220.537 175.705 219.475L171.858 214.87ZM166.286 225.922C167.738 225.123 168.266 223.299 167.467 221.847C166.668 220.396 164.844 219.867 163.392 220.666L166.286 225.922ZM153.978 224.691C152.397 225.186 151.517 226.87 152.013 228.451C152.508 230.032 154.191 230.912 155.772 230.416L153.978 224.691ZM144.563 232.714C146.211 232.547 147.413 231.076 147.246 229.428C147.08 227.779 145.609 226.578 143.96 226.744L144.563 232.714ZM134.586 226.824C132.935 226.685 131.484 227.912 131.346 229.563C131.208 231.214 132.434 232.665 134.085 232.803L134.586 226.824ZM124.702 231.213C126.306 231.626 127.942 230.661 128.356 229.057C128.769 227.452 127.804 225.816 126.2 225.403L124.702 231.213ZM118.167 222.594C116.654 221.919 114.88 222.598 114.205 224.111C113.529 225.624 114.208 227.398 115.721 228.073L118.167 222.594ZM107.391 223.503C108.774 224.415 110.635 224.033 111.548 222.65C112.46 221.267 112.078 219.407 110.695 218.494L107.391 223.503ZM103.964 213.241C102.742 212.123 100.844 212.206 99.7251 213.428C98.6063 214.651 98.6901 216.548 99.9122 217.667L103.964 213.241ZM93.4381 210.751C94.4748 212.044 96.3629 212.251 97.6554 211.214C98.9479 210.178 99.1553 208.29 98.1186 206.997L93.4381 210.751ZM93.2774 199.933C92.4455 198.5 90.6095 198.013 89.1767 198.845C87.7438 199.677 87.2568 201.513 88.0887 202.945L93.2774 199.933ZM83.9569 194.44C84.5695 195.98 86.3141 196.731 87.8535 196.118C89.393 195.506 90.1444 193.761 89.5318 192.222L83.9569 194.44ZM80.5419 188.337C79.0813 189.119 78.5313 190.937 79.3135 192.398C80.0957 193.858 81.9138 194.408 83.3744 193.626L80.5419 188.337ZM76.0965 196.897C77.6514 196.325 78.4478 194.601 77.8754 193.046C77.303 191.491 75.5785 190.694 74.0237 191.267L76.0965 196.897ZM67.1668 193.255C65.5469 193.603 64.5156 195.198 64.8634 196.818C65.2113 198.438 66.8064 199.469 68.4264 199.122L67.1668 193.255ZM60.5183 200.241C62.1711 200.125 63.417 198.692 63.3011 197.039C63.1853 195.386 61.7515 194.14 60.0987 194.256L60.5183 200.241ZM52.2058 194.198C50.5549 194.058 49.1028 195.282 48.9625 196.933C48.8221 198.584 50.0467 200.036 51.6976 200.176L52.2058 194.198ZM42.183 198.539C43.7859 198.959 45.4254 198 45.845 196.397C46.2646 194.794 45.3054 193.155 43.7025 192.735L42.183 198.539ZM35.5668 189.846C34.058 189.161 32.2799 189.83 31.5954 191.339C30.911 192.847 31.5793 194.625 33.0882 195.31L35.5668 189.846ZM24.6707 190.612C26.0462 191.536 27.9101 191.17 28.8337 189.794C29.7574 188.419 29.3911 186.555 28.0156 185.631L24.6707 190.612ZM21.2347 180.238C20.0242 179.107 18.1258 179.171 16.9945 180.382C15.8633 181.592 15.9276 183.491 17.1382 184.622L21.2347 180.238ZM10.6488 177.532C11.6696 178.837 13.5551 179.067 14.8601 178.047C16.1652 177.026 16.3956 175.14 15.3748 173.835L10.6488 177.532ZM10.5575 166.603C9.74582 165.159 7.9169 164.646 6.47247 165.457C5.02804 166.269 4.51507 168.098 5.32672 169.542L10.5575 166.603ZM1.26598 160.852C1.85377 162.401 3.58606 163.181 5.13514 162.593C6.68422 162.005 7.4635 160.273 6.8757 158.724L1.26598 160.852ZM4.39593 150.38C4.04161 148.762 2.44229 147.737 0.823771 148.091C-0.794752 148.446 -1.81959 150.045 -1.46526 151.663L4.39593 150.38ZM-2.83034 142.183C-2.71284 143.835 -1.27782 145.08 0.37486 144.962C2.02754 144.845 3.27205 143.41 3.15455 141.757L-2.83034 142.183ZM3.18054 132.677C3.30758 131.025 2.07138 129.582 0.419399 129.455C-1.23258 129.328 -2.67476 130.565 -2.80179 132.217L3.18054 132.677ZM-1.2055 121.984C-1.58856 123.595 -0.592329 125.213 1.01964 125.596C2.6316 125.979 4.24889 124.983 4.63194 123.371L-1.2055 121.984ZM7.52759 114.418C8.16178 112.888 7.43504 111.133 5.90436 110.499C4.37369 109.864 2.61872 110.591 1.98452 112.122L7.52759 114.418ZM6.71559 102.89C5.84275 104.299 6.27684 106.148 7.68514 107.021C9.09345 107.894 10.9427 107.459 11.8155 106.051L6.71559 102.89ZM17.4025 98.5024C18.4953 97.257 18.3714 95.3615 17.126 94.2688C15.8805 93.1761 13.9851 93.2999 12.8924 94.5454L17.4025 98.5024ZM20.3841 87.3382C19.0963 88.3808 18.8976 90.2699 19.9402 91.5576C20.9828 92.8453 22.8718 93.044 24.1595 92.0014L20.3841 87.3382ZM28.9141 84.0021C28.7282 82.3557 27.2428 81.1718 25.5964 81.3576C23.95 81.5435 22.7661 83.0289 22.9519 84.6753L28.9141 84.0021ZM22.5755 79.6469C22.6371 81.3026 24.0293 82.5948 25.685 82.5332C27.3407 82.4716 28.633 81.0795 28.5714 79.4238L22.5755 79.6469ZM28.6832 72.7623C28.8008 71.1096 27.5562 69.6746 25.9036 69.5571C24.2509 69.4396 22.8159 70.6841 22.6984 72.3368L28.6832 72.7623ZM24.0634 62.8559C23.7091 64.4745 24.7339 66.0738 26.3525 66.4281C27.971 66.7824 29.5703 65.7576 29.9246 64.1391L24.0634 62.8559ZM32.4044 55.7957C32.9922 54.2466 32.2129 52.5143 30.6638 51.9265C29.1148 51.3387 27.3825 52.118 26.7947 53.6671L32.4044 55.7957ZM30.8554 44.9769C30.0438 46.4214 30.5567 48.2503 32.0012 49.0619C33.4456 49.8736 35.2745 49.3606 36.0862 47.9162L30.8554 44.9769ZM40.9035 40.684C41.9243 39.379 41.6939 37.4935 40.3888 36.4727C39.0838 35.4519 37.1983 35.6823 36.1775 36.9874L40.9035 40.684ZM42.6669 29.8974C41.4563 31.0286 41.392 32.927 42.5232 34.1376C43.6545 35.3481 45.5529 35.4124 46.7634 34.2812L42.6669 29.8974ZM53.5443 28.8881C54.9198 27.9645 55.2861 26.1006 54.3624 24.7251C53.4388 23.3496 51.5749 22.9833 50.1994 23.9069L53.5443 28.8881ZM58.6169 19.2095C57.108 19.894 56.4397 21.672 57.1241 23.1809C57.8086 24.6897 59.5867 25.358 61.0955 24.6736L58.6169 19.2095ZM69.2312 21.7843C70.8341 21.3647 71.7933 19.7252 71.3737 18.1223C70.9541 16.5195 69.3146 15.5603 67.7117 15.9799L69.2312 21.7843ZM77.2263 14.3431C75.5754 14.4834 74.3508 15.9355 74.4912 17.5864C74.6315 19.2373 76.0836 20.4619 77.7345 20.3215L77.2263 14.3431ZM87.3992 20.4189C89.047 20.5927 90.5236 19.3979 90.6974 17.7501C90.8712 16.1024 89.6763 14.6258 88.0286 14.452L87.3992 20.4189ZM99.7141 16.9568C98.1398 16.4401 96.4448 17.2975 95.9281 18.8717C95.4115 20.4459 96.2688 22.1409 97.843 22.6576L99.7141 16.9568ZM108.994 20.6257C110.101 19.3926 109.999 17.4959 108.766 16.3892C107.533 15.2825 105.636 15.385 104.529 16.6181L108.994 20.6257ZM110.9 10.4737C109.627 11.5343 109.455 13.426 110.515 14.6989C111.576 15.9717 113.468 16.1438 114.74 15.0832L110.9 10.4737ZM121.225 10.4483C122.641 9.58835 123.092 7.74316 122.232 6.32695C121.372 4.91073 119.527 4.45978 118.111 5.31972L121.225 10.4483ZM126.027 1.30513C124.496 1.93858 123.768 3.6932 124.402 5.22418C125.035 6.75516 126.79 7.48276 128.321 6.84931L126.027 1.30513ZM135.878 4.39404C137.489 4.00738 138.482 2.38788 138.095 0.776771C137.708 -0.834336 136.089 -1.82695 134.478 -1.4403L135.878 4.39404ZM143.257 -2.82709C141.605 -2.69805 140.37 -1.25438 140.499 0.397444C140.628 2.04927 142.072 3.28373 143.724 3.15469L143.257 -2.82709ZM153.48 3.32821C155.126 3.51631 156.613 2.33433 156.801 0.688187C156.989 -0.957956 155.807 -2.4449 154.161 -2.633L153.48 3.32821ZM166.751 0.295526C165.191 -0.261792 163.474 0.551293 162.917 2.1116C162.36 3.67191 163.173 5.38859 164.733 5.9459L166.751 0.295526ZM175.124 11.0385C176.521 11.9282 178.376 11.5164 179.265 10.1187C180.155 8.72104 179.743 6.86672 178.346 5.977L175.124 11.0385ZM188.407 14.0283C187.231 12.8614 185.331 12.869 184.164 14.0452C182.997 15.2214 183.005 17.1209 184.181 18.2878L188.407 14.0283ZM195.483 22.2917C197.087 21.8778 198.052 20.2418 197.638 18.6374C197.224 17.0331 195.588 16.068 193.984 16.4819L195.483 22.2917ZM203.373 14.8899C201.722 15.0282 200.496 16.4788 200.634 18.1298C200.772 19.7809 202.223 21.0073 203.874 20.869L203.373 14.8899ZM212.436 20.8728C214.087 21.0126 215.539 19.7875 215.679 18.1366C215.818 16.4856 214.593 15.034 212.942 14.8942L212.436 20.8728ZM222.429 16.5202C220.825 16.102 219.187 17.0626 218.769 18.6658C218.35 20.269 219.311 21.9077 220.914 22.3259L222.429 16.5202ZM229.027 25.1966C230.537 25.879 232.314 25.2082 232.996 23.6984C233.679 22.1885 233.008 20.4114 231.498 19.7291L229.027 25.1966ZM239.896 24.3974C238.518 23.4764 236.655 23.8462 235.734 25.2234C234.813 26.6007 235.183 28.4638 236.56 29.3849L239.896 24.3974ZM247.35 29.2423C248.714 28.3024 249.058 26.4344 248.119 25.0699C247.179 23.7054 245.311 23.3611 243.946 24.301L247.35 29.2423ZM252.488 19.4184C250.985 20.116 250.332 21.8998 251.03 23.4026C251.727 24.9055 253.511 25.5583 255.014 24.8607L252.488 19.4184ZM263.298 21.8528C264.899 21.4247 265.849 19.7802 265.421 18.1796C264.993 16.579 263.349 15.6285 261.748 16.0566L263.298 21.8528ZM271.456 14.3514C269.805 14.4945 268.583 15.9487 268.726 17.5994C268.869 19.25 270.324 20.4721 271.974 20.329L271.456 14.3514ZM280.703 20.3215C282.354 20.4619 283.806 19.2373 283.946 17.5864C284.086 15.9355 282.862 14.4834 281.211 14.3431L280.703 20.3215ZM290.726 15.9799C289.123 15.5603 287.483 16.5195 287.064 18.1223C286.644 19.7252 287.603 21.3647 289.206 21.7843L290.726 15.9799ZM297.342 24.6736C298.851 25.358 300.629 24.6897 301.313 23.1809C301.998 21.672 301.329 19.894 299.82 19.2095L297.342 24.6736ZM308.238 23.9069C306.862 22.9833 304.998 23.3496 304.075 24.7251C303.151 26.1006 303.517 27.9645 304.893 28.8881L308.238 23.9069ZM311.674 34.2812C312.884 35.4124 314.783 35.3481 315.914 34.1376C317.045 32.927 316.981 31.0286 315.77 29.8974L311.674 34.2812ZM322.26 36.9874C321.239 35.6823 319.353 35.4519 318.048 36.4727C316.743 37.4935 316.513 39.379 317.534 40.684L322.26 36.9874ZM322.351 47.9162C323.163 49.3606 324.992 49.8736 326.436 49.0619C327.88 48.2503 328.393 46.4213 327.582 44.9769L322.351 47.9162ZM331.643 53.6671C331.055 52.118 329.322 51.3387 327.773 51.9265C326.224 52.5143 325.445 54.2466 326.033 55.7957L331.643 53.6671ZM328.513 64.139C328.867 65.7576 330.466 66.7824 332.085 66.4281C333.703 66.0738 334.728 64.4744 334.374 62.8559L328.513 64.139ZM335.739 72.3368C335.621 70.6841 334.186 69.4396 332.534 69.5571C330.881 69.6746 329.636 71.1096 329.754 72.7623L335.739 72.3368ZM329.878 79.0768C329.826 80.7328 331.126 82.1177 332.782 82.1699C334.438 82.2222 335.823 80.9221 335.875 79.2661L329.878 79.0768ZM335.604 83.5377C335.761 81.8884 334.552 80.4235 332.903 80.2659C331.254 80.1083 329.789 81.3176 329.631 82.9669L335.604 83.5377ZM334.731 90.5745C336.046 91.5831 337.929 91.3351 338.938 90.0206C339.946 88.7061 339.698 86.8229 338.384 85.8143L334.731 90.5745ZM346.253 93.0381C345.134 91.8155 343.237 91.7309 342.014 92.8491C340.792 93.9673 340.707 95.8649 341.825 97.0875L346.253 93.0381ZM347.704 104.736C348.598 106.13 350.454 106.535 351.849 105.641C353.243 104.746 353.648 102.89 352.753 101.496L347.704 104.736ZM357.74 110.914C357.089 109.39 355.326 108.683 353.802 109.334C352.279 109.985 351.571 111.748 352.222 113.272L357.74 110.914ZM355.277 122.442C355.671 124.051 357.295 125.037 358.904 124.643C360.513 124.25 361.499 122.626 361.106 121.017L355.277 122.442ZM362.791 131.522C362.66 129.871 361.215 128.637 359.564 128.768C357.912 128.899 356.679 130.343 356.809 131.995L362.791 131.522ZM356.845 141.204C356.728 142.857 357.972 144.292 359.625 144.41C361.278 144.527 362.713 143.283 362.83 141.63L356.845 141.204ZM361.465 151.111C361.82 149.492 360.795 147.893 359.176 147.539C357.558 147.184 355.958 148.209 355.604 149.828L361.465 151.111ZM353.124 158.171C352.536 159.72 353.316 161.452 354.865 162.04C356.414 162.628 358.146 161.849 358.734 160.3L353.124 158.171ZM354.673 168.99C355.485 167.545 354.972 165.716 353.528 164.905C352.083 164.093 350.254 164.606 349.443 166.05L354.673 168.99ZM344.625 173.283C343.604 174.588 343.835 176.473 345.14 177.494C346.445 178.515 348.33 178.284 349.351 176.979L344.625 173.283ZM342.862 184.069C344.072 182.938 344.137 181.04 343.005 179.829C341.874 178.618 339.976 178.554 338.765 179.685L342.862 184.069ZM331.984 185.079C330.609 186.002 330.243 187.866 331.166 189.242C332.09 190.617 333.954 190.983 335.329 190.06L331.984 185.079ZM326.912 194.757C328.421 194.073 329.089 192.295 328.405 190.786C327.72 189.277 325.942 188.609 324.433 189.293L326.912 194.757ZM316.297 192.182C314.695 192.602 313.735 194.241 314.155 195.844C314.575 197.447 316.214 198.406 317.817 197.987L316.297 192.182ZM308.302 199.624C309.953 199.483 311.178 198.031 311.038 196.38C310.897 194.729 309.445 193.505 307.794 193.645L308.302 199.624ZM297.082 193.426C295.438 193.218 293.937 194.382 293.729 196.026C293.521 197.669 294.685 199.171 296.328 199.379L297.082 193.426ZM282.49 195.803C284.029 196.416 285.774 195.666 286.387 194.127C287.001 192.588 286.251 190.843 284.711 190.229L282.49 195.803ZM272.437 191.9C271.406 193.196 271.62 195.084 272.917 196.115C274.213 197.147 276.101 196.932 277.132 195.636L272.437 191.9ZM270.653 202.606C271.872 201.484 271.949 199.586 270.827 198.367C269.704 197.149 267.806 197.071 266.588 198.194L270.653 202.606ZM259.84 203.491C258.459 204.407 258.083 206.269 258.998 207.649C259.914 209.03 261.776 209.407 263.157 208.491L259.84 203.491ZM254.799 213.101C256.311 212.423 256.986 210.648 256.308 209.136C255.63 207.625 253.855 206.949 252.343 207.627L254.799 213.101ZM244.278 210.461C242.674 210.876 241.71 212.514 242.126 214.117C242.541 215.721 244.178 216.685 245.782 216.269L244.278 210.461ZM236.358 217.874C238.009 217.735 239.234 216.284 239.096 214.633C238.957 212.982 237.506 211.756 235.855 211.895L236.358 217.874ZM225.996 211.768C224.349 211.587 222.867 212.774 222.686 214.421C222.504 216.068 223.692 217.55 225.339 217.732L225.996 211.768ZM213.158 215C214.725 215.539 216.432 214.706 216.971 213.139C217.51 211.572 216.677 209.865 215.11 209.326L213.158 215ZM205.003 204.565C203.589 203.702 201.743 204.148 200.879 205.563C200.016 206.977 200.463 208.823 201.877 209.686L205.003 204.565ZM191.99 202.128C193.195 203.264 195.094 203.209 196.23 202.003C197.367 200.798 197.311 198.899 196.106 197.762L191.99 202.128ZM187.212 194.448C186.507 196.027 185.736 197.567 184.902 199.062L190.142 201.984C191.062 200.334 191.913 198.636 192.691 196.894L187.212 194.448ZM179.099 207.57C176.903 210.236 174.478 212.681 171.858 214.87L175.705 219.475C178.613 217.044 181.3 214.335 183.73 211.385L179.099 207.57ZM163.392 220.666C160.405 222.311 157.256 223.664 153.978 224.691L155.772 230.416C159.439 229.268 162.956 227.756 166.286 225.922L163.392 220.666ZM143.96 226.744C142.276 226.914 140.569 227.001 138.842 227.001V233.001C140.771 233.001 142.679 232.904 144.563 232.714L143.96 226.744ZM138.842 227.001C137.409 227.001 135.989 226.941 134.586 226.824L134.085 232.803C135.655 232.934 137.241 233.001 138.842 233.001V227.001ZM126.2 225.403C123.433 224.689 120.749 223.747 118.167 222.594L115.721 228.073C118.605 229.36 121.605 230.415 124.702 231.213L126.2 225.403ZM110.695 218.494C108.323 216.93 106.073 215.172 103.964 213.241L99.9122 217.667C102.251 219.808 104.751 221.761 107.391 223.503L110.695 218.494ZM98.1186 206.997C96.3428 204.783 94.7229 202.422 93.2774 199.933L88.0887 202.945C89.6843 205.693 91.474 208.302 93.4381 210.751L98.1186 206.997ZM89.5318 192.222C89.0055 190.899 88.5247 189.551 88.0916 188.179L82.37 189.985C82.8471 191.496 83.3768 192.982 83.9569 194.44L89.5318 192.222ZM83.6376 186.54C82.6262 187.174 81.5938 187.773 80.5419 188.337L83.3744 193.626C84.5474 192.998 85.6978 192.33 86.824 191.624L83.6376 186.54ZM74.0237 191.267C71.8004 192.085 69.5112 192.752 67.1668 193.255L68.4264 199.122C71.0502 198.558 73.6111 197.812 76.0965 196.897L74.0237 191.267ZM60.0987 194.256C58.9186 194.339 57.7275 194.381 56.5268 194.381V200.381C57.8677 200.381 59.1986 200.334 60.5183 200.241L60.0987 194.256ZM56.5268 194.381C55.0716 194.381 53.6305 194.319 52.2058 194.198L51.6976 200.176C53.2911 200.312 54.9017 200.381 56.5268 200.381V194.381ZM43.7025 192.735C40.8982 192.001 38.1798 191.031 35.5668 189.846L33.0882 195.31C36.0058 196.633 39.0449 197.718 42.183 198.539L43.7025 192.735ZM28.0156 185.631C25.6222 184.024 23.3551 182.22 21.2347 180.238L17.1382 184.622C19.4894 186.819 22.0075 188.824 24.6707 190.612L28.0156 185.631ZM15.3748 173.835C13.6009 171.568 11.9887 169.15 10.5575 166.603L5.32672 169.542C6.90631 172.354 8.68719 175.024 10.6488 177.532L15.3748 173.835ZM6.8757 158.724C5.8569 156.039 5.02452 153.252 4.39593 150.38L-1.46526 151.663C-0.773476 154.823 0.143113 157.893 1.26598 160.852L6.8757 158.724ZM3.15455 141.757C3.05216 140.317 3 138.861 3 137.393H-3C-3 139.004 -2.94279 140.601 -2.83034 142.183L3.15455 141.757ZM3 137.393C3 135.804 3.061 134.231 3.18054 132.677L-2.80179 132.217C-2.9331 133.924 -3 135.65 -3 137.393H3ZM4.63194 123.371C5.36704 120.277 6.33965 117.286 7.52759 114.418L1.98452 112.122C0.6749 115.283 -0.396338 118.578 -1.2055 121.984L4.63194 123.371ZM11.8155 106.051C13.4792 103.367 15.3499 100.842 17.4025 98.5024L12.8924 94.5454C10.6204 97.135 8.55269 99.9262 6.71559 102.89L11.8155 106.051ZM24.1595 92.0014C25.3758 91.0167 26.6324 90.0864 27.9261 89.214L24.5712 84.2396C23.1317 85.2104 21.7349 86.2446 20.3841 87.3382L24.1595 92.0014ZM29.2148 86.2772C29.1006 85.5238 29.0002 84.7653 28.9141 84.0021L22.9519 84.6753C23.0466 85.514 23.1569 86.3478 23.2825 87.1763L29.2148 86.2772ZM28.5714 79.4238C28.543 78.662 28.5287 77.8963 28.5287 77.1269H22.5287C22.5287 77.9707 22.5444 78.8108 22.5755 79.6469L28.5714 79.4238ZM28.5287 77.1269C28.5287 75.6579 28.5809 74.2024 28.6832 72.7623L22.6984 72.3368C22.5859 73.9184 22.5287 75.5158 22.5287 77.1269H28.5287ZM29.9246 64.1391C30.5532 61.2678 31.3856 58.4807 32.4044 55.7957L26.7947 53.6671C25.6718 56.6263 24.7552 59.6959 24.0634 62.8559L29.9246 64.1391ZM36.0862 47.9162C37.5174 45.3692 39.1296 42.9518 40.9035 40.684L36.1775 36.9874C34.2159 39.4952 32.435 42.1659 30.8554 44.9769L36.0862 47.9162ZM46.7634 34.2812C48.8838 32.2998 51.1509 30.4953 53.5443 28.8881L50.1994 23.9069C47.5362 25.6953 45.0181 27.7002 42.6669 29.8974L46.7634 34.2812ZM61.0955 24.6736C63.7085 23.4883 66.4269 22.5184 69.2312 21.7843L67.7117 15.9799C64.5736 16.8014 61.5345 17.8859 58.6169 19.2095L61.0955 24.6736ZM77.7345 20.3215C79.1592 20.2004 80.6003 20.1387 82.0555 20.1387V14.1387C80.4304 14.1387 78.8198 14.2077 77.2263 14.3431L77.7345 20.3215ZM82.0555 20.1387C83.8599 20.1387 85.6425 20.2336 87.3992 20.4189L88.0286 14.452C86.0632 14.2447 84.0706 14.1387 82.0555 14.1387V20.1387ZM97.843 22.6576C99.5436 23.2158 101.209 23.8619 102.833 24.5912L105.29 19.1176C103.476 18.3032 101.616 17.581 99.7141 16.9568L97.843 22.6576ZM106.431 23.6948C107.251 22.6389 108.106 21.6152 108.994 20.6257L104.529 16.6181C103.546 17.7136 102.6 18.8463 101.693 20.014L106.431 23.6948ZM114.74 15.0832C116.789 13.3764 118.956 11.8261 121.225 10.4483L118.111 5.31972C115.583 6.85437 113.174 8.57871 110.9 10.4737L114.74 15.0832ZM128.321 6.84931C130.759 5.84045 133.283 5.01678 135.878 4.39404L134.478 -1.4403C131.574 -0.743354 128.751 0.177977 126.027 1.30513L128.321 6.84931ZM143.724 3.15469C145.036 3.05219 146.362 3 147.699 3V-3C146.206 -3 144.724 -2.94171 143.257 -2.82709L143.724 3.15469ZM147.699 3C149.654 3 151.582 3.11135 153.48 3.32821L154.161 -2.633C152.038 -2.87563 149.882 -3 147.699 -3V3ZM164.733 5.9459C168.386 7.25053 171.865 8.96445 175.124 11.0385L178.346 5.977C174.718 3.66772 170.835 1.75423 166.751 0.295526L164.733 5.9459ZM184.181 18.2878C185.554 19.6495 186.859 21.0876 188.092 22.5958L192.738 18.7984C191.374 17.1299 189.928 15.5376 188.407 14.0283L184.181 18.2878ZM191.406 23.5287C192.743 23.061 194.102 22.6478 195.483 22.2917L193.984 16.4819C192.439 16.8804 190.918 17.3425 189.424 17.8656L191.406 23.5287ZM203.874 20.869C205.278 20.7514 206.699 20.6914 208.133 20.6914V14.6914C206.531 14.6914 204.944 14.7584 203.373 14.8899L203.874 20.869ZM208.133 20.6914C209.582 20.6914 211.017 20.7527 212.436 20.8728L212.942 14.8942C211.355 14.7598 209.751 14.6914 208.133 14.6914V20.6914ZM220.914 22.3259C223.71 23.0552 226.421 24.0188 229.027 25.1966L231.498 19.7291C228.588 18.4139 225.557 17.3363 222.429 16.5202L220.914 22.3259ZM236.56 29.3849C237.756 30.1845 238.92 31.0334 240.051 31.929L243.777 27.2259C242.521 26.2311 241.226 25.2873 239.896 24.3974L236.56 29.3849ZM243.813 31.9C244.956 30.9648 246.136 30.0779 247.35 29.2423L243.946 24.301C242.597 25.2306 241.285 26.2164 240.015 27.2549L243.813 31.9ZM255.014 24.8607C257.671 23.6272 260.44 22.6174 263.298 21.8528L261.748 16.0566C258.549 16.9122 255.455 18.0413 252.488 19.4184L255.014 24.8607ZM271.974 20.329C273.427 20.203 274.897 20.1387 276.382 20.1387V14.1387C274.724 14.1387 273.081 14.2105 271.456 14.3514L271.974 20.329ZM276.382 20.1387C277.837 20.1387 279.278 20.2004 280.703 20.3215L281.211 14.3431C279.617 14.2077 278.007 14.1387 276.382 14.1387V20.1387ZM289.206 21.7843C292.01 22.5184 294.729 23.4883 297.342 24.6736L299.82 19.2095C296.903 17.8859 293.864 16.8014 290.726 15.9799L289.206 21.7843ZM304.893 28.8881C307.286 30.4953 309.553 32.2998 311.674 34.2812L315.77 29.8974C313.419 27.7002 310.901 25.6953 308.238 23.9069L304.893 28.8881ZM317.534 40.684C319.308 42.9518 320.92 45.3692 322.351 47.9162L327.582 44.9769C326.002 42.1658 324.221 39.4952 322.26 36.9874L317.534 40.684ZM326.033 55.7957C327.052 58.4806 327.884 61.2678 328.513 64.139L334.374 62.8559C333.682 59.6959 332.765 56.6263 331.643 53.6671L326.033 55.7957ZM329.754 72.7623C329.856 74.2024 329.909 75.6579 329.909 77.1269H335.909C335.909 75.5158 335.851 73.9184 335.739 72.3368L329.754 72.7623ZM329.909 77.1269C329.909 77.7796 329.898 78.4296 329.878 79.0768L335.875 79.2661C335.897 78.5558 335.909 77.8427 335.909 77.1269H329.909ZM329.631 82.9669C329.569 83.6157 329.497 84.2612 329.415 84.9032L335.366 85.6657C335.456 84.9599 335.536 84.2505 335.604 83.5377L329.631 82.9669ZM330.786 87.8192C332.14 88.6767 333.456 89.5963 334.731 90.5745L338.384 85.8143C336.967 84.7273 335.503 83.7043 333.995 82.7497L330.786 87.8192ZM341.825 97.0875C343.983 99.4468 345.952 102.006 347.704 104.736L352.753 101.496C350.818 98.4801 348.642 95.6505 346.253 93.0381L341.825 97.0875ZM352.222 113.272C353.475 116.203 354.501 119.268 355.277 122.442L361.106 121.017C360.251 117.523 359.121 114.146 357.74 110.914L352.222 113.272ZM356.809 131.995C356.936 133.592 357 135.207 357 136.84H363C363 135.049 362.929 133.276 362.791 131.522L356.809 131.995ZM357 136.84C357 138.309 356.948 139.764 356.845 141.204L362.83 141.63C362.943 140.048 363 138.451 363 136.84H357ZM355.604 149.828C354.975 152.699 354.143 155.486 353.124 158.171L358.734 160.3C359.857 157.34 360.773 154.271 361.465 151.111L355.604 149.828ZM349.443 166.05C348.011 168.597 346.399 171.015 344.625 173.283L349.351 176.979C351.313 174.471 353.094 171.801 354.673 168.99L349.443 166.05ZM338.765 179.685C336.645 181.667 334.378 183.471 331.984 185.079L335.329 190.06C337.992 188.271 340.511 186.266 342.862 184.069L338.765 179.685ZM324.433 189.293C321.82 190.478 319.102 191.448 316.297 192.182L317.817 197.987C320.955 197.165 323.994 196.081 326.912 194.757L324.433 189.293ZM307.794 193.645C306.37 193.766 304.928 193.828 303.473 193.828V199.828C305.098 199.828 306.709 199.759 308.302 199.624L307.794 193.645ZM303.473 193.828C301.309 193.828 299.177 193.691 297.082 193.426L296.328 199.379C298.672 199.675 301.056 199.828 303.473 199.828V193.828ZM284.711 190.229C282.722 189.436 280.788 188.52 278.917 187.49L276.023 192.746C278.108 193.894 280.267 194.917 282.49 195.803L284.711 190.229ZM274.988 188.433C274.179 189.624 273.328 190.781 272.437 191.9L277.132 195.636C278.117 194.398 279.058 193.119 279.952 191.803L274.988 188.433ZM266.588 198.194C264.475 200.141 262.219 201.913 259.84 203.491L263.157 208.491C265.804 206.735 268.31 204.765 270.653 202.606L266.588 198.194ZM252.343 207.627C249.751 208.79 247.056 209.741 244.278 210.461L245.782 216.269C248.892 215.464 251.905 214.4 254.799 213.101L252.343 207.627ZM235.855 211.895C234.444 212.014 233.018 212.074 231.578 212.074V218.074C233.186 218.074 234.78 218.007 236.358 217.874L235.855 211.895ZM231.578 212.074C229.692 212.074 227.83 211.97 225.996 211.768L225.339 217.732C227.39 217.958 229.472 218.074 231.578 218.074V212.074ZM215.11 209.326C211.568 208.108 208.184 206.506 205.003 204.565L201.877 209.686C205.421 211.849 209.197 213.638 213.158 215L215.11 209.326ZM196.106 197.762C194.747 196.481 193.45 195.128 192.219 193.707L187.684 197.635C189.046 199.208 190.483 200.707 191.99 202.128L196.106 197.762Z" fill="#247158" mask="url(#path-1-inside-1_361_835)"/>
</svg>
