<svg width="313" height="320" viewBox="0 0 313 320" fill="none" xmlns="http://www.w3.org/2000/svg">
<g filter="url(#filter0_d_314_802)">
<rect x="33.9484" y="0.67041" width="280.022" height="288.186" rx="50" transform="rotate(6.56918 33.9484 0.67041)" fill="white"/>
<g clip-path="url(#clip0_314_802)">
<path d="M160.976 254.654L132.535 251.379L156.304 153.9L160.988 154.439L160.976 254.654Z" fill="#6A3906"/>
<path d="M198.128 218.053L104.672 207.291C100.006 206.754 97.6687 201.373 100.466 197.605L156.503 122.157C159.301 118.389 165.135 119.061 167.003 123.366L204.423 209.577C206.291 213.882 202.794 218.59 198.125 218.053L198.128 218.053Z" fill="#007C2F"/>
<path d="M192.141 163.543L122.645 155.54C119.174 155.141 117.437 151.138 119.519 148.337L161.187 92.2327C163.268 89.4315 167.605 89.931 168.995 93.1319L196.82 157.239C198.21 160.44 195.609 163.943 192.138 163.543L192.141 163.543Z" fill="#00913A"/>
<path d="M187.743 120.549L136.698 114.671C134.15 114.377 132.872 111.437 134.402 109.379L165.008 68.1731C166.537 66.1154 169.722 66.4821 170.743 68.8335L191.182 115.918C192.203 118.269 190.291 120.842 187.743 120.549Z" fill="#22AC38"/>
</g>
</g>
<defs>
<filter id="filter0_d_314_802" x="-3.02094" y="-1.32959" width="319.153" height="326.33" filterUnits="userSpaceOnUse" color-interpolation-filters="sRGB">
<feFlood flood-opacity="0" result="BackgroundImageFix"/>
<feColorMatrix in="SourceAlpha" type="matrix" values="0 0 0 0 0 0 0 0 0 0 0 0 0 0 0 0 0 0 127 0" result="hardAlpha"/>
<feOffset dy="2"/>
<feGaussianBlur stdDeviation="2"/>
<feComposite in2="hardAlpha" operator="out"/>
<feColorMatrix type="matrix" values="0 0 0 0 0 0 0 0 0 0 0 0 0 0 0 0 0 0 0.25 0"/>
<feBlend mode="normal" in2="BackgroundImageFix" result="effect1_dropShadow_314_802"/>
<feBlend mode="normal" in="SourceGraphic" in2="effect1_dropShadow_314_802" result="shape"/>
</filter>
<clipPath id="clip0_314_802">
<rect width="184.022" height="192.186" fill="white" transform="translate(76.1419 53.8467) rotate(6.56918)"/>
</clipPath>
</defs>
</svg>
